<?xml version="1.0" standalone="no"?><!DOCTYPE svg PUBLIC "-//W3C//DTD SVG 1.1//EN" "http://www.w3.org/Graphics/SVG/1.1/DTD/svg11.dtd"><svg t="1709114320099" class="icon" viewBox="0 0 1024 1024" version="1.1" xmlns="http://www.w3.org/2000/svg" p-id="2774" xmlns:xlink="http://www.w3.org/1999/xlink" width="200" height="200"><path d="M230.016 450.944l279.808 104.96c1.728 0.64 3.584 0.704 5.312 0.128l0.32-0.064 278.528-104.64v335.68a16 16 0 0 1-6.464 12.928l-8.128 5.952c-84.48 62.4-180.416 94.08-267.2 94.08-85.888 0-181.12-31.04-264.96-92.16l-2.56-1.92-8.128-5.952a16 16 0 0 1-6.528-12.864V450.944z m285.312-306.816l442.56 174.72a8 8 0 0 1-0.128 14.912L515.456 499.968a8 8 0 0 1-5.632 0l-318.848-119.68V640a8 8 0 0 1-8 8h-48a8 8 0 0 1-8-8V356.288L67.072 333.76a8 8 0 0 1-0.128-14.912l442.496-174.72a8 8 0 0 1 5.888 0z" p-id="2775"></path></svg>