<?xml version="1.0" standalone="no"?><!DOCTYPE svg PUBLIC "-//W3C//DTD SVG 1.1//EN" "http://www.w3.org/Graphics/SVG/1.1/DTD/svg11.dtd"><svg t="1704365343103" class="icon" viewBox="0 0 1024 1024" version="1.1" xmlns="http://www.w3.org/2000/svg" p-id="1633" xmlns:xlink="http://www.w3.org/1999/xlink" width="200" height="200"><path d="M540.032 32c4.416 0 7.936 3.584 7.936 8v81.6A392.128 392.128 0 0 1 902.4 475.968H984c4.416 0 8 3.584 8 8v56a8 8 0 0 1-8 8.064h-81.6A392.128 392.128 0 0 1 548.032 902.4V984a8 8 0 0 1-8.064 8h-55.936a8 8 0 0 1-8-8v-81.6A392.128 392.128 0 0 1 121.6 548.032H40a8 8 0 0 1-8-8.064v-55.936c0-4.48 3.584-8 8-8h81.6A392.128 392.128 0 0 1 475.968 121.6V40c0-4.416 3.584-8 8-8h56zM512 368a144 144 0 1 0 0 288 144 144 0 0 0 0-288z" p-id="1634"></path></svg>