<?xml version="1.0" standalone="no"?><!DOCTYPE svg PUBLIC "-//W3C//DTD SVG 1.1//EN" "http://www.w3.org/Graphics/SVG/1.1/DTD/svg11.dtd"><svg t="1677650755002" class="icon" viewBox="0 0 1024 1024" version="1.1" xmlns="http://www.w3.org/2000/svg" p-id="1927" xmlns:xlink="http://www.w3.org/1999/xlink" width="200" height="200"><path d="M540.032 64c4.416 0 7.936 3.584 7.936 8v121.984a320.128 320.128 0 0 1 282.048 281.984H952c4.416 0 8 3.584 8 8v56a8 8 0 0 1-8 8.064H830.016a320.128 320.128 0 0 1-281.984 281.984V952a8 8 0 0 1-8.064 8h-55.936a8 8 0 0 1-8-8V830.016A320.128 320.128 0 0 1 193.92 548.032H72a8 8 0 0 1-8-8.064v-55.936c0-4.48 3.584-8 8-8h121.984A320.128 320.128 0 0 1 475.968 193.92V72c0-4.416 3.584-8 8-8h56zM512 400a112 112 0 1 0 0 224 112 112 0 0 0 0-224z" p-id="1928"></path></svg>