<?xml version="1.0" standalone="no"?><!DOCTYPE svg PUBLIC "-//W3C//DTD SVG 1.1//EN" "http://www.w3.org/Graphics/SVG/1.1/DTD/svg11.dtd"><svg t="1658233288892" class="icon" viewBox="0 0 1024 1024" version="1.1" xmlns="http://www.w3.org/2000/svg" p-id="24036" xmlns:xlink="http://www.w3.org/1999/xlink" width="200" height="200"><defs><style type="text/css">@font-face { font-family: feedback-iconfont; src: url("//at.alicdn.com/t/font_1031158_u69w8yhxdu.woff2?t=1630033759944") format("woff2"), url("//at.alicdn.com/t/font_1031158_u69w8yhxdu.woff?t=1630033759944") format("woff"), url("//at.alicdn.com/t/font_1031158_u69w8yhxdu.ttf?t=1630033759944") format("truetype"); }
</style></defs><path d="M733.143 112c15.78 0 28.571 12.792 28.571 28.571v103.572h57.143c15.78 0 28.572 12.792 28.572 28.571v478.572c0 15.78-12.792 28.571-28.572 28.571h-57.143V883.43c0 15.78-12.792 28.571-28.571 28.571H290.286c-15.78 0-28.572-12.792-28.572-28.571V779.857h-57.143c-15.78 0-28.571-12.792-28.571-28.571V272.714c0-15.78 12.792-28.571 28.571-28.571h57.143V140.57c0-15.78 12.792-28.571 28.572-28.571z m-35.714 667.857H326v67.857h371.429v-67.857z m-67.858-300H393.857a7.143 7.143 0 0 0-7.143 7.143v28.571h-82.143c-7.89 0-14.285 6.396-14.285 14.286v121.429c0 7.89 6.396 14.285 14.285 14.285h414.286c7.89 0 14.286-6.396 14.286-14.285V529.857c0-7.89-6.396-14.286-14.286-14.286h-82.143V487a7.143 7.143 0 0 0-7.143-7.143z m67.858-303.571H326v67.857h371.429v-67.857z" p-id="24037"></path></svg>