<?xml version="1.0" standalone="no"?><!DOCTYPE svg PUBLIC "-//W3C//DTD SVG 1.1//EN" "http://www.w3.org/Graphics/SVG/1.1/DTD/svg11.dtd"><svg t="1679050508173" class="icon" viewBox="0 0 1024 1024" version="1.1" xmlns="http://www.w3.org/2000/svg" p-id="3510" xmlns:xlink="http://www.w3.org/1999/xlink" width="200" height="200"><path d="M512 208a368 368 0 1 0 0 736 368 368 0 0 0 0-736z m-24 152h48c3.456 0 6.4 2.176 7.552 5.312L544 368v195.584l94.08 100.928c2.24 2.432 2.688 5.76 1.536 8.576l-1.92 2.752-35.456 32.384a8 8 0 0 1-8.512 1.536l-2.752-1.92-106.688-114.816a16 16 0 0 1-3.712-6.656l-0.576-4.224V368c0-3.456 2.176-6.4 5.312-7.552L488 360z m237.184-202.24a8 8 0 0 0 0 11.328L855.296 299.2a8 8 0 0 0 11.328 0l39.616-39.552a8 8 0 0 0 0-11.328L776.128 118.208a8 8 0 0 0-11.328 0l-39.616 39.616z m-465.536-39.552a8 8 0 0 0-11.328 0L118.208 248.32a8 8 0 0 0 0 11.328l39.616 39.552a8 8 0 0 0 11.264 0L299.2 169.088a8 8 0 0 0 0-11.264l-39.552-39.68z" p-id="3511"></path></svg>