<?xml version="1.0" standalone="no"?><!DOCTYPE svg PUBLIC "-//W3C//DTD SVG 1.1//EN" "http://www.w3.org/Graphics/SVG/1.1/DTD/svg11.dtd"><svg t="1678079160441" class="icon" viewBox="0 0 1024 1024" version="1.1" xmlns="http://www.w3.org/2000/svg" p-id="3839" xmlns:xlink="http://www.w3.org/1999/xlink" width="200" height="200"><path d="M512 208a368 368 0 1 1 0 736 368 368 0 0 1 0-736z m24 152h-48a8 8 0 0 0-8 7.744v195.84l-94.08 100.928a8 8 0 0 0 0.256 11.136l0.192 0.192 35.392 32.384c3.2 2.944 8.064 2.816 11.072-0.192l0.192-0.256 106.688-114.752A16 16 0 0 0 544 582.592V368a8 8 0 0 0-7.744-8H536zM298.816 157.76a8 8 0 0 1 0 11.328L168.704 299.2a8 8 0 0 1-11.328 0l-39.616-39.552a8 8 0 0 1 0-11.328l130.112-130.112a8 8 0 0 1 11.328 0l39.616 39.616z m465.536-39.552a8 8 0 0 1 11.328 0L905.792 248.32a8 8 0 0 1 0 11.328L866.176 299.2a8 8 0 0 1-11.264 0L724.8 169.088a8 8 0 0 1 0-11.264l39.552-39.68z" p-id="3840"></path></svg>