<?xml version="1.0" standalone="no"?><!DOCTYPE svg PUBLIC "-//W3C//DTD SVG 1.1//EN" "http://www.w3.org/Graphics/SVG/1.1/DTD/svg11.dtd"><svg t="1669373775633" class="icon" viewBox="0 0 1024 1024" version="1.1" xmlns="http://www.w3.org/2000/svg" p-id="1146" xmlns:xlink="http://www.w3.org/1999/xlink" width="200" height="200"><path d="M511.806 198.583c196.504 0 355.691 159.281 355.691 355.708C867.497 750.718 708.32 910 511.806 910c-196.514 0-355.303-159.282-355.303-355.709s158.789-355.708 355.303-355.708zM510.493 381h-59.577c-6.554 0-11.916 5.39-11.916 11.978v187.686c0 0.713 0.063 1.412 0.183 2.091 0.143 3.996 2.274 7.843 5.973 9.979l162.588 93.87c5.707 3.294 13.072 1.32 16.367-4.386l29.953-51.881 0.153-0.273c3.079-5.667 1.078-12.851-4.538-16.094l-127.271-73.48V392.978c0-6.588-5.361-11.978-11.915-11.978zM298.578 123.455l38.567 45.963c4.242 5.056 3.578 12.662-1.476 16.903L176.325 320.026c-5.054 4.241-12.66 3.575-16.903-1.481l-38.567-45.963c-4.242-5.056-3.578-12.662 1.476-16.903l159.344-133.705c5.054-4.241 12.66-3.575 16.903 1.481z m443.747-1.481L901.67 255.679c5.054 4.24 5.718 11.847 1.476 16.903l-38.567 45.963c-4.243 5.056-11.85 5.722-16.903 1.481L688.33 186.321c-5.054-4.24-5.718-11.847-1.476-16.903l38.567-45.963c4.243-5.056 11.85-5.722 16.903-1.481z" p-id="1147"></path></svg>