<?xml version="1.0" standalone="no"?><!DOCTYPE svg PUBLIC "-//W3C//DTD SVG 1.1//EN" "http://www.w3.org/Graphics/SVG/1.1/DTD/svg11.dtd"><svg t="1678026081600" class="icon" viewBox="0 0 1024 1024" version="1.1" xmlns="http://www.w3.org/2000/svg" p-id="1516" xmlns:xlink="http://www.w3.org/1999/xlink" width="200" height="200"><path d="M512 224a318.976 318.976 0 0 1 319.04 319.04V776a32 32 0 0 1-32 32H224.96a32 32 0 0 1-32-32V543.04A318.976 318.976 0 0 1 512 224zM483.968 48h56c4.48 0 8.064 3.584 8.064 8v96a8 8 0 0 1-8.064 8h-55.936a8 8 0 0 1-8-8V56c0-4.416 3.52-8 8-8zM177.28 171.648a8 8 0 0 1 11.328 0l67.904 67.904a8 8 0 0 1 0 11.328l-39.552 39.616a8 8 0 0 1-11.328 0L137.6 222.592a8 8 0 0 1 0-11.328l39.616-39.616z m669.632 0l39.616 39.616a8 8 0 0 1 0 11.264L818.56 290.56a8 8 0 0 1-11.264 0l-39.68-39.68a8 8 0 0 1 0-11.264l67.968-67.904a8 8 0 0 1 11.264 0zM192 872h640a32 32 0 0 1 32 32v24a8 8 0 0 1-8 8H168a8 8 0 0 1-8-8v-24a32 32 0 0 1 32-32z m148.032-316.992V808h64V555.008h-64z" p-id="1517"></path></svg>