<?xml version="1.0" standalone="no"?><!DOCTYPE svg PUBLIC "-//W3C//DTD SVG 1.1//EN" "http://www.w3.org/Graphics/SVG/1.1/DTD/svg11.dtd"><svg t="1709114371990" class="icon" viewBox="0 0 1024 1024" version="1.1" xmlns="http://www.w3.org/2000/svg" p-id="4468" xmlns:xlink="http://www.w3.org/1999/xlink" width="200" height="200"><path d="M512 88.64a16 16 0 0 1 11.328 4.672l409.344 409.344a16 16 0 0 1-11.328 27.328H864V896a16 16 0 0 1-16 16H176a16 16 0 0 1-16-16V529.984h-57.344a16 16 0 0 1-11.328-27.328L500.672 93.312A16 16 0 0 1 512 88.64z m6.464 447.168c-34.048 0-74.624 17.792-104.512 43.776a128.32 128.32 0 0 0-34.944 46.016 77.184 77.184 0 0 0-2.944 54.4c5.952 18.56 17.792 31.168 34.88 36.16 8.704 2.56 17.6 3.264 27.84 2.88l1.536-0.064 1.088-0.064 1.6-0.128 1.6-0.064 1.6-0.128 1.152-0.128 1.152-0.128 1.6-0.128 1.664-0.192 0.768-0.064 1.728-0.192 0.832-0.128 1.728-0.192 2.688-0.384 3.712-0.512 2.88-0.384 3.008-0.512 5.632-0.896 8.704-1.408 5.504-0.896 3.52-0.576 2.816-0.384 2.56-0.384 1.728-0.256 2.368-0.256 1.536-0.192 1.92-0.256 1.728-0.128 1.472-0.128 1.408-0.128 1.408-0.128 1.728-0.064 3.328-0.128h4.864l1.28 0.128h1.152l1.088 0.128 1.024 0.064 1.088 0.128 1.088 0.064 2.176 0.32 1.088 0.128 1.024 0.128 2.688 0.448 1.152 0.256 1.664 0.32 1.664 0.32 1.664 0.384 1.216 0.256 1.664 0.384 1.28 0.256 1.152 0.32 1.92 0.448 1.92 0.512 2.56 0.64 2.752 0.768 5.952 1.6 3.648 0.96 2.048 0.512 1.92 0.512 2.368 0.64 1.728 0.384 1.024 0.256 1.024 0.192 0.96 0.256 1.92 0.384 1.344 0.32 0.832 0.128 0.832 0.192 0.832 0.128 2.304 0.384 1.472 0.256 0.64 0.064 0.768 0.128 0.768 0.064 0.64 0.064 0.96 0.128 1.024 0.064 1.472 0.128 1.28 0.064 0.64 0.064h6.912a55.36 55.36 0 0 0 25.856-7.36c18.112-10.496 29.952-25.92 34.752-44.16 3.84-14.72 3.2-30.272-1.28-43.136-8.96-25.6-30.72-48.192-57.856-65.536-26.624-16.96-57.088-27.712-83.968-27.712zM344 471.04a40 40 0 1 0 0 80 40 40 0 0 0 0-80z m336 0a40 40 0 1 0 0 80 40 40 0 0 0 0-80z m-232-80a48 48 0 1 0 0 96 48 48 0 0 0 0-96z m128 0a48 48 0 1 0 0 96 48 48 0 0 0 0-96z" p-id="4469"></path></svg>