<?xml version="1.0" standalone="no"?><!DOCTYPE svg PUBLIC "-//W3C//DTD SVG 1.1//EN" "http://www.w3.org/Graphics/SVG/1.1/DTD/svg11.dtd"><svg t="1678070783509" class="icon" viewBox="0 0 1024 1024" version="1.1" xmlns="http://www.w3.org/2000/svg" p-id="4868" xmlns:xlink="http://www.w3.org/1999/xlink" width="200" height="200"><path d="M312 720v184a8 8 0 0 1-8 8H120a8 8 0 0 1-8-8V720c0-4.416 3.584-8 8-8h184c4.416 0 8 3.584 8 8z m300.032 0v184a8 8 0 0 1-8.064 8H420.032a8 8 0 0 1-8-8V720c0-4.416 3.52-8 8-8h184c4.416 0 7.936 3.584 7.936 8zM912 720v184a8 8 0 0 1-8 8H720a8 8 0 0 1-8-8V720c0-4.416 3.584-8 8-8h184c4.416 0 8 3.584 8 8zM304 611.968H120a8 8 0 0 1-8-7.936V419.968c0-4.416 3.584-8 8-8h184c4.416 0 8 3.584 8 8v184a8 8 0 0 1-8 8.064z m300.032 0H419.968a8 8 0 0 1-8-7.936V419.968c0-4.416 3.584-8 8-8h184c4.48 0 8.064 3.584 8.064 8v184a8 8 0 0 1-8.064 8.064z m299.968 0H720a8 8 0 0 1-8-7.936V419.968c0-4.416 3.584-8 8-8h184c4.416 0 8 3.584 8 8v184a8 8 0 0 1-8 8.064zM312 120v184a8 8 0 0 1-8 8H120a8 8 0 0 1-8-8V120c0-4.416 3.584-8 8-8h184c4.416 0 8 3.584 8 8z m300.032 0v184a8 8 0 0 1-8.064 8H420.032a8 8 0 0 1-8-8V120c0-4.416 3.52-8 8-8h184c4.416 0 7.936 3.584 7.936 8zM912 120v184a8 8 0 0 1-8 8H720a8 8 0 0 1-8-8V120c0-4.416 3.584-8 8-8h184c4.416 0 8 3.584 8 8z" p-id="4869"></path></svg>