<?xml version="1.0" standalone="no"?><!DOCTYPE svg PUBLIC "-//W3C//DTD SVG 1.1//EN" "http://www.w3.org/Graphics/SVG/1.1/DTD/svg11.dtd"><svg t="1678026108243" class="icon" viewBox="0 0 1024 1024" version="1.1" xmlns="http://www.w3.org/2000/svg" p-id="2444" xmlns:xlink="http://www.w3.org/1999/xlink" width="200" height="200"><path d="M444.032 548.032a32 32 0 0 1 32 32V880a32 32 0 0 1-32 32H144a32 32 0 0 1-32-32V579.968a32 32 0 0 1 32-32h300.032z m435.968 0a32 32 0 0 1 32 32V880a32 32 0 0 1-32 32H579.968a32 32 0 0 1-32-32V579.968a32 32 0 0 1 32-32H880zM443.968 112a32 32 0 0 1 32 32v300.032a32 32 0 0 1-32 32H144a32 32 0 0 1-32-32V144a32 32 0 0 1 32-32h300.032zM880 112a32 32 0 0 1 32 32v300.032a32 32 0 0 1-32 32H579.968a32 32 0 0 1-32-32V144a32 32 0 0 1 32-32H880z" p-id="2445"></path></svg>