<?xml version="1.0" standalone="no"?><!DOCTYPE svg PUBLIC "-//W3C//DTD SVG 1.1//EN" "http://www.w3.org/Graphics/SVG/1.1/DTD/svg11.dtd"><svg t="1678346238839" class="icon" viewBox="0 0 1024 1024" version="1.1" xmlns="http://www.w3.org/2000/svg" p-id="830" xmlns:xlink="http://www.w3.org/1999/xlink" width="200" height="200"><path d="M760.064 154.368l0.128 0.384 180.352 446.272a32 32 0 0 1-8.768 36.224l-0.384 0.32-96.704 81.152-63.552-40.704 91.712-76.928L704.32 208.64l-422.144 29.568-102.4 410.624 358.912 224.256 91.84-77.056 28.992 69.632-96.832 81.28a32 32 0 0 1-37.12 2.88l-0.384-0.256-408.192-255.104a32 32 0 0 1-14.208-34.432l0.064-0.448 116.48-467.008a32 32 0 0 1 28.352-24.128h0.448l480.192-33.6a32 32 0 0 1 31.744 19.52zM625.92 651.52a8 8 0 0 1 10.88-2.56l0.192 0.128 188.352 120.704a8 8 0 0 1-2.304 14.464h-0.192l-61.12 14.016a16 16 0 0 0-11.008 9.024l-0.192 0.32-24.32 57.792a8 8 0 0 1-14.72 0.192v-0.256L625.28 658.88a8 8 0 0 1 0.64-7.36z m56.448-390.528l0.192 0.32 128 316.928a16 16 0 0 1-4.224 18.048l-0.32 0.192-70.208 58.88L512 512l102.4 245.312-70.208 58.88a16 16 0 0 1-18.496 1.536l-0.32-0.192-289.92-181.12a16 16 0 0 1-7.04-17.152v-0.32l82.752-331.648a16 16 0 0 1 14.08-12.096h0.32l340.992-23.872a16 16 0 0 1 15.808 9.6z" p-id="831"></path></svg>