<?xml version="1.0" standalone="no"?><!DOCTYPE svg PUBLIC "-//W3C//DTD SVG 1.1//EN" "http://www.w3.org/Graphics/SVG/1.1/DTD/svg11.dtd"><svg t="1658235932630" class="icon" viewBox="0 0 1024 1024" version="1.1" xmlns="http://www.w3.org/2000/svg" p-id="30899" xmlns:xlink="http://www.w3.org/1999/xlink" width="200" height="200"><defs><style type="text/css">@font-face { font-family: feedback-iconfont; src: url("//at.alicdn.com/t/font_1031158_u69w8yhxdu.woff2?t=1630033759944") format("woff2"), url("//at.alicdn.com/t/font_1031158_u69w8yhxdu.woff?t=1630033759944") format("woff"), url("//at.alicdn.com/t/font_1031158_u69w8yhxdu.ttf?t=1630033759944") format("truetype"); }
</style></defs><path d="M698.22 130.276l212.281 391.52a7.31 7.31 0 0 1-1.812 9.182l-101.52 82.866-66.901-30.293 89.298-72.924-170.877-315.204-356.14 32.397-114.153 345.322 317.661 237.544 91.228-94.562 29.006 64.679-108.655 112.69a7.31 7.31 0 0 1-9.65 0.76l-392.69-293.567a7.31 7.31 0 0 1-2.572-8.187l139.415-421.755a7.31 7.31 0 0 1 6.257-4.97l432.69-39.357a7.31 7.31 0 0 1 7.076 3.8l0.059 0.06z m-80.876 469.825l234.853 106.257-103.391 25.848-25.848 103.392-105.614-235.497z m8.187-342.983L755.004 495.89l-74.269 60.702-194.561-88.012 85.263 190.059-71.696 74.269-242.69-181.404 88.89-269.005 279.648-25.38h-0.058z" p-id="30900"></path></svg>