<?xml version="1.0" standalone="no"?><!DOCTYPE svg PUBLIC "-//W3C//DTD SVG 1.1//EN" "http://www.w3.org/Graphics/SVG/1.1/DTD/svg11.dtd"><svg t="1678069764455" class="icon" viewBox="0 0 1024 1024" version="1.1" xmlns="http://www.w3.org/2000/svg" p-id="1412" xmlns:xlink="http://www.w3.org/1999/xlink" width="200" height="200"><path d="M287.68 126.912l499.328 38.336a16 16 0 0 1 13.696 10.048l153.344 387.776a16 16 0 0 1-3.712 17.344L567.488 950.848a16 16 0 0 1-20.288 1.664L85.504 631.232a16 16 0 0 1-5.76-19.072l191.872-475.328a16 16 0 0 1 16.064-9.92z m546.56 329.024L475.52 814.848l44.864 31.232 335.552-335.36-21.632-54.784h-0.064z m-63.232-159.744l-427.072 427.2 44.16 30.72L792.192 349.76l-21.12-53.568h-0.064zM616.32 224.32L210.56 630.528l45.952 32 432.64-432.64-72.896-5.568h0.064z m-206.592-15.872L259.968 358.08l-50.816 125.824 269.632-270.08-69.056-5.376z" p-id="1413"></path></svg>