<?xml version="1.0" standalone="no"?><!DOCTYPE svg PUBLIC "-//W3C//DTD SVG 1.1//EN" "http://www.w3.org/Graphics/SVG/1.1/DTD/svg11.dtd"><svg t="1725361360828" class="icon" viewBox="0 0 1024 1024" version="1.1" xmlns="http://www.w3.org/2000/svg" p-id="1942" xmlns:xlink="http://www.w3.org/1999/xlink" width="200" height="200"><path d="M912 652.032v135.936C912 883.008 732.928 960 512 960s-400-76.992-400-172.032V652.032C112 747.008 291.072 824 512 824s400-76.992 400-172.032zM840 792a24 24 0 1 0 0 48 24 24 0 0 0 0-48z m72-324.032v136C912 699.008 732.928 776 512 776s-400-76.992-400-172.032V468.032C112 562.944 291.072 640 512 640s400-76.992 400-172.032zM840 608a24 24 0 1 0 0 48 24 24 0 0 0 0-48z m72-324.032v136C912 515.008 732.928 592 512 592s-400-76.992-400-172.032V284.032c0 95.04 179.072 172.032 400 172.032s400-76.992 400-172.032zM840 424a24 24 0 1 0 0 48 24 24 0 0 0 0-48zM512 64c220.928 0 400 76.992 400 172.032C912 331.008 732.928 408 512 408s-400-76.992-400-172.032C112 141.056 291.072 64 512 64z" p-id="1943"></path></svg>