<?xml version="1.0" standalone="no"?><!DOCTYPE svg PUBLIC "-//W3C//DTD SVG 1.1//EN" "http://www.w3.org/Graphics/SVG/1.1/DTD/svg11.dtd"><svg t="1655110171873" class="icon" viewBox="0 0 1024 1024" version="1.1" xmlns="http://www.w3.org/2000/svg" p-id="62282" xmlns:xlink="http://www.w3.org/1999/xlink" width="200" height="200"><defs><style type="text/css">@font-face { font-family: feedback-iconfont; src: url("//at.alicdn.com/t/font_1031158_u69w8yhxdu.woff2?t=1630033759944") format("woff2"), url("//at.alicdn.com/t/font_1031158_u69w8yhxdu.woff?t=1630033759944") format("woff"), url("//at.alicdn.com/t/font_1031158_u69w8yhxdu.ttf?t=1630033759944") format("truetype"); }
</style></defs><path d="M512 64a100 100 0 0 1 36 193.312v98.752a159.84 159.84 0 0 1 81.024 46.816l85.536-49.408a100.032 100.032 0 1 1 36 62.368l-85.504 49.376A160 160 0 0 1 672 512a160 160 0 0 1-6.944 46.784l85.504 49.376a100.032 100.032 0 1 1-36 62.368l-85.536-49.408a159.84 159.84 0 0 1-81.024 46.816v98.752a100.032 100.032 0 1 1-72 0v-98.752a159.84 159.84 0 0 1-81.024-46.816L309.44 670.528a100.032 100.032 0 1 1-36-62.368l85.504-49.376A160 160 0 0 1 352 512a160 160 0 0 1 6.944-46.784l-85.504-49.376a100.032 100.032 0 1 1 36-62.368l85.536 49.408a159.84 159.84 0 0 1 81.024-46.816V257.312A100.032 100.032 0 0 1 512 64z" p-id="62283"></path></svg>