<?xml version="1.0" standalone="no"?><!DOCTYPE svg PUBLIC "-//W3C//DTD SVG 1.1//EN" "http://www.w3.org/Graphics/SVG/1.1/DTD/svg11.dtd"><svg t="1695367136609" class="icon" viewBox="0 0 1024 1024" version="1.1" xmlns="http://www.w3.org/2000/svg" p-id="1290" xmlns:xlink="http://www.w3.org/1999/xlink" width="200" height="200"><path d="M376 112c3.52 0 6.528 2.304 7.616 5.504L384 120v64h256v-64c0-3.52 2.304-6.528 5.504-7.616L648 112h56c3.52 0 6.528 2.304 7.616 5.504L712 120v64h168a32 32 0 0 1 31.488 26.24L912 216v664a32 32 0 0 1-26.24 31.488L880 912H144a32 32 0 0 1-31.488-26.24L112 880V216a32 32 0 0 1 26.24-31.488L144 184h168v-64c0-3.52 2.304-6.528 5.504-7.616L320 112h56z m202.176 387.392a8 8 0 0 0-11.136 1.92l-168.96 241.28a8 8 0 0 0 1.92 11.136l39.36 27.52c3.648 2.56 8.64 1.664 11.136-1.92L619.52 537.984a8 8 0 0 0-1.92-11.136zM617.6 672a48 48 0 1 0 0 96 48 48 0 0 0 0-96zM400 512a48 48 0 1 0 0 96 48 48 0 0 0 0-96z m-88-256H184v136h656V256H712v48a8 8 0 0 1-5.504 7.616L704 312h-56a8 8 0 0 1-7.616-5.504L640 304v-48H384v48a8 8 0 0 1-5.504 7.616L376 312h-56a8 8 0 0 1-7.616-5.504L312 304v-48z" p-id="1291"></path></svg>