<?xml version="1.0" standalone="no"?><!DOCTYPE svg PUBLIC "-//W3C//DTD SVG 1.1//EN" "http://www.w3.org/Graphics/SVG/1.1/DTD/svg11.dtd"><svg t="1702464727198" class="icon" viewBox="0 0 1024 1024" version="1.1" xmlns="http://www.w3.org/2000/svg" p-id="3762" xmlns:xlink="http://www.w3.org/1999/xlink" width="200" height="200"><path d="M681.984 455.04v-144L406.016 587.008c29.056 22.4 65.92 35.968 105.984 35.968 93.824 0 169.984-75.072 169.984-168v0.064z m91.008-9.024a8 8 0 0 0-8 8 253.952 253.952 0 0 1-419.008 192.96l-53.952 54.016a334.016 334.016 0 0 0 178.944 81.024v102.016h-144.96c-13.888 0-24.96 14.272-24.96 32V952c0 4.416 2.816 8 5.952 8h408c3.2 0 6.016-3.584 6.016-8v-36.032c0-17.664-11.008-32-25.024-32H547.008V782.08a329.984 329.984 0 0 0 294.016-328 8 8 0 0 0-8-8l-60.032-0.064zM802.56 26.432a8 8 0 0 0-11.136 0.064L662.4 155.52A170.24 170.24 0 0 0 510.976 64c-93.888 0-169.984 75.328-169.984 168v224c0 6.72 0.384 13.312 1.216 19.84l-68.032 67.904a252.352 252.352 0 0 1-16.192-89.792 8.32 8.32 0 0 0-8-8H190.08a8 8 0 0 0-8 8c0 52.992 12.48 103.04 34.56 147.392L79.68 738.304a8 8 0 0 0 0 11.328l42.688 42.688a8 8 0 0 0 11.264 0l712.64-712.512a8.128 8.128 0 0 0-0.128-11.52L802.56 26.432z" p-id="3763"></path></svg>