<?xml version="1.0" standalone="no"?><!DOCTYPE svg PUBLIC "-//W3C//DTD SVG 1.1//EN" "http://www.w3.org/Graphics/SVG/1.1/DTD/svg11.dtd"><svg t="1678331289591" class="icon" viewBox="0 0 1024 1024" version="1.1" xmlns="http://www.w3.org/2000/svg" p-id="2570" xmlns:xlink="http://www.w3.org/1999/xlink" width="200" height="200"><path d="M841.984 454.016a8 8 0 0 0-8-8h-59.968a8 8 0 0 0-8 8 254.016 254.016 0 1 1-508.032 0 8 8 0 0 0-8-8H190.08a8 8 0 0 0-8 8 330.048 330.048 0 0 0 289.984 327.616v102.4h-145.28c-13.696 0-24.704 14.272-24.704 32V952c0 4.416 2.752 8 6.208 8H715.84c3.456 0 6.208-3.584 6.208-8v-36.032c0-17.664-11.008-32-24.704-32H548.032V782.08a330.112 330.112 0 0 0 293.952-328.064zM512 624c93.888 0 169.984-75.2 169.984-168V232c0-92.8-76.096-168-169.984-168s-169.984 75.2-169.984 168v224c0 92.8 76.096 168 169.984 168z" p-id="2571"></path></svg>