<?xml version="1.0" standalone="no"?><!DOCTYPE svg PUBLIC "-//W3C//DTD SVG 1.1//EN" "http://www.w3.org/Graphics/SVG/1.1/DTD/svg11.dtd"><svg t="1678079133626" class="icon" viewBox="0 0 1024 1024" version="1.1" xmlns="http://www.w3.org/2000/svg" p-id="3070" xmlns:xlink="http://www.w3.org/1999/xlink" width="200" height="200"><path d="M512 112c247.424 0 448 127.552 448 257.984 0 53.568-33.792 108.672-90.752 155.008l-1.28 0.96V683.2a16 16 0 0 1-13.632 15.808l-13.824 1.984-6.272 0.896a352.064 352.064 0 0 1-644.48 0l2.56 0.32a2417.024 2417.024 0 0 1-22.656-3.2 16 16 0 0 1-13.632-15.808V525.952l-1.28-0.96C97.792 478.656 64 423.552 64 369.92 64 239.552 264.576 112 512 112z m273.088 596.096a2360.832 2360.832 0 0 1-525.056 2.368l-3.2-0.32A295.808 295.808 0 0 0 512 856a295.872 295.872 0 0 0 255.168-145.92c5.376-0.512 10.816-1.152 16.192-1.792l1.728-0.192z m18.88-75.072h-584v9.152l3.456 0.384a2387.455 2387.455 0 0 0 284.672 17.408H512c96 0 192-5.76 288.128-17.28l3.84-0.512v-9.216zM512 550.016c-95.936 0-191.872 8.704-287.936 26.112l-4.096 0.768v8.128h584v-8.128l-0.896-0.192a1608.896 1608.896 0 0 0-287.68-26.688H512z m-5.824-361.664l-85.12 33.728a8 8 0 0 0-4.992 7.424v68.8c0.128 25.92 6.4 46.4 17.088 62.72l0.384 0.64h-60.928a7.104 7.104 0 0 0-6.656 9.728l0.192 0.256a159.168 159.168 0 0 0 2.496 5.376 160 160 0 0 0 287.552-1.408l0.768-1.664 0.32-0.832 0.192-0.32a8 8 0 0 0-4.224-10.496 8.704 8.704 0 0 0-4.096-0.64h-58.56c10.88-16.512 17.28-37.12 17.472-63.36v-68.8a8 8 0 0 0-5.056-7.424l-85.056-33.728a16 16 0 0 0-11.776 0zM512 233.984a48 48 0 1 1 0 96 48 48 0 0 1 0-96z" p-id="3071"></path></svg>