<?xml version="1.0" encoding="UTF-8"?>
<svg width="1024px" height="1024px" viewBox="0 0 1024 1024" version="1.1" xmlns="http://www.w3.org/2000/svg" xmlns:xlink="http://www.w3.org/1999/xlink">
    <title>基站与通信网络_面性</title>
    <g id="页面1" stroke="none" stroke-width="1" fill="none" fill-rule="evenodd">
        <g id="基站与通信网络_面性" fill="#000000" fill-rule="nonzero">
            <path d="M512,64 C759.423568,64 960,264.576432 960,512 C960,759.423568 759.423568,960 512,960 C264.576432,960 64,759.423568 64,512 C64,264.576432 264.576432,64 512,64 Z M511.396869,395.977273 C472.709984,395.977273 441.348066,427.350693 441.348066,466.051768 C441.348066,494.145536 457.874401,518.377956 481.732313,529.550899 L482.457515,529.885466 L399,781 L454.707,781 L469.387,736.829 L554.611,736.829 L569.292,781 L625,781 L541.380128,529.400664 C565.066388,518.161779 581.445672,494.020268 581.445672,466.051768 C581.445672,427.350693 550.083755,395.977273 511.396869,395.977273 Z M307.086102,247 C249.167863,301.698151 213,379.357364 213,465.499545 C213,550.780777 248.448515,627.74776 305.356041,682.35218 L307.087065,684 L344.27256,644.267851 C296.887412,599.515035 267.297309,535.977386 267.297309,465.499545 C267.297309,395.726483 296.298569,332.755503 342.856356,288.079448 L344.27256,286.73124 L307.086102,247 Z M512,608.616601 L536.995,683.824 L487.004,683.824 L512,608.616601 Z M730.293338,259.138889 L690.655617,296.554477 C732.102802,340.497316 757.510571,399.753542 757.510571,464.948232 C757.510571,529.490975 732.608417,588.21343 691.894211,632.019118 L690.655617,633.341988 L730.293338,670.757576 C780.948083,617.050191 812,544.628037 812,464.948232 C812,386.065226 781.566016,314.295443 731.807088,260.755713 L730.293338,259.138889 Z M381.666268,326.454545 C344.386341,361.264013 321.106814,410.682917 321.106814,465.499545 C321.106814,519.768479 343.923476,568.747013 380.553036,603.496795 L381.667241,604.545455 L419.285451,564.811946 C392.660343,539.948333 376.034542,504.651415 376.034542,465.499545 C376.034542,426.739667 392.329092,391.757934 418.489692,366.937084 L419.285451,366.188054 L381.666268,326.454545 Z M650.833179,334.179293 L611.230203,371.535501 C634.241534,395.910323 648.348247,428.781904 648.348247,464.948232 C648.348247,500.752898 634.522258,533.328381 611.917866,557.627175 L611.230203,558.360963 L650.833179,595.717172 C683.044084,561.593319 702.790055,515.576698 702.790055,464.948232 C702.790055,414.826051 683.437029,369.22394 651.79576,335.206569 L650.833179,334.179293 Z" id="形状"></path>
        </g>
    </g>
</svg>