<?xml version="1.0" standalone="no"?><!DOCTYPE svg PUBLIC "-//W3C//DTD SVG 1.1//EN" "http://www.w3.org/Graphics/SVG/1.1/DTD/svg11.dtd"><svg t="1658728696573" class="icon" viewBox="0 0 1024 1024" version="1.1" xmlns="http://www.w3.org/2000/svg" p-id="23452" xmlns:xlink="http://www.w3.org/1999/xlink" width="200" height="200"><defs><style type="text/css">@font-face { font-family: feedback-iconfont; src: url("//at.alicdn.com/t/font_1031158_u69w8yhxdu.woff2?t=1630033759944") format("woff2"), url("//at.alicdn.com/t/font_1031158_u69w8yhxdu.woff?t=1630033759944") format("woff"), url("//at.alicdn.com/t/font_1031158_u69w8yhxdu.ttf?t=1630033759944") format("truetype"); }
</style></defs><path d="M832 106.666667h-640c-46.933333 0-85.333333 38.4-85.333333 85.333333v640c0 46.933333 38.4 85.333333 85.333333 85.333333h640c46.933333 0 85.333333-38.4 85.333333-85.333333v-640c0-46.933333-38.4-85.333333-85.333333-85.333333z m-362.666667 640c0 23.466667-19.2 42.666667-42.666666 42.666666H256c-23.466667 0-42.666667-19.2-42.666667-42.666666v-384c0-23.466667 19.2-42.666667 42.666667-42.666667h42.666667v-42.666667c0-12.8 8.533333-21.333333 21.333333-21.333333h42.666667c12.8 0 21.333333 8.533333 21.333333 21.333333v42.666667h42.666667c23.466667 0 42.666667 19.2 42.666666 42.666667v384z m341.333334 0c0 23.466667-19.2 42.666667-42.666667 42.666666h-170.666667c-23.466667 0-42.666667-19.2-42.666666-42.666666v-384c0-23.466667 19.2-42.666667 42.666666-42.666667h42.666667v-42.666667c0-12.8 8.533333-21.333333 21.333333-21.333333h42.666667c12.8 0 21.333333 8.533333 21.333333 21.333333v42.666667h42.666667c23.466667 0 42.666667 19.2 42.666667 42.666667v384zM394.666667 512h-21.333334v-21.333333c0-17.066667-14.933333-32-32-32s-32 14.933333-32 32v21.333333h-21.333333c-17.066667 0-32 14.933333-32 32s14.933333 32 32 32h21.333333v21.333333c0 17.066667 14.933333 32 32 32s32-14.933333 32-32v-21.333333h21.333334c17.066667 0 32-14.933333 32-32S411.733333 512 394.666667 512z m341.333333 0h-106.666667c-17.066667 0-32 14.933333-32 32s14.933333 32 32 32h106.666667c17.066667 0 32-14.933333 32-32s-14.933333-32-32-32z" p-id="23453"></path></svg>