<?xml version="1.0" standalone="no"?><!DOCTYPE svg PUBLIC "-//W3C//DTD SVG 1.1//EN" "http://www.w3.org/Graphics/SVG/1.1/DTD/svg11.dtd"><svg t="1678070746197" class="icon" viewBox="0 0 1024 1024" version="1.1" xmlns="http://www.w3.org/2000/svg" p-id="3624" xmlns:xlink="http://www.w3.org/1999/xlink" width="200" height="200"><path d="M880 112a32 32 0 0 1 32 31.488V880a32 32 0 0 1-31.488 32H144a32 32 0 0 1-32-31.488V144a32 32 0 0 1 31.488-32H880zM374.016 228.032h-80a16 16 0 0 0-16 15.68V264H209.92a16 16 0 0 0-16 15.68V768c0 8.704 7.04 15.808 15.68 16h248.32a16 16 0 0 0 16-15.68V280a16 16 0 0 0-15.68-16h-68.224v-20.032a16 16 0 0 0-16-16z m355.968 0h-80a16 16 0 0 0-16 15.68V264h-67.968a16 16 0 0 0-16 15.68V768c0 8.704 6.976 15.808 15.68 16h248.32a16 16 0 0 0 16-15.68V280a16 16 0 0 0-15.68-16h-68.352v-20.032a16 16 0 0 0-16-16z m-376 197.888c4.48 0 8 3.584 8 8v44.032h44.032c4.416 0 8 3.584 8 8v40a8 8 0 0 1-8 8h-44.032v43.968a8 8 0 0 1-8 8h-40a8 8 0 0 1-8-8v-43.968h-43.968a8 8 0 0 1-8-8v-40c0-4.48 3.584-8 8-8h43.968V433.92c0-4.416 3.584-8 8-8h40z m408 52.032c4.48 0 8 3.584 8 8v40a8 8 0 0 1-8 8h-144a8 8 0 0 1-8-8v-40c0-4.48 3.584-8 8-8h144z" p-id="3625"></path></svg>