<?xml version="1.0" standalone="no"?><!DOCTYPE svg PUBLIC "-//W3C//DTD SVG 1.1//EN" "http://www.w3.org/Graphics/SVG/1.1/DTD/svg11.dtd"><svg t="1709114295762" class="icon" viewBox="0 0 1024 1024" version="1.1" xmlns="http://www.w3.org/2000/svg" p-id="1693" xmlns:xlink="http://www.w3.org/1999/xlink" width="200" height="200"><path d="M560 136c43.52 16 76.352 43.264 100.48 76.672 31.232-11.136 68.736-8.32 104.512 6.784 45.632 19.2 84.416 56.512 105.28 104.448 7.68 17.6 12.416 38.4 14.976 62.656l0.256 2.304 0.192 2.368 0.64 7.168 0.128 2.432 0.448 7.424v1.28l0.192 2.24v2.24l0.128 2.24 0.064 2.304v1.152l0.128 2.304v3.456l0.064 0.64 0.064 5.248v13.44l-0.064 2.496-0.064 2.56v1.28l-0.128 3.84-0.064 2.56-0.064 2.624-0.128 2.688-0.064 2.688-0.192 4.032-0.128 2.752-0.384 8.448-0.256 4.288-0.128 2.88-0.192 2.944-0.192 3.008-0.256 4.48-0.576 8.192-0.576 8.128-0.768 10.688-1.088 12.992-2.944 36.032-0.832 10.24-0.64 9.344-0.576 7.36-0.32 5.12-0.256 3.904-0.256 4.16-0.064 2.048-0.128 2.56-0.128 2.56-0.192 3.84v1.792l-0.128 1.728-0.064 3.392-0.064 2.496v1.6l-0.064 2.368v12.224l0.064 1.28v1.28l0.128 1.28v1.92l0.128 1.152v1.152l0.128 1.152 0.192 2.176 0.064 1.024 0.128 1.024 0.192 1.984 0.064 0.448 0.128 0.96 0.128 0.896 0.128 0.896 0.256 1.664 0.128 0.384 0.128 0.768 0.064 0.384 0.192 0.768c7.488 32.96 21.76 51.712 43.52 60.416l-39.808-7.04-4.992-0.832-1.088-0.192 1.28 0.256 37.44 6.656 7.872 1.408a33.6 33.6 0 0 1 7.488 63.872l-5.376 2.432c-70.016 32.256-137.792 23.808-197.12-24.768-45.632-37.312-68.288-70.144-77.696-109.248A200.512 200.512 0 0 1 648 660.8l-0.256-1.088-0.256-1.536-0.256-0.96-0.256-1.536-0.256-1.536-0.192-1.024-0.192-1.088-0.32-2.112-0.448-3.392-0.256-1.728-0.128-1.152-0.256-1.92-0.192-1.856-0.384-3.328-0.384-3.52-0.448-3.84-1.024-10.368-0.448-4.48-0.448-3.648-0.128-1.536a500.48 500.48 0 0 1-41.024 31.872l-3.008 2.112-2.944 2.048-9.6 6.72-2.56 1.792-2.432 1.728-2.368 1.664c-8.448 6.08-14.72 11.008-17.536 14.912-12.992 17.92 4.352 44.352 24 64 7.04 7.04 18.368 12.416 29.952 17.024l1.92 0.768 1.92 0.768 1.92 0.768 1.92 0.704 2.944 1.088 3.712 1.408 2.752 1.024 1.792 0.64 1.792 0.704 0.832 0.384 1.728 0.64C648.064 766.336 656 770.624 656 776c0 13.888-108.8 116.288-144 128a305.984 305.984 0 0 1-15.616 4.736l-2.048 0.576C466.24 916.8 441.856 918.592 432 912c-4.16-2.752-8.32-15.04-12.992-31.68l-0.832-2.88-0.832-3.008-1.216-4.608-3.904-14.528-1.408-5.12-0.96-3.328-0.896-3.456a1044.8 1044.8 0 0 0-0.512-1.728l-0.96-3.456C401.088 815.68 393.472 792.576 384 776c-24.32-42.432-80.256-104-120-112-17.472-3.52-42.304-3.968-66.88-3.328l-3.392 0.128-3.328 0.064-3.328 0.128-6.592 0.256-4.928 0.192-3.2 0.192-4.8 0.192-6.208 0.32-7.488 0.448-8.512 0.448-3.968 0.192-3.84 0.192-2.432 0.128-2.368 0.064-2.24 0.128-2.112 0.064-2.112 0.064-1.92 0.064L120 664c-26.56 0-36.16-17.088-40-40-1.664-10.112 3.328-19.648 9.472-28.288l0.832-1.152 0.832-1.152 0.896-1.152 0.832-1.152 0.896-1.152 1.28-1.664 2.112-2.688 1.28-1.6 0.768-1.024 0.768-1.024c3.968-5.248 6.912-9.92 6.912-13.952 0-4.288-2.048-7.04-4.864-9.28l-0.448-0.32a25.728 25.728 0 0 0-0.256-0.192l-0.448-0.32-0.512-0.384-1.536-0.96-0.768-0.512-1.92-1.216-0.832-0.448-0.512-0.384-0.512-0.32-0.512-0.32a30.528 30.528 0 0 1-0.256-0.192l-0.448-0.384C90.176 550.656 88 548.096 88 544c0-5.248 3.072-9.216 6.592-12.544l1.92-1.728L98.368 528l0.896-0.768 0.64-0.576C102.208 524.48 104 522.368 104 520c0-1.728-1.088-3.328-2.688-4.928a44.48 44.48 0 0 0-0.704-0.64l-0.512-0.512-1.024-0.896-1.088-0.896-1.408-1.152-0.832-0.64-0.704-0.64-0.512-0.448-0.448-0.448-0.96-0.832a35.52 35.52 0 0 1-0.256-0.256l-0.448-0.448C89.344 504.192 87.104 500.608 88 496c0.896-4.672 4.48-6.592 8.576-7.808l2.112-0.64 1.408-0.32 1.408-0.32 1.088-0.256 0.64-0.192 0.704-0.192c3.84-1.088 7.168-2.56 8.064-6.272l0.256-1.024a61.44 61.44 0 0 0 0.64-3.456l0.192-1.024c1.28-7.936 0.64-15.36-2.432-19.584a14.656 14.656 0 0 0-3.712-2.88l-0.832-0.448-0.832-0.576a118.464 118.464 0 0 0-0.512-0.256l-0.96-0.576-1.024-0.576-1.6-0.896-5.376-3.008-1.92-1.024-1.984-1.152-1.28-0.768-2.752-1.6-1.28-0.768C75.008 433.28 64 424.832 64 416c0-8.448 10.688-14.272 24.128-19.264l1.664-0.64 1.664-0.64c0.32 0 0.576-0.128 0.832-0.256l3.456-1.152 0.448-0.192 3.072-1.024 8.832-2.88 1.728-0.64 2.624-0.832 1.728-0.64 1.664-0.576c5.376-1.92 10.368-3.84 14.528-5.952l5.312-2.88 4.032-2.24a307.84 307.84 0 0 0 0.704-0.384l2.688-1.6 1.344-0.768 1.344-0.768 2.048-1.28 1.28-0.768 1.28-0.768 1.344-0.832 1.92-1.28 3.776-2.368 1.792-1.152 1.152-0.832 1.216-0.768 1.088-0.768 1.088-0.768 1.6-1.088 1.088-0.768 0.96-0.64c0.192-0.192 0.32-0.32 0.512-0.384l1.408-1.088 0.896-0.64 0.832-0.64 0.832-0.64a108.16 108.16 0 0 0 0.384-0.32l0.768-0.64 1.408-1.088a60.736 60.736 0 0 0 0.32-0.32l0.64-0.512a4.544 4.544 0 0 0 0.192-6.592 168.448 168.448 0 0 1-22.528-31.04 360.32 360.32 0 0 1-23.872-47.68 0.896 0.896 0 0 1 0.512-1.152h0.448l0.448 0.128 3.84 2.88 2.496 1.856 3.648 2.688 2.368 1.728 3.456 2.56 2.24 1.6 2.24 1.6 2.176 1.6 2.112 1.472 2.048 1.472 1.984 1.408 1.984 1.344 1.92 1.28 1.92 1.28 1.792 1.28 0.896 0.64 1.728 1.152 0.896 0.576 3.264 2.112 1.6 1.024 1.536 0.96 2.944 1.856 1.408 0.832 1.28 0.768c9.92 5.76 15.808 7.744 17.6 6.016 1.28-1.28 2.496-3.84 3.84-7.68l0.384-1.088 0.448-1.152 0.64-1.92 2.688-7.872 0.512-1.6 0.576-1.664 0.64-1.664c0-0.32 0.128-0.64 0.256-0.896l0.64-1.728 0.64-1.792 1.024-2.816 0.768-1.92c5.568-14.4 13.76-32 26.944-50.176 29.312-40.32 136.832-155.072 320-88z m135.104 142.208c33.92 90.496 27.648 196.544 8.128 249.6l1.152 8.32 1.28 9.472 0.832 6.336 0.896 6.4 1.28 9.6 0.832 6.528 1.28 9.792 1.28 9.92 0.832 6.208 0.448 3.584 0.384 3.968 0.768 7.36 0.704 7.168 0.32 2.56 0.32 3.072 0.256 2.24 0.256 2.112 0.32 2.432 0.064 0.96 0.192 1.344 0.256 1.728 0.384 2.496 0.448 2.304 0.192 1.088 0.128 0.704 0.256 1.088 0.128 0.768 0.256 1.024 0.256 1.088 0.064 0.32c5.504 22.656 19.2 42.496 53.312 70.4 18.56 15.232 37.312 24.192 56.832 26.88l1.088 0.128-0.384-0.576A184.576 184.576 0 0 1 808 691.392l-0.384-1.664-0.704-3.392-0.896-4.928-0.448-2.88a160.64 160.64 0 0 1-0.128-0.768l-0.192-1.472-0.192-1.536v-0.768l-0.256-1.536a192 192 0 0 1-0.128-1.536l-0.128-1.6-0.064-0.832-0.192-1.6v-0.832l-0.128-1.664-0.128-1.664v-0.832l-0.128-1.728v-0.96l-0.128-1.728v-0.896l-0.128-3.584v-1.856l-0.064-1.856v-11.712l0.064-4.096v-2.112l0.128-2.176V627.2l0.128-2.24 0.064-2.176 0.192-3.84 0.064-2.368 0.192-3.2 0.192-4.096 0.32-4.992 0.32-5.248 0.448-6.4 0.576-7.744 0.64-8.32 1.856-22.848 1.792-21.76 0.64-8.704 0.64-7.168 0.512-7.36 0.448-6.4 0.192-2.624 0.448-6.528 0.256-4.288 0.256-4.224 0.32-6.208 0.192-4.096 0.64-13.76 0.064-3.776c1.536-49.472-1.792-83.2-10.88-104.128a129.088 129.088 0 0 0-67.264-66.88 87.04 87.04 0 0 0-41.92-7.552z" p-id="1694"></path></svg>