<?xml version="1.0" standalone="no"?><!DOCTYPE svg PUBLIC "-//W3C//DTD SVG 1.1//EN" "http://www.w3.org/Graphics/SVG/1.1/DTD/svg11.dtd"><svg t="1678026111529" class="icon" viewBox="0 0 1024 1024" version="1.1" xmlns="http://www.w3.org/2000/svg" p-id="2600" xmlns:xlink="http://www.w3.org/1999/xlink" width="200" height="200"><path d="M816 768h-24V427.968a280.064 280.064 0 0 0-240-277.12V112a40 40 0 1 0-80 0v38.784a280.064 280.064 0 0 0-240 277.248V768h-24a32 32 0 0 0-32 32v32c0 4.416 3.584 8 8 8h216a112.064 112.064 0 0 0 224 0h216a8 8 0 0 0 8-8v-32a32 32 0 0 0-32-32zM512 888a48 48 0 0 1-48-48h96a48 48 0 0 1-48 48z" p-id="2601"></path></svg>