<?xml version="1.0" standalone="no"?><!DOCTYPE svg PUBLIC "-//W3C//DTD SVG 1.1//EN" "http://www.w3.org/Graphics/SVG/1.1/DTD/svg11.dtd"><svg t="1658731363056" class="icon" viewBox="0 0 1024 1024" version="1.1" xmlns="http://www.w3.org/2000/svg" p-id="919" xmlns:xlink="http://www.w3.org/1999/xlink" width="200" height="200"><defs><style type="text/css">@font-face { font-family: feedback-iconfont; src: url("//at.alicdn.com/t/font_1031158_u69w8yhxdu.woff2?t=1630033759944") format("woff2"), url("//at.alicdn.com/t/font_1031158_u69w8yhxdu.woff?t=1630033759944") format("woff"), url("//at.alicdn.com/t/font_1031158_u69w8yhxdu.ttf?t=1630033759944") format("truetype"); }
</style></defs><path d="M938.667 478.686V794.18a52.053 52.053 0 0 1-51.2 52.566H784.52a276.65 276.65 0 0 0-272.862-277.64 276.65 276.65 0 0 0-272.726 277.64H137.148a52.053 52.053 0 0 1-51.2-52.6v-315.46a52.053 52.053 0 0 1 51.2-52.565h750.319a52.053 52.053 0 0 1 51.2 52.565zM920.95 320.853H102.4a17.306 17.306 0 0 1-17.067-17.544v-17.442a17.306 17.306 0 0 1 17.067-17.545h818.551a17.306 17.306 0 0 1 17.067 17.545v17.544a17.306 17.306 0 0 1-17.067 17.442z m-383.01 105.233h-51.2V320.853h51.2v105.165z m162.031 0h-51.2V320.853h51.2v105.165z m161.997 0h-51.2V320.853h51.2v105.165z m-486.024 0h-51.2V320.853h51.2v105.165z m-161.997 0h-51.2V320.853h51.2v105.165z" p-id="920"></path></svg>