<?xml version="1.0" standalone="no"?><!DOCTYPE svg PUBLIC "-//W3C//DTD SVG 1.1//EN" "http://www.w3.org/Graphics/SVG/1.1/DTD/svg11.dtd"><svg t="1678070716475" class="icon" viewBox="0 0 1024 1024" version="1.1" xmlns="http://www.w3.org/2000/svg" p-id="2384" xmlns:xlink="http://www.w3.org/1999/xlink" width="200" height="200"><path d="M512 608a128 128 0 1 1 0 256 128 128 0 0 1 0-256z m-320 0a128 128 0 1 1 0 256 128 128 0 0 1 0-256z m640 0a128 128 0 1 1 0 256 128 128 0 0 1 0-256zM512 320a128 128 0 1 1 0 256 128 128 0 0 1 0-256z m-320 0a128 128 0 1 1 0 256 128 128 0 0 1 0-256z m640 0a128 128 0 1 1 0 256 128 128 0 0 1 0-256z m-97.984-208c29.824 0 56 15.744 70.656 39.424l0.384 0.704 0.384-0.128 78.336 132.288a6.72 6.72 0 0 1-7.296 9.984l-0.32-0.128a160.064 160.064 0 0 0-180.224 69.632l-0.832 1.344a6.4 6.4 0 0 1-11.776-1.792l-0.064-0.384-29.76-147.584A83.2 83.2 0 0 1 734.08 112z m-443.52 0a83.008 83.008 0 0 1 80.192 104.192l-29.632 142.08a8 8 0 0 1-14.656 2.944 159.872 159.872 0 0 0-172.16-68.736l-1.28 0.256-0.384 0.128-1.536 0.512a7.808 7.808 0 0 1-9.344-11.136l0.128-0.32 77.248-129.984 0.32 0.128c14.528-24.064 40.96-40.128 71.104-40.128z m221.952 0c42.56 0 77.632 32 82.432 73.28l20.608 124.544a7.36 7.36 0 0 1-11.264 7.424l-0.256-0.192A159.296 159.296 0 0 0 512 288c-33.92 0-65.472 10.56-91.392 28.608l-0.832 0.64a7.296 7.296 0 0 1-11.52-6.912l0.064-0.32 22.656-132.032h0.192A83.008 83.008 0 0 1 512.448 112z" p-id="2385"></path></svg>