<?xml version="1.0" standalone="no"?><!DOCTYPE svg PUBLIC "-//W3C//DTD SVG 1.1//EN" "http://www.w3.org/Graphics/SVG/1.1/DTD/svg11.dtd"><svg t="1655115796609" class="icon" viewBox="0 0 1024 1024" version="1.1" xmlns="http://www.w3.org/2000/svg" p-id="56338" xmlns:xlink="http://www.w3.org/1999/xlink" width="200" height="200"><defs><style type="text/css">@font-face { font-family: feedback-iconfont; src: url("//at.alicdn.com/t/font_1031158_u69w8yhxdu.woff2?t=1630033759944") format("woff2"), url("//at.alicdn.com/t/font_1031158_u69w8yhxdu.woff?t=1630033759944") format("woff"), url("//at.alicdn.com/t/font_1031158_u69w8yhxdu.ttf?t=1630033759944") format("truetype"); }
</style></defs><path d="M880.042667 338.944h-257.792V144.426667a32 32 0 0 0-32-32H143.957333a32 32 0 0 0-31.914666 32v760.021333c0 4.394667 3.584 7.978667 7.978666 7.978667h783.957334a8.021333 8.021333 0 0 0 8.064-7.978667V370.901333a32 32 0 0 0-32-32v0.042667zM319.914667 760.106667a8.021333 8.021333 0 0 1-8.064 7.978666H207.872a7.978667 7.978667 0 0 1-7.978667-7.978666v-104.021334c0-4.394667 3.584-7.978667 7.978667-7.978666h103.978667c4.48 0 7.978667 3.584 7.978666 7.978666v104.021334h0.085334z m0-217.088a8.021333 8.021333 0 0 1-8.064 7.978666H207.872a7.978667 7.978667 0 0 1-7.978667-8.021333V439.04c0-4.437333 3.584-8.021333 7.978667-8.021333h103.978667c4.48 0 7.978667 3.584 7.978666 7.978666v103.978667l0.085334 0.042667z m0-217.088a7.978667 7.978667 0 0 1-8.064 7.936H207.872a7.978667 7.978667 0 0 1-7.978667-7.978667V221.909333c0-4.394667 3.584-7.978667 7.978667-7.978666h103.978667c4.48 0 7.978667 3.584 7.978666 7.978666v103.978667l0.085334 0.042667z m214.442666 434.176a8.021333 8.021333 0 0 1-8.021333 7.978666H422.4a7.978667 7.978667 0 0 1-7.978667-7.978666v-104.021334c0-4.394667 3.584-7.978667 7.978667-7.978666h103.978667c4.48 0 8.064 3.584 8.064 7.978666v104.021334h-0.085334z m0-217.088a8.021333 8.021333 0 0 1-8.021333 7.978666H422.4a7.978667 7.978667 0 0 1-7.978667-8.021333V439.04c0-4.437333 3.584-8.021333 7.978667-8.021333h103.978667c4.48 0 8.064 3.584 8.064 7.978666v103.978667l-0.085334 0.042667z m0-217.088a7.978667 7.978667 0 0 1-8.021333 7.936H422.4a7.978667 7.978667 0 0 1-7.978667-7.978667V221.909333c0-4.394667 3.584-7.978667 7.978667-7.978666h103.978667c4.48 0 8.064 3.584 8.064 7.978666v103.978667l-0.085334 0.042667z m292.693334 434.176a7.978667 7.978667 0 0 1-7.936 7.978666H715.093333a7.978667 7.978667 0 0 1-7.978666-7.978666v-104.021334c0-4.394667 3.584-7.978667 7.978666-7.978666h104.021334c4.437333 0 7.978667 3.584 7.978666 7.978666v104.021334z m0-217.088a7.978667 7.978667 0 0 1-7.936 7.978666H715.093333a7.978667 7.978667 0 0 1-7.978666-8.021333V439.04c0-4.437333 3.584-8.021333 7.978666-8.021333h104.021334c4.437333 0 7.978667 3.584 7.978666 7.978666V543.018667z" p-id="56339"></path></svg>