<?xml version="1.0" standalone="no"?><!DOCTYPE svg PUBLIC "-//W3C//DTD SVG 1.1//EN" "http://www.w3.org/Graphics/SVG/1.1/DTD/svg11.dtd"><svg t="1709114342166" class="icon" viewBox="0 0 1024 1024" version="1.1" xmlns="http://www.w3.org/2000/svg" p-id="3702" xmlns:xlink="http://www.w3.org/1999/xlink" width="200" height="200"><path d="M247.936 112a32 32 0 0 1 32 32v102.016a32 32 0 0 1-32 32h-44.032V848a16 16 0 0 1-16 16h-32a16 16 0 0 1-16-16V278.016H96a32 32 0 0 1-32-32V144a32 32 0 0 1 32-32h151.936z m588.096 121.984a64 64 0 0 1 64 64v76.032h29.888c16.64 0 30.08 13.44 30.08 29.952v40c0 16.64-13.44 30.08-30.08 30.08h-29.888v291.968a32 32 0 0 1-32 32h-28.096V832a32 32 0 0 1-32 32h-27.968a32 32 0 0 1-32-32v-33.984H478.08V832a32 32 0 0 1-32 32h-27.968a32 32 0 0 1-32-32v-33.984h-28.16a32 32 0 0 1-32-32V473.92H296a29.952 29.952 0 0 1-30.08-29.504v-40.512a30.016 30.016 0 0 1 29.632-29.888h30.464v-76.032a64 64 0 0 1 64-64h446.016zM755.968 616a56 56 0 1 0 0 112 56 56 0 0 0 0-112z m-288.64-0.64a56 56 0 1 0-0.64 112 56 56 0 0 0 0.64-112z m352.64-301.44h-414.08v224.128h414.08V313.92z" p-id="3703"></path></svg>