<?xml version="1.0" standalone="no"?><!DOCTYPE svg PUBLIC "-//W3C//DTD SVG 1.1//EN" "http://www.w3.org/Graphics/SVG/1.1/DTD/svg11.dtd"><svg t="1678070723549" class="icon" viewBox="0 0 1024 1024" version="1.1" xmlns="http://www.w3.org/2000/svg" p-id="2694" xmlns:xlink="http://www.w3.org/1999/xlink" width="200" height="200"><path d="M800 112a64 64 0 0 1 64 64v608a32 32 0 0 1-32 32h-28.032v64a32 32 0 0 1-32 32h-48a32 32 0 0 1-32-32v-64H332.096v64a32 32 0 0 1-32 32h-48a32 32 0 0 1-32-32v-64H192a32 32 0 0 1-32-32V176a64 64 0 0 1 64-64h576zM307.968 566.016a60.032 60.032 0 1 0 0 120 60.032 60.032 0 0 0 0-120z m416 0a59.968 59.968 0 1 0 0 120 59.968 59.968 0 0 0 0-120zM760 208H264a8 8 0 0 0-8 7.744V432c0 4.352 3.456 7.872 7.744 8H760a8 8 0 0 0 8-7.744V216a8 8 0 0 0-8-8z m148.032 44.032h21.952c16.64 0 30.016 13.44 30.016 29.952v80c0 16.64-13.44 30.016-30.016 30.016h-22.016a8 8 0 0 1-7.936-8V259.968c0-4.416 3.52-8 7.936-8z m-792.064 0H94.08A30.016 30.016 0 0 0 64 281.92v80c0 16.64 13.44 30.016 30.016 30.016h21.952a8 8 0 0 0 8.064-7.936V259.968a8 8 0 0 0-8-8z" p-id="2695"></path></svg>