<?xml version="1.0" standalone="no"?><!DOCTYPE svg PUBLIC "-//W3C//DTD SVG 1.1//EN" "http://www.w3.org/Graphics/SVG/1.1/DTD/svg11.dtd"><svg t="1678346790767" class="icon" viewBox="0 0 1024 1024" version="1.1" xmlns="http://www.w3.org/2000/svg" p-id="1648" xmlns:xlink="http://www.w3.org/1999/xlink" width="200" height="200"><path d="M376 112c3.52 0 6.528 2.304 7.616 5.504L384 120v64h256v-64c0-3.52 2.304-6.528 5.504-7.616L648 112h56c3.52 0 6.528 2.304 7.616 5.504L712 120v64h168a32 32 0 0 1 31.488 26.24L912 216v664a32 32 0 0 1-26.24 31.488L880 912H144a32 32 0 0 1-31.488-26.24L112 880V216a32 32 0 0 1 26.24-31.488L144 184h168v-64c0-3.52 2.304-6.528 5.504-7.616L320 112h56z m295.872 416.128H616.96l-3.712 0.384a15.936 15.936 0 0 0-9.088 6.08l-103.552 143.68-52.8-73.088-2.56-2.752a15.744 15.744 0 0 0-10.368-3.84h-54.912l-2.944 0.576a8.064 8.064 0 0 0-3.52 12.16l114.112 158.144 3.072 3.2a15.936 15.936 0 0 0 22.72-3.2L678.4 540.8l1.28-2.752a8.064 8.064 0 0 0-7.808-9.92zM312 256H184v136h656V256H712v48a8 8 0 0 1-5.504 7.616L704 312h-56a8 8 0 0 1-7.616-5.504L640 304v-48H384v48a8 8 0 0 1-5.504 7.616L376 312h-56a8 8 0 0 1-7.616-5.504L312 304v-48z" p-id="1649"></path></svg>