<?xml version="1.0" standalone="no"?><!DOCTYPE svg PUBLIC "-//W3C//DTD SVG 1.1//EN" "http://www.w3.org/Graphics/SVG/1.1/DTD/svg11.dtd"><svg t="1669373770020" class="icon" viewBox="0 0 1024 1024" version="1.1" xmlns="http://www.w3.org/2000/svg" p-id="992" xmlns:xlink="http://www.w3.org/1999/xlink" width="200" height="200"><path d="M375.979 112a8.021 8.021 0 0 1 8.021 8.021v64h256v-64a8.021 8.021 0 0 1 7.979-8.021H704a8.021 8.021 0 0 1 7.979 8.021v64H880l0.043-0.042c17.673 0 32 14.327 32 32V880c0 17.673-14.327 32-32 32h-736c-17.707 0-32-14.293-32-32V216.021c0-17.673 14.327-32 32-32h167.936v-64A8.021 8.021 0 0 1 320 112z m302.67 372.584c-2.866-2.656-7.98-2.008-11.488 1.5L458.425 694.818l-92.74-92.74c-3.574-3.575-8.816-4.18-11.65-1.347l-36.093 36.094c-2.834 2.834-2.228 8.076 1.345 11.65l133.988 133.987c1.328 1.328 3.185 1.9 5.15 1.766 1.967 0.134 3.825-0.438 5.153-1.766l249.98-249.98c3.574-3.575 4.18-8.817 1.346-11.65l-36.094-36.094zM312.022 256h-128v136.021h656V256h-128v48a8.021 8.021 0 0 1-8.021 8.021h-55.979c-4.437 0-8.021-3.626-8.021-8.021v-48H384v48a8.021 8.021 0 0 1-7.936 8.021h-56.021c-4.395 0-8.022-3.626-8.022-8.021v-48z" p-id="993"></path></svg>