<?xml version="1.0" standalone="no"?><!DOCTYPE svg PUBLIC "-//W3C//DTD SVG 1.1//EN" "http://www.w3.org/Graphics/SVG/1.1/DTD/svg11.dtd"><svg t="1702636548155" class="icon" viewBox="0 0 1024 1024" version="1.1" xmlns="http://www.w3.org/2000/svg" p-id="806" xmlns:xlink="http://www.w3.org/1999/xlink" width="200" height="200"><path d="M680 172.032a48 48 0 0 1 48 48v583.936a48 48 0 0 1-48 48H104a48 48 0 0 1-48-48V220.032a48 48 0 0 1 48-48h576zM950.336 305.28a32 32 0 0 1 32 31.424v350.784a32 32 0 0 1-51.008 25.664l-0.448-0.32-148.608-114.048A16 16 0 0 1 776 586.112V438.656a16 16 0 0 1 6.272-12.736L930.88 311.872a32 32 0 0 1 18.944-6.592h0.512z" p-id="807"></path></svg>