<?xml version="1.0" standalone="no"?><!DOCTYPE svg PUBLIC "-//W3C//DTD SVG 1.1//EN" "http://www.w3.org/Graphics/SVG/1.1/DTD/svg11.dtd"><svg t="1702464723853" class="icon" viewBox="0 0 1024 1024" version="1.1" xmlns="http://www.w3.org/2000/svg" p-id="3608" xmlns:xlink="http://www.w3.org/1999/xlink" width="200" height="200"><path d="M912 302.272L784 376V224c0-35.264-28.672-64-64-64H128c-35.328 0-64 28.736-64 64v576c0 35.328 28.672 64 64 64h592c35.328 0 64-28.672 64-64V648l128 73.728a32 32 0 0 0 48-27.584v-364.16a32 32 0 0 0-48-27.712zM328 352a8 8 0 0 1-8 8H208a8 8 0 0 1-8-8v-48c0-4.416 3.584-8 8-8h112c4.416 0 8 3.584 8 8v48z" p-id="3609"></path></svg>