<?xml version="1.0" standalone="no"?><!DOCTYPE svg PUBLIC "-//W3C//DTD SVG 1.1//EN" "http://www.w3.org/Graphics/SVG/1.1/DTD/svg11.dtd"><svg t="1700814741831" class="icon" viewBox="0 0 1024 1024" version="1.1" xmlns="http://www.w3.org/2000/svg" p-id="1139" xmlns:xlink="http://www.w3.org/1999/xlink" width="200" height="200"><path d="M665.408 136a32.064 32.064 0 0 1 30.208 21.184L728 248h136c44.16 0 80 35.84 80 80v456c0 44.16-35.84 80-80 80H160c-44.16 0-80-35.84-80-80V328c0-44.16 35.84-80 80-80h136l32.512-90.816A32 32 0 0 1 358.592 136z m26.365 412h-40.134a7.999 7.999 0 0 0-7.985 7.563l-0.122 2.098-0.126 1.917-0.065 0.89-0.099 1.252-0.067 0.778-0.103 1.082-0.106 0.98-0.108 0.878C634.325 630.098 578.99 680 512 680c-29.18 0-56.717-9.53-79.09-26.289l19.409-16.287a8 8 0 0 0-3.404-13.937L359.35 603.55a8 8 0 0 0-9.73 8.165l4.081 91.666a8 8 0 0 0 13.135 5.772l22.371-18.77C422.698 719.287 465.935 736 512 736c98.527 0 179.352-75.793 187.35-172.255l0.063-0.8 0.06-0.859 0.086-1.399 0.081-1.532 0.076-1.665 0.054-1.335v-0.152c0-4.418-3.579-8.003-7.997-8.003zM512 360c-96.443 0-175.924 72.62-186.745 166.16l-0.046 0.403-0.089 0.837-0.086 0.884-0.085 0.93-0.121 1.48-0.078 1.044-0.076 1.09-0.073 1.136-0.105 1.79-0.1 1.893-0.094 1.996c-0.008 0.12-0.008 0.239-0.008 0.358a8 8 0 0 0 8.001 7.999h40.059a8 8 0 0 0 7.988-7.567l0.06-1.085 0.094-1.538 0.128-1.884 0.132-1.693 0.102-1.145 0.105-1.037 0.07-0.632 0.073-0.584C389.52 466.043 444.916 416 512 416c29.195 0 56.776 9.529 79.205 26.376l-18.791 15.77a8 8 0 0 0 3.404 13.936l89.564 19.937a8 8 0 0 0 9.73-8.164l-4.08-91.666a8 8 0 0 0-13.135-5.773l-22.998 19.298C601.329 376.688 558.044 360 512 360z" p-id="1140"></path></svg>