<?xml version="1.0" standalone="no"?><!DOCTYPE svg PUBLIC "-//W3C//DTD SVG 1.1//EN" "http://www.w3.org/Graphics/SVG/1.1/DTD/svg11.dtd"><svg t="1678331298199" class="icon" viewBox="0 0 1024 1024" version="1.1" xmlns="http://www.w3.org/2000/svg" p-id="2882" xmlns:xlink="http://www.w3.org/1999/xlink" width="200" height="200"><path d="M665.408 136c13.504 0 25.6 8.448 30.208 21.184L728 248h136c44.16 0 80 35.84 80 80v456c0 44.16-35.84 80-80 80H160c-44.16 0-80-35.84-80-80V328c0-44.16 35.84-80 80-80h136l32.512-90.816A32 32 0 0 1 358.592 136zM512 384a160 160 0 1 0-6.464 319.936A160 160 0 0 0 512 384z m0 64a96 96 0 1 1 0 192 96 96 0 0 1 0-192z" p-id="2883"></path></svg>