<?xml version="1.0" standalone="no"?><!DOCTYPE svg PUBLIC "-//W3C//DTD SVG 1.1//EN" "http://www.w3.org/Graphics/SVG/1.1/DTD/svg11.dtd"><svg t="1658235874816" class="icon" viewBox="0 0 1024 1024" version="1.1" xmlns="http://www.w3.org/2000/svg" p-id="30024" xmlns:xlink="http://www.w3.org/1999/xlink" width="200" height="200"><defs><style type="text/css">@font-face { font-family: feedback-iconfont; src: url("//at.alicdn.com/t/font_1031158_u69w8yhxdu.woff2?t=1630033759944") format("woff2"), url("//at.alicdn.com/t/font_1031158_u69w8yhxdu.woff?t=1630033759944") format("woff"), url("//at.alicdn.com/t/font_1031158_u69w8yhxdu.ttf?t=1630033759944") format("truetype"); }
</style></defs><path d="M752.777 145c29.997-0.014 55.98 20.8 62.5 50.067l37.99 170.558h37.304c11.835 0 21.429 9.59 21.429 21.42v49.977c0 11.83-9.594 21.42-21.429 21.42h-7.142l3.785 10.601a273.24 273.24 0 0 0-111.261-63.24 31.973 31.973 0 0 0 8.368-27.808L758.5 235.656c-2.762-15.217-16.019-26.283-31.491-26.283H296.982c-15.472 0-28.729 11.066-31.49 26.283l-25.813 142.339a31.98 31.98 0 0 0 13.375 32.075l37.678 25.881a32.028 32.028 0 0 0 18.116 5.614l239.251-0.004c-44.04 29.659-78.939 71.807-99.656 121.333h-42.327a7.141 7.141 0 0 0-7.143 7.14v56.422a7.141 7.141 0 0 0 7.143 7.14l23.453-0.001a275.56 275.56 0 0 0-2.17 34.583c0 20.758 2.318 40.98 6.711 60.421H238.786v52.922c0 8.49-3.377 16.63-9.385 22.63a32.007 32.007 0 0 1-22.651 9.356H144c-17.673 0-32-14.32-32-31.986V564.19c0-16.963 2.91-33.8 8.598-49.782l19.973-55.957h-7.142c-11.835 0-21.429-9.59-21.429-21.419v-49.978c0-11.83 9.594-21.419 21.429-21.419h37.303l37.956-170.567c6.52-29.267 32.502-50.081 62.5-50.067zM301.58 562.895H193.188a8.84 8.84 0 0 0-7.483 4.127 8.832 8.832 0 0 0-0.49 8.528l22.981 48.005a17.67 17.67 0 0 0 15.947 10.04h77.428c4.69 0.003 9.19-1.858 12.507-5.172a17.667 17.667 0 0 0 5.18-12.498l0.01-35.35c0-9.765-7.92-17.68-17.688-17.68z" p-id="30025"></path><path d="M881.775 562.286c38.202 65.427 38.202 146.357 0 211.783-38.203 65.426-108.683 105.202-184.438 104.09-114.766-1.687-206.918-95.202-206.918-209.981 0-114.78 92.152-208.295 206.918-209.98 75.755-1.114 146.235 38.663 184.438 104.088zM700.308 733.813c-12.807 0-23.189 10.382-23.189 23.188s10.382 23.188 23.19 23.188c12.807 0 23.189-10.382 23.189-23.188s-10.382-23.188-23.19-23.188z m11.564-178.273h-23.127a3.896 3.896 0 0 0-3.896 3.895v131.398c0 2.102 1.731 3.833 3.896 3.833h23.127a3.896 3.896 0 0 0 3.896-3.895V559.435a3.896 3.896 0 0 0-3.896-3.895z" p-id="30026"></path></svg>