<?xml version="1.0" standalone="no"?><!DOCTYPE svg PUBLIC "-//W3C//DTD SVG 1.1//EN" "http://www.w3.org/Graphics/SVG/1.1/DTD/svg11.dtd"><svg t="1679309442867" class="icon" viewBox="0 0 1024 1024" version="1.1" xmlns="http://www.w3.org/2000/svg" p-id="3564" xmlns:xlink="http://www.w3.org/1999/xlink" width="200" height="200"><path d="M697.984 160a16 16 0 0 1 14.592 9.472l96.832 217.856 28.224-28.16a8 8 0 0 1 11.328 0l36.8 36.736a8 8 0 0 1 0 11.264l-11.264 11.264a262.784 262.784 0 0 0-145.152-34.048L661.568 232H291.136l-80 180.032h414.4A264 264 0 0 0 483.008 688h-195.2a1.024 1.024 0 0 0-0.96 0.896v30.08c0 0.512 0.384 0.96 0.896 1.024H489.92c7.296 25.856 18.432 50.048 32.768 72H215.872v40a32 32 0 0 1-32 32h-48a32 32 0 0 1-32-32V477.696c0-1.088 0.192-2.24 0.64-3.2l8.896-19.968-47.104-47.424a8 8 0 0 1 0.064-11.328l36.928-36.544a8 8 0 0 1 11.328 0l28.416 28.672 97.088-218.432A16 16 0 0 1 254.72 160h443.264zM744 432a216.064 216.064 0 1 1-0.128 432.128A216.064 216.064 0 0 1 744 432z m0 64a152.192 152.192 0 0 0-152 152 152.192 152.192 0 0 0 152 152 152.192 152.192 0 0 0 152-152 151.872 151.872 0 0 0-152-152z m4.352 79.36a8 8 0 0 1 1.664 4.8v39.872h78.528c4.096 0 7.488 3.52 7.488 7.936v40.064c0 4.416-3.392 7.936-7.488 7.936H750.08v39.872a8 8 0 0 1-12.864 6.4l-88.832-67.84a8 8 0 0 1-1.472-11.264l1.472-1.472 88.832-67.84a8 8 0 0 1 11.2 1.472z m-502.528-71.424a46.016 46.016 0 1 0 0 92.032 46.016 46.016 0 0 0 0-92.032z" p-id="3565"></path></svg>