<?xml version="1.0" standalone="no"?><!DOCTYPE svg PUBLIC "-//W3C//DTD SVG 1.1//EN" "http://www.w3.org/Graphics/SVG/1.1/DTD/svg11.dtd"><svg t="1678069761528" class="icon" viewBox="0 0 1024 1024" version="1.1" xmlns="http://www.w3.org/2000/svg" p-id="1258" xmlns:xlink="http://www.w3.org/1999/xlink" width="200" height="200"><path d="M698.112 160a16 16 0 0 1 14.592 9.472L809.6 387.328l28.16-28.16a8 8 0 0 1 11.328 0l36.8 36.736a8 8 0 0 1 0 11.264l-11.264 11.264a262.784 262.784 0 0 0-145.152-34.048L661.76 232H291.264l-80 180.032 414.528-0.064A264 264 0 0 0 483.2 688H288a1.024 1.024 0 0 0-1.024 0.896v30.08c0 0.512 0.384 0.96 0.896 1.024H288l202.112 0.064c7.296 25.792 18.432 49.984 32.768 71.936H216v40a32 32 0 0 1-32 32h-48a32 32 0 0 1-32-32V499.456c0-11.584 1.856-23.04 5.376-34.112l4.16-10.816-47.04-47.424a8 8 0 0 1 0-11.328l36.992-36.544a8 8 0 0 1 11.328 0l28.352 28.672 97.088-218.432A16 16 0 0 1 254.912 160h443.2z m46.08 272a216 216 0 1 1 0 432 216 216 0 0 1 0-432z m0 64a151.04 151.04 0 0 0-107.52 44.48A151.04 151.04 0 0 0 592.128 648c0 40.576 15.808 78.784 44.544 107.52A151.04 151.04 0 0 0 744.192 800a151.04 151.04 0 0 0 107.456-44.48A151.04 151.04 0 0 0 896.128 648a151.04 151.04 0 0 0-44.48-107.52A151.04 151.04 0 0 0 744.128 496z m3.52 54.912a8 8 0 0 1 3.584 3.648l22.72 45.952a8 8 0 0 0 6.016 4.416l50.816 7.36a8 8 0 0 1 4.416 13.632l-36.736 35.84a8 8 0 0 0-2.304 7.04l8.64 50.56a8 8 0 0 1-11.52 8.448l-45.44-23.872a8 8 0 0 0-7.488 0l-45.44 23.872a8 8 0 0 1-11.52-8.384l8.64-50.56a8 8 0 0 0-2.304-7.104l-36.736-35.84a8 8 0 0 1 4.48-13.632l50.688-7.36a8 8 0 0 0 6.08-4.416l22.656-45.952a8 8 0 0 1 10.752-3.648zM245.952 504a46.016 46.016 0 1 0 0 92.032 46.016 46.016 0 0 0 0-92.032z" p-id="1259"></path></svg>