<?xml version="1.0" standalone="no"?><!DOCTYPE svg PUBLIC "-//W3C//DTD SVG 1.1//EN" "http://www.w3.org/Graphics/SVG/1.1/DTD/svg11.dtd"><svg t="1658732880491" class="icon" viewBox="0 0 1024 1024" version="1.1" xmlns="http://www.w3.org/2000/svg" p-id="22576" xmlns:xlink="http://www.w3.org/1999/xlink" width="200" height="200"><defs><style type="text/css">@font-face { font-family: feedback-iconfont; src: url("//at.alicdn.com/t/font_1031158_u69w8yhxdu.woff2?t=1630033759944") format("woff2"), url("//at.alicdn.com/t/font_1031158_u69w8yhxdu.woff?t=1630033759944") format("woff"), url("//at.alicdn.com/t/font_1031158_u69w8yhxdu.ttf?t=1630033759944") format("truetype"); }
</style></defs><path d="M644.66488889 323.35644445c0-65.536-25.48622222-127.20355555-71.90755556-173.6248889-46.19377778-46.19377778-107.63377778-71.79377778-172.94222222-71.90755555H84.53688889c-5.00622222 0-9.10222222 4.096-9.10222222 9.10222222v851.05777778c0 5.00622222 4.096 9.10222222 9.10222222 9.10222222h72.81777778c5.00622222 0 9.10222222-4.096 9.10222222-9.10222222V568.88888889h233.35822222c65.30844445-0.11377778 126.74844445-25.71377778 172.94222222-71.90755556 46.42133333-46.42133333 71.90755555-108.08888889 71.90755556-173.62488888zM399.13244445 477.86666667H166.45688889V168.84622222h232.67555556c85.21955555 0 154.51022222 69.29066667 154.51022222 154.51022223S484.352 477.86666667 399.13244445 477.86666667zM912.27022222 695.75111111h-5.12l-27.98933333-91.36355556c-4.66488889-15.24622222-18.77333333-25.71377778-34.816-25.71377777H582.76977778c-16.04266667 0-30.15111111 10.46755555-34.816 25.71377777L519.96444445 695.75111111h-5.12c-20.13866667 0-36.40888889 16.27022222-36.4088889 36.40888889v132.89244445c0 20.13866667 16.27022222 36.40888889 36.4088889 36.40888888h21.39022222v36.40888889c0 5.00622222 4.096 9.10222222 9.10222222 9.10222223h54.61333333c5.00622222 0 9.10222222-4.096 9.10222223-9.10222223v-36.40888889h210.03377777v36.40888889c0 5.00622222 4.096 9.10222222 9.10222223 9.10222223h54.61333333c5.00622222 0 9.10222222-4.096 9.10222222-9.10222223v-36.40888889h20.36622222c20.13866667 0 36.40888889-16.27022222 36.40888889-36.40888888V732.16c0-20.13866667-16.27022222-36.40888889-36.40888889-36.40888889zM580.608 839.56622222c-22.64177778 0-40.96-18.31822222-40.96-40.96s18.31822222-40.96 40.96-40.96 40.96 18.31822222 40.96 40.96-18.31822222 40.96-40.96 40.96z m6.03022222-143.81511111l16.384-53.36177778h221.184l16.384 53.36177778H586.63822222z m261.91644445 143.81511111c-22.64177778 0-40.96-18.31822222-40.96-40.96s18.31822222-40.96 40.96-40.96 40.96 18.31822222 40.96 40.96-18.31822222 40.96-40.96 40.96z" p-id="22577"></path></svg>