<?xml version="1.0" standalone="no"?><!DOCTYPE svg PUBLIC "-//W3C//DTD SVG 1.1//EN" "http://www.w3.org/Graphics/SVG/1.1/DTD/svg11.dtd"><svg t="1709114317039" class="icon" viewBox="0 0 1024 1024" version="1.1" xmlns="http://www.w3.org/2000/svg" p-id="2618" xmlns:xlink="http://www.w3.org/1999/xlink" width="200" height="200"><path d="M512 64a448 448 0 1 1 0 896 448 448 0 0 1 0-896z m44.992 241.984H385.984a8 8 0 0 0-7.616 5.504l-0.384 2.496v436.032c0 3.52 2.304 6.528 5.44 7.616l2.56 0.384h48a8 8 0 0 0 7.616-5.44l0.384-2.56V561.984H556.8l1.28-0.064h0.96c27.52-0.832 53.824-10.56 75.136-27.584l8.832-7.744 0.896-0.832 1.856-1.856c20.928-21.056 33.728-48.64 36.352-78.016l0.512-11.072v-1.664a127.04 127.04 0 0 0-29.44-80.896l-7.424-8.192-1.216-1.152a126.72 126.72 0 0 0-87.552-36.928z m-1.408 64a63.04 63.04 0 0 1 43.712 18.24l1.152 1.152c11.52 11.712 18.112 27.456 18.176 43.904v1.536a62.912 62.912 0 0 1-17.728 43.392l-0.448 0.512-0.512 0.448-1.472 1.408a62.656 62.656 0 0 1-41.856 17.408H441.984v-128h113.6z" p-id="2619"></path></svg>