<?xml version="1.0" standalone="no"?><!DOCTYPE svg PUBLIC "-//W3C//DTD SVG 1.1//EN" "http://www.w3.org/Graphics/SVG/1.1/DTD/svg11.dtd"><svg t="1678069767317" class="icon" viewBox="0 0 1024 1024" version="1.1" xmlns="http://www.w3.org/2000/svg" p-id="1566" xmlns:xlink="http://www.w3.org/1999/xlink" width="200" height="200"><path d="M698.112 160a16 16 0 0 1 14.592 9.472L809.6 387.328l28.16-28.16a8 8 0 0 1 11.328 0l36.8 36.736a8 8 0 0 1 0 11.264l-25.472 25.536a63.872 63.872 0 0 0-53.376 18.24l-70.208 70.208a45.888 45.888 0 0 0-81.856 28.8c0 14.528 6.72 27.456 17.152 35.84L569.984 688H288a1.024 1.024 0 0 0-1.024 0.896v30.08c0 0.512 0.384 0.96 0.896 1.024h251.264a64 64 0 0 0-12.032 37.376V792H216v40a32 32 0 0 1-32 32h-48a32 32 0 0 1-32-32V477.696c0-1.088 0.256-2.24 0.64-3.2l8.896-19.968-47.04-47.424a8 8 0 0 1 0-11.328l36.992-36.544a8 8 0 0 1 11.328 0l28.352 28.672 97.088-218.432A16 16 0 0 1 254.912 160h443.2z m164.352 324.352l90.496 90.56a16 16 0 0 1 0 22.592L691.776 858.688a16 16 0 0 1-11.328 4.672h-98.496a8 8 0 0 1-8-8v-98.496a16 16 0 0 1 4.672-11.264l261.184-261.248a16 16 0 0 1 22.656 0z m-11.328 79.232l-213.184 213.12v22.656h22.656l213.12-213.12-22.592-22.656zM246.016 504a46.016 46.016 0 1 0 0 92.032 46.016 46.016 0 0 0 0-92.032z m415.68-272H291.264l-80 180.032H741.76L661.76 232z" p-id="1567"></path></svg>