<?xml version="1.0" standalone="no"?><!DOCTYPE svg PUBLIC "-//W3C//DTD SVG 1.1//EN" "http://www.w3.org/Graphics/SVG/1.1/DTD/svg11.dtd"><svg t="1655177153477" class="icon" viewBox="0 0 1024 1024" version="1.1" xmlns="http://www.w3.org/2000/svg" p-id="23123" xmlns:xlink="http://www.w3.org/1999/xlink" width="200" height="200"><defs><style type="text/css">@font-face { font-family: feedback-iconfont; src: url("//at.alicdn.com/t/font_1031158_u69w8yhxdu.woff2?t=1630033759944") format("woff2"), url("//at.alicdn.com/t/font_1031158_u69w8yhxdu.woff?t=1630033759944") format("woff"), url("//at.alicdn.com/t/font_1031158_u69w8yhxdu.ttf?t=1630033759944") format("truetype"); }
</style></defs><path d="M862.997 591.207l0.003 0.582v204.163c0 7.975-3.17 15.623-8.81 21.26a30.036 30.036 0 0 1-20.766 8.784l-0.498 0.004H774.02c-16.425 0-29.77-13.185-30.036-29.55l-0.004-0.498v-49.716h-35.91l154.927-155.029zM713.529 198c27.879-0.013 52.063 19.15 58.483 46.21l0.19 0.823 28.287 127.088-58.118 56.655a29.99 29.99 0 0 0 0.225-11.019l-0.077-0.442-24.228-133.638c-2.566-14.145-14.782-24.469-29.113-24.674l-0.435-0.003H285.25c-14.372 0-26.707 10.183-29.467 24.25l-0.08 0.427-24.22 133.638a30.033 30.033 0 0 0 12.182 29.858l0.367 0.257 35.354 24.3a30.038 30.038 0 0 0 16.447 5.265l0.551 0.005h381.217a30.039 30.039 0 0 0 16.54-4.963l0.458-0.307 12.569-8.64-40.704 39.678L575.462 591H388.699c-3.621 0-6.571 2.858-6.695 6.431l-0.004 0.234v52.67c0 3.603 2.873 6.538 6.464 6.661l0.235 0.004H507.39l-41.293 40.037-3.55 49.199H231.02v49.716A30.052 30.052 0 0 1 201.444 826H142.04c-16.425 0-29.77-13.185-30.04-29.55V591.788c0-15.573 2.609-31.033 7.712-45.74l0.36-1.025 18.75-52.567h-6.706c-10.994 0-19.928-8.822-20.116-19.774V425.386c0-10.996 8.82-19.933 19.77-20.118l0.346-0.003h35.019l35.63-160.232c6.06-27.219 30.026-46.654 57.829-47.033h452.935z m88.885 201.534l110.129 112.432-306.178 306.177L478 825.788l12.4-123.61 312.014-302.644z m-263.846 324.33l-4.965 49.3 51.4-3.05-46.435-46.25zM798.495 467.34L538.283 723.316l46.537 46.147 257.364-256.875-43.689-45.249zM290.351 591H188.323a8.338 8.338 0 0 0-7.043 3.853 8.186 8.186 0 0 0-0.59 7.685l0.128 0.276 21.632 44.813c2.714 5.624 8.389 9.24 14.655 9.37l0.356 0.003h72.882a16.715 16.715 0 0 0 11.772-4.829 16.427 16.427 0 0 0 4.871-11.257l0.006-0.41 0.008-33c0-9.115-7.454-16.504-16.649-16.504z" p-id="23124"></path></svg>