<?xml version="1.0" standalone="no"?><!DOCTYPE svg PUBLIC "-//W3C//DTD SVG 1.1//EN" "http://www.w3.org/Graphics/SVG/1.1/DTD/svg11.dtd"><svg t="1660979309327" class="icon" viewBox="0 0 1024 1024" version="1.1" xmlns="http://www.w3.org/2000/svg" p-id="1273" xmlns:xlink="http://www.w3.org/1999/xlink" width="200" height="200"><defs><style type="text/css">@font-face { font-family: feedback-iconfont; src: url("//at.alicdn.com/t/font_1031158_u69w8yhxdu.woff2?t=1630033759944") format("woff2"), url("//at.alicdn.com/t/font_1031158_u69w8yhxdu.woff?t=1630033759944") format("woff"), url("//at.alicdn.com/t/font_1031158_u69w8yhxdu.ttf?t=1630033759944") format("truetype"); }
</style></defs><path d="M928 160c17.673 0 32 14.327 32 32v640c0 17.673-14.327 32-32 32H96c-17.673 0-32-14.327-32-32V192c0-17.673 14.327-32 32-32h832zM794.69 352L554.419 591.792a4.752 4.752 0 0 0-1.293 3.168h-0.041L552 662.787a9.172 9.172 0 0 0 9.133 9.213h0.208l67.26-1.668a4.713 4.713 0 0 0 3.087-1.25L872 429.29 794.69 352z m-373.082 13.025H234.391a6.25 6.25 0 0 0-5.7 3.685L188 459.125l-12.35 27.425-1.122 2.501a32 32 0 0 0-2.803 13.097V636.16a8 8 0 0 0 8 8H210.6a8 8 0 0 0 8-8v-13.492h218.75v13.492a8 8 0 0 0 8 8h30.875a8 8 0 0 0 8-8V502.148a32 32 0 0 0-2.803-13.097l-1.122-2.501-12.325-27.425-40.667-90.414a6.25 6.25 0 0 0-5.7-3.686z m373.082 38.46l25.77 25.68L614.925 634.19l-26.062 0.625 0.417-26.43v0.041l205.41-204.94zM232.675 531.772c10.355 0 18.75 8.395 18.75 18.75 0 10.356-8.395 18.75-18.75 18.75s-18.75-8.394-18.75-18.75c0-10.355 8.395-18.75 18.75-18.75z m191.016 0c10.355 0 18.75 8.395 18.75 18.75 0 10.356-8.395 18.75-18.75 18.75-10.356 0-18.75-8.394-18.75-18.75 0-10.355 8.394-18.75 18.75-18.75zM248.5 393.15l0.025 0.025h158.95l34.75 77.325H213.75l34.75-77.35z" p-id="1274"></path></svg>