<?xml version="1.0" standalone="no"?><!DOCTYPE svg PUBLIC "-//W3C//DTD SVG 1.1//EN" "http://www.w3.org/Graphics/SVG/1.1/DTD/svg11.dtd"><svg t="1678069758274" class="icon" viewBox="0 0 1024 1024" version="1.1" xmlns="http://www.w3.org/2000/svg" p-id="1104" xmlns:xlink="http://www.w3.org/1999/xlink" width="200" height="200"><path d="M698.112 160a16 16 0 0 1 14.592 9.472L809.6 387.328l28.16-28.16a8 8 0 0 1 11.328 0l36.8 36.736a8 8 0 0 1 0 11.264l-11.264 11.264a262.784 262.784 0 0 0-145.152-34.048L661.76 232H291.264l-80 180.032h414.464A264 264 0 0 0 483.136 688H288a1.024 1.024 0 0 0-1.024 0.896v30.08c0 0.512 0.384 0.96 0.896 1.024h202.24c7.296 25.856 18.432 50.048 32.704 72H216v40a32 32 0 0 1-32 32h-48a32 32 0 0 1-32-32V477.696c0-1.088 0.256-2.24 0.64-3.2l8.896-19.968-47.04-47.424a8 8 0 0 1 0-11.328l36.992-36.544a8 8 0 0 1 11.328 0l28.352 28.672 97.088-218.432A16 16 0 0 1 254.912 160h443.2z m46.08 272a216 216 0 1 1 0 432 216 216 0 0 1 0-432z m0 64a151.04 151.04 0 0 0-107.52 44.48A151.04 151.04 0 0 0 592.128 648c0 40.576 15.808 78.784 44.544 107.52A151.04 151.04 0 0 0 744.192 800a151.04 151.04 0 0 0 107.456-44.48A151.04 151.04 0 0 0 896.128 648a151.04 151.04 0 0 0-44.48-107.52A151.04 151.04 0 0 0 744.128 496z m-28.16 77.632c2.112 0 3.84 1.728 3.968 3.84v140.864a3.968 3.968 0 0 1-6.656 3.008l-0.192-0.192-67.52-67.52a8 8 0 0 1-0.192-11.072l0.192-0.192 67.52-67.52a4.032 4.032 0 0 1 2.816-1.216z m124.16 46.4c4.352 0 7.936 3.52 7.936 7.936v40.064a8 8 0 0 1-8 7.936h-120v-55.936h120zM245.952 504a46.016 46.016 0 1 0 0 92.032 46.016 46.016 0 0 0 0-92.032z" p-id="1105"></path></svg>