<?xml version="1.0" standalone="no"?><!DOCTYPE svg PUBLIC "-//W3C//DTD SVG 1.1//EN" "http://www.w3.org/Graphics/SVG/1.1/DTD/svg11.dtd"><svg t="1678079172854" class="icon" viewBox="0 0 1024 1024" version="1.1" xmlns="http://www.w3.org/2000/svg" p-id="4303" xmlns:xlink="http://www.w3.org/1999/xlink" width="200" height="200"><path d="M512 64a448 448 0 1 1 0 896 448 448 0 0 1 0-896zM223.424 277.184a372.032 372.032 0 0 0 523.328 523.328l-41.536-41.536H704a16 16 0 0 1-16-16l-0.064-1.28-30.72-30.72H336v32a16 16 0 0 1-16 16h-48a16 16 0 0 1-16-16V492.032l3.2-7.232-35.328-35.328a8 8 0 0 1 0-11.328l28.288-28.288a8 8 0 0 1 11.264 0l20.352 20.288 28.608-64-88.96-88.96zM512 139.968a370.432 370.432 0 0 0-234.816 83.456l68.48 68.48 2.112-4.48a16 16 0 0 1 14.592-9.408h299.264a16 16 0 0 1 14.464 9.088l0.128 0.32 64 142.72 20.352-20.288a8 8 0 0 1 11.264 0l28.288 28.288a8 8 0 0 1 0 11.328L764.8 484.8l3.2 7.168-0.064 222.208 32.64 32.64A372.032 372.032 0 0 0 512 140.032zM384 535.04a40 40 0 1 0 0 80 40 40 0 0 0 0-80z m256 0a39.936 39.936 0 0 0-33.28 17.92l55.424 55.424A39.936 39.936 0 0 0 640 535.04zM360.832 414.592l-15.872 35.392h51.264l-35.392-35.392z m269.76-72.576l-234.88-0.064 108.032 108.032H679.04l-48.448-107.968z" p-id="4304"></path></svg>