<?xml version="1.0" standalone="no"?><!DOCTYPE svg PUBLIC "-//W3C//DTD SVG 1.1//EN" "http://www.w3.org/Graphics/SVG/1.1/DTD/svg11.dtd"><svg t="1648446798851" class="icon" viewBox="0 0 1024 1024" version="1.1" xmlns="http://www.w3.org/2000/svg" p-id="66622" xmlns:xlink="http://www.w3.org/1999/xlink" width="200" height="200"><defs><style type="text/css">@font-face { font-family: feedback-iconfont; src: url("//at.alicdn.com/t/font_1031158_u69w8yhxdu.woff2?t=1630033759944") format("woff2"), url("//at.alicdn.com/t/font_1031158_u69w8yhxdu.woff?t=1630033759944") format("woff"), url("//at.alicdn.com/t/font_1031158_u69w8yhxdu.ttf?t=1630033759944") format("truetype"); }
</style></defs><path d="M950.272 387.072l-39.424-39.424c-3.072-3.072-8.192-3.072-11.264 0l-29.184 29.184-108.544-240.64H262.144L153.6 376.832l-29.184-29.184c-3.072-3.072-8.192-3.072-11.264 0l-39.424 39.424c-3.072 3.072-3.072 8.192 0 11.264l48.64 48.64-10.24 22.528v387.072c0 17.92 14.336 31.744 31.744 31.744H199.68c17.92 0 31.744-14.336 31.744-31.744V814.08h560.128v41.984c0 17.92 14.336 31.744 31.744 31.744h55.808c17.92 0 31.744-14.336 31.744-31.744V469.504l-10.24-22.528 48.64-48.64c4.096-3.072 4.096-8.192 1.024-11.264zM267.776 601.6c-26.624 0-48.128-21.504-48.128-48.128s21.504-48.128 48.128-48.128 48.128 21.504 48.128 48.128-21.504 48.128-48.128 48.128z m429.056 140.8H327.168v-39.936h370.176v39.936h-0.512z m59.392-140.8c-26.624 0-48.128-21.504-48.128-48.128s21.504-48.128 48.128-48.128 48.128 21.504 48.128 48.128-22.016 48.128-48.128 48.128zM219.648 405.504l89.088-198.144h407.04l89.088 198.144H219.648z" p-id="66623"></path></svg>