<?xml version="1.0" standalone="no"?><!DOCTYPE svg PUBLIC "-//W3C//DTD SVG 1.1//EN" "http://www.w3.org/Graphics/SVG/1.1/DTD/svg11.dtd"><svg t="1678070742545" class="icon" viewBox="0 0 1024 1024" version="1.1" xmlns="http://www.w3.org/2000/svg" p-id="3470" xmlns:xlink="http://www.w3.org/1999/xlink" width="200" height="200"><path d="M680 632.512l99.648 57.536a32 32 0 0 1 16 27.712v115.008a32 32 0 0 1-16 27.712L680 918.08a32 32 0 0 1-32 0l-99.648-57.6a32 32 0 0 1-16-27.712V717.76a32 32 0 0 1 16-27.712L648 632.512a32 32 0 0 1 32 0z m-304 0l99.648 57.536a32 32 0 0 1 16 27.712v115.008a32 32 0 0 1-16 27.712L376 918.08a32 32 0 0 1-32 0l-99.648-57.6a32 32 0 0 1-16-27.712V717.76a32 32 0 0 1 16-27.712L344 632.512a32 32 0 0 1 32 0z m152-263.296l99.648 57.6a32 32 0 0 1 16 27.648V569.6a32 32 0 0 1-16 27.712L528 654.848a32 32 0 0 1-32 0l-99.648-57.6a32 32 0 0 1-16-27.648V454.4a32 32 0 0 1 16-27.712L496 369.28a32 32 0 0 1 32 0z m-304 0l99.648 57.6a32 32 0 0 1 16 27.648V569.6a32 32 0 0 1-16 27.712L224 654.72a32 32 0 0 1-32 0l-99.648-57.6a32 32 0 0 1-16-27.648V454.4a32 32 0 0 1 16-27.712L192 369.28a32 32 0 0 1 32 0z m608 0l99.648 57.6a32 32 0 0 1 16 27.648V569.6a32 32 0 0 1-16 27.712L832 654.72a32 32 0 0 1-32 0l-99.648-57.6a32 32 0 0 1-16-27.648V454.4a32 32 0 0 1 16-27.712L800 369.28a32 32 0 0 1 32 0zM376 105.984l99.648 57.536a32 32 0 0 1 16 27.712V306.24a32 32 0 0 1-16 27.712L376 391.488a32 32 0 0 1-32 0l-99.648-57.536a32 32 0 0 1-16-27.712V191.232a32 32 0 0 1 16-27.712L344 105.92a32 32 0 0 1 32 0z m304 0l99.648 57.536a32 32 0 0 1 16 27.712V306.24a32 32 0 0 1-16 27.712L680 391.488a32 32 0 0 1-32 0l-99.648-57.536a32 32 0 0 1-16-27.712V191.232a32 32 0 0 1 16-27.712L648 105.92a32 32 0 0 1 32 0z" p-id="3471"></path></svg>