<?xml version="1.0" standalone="no"?><!DOCTYPE svg PUBLIC "-//W3C//DTD SVG 1.1//EN" "http://www.w3.org/Graphics/SVG/1.1/DTD/svg11.dtd"><svg t="1678070730033" class="icon" viewBox="0 0 1024 1024" version="1.1" xmlns="http://www.w3.org/2000/svg" p-id="3006" xmlns:xlink="http://www.w3.org/1999/xlink" width="200" height="200"><path d="M306.048 460.416l-100.8-77.248a16 16 0 0 1-6.272-13.248l9.088-250.24a8 8 0 0 1 8-7.744h81.28c4.288 0 7.808 3.392 8 7.68l13.568 334.08a8 8 0 0 1-12.864 6.72z m250.624-348.48h-89.088a8 8 0 0 0-8 7.68l-9.088 250.24a16 16 0 0 0 6.272 13.312l100.864 77.248a8 8 0 0 0 12.8-6.72l-13.76-341.76z m244.032 0H719.36a8 8 0 0 0-8 7.68l-9.088 250.24a16 16 0 0 0 6.272 13.312l100.864 77.248a8 8 0 0 0 12.864-6.72l-13.44-334.08a8 8 0 0 0-8.064-7.68z m-185.92 454.208L375.936 382.976a8 8 0 0 0-12.8 6.4v174.272L124.8 382.848a8 8 0 0 0-12.864 6.4v490.88a32 32 0 0 0 31.488 32h0.512l736-0.128a32 32 0 0 0 32-32V603.648a16 16 0 0 0-6.4-12.8L627.584 382.72a8 8 0 0 0-12.8 6.4v177.024z" p-id="3007"></path></svg>