<?xml version="1.0" standalone="no"?><!DOCTYPE svg PUBLIC "-//W3C//DTD SVG 1.1//EN" "http://www.w3.org/Graphics/SVG/1.1/DTD/svg11.dtd"><svg t="1652941864352" class="icon" viewBox="0 0 1024 1024" version="1.1" xmlns="http://www.w3.org/2000/svg" p-id="55248" xmlns:xlink="http://www.w3.org/1999/xlink" width="200" height="200"><defs><style type="text/css">@font-face { font-family: feedback-iconfont; src: url("//at.alicdn.com/t/font_1031158_u69w8yhxdu.woff2?t=1630033759944") format("woff2"), url("//at.alicdn.com/t/font_1031158_u69w8yhxdu.woff?t=1630033759944") format("woff"), url("//at.alicdn.com/t/font_1031158_u69w8yhxdu.ttf?t=1630033759944") format("truetype"); }
</style></defs><path d="M679.808 394.496a19.456 19.456 0 0 1 34.752 0l68.608 139.072 153.472 22.336a19.264 19.264 0 0 1 10.688 33.024l-111.04 108.224 26.24 152.96a19.328 19.328 0 0 1-28.032 20.352l-137.344-72.192L559.872 870.4a19.328 19.328 0 0 1-28.032-20.416l26.24-152.896-111.04-108.224a19.392 19.392 0 0 1 10.688-33.024l153.472-22.336z m-320.96 351.168c22.912 0 41.472 20.544 41.472 45.952 0 25.152-18.176 45.568-40.768 46.016H100.48c-22.912 0-41.472-20.608-41.472-46.016 0-25.152 18.176-45.568 40.768-45.952h259.072z m0-278.272c22.912 0 41.472 20.608 41.472 46.016 0 25.152-18.176 45.568-40.768 45.952H100.48c-22.912 0-41.472-20.544-41.472-45.952 0-25.152 18.176-45.568 40.768-46.016h259.072z m549.888-310.4a46.016 46.016 0 0 1 0.768 91.968H106.112a46.016 46.016 0 0 1-0.832-91.968H908.8z" p-id="55249"></path></svg>
