<?xml version="1.0" standalone="no"?><!DOCTYPE svg PUBLIC "-//W3C//DTD SVG 1.1//EN" "http://www.w3.org/Graphics/SVG/1.1/DTD/svg11.dtd"><svg t="1709114306457" class="icon" viewBox="0 0 1024 1024" version="1.1" xmlns="http://www.w3.org/2000/svg" p-id="2158" xmlns:xlink="http://www.w3.org/1999/xlink" width="200" height="200"><path d="M672 160a32 32 0 0 1 32 32v102.016h116.288a32 32 0 0 1 26.88 14.72l107.712 167.36a32 32 0 0 1 5.12 17.28V736a32 32 0 0 1-32 32h-62.976a116.992 116.992 0 1 1-234.048 0H393.984A116.992 116.992 0 1 1 160 768H96a32 32 0 0 1-32-32V192a32 32 0 0 1 32-32h576z m120.96 608h-89.984a44.992 44.992 0 0 0 90.048 0z m-470.976 0H232a44.992 44.992 0 0 0 89.984 0zM888 544H704v152h184V544z m-89.6-177.984H704V472h162.688l-68.224-105.92z" p-id="2159"></path></svg>