<?xml version="1.0" standalone="no"?><!DOCTYPE svg PUBLIC "-//W3C//DTD SVG 1.1//EN" "http://www.w3.org/Graphics/SVG/1.1/DTD/svg11.dtd"><svg t="1659351925842" class="icon" viewBox="0 0 1024 1024" version="1.1" xmlns="http://www.w3.org/2000/svg" p-id="871" xmlns:xlink="http://www.w3.org/1999/xlink" width="200" height="200"><defs><style type="text/css">@font-face { font-family: feedback-iconfont; src: url("//at.alicdn.com/t/font_1031158_u69w8yhxdu.woff2?t=1630033759944") format("woff2"), url("//at.alicdn.com/t/font_1031158_u69w8yhxdu.woff?t=1630033759944") format("woff"), url("//at.alicdn.com/t/font_1031158_u69w8yhxdu.ttf?t=1630033759944") format("truetype"); }
</style></defs><path d="M877.75306 463.958361c16.038554 0 29.04212 13.07759 29.042121 29.202506v294.381494a29.362892 29.362892 0 0 1-13.817832 24.884434L618.68106 982.608193a28.696675 28.696675 0 0 1-31.065446-0.407133l-236.260241-155.512289-190.118554 114.737349c-8.956916 5.428434-20.159229 5.551807-29.27653 0.345446A29.239518 29.239518 0 0 1 117.204819 916.356627V493.222554a29.140819 29.140819 0 0 1 29.042121-29.202506c16.026217 0 29.029783 13.07759 29.029783 29.202506v371.551615l161.804337-97.613109a28.832386 28.832386 0 0 1 30.843374 0.579856l236.013494 155.388915 244.773012-151.885108v-278.083856a29.140819 29.140819 0 0 1 29.04212-29.202506zM663.18188 79.921349c94.380723 57.195952 149.590361 162.236145 143.434024 272.902169a327.02612 327.02612 0 0 1-71.371567 205.651277c-0.23441 0.431807-51.274024 54.950554-103.55971 110.727711l-10.684145 11.412048c-49.842892 53.173976-97.724145 104.201253-100.524723 107.14988a14.595084 14.595084 0 0 1-21.368289 0l-100.055904-106.693398-7.143325-7.624482a50958.212627 50958.212627 0 0 1-107.680386-115.033446 327.087807 327.087807 0 0 1-71.371566-205.577253c-6.168675-110.678361 49.040964-215.718554 143.434024-272.914506a295.849639 295.849639 0 0 1 306.891567 0z m-144.815808 456.728675c-12.374361 0-24.242892 4.947277-33.002409 13.756145a47.091663 47.091663 0 0 0-13.669783 33.18747c0 25.945446 20.89947 46.955952 46.672192 46.955951 25.78506 0 46.672193-21.010506 46.672193-46.943614 0-25.933108-20.887133-46.955952-46.672193-46.955952z m27.783711-388.688193a51.631807 51.631807 0 0 0-57.603084 1.332434 52.347373 52.347373 0 0 0-20.874795 54.012916l29.955084 281.18053h0.148048a23.391614 23.391614 0 0 0 23.194217 20.813108c11.856193 0 21.837108-8.956916 23.18188-20.813108h0.148048l25.168192-283.524627a52.310361 52.310361 0 0 0-23.31759-53.001253z" p-id="872"></path></svg>