<?xml version="1.0" standalone="no"?><!DOCTYPE svg PUBLIC "-//W3C//DTD SVG 1.1//EN" "http://www.w3.org/Graphics/SVG/1.1/DTD/svg11.dtd"><svg t="1678070749616" class="icon" viewBox="0 0 1024 1024" version="1.1" xmlns="http://www.w3.org/2000/svg" p-id="3780" xmlns:xlink="http://www.w3.org/1999/xlink" width="200" height="200"><path d="M924.8 385.6a446.72 446.72 0 0 0-96-142.4A446.72 446.72 0 0 0 512 112a446.72 446.72 0 0 0-316.8 131.2A446.72 446.72 0 0 0 64 560c0 132.672 58.24 257.728 159.872 343.04l1.728 1.472c5.76 4.8 13.12 7.488 20.608 7.488H777.92a32.448 32.448 0 0 0 20.608-7.488l1.664-1.408A447.424 447.424 0 0 0 960 560c0-60.48-11.904-119.04-35.2-174.4zM481.984 232c0-4.416 3.648-8 8-8h44.032c4.416 0 8 3.584 8 8v80a8 8 0 0 1-8 8h-44.032a8 8 0 0 1-8-8v-80zM270.08 582.016a8 8 0 0 1-8 8h-80a8 8 0 0 1-8-8v-44.032c0-4.416 3.584-8 8-8h80c4.352 0 8 3.584 8 8v44.032z m90.688-204.544l-31.104 31.104a8 8 0 0 1-11.328 0L261.76 352a8 8 0 0 1 0-11.328l31.104-31.104a8 8 0 0 1 11.328 0l56.576 56.64a8 8 0 0 1 0 11.264zM651.84 461.12l-84.48 84.48a55.936 55.936 0 1 1-39.616-39.616l84.48-84.48a8 8 0 0 1 11.328 0l28.288 28.288a8 8 0 0 1 0 11.328z m43.008-52.48L663.68 377.6a8 8 0 0 1 0-11.328l56.64-56.576a8 8 0 0 1 11.264 0l31.104 31.104a8 8 0 0 1 0 11.328l-56.576 56.576a8 8 0 0 1-11.328 0zM846.08 582.016a8 8 0 0 1-8 8h-80a8 8 0 0 1-8-8v-44.032c0-4.416 3.584-8 8-8h80c4.416 0 8 3.584 8 8v44.032z" p-id="3781"></path></svg>