<?xml version="1.0" standalone="no"?><!DOCTYPE svg PUBLIC "-//W3C//DTD SVG 1.1//EN" "http://www.w3.org/Graphics/SVG/1.1/DTD/svg11.dtd"><svg t="1658234238917" class="icon" viewBox="0 0 1024 1024" version="1.1" xmlns="http://www.w3.org/2000/svg" p-id="25492" xmlns:xlink="http://www.w3.org/1999/xlink" width="200" height="200"><defs><style type="text/css">@font-face { font-family: feedback-iconfont; src: url("//at.alicdn.com/t/font_1031158_u69w8yhxdu.woff2?t=1630033759944") format("woff2"), url("//at.alicdn.com/t/font_1031158_u69w8yhxdu.woff?t=1630033759944") format("woff"), url("//at.alicdn.com/t/font_1031158_u69w8yhxdu.ttf?t=1630033759944") format("truetype"); }
</style></defs><path d="M512.995 156C292.078 156 113 335.103 113 556.03c0 123.42 55.883 233.776 143.748 307.165a28.748 28.748 0 0 0 18.375 6.697H750.86a28.695 28.695 0 0 0 18.392-6.705C857.223 789.726 913.142 679.155 913 555.53 912.723 334.415 734.09 156 512.995 156zM318.533 740.633a7.144 7.144 0 0 1-0.107 9.983l-22.098 22.1a7.144 7.144 0 0 1-10.223-0.108 313.254 313.254 0 0 1-86.946-217.025c0-173.691 140.597-314.309 314.283-314.309a313.189 313.189 0 0 1 216.961 86.962 7.146 7.146 0 0 1 0.108 10.215l-22.098 22.1a7.142 7.142 0 0 1-9.991 0.107c-105.73-99.94-271.783-97.593-374.647 5.295-102.864 102.887-105.188 268.955-5.242 374.68z m338.594-324.346L562.63 546.654c3.93 21.55-6.605 43.153-26.004 53.324-19.399 10.172-43.157 6.55-58.645-8.939-15.488-15.49-19.11-39.25-8.938-58.65 10.17-19.4 31.771-29.936 53.32-26.006l130.355-94.507a3.16 3.16 0 0 1 4.41 4.411z m102.089 360.286l-25.25 25.252a7.142 7.142 0 0 1-10.107 0l-45.455-45.459a7.144 7.144 0 0 1 0-10.099l25.259-25.26a7.142 7.142 0 0 1 10.098 0l45.455 45.458a7.144 7.144 0 0 1 0 10.108z m76.99-195.988H771.92a7.143 7.143 0 0 1-7.143-7.143v-35.717a7.143 7.143 0 0 1 7.143-7.144h64.285a7.143 7.143 0 0 1 7.142 7.144v35.717a7.143 7.143 0 0 1-7.142 7.143z" p-id="25493"></path></svg>