<?xml version="1.0" standalone="no"?><!DOCTYPE svg PUBLIC "-//W3C//DTD SVG 1.1//EN" "http://www.w3.org/Graphics/SVG/1.1/DTD/svg11.dtd"><svg t="1655108231894" class="icon" viewBox="0 0 1024 1024" version="1.1" xmlns="http://www.w3.org/2000/svg" p-id="61417" xmlns:xlink="http://www.w3.org/1999/xlink" width="200" height="200"><defs><style type="text/css">@font-face { font-family: feedback-iconfont; src: url("//at.alicdn.com/t/font_1031158_u69w8yhxdu.woff2?t=1630033759944") format("woff2"), url("//at.alicdn.com/t/font_1031158_u69w8yhxdu.woff?t=1630033759944") format("woff"), url("//at.alicdn.com/t/font_1031158_u69w8yhxdu.ttf?t=1630033759944") format("truetype"); }
</style></defs><path d="M928 140c17.696 0 32 14.304 32 32v496c0 17.696-14.304 32-32 32H548v112H720c8.8 0 16 7.2 16 16v48a8 8 0 0 1-8 8H296a8 8 0 0 1-8-8v-48c0-8.8 7.2-16 16-16h172v-112H96c-17.696 0-32-14.304-32-32v-496c0-17.696 14.304-32 32-32zM372 344h-104v216h104v-216z m192-64h-104v280h104V280z m192 128h-104v152h104v-152z" p-id="61418"></path></svg>