<?xml version="1.0" standalone="no"?><!DOCTYPE svg PUBLIC "-//W3C//DTD SVG 1.1//EN" "http://www.w3.org/Graphics/SVG/1.1/DTD/svg11.dtd"><svg t="1678346798304" class="icon" viewBox="0 0 1024 1024" version="1.1" xmlns="http://www.w3.org/2000/svg" p-id="1958" xmlns:xlink="http://www.w3.org/1999/xlink" width="200" height="200"><path d="M927.872 160a32 32 0 0 1 32 31.488v640.128a32 32 0 0 1-31.488 32H96a32 32 0 0 1-32-31.488V192a32 32 0 0 1 31.488-32h832.384z m-627.84 404.032h-56a8 8 0 0 0-8 7.936V728c0 4.352 3.392 7.872 7.68 8h56.256a8 8 0 0 0 8-8V571.968a8 8 0 0 0-7.68-7.936h-0.256z m160-196.032h-56a8 8 0 0 0-8 8v352c0 4.352 3.392 7.872 7.68 8h56.256a8 8 0 0 0 8-8V376a8 8 0 0 0-7.936-8z m160 100.032h-56a8 8 0 0 0-8 8V728c0 4.352 3.392 7.872 7.68 8h56.256a8 8 0 0 0 8-8V475.968a8 8 0 0 0-7.68-7.936h-0.256z m160-172.032h-56a8 8 0 0 0-8 8v424c0 4.352 3.392 7.872 7.68 8h56.256a8 8 0 0 0 8-8V304a8 8 0 0 0-7.936-8z" p-id="1959"></path></svg>