<?xml version="1.0" standalone="no"?><!DOCTYPE svg PUBLIC "-//W3C//DTD SVG 1.1//EN" "http://www.w3.org/Graphics/SVG/1.1/DTD/svg11.dtd"><svg t="1655108299857" class="icon" viewBox="0 0 1024 1024" version="1.1" xmlns="http://www.w3.org/2000/svg" p-id="61849" xmlns:xlink="http://www.w3.org/1999/xlink" width="200" height="200"><defs><style type="text/css">@font-face { font-family: feedback-iconfont; src: url("//at.alicdn.com/t/font_1031158_u69w8yhxdu.woff2?t=1630033759944") format("woff2"), url("//at.alicdn.com/t/font_1031158_u69w8yhxdu.woff?t=1630033759944") format("woff"), url("//at.alicdn.com/t/font_1031158_u69w8yhxdu.ttf?t=1630033759944") format("truetype"); }
</style></defs><path d="M880 688c17.673 0 32 14.327 32 32v160c0 17.673-14.327 32-32 32H144c-17.673 0-32-14.327-32-32V720c0-17.673 14.327-32 32-32h736z m-106 84H658a2 2 0 0 0-1.995 1.85L656 774v52a2 2 0 0 0 1.85 1.995l0.15 0.005h116a2 2 0 0 0 1.995-1.85L776 826v-52a2 2 0 0 0-2-2z m106-372c17.673 0 32 14.327 32 32v160c0 17.673-14.327 32-32 32H144c-17.673 0-32-14.327-32-32V432c0-17.673 14.327-32 32-32h736z m-106 84H658a2 2 0 0 0-1.995 1.85L656 486v52a2 2 0 0 0 1.85 1.995l0.15 0.005h116a2 2 0 0 0 1.995-1.85L776 538v-52a2 2 0 0 0-2-2z m106-372c17.673 0 32 14.327 32 32v160c0 17.673-14.327 32-32 32H144c-17.673 0-32-14.327-32-32V144c0-17.673 14.327-32 32-32h736z m-106 84H658a2 2 0 0 0-1.995 1.85L656 198v52a2 2 0 0 0 1.85 1.995l0.15 0.005h116a2 2 0 0 0 1.995-1.85L776 250v-52a2 2 0 0 0-2-2z" p-id="61850"></path></svg>