<?xml version="1.0" standalone="no"?><!DOCTYPE svg PUBLIC "-//W3C//DTD SVG 1.1//EN" "http://www.w3.org/Graphics/SVG/1.1/DTD/svg11.dtd"><svg t="1655118727155" class="icon" viewBox="0 0 1024 1024" version="1.1" xmlns="http://www.w3.org/2000/svg" p-id="52471" xmlns:xlink="http://www.w3.org/1999/xlink" width="200" height="200"><defs><style type="text/css">@font-face { font-family: feedback-iconfont; src: url("//at.alicdn.com/t/font_1031158_u69w8yhxdu.woff2?t=1630033759944") format("woff2"), url("//at.alicdn.com/t/font_1031158_u69w8yhxdu.woff?t=1630033759944") format("woff"), url("//at.alicdn.com/t/font_1031158_u69w8yhxdu.ttf?t=1630033759944") format("truetype"); }
</style></defs><path d="M927.744 807.936H167.936V143.872c0-4.608-3.584-8.192-8.192-8.192H96.256c-4.608 0-8.192 3.584-8.192 8.192v712.192c0 17.92 14.336 31.744 31.744 31.744h807.936c4.608 0 8.192-3.584 8.192-8.192v-64c0-4.096-3.584-7.68-8.192-7.68z" fill="#555555" p-id="52472"></path><path d="M925.696 136.192H98.304c-5.632 0-10.24 4.608-10.24 10.24v731.136c0 5.632 4.608 10.24 10.24 10.24h827.392c5.632 0 10.24-4.608 10.24-10.24V146.432c0-5.632-4.608-10.24-10.24-10.24zM296.96 780.288c0 5.12-2.56 8.192-8.192 8.192H228.864c-5.12 0-8.192-2.56-8.192-8.192v-182.272c0-5.12 2.56-8.192 8.192-8.192h59.904c5.12 0 8.192 2.56 8.192 8.192v182.272z m168.448 0c0 5.12-2.56 8.192-8.192 8.192H397.824c-5.12 0-8.192-2.56-8.192-8.192V361.984c0-5.12 2.56-8.192 8.192-8.192h59.904c5.12 0 8.192 2.56 8.192 8.192v418.304z m168.96 0c0 5.12-2.56 8.192-8.192 8.192h-59.904c-5.12 0-8.192-2.56-8.192-8.192V500.224c0-5.12 2.56-8.192 8.192-8.192h59.904c5.12 0 8.192 2.56 8.192 8.192v280.064z m168.96 0c0 5.12-2.56 8.192-8.192 8.192h-59.904c-5.12 0-8.192-2.56-8.192-8.192V243.712c0-5.12 2.56-8.192 8.192-8.192h59.904c5.12 0 8.192 2.56 8.192 8.192v536.576z" fill="#555555" p-id="52473"></path></svg>