<?xml version="1.0" standalone="no"?><!DOCTYPE svg PUBLIC "-//W3C//DTD SVG 1.1//EN" "http://www.w3.org/Graphics/SVG/1.1/DTD/svg11.dtd"><svg t="1648662350302" class="icon" viewBox="0 0 1024 1024" version="1.1" xmlns="http://www.w3.org/2000/svg" p-id="23404" xmlns:xlink="http://www.w3.org/1999/xlink" width="200" height="200"><defs><style type="text/css">@font-face { font-family: feedback-iconfont; src: url("//at.alicdn.com/t/font_1031158_u69w8yhxdu.woff2?t=1630033759944") format("woff2"), url("//at.alicdn.com/t/font_1031158_u69w8yhxdu.woff?t=1630033759944") format("woff"), url("//at.alicdn.com/t/font_1031158_u69w8yhxdu.ttf?t=1630033759944") format("truetype"); }
</style></defs><path d="M730.112 112.128H293.888c-100.352 0-181.76 81.408-181.76 181.76S193.536 476.16 293.888 476.16h436.224c100.352 0 181.76-81.408 181.76-181.76s-81.408-182.272-181.76-182.272z m-436.224 245.76c-35.328 0-64-28.672-64-64s28.672-64 64-64 64 28.672 64 64-28.672 64-64 64zM730.112 547.84H293.888c-100.352 0-181.76 81.408-181.76 181.76S193.536 911.36 293.888 911.36h436.224c100.352 0 181.76-81.408 181.76-181.76S830.464 547.84 730.112 547.84z m0 246.272c-35.328 0-64-28.672-64-64s28.672-64 64-64 64 28.672 64 64-28.672 64-64 64z" p-id="23405"></path></svg>