<?xml version="1.0" standalone="no"?><!DOCTYPE svg PUBLIC "-//W3C//DTD SVG 1.1//EN" "http://www.w3.org/Graphics/SVG/1.1/DTD/svg11.dtd"><svg t="1678077162244" class="icon" viewBox="0 0 1024 1024" version="1.1" xmlns="http://www.w3.org/2000/svg" p-id="1567" xmlns:xlink="http://www.w3.org/1999/xlink" width="200" height="200"><path d="M880 112a32 32 0 0 1 32 32v736a32 32 0 0 1-32 32H144a32 32 0 0 1-32-32V144a32 32 0 0 1 32-32h736zM299.968 744H192a8 8 0 0 0-8 8v80c0 4.416 3.584 8 8 8h108.032a8 8 0 0 0 8-8v-80a8 8 0 0 0-8-8z m176 0H372.032a8 8 0 0 0-8 8v80c0 4.416 3.584 8 8 8h104a8 8 0 0 0 8-8v-80a8 8 0 0 0-8-8z m176 0H548.032a8 8 0 0 0-8.064 8v80c0 4.416 3.584 8 8.064 8h103.936a8 8 0 0 0 8.064-8v-80a8 8 0 0 0-8.064-8zM832 744H723.968a8 8 0 0 0-7.936 8v80c0 4.416 3.52 8 7.936 8H832a8 8 0 0 0 8-8v-80a8 8 0 0 0-8-8zM459.968 407.232a8 8 0 0 0-7.936 7.744v193.792A8 8 0 0 0 464 615.744l0.192-0.192 156.8-96.768a8 8 0 0 0 0.192-13.44l-0.192-0.128-156.8-96.768a8 8 0 0 0-4.224-1.28zM299.968 184H192a8 8 0 0 0-8 8v80c0 4.416 3.584 8 8 8h108.032a8 8 0 0 0 8-8v-80a8 8 0 0 0-8-8zM832 184H723.968a8 8 0 0 0-7.936 8v80c0 4.416 3.52 8 7.936 8H832a8 8 0 0 0 8-8v-80a8 8 0 0 0-8-8z m-180.032 0H548.032a8 8 0 0 0-8.064 8v80c0 4.416 3.584 8 8.064 8h103.936a8 8 0 0 0 8.064-8v-80a8 8 0 0 0-8.064-8z m-176 0H372.032a8 8 0 0 0-8 8v80c0 4.416 3.584 8 8 8h104a8 8 0 0 0 8-8v-80a8 8 0 0 0-8-8z" p-id="1568"></path></svg>