<?xml version="1.0" encoding="UTF-8"?>
<svg width="1024px" height="1024px" viewBox="0 0 1024 1024" version="1.1" xmlns="http://www.w3.org/2000/svg" xmlns:xlink="http://www.w3.org/1999/xlink">
    <title>数字媒体_面性</title>
    <g id="页面1" stroke="none" stroke-width="1" fill="none" fill-rule="evenodd">
        <g id="数字媒体_面性" fill="#000000" fill-rule="nonzero">
            <path d="M880,112 C897.496381,112 911.713128,126.041783 912,143.470821 L912,144 L912,880 C912,897.496381 897.958217,911.713128 880.529179,912 L880,912 L144,912 C126.503619,912 112.286872,897.958217 112,880.529179 L112,880 L112,144 C112,126.503619 126.041783,112.286872 143.470821,112 L144,112 L880,112 Z M276,760 L184,760 L184,840 L276,840 L276,760 Z M417,760 L324,760 L324,840 L417,840 L417,760 Z M559,760 L465,760 L465,840 L559,840 L559,760 Z M700,760 L607,760 L607,840 L700,840 L700,760 Z M840,760 L748,760 L748,840 L840,840 L840,760 Z M471.687494,393.175153 C467.789675,395.096059 465.322775,399.064672 465.322775,403.410114 L465.322775,620.568505 C465.313608,624.917803 467.778401,628.893876 471.677884,630.820145 C475.577367,632.746413 480.232889,632.287638 483.68137,629.637269 L625.152658,521.047379 C627.964201,518.88833 629.612221,515.544897 629.612221,512.000013 C629.612221,508.45511 627.964201,505.111678 625.152658,502.952629 L483.68137,394.362739 C480.235946,391.714735 475.585313,391.254248 471.687494,393.175153 Z M276,184 L184,184 L184,264 L276,264 L276,184 Z M417,184 L324,184 L324,264 L417,264 L417,184 Z M559,184 L465,184 L465,264 L559,264 L559,184 Z M700,184 L607,184 L607,264 L700,264 L700,184 Z M840,184 L748,184 L748,264 L840,264 L840,184 Z" id="形状"></path>
        </g>
    </g>
</svg>