<?xml version="1.0" standalone="no"?><!DOCTYPE svg PUBLIC "-//W3C//DTD SVG 1.1//EN" "http://www.w3.org/Graphics/SVG/1.1/DTD/svg11.dtd"><svg t="1709114391311" class="icon" viewBox="0 0 1024 1024" version="1.1" xmlns="http://www.w3.org/2000/svg" p-id="5400" xmlns:xlink="http://www.w3.org/1999/xlink" width="200" height="200"><path d="M512 72a224 224 0 0 1 36.032 445.12v92.864H664c4.416 0 8 3.584 8 8v56a8 8 0 0 1-8 8H547.968v112.448a402.304 402.304 0 0 0 227.712-96.32l-35.2-50.24a3.968 3.968 0 0 1 3.456-6.272l164.992 6.464a4.032 4.032 0 0 1 3.648 5.248l-50.304 157.184a4.032 4.032 0 0 1-7.104 1.088l-38.016-54.272a474.24 474.24 0 0 1-269.12 109.312V952a8 8 0 0 1-8.064 8h-55.936a8 8 0 0 1-8-8v-85.376a474.24 474.24 0 0 1-269.184-109.312l-38.016 54.272a3.968 3.968 0 0 1-7.04-0.896v-0.192l-50.368-157.184a4.032 4.032 0 0 1 3.456-5.184h0.192l164.992-6.528a4.032 4.032 0 0 1 3.52 6.08l-0.128 0.192-35.2 50.24a402.304 402.304 0 0 0 227.712 96.32V681.984H360a8 8 0 0 1-8-8v-56c0-4.416 3.584-8 8-8h116.032V517.12A224 224 0 0 1 512 72z" p-id="5401"></path></svg>