<?xml version="1.0" standalone="no"?><!DOCTYPE svg PUBLIC "-//W3C//DTD SVG 1.1//EN" "http://www.w3.org/Graphics/SVG/1.1/DTD/svg11.dtd"><svg t="1677650811153" class="icon" viewBox="0 0 1024 1024" version="1.1" xmlns="http://www.w3.org/2000/svg" p-id="3939" xmlns:xlink="http://www.w3.org/1999/xlink" width="200" height="200"><path d="M668.032 64a32 32 0 0 1 32 31.488v164.48h-199.04l-0.64-0.64A104 104 0 1 0 399.36 435.456l1.28 0.384a104 104 0 0 0 99.456-23.04l0.832-0.768h199.04V928a32 32 0 0 1-31.488 32H192a32 32 0 0 1-32-31.488V96a32 32 0 0 1 31.488-32h476.544zM454.016 632h-48c-5.248 0-7.936 2.56-8 7.68V784c0 5.248 2.56 7.872 7.68 8h48.32c5.248 0 7.872-2.56 8-7.68V640c0-5.312-2.688-8-8-8z m28.416-332.672l0.512 0.64H856c4.352 0 7.872 3.456 8 7.808v56.192a8 8 0 0 1-7.744 8H482.88a64 64 0 1 1-0.448-72.64z" p-id="3940"></path></svg>