<?xml version="1.0" standalone="no"?><!DOCTYPE svg PUBLIC "-//W3C//DTD SVG 1.1//EN" "http://www.w3.org/Graphics/SVG/1.1/DTD/svg11.dtd"><svg t="1677651823883" class="icon" viewBox="0 0 1024 1024" version="1.1" xmlns="http://www.w3.org/2000/svg" p-id="1342" xmlns:xlink="http://www.w3.org/1999/xlink" width="200" height="200"><path d="M919.04 797.056a124.48 124.48 0 1 1-240.448-24.832c6.4 5.76 12.608 12.032 18.496 18.56l8.512 10.176 10.688 13.312h115.008v-119.36a124.48 124.48 0 0 1 87.744 102.144z m-727.68-102.08v119.232h115.072l10.624-13.248 4.224-5.12c7.104-8.448 14.72-16.384 22.784-23.68a124.48 124.48 0 1 1-152.704-77.184z m84.736-485.184l4.992 7.04 4.096 5.568 4.928 6.272-1.408-1.856 1.152 1.536c4.48 5.568 9.28 11.008 14.144 16.192l-0.192-0.256 0.64 0.704 2.56 2.688-0.64-0.64 0.768 0.768 1.152 1.152 3.904 3.968 0.512 0.512 1.472 1.408 1.408 1.28-2.112-1.92 1.472 1.28 1.344 1.344 5.76 5.312 1.216 1.024-0.768-0.64 1.536 1.408 3.2 2.688 2.24 1.92a283.328 283.328 0 0 0 181.824 65.664 283.392 283.392 0 0 0 188.992-71.68l0.896-0.896 7.104-6.592 0.128-0.064h-0.064a286.08 286.08 0 0 0 23.168-24.96l-0.448 0.512 0.832-1.024 6.336-8.064 7.104-9.792 1.28-1.856h41.216c4.416 0 8 3.584 8 8v54.4l-5.952 4.864-6.784 6.016A286.144 286.144 0 0 0 762.176 304l-1.28 1.408 2.368-2.624-1.28 1.408c-2.24 2.56-4.48 4.992-6.592 7.552l0.64-0.768-0.512 0.64-1.28 1.6 1.088-1.344-1.408 1.664-0.768 0.896-0.96 1.28 0.64-0.896a283.264 283.264 0 0 0-63.68 179.392 283.648 283.648 0 0 0 89.152 206.848l1.728 1.6-1.6-1.536c5.568 5.248 11.392 10.368 17.408 15.168v54.4a8 8 0 0 1-8 8h-54.4l-5.504-6.592-8.832-9.984a286.08 286.08 0 0 0-8.192-8.32l-0.64-0.64-0.768-0.768a286.208 286.208 0 0 0-3.328-3.2l3.136 3.008A283.52 283.52 0 0 0 511.296 672a283.328 283.328 0 0 0-184.32 67.776l-0.192 0.256-0.832 0.64c-4.608 3.968-9.024 8-13.312 12.224l-1.664 1.664-1.536 1.472a297.088 297.088 0 0 0-7.232 7.552l-8.128 9.216a148.59 148.59 0 0 0-4.864 5.888h-54.4a8 8 0 0 1-7.936-8v-54.4l6.272-5.312 4.032-3.392a286.08 286.08 0 0 0 4.48-4.032l1.6-1.472 0.64-0.64 4.992-4.8 0.128-0.128 1.472-1.472 1.472-1.472-1.792 1.792 1.536-1.536a283.52 283.52 0 0 0 81.792-199.616 283.2 283.2 0 0 0-54.272-167.232l-2.496-3.2-8.128-10.432a271.658 271.658 0 0 0-19.648-21.504l-0.896-0.896 0.96 0.96a283.968 283.968 0 0 0-7.36-7.04l-1.28-1.152 1.28 1.216 3.008 2.816 1.536 1.408-7.552-7.04 1.344 1.28-1.344-1.28-1.536-1.28-10.24-8.64v-54.4c0-4.416 3.584-8 8-8h41.152z m36.416 543.296L304 761.792l5.632-5.888 1.408-1.344 1.472-1.472z m396.8-0.896l0.96 0.96 0.832 0.832 4.8 4.864 1.6 1.664-8.256-8.32z m-458.24-56.768l-1.28 1.28-1.728 1.728a349.248 349.248 0 0 1-1.728 1.664l-1.728 1.728 6.4-6.4zM448.32 458.176a71.104 71.104 0 1 0 122.56 72.128 71.104 71.104 0 0 0-122.56-72.128zM795.84 85.312a124.48 124.48 0 1 1-12.352 248.32c7.744-9.216 16.192-17.92 25.28-25.92l9.28-7.808 13.312-10.688V174.208H727.68l-10.56 15.552-3.584 5.12a250.24 250.24 0 0 1-39.04 42.88A124.48 124.48 0 0 1 795.712 85.312z m-568.96 0A124.48 124.48 0 0 1 348.16 237.76a247.872 247.872 0 0 1-35.136-37.44l-7.552-10.56-10.624-15.488-103.552-0.064v115.008l13.312 10.688 5.12 4.224c10.688 9.024 20.48 18.88 29.44 29.44a124.48 124.48 0 1 1-13.76-248.256h1.472z m526.208 230.4l-6.4 6.976a297.6 297.6 0 0 1 4.992-5.504l1.408-1.536z m9.408-10.24l-6.4 6.4 0.96-1.024 3.584-3.584 1.856-1.792zM324.8 264.512l7.232 6.4-1.6-1.344-1.472-1.28-1.024-0.96a287.552 287.552 0 0 1-1.6-1.408l-1.536-1.408z m-26.944-26.752l6.4 6.528-0.832-0.832a262.016 262.016 0 0 1-4.224-4.288l-1.344-1.408z" p-id="1343"></path></svg>