<?xml version="1.0" standalone="no"?><!DOCTYPE svg PUBLIC "-//W3C//DTD SVG 1.1//EN" "http://www.w3.org/Graphics/SVG/1.1/DTD/svg11.dtd"><svg t="1677650781336" class="icon" viewBox="0 0 1024 1024" version="1.1" xmlns="http://www.w3.org/2000/svg" p-id="2861" xmlns:xlink="http://www.w3.org/1999/xlink" width="200" height="200"><path d="M804.032 244.352V192H688a8 8 0 0 1-8-8v-40.064c0-4.352 3.584-7.936 8-7.936h264c1.92 0 3.776 0.704 5.12 1.92A8 8 0 0 1 960 144v40a8 8 0 0 1-8 8H844.032v52.352A40.128 40.128 0 0 1 864 278.336v0.64h40a32 32 0 0 1 32 32v122.88a32 32 0 0 1-28.992 31.872l-201.28 19.008 166.016 255.168c16.768 25.728-20.096 52.032-39.04 27.904L630.656 509.312l-0.64 0.96A140.16 140.16 0 0 1 544 571.328v56.256a144 144 0 1 1-64 0v-56.32a140.16 140.16 0 0 1-86.848-62.208l-202.24 258.752c-18.688 23.872-55.04-1.728-39.552-27.136l0.512-0.768 166.08-255.232-200.96-18.944A32 32 0 0 1 88 433.856V311.04a32 32 0 0 1 32-32h40c0-14.72 8.064-27.712 20.032-34.624V192H72a8 8 0 0 1-8-8v-40c0-1.984 0.704-3.84 1.92-5.248l0.192-0.128A8 8 0 0 1 72 136h264c4.48 0 8 3.584 8 8v40a8 8 0 0 1-8 8H219.968v52.352A40.064 40.064 0 0 1 240 278.336v0.64h132.032v-35.008a64 64 0 0 1 64-64h151.936a64 64 0 0 1 64 64v35.072H784c0-14.848 8.064-27.776 20.032-34.688zM512 720a48 48 0 1 0 0 96 48 48 0 0 0 0-96z" p-id="2862"></path></svg>