<?xml version="1.0" standalone="no"?><!DOCTYPE svg PUBLIC "-//W3C//DTD SVG 1.1//EN" "http://www.w3.org/Graphics/SVG/1.1/DTD/svg11.dtd"><svg t="1669537233603" class="icon" viewBox="0 0 1024 1024" version="1.1" xmlns="http://www.w3.org/2000/svg" p-id="916" xmlns:xlink="http://www.w3.org/1999/xlink" width="200" height="200"><path d="M880 836.032H144a32 32 0 0 0-32 32v35.968c0 4.416 3.584 8 8 8h784a8 8 0 0 0 8-8v-36.032a32 32 0 0 0-32-32zM257.728 752a40.448 40.448 0 0 0 5.952-0.512l168.192-29.44a9.792 9.792 0 0 0 5.312-2.816l423.936-423.936c3.84-3.84 3.84-10.24 0-14.08l-166.208-166.336a9.92 9.92 0 0 0-7.104-2.88 9.92 9.92 0 0 0-7.104 2.88L256.832 538.88a10.176 10.176 0 0 0-2.816 5.312l-29.504 168.192a33.92 33.92 0 0 0 33.216 39.68z" p-id="917"></path></svg>