<?xml version="1.0" standalone="no"?><!DOCTYPE svg PUBLIC "-//W3C//DTD SVG 1.1//EN" "http://www.w3.org/Graphics/SVG/1.1/DTD/svg11.dtd"><svg t="1658235669849" class="icon" viewBox="0 0 1024 1024" version="1.1" xmlns="http://www.w3.org/2000/svg" p-id="26811" xmlns:xlink="http://www.w3.org/1999/xlink" width="200" height="200"><defs><style type="text/css">@font-face { font-family: feedback-iconfont; src: url("//at.alicdn.com/t/font_1031158_u69w8yhxdu.woff2?t=1630033759944") format("woff2"), url("//at.alicdn.com/t/font_1031158_u69w8yhxdu.woff?t=1630033759944") format("woff"), url("//at.alicdn.com/t/font_1031158_u69w8yhxdu.ttf?t=1630033759944") format("truetype"); }
</style></defs><path d="M471.477 384.056l0.872 0.855c86.736 84.976 169.569 170.227 248.5 255.752 13.998-9.885 31.042-15.691 49.462-15.691 47.42 0 85.706 38.474 86.467 85.933l0.011 1.44V900.13a7.862 7.862 0 0 1-7.861 7.862h-55.032a7.862 7.862 0 0 1-7.861-7.862V712.346c0-8.982-6.673-16.094-14.81-16.592l0.06 0.065-116.029 116.026a7.862 7.862 0 0 1-11.035 0.08l-26.229-25.48v115.65a7.862 7.862 0 0 1-7.861 7.861H170.86a7.862 7.862 0 0 1-7.861-7.862v-25.55c0-131.582 22.146-239.123 67.15-322.477 45.596-84.447 114.356-143.408 205.02-175.85l2.754-0.974 1.152-0.404a31.447 31.447 0 0 1 32.4 7.217zM694.35 112.884a15.723 15.723 0 0 1 15.047 6.3l58.833 80.863 71.687 31.41a7.862 7.862 0 0 1-1.12 14.794l-79.73 21.362 0.523 1.062a138.282 138.282 0 0 1 9.257 24.805c19.667 73.393-23.888 148.833-97.282 168.498-73.393 19.666-148.833-23.89-168.498-97.282a138.21 138.21 0 0 1-4.464-27.29l-79.728 21.363a7.862 7.862 0 0 1-8.368-12.252l46.379-63.045 10.517-99.447a15.723 15.723 0 0 1 9.884-12.98c37.185-14.62 72.78-26.486 106.784-35.598 34.005-9.111 70.765-16.632 110.28-22.563z" p-id="26812"></path></svg>