<?xml version="1.0" standalone="no"?><!DOCTYPE svg PUBLIC "-//W3C//DTD SVG 1.1//EN" "http://www.w3.org/Graphics/SVG/1.1/DTD/svg11.dtd"><svg t="1678346812925" class="icon" viewBox="0 0 1024 1024" version="1.1" xmlns="http://www.w3.org/2000/svg" p-id="2114" xmlns:xlink="http://www.w3.org/1999/xlink" width="200" height="200"><path d="M450.88 378.88l0.896 0.832A7214.528 7214.528 0 0 1 704.64 640c14.208-10.112 31.552-16 50.304-16 48.256 0 87.168 39.168 88 87.488V904a8 8 0 0 1-8 8h-56l-1.792-0.32-6.016-5.952a8 8 0 0 1-0.192-1.728V712.96a16.576 16.576 0 0 0-15.104-16.896l-91.52 91.584a8 8 0 0 1-11.072 0.192l-0.192-0.192L530.048 664.64l-36.224 36.16 106.112 106.112v99.136a8 8 0 0 1-8 8H144.96a8 8 0 0 1-7.936-8v-25.984c0-133.888 22.528-243.328 68.288-328.128 46.4-85.952 116.416-145.92 208.64-178.944l2.816-1.024 1.152-0.384a32 32 0 0 1 32.96 7.296v0.064z m302.016-187.264l72.96 32a8 8 0 0 1-1.152 15.04l-81.152 21.696 0.576 1.088a139.968 139.968 0 1 1-265.6 69.952l-81.152 21.76a8 8 0 0 1-8.512-12.48l47.168-64.192 10.752-101.184a16 16 0 0 1 10.048-13.248c35.52-14.08 71.808-26.176 108.672-36.16a1018.048 1018.048 0 0 1 112.192-22.976 16 16 0 0 1 15.36 6.4l59.84 82.304z m-73.6 85.952l-136.512 36.608-0.128 0.832a75.968 75.968 0 1 0 136.64-37.44z" p-id="2115"></path></svg>