<?xml version="1.0" standalone="no"?><!DOCTYPE svg PUBLIC "-//W3C//DTD SVG 1.1//EN" "http://www.w3.org/Graphics/SVG/1.1/DTD/svg11.dtd"><svg t="1658235956263" class="icon" viewBox="0 0 1024 1024" version="1.1" xmlns="http://www.w3.org/2000/svg" p-id="31191" xmlns:xlink="http://www.w3.org/1999/xlink" width="200" height="200"><defs><style type="text/css">@font-face { font-family: feedback-iconfont; src: url("//at.alicdn.com/t/font_1031158_u69w8yhxdu.woff2?t=1630033759944") format("woff2"), url("//at.alicdn.com/t/font_1031158_u69w8yhxdu.woff?t=1630033759944") format("woff"), url("//at.alicdn.com/t/font_1031158_u69w8yhxdu.ttf?t=1630033759944") format("truetype"); }
</style></defs><path d="M512.5 164c35.07 0 63.5 28.43 63.5 63.5S547.57 291 512.5 291 449 262.57 449 227.5 477.43 164 512.5 164M511 97c-71.245 0-129 57.755-129 129s57.755 129 129 129 129-57.755 129-129S582.245 97 511 97z" p-id="31192"></path><path d="M185 190h205c14.36 0 26 11.64 26 26v20c0 14.36-11.64 26-26 26H185c-14.36 0-26-11.64-26-26v-20c0-14.36 11.64-26 26-26zM634 190h205c14.36 0 26 11.64 26 26v20c0 14.36-11.64 26-26 26H634c-14.36 0-26-11.64-26-26v-20c0-14.36 11.64-26 26-26z" p-id="31193"></path><path d="M416 654m55 0l82 0q55 0 55 55l0 148q0 55-55 55l-82 0q-55 0-55-55l0-148q0-55 55-55Z" p-id="31194"></path><path d="M696 315c34.794 0 63 28.206 63 63v353c0 34.794-28.206 63-63 63h-48V669c0-30.072-24.134-54.507-54.09-54.993L593 614H431c-30.072 0-54.507 24.134-54.993 54.09L376 669v125h-49c-34.794 0-63-28.206-63-63V378c0-34.794 28.206-63 63-63l40.38 0.002c29.774 48.18 83.073 80.284 143.87 80.284 60.797 0 114.096-32.104 143.87-80.284L696 315z" p-id="31195"></path></svg>