<?xml version="1.0" standalone="no"?><!DOCTYPE svg PUBLIC "-//W3C//DTD SVG 1.1//EN" "http://www.w3.org/Graphics/SVG/1.1/DTD/svg11.dtd"><svg t="1709114384727" class="icon" viewBox="0 0 1024 1024" version="1.1" xmlns="http://www.w3.org/2000/svg" p-id="5090" xmlns:xlink="http://www.w3.org/1999/xlink" width="200" height="200"><path d="M832 64a32 32 0 0 1 32 32v832a32 32 0 0 1-32 32H192a32 32 0 0 1-32-32V96a32 32 0 0 1 32-32h640zM612.864 497.216h-125.12L391.36 664.64h81.792l-29.696 140.608L632.64 595.52h-98.688l78.976-98.24h-0.064zM700.224 192H323.392a14.528 14.528 0 0 0-14.464 14.528V380.16c0 8 6.464 14.528 14.464 14.528H700.16a14.528 14.528 0 0 0 14.528-14.528V206.528A14.528 14.528 0 0 0 700.16 192z" p-id="5091"></path></svg>