<?xml version="1.0" standalone="no"?><!DOCTYPE svg PUBLIC "-//W3C//DTD SVG 1.1//EN" "http://www.w3.org/Graphics/SVG/1.1/DTD/svg11.dtd"><svg t="1658728677183" class="icon" viewBox="0 0 1024 1024" version="1.1" xmlns="http://www.w3.org/2000/svg" p-id="23152" xmlns:xlink="http://www.w3.org/1999/xlink" width="200" height="200"><defs><style type="text/css">@font-face { font-family: feedback-iconfont; src: url("//at.alicdn.com/t/font_1031158_u69w8yhxdu.woff2?t=1630033759944") format("woff2"), url("//at.alicdn.com/t/font_1031158_u69w8yhxdu.woff?t=1630033759944") format("woff"), url("//at.alicdn.com/t/font_1031158_u69w8yhxdu.ttf?t=1630033759944") format("truetype"); }
</style></defs><path d="M832 64a32 32 0 0 1 32 32v832a32 32 0 0 1-32 32h-640a32 32 0 0 1-32-32V96a32 32 0 0 1 32-32z m-219.136 433.194667h-125.098667l-96.426666 167.424h81.792l-29.653334 140.629333 189.184-209.706667h-98.688l78.933334-98.346666zM700.202667 192H323.370667a14.506667 14.506667 0 0 0-14.464 14.506667v173.653333c0 8.021333 6.485333 14.506667 14.506666 14.506667h376.746667a14.506667 14.506667 0 0 0 14.506667-14.506667V206.506667a14.506667 14.506667 0 0 0-14.506667-14.506667z" p-id="23153"></path></svg>