<?xml version="1.0" standalone="no"?><!DOCTYPE svg PUBLIC "-//W3C//DTD SVG 1.1//EN" "http://www.w3.org/Graphics/SVG/1.1/DTD/svg11.dtd"><svg t="1658233126194" class="icon" viewBox="0 0 1024 1024" version="1.1" xmlns="http://www.w3.org/2000/svg" p-id="23742" xmlns:xlink="http://www.w3.org/1999/xlink" width="200" height="200"><defs><style type="text/css">@font-face { font-family: feedback-iconfont; src: url("//at.alicdn.com/t/font_1031158_u69w8yhxdu.woff2?t=1630033759944") format("woff2"), url("//at.alicdn.com/t/font_1031158_u69w8yhxdu.woff?t=1630033759944") format("woff"), url("//at.alicdn.com/t/font_1031158_u69w8yhxdu.ttf?t=1630033759944") format("truetype"); }
</style></defs><path d="M797 112c15.78 0 28.571 12.792 28.571 28.571V883.43C825.571 899.209 812.78 912 797 912H225.571C209.791 912 197 899.208 197 883.429V140.57c0-15.78 12.792-28.571 28.571-28.571zM601.804 529H490.098L404 678.482h73.018l-26.456 125.545 168.902-187.223h-88.098L601.804 529zM471.288 221.002c-93.3 18.9-160.346 100.935-160.29 196.12v2.68c0 7.888 6.398 14.283 14.288 14.283h371.428c7.89 0 14.287-6.395 14.287-14.284v-2.678a198.75 198.75 0 0 0-15.725-77.845c-36.997-87.703-130.69-137.176-223.988-118.276z" p-id="23743"></path><path d="M608.443 359.494l-16.446-16.447a3.578 3.578 0 0 0-5.059 0l-69.06 69.056a28.626 28.626 0 1 0 21.51 21.51l69.055-69.056a3.578 3.578 0 0 0 0-5.063z" p-id="23744"></path><path d="M493 261.545v-49.09c0-3.013 2.43-5.455 5.429-5.455h27.142c2.999 0 5.429 2.442 5.429 5.455v49.09c0 3.013-2.43 5.455-5.429 5.455H498.43c-2.999 0-5.429-2.442-5.429-5.455z" p-id="23745"></path></svg>