<?xml version="1.0" standalone="no"?><!DOCTYPE svg PUBLIC "-//W3C//DTD SVG 1.1//EN" "http://www.w3.org/Graphics/SVG/1.1/DTD/svg11.dtd"><svg t="1665990257094" class="icon" viewBox="0 0 1024 1024" version="1.1" xmlns="http://www.w3.org/2000/svg" p-id="1597" xmlns:xlink="http://www.w3.org/1999/xlink" width="200" height="200"><path d="M232 64c4.416 0 8 3.584 8 8v880a8 8 0 0 1-8 8h-64a8 8 0 0 1-8-8V72c0-4.416 3.584-8 8-8h64z m624 0c4.416 0 8 3.584 8 8v880a8 8 0 0 1-8 8h-64a8 8 0 0 1-8-8V72c0-4.416 3.584-8 8-8h64zM555.328 881.92a8 8 0 0 1 6.4 12.864l-43.52 56.832a8 8 0 0 1-12.8 0l-43.52-56.832a8 8 0 0 1 6.4-12.8h87.04v-0.064z m152.64-669.888c17.673 0 32 14.327 32 32v535.936c0 17.673-14.327 32-32 32H316.096c-17.673 0-32-14.327-32-32V244.032c0-17.673 14.327-32 32-32h391.872zM536 688h-48v60h48v-60z m0-104h-48v64h48v-64z m0-104h-48v64h48v-64z m0-104h-48v64h48v-64z m0-100h-48v60h48v-60zM511.744 69.12a8 8 0 0 1 6.4 3.2l43.52 56.832a8 8 0 0 1-6.4 12.8h-87.04l-0.064 0.064a8 8 0 0 1-6.336-12.864l43.52-56.832a8 8 0 0 1 6.4-3.2z" p-id="1598"></path></svg>