<?xml version="1.0" standalone="no"?><!DOCTYPE svg PUBLIC "-//W3C//DTD SVG 1.1//EN" "http://www.w3.org/Graphics/SVG/1.1/DTD/svg11.dtd"><svg t="1678082023548" class="icon" viewBox="0 0 1024 1024" version="1.1" xmlns="http://www.w3.org/2000/svg" p-id="1098" xmlns:xlink="http://www.w3.org/1999/xlink" width="200" height="200"><path d="M232 64c4.416 0 8 3.584 8 8v880a8 8 0 0 1-8 8h-64a8 8 0 0 1-8-8V72c0-4.416 3.584-8 8-8h64z m624 0c4.416 0 8 3.584 8 8v880a8 8 0 0 1-8 8h-64a8 8 0 0 1-8-8V72c0-4.416 3.584-8 8-8h64zM555.328 881.92a8 8 0 0 1 6.4 12.864l-43.52 56.832a8 8 0 0 1-12.8 0l-43.52-56.832a8 8 0 0 1 6.4-12.8h87.04v-0.064zM707.84 212.032a32 32 0 0 1 32 32v535.872a32 32 0 0 1-32 32H315.968a32 32 0 0 1-32-32V244.096a32 32 0 0 1 32-32H707.84zM512 369.92c-37.952 0-73.6 14.72-100.48 41.6-26.752 26.816-41.536 62.464-41.536 100.416s14.72 73.6 41.6 100.48C438.4 639.168 474.048 653.952 512 653.952s73.6-14.72 100.48-41.6c26.752-26.816 41.536-62.464 41.536-100.416s-14.72-73.6-41.6-100.48A141.12 141.12 0 0 0 512 370.048z m-76.16 112l156.352 0.192c4.224 0 7.68 3.456 7.808 7.68v40.192a7.936 7.936 0 0 1-7.552 7.936h-0.256l-156.352-0.064a7.936 7.936 0 0 1-7.808-7.68v-40.192c0-4.288 3.328-7.872 7.552-8h0.256z m75.904-412.8c2.56 0 4.864 1.216 6.4 3.2l43.52 56.832a8 8 0 0 1-6.4 12.8h-87.04l-0.064 0.064a8 8 0 0 1-6.336-12.864l43.52-56.832a8 8 0 0 1 6.4-3.2z" p-id="1099"></path></svg>