<?xml version="1.0" standalone="no"?><!DOCTYPE svg PUBLIC "-//W3C//DTD SVG 1.1//EN" "http://www.w3.org/Graphics/SVG/1.1/DTD/svg11.dtd"><svg t="1665990248436" class="icon" viewBox="0 0 1024 1024" version="1.1" xmlns="http://www.w3.org/2000/svg" p-id="1285" xmlns:xlink="http://www.w3.org/1999/xlink" width="200" height="200"><path d="M232 64c4.416 0 8 3.584 8 8v880a8 8 0 0 1-8 8h-64a8 8 0 0 1-8-8V72c0-4.416 3.584-8 8-8h64z m624 0c4.416 0 8 3.584 8 8v880a8 8 0 0 1-8 8h-64a8 8 0 0 1-8-8V72c0-4.416 3.584-8 8-8h64zM555.328 881.92a8 8 0 0 1 6.4 12.864l-43.52 56.832a8 8 0 0 1-12.8 0l-43.52-56.832a8 8 0 0 1 6.4-12.8h87.04v-0.064z m152.64-669.888c17.673 0 32 14.327 32 32v535.936c0 17.673-14.327 32-32 32H316.096c-17.673 0-32-14.327-32-32V244.032c0-17.673 14.327-32 32-32h391.872z m-165.32 153.164c-81.11-16.932-160.52 35.1-177.452 116.208-16.932 81.057 35.1 160.52 116.157 177.4 81.108 16.932 160.519-35.1 177.451-116.157 16.932-81.109-35.1-160.52-116.157-177.451z m-139.831 124.03c12.557-60.368 71.69-99.07 132.06-86.46 60.316 12.608 99.07 71.69 86.46 132.059-12.608 60.368-71.69 99.07-132.059 86.461-60.368-12.609-99.07-71.69-86.461-132.06z m160.087 2.198H461.106l-0.29 0.004a10.827 10.827 0 0 0-10.569 10.855v19.454l0.004 0.29a10.827 10.827 0 0 0 10.855 10.57h101.798l0.288-0.005c5.838-0.152 10.571-4.93 10.571-10.855v-19.454l-0.004-0.29c-0.154-5.886-4.981-10.569-10.855-10.569zM511.744 69.12a8 8 0 0 1 6.4 3.2l43.52 56.832a8 8 0 0 1-6.4 12.8h-87.04l-0.064 0.064a8 8 0 0 1-6.336-12.864l43.52-56.832a8 8 0 0 1 6.4-3.2z" p-id="1286"></path></svg>