<?xml version="1.0" standalone="no"?><!DOCTYPE svg PUBLIC "-//W3C//DTD SVG 1.1//EN" "http://www.w3.org/Graphics/SVG/1.1/DTD/svg11.dtd"><svg t="1678082020282" class="icon" viewBox="0 0 1024 1024" version="1.1" xmlns="http://www.w3.org/2000/svg" p-id="942" xmlns:xlink="http://www.w3.org/1999/xlink" width="200" height="200"><path d="M232 64c4.416 0 8 3.584 8 8v880a8 8 0 0 1-8 8h-64a8 8 0 0 1-8-8V72c0-4.416 3.584-8 8-8h64z m624 0c4.416 0 8 3.584 8 8v880a8 8 0 0 1-8 8h-64a8 8 0 0 1-8-8V72c0-4.416 3.584-8 8-8h64zM555.328 881.92a8 8 0 0 1 6.4 12.864l-43.52 56.832a8 8 0 0 1-12.8 0l-43.52-56.832a8 8 0 0 1 6.4-12.8h87.04v-0.064zM707.84 212.032a32 32 0 0 1 32 32v535.872a32 32 0 0 1-32 32H315.968a32 32 0 0 1-32-32V244.096a32 32 0 0 1 32-32H707.84zM513.344 522.944H512a287.808 287.808 0 0 0-124.928 28.032 22.016 22.016 0 0 0-12.544 19.456v54.528c0 4.288 3.392 7.872 7.68 8h259.264a8 8 0 0 0 8-7.744V570.56a22.016 22.016 0 0 0-12.544-19.584 287.744 287.744 0 0 0-123.52-28.032zM512 382.72a59.136 59.136 0 1 0 0 118.272 59.136 59.136 0 0 0 0-118.272z m-0.256-313.6c2.56 0 4.864 1.216 6.4 3.2l43.52 56.832a8 8 0 0 1-6.4 12.8h-87.04l-0.064 0.064a8 8 0 0 1-6.336-12.864l43.52-56.832a8 8 0 0 1 6.4-3.2z" p-id="943"></path></svg>