<?xml version="1.0" standalone="no"?><!DOCTYPE svg PUBLIC "-//W3C//DTD SVG 1.1//EN" "http://www.w3.org/Graphics/SVG/1.1/DTD/svg11.dtd"><svg t="1665990252879" class="icon" viewBox="0 0 1024 1024" version="1.1" xmlns="http://www.w3.org/2000/svg" p-id="1441" xmlns:xlink="http://www.w3.org/1999/xlink" width="200" height="200"><path d="M232 64c4.416 0 8 3.584 8 8v880a8 8 0 0 1-8 8h-64a8 8 0 0 1-8-8V72c0-4.416 3.584-8 8-8h64z m624 0c4.416 0 8 3.584 8 8v880a8 8 0 0 1-8 8h-64a8 8 0 0 1-8-8V72c0-4.416 3.584-8 8-8h64zM555.328 881.92a8 8 0 0 1 6.4 12.864l-43.52 56.832a8 8 0 0 1-12.8 0l-43.52-56.832a8 8 0 0 1 6.4-12.8h87.04v-0.064z m152.64-669.888c17.673 0 32 14.327 32 32v535.936c0 17.673-14.327 32-32 32h-144.95V693.495c0-0.593-0.113-1.16-0.32-1.678h22.25c9.417 0 17.052-7.623 17.052-17.026V575.88c0-21.313-17.306-38.59-38.653-38.59H460.653c-21.347 0-38.653 17.278-38.653 38.591v98.911c0 9.404 7.635 17.026 17.053 17.026h22.249a4.528 4.528 0 0 0-0.322 1.679v118.472H316.096c-17.673 0-32-14.327-32-32V244.032c0-17.673 14.327-32 32-32h391.872zM513.73 417c-28.198 0-51.057 22.86-51.057 51.058s22.86 51.057 51.057 51.057c28.2 0 51.058-22.86 51.058-51.057 0-28.199-22.86-51.058-51.058-51.058z m-1.986-347.88a8 8 0 0 1 6.4 3.2l43.52 56.832a8 8 0 0 1-6.4 12.8h-87.04l-0.064 0.064a8 8 0 0 1-6.336-12.864l43.52-56.832a8 8 0 0 1 6.4-3.2z" p-id="1442"></path></svg>