<?xml version="1.0" standalone="no"?><!DOCTYPE svg PUBLIC "-//W3C//DTD SVG 1.1//EN" "http://www.w3.org/Graphics/SVG/1.1/DTD/svg11.dtd"><svg t="1657091780781" class="icon" viewBox="0 0 1024 1024" version="1.1" xmlns="http://www.w3.org/2000/svg" p-id="22649" xmlns:xlink="http://www.w3.org/1999/xlink" width="200" height="200"><defs><style type="text/css">@font-face { font-family: feedback-iconfont; src: url("//at.alicdn.com/t/font_1031158_u69w8yhxdu.woff2?t=1630033759944") format("woff2"), url("//at.alicdn.com/t/font_1031158_u69w8yhxdu.woff?t=1630033759944") format("woff"), url("//at.alicdn.com/t/font_1031158_u69w8yhxdu.ttf?t=1630033759944") format("truetype"); }
</style></defs><path d="M832 64H192a32 32 0 0 0-32 32v856.0128c0 4.4032 3.584 7.9872 7.9872 7.9872h284.0064v-149.3504c0-5.888 3.584-10.6496 7.9872-10.6496h104.0384c4.4032 0 7.9872 4.7616 7.9872 10.6496v149.3504h284.0064c4.4032 0 7.9872-3.584 7.9872-7.9872V96a32 32 0 0 0-32-32zM357.5296 706.2016c0 4.4032-3.584 7.9872-7.9872 7.9872H245.504a7.9872 7.9872 0 0 1-7.9872-7.9872v-103.9872c0-4.4544 3.584-8.0384 7.9872-8.0384h104.0384c4.4032 0 7.9872 3.584 7.9872 8.0384v103.9872z m0-217.088c0 4.4032-3.584 7.9872-7.9872 7.9872H245.504a7.9872 7.9872 0 0 1-7.9872-7.9872V385.024c0-4.4032 3.584-7.9872 7.9872-7.9872h104.0384c4.4032 0 7.9872 3.584 7.9872 7.9872v104.0384z m0-217.088c0 4.4032-3.584 7.9872-7.9872 7.9872H245.504a7.9872 7.9872 0 0 1-7.9872-8.0384v-103.936c0-4.4544 3.584-8.0384 7.9872-8.0384h104.0384c4.4032 0 7.9872 3.584 7.9872 7.9872v103.9872z m214.4768 434.176c0 4.4032-3.584 7.9872-7.9872 7.9872H459.9808a7.9872 7.9872 0 0 1-7.9872-7.9872v-103.9872c0-4.4544 3.584-8.0384 7.9872-8.0384h104.0384c4.4032 0 7.9872 3.584 7.9872 8.0384v103.9872z m0-217.088c0 4.4032-3.584 7.9872-7.9872 7.9872H459.9808a7.9872 7.9872 0 0 1-7.9872-7.9872V385.024c0-4.4032 3.584-7.9872 7.9872-7.9872h104.0384c4.4032 0 7.9872 3.584 7.9872 7.9872v104.0384z m0-217.088c0 4.4032-3.584 7.9872-7.9872 7.9872H459.9808a7.9872 7.9872 0 0 1-7.9872-8.0384v-103.936c0-4.4544 3.584-8.0384 7.9872-8.0384h104.0384c4.4032 0 7.9872 3.584 7.9872 7.9872v103.9872z m214.4768 434.176c0 4.4032-3.584 7.9872-7.9872 7.9872h-104.0384a7.9872 7.9872 0 0 1-7.9872-7.9872v-103.9872c0-4.4544 3.584-8.0384 7.9872-8.0384h104.0384c4.4032 0 7.9872 3.584 7.9872 8.0384v103.9872z m0-217.088c0 4.4032-3.584 7.9872-7.9872 7.9872h-104.0384a7.9872 7.9872 0 0 1-7.9872-7.9872V385.024c0-4.4032 3.584-7.9872 7.9872-7.9872h104.0384c4.4032 0 7.9872 3.584 7.9872 7.9872v104.0384z m0-217.088c0 4.4032-3.584 7.9872-7.9872 7.9872h-104.0384a7.9872 7.9872 0 0 1-7.9872-8.0384v-103.936c0-4.4544 3.584-8.0384 7.9872-8.0384h104.0384c4.4032 0 7.9872 3.584 7.9872 7.9872v103.9872z" p-id="22650"></path></svg>