<?xml version="1.0" standalone="no"?><!DOCTYPE svg PUBLIC "-//W3C//DTD SVG 1.1//EN" "http://www.w3.org/Graphics/SVG/1.1/DTD/svg11.dtd"><svg t="1677650759341" class="icon" viewBox="0 0 1024 1024" version="1.1" xmlns="http://www.w3.org/2000/svg" p-id="2083" xmlns:xlink="http://www.w3.org/1999/xlink" width="200" height="200"><path d="M512 64a448 448 0 1 0 0 896 448 448 0 0 0 0-896z m-28.032 56c0-4.416 3.584-8 8-8h40c4.48 0 8.064 3.584 8.064 8v72a8 8 0 0 1-8.064 8h-39.936a8 8 0 0 1-8-8v-72h-0.064zM200 532.032a8 8 0 0 1-8 7.936h-72a8 8 0 0 1-8-7.936v-40.064c0-4.416 3.584-8 8-8h72c4.416 0 8 3.584 8 8v40.064zM540.032 904a8 8 0 0 1-8.064 8h-39.936a8 8 0 0 1-8-8v-72c0-4.416 3.52-8 8-8h40c4.416 0 7.936 3.584 7.936 8v72h0.064z m111.36-281.216c0 5.76-4.736 10.496-10.56 10.496h-86.848v-70.976a20.992 20.992 0 0 0-20.992-20.992h-41.984a20.992 20.992 0 0 0-20.992 20.992v71.04h-86.848a10.496 10.496 0 0 1-10.56-10.56V465.6c0-5.76 2.688-11.136 7.232-14.592l121.024-92.352a18.432 18.432 0 0 1 22.4 0l120.96 92.352a18.432 18.432 0 0 1 7.232 14.592l-0.128 157.184h0.064zM904 540.032h-72a8 8 0 0 1-8-8.064v-39.936c0-4.48 3.584-8 8-8h72c4.416 0 8 3.52 8 8v40a8 8 0 0 1-8 7.936v0.064z" p-id="2084"></path></svg>