<?xml version="1.0" standalone="no"?><!DOCTYPE svg PUBLIC "-//W3C//DTD SVG 1.1//EN" "http://www.w3.org/Graphics/SVG/1.1/DTD/svg11.dtd"><svg t="1677650789567" class="icon" viewBox="0 0 1024 1024" version="1.1" xmlns="http://www.w3.org/2000/svg" p-id="3169" xmlns:xlink="http://www.w3.org/1999/xlink" width="200" height="200"><path d="M757.76 456.064a25.6 25.6 0 0 1 7.232 0.896l0.64 0.192 177.28 60.416c4.48 1.792 7.488 5.952 7.744 10.752v251.968a19.392 19.392 0 0 1-6.272 13.248l-0.32 0.256-179.84 140.16a10.688 10.688 0 0 1-6.528 2.112 10.816 10.816 0 0 1-6.272-1.92l-0.256-0.192-179.84-140.16a19.648 19.648 0 0 1-6.592-13.184V528.576a12.544 12.544 0 0 1 7.552-10.88l0.256-0.128 177.28-60.416a25.6 25.6 0 0 1 7.296-1.088h0.64z m0 66.048L628.736 566.08v191.36l128.96 100.48 128.96-100.48V566.08L757.76 522.112zM508.992 64c4.48 0 8 3.584 8 8v57.088a358.4 358.4 0 0 1 200.384 80.64l57.984-58.048a8 8 0 0 1 11.328 0l39.616 39.68a8 8 0 0 1 0 11.264l-58.112 58.112a358.4 358.4 0 0 1 76.16 169.408l-55.168-18.752-0.832-0.256-0.896-0.256a73.664 73.664 0 0 0-19.84-2.816h-1.728c-7.04 0-14.016 1.088-20.736 3.072l-0.896 0.256-188.352 61.184-1.216 0.448a60.544 60.544 0 0 0-37.888 53.248l-0.064 1.152v252.8l0.128 66.688-7.808 0.384a750.08 750.08 0 0 1-16.832 0.64l-3.2 0.064a358.336 358.336 0 0 1-227.264-80.832l-59.136 59.136a8 8 0 0 1-11.328 0l-39.616-39.616a8 8 0 0 1 0-11.328l59.008-59.008a358.4 358.4 0 0 1-80.512-199.36H72a8 8 0 0 1-8-8v-40c0-4.416 3.584-8 8-8h57.984a358.336 358.336 0 0 1 79.808-200.32l-58.112-58.048a8 8 0 0 1 0-11.328l39.68-39.616a8 8 0 0 1 11.264 0l57.984 58.048a358.4 358.4 0 0 1 200.384-80.64V72c0-4.416 3.584-8 8-8h40zM855.36 600a8 8 0 0 1 6.464 12.672L743.232 776.064a8 8 0 0 1-12.928 0l-75.776-104.32a8 8 0 0 1 6.464-12.8h35.456a16 16 0 0 1 12.992 6.656l27.328 37.696 70.208-96.64A16 16 0 0 1 819.904 600h35.456zM358.016 393.984a112 112 0 1 0 0 224 112 112 0 0 0 0-224z m247.04-112.96a59.968 59.968 0 1 0 0 120 59.968 59.968 0 0 0 0-120z" p-id="3170"></path></svg>