<?xml version="1.0" standalone="no"?><!DOCTYPE svg PUBLIC "-//W3C//DTD SVG 1.1//EN" "http://www.w3.org/Graphics/SVG/1.1/DTD/svg11.dtd"><svg t="1648476050027" class="icon" viewBox="0 0 1024 1024" version="1.1" xmlns="http://www.w3.org/2000/svg" p-id="137364" xmlns:xlink="http://www.w3.org/1999/xlink" width="200" height="200"><defs><style type="text/css">@font-face { font-family: feedback-iconfont; src: url("//at.alicdn.com/t/font_1031158_u69w8yhxdu.woff2?t=1630033759944") format("woff2"), url("//at.alicdn.com/t/font_1031158_u69w8yhxdu.woff?t=1630033759944") format("woff"), url("//at.alicdn.com/t/font_1031158_u69w8yhxdu.ttf?t=1630033759944") format("truetype"); }
</style></defs><path d="M942.250667 486.4l-0.042667-0.128-0.128-0.085333c-36.352-76.714667-80-138.666667-130.688-185.941334l-141.952 141.952a176 176 0 0 1-231.466667 231.466667l-122.026666 122.026667c58.709333 28.117333 123.904 42.24 196.096 42.24 192.213333 0 335.36-100.437333 430.208-300.202667 7.68-16.213333 7.722667-35.072 0.085333-51.328h-0.085333z m-64-332.16l-42.325334-42.453333a8.021333 8.021333 0 0 0-11.349333 0L707.84 228.48c-58.368-28.288-123.52-42.496-195.754667-42.496-192.213333 0-335.36 100.48-430.250666 300.288v0.128c-7.68 16.298667-7.68 35.2 0 51.498667 36.437333 76.714667 80 138.709333 130.688 186.154666l-100.650667 100.48a7.978667 7.978667 0 0 0 0 11.264l42.368 42.410667a8.021333 8.021333 0 0 0 11.306667 0L878.293333 165.376a7.936 7.936 0 0 0 0-11.178667v0.042667zM348.928 587.306667a176.128 176.128 0 0 1 234.496-234.453334l-234.496 234.538667v-0.085333z" p-id="137365"></path></svg>