<?xml version="1.0" standalone="no"?><!DOCTYPE svg PUBLIC "-//W3C//DTD SVG 1.1//EN" "http://www.w3.org/Graphics/SVG/1.1/DTD/svg11.dtd"><svg t="1677579009332" class="icon" viewBox="0 0 1024 1024" version="1.1" xmlns="http://www.w3.org/2000/svg" p-id="1936" xmlns:xlink="http://www.w3.org/1999/xlink" width="200" height="200"><path d="M942.272 486.4l-0.064-0.128-0.128-0.064c-36.352-76.736-80-138.688-130.688-185.984L669.44 442.24a176 176 0 0 1-231.488 231.488L315.968 795.776c58.688 28.096 123.904 42.24 196.096 42.24 192.192 0 335.36-100.48 430.208-300.224a60.16 60.16 0 0 0 0.064-51.328h-0.064z m-64-332.16l-42.368-42.432a8 8 0 0 0-11.328 0L707.84 228.48c-58.368-28.288-123.52-42.496-195.776-42.496-192.192 0-335.36 100.48-430.208 300.288v0.128a60.416 60.416 0 0 0 0 51.52c36.416 76.672 80 138.688 130.688 186.112l-100.672 100.48a8 8 0 0 0 0 11.264l42.368 42.432a8 8 0 0 0 11.328 0l712.704-712.832a7.936 7.936 0 0 0 0-11.2v0.064zM348.928 587.328a176.128 176.128 0 0 1 234.496-234.496l-234.496 234.56v-0.064z" p-id="1937"></path></svg>