<?xml version="1.0" standalone="no"?><!DOCTYPE svg PUBLIC "-//W3C//DTD SVG 1.1//EN" "http://www.w3.org/Graphics/SVG/1.1/DTD/svg11.dtd"><svg t="1648476021898" class="icon" viewBox="0 0 1024 1024" version="1.1" xmlns="http://www.w3.org/2000/svg" p-id="137233" xmlns:xlink="http://www.w3.org/1999/xlink" width="200" height="200"><defs><style type="text/css">@font-face { font-family: feedback-iconfont; src: url("//at.alicdn.com/t/font_1031158_u69w8yhxdu.woff2?t=1630033759944") format("woff2"), url("//at.alicdn.com/t/font_1031158_u69w8yhxdu.woff?t=1630033759944") format("woff"), url("//at.alicdn.com/t/font_1031158_u69w8yhxdu.ttf?t=1630033759944") format("truetype"); }
</style></defs><path d="M1018.733714 509.147429a47.104 47.104 0 0 1 0 34.157714s-4.242286 12.8-8.557714 17.042286c-4.242286 12.8-12.8 25.6-21.284571 42.642285-21.357714 34.157714-51.2 76.8-93.915429 123.757715-81.042286 89.6-209.042286 183.442286-384 183.442285-174.884571 0-302.884571-93.842286-384-183.442285A859.282286 859.282286 0 0 1 33.133714 602.989714l-21.357714-42.642285c-4.242286-4.242286-8.484571-17.042286-8.484571-17.042286-4.315429-8.557714-4.315429-21.357714 0-34.157714 0 0 4.242286-12.8 8.484571-17.042286 4.315429-12.8 12.8-25.6 21.357714-42.715429 21.357714-34.084571 51.2-76.8 93.842286-123.684571 81.115429-89.6 209.115429-183.515429 384-183.515429 174.957714 0 302.957714 93.915429 384 183.515429 42.715429 46.884571 72.557714 89.6 93.915429 123.684571l21.284571 42.715429c4.315429 4.242286 8.557714 17.042286 8.557714 17.042286z m-738.157714 17.042285c0 128 102.4 238.957714 230.4 238.957715s230.4-110.957714 230.4-238.957715-102.4-238.884571-230.4-238.884571-230.4 110.884571-230.4 238.884571z" p-id="137234"></path><path d="M510.976 372.589714c76.8 0 145.115429 68.315429 145.115429 153.6 0 85.357714-68.315429 153.6-145.115429 153.6-76.8 0-145.042286-68.242286-145.042286-153.6 0-85.284571 68.242286-153.6 145.042286-153.6z" p-id="137235"></path></svg>