<?xml version="1.0" standalone="no"?><!DOCTYPE svg PUBLIC "-//W3C//DTD SVG 1.1//EN" "http://www.w3.org/Graphics/SVG/1.1/DTD/svg11.dtd"><svg t="1677579038456" class="icon" viewBox="0 0 1024 1024" version="1.1" xmlns="http://www.w3.org/2000/svg" p-id="2402" xmlns:xlink="http://www.w3.org/1999/xlink" width="200" height="200"><path d="M396.032 512a112 112 0 1 0 224 0 112 112 0 0 0-224 0z m546.176-25.792c-94.72-199.68-238.08-300.16-430.208-300.16-192.192 0-335.36 100.48-430.208 300.224a60.416 60.416 0 0 0 0 51.52c94.72 199.68 238.08 300.16 430.208 300.16 192.192 0 335.36-100.48 430.208-300.224a60.416 60.416 0 0 0 0-51.52zM508.032 688a176 176 0 1 1 0-352 176 176 0 0 1 0 352z" p-id="2403"></path></svg>