<?xml version="1.0" standalone="no"?><!DOCTYPE svg PUBLIC "-//W3C//DTD SVG 1.1//EN" "http://www.w3.org/Graphics/SVG/1.1/DTD/svg11.dtd"><svg t="1677981496296" class="icon" viewBox="0 0 1024 1024" version="1.1" xmlns="http://www.w3.org/2000/svg" p-id="1314" xmlns:xlink="http://www.w3.org/1999/xlink" width="200" height="200"><path d="M793.792 499.328l-287.36-225.856A16.32 16.32 0 0 0 480 286.208v451.584c0 13.504 15.68 21.12 26.368 12.736l287.424-225.856a16.128 16.128 0 0 0 0-25.344z m-320 0l-287.36-225.856A16.32 16.32 0 0 0 160 286.208v451.52c0 13.44 15.68 21.12 26.432 12.672l287.36-225.792a16.064 16.064 0 0 0 0-25.28zM857.6 248h-51.2c-3.52 0-6.4 2.688-6.4 6.016v515.968c0 3.328 2.88 6.016 6.4 6.016h51.2c3.52 0 6.4-2.688 6.4-6.016V254.08c0-3.328-2.88-6.016-6.4-6.016z" p-id="1315"></path></svg>