<?xml version="1.0" standalone="no"?><!DOCTYPE svg PUBLIC "-//W3C//DTD SVG 1.1//EN" "http://www.w3.org/Graphics/SVG/1.1/DTD/svg11.dtd"><svg t="1678079164115" class="icon" viewBox="0 0 1024 1024" version="1.1" xmlns="http://www.w3.org/2000/svg" p-id="3995" xmlns:xlink="http://www.w3.org/1999/xlink" width="200" height="200"><path d="M165.312 147.2l215.936 45.76a16 16 0 0 1 8.896 5.248l386.752 454.08 42.432-42.432a8 8 0 0 1 11.328 0l33.92 33.92a8 8 0 0 1 0 11.328l-74.88 74.944 96.128 96.192a8 8 0 0 1 0 11.328l-39.616 39.616a8 8 0 0 1-11.328 0l-96.128-96.192-74.944 74.944a8 8 0 0 1-11.328 0l-33.92-33.92a8 8 0 0 1 0-11.328l42.432-42.432-454.08-386.752a16 16 0 0 1-5.312-8.896l-45.76-216a8 8 0 0 1 9.472-9.472zM330.88 550.08l142.336 121.28-112.512 95.872 42.432 42.432a8 8 0 0 1 0 11.328l-33.92 33.92a8 8 0 0 1-11.392 0l-74.88-74.944-96.192 96.128a8 8 0 0 1-11.328 0l-39.616-39.552a8 8 0 0 1 0-11.328L232 729.024l-74.944-74.88a8 8 0 0 1 0-11.392l33.92-33.92a8 8 0 0 1 11.328 0l42.432 42.432 86.144-101.12z m535.04-397.76a8 8 0 0 1 0 3.328l-45.824 216a16 16 0 0 1-5.312 8.832L695.232 482.304l-153.216-179.84 89.6-105.216A16 16 0 0 1 640.32 192l215.936-45.824a8 8 0 0 1 9.536 6.144z" p-id="3996"></path></svg>