<?xml version="1.0" standalone="no"?><!DOCTYPE svg PUBLIC "-//W3C//DTD SVG 1.1//EN" "http://www.w3.org/Graphics/SVG/1.1/DTD/svg11.dtd"><svg t="1677581834438" class="icon" viewBox="0 0 1024 1024" version="1.1" xmlns="http://www.w3.org/2000/svg" p-id="1396" xmlns:xlink="http://www.w3.org/1999/xlink" width="200" height="200"><path d="M616.768 64c8.32 0 16.32 3.264 22.272 9.024l0.384 0.384 215.168 215.168A32.192 32.192 0 0 1 864 310.784V928a32 32 0 0 1-31.488 32H192a32 32 0 0 1-32-31.488V96a32 32 0 0 1 31.488-32h425.28zM346.88 548.416h-15.36a8 8 0 0 0-8 8v82.752c0 2.688-0.064 5.568-0.256 8.704a32.512 32.512 0 0 1-1.728 8.704 15.936 15.936 0 0 1-4.416 6.72 12.16 12.16 0 0 1-8.384 2.688 14.72 14.72 0 0 1-11.904-6.528l-0.192-0.384a8.064 8.064 0 0 0-8.832-3.776l-14.272 3.456a7.424 7.424 0 0 0-5.12 9.792c2.88 7.68 7.04 13.184 12.736 17.088 7.68 5.312 17.152 8 28.416 8 9.6 0 17.28-1.472 23.296-4.352a33.792 33.792 0 0 0 13.696-11.392 42.56 42.56 0 0 0 6.464-16.32 104.32 104.32 0 0 0 1.728-18.944v-86.208a8 8 0 0 0-8-8z m343.616-3.648c-11.072 0-21.312 1.792-30.656 5.248a67.52 67.52 0 0 0-40.128 38.4 80 80 0 0 0-5.632 30.784c0 11.328 1.92 21.568 5.696 30.784a67.52 67.52 0 0 0 40.064 38.4c9.344 3.456 19.584 5.248 30.656 5.248 10.368 0 20.544-1.088 30.592-3.2 6.464-1.408 12.8-3.392 19.008-5.888l0.256-0.128a15.872 15.872 0 0 0 9.536-14.4v-56a8 8 0 0 0-8-8h-39.424a8 8 0 0 0-8 8v12.8c0 4.416 3.584 8 8 8h17.408v23.04a62.848 62.848 0 0 1-10.56 4.224l-1.28 0.448a59.648 59.648 0 0 1-17.536 2.24 46.336 46.336 0 0 1-18.112-3.392 40.64 40.64 0 0 1-22.848-23.872 51.904 51.904 0 0 1-3.072-18.304c0-6.528 1.024-12.608 3.072-18.176a40.64 40.64 0 0 1 22.784-24 46.336 46.336 0 0 1 18.176-3.392 42.368 42.368 0 0 1 28.416 8.192l0.64 0.448c3.264 2.432 7.872 1.92 10.624-1.024l10.88-11.904a8 8 0 0 0-1.216-11.904 62.08 62.08 0 0 0-18.112-8.576 113.28 113.28 0 0 0-31.296-4.096z m-260.224 3.648h-44.608a8 8 0 0 0-8 8v125.568c0 4.48 3.584 8 8 8h15.168a8 8 0 0 0 8.064-8V634.88h22.784c7.424 0 14.4-0.704 20.8-2.112a44.608 44.608 0 0 0 16.64-7.104 34.112 34.112 0 0 0 10.944-13.44 48.192 48.192 0 0 0 4.032-20.736 45.184 45.184 0 0 0-4.352-20.928 34.88 34.88 0 0 0-11.52-13.184 47.36 47.36 0 0 0-17.152-6.912 103.872 103.872 0 0 0-20.8-1.984z m158.784 0H508.8a8 8 0 0 0-8 8v125.568c0 4.48 3.584 8 8 8h83.84a8 8 0 0 0 7.936-8v-12.8a8 8 0 0 0-8-8h-60.608v-28.8h53.44a8 8 0 0 0 8-8v-12.8a8 8 0 0 0-8-8h-53.44V577.28h57.024a8 8 0 0 0 8-8v-12.8a8 8 0 0 0-8-8z m-164.16 26.368c2.88 0 5.952 0.192 9.152 0.512 3.2 0.32 6.144 1.088 8.704 2.304a16.64 16.64 0 0 1 6.4 5.12 14.08 14.08 0 0 1 2.56 8.704c0 3.328-0.64 6.08-1.92 8.32a14.4 14.4 0 0 1-5.056 5.12 21.568 21.568 0 0 1-6.976 2.752 40.192 40.192 0 0 1-8.128 0.768h-20.736v-33.6z m177.152-436.992v188.16h188.16l-188.16-188.16z" p-id="1397"></path></svg>