<?xml version="1.0" standalone="no"?><!DOCTYPE svg PUBLIC "-//W3C//DTD SVG 1.1//EN" "http://www.w3.org/Graphics/SVG/1.1/DTD/svg11.dtd"><svg t="1677581838840" class="icon" viewBox="0 0 1024 1024" version="1.1" xmlns="http://www.w3.org/2000/svg" p-id="1552" xmlns:xlink="http://www.w3.org/1999/xlink" width="200" height="200"><path d="M854.592 288.64A32 32 0 0 1 864 311.296V928a32 32 0 0 1-32 32H192a32 32 0 0 1-32-32V96a32 32 0 0 1 32-32h424.704c8.512 0 16.64 3.392 22.72 9.408l215.168 215.296z m-64.384 37.376l-188.16-188.16v188.16h188.16zM320 481.92a8 8 0 0 0-8 8v48c0 4.48 3.584 8 8 8h384a8 8 0 0 0 8-8v-48a8 8 0 0 0-8-7.936H320z m0 136a8 8 0 0 0-8 8v48c0 4.48 3.584 8 8 8h184a8 8 0 0 0 8-7.936v-48a8 8 0 0 0-8-8H320z" p-id="1553"></path></svg>