<?xml version="1.0" standalone="no"?><!DOCTYPE svg PUBLIC "-//W3C//DTD SVG 1.1//EN" "http://www.w3.org/Graphics/SVG/1.1/DTD/svg11.dtd"><svg t="1677581851226" class="icon" viewBox="0 0 1024 1024" version="1.1" xmlns="http://www.w3.org/2000/svg" p-id="2020" xmlns:xlink="http://www.w3.org/1999/xlink" width="200" height="200"><path d="M655.232 536A190.72 190.72 0 0 1 811.52 836.16l-0.64 0.896 74.752 74.88a8 8 0 0 1 0.256 11.072l-0.256 0.192-33.92 33.92a8 8 0 0 1-11.072 0.256l-0.256-0.192-74.816-74.88A190.72 190.72 0 1 1 655.232 536zM807.936 64c17.728 0 32 14.08 32.256 31.744v480a238.72 238.72 0 1 0-336.32 335.616H167.936a31.552 31.552 0 0 1-31.744-31.232V95.744c0-17.28 13.568-31.488 31.232-31.744h640.512z m-269.76 614.144a126.72 126.72 0 1 0 234.176 97.088 126.72 126.72 0 0 0-234.176-97.088z m-49.792-333.632H272.192a8.064 8.064 0 0 0-8.192 8.192v48.128c0 4.608 3.584 8.192 8.192 8.192h216.192a8.064 8.064 0 0 0 8.192-8.192v-48.128c-0.512-4.608-4.096-8.192-8.192-8.192zM703.936 200H272.192a8.064 8.064 0 0 0-8.192 8.192v48.128c0 4.608 3.584 8.192 8.192 8.192h431.744a8.064 8.064 0 0 0 8.192-8.192v-48.128a8.064 8.064 0 0 0-8.192-8.192z" p-id="2021"></path></svg>