<?xml version="1.0" standalone="no"?><!DOCTYPE svg PUBLIC "-//W3C//DTD SVG 1.1//EN" "http://www.w3.org/Graphics/SVG/1.1/DTD/svg11.dtd"><svg t="1677583141601" class="icon" viewBox="0 0 1024 1024" version="1.1" xmlns="http://www.w3.org/2000/svg" p-id="1046" xmlns:xlink="http://www.w3.org/1999/xlink" width="200" height="200"><path d="M827.52 486.528l125.76 125.824a22.208 22.208 0 0 1 0 31.424L667.584 929.472A22.208 22.208 0 0 1 651.84 936H514.88a11.136 11.136 0 0 1-11.072-11.136v-136.96c0-5.824 2.368-11.52 6.528-15.68l285.696-285.696a22.208 22.208 0 0 1 31.424 0zM783.872 64c17.728 0 32 14.08 32.256 31.744v0.512L816 398.592 476.288 738.304a70.208 70.208 0 0 0-20.544 49.664v123.136l-311.872 0.256a31.552 31.552 0 0 1-31.744-31.232V95.744c0-17.28 13.568-31.488 31.232-31.744h640.512z m27.84 497.28L567.744 805.248V872h66.752l243.968-243.968-66.752-66.752zM464.384 344.512H248.192a8.064 8.064 0 0 0-8.192 8.192v48.128c0 4.608 3.584 8.192 8.192 8.192h216.192a8.064 8.064 0 0 0 8.192-8.192v-48.128c-0.512-4.608-4.096-8.192-8.192-8.192zM679.936 200H248.192a8.064 8.064 0 0 0-8.192 8.192v48.128c0 4.608 3.584 8.192 8.192 8.192h431.744a8.064 8.064 0 0 0 8.192-8.192v-48.128a8.064 8.064 0 0 0-8.192-8.192z" p-id="1047"></path></svg>