<?xml version="1.0" standalone="no"?><!DOCTYPE svg PUBLIC "-//W3C//DTD SVG 1.1//EN" "http://www.w3.org/Graphics/SVG/1.1/DTD/svg11.dtd"><svg t="1679309430225" class="icon" viewBox="0 0 1024 1024" version="1.1" xmlns="http://www.w3.org/2000/svg" p-id="3096" xmlns:xlink="http://www.w3.org/1999/xlink" width="200" height="200"><path d="M696 528a216.064 216.064 0 1 1-0.128 432.128A216.064 216.064 0 0 1 696 528zM807.936 88c17.728 0 32 14.08 32.256 31.744v403.072a264.064 264.064 0 0 0-328.32 410.304c-0.64 1.344-1.408 2.176-2.112 2.24H167.936a31.552 31.552 0 0 1-31.744-31.232V119.744c0-17.28 13.568-31.488 31.232-31.744h640.512zM696 592a152.192 152.192 0 0 0-152 152 152.192 152.192 0 0 0 152 152 151.872 151.872 0 0 0 152-152 152.192 152.192 0 0 0-152-152z m4.864 54.848a8 8 0 0 1 1.472 1.472l67.84 88.832a8 8 0 0 1-6.4 12.8h-39.808v78.592c0 4.096-3.52 7.488-7.936 7.488h-40.064c-4.416 0-7.936-3.392-7.936-7.488V750.08H628.16a8 8 0 0 1-6.4-12.864l67.84-88.832a8 8 0 0 1 11.264-1.472zM488.32 368.512H272.192a8.064 8.064 0 0 0-8.192 8.192v48.128c0 4.608 3.584 8.192 8.192 8.192h216.192a8.064 8.064 0 0 0 8.192-8.192v-48.128c-0.512-4.608-4.096-8.192-8.192-8.192zM703.936 224H272.192a8.064 8.064 0 0 0-8.192 8.192v48.128c0 4.608 3.584 8.192 8.192 8.192h431.744a8.064 8.064 0 0 0 8.192-8.192v-48.128a8.064 8.064 0 0 0-8.192-8.192z" p-id="3097"></path></svg>