<?xml version="1.0" standalone="no"?><!DOCTYPE svg PUBLIC "-//W3C//DTD SVG 1.1//EN" "http://www.w3.org/Graphics/SVG/1.1/DTD/svg11.dtd"><svg t="1669537495496" class="icon" viewBox="0 0 1024 1024" version="1.1" xmlns="http://www.w3.org/2000/svg" p-id="1226" xmlns:xlink="http://www.w3.org/1999/xlink" width="200" height="200"><path d="M696 508.032a112 112 0 0 1 33.408 218.944l-1.408 0.448v36.608h144a16 16 0 0 1 16 15.68v152.256a16 16 0 0 1-15.68 16H520a16 16 0 0 1-16-15.68v-152.256a16 16 0 0 1 15.68-16h144.32v-36.608a112.128 112.128 0 0 1 32-219.392z m112-432a32 32 0 0 1 32 31.424v442.752a160 160 0 0 0-304 69.824v2.112c0.448 34.432 11.904 66.688 31.36 92.928l0.64 0.896h-48a64 64 0 0 0-64 64v144h-288a32 32 0 0 1-32-31.424V108.032a32 32 0 0 1 31.488-32h640.512z m17.984 749.952H566.016v60.032h259.968v-60.032z m-129.984-256a50.048 50.048 0 1 0 0 100.032 50.048 50.048 0 0 0 0-100.032zM480 393.984H296a8 8 0 0 0-8 8v48c0 4.416 3.584 8 8 8H480a8 8 0 0 0 8-8v-48a8 8 0 0 0-8-8z m200-144h-384a8 8 0 0 0-8 8v48c0 4.416 3.584 8 8 8h384a8 8 0 0 0 8-8v-48a8 8 0 0 0-8-8z" p-id="1227"></path></svg>