<?xml version="1.0" standalone="no"?><!DOCTYPE svg PUBLIC "-//W3C//DTD SVG 1.1//EN" "http://www.w3.org/Graphics/SVG/1.1/DTD/svg11.dtd"><svg t="1677583150193" class="icon" viewBox="0 0 1024 1024" version="1.1" xmlns="http://www.w3.org/2000/svg" p-id="1358" xmlns:xlink="http://www.w3.org/1999/xlink" width="200" height="200"><path d="M832 64a32 32 0 0 1 32 32v832a32 32 0 0 1-32 32H192a32 32 0 0 1-32-32V96a32 32 0 0 1 32-32zM504 536H320a8 8 0 0 0-8 8v48c0 4.416 3.584 8 8 8h184a8 8 0 0 0 8-8v-48a8 8 0 0 0-8-8z m200-136H320a8 8 0 0 0-8 8v48c0 4.416 3.584 8 8 8h384a8 8 0 0 0 8-8v-48a8 8 0 0 0-8-8z m0-136H320a8 8 0 0 0-8 8v48c0 4.416 3.584 8 8 8h384a8 8 0 0 0 8-8v-48a8 8 0 0 0-8-8z" p-id="1359"></path></svg>