<?xml version="1.0" standalone="no"?><!DOCTYPE svg PUBLIC "-//W3C//DTD SVG 1.1//EN" "http://www.w3.org/Graphics/SVG/1.1/DTD/svg11.dtd"><svg t="1679040802976" class="icon" viewBox="0 0 1024 1024" version="1.1" xmlns="http://www.w3.org/2000/svg" p-id="1638" xmlns:xlink="http://www.w3.org/1999/xlink" width="200" height="200"><path d="M696 528a216.064 216.064 0 1 1-0.128 432.128A216.064 216.064 0 0 1 696 528zM807.936 88c15.936 0 29.056 11.328 31.744 26.432l0.512 5.824V522.88A264.064 264.064 0 0 0 514.88 936.064L168 936a32.064 32.064 0 0 1-31.296-26.56l-0.512-5.824V119.744c0-15.488 10.88-28.544 25.92-31.232l5.824-0.512h640zM696 592a152.192 152.192 0 0 0-152 152 152.192 152.192 0 0 0 152 152 151.872 151.872 0 0 0 152-152 152.192 152.192 0 0 0-152-152z m20.032 48c4.416 0 7.936 3.584 7.936 8v84.416l52.16 52.16a8 8 0 0 1 0.192 11.072l-28.48 28.48a8 8 0 0 1-11.264 0l-63.872-63.872a16 16 0 0 1-4.672-11.264V648c0-4.416 3.52-8 7.936-8h40.064zM488.32 368.512H272.192a8.064 8.064 0 0 0-8.192 8.192v48.128c0 4.608 3.584 8.192 8.192 8.192h216.192a8.064 8.064 0 0 0 8.192-8.192v-48.128c-0.512-4.608-4.096-8.192-8.192-8.192zM703.936 224H272.192a8.064 8.064 0 0 0-8.192 8.192v48.128c0 4.608 3.584 8.192 8.192 8.192h431.744a8.064 8.064 0 0 0 8.192-8.192v-48.128a8.064 8.064 0 0 0-8.192-8.192z" p-id="1639"></path></svg>