<?xml version="1.0" standalone="no"?><!DOCTYPE svg PUBLIC "-//W3C//DTD SVG 1.1//EN" "http://www.w3.org/Graphics/SVG/1.1/DTD/svg11.dtd"><svg t="1677583145766" class="icon" viewBox="0 0 1024 1024" version="1.1" xmlns="http://www.w3.org/2000/svg" p-id="1202" xmlns:xlink="http://www.w3.org/1999/xlink" width="200" height="200"><path d="M616.768 64c8.32 0 16.32 3.264 22.272 9.024l0.384 0.384 215.168 215.168A32.192 32.192 0 0 1 864 310.784V928a32 32 0 0 1-31.488 32H192a32 32 0 0 1-32-31.488V96a32 32 0 0 1 31.488-32h425.28z m57.152 454.272c-14.4 0-27.648 2.24-39.808 6.72a87.808 87.808 0 0 0-52.16 49.92 103.936 103.936 0 0 0-7.36 40.064c0 14.72 2.496 28.032 7.424 40a87.808 87.808 0 0 0 52.096 49.92c12.16 4.48 25.408 6.784 39.808 6.784 13.504 0 26.752-1.408 39.808-4.16 8.384-1.792 16.64-4.352 24.96-7.744l3.2-1.472a16 16 0 0 0 9.28-14.976v-77.504a8 8 0 0 0-8-8h-56.064a8 8 0 0 0-8 8V627.2c0 4.416 3.584 8 8 8h25.024v29.888c-3.2 1.728-7.424 3.52-12.544 5.184l-1.408 0.448a77.504 77.504 0 0 1-24.32 3.456 60.224 60.224 0 0 1-23.488-4.48 52.8 52.8 0 0 1-29.632-31.04 67.52 67.52 0 0 1-4.032-23.744c0-8.512 1.344-16.384 4.032-23.68a52.8 52.8 0 0 1 29.632-31.168 60.224 60.224 0 0 1 23.552-4.48c10.432 0 19.072 1.536 25.984 4.48a54.976 54.976 0 0 1 10.368 5.76l0.64 0.448 1.28 1.088 0.768 0.64a8 8 0 0 0 11.008-0.768l17.728-19.328a8 8 0 0 0-1.152-11.52v-0.064l-0.768-0.64-0.704-0.448-0.64-0.512a80.192 80.192 0 0 0-23.744-11.2 147.2 147.2 0 0 0-40.768-5.376z m-296.064 4.672H353.28a8 8 0 0 0-8 8V640.96c0 3.456-0.128 7.232-0.384 11.328a42.24 42.24 0 0 1-2.24 11.264 20.672 20.672 0 0 1-5.696 8.768 15.744 15.744 0 0 1-10.88 3.456 17.856 17.856 0 0 1-12.16-4.672 13.76 13.76 0 0 1-4.16-5.504 8 8 0 0 0-9.088-4.16l-22.08 5.376a8 8 0 0 0-5.76 10.112l0.32 0.896 0.896 2.56c3.584 8.96 8.96 16 16.128 20.864 10.048 6.976 22.4 10.432 36.928 10.432 12.48 0 22.528-1.92 30.272-5.568a43.968 43.968 0 0 0 17.792-14.848 55.296 55.296 0 0 0 8.448-21.184 135.68 135.68 0 0 0 2.24-24.704V530.944a8 8 0 0 0-8-8z m111.232 0h-60.416a8 8 0 0 0-8 8v168.064c0 4.416 3.584 8 8 8h24.576a8 8 0 0 0 8-8v-63.744h29.632c9.728 0 18.752-0.96 27.008-2.752a57.984 57.984 0 0 0 21.632-9.216 44.352 44.352 0 0 0 14.272-17.408 62.72 62.72 0 0 0 5.184-27.072c0-10.88-1.856-19.968-5.568-27.136a45.376 45.376 0 0 0-15.104-17.216 61.44 61.44 0 0 0-22.208-8.96 135.04 135.04 0 0 0-27.008-2.56z m-7.04 34.304c3.84 0 7.808 0.192 11.968 0.64a35.584 35.584 0 0 1 11.264 3.008 21.632 21.632 0 0 1 8.32 6.592c2.176 2.88 3.264 6.656 3.264 11.328a21.376 21.376 0 0 1-2.432 10.816 18.752 18.752 0 0 1-6.528 6.72 28.032 28.032 0 0 1-9.088 3.52 52.288 52.288 0 0 1-10.56 1.024h-27.008v-43.648z m119.936-419.456v188.16h188.16l-188.16-188.16z" p-id="1203"></path></svg>