<?xml version="1.0" standalone="no"?><!DOCTYPE svg PUBLIC "-//W3C//DTD SVG 1.1//EN" "http://www.w3.org/Graphics/SVG/1.1/DTD/svg11.dtd"><svg t="1672996403536" class="icon" viewBox="0 0 1024 1024" version="1.1" xmlns="http://www.w3.org/2000/svg" p-id="3441" xmlns:xlink="http://www.w3.org/1999/xlink" width="200" height="200"><path d="M696 528a216.064 216.064 0 1 1-0.128 432.128 216.064 216.064 0 0 1 0.128-432.128zM807.936 64c15.936 0 29.056 11.328 31.744 26.432l0.512 5.824V522.88a264.064 264.064 0 0 0-348.352 388.48H168a31.552 31.552 0 0 1-31.232-25.92l-0.512-5.824V95.744c0-15.488 10.88-28.544 25.92-31.232L167.936 64h640z m-111.936 528A152.192 152.192 0 0 0 544 744 152.192 152.192 0 0 0 696 896a151.872 151.872 0 0 0 152-152 152.192 152.192 0 0 0-152-152z m5.184 51.712l67.712 67.712a3.968 3.968 0 0 1-2.624 6.848h-42.56V838.4a8 8 0 0 1-8 8h-40a8 8 0 0 1-8-8v-120.128h-42.304a4.032 4.032 0 0 1-3.008-6.656l67.648-67.712a8 8 0 0 1 11.136-0.192zM488.384 344.512H272.192a8.064 8.064 0 0 0-8.192 8.192v48.128c0 4.608 3.584 8.192 8.192 8.192h216.192a8.064 8.064 0 0 0 8.192-8.192v-48.128c-0.512-4.608-4.096-8.192-8.192-8.192z m215.552-144.512H272.192a8.064 8.064 0 0 0-8.192 8.192v48.128c0 4.608 3.584 8.192 8.192 8.192h431.744a8.064 8.064 0 0 0 8.192-8.192v-48.128a8.064 8.064 0 0 0-8.192-8.192z" p-id="3442"></path></svg>