<?xml version="1.0" standalone="no"?><!DOCTYPE svg PUBLIC "-//W3C//DTD SVG 1.1//EN" "http://www.w3.org/Graphics/SVG/1.1/DTD/svg11.dtd"><svg t="1677581830185" class="icon" viewBox="0 0 1024 1024" version="1.1" xmlns="http://www.w3.org/2000/svg" p-id="1240" xmlns:xlink="http://www.w3.org/1999/xlink" width="200" height="200"><path d="M616.768 64c8.32 0 16.32 3.264 22.272 9.024l0.384 0.384 215.168 215.168A32.192 32.192 0 0 1 864 310.784V928a32 32 0 0 1-31.488 32H192a32 32 0 0 1-32-31.488V96a32 32 0 0 1 31.488-32h425.28z m71.872 461.76c-13.248 0-25.536 2.112-36.736 6.272a81.088 81.088 0 0 0-48.128 46.08 96 96 0 0 0-6.784 36.928c0 13.632 2.24 25.92 6.784 36.992a81.088 81.088 0 0 0 48.128 46.08c11.2 4.16 23.488 6.208 36.736 6.208 12.48 0 24.704-1.28 36.736-3.84 9.344-1.984 18.368-4.928 27.392-8.96a12.608 12.608 0 0 0 7.168-11.392v-72.96a8 8 0 0 0-8-7.936H701.44a8 8 0 0 0-8 8v18.56c0 4.416 3.584 7.936 8 7.936h22.464v27.648a64.64 64.64 0 0 1-8.832 3.84l-1.28 0.448c-1.28 0.448-2.56 0.896-4.032 1.28a71.552 71.552 0 0 1-21.12 2.816 55.616 55.616 0 0 1-21.76-4.096 48.768 48.768 0 0 1-27.328-28.672 62.336 62.336 0 0 1-3.712-21.952c0-7.808 1.28-15.104 3.712-21.824a48.768 48.768 0 0 1 27.392-28.8 55.616 55.616 0 0 1 21.696-4.096c9.6 0 17.6 1.344 24 4.096a51.136 51.136 0 0 1 11.712 6.976 8.064 8.064 0 0 0 11.2-1.088l15.808-17.28a7.04 7.04 0 0 0-0.96-10.368l-0.768-0.576a73.788 73.788 0 0 0-23.424-11.392 135.872 135.872 0 0 0-37.568-4.928z m-352.256 4.352H281.28a8 8 0 0 0-8 8v153.92c0 4.416 3.584 7.936 8 7.936h21.44a8 8 0 0 0 8-7.936v-58.24h27.328c8.96 0 17.28-0.896 24.96-2.56a53.504 53.504 0 0 0 19.968-8.512 40.96 40.96 0 0 0 13.184-16.064 57.856 57.856 0 0 0 4.8-24.96 54.208 54.208 0 0 0-5.12-25.088 41.856 41.856 0 0 0-13.952-15.872 56.768 56.768 0 0 0-20.48-8.256 124.672 124.672 0 0 0-24.96-2.368z m123.008 0h-33.92a8 8 0 0 0-8 8v153.92c0 4.416 3.584 7.936 8 7.936h21.44a8 8 0 0 0 8-7.936V578.944h0.512L524.8 692.416a16 16 0 0 0 13.632 7.68h32a8 8 0 0 0 8-8.064V538.176a8 8 0 0 0-8-8H549.12a8 8 0 0 0-8 8v110.08h-0.448L472.96 537.664a16 16 0 0 0-13.632-7.68z m-129.472 31.68c3.52 0 7.168 0.192 11.008 0.576 3.84 0.384 7.36 1.28 10.496 2.752a19.968 19.968 0 0 1 7.68 6.144 16.832 16.832 0 0 1 2.944 10.432 19.712 19.712 0 0 1-2.24 9.92 17.28 17.28 0 0 1-6.016 6.272 25.856 25.856 0 0 1-8.384 3.2 48.256 48.256 0 0 1-9.728 1.024h-24.96v-40.32z m272.064-424v188.16h188.16l-188.16-188.16z" p-id="1241"></path></svg>