<?xml version="1.0" standalone="no"?><!DOCTYPE svg PUBLIC "-//W3C//DTD SVG 1.1//EN" "http://www.w3.org/Graphics/SVG/1.1/DTD/svg11.dtd"><svg t="1679040785506" class="icon" viewBox="0 0 1024 1024" version="1.1" xmlns="http://www.w3.org/2000/svg" p-id="862" xmlns:xlink="http://www.w3.org/1999/xlink" width="200" height="200"><path d="M696 528a216.064 216.064 0 1 1-0.128 432.128A216.064 216.064 0 0 1 696 528zM807.936 88c15.936 0 29.056 11.328 31.744 26.432l0.512 5.824V522.88a264.064 264.064 0 0 0-326.016 412.544l-346.24-0.064a31.552 31.552 0 0 1-31.232-25.92l-0.512-5.824V119.744c0-15.488 10.88-28.544 25.92-31.232l5.824-0.512h640zM696 592a152.192 152.192 0 0 0-152 152 152.192 152.192 0 0 0 152 152 151.872 151.872 0 0 0 152-152 152.192 152.192 0 0 0-152-152z m99.392 72.96a8 8 0 0 1 6.4 12.8L683.264 841.024a8 8 0 0 1-12.928 0l-75.84-104.32a8 8 0 0 1 6.528-12.736h35.456a16 16 0 0 1 12.928 6.656l27.392 37.632 70.144-96.64a16 16 0 0 1 12.928-6.592h35.52zM488.32 368.576H272.192a8.064 8.064 0 0 0-8.192 8.192v48.128c0 4.608 3.584 8.192 8.192 8.192h216.192a8.064 8.064 0 0 0 8.192-8.192v-48.128c-0.512-4.608-4.096-8.192-8.192-8.192zM703.936 224H272.192a8.064 8.064 0 0 0-8.192 8.192v48.128c0 4.608 3.584 8.192 8.192 8.192h431.744a8.064 8.064 0 0 0 8.192-8.192v-48.128a8.064 8.064 0 0 0-8.192-8.192z" p-id="863"></path></svg>