<?xml version="1.0" standalone="no"?><!DOCTYPE svg PUBLIC "-//W3C//DTD SVG 1.1//EN" "http://www.w3.org/Graphics/SVG/1.1/DTD/svg11.dtd"><svg t="1725523375017" class="icon" viewBox="0 0 1024 1024" version="1.1" xmlns="http://www.w3.org/2000/svg" p-id="905" xmlns:xlink="http://www.w3.org/1999/xlink" width="200" height="200"><path d="M224 112c4.416 0 8 3.584 8 8v290.176a108.032 108.032 0 0 1 0 203.648V904a8 8 0 0 1-8 8h-56a8 8 0 0 1-8-8V613.824a108.032 108.032 0 0 1 0-203.648V120c0-4.416 3.584-8 8-8h56z m632.064 0c4.416 0 8 3.584 8 8v430.144a108.032 108.032 0 0 1 0 203.712V904a8 8 0 0 1-8 8H800a8 8 0 0 1-8-8V753.856a108.032 108.032 0 0 1 0-203.712V120c0-4.416 3.584-8 8-8h56.064z m-316.032 0c4.48 0 8.064 3.584 8.064 8v150.144a108.032 108.032 0 0 1 0 203.712V904a8 8 0 0 1-8.064 8h-55.936a8 8 0 0 1-8-8V473.856a108.032 108.032 0 0 1 0-203.712V120c0-4.416 3.52-8 8-8h56-0.064z" p-id="906"></path></svg>