<?xml version="1.0" standalone="no"?><!DOCTYPE svg PUBLIC "-//W3C//DTD SVG 1.1//EN" "http://www.w3.org/Graphics/SVG/1.1/DTD/svg11.dtd"><svg t="1678070764211" class="icon" viewBox="0 0 1024 1024" version="1.1" xmlns="http://www.w3.org/2000/svg" p-id="4402" xmlns:xlink="http://www.w3.org/1999/xlink" width="200" height="200"><path d="M532.032 112c4.416 0 7.936 3.584 7.936 8v49.088l87.808 50.688 22.016-38.144a8 8 0 0 1 10.88-2.944l263.296 152a8.045 8.045 0 0 1 2.944 10.944l-72 124.736a8 8 0 0 1-10.88 2.944l-263.36-152a8 8 0 0 1-2.944-10.944l22.016-38.144-59.84-34.496v187.328l87.808 50.688 22.016-38.08a8 8 0 0 1 10.88-2.944l263.296 152c3.84 2.176 5.12 7.04 2.944 10.88l-72 124.8a8 8 0 0 1-10.88 2.88l-263.296-152a8 8 0 0 1-2.944-10.88l22.016-38.144-59.84-34.56v182.272a8 8 0 0 1-7.936 8.064h-48a8 8 0 0 1-8-8.064v-179.84L420.16 520.32l22.016 38.08a8 8 0 0 1-2.944 10.944L176 721.28a8 8 0 0 1-10.88-2.944L92.992 593.664a8 8 0 0 1 2.944-10.944l263.36-152a8 8 0 0 1 10.88 2.944l22.016 38.08 83.84-48.384V236.032l-55.808 32.192 22.016 38.144a8 8 0 0 1-2.944 10.88L176 469.376a8 8 0 0 1-10.88-2.944l-72.128-124.8a8 8 0 0 1 2.944-10.88l263.296-152.064a8 8 0 0 1 10.88 2.944l22.016 38.144 83.84-48.384V120c0-4.416 3.52-8 8-8h48z m116.224 549.888l16 27.712a8 8 0 0 1-2.944 10.88l-69.248 40.064a8 8 0 0 1-10.944-2.944l-16-27.712a8 8 0 0 1 2.944-10.88l69.248-40.064a8 8 0 0 1 10.944 2.944z m-273.6-2.944l69.312 40a8.045 8.045 0 0 1 2.944 10.944l-16 27.712a8 8 0 0 1-10.944 2.944l-69.312-40a8 8 0 0 1-2.88-10.88l16-27.776a8 8 0 0 1 10.88-2.944z m289.6 176.448l-16 27.712a8 8 0 0 1-10.88 2.944l-69.312-40a8 8 0 0 1-2.944-10.944l16-27.712a8 8 0 0 1 10.88-2.944l69.312 40a8.045 8.045 0 0 1 2.944 10.944zM521.984 936h-32a8 8 0 0 1-8-8v-80c0-4.416 3.584-8 8-8h32c4.48 0 8 3.584 8 8v80a8 8 0 0 1-8 8z m-158.208-72.896l-16-27.712a8 8 0 0 1 2.88-10.88l69.312-40.064a8 8 0 0 1 10.88 2.944l16 27.712a8 8 0 0 1-2.88 10.88l-69.312 40.064a8 8 0 0 1-10.88-2.944z" p-id="4403"></path></svg>