<?xml version="1.0" standalone="no"?><!DOCTYPE svg PUBLIC "-//W3C//DTD SVG 1.1//EN" "http://www.w3.org/Graphics/SVG/1.1/DTD/svg11.dtd"><svg t="1655179124579" class="icon" viewBox="0 0 1025 1024" version="1.1" xmlns="http://www.w3.org/2000/svg" p-id="46485" xmlns:xlink="http://www.w3.org/1999/xlink" width="200.1953125" height="200"><defs><style type="text/css">@font-face { font-family: feedback-iconfont; src: url("//at.alicdn.com/t/font_1031158_u69w8yhxdu.woff2?t=1630033759944") format("woff2"), url("//at.alicdn.com/t/font_1031158_u69w8yhxdu.woff?t=1630033759944") format("woff"), url("//at.alicdn.com/t/font_1031158_u69w8yhxdu.ttf?t=1630033759944") format("truetype"); }
</style></defs><path d="M501.853 909.725a168.612 168.612 0 0 1-80.085-6.1l-16.44-5.358a361.476 361.476 0 0 1-98.408-53.81C240.934 793.497 206 727.03 206 652.244c0-38.99 11.759-79.803 35.847-124.835 20.55-38.306 47.035-75.016 75.062-113.778 58.052-80.373 118.158-163.483 118.158-258.45V113s85.794 52.898 126.607 98.614c61.191 68.517 55.654 133.158 59.992 163.256l33.336-61.791s78.487 72.051 107.027 122.042c16.668 29.186 29.854 60.31 39.272 92.573a450.943 450.943 0 0 1 17.697 126.317c0 81.115-41.5 149.062-120.158 196.317-56.796 34.202-113.249 45.431-115.59 45.944l-81.397 13.453z m-64.445-56.034c21.942 28.632 62.698 34.667 92.015 13.624l30.596-22.06c2.283-2.28 21.12-23.03 21.12-83.11 0-22.345-12.787-33.061-39.158-53.582-25.002-19.267-57.082-44.12-71.066-90.064a321.009 321.009 0 0 0-19.636 17.1c-23.061 22.06-50.575 55.692-50.575 90.634 0 75.472 35.277 125.52 36.704 127.458z" p-id="46486"></path></svg>