<?xml version="1.0" standalone="no"?><!DOCTYPE svg PUBLIC "-//W3C//DTD SVG 1.1//EN" "http://www.w3.org/Graphics/SVG/1.1/DTD/svg11.dtd"><svg t="1678076772967" class="icon" viewBox="0 0 1024 1024" version="1.1" xmlns="http://www.w3.org/2000/svg" p-id="922" xmlns:xlink="http://www.w3.org/1999/xlink" width="200" height="200"><path d="M396.032 112a192 192 0 0 1 192 188.8v24.192h23.936c4.48 0 8.064 3.584 8.064 8v48a8 8 0 0 1-8.064 8h-64v27.2c0 44.352-18.944 84.224-49.28 112a332.16 332.16 0 0 1 228.928 299.136l0.192 4.416v1.152l0.064 46.976A8 8 0 0 1 720 888H427.968a8 8 0 0 1-7.936-7.744v-231.68a16 16 0 0 1 7.04-13.312l63.296-42.176a267.2 267.2 0 0 0-89.984-17.024l-4.416-0.064c-33.152 0-64.96 6.016-94.336 17.088l63.232 42.176a16 16 0 0 1 7.104 13.312 5488895948.288 5488895948.288 0 0 1 0 231.424 8 8 0 0 1-8 8H72.96a8.064 8.064 0 0 1-8.832-8.192V833.664A332.16 332.16 0 0 1 289.28 529.472l3.968-1.28-0.832-0.896a151.552 151.552 0 0 1-48.384-108.672v-29.632h-64a8 8 0 0 1-8.064-8v-48c0-4.416 3.584-8 8.064-8h23.936V304a192 192 0 0 1 188.8-192h3.2z m273.92 70.016a156.032 156.032 0 0 1 156.032 153.408v21.568h20.032c4.416 0 8 3.584 8 8v40a8 8 0 0 1-8 8h-52.992v17.024c0 34.944-14.464 66.496-37.76 88.96a291.2 291.2 0 0 1 204.544 267.968l0.064 1.472V820.8c0 0.064 0-0.064 0 0a8 8 0 0 1-7.808 8.192h-39.616a8.064 8.064 0 0 1-8.576-7.36v-0.256c0 0.128 0 0.128 0 0l-0.064-34.176a235.008 235.008 0 0 0-234.816-225.216v-56c41.6 0 75.328-33.28 75.968-74.752v-18.24h-76.992V352h102.016v-14.016c0-54.656-43.84-99.072-98.304-99.968h-1.664c-14.592 0-28.416 3.072-40.96 8.704a237.888 237.888 0 0 0-19.584-52.48c18.56-7.872 39.04-12.224 60.544-12.224zM305.024 712H176a8 8 0 0 0-8 7.744V760c0 4.352 3.456 7.872 7.744 8h129.28a8 8 0 0 0 8-7.744V720a8 8 0 0 0-7.744-8h-0.256zM616 712H486.976a8 8 0 0 0-8 7.744V760c0 4.352 3.456 7.872 7.744 8H616a8 8 0 0 0 8-7.744V720a8 8 0 0 0-7.744-8H616zM491.968 389.184h-192v27.008A96 96 0 0 0 390.848 512h10.304a96 96 0 0 0 90.88-94.208V389.12zM396.032 224a40 40 0 1 0 0 80 40 40 0 0 0 0-80z" p-id="923"></path></svg>