<?xml version="1.0" standalone="no"?><!DOCTYPE svg PUBLIC "-//W3C//DTD SVG 1.1//EN" "http://www.w3.org/Graphics/SVG/1.1/DTD/svg11.dtd"><svg t="1658234214907" class="icon" viewBox="0 0 1024 1024" version="1.1" xmlns="http://www.w3.org/2000/svg" p-id="25201" xmlns:xlink="http://www.w3.org/1999/xlink" width="200" height="200"><defs><style type="text/css">@font-face { font-family: feedback-iconfont; src: url("//at.alicdn.com/t/font_1031158_u69w8yhxdu.woff2?t=1630033759944") format("woff2"), url("//at.alicdn.com/t/font_1031158_u69w8yhxdu.woff?t=1630033759944") format("woff"), url("//at.alicdn.com/t/font_1031158_u69w8yhxdu.ttf?t=1630033759944") format("truetype"); }
</style></defs><path d="M735 112c15.78 0 28.571 12.792 28.571 28.571v360.343c-42.857-25.714-94.514-48.571-156.114-67.257 25.714 63.143 32.914 129.2 25.943 160-35.029-34.286-81.429-54.857-108.571-56.971 55.714 112.8-63.029 178-28.972 300.685 3.2 11.658 7.486 22.172 12.686 31.772H163.57c-15.78 0-28.571-12.792-28.571-28.572v-700c0-15.78 12.792-28.571 28.571-28.571H735zM302.771 398.629h-57.028v57.142h57.143V398.63h-0.115z m114.286 0H360.03v57.142h57.142V398.63h-0.114zM652.83 227.2H245.686v114.286h407.2V227.2h-0.057z m25.028 290.171c73.829 30.915 110.686 96.458 110.686 196.4 23.257-38.057 29.143-78.571 17.886-121.428 58.057 44.628 100 153.6 71.428 225.028C849.286 888.8 768.03 912 712.714 912c-55.371 0-142.857-14.286-169.657-91.086-26.857-76.8 47.257-125.028 40.172-199.085l3.2 1.6c15.542 7.771 44.514 23.714 49.485 75.2 55.315-51.829 53.543-130.4 41.943-181.258z" p-id="25202"></path></svg>