<?xml version="1.0" standalone="no"?><!DOCTYPE svg PUBLIC "-//W3C//DTD SVG 1.1//EN" "http://www.w3.org/Graphics/SVG/1.1/DTD/svg11.dtd"><svg t="1678075563304" class="icon" viewBox="0 0 1024 1024" version="1.1" xmlns="http://www.w3.org/2000/svg" p-id="5486" xmlns:xlink="http://www.w3.org/1999/xlink" width="200" height="200"><path d="M686.848 740.544l95.488 95.488a8 8 0 0 1-2.56 13.056L536.512 949.824a64 64 0 0 1-49.024 0l-243.2-100.736a8 8 0 0 1-2.56-13.056l95.488-95.488a8.064 8.064 0 0 1 11.008-1.472l1.6 1.152 1.408 1.024 1.28 0.896 0.256 0.192C398.016 773.696 452.864 792 512 792c59.264 0 114.24-18.432 159.552-49.856l1.6-1.152 1.28-0.896 1.344-1.024a8.18 8.18 0 0 1 11.072 1.472z m-498.88-498.88l95.424 95.488a8.064 8.064 0 0 1 1.536 11.072l-1.152 1.536-0.96 1.28-0.192 0.32A278.72 278.72 0 0 0 232 512c0 59.392 18.496 114.496 50.048 159.808l1.152 1.6 0.896 1.28 0.832 1.088a8.064 8.064 0 0 1-1.408 10.944l-95.552 95.616a8 8 0 0 1-13.056-2.56L74.176 536.448a64 64 0 0 1 0-49.024l100.736-243.2a8 8 0 0 1 13.056-2.56z m661.12 2.56l100.736 243.264a64 64 0 0 1 0 49.024l-100.736 243.2a8 8 0 0 1-13.056 2.56l-95.68-95.616a8.064 8.064 0 0 1-1.28-10.88l0.96-1.28 0.64-0.832A278.72 278.72 0 0 0 791.936 512c0-58.752-18.112-113.28-49.024-158.336L741.76 352l-0.896-1.28-0.704-0.96-1.152-1.536a8.064 8.064 0 0 1 1.408-11.008l95.552-95.552a8 8 0 0 1 13.056 2.56zM473.6 312.064a9.472 9.472 0 0 1 14.848-6.208l3.904 2.88c48.448 36.032 82.944 75.712 103.552 119.04l0.64 1.344 2.496-3.648 2.624-3.904 3.2-4.608 3.264-4.864 2.176-3.136 0.576-0.768 0.576-0.832 0.512-0.768a7.424 7.424 0 0 1 11.968-0.64l0.128 0.256 3.072 4.096c27.648 38.4 48.768 86.4 48.768 156.8 0 56.32-44.48 108.16-98.752 132.48l-1.664 0.768-0.192 0.064-2.944 1.024-0.32 0.064a7.168 7.168 0 0 1-8.64-9.408l0.128-0.32 0.128-0.32 0.384-0.704a64 64 0 0 0 5.696-27.328c0-14.976-3.008-26.56-11.2-41.792l-0.448-0.832-0.832-1.472-0.384-0.704-0.64-1.152-0.384-0.64-0.64-1.152-1.088-1.92-0.768-1.152-0.768-1.28-0.768-1.28-0.96-1.472-0.896-1.472-0.96-1.472-0.96-1.536-0.512-0.768-2.048-3.136-7.104-10.88-1.536-2.24-0.96-1.472-0.96-1.472-1.344-2.112-0.896-1.408-0.896-1.408-0.896-1.344-0.832-1.344-0.832-1.344-1.216-1.984-1.152-1.92-0.768-1.28-0.768-1.28-0.768-1.28-0.64-1.28-0.96-1.536-1.216-2.176-0.64-1.216-1.024-1.856-0.64-1.216-0.64-1.216-0.64-1.216-0.64-1.216-0.96-1.856-0.64-1.216-0.896-1.92-0.384-0.64-1.536 1.408a236.032 236.032 0 0 0-23.232 24.128c-22.72 27.52-34.624 56.512-34.624 88.96a62.72 62.72 0 0 0 6.848 29.76l0.32 0.512 0.384 0.64 0.128 0.32a6.464 6.464 0 0 1-7.68 9.088l-0.32-0.064-1.344-0.512-1.856-0.704c-56-21.824-102.72-72.128-102.72-135.424 0-33.92 10.432-60.352 25.344-83.968l1.024-1.6 2.048-3.136 1.024-1.536 1.6-2.368 1.152-1.6 0.512-0.832 0.64-0.768 1.152-1.664 0.512-0.832 1.536-2.048 1.536-2.112 0.832-1.024 0.768-1.088 1.6-2.048 1.6-2.048 1.984-2.56 2.048-2.56 1.6-2.112 1.664-1.984 1.664-2.048 2.56-3.2 1.792-2.112 6.4-7.808 1.792-2.176 1.728-2.112 1.536-1.92 2.304-2.816 2.368-2.88 2.24-2.944 1.536-1.92 1.536-1.92 1.536-1.92 1.472-2.048 0.768-0.96 1.472-1.984 1.472-1.984 1.472-2.048 0.704-0.96 1.472-2.048 0.512-0.704 0.96-1.472 1.024-1.472 1.28-1.856 1.216-1.856 0.512-0.704 0.96-1.536 1.216-1.856 0.192-0.384 0.96-1.536 0.96-1.472 0.448-0.768 0.448-0.768 0.96-1.536c11.52-19.648 20.608-41.728 24.384-68.416l0.192-1.28 0.192-1.344V312zM536.576 74.24l243.2 100.736a8 8 0 0 1 2.56 13.056l-95.808 95.808a8 8 0 0 1-10.688 1.152l-1.152-0.896-0.512-0.384A278.72 278.72 0 0 0 512 232c-59.264 0-114.24 18.432-159.488 49.792l-1.6 1.152-1.6 1.152-1.088 0.832a8.064 8.064 0 0 1-10.88-1.28l-95.68-95.744a8 8 0 0 1 2.56-13.056L487.488 74.112a64 64 0 0 1 49.024 0z" p-id="5487"></path></svg>