<?xml version="1.0" standalone="no"?><!DOCTYPE svg PUBLIC "-//W3C//DTD SVG 1.1//EN" "http://www.w3.org/Graphics/SVG/1.1/DTD/svg11.dtd"><svg t="1648661856547" class="icon" viewBox="0 0 1024 1024" version="1.1" xmlns="http://www.w3.org/2000/svg" p-id="22834" xmlns:xlink="http://www.w3.org/1999/xlink" width="200" height="200"><defs><style type="text/css">@font-face { font-family: feedback-iconfont; src: url("//at.alicdn.com/t/font_1031158_u69w8yhxdu.woff2?t=1630033759944") format("woff2"), url("//at.alicdn.com/t/font_1031158_u69w8yhxdu.woff?t=1630033759944") format("woff"), url("//at.alicdn.com/t/font_1031158_u69w8yhxdu.ttf?t=1630033759944") format("truetype"); }
</style></defs><path d="M809.984 279.8592h-45.7728a260.7104 260.7104 0 0 0-180.4288-185.6V71.68a7.168 7.168 0 0 0-7.168-7.168H447.3856a7.168 7.168 0 0 0-7.168 7.168v22.5792a260.7616 260.7616 0 0 0-180.4288 185.6H214.016a7.168 7.168 0 0 0-7.168 7.168v50.2784a7.168 7.168 0 0 0 7.168 7.168h595.968a7.168 7.168 0 0 0 7.168-7.168v-50.2272a7.168 7.168 0 0 0-7.168-7.168z m-0.8192 206.1312h-37.1712v-105.472H252.0064v105.472l-40.3456 1.6896a7.9872 7.9872 0 0 0-7.9872 7.9872v144.0256c0 4.4032 3.584 7.9872 7.9872 7.9872l40.3456-1.6896v242.0224H180.0192a7.9872 7.9872 0 0 0-8.0384 7.9872v56.0128c0 4.4032 3.584 7.9872 8.0384 7.9872h663.9616c4.4544 0 8.0384-3.584 8.0384-7.9872V896a7.9872 7.9872 0 0 0-8.0384-7.9872h-71.9872v-242.0224h37.1712c4.4032 0 7.9872-3.584 7.9872-7.9872V493.9776a7.9872 7.9872 0 0 0-7.9872-7.9872zM512 684.544a120.0128 120.0128 0 1 1 0-240.0256 120.0128 120.0128 0 0 1 0 240.0256z m0-54.016a66.048 66.048 0 1 1 0-131.9936 66.048 66.048 0 0 1 0 131.9936z" p-id="22835"></path></svg>