<?xml version="1.0" standalone="no"?><!DOCTYPE svg PUBLIC "-//W3C//DTD SVG 1.1//EN" "http://www.w3.org/Graphics/SVG/1.1/DTD/svg11.dtd"><svg t="1678076769539" class="icon" viewBox="0 0 1024 1024" version="1.1" xmlns="http://www.w3.org/2000/svg" p-id="766" xmlns:xlink="http://www.w3.org/1999/xlink" width="200" height="200"><path d="M512 64a216 216 0 0 1 216 212.48V304h32c4.416 0 8 3.584 8 8v56a8 8 0 0 1-8 8h-76.032v28.032a171.52 171.52 0 0 1-53.44 124.608l-0.96 0.896 4.8 1.536a400.192 400.192 0 0 1 277.376 366.592l0.128 5.376v0.832a8 8 0 0 1-7.616 8.128H536V661.76a16 16 0 0 1 7.424-13.44l74.24-46.912A327.616 327.616 0 0 0 512 584c-36.992 0-72.512 6.144-105.664 17.408l74.24 46.848A16 16 0 0 1 488 661.824V912H120a7.936 7.936 0 0 1-7.936-7.68v-0.384a400.192 400.192 0 0 1 277.504-372.864l4.864-1.536-0.96-0.896a171.52 171.52 0 0 1-53.44-124.608V376H264a8 8 0 0 1-8-8v-56c0-4.416 3.584-8 8-8h32v-24A216 216 0 0 1 508.48 64H512z m-96 688H272a8 8 0 0 0-8 7.744V800c0 4.352 3.456 7.872 7.744 8H416a8 8 0 0 0 8-7.744V760a8 8 0 0 0-7.744-8H416z m336 0H608a8 8 0 0 0-8 7.744V800c0 4.352 3.456 7.872 7.744 8H752a8 8 0 0 0 8-7.744V760a8 8 0 0 0-7.744-8H752zM619.968 376H404.032v28.032C404.032 463.616 452.288 512 512 512h1.792a108.032 108.032 0 0 0 106.24-108.032V376zM512 192a43.968 43.968 0 1 0 0 88 43.968 43.968 0 0 0 0-88z" p-id="767"></path></svg>