<?xml version="1.0" standalone="no"?><!DOCTYPE svg PUBLIC "-//W3C//DTD SVG 1.1//EN" "http://www.w3.org/Graphics/SVG/1.1/DTD/svg11.dtd"><svg t="1677649509374" class="icon" viewBox="0 0 1024 1024" version="1.1" xmlns="http://www.w3.org/2000/svg" p-id="3180" xmlns:xlink="http://www.w3.org/1999/xlink" width="200" height="200"><path d="M442.688 68.032l2.752 1.984c117.632 82.752 200.128 174.72 247.552 275.968l5.376-7.936 5.76-8.32 6.72-9.92 7.168-10.432 8.384-12.16 6.4-9.28a8 8 0 0 1 12.928-0.32l2.24 2.88C812.8 375.68 864 482.304 864 643.008c0 128.64-107.392 246.08-233.408 294.08l-1.216 0.448-1.28 0.448-1.28 0.512-1.28 0.448-2.176 0.768-1.472 0.448-1.536 0.576a8 8 0 0 1-8.768-12.672 65.26 65.26 0 0 0 4.736-6.464c12.16-19.392 18.88-43.52 18.88-71.104 0-34.304-7.232-60.288-27.52-96.32l-1.408-2.56-0.704-1.28-1.536-2.56-0.768-1.28-1.536-2.624-1.6-2.688a590.848 590.848 0 0 0-1.664-2.752l-1.728-2.752-1.92-3.072-1.984-3.2-2.048-3.2-2.112-3.264-1.088-1.664-4.416-6.784-15.36-23.296-3.2-4.864-2.112-3.2-1.984-3.2-3.008-4.608-1.92-3.008-1.92-3.008-1.856-2.944-1.792-2.944-1.792-2.816-2.624-4.288-2.56-4.16-1.664-2.816-1.6-2.688-1.6-2.752-1.6-2.688-1.92-3.328-1.92-3.328-0.64-1.28-1.536-2.688-0.704-1.28-1.472-2.688-1.408-2.624-1.408-2.624-1.344-2.624a537.856 537.856 0 0 1-1.408-2.624l-1.28-2.688-0.704-1.28-1.344-2.688-0.64-1.28-1.28-2.688-0.768-1.536-0.256 0.256a512.192 512.192 0 0 0-53.12 54.784C414.4 718.144 388.8 780.608 388.8 850.496c0 25.6 5.76 48.128 16.256 66.752 2.24 3.904 5.44 8.32 9.6 13.056a8 8 0 0 1-8.32 12.928l-1.664-0.512-2.432-0.768-1.472-0.448-1.472-0.448-1.472-0.448-1.344-0.448-1.664-0.64-1.6-0.512-1.152-0.384C266.624 894.016 160 783.296 160 642.944c0-113.024 53.824-187.264 113.6-260.48l3.776-4.608 3.84-4.672 13.76-16.768 3.776-4.608 3.776-4.608c59.264-72.512 116.736-149.952 127.232-268.16l0.256-3.584v-0.96a8 8 0 0 1 12.672-6.4z" p-id="3181"></path></svg>