<?xml version="1.0" standalone="no"?><!DOCTYPE svg PUBLIC "-//W3C//DTD SVG 1.1//EN" "http://www.w3.org/Graphics/SVG/1.1/DTD/svg11.dtd"><svg t="1678079127461" class="icon" viewBox="0 0 1024 1024" version="1.1" xmlns="http://www.w3.org/2000/svg" p-id="2758" xmlns:xlink="http://www.w3.org/1999/xlink" width="200" height="200"><path d="M511.552 120H512a31.616 31.616 0 0 1 27.52 15.616L955.712 856a32 32 0 0 1-27.264 48H96a32 32 0 0 1-27.968-47.552l0.256-0.448 416-720a31.488 31.488 0 0 1 27.264-16zM489.6 435.008a7.488 7.488 0 0 0-8.32 6.272v0.32a153.216 153.216 0 0 1-28.992 70.784l-1.152 1.6a268.8 268.8 0 0 1-0.64 0.768l-1.088 1.6-1.216 1.6-1.152 1.6a332.8 332.8 0 0 1-0.64 0.768l-1.152 1.536-1.216 1.6-1.216 1.536-1.216 1.536-1.792 2.304-1.856 2.304-1.856 2.24-1.28 1.536-1.28 1.664-1.472 1.728-5.12 6.208-1.344 1.728-2.048 2.496-1.28 1.6-1.344 1.664-1.28 1.6-1.344 1.664a443.776 443.776 0 0 0-0.64 0.768l-1.28 1.664-1.28 1.664-1.28 1.6a309.504 309.504 0 0 0-1.28 1.664l-1.216 1.664-1.216 1.664c-15.744 21.76-27.84 45.632-27.84 78.208 0 50.304 37.12 90.304 81.664 107.648l1.472 0.64 1.088 0.32a5.12 5.12 0 0 0 6.4-7.168l-0.128-0.192-0.32-0.512a49.664 49.664 0 0 1-5.76-24.128c0-25.792 9.536-48.896 27.584-70.72 5.568-6.656 11.712-12.992 18.56-19.2l1.152-1.088 0.32 0.512 0.704 1.472 0.512 1.024 0.704 1.472 0.512 0.96 0.512 0.96 0.512 0.96 0.512 0.96 0.832 1.472 0.512 0.96 1.024 1.728 0.64 1.28 0.64 0.96 0.576 1.024 0.64 1.024 0.576 0.96 0.96 1.6 0.96 1.536 0.64 1.088 0.64 1.088 0.704 1.088 0.704 1.088 0.704 1.088 1.152 1.728 0.704 1.152 0.768 1.216 1.216 1.792 5.632 8.576 1.664 2.56 0.384 0.576 0.768 1.216 0.768 1.152 0.768 1.216 0.64 1.152 0.64 1.024 0.64 0.96 0.64 1.024 0.832 1.408 0.576 0.96 0.256 0.512 0.512 0.896c7.488 13.312 10.176 22.912 10.176 35.584a50.88 50.88 0 0 1-4.48 21.76l-0.32 0.576-0.128 0.256a5.696 5.696 0 0 0 6.784 7.68h0.256l2.368-0.832h0.064c43.84-19.2 79.936-60.8 79.936-106.048 0-55.936-16.832-94.144-38.784-124.672l-0.576-1.088-0.384-0.448a7.68 7.68 0 0 0-12.224 0.128l-0.128 0.192-1.728 2.56-2.688 3.84-2.496 3.648-2.112 3.072-1.92 2.944c-16.384-34.88-44.032-66.816-82.88-95.744a391.488 391.488 0 0 0-3.136-2.304 7.488 7.488 0 0 0-3.52-1.344z" p-id="2759"></path></svg>