<?xml version="1.0" standalone="no"?><!DOCTYPE svg PUBLIC "-//W3C//DTD SVG 1.1//EN" "http://www.w3.org/Graphics/SVG/1.1/DTD/svg11.dtd"><svg t="1655115520757" class="icon" viewBox="0 0 1024 1024" version="1.1" xmlns="http://www.w3.org/2000/svg" p-id="55904" xmlns:xlink="http://www.w3.org/1999/xlink" width="200" height="200"><defs><style type="text/css">@font-face { font-family: feedback-iconfont; src: url("//at.alicdn.com/t/font_1031158_u69w8yhxdu.woff2?t=1630033759944") format("woff2"), url("//at.alicdn.com/t/font_1031158_u69w8yhxdu.woff?t=1630033759944") format("woff"), url("//at.alicdn.com/t/font_1031158_u69w8yhxdu.ttf?t=1630033759944") format("truetype"); }
</style></defs><path d="M832 64h-640a32 32 0 0 0-32 32v855.978667c0 4.437333 3.584 8.021333 8.021333 8.021333h687.957334a8.021333 8.021333 0 0 0 8.021333-8.021333V96A32 32 0 0 0 832 64z m-599.978667 80.042667c0-4.437333 3.584-8.021333 8.021334-8.021334h237.994666c4.352 0 7.936 3.584 7.936 7.936v250.026667H232.106667v-250.026667z m0 471.893333V450.048h253.952V616.106667a8.021333 8.021333 0 0 1-7.936 7.936h-238.08a8.021333 8.021333 0 0 1-7.936-7.936zM560.042667 764.586667a8.021333 8.021333 0 0 1-8.021334 8.021333H471.893333a8.021333 8.021333 0 0 1-7.936-8.021333v-55.978667c0-4.437333 3.498667-8.021333 7.936-8.021333h80.042667c4.437333 0 7.936 3.584 7.936 8.021333v55.978667z m231.936-148.48a8.021333 8.021333 0 0 1-8.021334 7.936H546.048a8.021333 8.021333 0 0 1-7.936-7.936V449.962667H791.893333V616.106667z m0-222.037334H538.026667v-250.026666c0-4.352 3.584-7.936 7.936-7.936h238.08c4.352 0 7.936 3.584 7.936 7.936v250.026666z" p-id="55905"></path></svg>