<?xml version="1.0" standalone="no"?><!DOCTYPE svg PUBLIC "-//W3C//DTD SVG 1.1//EN" "http://www.w3.org/Graphics/SVG/1.1/DTD/svg11.dtd"><svg t="1655177099697" class="icon" viewBox="0 0 1025 1024" version="1.1" xmlns="http://www.w3.org/2000/svg" p-id="22690" xmlns:xlink="http://www.w3.org/1999/xlink" width="200.1953125" height="200"><defs><style type="text/css">@font-face { font-family: feedback-iconfont; src: url("//at.alicdn.com/t/font_1031158_u69w8yhxdu.woff2?t=1630033759944") format("woff2"), url("//at.alicdn.com/t/font_1031158_u69w8yhxdu.woff?t=1630033759944") format("woff"), url("//at.alicdn.com/t/font_1031158_u69w8yhxdu.ttf?t=1630033759944") format("truetype"); }
</style></defs><path d="M709.534 554.547c63.798 0 122.749 34.035 154.648 89.285 31.898 55.25 31.898 123.322 0 178.572-31.9 55.25-90.85 89.285-154.648 89.285-98.622 0-178.571-79.949-178.571-178.571s79.949-178.571 178.571-178.571zM732.826 112v397.143c-110.48-11.471-212.833 59.296-241.118 166.708l-0.745 2.92h-23.106a7.764 7.764 0 0 0-7.764 7.515v124.472c0 4.223 3.354 7.64 7.516 7.764h33.54c10.683 26.087 26.211 49.751 45.342 69.876H266.988V112h465.838z m-520.186 0v776.398h-62.112c-8.576 0-15.528-6.953-15.528-15.528V127.528c0-8.576 6.952-15.528 15.528-15.528h62.112z m496.894 496.894c-68.607 0-124.223 55.617-124.223 124.224s55.616 124.224 124.223 124.224 124.224-55.617 124.224-124.224-55.617-124.224-124.224-124.224z m69.876 100.932a7.767 7.767 0 0 1 7.764 7.764v31.056a7.764 7.764 0 0 1-7.764 7.764H639.658a7.764 7.764 0 0 1-7.764-7.764V717.59a7.767 7.767 0 0 1 7.764-7.764H779.41zM849.286 112c8.576 0 15.528 6.952 15.528 15.528v442.547a225.217 225.217 0 0 0-77.64-48.386V112h62.112zM522.205 430.323h-54.348a7.764 7.764 0 0 0-7.764 7.516V562.31c0 4.223 3.354 7.64 7.516 7.764h54.596a7.764 7.764 0 0 0 7.764-7.516V438.087a7.764 7.764 0 0 0-7.453-7.764h-0.311z m0-248.447h-54.348a7.764 7.764 0 0 0-7.764 7.515v124.472c0 4.224 3.354 7.64 7.516 7.764h54.596a7.764 7.764 0 0 0 7.764-7.515V189.64a7.764 7.764 0 0 0-7.453-7.764h-0.311z" p-id="22691"></path></svg>