<?xml version="1.0" standalone="no"?><!DOCTYPE svg PUBLIC "-//W3C//DTD SVG 1.1//EN" "http://www.w3.org/Graphics/SVG/1.1/DTD/svg11.dtd"><svg t="1655115543155" class="icon" viewBox="0 0 1024 1024" version="1.1" xmlns="http://www.w3.org/2000/svg" p-id="56048" xmlns:xlink="http://www.w3.org/1999/xlink" width="200" height="200"><defs><style type="text/css">@font-face { font-family: feedback-iconfont; src: url("//at.alicdn.com/t/font_1031158_u69w8yhxdu.woff2?t=1630033759944") format("woff2"), url("//at.alicdn.com/t/font_1031158_u69w8yhxdu.woff?t=1630033759944") format("woff"), url("//at.alicdn.com/t/font_1031158_u69w8yhxdu.ttf?t=1630033759944") format("truetype"); }
</style></defs><path d="M530.432 709.376c-14.421333-11.093333-32.853333-25.514667-40.96-52.053333-3.925333 3.157333-7.68 6.485333-11.349333 9.898666-13.312 12.8-29.098667 32.170667-29.098667 52.309334 0 43.605333 20.394667 72.533333 21.162667 73.642666a38.4 38.4 0 0 0 53.077333 7.850667l17.664-12.714667c1.28-1.28 12.032-13.312 12.032-47.957333 0-12.885333-7.253333-19.2-22.528-30.976z" p-id="56049"></path><path d="M951.722667 852.48L540.245333 139.52a32 32 0 0 0-55.466666 0L73.216 852.394667a32 32 0 0 0 27.733333 48.042666h823.125334c24.576 0 40.021333-26.709333 27.648-48.042666zM606.72 791.210667c-18.261333 10.837333-38.058667 18.773333-58.794667 23.381333l-41.386666 6.826667c-13.653333 2.304-27.562667 1.194667-40.618667-3.072l-8.362667-2.730667a183.466667 183.466667 0 0 1-50.005333-27.392c-33.536-25.941333-51.285333-59.733333-51.285333-97.877333 0-19.797333 5.973333-40.618667 18.176-63.488 10.410667-19.541333 23.893333-38.144 38.144-57.856 29.525333-40.96 59.989333-83.2 59.989333-131.584v-21.418667s43.690667 26.88 64.426667 50.176c31.061333 34.901333 28.245333 67.754667 30.464 83.029333l16.981333-31.402666s39.850667 36.693333 54.357333 62.122666c8.533333 14.848 15.189333 30.72 19.968 47.104 5.973333 20.906667 9.045333 42.496 8.96 64.256 0 41.301333-21.077333 75.946667-61.013333 99.925334z" p-id="56050"></path></svg>