<?xml version="1.0" standalone="no"?><!DOCTYPE svg PUBLIC "-//W3C//DTD SVG 1.1//EN" "http://www.w3.org/Graphics/SVG/1.1/DTD/svg11.dtd"><svg t="1658902546356" class="icon" viewBox="0 0 1024 1024" version="1.1" xmlns="http://www.w3.org/2000/svg" p-id="22802" xmlns:xlink="http://www.w3.org/1999/xlink" width="200" height="200"><defs><style type="text/css">@font-face { font-family: feedback-iconfont; src: url("//at.alicdn.com/t/font_1031158_u69w8yhxdu.woff2?t=1630033759944") format("woff2"), url("//at.alicdn.com/t/font_1031158_u69w8yhxdu.woff?t=1630033759944") format("woff"), url("//at.alicdn.com/t/font_1031158_u69w8yhxdu.ttf?t=1630033759944") format("truetype"); }
</style></defs><path d="M886.08 480.448l59.392 29.44a8 8 0 0 1 0 14.4l-431.936 212.224a16 16 0 0 1-14.272-0.064L78.144 524.16a8 8 0 0 1-0.064-14.272l57.728-29.376a16 16 0 0 1 14.4 0l356.224 179.392 365.44-179.584a16 16 0 0 1 14.208 0v0.128z m0 206.016l59.392 29.44a8 8 0 0 1 0 14.4l-431.936 212.224a16 16 0 0 1-14.272-0.064l-421.12-212.288a8 8 0 0 1-0.064-14.272l57.728-29.44a16 16 0 0 1 14.4 0l356.224 179.456 365.44-179.584a16 16 0 0 1 14.208 0v0.128z m59.392-390.528a8 8 0 0 1 0 14.336L513.536 522.496a16 16 0 0 1-14.272-0.064l-421.12-212.224a8 8 0 0 1-0.064-14.272L499.2 81.664a16 16 0 0 1 14.4-0.064l431.872 214.336z" p-id="22803"></path></svg>