<?xml version="1.0" standalone="no"?><!DOCTYPE svg PUBLIC "-//W3C//DTD SVG 1.1//EN" "http://www.w3.org/Graphics/SVG/1.1/DTD/svg11.dtd"><svg t="1658236000472" class="icon" viewBox="0 0 1024 1024" version="1.1" xmlns="http://www.w3.org/2000/svg" p-id="31945" xmlns:xlink="http://www.w3.org/1999/xlink" width="200" height="200"><defs><style type="text/css">@font-face { font-family: feedback-iconfont; src: url("//at.alicdn.com/t/font_1031158_u69w8yhxdu.woff2?t=1630033759944") format("woff2"), url("//at.alicdn.com/t/font_1031158_u69w8yhxdu.woff?t=1630033759944") format("woff"), url("//at.alicdn.com/t/font_1031158_u69w8yhxdu.ttf?t=1630033759944") format("truetype"); }
</style></defs><path d="M224.214 449.045c2.866 0 2.875-4.465 0-4.465s-2.884 4.465 0 4.465z m674.143 210.5a13.393 13.393 0 0 0-8.223 2.839l-56.25 43.16V628.42c0-11.312-9.17-20.482-20.482-20.482H553.964a20.482 20.482 0 0 0-20.482 20.482v259.473c0.015 11.301 9.18 20.455 20.482 20.455H813.43c11.301 0 20.467-9.154 20.482-20.455V810.75l56.25 43.152a13.393 13.393 0 0 0 8.214 2.84A13.598 13.598 0 0 0 912 843.124V673.161a13.598 13.598 0 0 0-13.643-13.616z m-260.384 5.535a7.143 7.143 0 0 1-7.143 7.143h-50a7.143 7.143 0 0 1-7.142-7.143v-14.285a7.143 7.143 0 0 1 7.142-7.143h50a7.143 7.143 0 0 1 7.143 7.143v14.285z m239.688 144.982L833.91 776.5v-36.705l43.75-33.58v103.847z" p-id="31946"></path><path d="M642.634 564.527H744.42l-154.965-202.33h45.161l-191.473-250-191.473 250h45.151l-154.964 202.33h101.786L112 736.393h298.848v164.893a7.143 7.143 0 0 0 7.143 7.143h50.259a7.143 7.143 0 0 0 7.143-7.143V736.393h30.687v-141.17c0-7.89 6.396-14.285 14.286-14.285H657.58l-14.946-16.411z m-244.179-81.098l-32.142 96.276a7.143 7.143 0 0 1-9.036 4.518l-13.545-4.518a7.143 7.143 0 0 1-4.518-9.035l32.143-96.286a7.143 7.143 0 0 1 9.036-4.509l13.553 4.518a7.143 7.143 0 0 1 4.51 9.036z m128.116-53.724l-13.544 4.518a7.143 7.143 0 0 1-9.063-4.536l-32.098-96.258a7.143 7.143 0 0 1 4.518-9.036l13.554-4.518a7.143 7.143 0 0 1 9.035 4.518l32.143 96.277a7.143 7.143 0 0 1-4.545 9.018v0.017z" p-id="31947"></path></svg>