<?xml version="1.0" standalone="no"?><!DOCTYPE svg PUBLIC "-//W3C//DTD SVG 1.1//EN" "http://www.w3.org/Graphics/SVG/1.1/DTD/svg11.dtd"><svg t="1658733716353" class="icon" viewBox="0 0 1024 1024" version="1.1" xmlns="http://www.w3.org/2000/svg" p-id="971" xmlns:xlink="http://www.w3.org/1999/xlink" width="200" height="200"><defs><style type="text/css">@font-face { font-family: feedback-iconfont; src: url("//at.alicdn.com/t/font_1031158_u69w8yhxdu.woff2?t=1630033759944") format("woff2"), url("//at.alicdn.com/t/font_1031158_u69w8yhxdu.woff?t=1630033759944") format("woff"), url("//at.alicdn.com/t/font_1031158_u69w8yhxdu.ttf?t=1630033759944") format("truetype"); }
</style></defs><path d="M877.67978667 164.58638222H166.55350518c-34.60058075 0-62.74465185 28.14407111-62.74465185 62.74465186v543.80316444c0 34.60058075 28.14407111 62.74465185 62.74465185 62.74465185h711.12628149c34.60058075 0 62.74465185-28.14407111 62.74465185-62.74465185V227.33103408c0-34.60058075-28.14407111-62.74465185-62.74465185-62.74465186zM480.28890073 624.72192l-68.87348147-68.87348148c-8.13131852-8.13131852-21.44483555-8.13131852-29.57615408 0L187.47647998 750.2112237V248.24187259H856.76894815L480.28890073 624.72192z" p-id="972"></path><path d="M272.46530369 394.65415111a62.74465185 62.74465185 0 1 0 125.48930371 0 62.74465185 62.74465185 0 1 0-125.48930371 0z" p-id="973"></path></svg>