<?xml version="1.0" standalone="no"?><!DOCTYPE svg PUBLIC "-//W3C//DTD SVG 1.1//EN" "http://www.w3.org/Graphics/SVG/1.1/DTD/svg11.dtd"><svg t="1709114288888" class="icon" viewBox="0 0 1024 1024" version="1.1" xmlns="http://www.w3.org/2000/svg" p-id="1381" xmlns:xlink="http://www.w3.org/1999/xlink" width="200" height="200"><path d="M526.72 119.616v0.064l392 203.392A32 32 0 0 1 936 351.424V872a16 16 0 0 1-16 16H104a16 16 0 0 1-16-16V351.424a32 32 0 0 1 17.28-28.352l392-203.456a32 32 0 0 1 29.44 0z m107.52 235.392H389.824a16 16 0 0 0-12.672 6.208l-1.92 3.2-48.704 108.544-13.056-13.12a8 8 0 0 0-9.664-1.28l-1.664 1.28-28.288 28.288a8 8 0 0 0-1.28 9.664l1.28 1.664 28.16 28.096-2.048 4.416v121.728L168 749.376V808h28.16l103.808-75.2v3.2a16 16 0 0 0 12.352 15.552l3.648 0.448H352a16 16 0 0 0 15.552-12.352L368 736v-24h288v24a16 16 0 0 0 12.352 15.552L672 752h35.968a16 16 0 0 0 15.552-12.352l0.448-3.648v-3.2L827.712 808H856v-58.624l-131.968-95.68V532.032l-1.984-4.416 28.16-28.16a8 8 0 0 0 1.28-9.664l-1.28-1.664-28.288-28.288a8 8 0 0 0-9.664-1.28l-1.664 1.28-13.056 13.12-48.704-108.544a16 16 0 0 0-14.592-9.408z m24.064 187.008l1.664 3.712V648h-296V545.728l1.728-3.712h292.608z m-234.304 24a32 32 0 1 0 0 64 32 32 0 0 0 0-64z m176 0a32 32 0 1 0 0 64 32 32 0 0 0 0-64z m3.072-147.008l30.08 67.008H390.848l30.08-67.008h182.144z" p-id="1382"></path></svg>