<?xml version="1.0" standalone="no"?><!DOCTYPE svg PUBLIC "-//W3C//DTD SVG 1.1//EN" "http://www.w3.org/Graphics/SVG/1.1/DTD/svg11.dtd"><svg t="1678070720312" class="icon" viewBox="0 0 1024 1024" version="1.1" xmlns="http://www.w3.org/2000/svg" p-id="2538" xmlns:xlink="http://www.w3.org/1999/xlink" width="200" height="200"><path d="M584 113.024a32 32 0 0 1 32 32v307.712c0 2.688 1.28 5.12 3.584 6.656l24.384 16.256c1.28 0.896 2.88 1.344 4.48 1.344H680c37.12 0 67.392 29.824 67.968 66.88V840H840V484.736a8 8 0 0 0-4.096-7.04l-52.48-29.12a100.032 100.032 0 0 1-51.392-87.424v-112.32a8 8 0 0 0-4.16-7.04l-41.92-23.232a54.4 54.4 0 0 1-27.968-47.552 18.816 18.816 0 0 1 27.968-16.448l56.832 31.552a8 8 0 0 1 1.088 0.512l116.672 64.832c30.912 17.152 50.432 49.28 51.392 84.544H912v508.032c0 37.12-29.824 67.328-66.88 67.968H744c-37.12 0-67.392-29.824-67.968-66.88V548.992h-27.584a8 8 0 0 0-4.48 1.344l-24.384 16.32a8 8 0 0 0-3.584 6.656V880a32 32 0 0 1-32 32H144a32 32 0 0 1-32-32V145.024a32 32 0 0 1 32-32h440zM369.152 544.192a7.168 7.168 0 0 0-10.496 0.192c-55.04 60.8-82.688 112.768-82.688 155.776a88 88 0 0 0 176 0c0-42.56-27.008-93.888-81.024-153.984l-1.6-1.792-0.192-0.192zM528 193.024H200a8 8 0 0 0-8 7.68v216.32c0 4.288 3.456 7.872 7.744 8H528a8 8 0 0 0 8-7.744V200.96a8 8 0 0 0-7.744-8H528z" p-id="2539"></path></svg>