<?xml version="1.0" standalone="no"?><!DOCTYPE svg PUBLIC "-//W3C//DTD SVG 1.1//EN" "http://www.w3.org/Graphics/SVG/1.1/DTD/svg11.dtd"><svg t="1677651814481" class="icon" viewBox="0 0 1024 1024" version="1.1" xmlns="http://www.w3.org/2000/svg" p-id="1030" xmlns:xlink="http://www.w3.org/1999/xlink" width="200" height="200"><path d="M271.936 64h64a16 16 0 0 1 16 16v80H808a32 32 0 0 1 32 32v736a32 32 0 0 1-32 32H216a32 32 0 0 1-32-32V192a32 32 0 0 1 32-32h39.936V80a16 16 0 0 1 16-16z m148.096 784a32 32 0 1 0 64 0 32 32 0 0 0-64 0z m120 0a32 32 0 1 0 64 0 32 32 0 0 0-64 0z m-168-548.736c-47.36 53.568-47.168 158.72-27.008 200.768 20.48 42.88 44.16 131.84 20.608 197.376v0.128l-0.384 0.832a6.016 6.016 0 0 0 9.216 7.232l0.192-0.192 1.728-1.472c65.536-59.712 49.6-159.232 28.672-203.904-20.16-43.008-43.52-119.936-21.824-190.848v-0.192l0.448-1.024 0.512-1.28a7.232 7.232 0 0 0-12.16-7.424z m144 0c-47.36 53.568-47.168 158.72-27.008 200.768 20.48 42.88 44.16 131.84 20.608 197.376v0.128l-0.384 0.832a6.016 6.016 0 0 0 9.216 7.232l0.192-0.192 1.728-1.472c65.536-59.712 49.6-159.232 28.672-203.904-20.16-43.008-43.52-119.936-21.824-190.848v-0.192l0.448-1.024 0.512-1.28a7.232 7.232 0 0 0-12.16-7.424z m144 0c-47.36 53.568-47.168 158.72-27.008 200.768 20.48 42.88 44.16 131.84 20.608 197.376v0.128l-0.384 0.832a6.016 6.016 0 0 0 9.216 7.232l0.192-0.192 1.728-1.472c65.536-59.712 49.6-159.232 28.672-203.904-20.16-43.008-43.52-119.936-21.824-190.848v-0.192l0.448-1.024 0.512-1.28a7.232 7.232 0 0 0-12.16-7.424z" p-id="1031"></path></svg>