<?xml version="1.0" standalone="no"?><!DOCTYPE svg PUBLIC "-//W3C//DTD SVG 1.1//EN" "http://www.w3.org/Graphics/SVG/1.1/DTD/svg11.dtd"><svg t="1677650806611" class="icon" viewBox="0 0 1024 1024" version="1.1" xmlns="http://www.w3.org/2000/svg" p-id="3785" xmlns:xlink="http://www.w3.org/1999/xlink" width="200" height="200"><path d="M928 512a32 32 0 0 1 32 31.488V880a32 32 0 0 1-31.488 32H96a32 32 0 0 1-32-31.488V544a32 32 0 0 1 31.488-32H928zM315.968 668.032h-87.936v87.936h88.064v-87.936z m160 0h-87.936v87.936h88v-87.936z m160 0h-87.936v87.936h87.936v-87.936z m160 0h-87.936v87.936h87.936v-87.936zM512 396.032a115.84 115.84 0 0 1 40.32 7.168l0.896 0.384 0.896 0.32 0.96 0.384 1.536 0.64 1.088 0.512 1.088 0.512a8 8 0 0 1 2.304 12.928l-43.456 43.52a8 8 0 0 1-11.072 0.128l-0.192-0.192-43.52-43.52a8 8 0 0 1 2.304-12.928l0.448-0.192 0.96-0.448 0.896-0.384 0.384-0.192 0.832-0.32c13.376-5.376 28.032-8.32 43.328-8.32zM512 232c58.24 0 112.384 17.792 157.248 48.256l1.024 0.768 0.768 0.512 1.216 0.832 1.28 0.96 1.792 1.28 1.984 1.472 2.112 1.6a8 8 0 0 1 0.896 12.032l-40.128 40.128a8 8 0 0 1-10.24 0.896l-1.92-1.344-1.408-0.96-1.28-0.832-1.088-0.768-1.088-0.64-0.32-0.192A207.04 207.04 0 0 0 512 304c-41.152 0-79.552 11.968-111.872 32.64l-0.96 0.64-1.024 0.64-1.536 1.024-2.112 1.472-0.448 0.32a8 8 0 0 1-10.24-0.96l-40.128-40.064a8 8 0 0 1 0.832-12.096l1.472-1.024 1.728-1.28 1.28-0.96 1.088-0.768 0.64-0.512 0.704-0.512A278.72 278.72 0 0 1 512 232z m0-168c106.752 0 204.8 37.376 281.792 99.712l1.6 1.28 2.304 1.92 1.664 1.408a8 8 0 0 1 0.512 11.776l-39.744 39.808a8 8 0 0 1-10.752 0.512l-2.304-1.92-2.112-1.664-1.856-1.472-1.28-0.96A374.4 374.4 0 0 0 512 136a374.4 374.4 0 0 0-229.376 78.08l-0.96 0.704-1.792 1.408-1.216 0.96-2.112 1.728-1.92 1.536a8 8 0 0 1-10.752-0.512l-39.744-39.808a8 8 0 0 1 0.512-11.776l2.88-2.368 2.56-2.176 2.304-1.792 1.28-1.088A446.08 446.08 0 0 1 512 64z" p-id="3786"></path></svg>