<?xml version="1.0" standalone="no"?><!DOCTYPE svg PUBLIC "-//W3C//DTD SVG 1.1//EN" "http://www.w3.org/Graphics/SVG/1.1/DTD/svg11.dtd"><svg t="1658729244103" class="icon" viewBox="0 0 1024 1024" version="1.1" xmlns="http://www.w3.org/2000/svg" p-id="23602" xmlns:xlink="http://www.w3.org/1999/xlink" width="200" height="200"><defs><style type="text/css">@font-face { font-family: feedback-iconfont; src: url("//at.alicdn.com/t/font_1031158_u69w8yhxdu.woff2?t=1630033759944") format("woff2"), url("//at.alicdn.com/t/font_1031158_u69w8yhxdu.woff?t=1630033759944") format("woff"), url("//at.alicdn.com/t/font_1031158_u69w8yhxdu.ttf?t=1630033759944") format("truetype"); }
</style></defs><path d="M922.496 340.096c0-35.882667-18.304-69.290667-48.384-88.789333l-164.010667-105.813334a23.04 23.04 0 0 0-35.584 19.413334v4.992c0 16.64 8.362667 32 22.4 41.002666l12.074667 7.68c20.906667 13.397333 33.493333 36.437333 33.493333 61.226667v84.309333c0 45.482667 36.906667 82.346667 82.432 82.346667 12.672 0 23.082667 10.325333 23.082667 23.125333v380.330667a40.661333 40.661333 0 0 1-40.704 40.661333h-28.416a22.357333 22.357333 0 0 1-22.4-22.4v-253.269333c0-51.029333-41.386667-92.416-92.373333-92.416h-18.005334a33.066667 33.066667 0 0 1-33.109333-33.109333V211.882667c0-40.490667-32.853333-73.386667-73.386667-73.386667H152.405333c-40.533333 0-73.386667 32.896-73.386666 73.386667v719.232c0 18.474667 14.976 33.365333 33.365333 33.365333h467.2a33.408 33.408 0 0 0 33.408-33.365333v-301.525334c0-18.304 14.805333-33.109333 33.109333-33.109333h2.304c18.304 0 33.109333 14.805333 33.109334 33.109333v284.416c0 27.904 22.613333 50.474667 50.474666 50.474667l147.114667 0.213333c24.192 0 43.904-19.626667 43.904-43.904l-0.512-580.693333zM450.56 612.48H240.512a20.053333 20.053333 0 0 1-20.010667-19.968v-56.021333a20.053333 20.053333 0 0 1 20.010667-20.010667h210.005333a20.053333 20.053333 0 0 1 19.968 20.053333v55.978667a20.053333 20.053333 0 0 1-19.968 19.968z m77.482667-203.946667a20.053333 20.053333 0 0 1-20.010667 19.968H183.978667a20.053333 20.053333 0 0 1-19.968-20.010666v-160a20.053333 20.053333 0 0 1 20.010666-20.010667h323.968a20.053333 20.053333 0 0 1 20.010667 20.053333v160z" p-id="23603"></path></svg>