<?xml version="1.0" standalone="no"?><!DOCTYPE svg PUBLIC "-//W3C//DTD SVG 1.1//EN" "http://www.w3.org/Graphics/SVG/1.1/DTD/svg11.dtd"><svg t="1678077155167" class="icon" viewBox="0 0 1024 1024" version="1.1" xmlns="http://www.w3.org/2000/svg" p-id="1259" xmlns:xlink="http://www.w3.org/1999/xlink" width="200" height="200"><path d="M243.776 504l1.408 2.944C255.36 527.68 267.392 548.032 281.28 568h-68.16l-46.016 272h689.92l-56-272h-58.368c13.504-19.456 25.344-39.36 35.328-59.584l1.408-2.88 0.768-1.536h44.352a32 32 0 0 1 30.592 22.4l75.968 336a32 32 0 0 1-30.528 41.6H123.52a32 32 0 0 1-30.528-41.6l65.984-336a32 32 0 0 1 30.528-22.4h54.272zM512 87.616A260.48 260.48 0 0 1 694.592 161.6c23.744 23.232 42.432 50.304 55.488 80.448a247.04 247.04 0 0 1 20.48 98.752c0 48.64-11.52 96.96-34.304 143.616l-0.64 1.408a457.984 457.984 0 0 1-77.184 109.952l-6.656 7.104-4.864 5.248-4.928 5.184-4.864 5.184-4.864 5.184-3.2 3.392-4.864 5.12-4.736 5.056-4.8 4.992-3.136 3.264-3.072 3.264-4.672 4.8-3.072 3.2-3.008 3.136-4.48 4.608-2.944 3.008-4.352 4.48-2.816 2.88-2.816 2.816-4.16 4.16-4.032 4.032-2.56 2.624-3.2 3.2-4.032 3.84-1.6 1.6-2.368 2.304-2.304 2.24-2.304 2.176-1.792 1.728-2.432 2.24-1.152 1.088-1.984 1.856-1.984 1.792-1.408 1.28-0.96 0.832-1.344 1.152-1.28 1.152-0.896 0.768-1.28 1.024-1.152 1.024-1.152 0.896-0.704 0.64-0.704 0.576-1.088 0.768-0.64 0.512-0.64 0.512-0.64 0.448-0.64 0.384-0.512 0.448-0.576 0.32-0.512 0.384-0.512 0.32-0.256 0.128a30.336 30.336 0 0 1-31.616-0.32l-0.512-0.256-0.512-0.384-0.64-0.448-0.704-0.512-0.64-0.448-0.64-0.448-0.576-0.448-0.96-0.768-0.704-0.512-0.704-0.64-1.088-0.832-1.536-1.28-1.152-1.024-1.28-1.024-0.832-0.768-1.28-1.088-1.28-1.216-0.96-0.832-1.92-1.664-0.896-0.896-1.472-1.344-2.048-1.92-2.048-1.92-2.112-2.048-1.088-1.024-2.304-2.176-2.368-2.304-2.368-2.304-3.328-3.2-1.664-1.728-2.56-2.56-2.624-2.56-3.328-3.328-3.392-3.456-2.752-2.816-4.224-4.288-2.88-2.944-2.944-2.944-2.944-3.008-2.944-3.072-3.008-3.136-3.008-3.136-4.608-4.736-4.608-4.864-4.736-4.928-3.136-3.328-3.2-3.328-6.336-6.72-3.2-3.392-6.4-6.848-6.4-6.848-4.864-5.12-6.72-7.232a459.264 459.264 0 0 1-77.12-110.016 328.512 328.512 0 0 1-34.816-145.088c0-34.24 6.848-67.456 20.416-98.752a252.8 252.8 0 0 1 55.488-80.448 258.88 258.88 0 0 1 82.176-54.08A261.76 261.76 0 0 1 512 87.616z m0 130.56a128 128 0 1 0 0 256 128 128 0 0 0 0-256z m0 55.936a72 72 0 1 1 0 144 72 72 0 0 1 0-144z" p-id="1260"></path></svg>