<?xml version="1.0" encoding="UTF-8"?>
<svg width="1024px" height="1024px" viewBox="0 0 1024 1024" version="1.1" xmlns="http://www.w3.org/2000/svg" xmlns:xlink="http://www.w3.org/1999/xlink">
    <title>地理位置_面性</title>
    <g id="页面1" stroke="none" stroke-width="1" fill="none" fill-rule="evenodd">
        <g id="地理位置_面性" fill="#000000" fill-rule="nonzero">
            <path d="M294.97553,647.999942 C303.283061,658.150681 312.044453,668.17708 321.248943,678.067011 C336.345473,694.272753 352.108495,709.584764 368.326656,724.000365 L257.411,724 L195.476,820 L828.523,820 L766.588,724 L655.519873,724.000934 C671.736141,709.587239 687.495662,694.278918 702.585354,678.080518 L703.866548,676.702616 C712.613677,667.267607 720.961245,657.695472 728.898397,647.999942 L799.281686,647.999942 C804.716655,647.999942 809.779989,650.758984 812.726432,655.32597 L952.081271,871.32597 C956.871805,878.751298 954.735883,888.654212 947.310555,893.444746 C944.725052,895.112812 941.713417,896 938.636525,896 L85.3634754,896 C76.5269194,896 69.3634754,888.836556 69.3634754,880 C69.3634754,876.923108 70.250663,873.911472 71.918729,871.32597 L211.273568,655.32597 C214.220011,650.758984 219.283345,647.999942 224.718314,647.999942 L294.97553,647.999942 Z M512,91.296875 C550.357813,91.296875 587.567188,98.646875 622.632813,113.19375 C656.55,127.204688 686.945313,147.1875 713.129688,172.759375 C739.314063,198.33125 759.909375,228.114062 774.303125,261.342187 C789.232813,295.795312 796.8125,332.392187 796.8125,370.060937 C796.8125,423.649328 784.130925,476.862524 759.064929,528.214755 L758.301563,529.770312 C737.859375,571.496875 709.301563,612.228125 673.317188,650.815625 C635.199781,691.733687 595.934581,722.792491 567.236152,743.061438 L564.492264,744.989235 C563.137207,745.93626 561.807775,746.857953 560.505295,747.754207 L557.936664,749.512768 C556.670709,750.375058 555.432592,751.21184 554.223638,752.023008 L551.845009,753.611161 L551.845009,753.611161 L549.54651,755.130823 C549.170235,755.378382 548.797397,755.62308 548.428046,755.864912 L546.254165,757.281486 L546.254165,757.281486 L544.166312,758.629101 L544.166312,758.629101 L542.166846,759.907568 L542.166846,759.907568 L540.258128,761.116702 L540.258128,761.116702 L538.442515,762.256313 L538.442515,762.256313 L536.722368,763.326216 L536.722368,763.326216 L535.100046,764.326221 L535.100046,764.326221 L533.577908,765.256143 L533.577908,765.256143 L531.487707,766.519207 L531.487707,766.519207 L530.226351,767.273099 L530.226351,767.273099 L529.073438,767.95625 L529.073438,767.95625 C523.790625,771.095312 517.895313,772.626562 511.923438,772.626562 C506.028125,772.626562 500.05625,771.095312 494.773438,767.95625 L493.620524,767.273099 L493.620524,767.273099 L492.359168,766.519207 L492.359168,766.519207 L490.268967,765.256143 L490.268967,765.256143 L488.746829,764.326221 L488.746829,764.326221 L487.124507,763.326216 L487.124507,763.326216 L485.40436,762.256313 L485.40436,762.256313 L483.588747,761.116702 L483.588747,761.116702 L481.680029,759.907568 L481.680029,759.907568 L479.680563,758.629101 L479.680563,758.629101 L477.59271,757.281486 L477.59271,757.281486 L475.418829,755.864912 L475.418829,755.864912 L473.161279,754.379565 C472.77818,754.126287 472.391692,753.870151 472.001866,753.611161 L469.623237,752.023008 C468.414283,751.21184 467.176166,750.375058 465.910211,749.512768 L463.34158,747.754207 C462.0391,746.857953 460.709668,745.93626 459.354611,744.989235 L456.610723,743.061438 C427.912294,722.792491 388.647094,691.733687 350.529688,650.815625 C314.545313,612.151562 285.9875,571.496875 265.545313,529.770312 C240.126563,477.860937 227.1875,424.0375 227.1875,369.984375 C227.1875,332.315625 234.767188,295.71875 249.696875,261.265625 C264.090625,228.114062 284.685938,198.254687 310.870313,172.682812 C337.054688,147.1875 367.45,127.128125 401.367188,113.117187 C436.432813,98.646875 473.642188,91.296875 512,91.296875 Z M512,224.109375 C428.054545,224.109375 360,292.16392 360,376.109375 C360,460.05483 428.054545,528.109375 512,528.109375 C595.945455,528.109375 664,460.05483 664,376.109375 C664,292.16392 595.945455,224.109375 512,224.109375 Z M512,290.359375 C534.892188,290.359375 556.40625,299.240625 572.6375,315.471875 C588.86875,331.703125 597.75,353.217188 597.75,376.109375 C597.75,399.001562 588.86875,420.515625 572.6375,436.746875 C556.40625,452.901562 534.892188,461.859375 512,461.859375 C489.107813,461.859375 467.59375,452.901562 451.3625,436.746875 C435.207813,420.515625 426.25,399.001562 426.25,376.109375 C426.25,353.217188 435.207813,331.703125 451.3625,315.471875 C467.59375,299.240625 489.107813,290.359375 512,290.359375 Z" id="形状"></path>
        </g>
    </g>
</svg>