<?xml version="1.0" standalone="no"?><!DOCTYPE svg PUBLIC "-//W3C//DTD SVG 1.1//EN" "http://www.w3.org/Graphics/SVG/1.1/DTD/svg11.dtd"><svg t="1678070760468" class="icon" viewBox="0 0 1024 1024" version="1.1" xmlns="http://www.w3.org/2000/svg" p-id="4248" xmlns:xlink="http://www.w3.org/1999/xlink" width="200" height="200"><path d="M162.816 112a7.939 7.939 0 0 1 7.168 4.48l0.128 0.256 53.44 118.272a8 8 0 0 1 0.576 1.728v0.32L271.36 540.16c0.384 2.368 1.792 4.48 3.84 5.632l0.256 0.192 109.696 59.584a8 8 0 0 1 1.28 0.896l0.32 0.256L540.48 748.672a8 8 0 0 0 3.2 1.792l0.32 0.064 190.08 47.36a8 8 0 0 1 1.408 0.448l0.384 0.192 123.84 65.536c2.56 1.28 4.16 3.904 4.288 6.784v33.216a8 8 0 0 1-7.744 8H120a8 8 0 0 1-8-7.744V120c0-4.352 3.456-7.872 7.744-8h43.136z m599.68 418.944a8 8 0 0 1 7.552-1.472l0.256 0.128 121.088 44.672a8 8 0 0 1 5.12 6.4v0.256l14.976 134.72a8 8 0 0 1-2.624 6.912l-0.256 0.192-78.592 64.32a8 8 0 0 1-10.88-0.64l-0.256-0.256-49.088-56.128a8 8 0 0 0-4.16-2.56h-0.32l-71.68-14.336a8 8 0 0 1-6.336-6.592v-0.256l-12.736-97.92a8 8 0 0 1 2.624-7.04l0.192-0.128 85.12-70.272z m-144.064 31.04c3.008 0 5.76 1.728 7.104 4.48l23.296 46.464a8 8 0 0 1-1.92 9.6L608.704 656a8 8 0 0 1-5.312 1.984h-62.848a8 8 0 0 1-7.168-4.416l-19.328-38.656a8 8 0 0 1-0.768-4.48l4.608-41.344a8 8 0 0 1 7.936-7.04h92.608zM392.32 415.104a8 8 0 0 1 5.056 1.024l0.256 0.128 52.672 33.28c1.088 0.64 1.92 1.6 2.624 2.688l0.128 0.32 23.296 43.712a8 8 0 0 1 0.896 4.736l-0.064 0.32-10.496 66.048a8 8 0 0 1-2.432 4.544l-0.256 0.256-25.344 21.888a8 8 0 0 1-7.04 1.792l-0.256-0.064-41.152-11.072a8 8 0 0 1-5.76-5.888v-0.256l-10.432-52.48a8 8 0 0 0-2.304-4.288l-0.256-0.192-38.656-33.984a8 8 0 0 1-2.56-7.232v-0.256l9.92-52.608a8 8 0 0 1 6.528-6.4h0.256l45.44-6.016z m209.6 22.912c3.072 0 5.76 1.728 7.168 4.416l19.712 39.424a8 8 0 0 1-1.92 9.6L594.304 520a8 8 0 0 1-5.248 1.984h-36.48a8 8 0 0 1-7.168-4.416l-16.512-32.96a8 8 0 0 1-0.832-4.48l3.904-35.008a8 8 0 0 1 7.936-7.104h62.08z m195.008-180.8l27.776 15.872a7.975 7.975 0 0 1 3.008 10.88l-44.864 78.976a8 8 0 0 1-10.944 2.944l-27.84-15.808a8 8 0 0 1-2.944-10.88l44.864-78.976a8 8 0 0 1 10.88-3.008z m-128 0l27.776 15.872a7.975 7.975 0 0 1 3.008 10.88l-44.864 78.976a8 8 0 0 1-10.944 2.944l-27.84-15.808a8 8 0 0 1-2.944-10.88l44.864-78.976a8 8 0 0 1 10.88-3.008z m-128 0l27.776 15.872a7.975 7.975 0 0 1 3.008 10.88l-44.864 78.976a8 8 0 0 1-10.944 2.944l-27.84-15.808a8 8 0 0 1-2.944-10.88l44.864-78.976a8 8 0 0 1 10.88-3.008zM339.968 280c3.008 0 5.76 1.728 7.104 4.48l19.776 39.424a8 8 0 0 1-1.92 9.6l-32.64 28.544a8 8 0 0 1-5.248 1.92h-36.48a8 8 0 0 1-7.168-4.416l-16.512-32.96a8 8 0 0 1-0.768-4.48l3.84-35.008a8 8 0 0 1 8-7.104h62.016z m536.128-161.92l27.84 15.808c3.84 2.24 5.12 7.04 2.944 10.88L862.72 222.4a8 8 0 0 1-10.88 3.008L824.064 209.6a8 8 0 0 1-3.008-10.88l44.16-77.632a8 8 0 0 1 10.88-3.008z m-128 0l27.84 15.808c3.84 2.24 5.12 7.04 2.944 10.88L734.72 222.4a8 8 0 0 1-10.88 3.008L696.064 209.6a8 8 0 0 1-3.008-10.88l44.16-77.632a8 8 0 0 1 10.88-3.008z m-128 0l27.84 15.808c3.84 2.24 5.12 7.04 2.944 10.88L606.72 222.4a8 8 0 0 1-10.88 3.008L568.064 209.6a8 8 0 0 1-3.008-10.88l44.16-77.632a8 8 0 0 1 10.88-3.008z" p-id="4249"></path></svg>