<?xml version="1.0" encoding="UTF-8"?>
<svg width="1024px" height="1024px" viewBox="0 0 1024 1024" version="1.1" xmlns="http://www.w3.org/2000/svg" xmlns:xlink="http://www.w3.org/1999/xlink">
    <title>高精度GIS_面性</title>
    <g id="页面1" stroke="none" stroke-width="1" fill="none" fill-rule="evenodd">
        <g id="高精度GIS_面性" fill="#000000">
            <path d="M512,56 C763.841846,56 968,260.158154 968,512 C968,763.841846 763.841846,968 512,968 C260.158154,968 56,763.841846 56,512 C56,260.158154 260.158154,56 512,56 Z M512,112 C291.0861,112 112,291.0861 112,512 C112,732.9139 291.0861,912 512,912 C732.9139,912 912,732.9139 912,512 C912,291.0861 732.9139,112 512,112 Z M341.128154,726.232741 C360.228016,781.974781 386.743065,827.710083 418.454581,858.24474 L419.417124,859.165374 L420.633435,860.303817 C360.836891,844.661084 307.103957,814.027348 263.691636,772.659609 L263.693956,772.646875 C287.165531,754.492112 313.151188,738.861202 341.128154,726.232741 Z M682.868366,726.240405 C710.848419,738.860954 736.834396,754.492032 760.306232,772.64702 L758.622474,774.255822 C715.5084,814.815296 662.392018,844.86262 603.367563,860.303556 C636.044443,829.789646 663.336711,783.245134 682.868366,726.240405 Z M535.499613,690.639062 C574.037761,692.741373 611.000747,699.979312 645.557251,711.591299 C639.303685,730.06634 632.167759,747.373713 624.219104,763.271024 C599.033932,813.641367 567.8559,845.654075 535.499613,856.178677 L535.499613,690.639062 Z M487.50018,690.694767 L487.50018,855.846141 C455.50154,844.991706 424.706285,813.121801 399.780896,763.271024 C391.832384,747.374 384.696572,730.066964 378.446067,711.60197 L378.441748,711.591635 C412.69964,700.079892 449.322618,692.866932 487.50018,690.694767 Z M871.453667,532.001216 C867.056212,612.298579 836.345769,685.586247 787.797686,743.390677 L787.799143,743.376082 C760.185178,721.616322 729.402113,703.073617 696.168289,688.384594 L694.478333,687.641183 L694.932187,685.902053 C707.028434,639.113545 714.314011,586.99495 715.74113,532.001216 L871.453667,532.001216 Z M308.25887,532.001216 C309.703828,587.682372 317.154621,640.416061 329.522634,687.654118 L324.984943,689.654956 C292.838862,704.137392 263.024691,722.238944 236.200857,743.376082 L236.201472,743.389675 C187.653876,685.5854 156.943763,612.298114 152.546333,532.001216 L308.25887,532.001216 Z M675.724506,531.999183 C674.379971,580.701906 668.145279,627.424276 657.708915,669.776385 L657.245763,671.642017 L656.850562,673.207331 C618.675946,660.518968 577.915309,652.703146 535.499333,650.58523 L535.499333,531.999183 L675.724506,531.999183 Z M487.499804,531.999183 L487.499804,650.636246 C445.443832,652.826361 405.023866,660.618739 367.149414,673.207331 C356.196246,629.955271 349.656467,582.021796 348.275494,531.999183 L487.499804,531.999183 Z M367.61973,348.94372 C405.358022,361.444799 445.617708,369.182587 487.500008,371.363744 L487.500008,491.999666 L348.275521,491.999666 C349.676232,441.264786 356.383743,392.67882 367.61973,348.94372 Z M656.381,348.94846 C667.616257,392.67882 674.323768,441.264786 675.724479,491.999666 L535.499333,491.999666 L535.499333,371.41476 C577.741587,369.305509 618.341828,361.54499 656.381,348.94846 Z M237.215695,279.408033 L237.21677,279.421885 C265.168178,301.306269 296.339496,319.904976 329.991965,334.563283 L328.661203,339.676028 C316.808768,386.056941 309.670053,437.621903 308.258896,491.997783 L152.546333,491.997783 C156.974307,411.144151 188.081774,337.396822 237.215695,279.408033 Z M786.784305,279.408033 C835.918226,337.396822 867.025693,411.144151 871.453667,491.997783 L715.741104,491.997783 C714.277821,435.613344 706.656031,382.25132 694.006123,334.557655 C727.006856,320.189692 757.619974,302.027286 785.150849,280.693375 L786.784305,279.408033 Z M535.499613,167.821323 C567.8559,178.345925 599.033932,210.358633 624.219104,260.728976 C631.909838,276.110445 638.839731,292.811953 644.943014,310.605184 C610.564186,322.104453 573.810406,329.270772 535.499613,331.36089 L535.499613,167.821323 Z M487.499615,168.153859 L487.499615,331.305201 C449.549456,329.145924 413.135421,322.005723 379.053616,310.613431 C385.160528,292.811328 392.090306,276.110157 399.780896,260.728976 C424.706285,210.878199 455.50154,179.008294 487.499615,168.153859 Z M420.633435,163.696183 C389.146293,193.09803 362.659118,237.384485 343.297089,291.571303 L342.712544,293.216353 L341.730756,296.038664 C313.984186,283.569687 288.188588,268.150157 264.852368,250.245517 C308.059307,209.429453 361.368203,179.199925 420.633435,163.696183 Z M603.367563,163.696444 C662.632455,179.200279 715.941044,209.429743 759.148854,250.240361 C735.811449,268.150129 710.015896,283.569638 682.269377,296.038604 L682.27155,296.027959 C663.026714,240.516826 636.390401,195.053362 604.582876,164.834626 L603.367563,163.696444 Z" id="形状"></path>
        </g>
    </g>
</svg>