<?xml version="1.0" standalone="no"?><!DOCTYPE svg PUBLIC "-//W3C//DTD SVG 1.1//EN" "http://www.w3.org/Graphics/SVG/1.1/DTD/svg11.dtd"><svg t="1658235718136" class="icon" viewBox="0 0 1024 1024" version="1.1" xmlns="http://www.w3.org/2000/svg" p-id="27393" xmlns:xlink="http://www.w3.org/1999/xlink" width="200" height="200"><defs><style type="text/css">@font-face { font-family: feedback-iconfont; src: url("//at.alicdn.com/t/font_1031158_u69w8yhxdu.woff2?t=1630033759944") format("woff2"), url("//at.alicdn.com/t/font_1031158_u69w8yhxdu.woff?t=1630033759944") format("woff"), url("//at.alicdn.com/t/font_1031158_u69w8yhxdu.ttf?t=1630033759944") format("truetype"); }
</style></defs><path d="M834 113c44.183 0 80 35.817 80 80v640c0 44.183-35.817 80-80 80H194c-44.183 0-80-35.817-80-80V193c0-44.183 35.817-80 80-80h640zM394.653 274.606h-80.035c-22.01 0-40.016 18.011-40.016 39.932v79.867c0 22.003 18.007 39.934 40.016 39.934h80.034a39.863 39.863 0 0 0 10.58-1.423l30.506 30.475a39.676 39.676 0 0 0-1.469 10.719v79.867a39.475 39.475 0 0 0 1.503 10.81l-30.419 30.338c-3.409-0.95-6.999-1.457-10.701-1.457h-80.034c-22.01 0-40.016 17.933-40.016 39.936v79.866c0 21.921 18.007 39.932 40.016 39.932h80.034c22.009 0 40.018-18.01 40.018-39.932v-79.866a39.66 39.66 0 0 0-1.263-9.953l30.998-30.984a39.78 39.78 0 0 0 9.88 1.242h80.034a39.816 39.816 0 0 0 10.579-1.425l30.797 30.804a39.584 39.584 0 0 0-1.36 10.316v79.866c0 21.921 18.048 39.932 40.017 39.932h80.034c22.05 0 40.016-18.01 40.016-39.932v-79.866c0-22.003-17.966-39.935-40.016-39.935h-80.034A39.786 39.786 0 0 0 624 595.033l-30.98-30.928a39.565 39.565 0 0 0 1.312-10.128V474.11a39.727 39.727 0 0 0-1.28-10.033l31.11-31.059c3.257 0.86 6.673 1.32 10.189 1.32h80.034c22.05 0 40.016-17.93 40.016-39.933v-79.867c0-21.92-17.966-39.932-40.016-39.932h-80.034c-21.969 0-40.018 18.011-40.018 39.932v79.867c-0.002 3.54 0.47 7.063 1.405 10.477l-30.76 30.737a39.994 39.994 0 0 0-10.66-1.44h-80.034c-3.36-0.002-6.707 0.42-9.961 1.257l-30.96-30.917a39.653 39.653 0 0 0 1.306-10.114v-79.867c0-21.92-18.01-39.932-40.017-39.932z" p-id="27394"></path></svg>