<?xml version="1.0" standalone="no"?><!DOCTYPE svg PUBLIC "-//W3C//DTD SVG 1.1//EN" "http://www.w3.org/Graphics/SVG/1.1/DTD/svg11.dtd"><svg t="1706282520050" class="icon" viewBox="0 0 1024 1024" version="1.1" xmlns="http://www.w3.org/2000/svg" p-id="3475" xmlns:xlink="http://www.w3.org/1999/xlink" width="200" height="200"><path d="M856.32 872.32a32 32 0 0 1 32 31.552v32.512a8 8 0 0 1-7.936 8h-736a8 8 0 0 1-8-8v-32a32 32 0 0 1 32-32h688l-0.064-0.064zM523.392 67.392l409.344 409.344a16 16 0 0 1-11.328 27.328H864v304a16 16 0 0 1-16 16H176a16 16 0 0 1-16-16v-304h-57.344a16 16 0 0 1-11.328-27.328L500.672 67.392a16 16 0 0 1 22.656 0h0.064z m-7.808 299.52a8 8 0 0 0-9.216 1.6l-1.472 2.112-45.76 92.608-102.208 14.848a8 8 0 0 0-6.208 11.072l1.792 2.56 73.92 72.128L408.96 665.6a8 8 0 0 0 9.152 9.28l2.432-0.832 91.456-48 91.456 48a8 8 0 0 0 11.648-5.824v-2.56l-17.6-101.824 73.984-72.128a8 8 0 0 0-1.92-12.928l-2.496-0.768-102.208-14.848-45.76-92.608a8 8 0 0 0-3.648-3.648h0.128z" p-id="3476"></path></svg>