<?xml version="1.0" standalone="no"?><!DOCTYPE svg PUBLIC "-//W3C//DTD SVG 1.1//EN" "http://www.w3.org/Graphics/SVG/1.1/DTD/svg11.dtd"><svg t="1655115061330" class="icon" viewBox="0 0 1024 1024" version="1.1" xmlns="http://www.w3.org/2000/svg" p-id="33411" xmlns:xlink="http://www.w3.org/1999/xlink" width="200" height="200"><defs><style type="text/css">@font-face { font-family: feedback-iconfont; src: url("//at.alicdn.com/t/font_1031158_u69w8yhxdu.woff2?t=1630033759944") format("woff2"), url("//at.alicdn.com/t/font_1031158_u69w8yhxdu.woff?t=1630033759944") format("woff"), url("//at.alicdn.com/t/font_1031158_u69w8yhxdu.ttf?t=1630033759944") format("truetype"); }
</style></defs><path d="M726.528 524.288H462.196364a44.450909 44.450909 0 0 1 0-88.366545h264.331636a44.450909 44.450909 0 0 1 0 88.366545z m-451.560727 130.094545c0 26.996364 17.617455 46.615273 41.844363 46.615273s41.844364-22.085818 41.844364-46.615273c0-24.552727-17.617455-46.638545-41.844364-46.638545s-41.844364 19.618909-41.844363 46.638545z m0-174.289454c0 26.996364 17.617455 46.638545 41.844363 46.638545s41.844364-22.109091 41.844364-46.638545c0-24.552727-17.617455-46.638545-41.844364-46.638546s-41.844364 22.109091-41.844363 46.638546z m451.560727 218.461091H462.196364a44.450909 44.450909 0 0 1 0-88.366546h264.331636a44.450909 44.450909 0 0 1 0 88.366546z m180.619636 142.382545V288.651636c0-66.280727-55.063273-61.370182-55.063272-61.370181H541.486545a45.847273 45.847273 0 0 1-28.625454-9.821091s-13.218909-24.529455-37.469091-63.813819c-22.016-44.194909-50.618182-36.817455-50.618182-36.817454H184.645818C116.363636 116.829091 116.363636 188.043636 116.363636 188.043636v648.005819c0 80.989091 55.063273 71.214545 55.063273 71.214545h687.243636c57.297455-0.069818 48.477091-66.327273 48.477091-66.327273z" fill="#444444" p-id="33412"></path></svg>