<?xml version="1.0" standalone="no"?><!DOCTYPE svg PUBLIC "-//W3C//DTD SVG 1.1//EN" "http://www.w3.org/Graphics/SVG/1.1/DTD/svg11.dtd"><svg t="1678335571836" class="icon" viewBox="0 0 1024 1024" version="1.1" xmlns="http://www.w3.org/2000/svg" p-id="2262" xmlns:xlink="http://www.w3.org/1999/xlink" width="200" height="200"><path d="M952 416a32 32 0 0 1 32 31.488V832a32 32 0 0 1-31.488 32H697.984a32 32 0 0 1-32-31.488V448a32 32 0 0 1 31.488-32H952z m-28.032 59.968H726.016v328h198.016v-328z m-98.944 240a32 32 0 1 1 0 64 32 32 0 0 1 0-64zM536.32 488.064h5.632c24.512 0 50.112 1.344 75.968 4.096v231.872H235.776a8 8 0 0 1-7.808-7.68v-126.08a47.232 47.232 0 0 1 26.88-42.176c81.728-39.104 190.272-59.648 281.6-60.16z m-258.176 6.784a526.528 526.528 0 0 0-40.64 17.28c-29.952 14.336-49.216 44.544-49.536 77.824v118.08H48a8 8 0 0 1-8-7.936v-113.28c0-16.64 9.536-31.808 24.512-38.912 61.632-29.44 139.968-47.36 212.352-52.928l1.344-0.128z m47.808-278.784c25.856 0 50.432 9.28 69.632 25.408a157.952 157.952 0 0 0-12.672 62.08c0 32.768 9.984 63.168 26.944 88.448a108.032 108.032 0 1 1-83.904-175.936z m215.488-30.976A118.528 118.528 0 0 1 544 422.016h-4.48a118.528 118.528 0 0 1 1.92-236.928z" p-id="2263"></path></svg>