<?xml version="1.0" standalone="no"?><!DOCTYPE svg PUBLIC "-//W3C//DTD SVG 1.1//EN" "http://www.w3.org/Graphics/SVG/1.1/DTD/svg11.dtd"><svg t="1658235902654" class="icon" viewBox="0 0 1024 1024" version="1.1" xmlns="http://www.w3.org/2000/svg" p-id="30463" xmlns:xlink="http://www.w3.org/1999/xlink" width="200" height="200"><defs><style type="text/css">@font-face { font-family: feedback-iconfont; src: url("//at.alicdn.com/t/font_1031158_u69w8yhxdu.woff2?t=1630033759944") format("woff2"), url("//at.alicdn.com/t/font_1031158_u69w8yhxdu.woff?t=1630033759944") format("woff"), url("//at.alicdn.com/t/font_1031158_u69w8yhxdu.ttf?t=1630033759944") format("truetype"); }
</style></defs><path d="M403.491 850.845c-1.13 32.27-1.99 50.633-1.99 50.633 0.075 6.385 5.297 11.522 11.714 11.522h134.01c6.428 0 11.645-5.171 11.67-11.567 0 0-0.95-18.408-2.036-50.588H403.491zM822.514 312.981c-1.176-32.055-43.292-117.716-140.235-158.192C585.336 114.313 504.859 113 484.095 113a479.844 479.844 0 0 0-73.601 5.84c-21.94 3.894-30.31 35.723-50.666 35.723-13.571 0-26.78-11.229-34.561-19.061V124.68c-0.025-6.423-5.208-11.631-11.626-11.681H212.626c-6.428 0.025-11.626 5.247-11.626 11.681v163.217c0.025 6.424 5.208 11.632 11.626 11.682h100.97c6.435-0.025 11.646-5.24 11.67-11.682v-28.206c11.672-10.096 31.26-16.118 42.705-12.632 14.385 4.301 44.06 24.675 57.677 48.807 13.028 23.09 12.26 53.832 12.214 128.038l-15.516 3.894a18.605 18.605 0 0 0-13.571 17.522s-0.362 12.632-0.407 136.822c0 99.062-1.9 184.18-3.62 241.634H556.43c-1.719-57.454-3.619-142.572-3.619-241.634 0-124.145-0.362-136.777-0.362-136.777a19.828 19.828 0 0 0-13.571-17.476l-12.802-3.894c0-82.99 7.78-112.328 41.347-142.844 34.968-31.692 80.386-37.895 123.678-33.413 43.292 4.483 97.984 67.37 112.008 86.793 14.023 19.423 19.995-4.663 19.406-21.551z" p-id="30464"></path></svg>