<?xml version="1.0" standalone="no"?><!DOCTYPE svg PUBLIC "-//W3C//DTD SVG 1.1//EN" "http://www.w3.org/Graphics/SVG/1.1/DTD/svg11.dtd"><svg t="1751021560231" class="icon" viewBox="0 0 1024 1024" version="1.1" xmlns="http://www.w3.org/2000/svg" p-id="1321" xmlns:xlink="http://www.w3.org/1999/xlink" width="200" height="200"><path d="M986.624 504.96v110.08a52.8 52.8 0 0 1-52.736 52.8l-158.464 0.064a52.8 52.8 0 0 1-52.736-52.736V456.192a484.032 484.032 0 0 0-421.312 2.56v156.416c-0.064 29.12-23.68 52.736-52.8 52.736h-158.4a52.8 52.8 0 0 1-52.8-52.8v-106.56c-1.92-39.68 15.68-77.76 47.104-101.952l18.56-14.08c5.44-3.968 9.6-6.976 12.544-8.96A724.864 724.864 0 0 1 902.4 376.32l19.008 12.48a505.018 505.018 0 0 1 17.728 13.056c29.056 22.144 46.336 56.064 47.68 92.16l-0.128 11.008z" p-id="1322"></path></svg>