<?xml version="1.0" standalone="no"?><!DOCTYPE svg PUBLIC "-//W3C//DTD SVG 1.1//EN" "http://www.w3.org/Graphics/SVG/1.1/DTD/svg11.dtd"><svg class="icon" width="200px" height="200.00px" viewBox="0 0 1024 1024" version="1.1" xmlns="http://www.w3.org/2000/svg"><path fill="#333333" d="M724.576 112a32 32 0 0 1 27.712 16l212.512 368a32 32 0 0 1 0 32L752.32 896a32 32 0 0 1-27.712 16H299.52a32 32 0 0 1-27.712-16L59.296 528a32 32 0 0 1 0-32L271.808 128a32 32 0 0 1 27.712-16h425.056z m-110.592 147.008a84.992 84.992 0 0 0-68.16 135.744l-114.176 203.04a85.12 85.12 0 0 0-56.768 4.8l-35.776-52.768a62.016 62.016 0 1 0-41.952 23.744l41.184 60.736a84.992 84.992 0 1 0 139.84-5.056l114.176-203.04a85.12 85.12 0 0 0 49.248-1.792l37.76 58.272a62.016 62.016 0 1 0 37.568-30.304l-36.16-55.776a84.992 84.992 0 0 0-66.784-137.6z" /></svg>