<?xml version="1.0" standalone="no"?><!DOCTYPE svg PUBLIC "-//W3C//DTD SVG 1.1//EN" "http://www.w3.org/Graphics/SVG/1.1/DTD/svg11.dtd"><svg t="1725361354110" class="icon" viewBox="0 0 1024 1024" version="1.1" xmlns="http://www.w3.org/2000/svg" p-id="1620" xmlns:xlink="http://www.w3.org/1999/xlink" width="200" height="200"><path d="M572.032 32a411.968 411.968 0 0 1 244.096 743.936l13.376 181.76a32 32 0 0 1-32 34.304H226.496a32 32 0 0 1-31.936-34.368l17.216-233.408-170.432-56.832a48 48 0 0 1-15.296-8.384l-0.576-0.512a48 48 0 0 1-5.632-67.648L160.512 424.64A412.032 412.032 0 0 1 571.968 32zM488.32 272h-28.16a16 16 0 0 0-15.04 10.56L307.84 659.968a8 8 0 0 0 7.488 10.688h41.152a16 16 0 0 0 15.168-10.816l26.88-78.336H549.76l27.136 78.4a16.09 16.09 0 0 0 15.168 10.752h40.896a8 8 0 0 0 7.488-10.688L503.36 282.56A16 16 0 0 0 488.32 272z m251.2 0h-44.416a8 8 0 0 0-8 8v382.72c0 4.352 3.584 7.936 8 7.936h44.416a8 8 0 0 0 8-8V280a8 8 0 0 0-8-8z m-264.64 81.728l57.728 174.208h-116.48l57.664-174.208h1.088z" p-id="1621"></path></svg>