<?xml version="1.0" standalone="no"?><!DOCTYPE svg PUBLIC "-//W3C//DTD SVG 1.1//EN" "http://www.w3.org/Graphics/SVG/1.1/DTD/svg11.dtd"><svg t="1678077165227" class="icon" viewBox="0 0 1024 1024" version="1.1" xmlns="http://www.w3.org/2000/svg" p-id="1721" xmlns:xlink="http://www.w3.org/1999/xlink" width="200" height="200"><path d="M724.608 112a32 32 0 0 1 27.712 16L964.8 496a32 32 0 0 1 0 32L752.32 896a32 32 0 0 1-27.712 16H299.52a32 32 0 0 1-27.712-16L59.328 528a32 32 0 0 1 0-32l212.48-368a32 32 0 0 1 27.712-16h425.088zM614.016 259.008a84.992 84.992 0 0 0-68.224 135.744L431.616 597.824a85.12 85.12 0 0 0-56.704 4.8l-35.84-52.8a62.016 62.016 0 1 0-41.92 23.744l41.216 60.736a84.992 84.992 0 1 0 139.776-5.056L592.32 426.176c16.256 4.288 33.408 3.712 49.28-1.728l37.76 58.24a62.016 62.016 0 1 0 37.568-30.272l-36.16-55.808a84.992 84.992 0 0 0-66.752-137.6z" p-id="1722"></path><path d="M724.608 112a32 32 0 0 1 27.712 16L964.8 496a32 32 0 0 1 0 32L752.32 896a32 32 0 0 1-27.712 16H299.52a32 32 0 0 1-27.712-16L59.328 528a32 32 0 0 1 0-32l212.48-368a32 32 0 0 1 27.712-16h425.088zM614.016 246.016a97.984 97.984 0 0 0-75.072 160.96L438.208 586.112a97.984 97.984 0 0 0-70.784 5.632l-22.464-33.216a72 72 0 1 0-41.6 24.192l27.2 39.936a97.984 97.984 0 1 0 154.56-5.632l100.672-179.136c20.736 6.208 42.88 5.44 63.104-2.24l24.32 37.632a72 72 0 1 0 38.08-29.632L688.192 408a98.048 98.048 0 0 0-74.176-161.984zM410.048 642.048a38.016 38.016 0 1 0-2.24 75.968 38.016 38.016 0 0 0 2.24-76.032z m-120-150.144a20.032 20.032 0 1 0 0 40.064 20.032 20.032 0 0 0 0-40.064z m443.968 0a19.968 19.968 0 1 0 0 40 19.968 19.968 0 0 0 0-39.936z m-120-185.92a38.016 38.016 0 1 0 0 76.032 38.016 38.016 0 0 0 0-76.032z" p-id="1723"></path></svg>