<?xml version="1.0" standalone="no"?><!DOCTYPE svg PUBLIC "-//W3C//DTD SVG 1.1//EN" "http://www.w3.org/Graphics/SVG/1.1/DTD/svg11.dtd"><svg t="1658721449211" class="icon" viewBox="0 0 1024 1024" version="1.1" xmlns="http://www.w3.org/2000/svg" p-id="22638" xmlns:xlink="http://www.w3.org/1999/xlink" width="200" height="200"><defs><style type="text/css">@font-face { font-family: feedback-iconfont; src: url("//at.alicdn.com/t/font_1031158_u69w8yhxdu.woff2?t=1630033759944") format("woff2"), url("//at.alicdn.com/t/font_1031158_u69w8yhxdu.woff?t=1630033759944") format("woff"), url("//at.alicdn.com/t/font_1031158_u69w8yhxdu.ttf?t=1630033759944") format("truetype"); }
</style></defs><path d="M305.194667 416.426667a263.893333 263.893333 0 1 0 527.786666 0 263.893333 263.893333 0 0 0-527.786666 0z m-88.405334 68.864a207.658667 207.658667 0 0 0-156.8 200.917333c-0.170667 112.682667 93.610667 207.104 206.293334 207.786667a207.530667 207.530667 0 0 0 197.717333-140.714667 39.936 39.936 0 0 0-23.594667-50.261333 288.085333 288.085333 0 0 1-175.317333-190.122667 39.850667 39.850667 0 0 0-48.298667-27.605333zM124.501333 204.501333a84.010667 84.010667 0 1 0 167.978667 0 84.010667 84.010667 0 0 0-167.978667 0z m695.296 471.808a145.237333 145.237333 0 1 0-2.56 290.346667 145.237333 145.237333 0 0 0 2.56-290.346667z" p-id="22639"></path></svg>