<?xml version="1.0" standalone="no"?><!DOCTYPE svg PUBLIC "-//W3C//DTD SVG 1.1//EN" "http://www.w3.org/Graphics/SVG/1.1/DTD/svg11.dtd"><svg t="1658235816458" class="icon" viewBox="0 0 1024 1024" version="1.1" xmlns="http://www.w3.org/2000/svg" p-id="29001" xmlns:xlink="http://www.w3.org/1999/xlink" width="200" height="200"><defs><style type="text/css">@font-face { font-family: feedback-iconfont; src: url("//at.alicdn.com/t/font_1031158_u69w8yhxdu.woff2?t=1630033759944") format("woff2"), url("//at.alicdn.com/t/font_1031158_u69w8yhxdu.woff?t=1630033759944") format("woff"), url("//at.alicdn.com/t/font_1031158_u69w8yhxdu.ttf?t=1630033759944") format("truetype"); }
</style></defs><path d="M751.662 313.044L463.859 433.269c-45.7 19.09-70.543 68.755-58.408 116.773l16.537 65.443c11.22 44.397 51.16 75.5 96.953 75.5h374.434l16.202 52.991c12.272 40.14-10.32 82.628-50.459 94.9a76 76 0 0 1-21.718 3.319l-572.391 3.779c-44.21 0.292-83.365-28.482-96.29-70.761l-40.85-133.615-1.689-5.684c-54.07-187.691 52.372-384.766 239.984-442.125 144.967-44.32 296.403 7.617 385.498 119.255z" p-id="29002"></path><path d="M773.43 344.234c28.764 47.602 51.664 95.573 68.7 143.912 17.034 48.338 30.941 104.81 41.72 169.413H547.87c-43.07 0-81.3-27.576-94.891-68.445l-5.408-16.262c-15.845-47.647 8.011-99.413 54.528-118.322zM494.963 499.062a20.145 20.145 0 0 0-10.074 17.45 20.145 20.145 0 0 0 10.074 17.45 20.153 20.153 0 0 0 20.151 0 20.145 20.145 0 0 0 10.074-17.45 20.145 20.145 0 0 0-10.074-17.45 20.153 20.153 0 0 0-20.151 0z" p-id="29003"></path></svg>