<?xml version="1.0" standalone="no"?><!DOCTYPE svg PUBLIC "-//W3C//DTD SVG 1.1//EN" "http://www.w3.org/Graphics/SVG/1.1/DTD/svg11.dtd"><svg t="1678079147577" class="icon" viewBox="0 0 1024 1024" version="1.1" xmlns="http://www.w3.org/2000/svg" p-id="3531" xmlns:xlink="http://www.w3.org/1999/xlink" width="200" height="200"><path d="M512 64a448 448 0 0 1 447.168 419.968c0.512 3.328 0.768 6.656 0.832 10.112v318.144a32 32 0 0 1-45.824 28.8l-0.512-0.192L864 816v43.52a99.968 99.968 0 0 1-135.488 93.44l-1.536-0.64-582.4-232.192A128 128 0 0 1 64 601.216V512A448 448 0 0 1 512 64z m145.984 368.96v196.8L801.024 704 888 747.52V488c0-8.128-0.256-16.192-0.768-24.192L657.984 432.96zM304 416a112 112 0 1 0 0 224 112 112 0 0 0 0-224z m272 6.208a32 32 0 0 0-32 31.424v97.472a32 32 0 0 0 16.832 28.16l0.448 0.256 40.704 21.12V425.472l-21.76-2.944a32 32 0 0 0-4.224-0.32zM304 472a56 56 0 1 1 0 112 56 56 0 0 1 0-112z" p-id="3532"></path></svg>