<?xml version="1.0" standalone="no"?><!DOCTYPE svg PUBLIC "-//W3C//DTD SVG 1.1//EN" "http://www.w3.org/Graphics/SVG/1.1/DTD/svg11.dtd"><svg t="1656904494964" class="icon" viewBox="0 0 1024 1024" version="1.1" xmlns="http://www.w3.org/2000/svg" p-id="2158" xmlns:xlink="http://www.w3.org/1999/xlink" width="200" height="200"><defs><style type="text/css">@font-face { font-family: feedback-iconfont; src: url("//at.alicdn.com/t/font_1031158_u69w8yhxdu.woff2?t=1630033759944") format("woff2"), url("//at.alicdn.com/t/font_1031158_u69w8yhxdu.woff?t=1630033759944") format("woff"), url("//at.alicdn.com/t/font_1031158_u69w8yhxdu.ttf?t=1630033759944") format("truetype"); }
</style></defs><path d="M955.52 855.466667L541.610667 124.586667a34.133333 34.133333 0 0 0-59.221334 0.128l-413.866666 730.794666a34.432 34.432 0 0 0 0.170666 33.877334 34.176 34.176 0 0 0 29.44 16.896h827.861334a33.92 33.92 0 0 0 29.482666-50.773334z m-350.122667-274.048l-63.189333 155.093333a32 32 0 0 1-59.306667-24.192l45.226667-111.018667h-79.914667a31.914667 31.914667 0 0 1-28.586666-46.293333l76.458666-153.002667a32 32 0 1 1 57.216 28.586667l-53.333333 106.709333h75.818667c10.709333 0 20.608 5.290667 26.624 14.08a32.298667 32.298667 0 0 1 2.986666 30.037334z" p-id="2159"></path></svg>