<?xml version="1.0" standalone="no"?><!DOCTYPE svg PUBLIC "-//W3C//DTD SVG 1.1//EN" "http://www.w3.org/Graphics/SVG/1.1/DTD/svg11.dtd"><svg t="1679050514545" class="icon" viewBox="0 0 1024 1024" version="1.1" xmlns="http://www.w3.org/2000/svg" p-id="3822" xmlns:xlink="http://www.w3.org/1999/xlink" width="200" height="200"><path d="M832 112a32 32 0 0 1 32 32v160a8 8 0 0 1-8 8h-56a8 8 0 0 1-8-8V184H184v656h608V640c0-4.416 3.584-8 8-8h56c4.416 0 8 3.584 8 8v240a32 32 0 0 1-32 32H144a32 32 0 0 1-32-32V144a32 32 0 0 1 32-32h688zM681.984 480a48 48 0 1 1 0 96h-80v176a8 8 0 0 1-8 8h-304a8 8 0 0 1-8-8V544a64 64 0 0 1 64-64h336zM904 480c4.416 0 8 3.584 8 8v73.984a8 8 0 0 1-8 8H800a8 8 0 0 1-8-8V488c0-4.416 3.584-8 8-8h104zM411.968 264a88 88 0 1 1 0 176 88 88 0 0 1 0-176z" p-id="3823"></path></svg>