<?xml version="1.0" standalone="no"?><!DOCTYPE svg PUBLIC "-//W3C//DTD SVG 1.1//EN" "http://www.w3.org/Graphics/SVG/1.1/DTD/svg11.dtd"><svg t="1678780059903" class="icon" viewBox="0 0 1024 1024" version="1.1" xmlns="http://www.w3.org/2000/svg" p-id="888" xmlns:xlink="http://www.w3.org/1999/xlink" width="200" height="200"><path d="M523.328 93.312l409.344 409.344a16 16 0 0 1-11.328 27.328H864V896a16 16 0 0 1-16 16H608a8 8 0 0 1-8-7.744V672H424v232a8 8 0 0 1-8 8H176a16 16 0 0 1-16-16V529.984h-57.344a16 16 0 0 1-11.328-27.328L500.672 93.312a16 16 0 0 1 22.656 0z" p-id="889"></path></svg>