<?xml version="1.0" standalone="no"?><!DOCTYPE svg PUBLIC "-//W3C//DTD SVG 1.1//EN" "http://www.w3.org/Graphics/SVG/1.1/DTD/svg11.dtd"><svg t="1678070757072" class="icon" viewBox="0 0 1024 1024" version="1.1" xmlns="http://www.w3.org/2000/svg" p-id="4092" xmlns:xlink="http://www.w3.org/1999/xlink" width="200" height="200"><path d="M720 112a32 32 0 0 1 32 32v144h128a32 32 0 0 1 32 32v576a16 16 0 0 1-16 16H128a16 16 0 0 1-16-16V320a32 32 0 0 1 32-32h128V144a32 32 0 0 1 32-32h416z m128 240h-96v496h96V352z m-576 0h-96v496h96V352z m336 328H416a8 8 0 0 0-8 8v48c0 4.416 3.584 8 8 8h192a8 8 0 0 0 8-8v-48a8 8 0 0 0-8-8z m0-120H416a8 8 0 0 0-8 8v48c0 4.416 3.584 8 8 8h192a8 8 0 0 0 8-8v-48a8 8 0 0 0-8-8z m-68.032-304h-55.936a8 8 0 0 0-8 8v60.032H416a8 8 0 0 0-8 8v56c0 4.416 3.584 8 8 8h60.032V456c0 4.416 3.52 8 8 8h56a8 8 0 0 0 7.936-8v-60.032H608a8 8 0 0 0 8-8v-56a8 8 0 0 0-8-8h-60.032V264a8 8 0 0 0-7.936-8z" p-id="4093"></path></svg>