<?xml version="1.0" standalone="no"?><!DOCTYPE svg PUBLIC "-//W3C//DTD SVG 1.1//EN" "http://www.w3.org/Graphics/SVG/1.1/DTD/svg11.dtd"><svg t="1655117380045" class="icon" viewBox="0 0 1024 1024" version="1.1" xmlns="http://www.w3.org/2000/svg" p-id="154396" xmlns:xlink="http://www.w3.org/1999/xlink" width="200" height="200"><defs><style type="text/css">@font-face { font-family: feedback-iconfont; src: url("//at.alicdn.com/t/font_1031158_u69w8yhxdu.woff2?t=1630033759944") format("woff2"), url("//at.alicdn.com/t/font_1031158_u69w8yhxdu.woff?t=1630033759944") format("woff"), url("//at.alicdn.com/t/font_1031158_u69w8yhxdu.ttf?t=1630033759944") format("truetype"); }
</style></defs><path d="M520.56 190.59A101.25 101.25 0 0 0 545.67 206a71.51 71.51 0 0 0 29 5.82 72.73 72.73 0 0 0 29-5.82 74.09 74.09 0 0 0 23.13-15.25 73 73 0 0 0 15.43-23.13 71.25 71.25 0 0 0 5.83-29 72.73 72.73 0 0 0-5.83-29 101.25 101.25 0 0 0-15.43-25.11 72.81 72.81 0 0 0-23.13-15.42 71 71 0 0 0-29-5.83A73.91 73.91 0 0 0 545.76 69a99.6 99.6 0 0 0-25.11 15.42 101.5 101.5 0 0 0-15.42 25.11 71.35 71.35 0 0 0-5.83 29 72.28 72.28 0 0 0 5.83 29 73.94 73.94 0 0 0 15.33 23.06zM742.44 393.05H640a13.25 13.25 0 0 1-11.3-6.32l-79.09-128.62a148.37 148.37 0 0 0-12.55-14.44 138.5 138.5 0 0 0-14.43-12.55 57.37 57.37 0 0 0-16.41-8.7 58.43 58.43 0 0 0-18.29-2.87 56 56 0 0 0-10.68 1 98.09 98.09 0 0 0-10.58 2.87L266 288a30.39 30.39 0 0 0-21.08 28.93v155.25a36.62 36.62 0 0 0 36.62 36.63 36.63 36.63 0 0 0 36.63-36.63V365.94a13.12 13.12 0 0 1 9-12.46l77.82-26-148.44 586.61A36.87 36.87 0 0 0 292.3 960a36.87 36.87 0 0 0 34.7-24.36l110.8-307.31L523 743.09a47 47 0 0 1 9.26 28v152A36.87 36.87 0 0 0 569.09 960h1.49a36.87 36.87 0 0 0 36.87-36.87v-213a47.08 47.08 0 0 0-6-23l-98.1-174.46 28.87-119.62 37.64 59.61a29.3 29.3 0 0 0 24.77 13.65h147.81a36.63 36.63 0 0 0 36.62-36.63 36.63 36.63 0 0 0-36.62-36.63z" p-id="154397"></path></svg>