<?xml version="1.0" standalone="no"?><!DOCTYPE svg PUBLIC "-//W3C//DTD SVG 1.1//EN" "http://www.w3.org/Graphics/SVG/1.1/DTD/svg11.dtd"><svg t="1655117479924" class="icon" viewBox="0 0 1024 1024" version="1.1" xmlns="http://www.w3.org/2000/svg" p-id="154540" xmlns:xlink="http://www.w3.org/1999/xlink" width="200" height="200"><defs><style type="text/css">@font-face { font-family: feedback-iconfont; src: url("//at.alicdn.com/t/font_1031158_u69w8yhxdu.woff2?t=1630033759944") format("woff2"), url("//at.alicdn.com/t/font_1031158_u69w8yhxdu.woff?t=1630033759944") format("woff"), url("//at.alicdn.com/t/font_1031158_u69w8yhxdu.ttf?t=1630033759944") format("truetype"); }
</style></defs><path d="M516.181333 178.432c-7.637333 6.314667-16.128 11.52-25.258666 15.36a72.448 72.448 0 0 1-29.226667 5.845333 73.685333 73.685333 0 0 1-29.184-5.802666 74.624 74.624 0 0 1-23.253333-15.232 72.917333 72.917333 0 0 1-15.530667-23.125334 70.741333 70.741333 0 0 1-5.888-29.013333 72.234667 72.234667 0 0 1 5.888-28.928c3.925333-9.088 9.130667-17.493333 15.530667-25.088 6.698667-6.570667 14.592-11.818667 23.253333-15.402667 9.216-3.968 19.2-5.973333 29.184-5.845333 10.026667-0.042667 19.882667 1.92 29.098667 5.76 9.173333 3.84 17.664 9.045333 25.301333 15.36 6.4 7.594667 11.605333 16.042667 15.488 25.130667 4.010667 9.130667 5.973333 18.986667 5.888 28.970666a73.813333 73.813333 0 0 1-21.333333 52.053334V178.346667zM292.864 380.714667H395.946667c4.693333 0 8.96-2.389333 11.392-6.314667l79.616-128.512a139.093333 139.093333 0 0 1 27.136-26.965333c4.992-3.754667 10.581333-6.698667 16.512-8.704a59.221333 59.221333 0 0 1 29.141333-1.834667c3.626667 0.725333 7.168 1.706667 10.666667 2.858667l201.984 64.512a30.378667 30.378667 0 0 1 21.205333 28.928v155.093333c0 9.728-3.84 19.029333-10.794667 25.898667a36.992 36.992 0 0 1-62.933333-25.898667V353.621333a13.098667 13.098667 0 0 0-9.045333-12.458666l-78.336-25.941334 149.418666 586.112a36.650667 36.650667 0 0 1-6.698666 31.658667 37.205333 37.205333 0 0 1-64.213334-10.112l-111.530666-307.072-85.76 114.645333c-6.058667 8.106667-9.301333 17.92-9.301334 27.989334v151.893333a36.693333 36.693333 0 0 1-10.837333 26.026667 37.248 37.248 0 0 1-26.24 10.837333h-1.493333a37.248 37.248 0 0 1-26.24-10.794667 36.693333 36.693333 0 0 1-10.88-26.026666v-212.821334c0-8.106667 2.090667-16 6.058666-23.04l98.730667-174.293333-29.056-119.466667-37.888 59.52a29.525333 29.525333 0 0 1-24.917333 13.653334H292.864A36.736 36.736 0 0 1 256 417.28c0-20.224 16.512-36.608 36.864-36.608z" p-id="154541"></path></svg>