<?xml version="1.0" standalone="no"?><!DOCTYPE svg PUBLIC "-//W3C//DTD SVG 1.1//EN" "http://www.w3.org/Graphics/SVG/1.1/DTD/svg11.dtd"><svg t="1672817037629" class="icon" viewBox="0 0 1024 1024" version="1.1" xmlns="http://www.w3.org/2000/svg" p-id="933" xmlns:xlink="http://www.w3.org/1999/xlink" width="200" height="200"><path d="M928 160a32 32 0 0 1 32 31.488V832a32 32 0 0 1-31.488 32H96a32 32 0 0 1-32-31.488V192a32 32 0 0 1 31.488-32H928zM374.464 545.984c-49.728 0.064-134.912 11.2-179.84 32.64a25.6 25.6 0 0 0-14.656 22.72V706.88a3.2 3.2 0 0 0 3.072 3.136h385.856a3.2 3.2 0 0 0 3.072-3.008V601.472a25.6 25.6 0 0 0-14.592-22.848C512 557.12 428.8 546.24 377.6 545.984h-3.072z m0 56H377.6c6.4 0 13.184 0.256 20.096 0.64l1.92 0.064 2.816 0.192c8.704 0.512 17.664 1.28 26.688 2.304l2.432 0.32 2.944 0.32 8.832 1.152 2.944 0.384 2.944 0.448 2.88 0.448 1.472 0.192 2.944 0.448 1.408 0.256 2.88 0.448 2.688 0.448a544 544 0 0 1 1.28 0.256l2.688 0.448 1.28 0.256 2.688 0.448 5.12 1.024 2.56 0.512 7.616 1.6 2.432 0.576 3.648 0.832 2.368 0.64c6.72 1.6 13.056 3.328 18.88 5.184l1.024 0.32 0.96 0.32v31.552H236.032v-31.552l0.832-0.256c7.872-2.56 16.832-4.864 26.432-7.04l1.28-0.32 2.688-0.64c6.464-1.344 13.184-2.688 20.096-3.84l2.048-0.384 2.88-0.512c10.56-1.728 21.44-3.2 32.256-4.48l2.688-0.256 2.88-0.256 2.88-0.32 1.472-0.128 2.88-0.256c11.904-1.024 23.488-1.664 34.176-1.728h3.072z m466.304-49.984h-185.664c-3.84 0-6.976 3.456-7.04 7.744l-0.064 0.256v48c0 4.352 3.072 7.872 6.848 8h186.048c3.84 0 6.976-3.456 7.04-7.68l0.064-0.32h-0.128v-48c0-4.352-3.2-8-7.04-8zM376 313.984a91.968 91.968 0 1 0 0 184 91.968 91.968 0 0 0 0-184z m464.768 94.016h-185.664c-3.84 0-6.976 3.456-7.04 7.744l-0.064 0.256v48c0 4.352 3.072 7.872 6.848 8h186.048c3.84 0 6.976-3.456 7.04-7.68l0.064-0.32h-0.128V416c0-4.352-3.2-8-7.04-8z m-464.768-38.016a35.968 35.968 0 1 1 0 72 35.968 35.968 0 0 1 0-72z" p-id="934"></path></svg>