<?xml version="1.0" standalone="no"?><!DOCTYPE svg PUBLIC "-//W3C//DTD SVG 1.1//EN" "http://www.w3.org/Graphics/SVG/1.1/DTD/svg11.dtd"><svg t="1657783794005" class="icon" viewBox="0 0 1024 1024" version="1.1" xmlns="http://www.w3.org/2000/svg" p-id="985" xmlns:xlink="http://www.w3.org/1999/xlink" width="200" height="200"><defs><style type="text/css">@font-face { font-family: feedback-iconfont; src: url("//at.alicdn.com/t/font_1031158_u69w8yhxdu.woff2?t=1630033759944") format("woff2"), url("//at.alicdn.com/t/font_1031158_u69w8yhxdu.woff?t=1630033759944") format("woff"), url("//at.alicdn.com/t/font_1031158_u69w8yhxdu.ttf?t=1630033759944") format("truetype"); }
</style></defs><path d="M552.021333 65.578667c8.704 0 15.786667 6.997333 15.957334 15.701333v798.72H128a16 16 0 0 1-16-15.701333V288c0-5.973333 3.370667-11.52 8.661333-14.208l0.341334-0.170667 423.978666-206.421333a16 16 0 0 1 7.04-1.621333z m-130.56 598.442666H258.474667c-3.584 0-6.528 3.541333-6.528 7.978667v56.021333c0 4.394667 2.944 7.978667 6.528 7.978667h162.986666c3.584 0 6.485333-3.584 6.485334-8.021333V672c0-4.437333-2.901333-8.021333-6.570667-8.021333z m0-144.042666H258.56c-3.584 0-6.528 3.626667-6.528 8.021333v56.021333c0 4.394667 2.944 7.978667 6.528 7.978667h162.986667c3.584 0 6.485333-3.584 6.485333-8.021333v-55.978667c0-4.437333-2.901333-8.021333-6.528-8.021333z m0-143.957334H258.56c-3.584 0-6.528 3.541333-6.528 7.978667v56.021333c0 4.394667 2.944 7.978667 6.528 7.978667h162.986667c3.584 0 6.485333-3.584 6.485333-8.021333V384c0-4.437333-2.901333-8.021333-6.528-8.021333zM746.666667 578.858667c23.04 0 44.757333 4.352 65.109333 13.056 16 6.826667 30.464 15.744 43.306667 26.666666v18.176c-0.213333 11.392-7.253333 20.565333-15.914667 20.565334l-234.496-0.042667a165.418667 165.418667 0 0 1 76.714667-65.365333 165.12 165.12 0 0 1 65.28-13.056zM613.205333 213.333333a12.8 12.8 0 0 1 6.954667 2.133334l225.962667 144c5.589333 3.797333 8.96 11.008 8.96 18.858666v187.904a206.421333 206.421333 0 0 0-108.458667-30.037333 207.786667 207.786667 0 0 0-81.92 16.469333 208.085333 208.085333 0 0 0-66.986667 45.098667L597.333333 598.186667V233.898667c0.170667-10.112 5.717333-18.517333 13.056-20.224z" p-id="986"></path><path d="M746.666667 578.858667c23.04 0 44.714667 4.352 65.109333 13.056 20.352 8.704 38.144 20.650667 53.333333 35.882666 15.274667 15.232 27.221333 33.024 35.925334 53.376 8.704 20.352 13.056 42.069333 13.056 65.109334s-4.352 44.757333-13.056 65.066666a168.234667 168.234667 0 0 1-35.882667 53.418667 168.234667 168.234667 0 0 1-53.376 35.882667 163.754667 163.754667 0 0 1-65.109333 13.056 165.12 165.12 0 0 1-65.28-13.056 165.418667 165.418667 0 0 1-53.376-35.882667 172.586667 172.586667 0 0 1-35.882667-53.376 161.706667 161.706667 0 0 1-13.269333-65.109333c0-23.04 4.437333-44.714667 13.226666-65.109334 8.874667-20.352 20.821333-38.144 35.925334-53.333333a165.418667 165.418667 0 0 1 53.376-35.925333 165.12 165.12 0 0 1 65.28-13.056z m99.456 189.696v-38.186667a8.533333 8.533333 0 0 0-8.533334-8.533333H655.36a8.533333 8.533333 0 0 0-8.533333 8.533333v38.186667c0 4.693333 3.84 8.533333 8.533333 8.533333h182.229333a8.533333 8.533333 0 0 0 8.533334-8.533333z" p-id="987"></path></svg>