<?xml version="1.0" standalone="no"?><!DOCTYPE svg PUBLIC "-//W3C//DTD SVG 1.1//EN" "http://www.w3.org/Graphics/SVG/1.1/DTD/svg11.dtd"><svg t="1658234962089" class="icon" viewBox="0 0 1024 1024" version="1.1" xmlns="http://www.w3.org/2000/svg" p-id="25928" xmlns:xlink="http://www.w3.org/1999/xlink" width="200" height="200"><defs><style type="text/css">@font-face { font-family: feedback-iconfont; src: url("//at.alicdn.com/t/font_1031158_u69w8yhxdu.woff2?t=1630033759944") format("woff2"), url("//at.alicdn.com/t/font_1031158_u69w8yhxdu.woff?t=1630033759944") format("woff"), url("//at.alicdn.com/t/font_1031158_u69w8yhxdu.ttf?t=1630033759944") format("truetype"); }
</style></defs><path d="M505.594 123.9a55.3 55.3 0 0 1 55.304 54.664l0.004 0.638v11.128l167.193 68.735a26.905 26.905 0 0 1 16.645 24.434l0.003 0.424V405.89l80.973 33.29a24.137 24.137 0 0 1 11.528 34.719l-0.241 0.395-60.196 96.293a189.673 189.673 0 0 0-3.205-0.027c-93.742 0-171.271 69.338-184.132 159.516-25.57-19.254-57.03-28.897-89.88-27.054-34.177 1.926-66.136 17.599-90.493 41.64l-0.736 0.73-9.232 9.233a1.377 1.377 0 0 1-1.852 0.092l-0.101-0.092-11.82-11.82a135.496 135.496 0 0 0-64.681-36.143l-0.898-0.21-0.828-0.59-144.757-231.568a24.13 24.13 0 0 1 10.886-34.945l0.4-0.169 80.966-33.29V283.923a26.869 26.869 0 0 1 16.265-24.694l0.391-0.164 167.186-68.735v-11.128a55.3 55.3 0 0 1 55.308-55.301z m0 101.803L320.203 301.94v81.845l176.216-72.454a24.144 24.144 0 0 1 17.896-0.181l0.453 0.18 176.217 72.455V301.94l-185.391-76.238zM507.9 756.78a98.097 98.097 0 0 1 69.838 28.915l15.164 15.171c9.089 37.21 29.37 70.027 57.077 94.684-28.955 3.312-59.114-6.092-81.2-28.182l-36.346-36.354c-6.558-6.544-15.265-10.162-24.533-10.162a34.472 34.472 0 0 0-24.519 10.155l-36.036 36.058c-38.515 38.5-101.168 38.494-139.676 0l-36.05-36.05a34.45 34.45 0 0 0-24.519-10.163 34.472 34.472 0 0 0-24.519 10.155l-55.315 55.33a32.043 32.043 0 1 1-45.32-45.312l55.323-55.33c18.645-18.645 43.46-28.915 69.838-28.915a98.112 98.112 0 0 1 69.838 28.915l36.036 36.05c13.549 13.532 35.497 13.532 49.045 0l36.036-36.05c18.667-18.645 43.46-28.915 69.838-28.915z" p-id="25929"></path><path d="M773.6 624.802c72.765 0 131.756 58.998 131.756 131.77 0 72.77-58.991 131.747-131.755 131.747-72.778 0-131.762-58.977-131.762-131.748 0-72.771 58.984-131.77 131.762-131.77z m74.098 118.919H703.554c-9.61 0-14.414 4.805-14.414 14.414l0.002 0.377c0.125 9.358 4.929 14.038 14.412 14.038h144.144c9.61 0 14.415-4.805 14.415-14.415l-0.003-0.377c-0.125-9.358-4.929-14.037-14.412-14.037z" p-id="25930"></path></svg>