<?xml version="1.0" standalone="no"?><!DOCTYPE svg PUBLIC "-//W3C//DTD SVG 1.1//EN" "http://www.w3.org/Graphics/SVG/1.1/DTD/svg11.dtd"><svg t="1678079183810" class="icon" viewBox="0 0 1024 1024" version="1.1" xmlns="http://www.w3.org/2000/svg" p-id="4613" xmlns:xlink="http://www.w3.org/1999/xlink" width="200" height="200"><path d="M780.032 504a204.032 204.032 0 1 1 0 408 204.032 204.032 0 0 1 0-408zM488 65.6a16 16 0 0 1 16 15.68V872a16 16 0 0 1-16 16H104a16 16 0 0 1-16-15.68V288a16 16 0 0 1 8.704-14.208l0.32-0.192 384-206.4A16 16 0 0 1 488 65.6z m175.168 565.184a139.968 139.968 0 0 0 193.984 193.984l-193.92-193.92zM779.968 568c-28.48 0-55.04 8.512-77.184 23.168l194.048 194.048A139.968 139.968 0 0 0 780.032 568z m-394.56 112h-178.88c-3.52 0-6.4 3.072-6.528 6.848v50.048c0 3.84 2.816 6.976 6.336 7.04l0.192 0.064h178.944c3.52 0 6.4-3.072 6.528-6.848v-50.048c0-3.904-2.944-7.104-6.592-7.104z m0.064-152H206.528c-3.52 0-6.4 3.072-6.528 6.848v50.048c0 3.84 2.816 6.976 6.336 7.04l0.192 0.064h178.944c3.52 0 6.4-3.072 6.528-6.848V535.04c0-3.904-2.944-7.104-6.528-7.104zM584 205.312a16 16 0 0 1 6.592 1.472l243.392 109.952a32 32 0 0 1 18.048 28.8v120.96A251.776 251.776 0 0 0 568 571.776V221.248a16 16 0 0 1 16-16zM385.472 376H206.528c-3.52 0-6.4 3.072-6.528 6.848v50.048c0 3.84 2.816 6.976 6.336 7.04l0.192 0.064h178.944c3.52 0 6.4-3.072 6.528-6.848v-50.048c0-3.904-2.944-7.104-6.528-7.104z" p-id="4614"></path></svg>