<?xml version="1.0" standalone="no"?><!DOCTYPE svg PUBLIC "-//W3C//DTD SVG 1.1//EN" "http://www.w3.org/Graphics/SVG/1.1/DTD/svg11.dtd"><svg t="1648565936474" class="icon" viewBox="0 0 1024 1024" version="1.1" xmlns="http://www.w3.org/2000/svg" p-id="41587" xmlns:xlink="http://www.w3.org/1999/xlink" width="200" height="200"><defs><style type="text/css">@font-face { font-family: feedback-iconfont; src: url("//at.alicdn.com/t/font_1031158_u69w8yhxdu.woff2?t=1630033759944") format("woff2"), url("//at.alicdn.com/t/font_1031158_u69w8yhxdu.woff?t=1630033759944") format("woff"), url("//at.alicdn.com/t/font_1031158_u69w8yhxdu.ttf?t=1630033759944") format("truetype"); }
</style></defs><path d="M928 160h-832A32 32 0 0 0 64 192v640a32 32 0 0 0 32 32h832a32 32 0 0 0 32-32V192a32 32 0 0 0-32-32zM337.984 304a64 64 0 0 1 0 128 64 64 0 0 1 0-128z m513.92 437.12a8.128 8.128 0 0 1-5.184 1.92H177.216a8 8 0 0 1-6.144-13.248l170.304-201.984a8.064 8.064 0 0 1 11.328-1.024l1.024 1.024L453.12 645.76l158.08-187.52a8.064 8.064 0 0 1 11.328-1.024l0.96 1.024 229.632 271.616a8.128 8.128 0 0 1-1.28 11.2z" p-id="41588"></path></svg>