<?xml version="1.0" standalone="no"?><!DOCTYPE svg PUBLIC "-//W3C//DTD SVG 1.1//EN" "http://www.w3.org/Graphics/SVG/1.1/DTD/svg11.dtd"><svg t="1663926227414" class="icon" viewBox="0 0 1024 1024" version="1.1" xmlns="http://www.w3.org/2000/svg" p-id="923" xmlns:xlink="http://www.w3.org/1999/xlink" width="200" height="200"><path d="M431.1808 165.4272l-42.5472 51.1232 194.176 189.1072-154.8288 186.112-51.6352-55.168-1.0752-0.9728a8.064 8.064 0 0 0-9.8048 0.128l-1.4592 1.4848-159.488 210.6368a8.0128 8.0128 0 0 0 6.5536 12.928l331.264-17.3824 61.2864 59.6992L552.96 864l-416.384 21.8368a32 32 0 0 1-33.6128-29.7728L69.4272 216.4224A32 32 0 0 1 99.2256 182.784l331.9808-17.408z m157.3888-4.6592l343.808 12.032a32 32 0 0 1 30.848 32.5632l-22.3488 640.128a32 32 0 0 1-29.3376 30.7712l-3.7632 0.1024-354.4576-12.3904 85.9136-55.1936-49.536-64.5632 241.0752 8.4224a8.1408 8.1408 0 0 0 3.456-0.6656l1.792-1.0752-0.0512-0.0768a8.1408 8.1408 0 0 0 2.6368-9.344l-0.9728-1.792-210.432-267.3152 65.8944-59.9552-156.928-204.5952L588.544 160.768z m-239.6416 153.1648a64 64 0 1 0 6.6816 127.8208 64 64 0 0 0-6.6816-127.8208z" p-id="924"></path></svg>