<?xml version="1.0" standalone="no"?><!DOCTYPE svg PUBLIC "-//W3C//DTD SVG 1.1//EN" "http://www.w3.org/Graphics/SVG/1.1/DTD/svg11.dtd"><svg t="1677649691138" class="icon" viewBox="0 0 1024 1024" version="1.1" xmlns="http://www.w3.org/2000/svg" p-id="3794" xmlns:xlink="http://www.w3.org/1999/xlink" width="200" height="200"><path d="M811.52 112c16.64 0 30.08 13.44 30.08 30.08v737.984c0 16.64-13.44 30.08-30.08 30.08H209.152a30.08 30.08 0 0 1-30.144-30.08v-737.92c0-16.64 13.44-30.144 30.08-30.144H811.52z m-37.632 224H246.784v506.496h527.104V336zM512.192 611.392c67.008 0 130.624 14.336 190.848 42.88a33.6 33.6 0 0 1 19.2 29.952v91.008a4.224 4.224 0 0 1-4.096 4.224H306.368a4.224 4.224 0 0 1-4.16-4.096v-90.688c0-12.992 7.424-24.832 19.2-30.4a439.488 439.488 0 0 1 190.784-42.88z m0-218.368a90.24 90.24 0 1 1 0 180.544 90.24 90.24 0 0 1 0-180.544z m0.832-195.008a32 32 0 1 0 0 64 32 32 0 0 0 0-64z" p-id="3795"></path></svg>