<?xml version="1.0" standalone="no"?><!DOCTYPE svg PUBLIC "-//W3C//DTD SVG 1.1//EN" "http://www.w3.org/Graphics/SVG/1.1/DTD/svg11.dtd"><svg class="icon" width="200px" height="200.00px" viewBox="0 0 1024 1024" version="1.1" xmlns="http://www.w3.org/2000/svg"><path fill="#333333" d="M511.52 382.016a111.36 111.36 0 0 1 38.816 6.912l0.832 0.32 0.864 0.352 0.928 0.384 1.472 0.64 1.024 0.448 1.056 0.48a7.68 7.68 0 0 1 2.24 12.448l-41.792 41.76a7.68 7.68 0 0 1-10.688 0.16l-42.016-41.984a7.68 7.68 0 0 1 2.24-12.416l0.448-0.224 0.896-0.416 0.864-0.352 0.384-0.16 0.768-0.32a111.232 111.232 0 0 1 41.664-8.064z m0-157.024a266.24 266.24 0 0 1 150.624 46.464l1.024 0.704 0.736 0.512 1.152 0.8 1.216 0.896 1.76 1.28 1.888 1.376 1.504 1.152 0.512 0.384a7.68 7.68 0 0 1 0.832 11.584l-38.432 38.592a7.648 7.648 0 0 1-9.792 0.896l-1.888-1.28-1.28-0.896-1.216-0.832-1.12-0.736-0.992-0.64-0.32-0.192a197.76 197.76 0 0 0-106.24-30.784 197.76 197.76 0 0 0-107.168 31.392l-0.896 0.576-0.96 0.64-1.504 1.024-2.048 1.408-0.448 0.32a7.648 7.648 0 0 1-9.792-0.896l-38.4-38.592a7.712 7.712 0 0 1 0.768-11.616l1.376-1.024 1.696-1.28 1.152-0.832 1.088-0.768 0.672-0.48 0.64-0.48a266.24 266.24 0 0 1 153.856-48.64zM512 64c102.272 0 196.16 35.872 269.92 95.776l1.536 1.28 2.176 1.792 1.632 1.376a7.68 7.68 0 0 1 0.48 11.296l-38.08 38.24a7.648 7.648 0 0 1-10.272 0.512l-2.24-1.824-2.016-1.6-1.76-1.44-1.28-0.96A357.952 357.952 0 0 0 512 133.12c-82.72 0-158.944 27.968-219.744 74.976l-0.928 0.736-1.696 1.344-1.12 0.896-2.08 1.696-1.824 1.472a7.648 7.648 0 0 1-10.24-0.512L236.224 175.552a7.68 7.68 0 0 1 0.48-11.328l2.784-2.336 2.464-2.048 2.176-1.76 1.28-1.024A426.56 426.56 0 0 1 512 64z m400 654.976V880a32 32 0 0 1-32 32h-736a32 32 0 0 1-32-32v-160.992c0 0.544 0.448 0.992 0.992 0.992H911.04a0.992 0.992 0 0 0 0.992-0.992v-0.032zM773.984 784h-100a1.984 1.984 0 0 0-1.984 2.016v52c0 1.088 0.896 1.984 2.016 1.984h100a1.984 1.984 0 0 0 1.984-2.016v-52a1.984 1.984 0 0 0-2.016-1.984z m106.016-320a32 32 0 0 1 32 32v160.992l-0.128-0.512a0.992 0.992 0 0 0-0.352-0.32l-0.512-0.16H112.96a0.992 0.992 0 0 0-0.992 0.992V496a32 32 0 0 1 32-32h736z m-106.016 72h-100a1.984 1.984 0 0 0-1.984 2.016v52c0 1.088 0.896 1.984 2.016 1.984h100a1.984 1.984 0 0 0 1.984-2.016v-52a1.984 1.984 0 0 0-2.016-1.984z" /></svg>