<?xml version="1.0" standalone="no"?><!DOCTYPE svg PUBLIC "-//W3C//DTD SVG 1.1//EN" "http://www.w3.org/Graphics/SVG/1.1/DTD/svg11.dtd"><svg t="1658235832008" class="icon" viewBox="0 0 1024 1024" version="1.1" xmlns="http://www.w3.org/2000/svg" p-id="29295" xmlns:xlink="http://www.w3.org/1999/xlink" width="200" height="200"><defs><style type="text/css">@font-face { font-family: feedback-iconfont; src: url("//at.alicdn.com/t/font_1031158_u69w8yhxdu.woff2?t=1630033759944") format("woff2"), url("//at.alicdn.com/t/font_1031158_u69w8yhxdu.woff?t=1630033759944") format("woff"), url("//at.alicdn.com/t/font_1031158_u69w8yhxdu.ttf?t=1630033759944") format("truetype"); }
</style></defs><path d="M517.123 738.96c0 53.333 18.642 102.346 49.815 140.74H127.432c-8.523 0-15.432-6.909-15.432-15.431V765.75c0-29.938 13.95-58.21 37.716-76.543l196.543-150.741c-77.994-63.461-108.189-168.796-75.66-263.94 32.53-95.143 120.894-159.943 221.415-162.37 100.521-2.427 191.91 58.033 228.993 151.495 37.083 93.463 12.007 200.133-62.834 267.284-85.185 33.908-141.077 116.34-141.05 208.025z m223.704-169.753c93.752 0 169.753 76 169.753 169.753 0 93.752-76 169.753-169.753 169.753-93.752 0-169.753-76.001-169.753-169.753 0-93.752 76.001-169.753 169.753-169.753z m-11.543 69.383v131.234c0 2.099 1.728 3.827 3.889 3.827h23.086a3.889 3.889 0 0 0 3.89-3.889v-131.11a3.889 3.889 0 0 0-3.89-3.89h-23.086a3.889 3.889 0 0 0-3.889 3.89v-0.062z m15.432 212.222c12.784 0 23.148-10.364 23.148-23.148 0-12.785-10.364-23.149-23.148-23.149-12.784 0-23.148 10.364-23.148 23.149 0 12.784 10.364 23.148 23.148 23.148z" p-id="29296"></path></svg>