<?xml version="1.0" standalone="no"?><!DOCTYPE svg PUBLIC "-//W3C//DTD SVG 1.1//EN" "http://www.w3.org/Graphics/SVG/1.1/DTD/svg11.dtd"><svg t="1658233619092" class="icon" viewBox="0 0 1025 1024" version="1.1" xmlns="http://www.w3.org/2000/svg" p-id="24180" xmlns:xlink="http://www.w3.org/1999/xlink" width="200.1953125" height="200"><defs><style type="text/css">@font-face { font-family: feedback-iconfont; src: url("//at.alicdn.com/t/font_1031158_u69w8yhxdu.woff2?t=1630033759944") format("woff2"), url("//at.alicdn.com/t/font_1031158_u69w8yhxdu.woff?t=1630033759944") format("woff"), url("//at.alicdn.com/t/font_1031158_u69w8yhxdu.ttf?t=1630033759944") format("truetype"); }
</style></defs><path d="M534.719 219.5h142.968v208.828h-53.75V273.172H232.142v584.922h445.547v53.75h-499.22V219.5h141.407V112h214.922v107.5h-0.078zM258 669.422h241.406c0 27.5 43.203 136.328 128.672 153.125l9.375 2.578h-377.11L258 669.422z m424.219-179.688c89.062 0 161.25 72.188 161.25 161.25 0 89.063-72.188 161.25-161.25 161.25-89.063 0-161.25-72.187-161.25-161.25 0-89.062 72.187-161.25 161.25-161.25z m0 258.047c5.781 0 11.093-3.047 13.984-8.047 2.89-5 2.89-11.172 0-16.093-2.89-5-8.203-8.047-13.984-8.047a16.07 16.07 0 0 0-16.094 16.093 16.07 16.07 0 0 0 16.094 16.094z m17.265-68.593l6.875-104.141c0-11.485-10.78-20.781-24.218-20.781-13.36 0-24.141 9.297-24.141 20.78l6.953 104.141c0 11.172 7.735 20.157 17.266 20.157 9.531 0 17.265-8.985 17.265-20.157z" p-id="24181"></path></svg>