<?xml version="1.0" standalone="no"?><!DOCTYPE svg PUBLIC "-//W3C//DTD SVG 1.1//EN" "http://www.w3.org/Graphics/SVG/1.1/DTD/svg11.dtd"><svg t="1678026099794" class="icon" viewBox="0 0 1024 1024" version="1.1" xmlns="http://www.w3.org/2000/svg" p-id="2134" xmlns:xlink="http://www.w3.org/1999/xlink" width="200" height="200"><path d="M318.72 410.112l0.192 0.192 88 88-108.224 108.224 118.784 118.784 108.224-108.16 87.872 87.872a8 8 0 0 1 0.256 11.072l-0.192 0.192-116.224 116.224a216.32 216.32 0 0 1-305.984 0 216.192 216.192 0 0 1-2.56-303.488l2.56-2.56 116.16-116.16a8 8 0 0 1 10.88-0.384l0.256 0.192z m293.504-37.888l39.552 39.552a8 8 0 0 1 0 11.328L423.104 651.776a8 8 0 0 1-11.328 0l-39.552-39.552a8 8 0 0 1 0-11.328l228.672-228.672a8 8 0 0 1 11.328 0z m220.352-180.8a216.512 216.512 0 0 1 2.56 303.552l-2.56 2.56-116.16 116.16a8 8 0 0 1-11.136 0.192l-0.192-0.192-88-88 108.224-108.224-118.784-118.784-108.224 108.16-88-87.936a8 8 0 0 1-0.192-11.136l0.192-0.192 116.288-116.16a216.192 216.192 0 0 1 305.984 0z" p-id="2135"></path></svg>