<?xml version="1.0" standalone="no"?><!DOCTYPE svg PUBLIC "-//W3C//DTD SVG 1.1//EN" "http://www.w3.org/Graphics/SVG/1.1/DTD/svg11.dtd"><svg t="1655119746992" class="icon" viewBox="0 0 1024 1024" version="1.1" xmlns="http://www.w3.org/2000/svg" p-id="1921" xmlns:xlink="http://www.w3.org/1999/xlink" width="200" height="200"><defs><style type="text/css">@font-face { font-family: feedback-iconfont; src: url("//at.alicdn.com/t/font_1031158_u69w8yhxdu.woff2?t=1630033759944") format("woff2"), url("//at.alicdn.com/t/font_1031158_u69w8yhxdu.woff?t=1630033759944") format("woff"), url("//at.alicdn.com/t/font_1031158_u69w8yhxdu.ttf?t=1630033759944") format("truetype"); }
</style></defs><path d="M856.5 63.5h-688a8 8 0 0 0-8 8v880a8 8 0 0 0 8 8h688a8 8 0 0 0 8-8v-880a8 8 0 0 0-8-8zM720 703.5a8 8 0 0 1-8 8H312a8 8 0 0 1-8-8v-56a8 8 0 0 1 8-8h400a8 8 0 0 1 8 8z m0-216a8 8 0 0 1-8 8H312a8 8 0 0 1-8-8v-56a8 8 0 0 1 8-8h400a8 8 0 0 1 8 8z m0-216a8 8 0 0 1-8 8H312a8 8 0 0 1-8-8v-56a8 8 0 0 1 8-8h400a8 8 0 0 1 8 8z" fill="#788195" p-id="1922"></path></svg>