<?xml version="1.0" standalone="no"?><!DOCTYPE svg PUBLIC "-//W3C//DTD SVG 1.1//EN" "http://www.w3.org/Graphics/SVG/1.1/DTD/svg11.dtd"><svg t="1648989353638" class="icon" viewBox="0 0 1024 1024" version="1.1" xmlns="http://www.w3.org/2000/svg" p-id="22643" xmlns:xlink="http://www.w3.org/1999/xlink" width="200" height="200"><defs><style type="text/css">@font-face { font-family: feedback-iconfont; src: url("//at.alicdn.com/t/font_1031158_u69w8yhxdu.woff2?t=1630033759944") format("woff2"), url("//at.alicdn.com/t/font_1031158_u69w8yhxdu.woff?t=1630033759944") format("woff"), url("//at.alicdn.com/t/font_1031158_u69w8yhxdu.ttf?t=1630033759944") format("truetype"); }
</style></defs><path d="M512 326.997333a111.616 111.616 0 0 0-112.042667 112.042667c0 29.866667 11.776 58.026667 32.853334 79.189333 21.162667 21.077333 49.322667 32.768 79.189333 32.768 29.866667 0 58.026667-11.690667 79.189333-32.768 21.248-21.248 32.853333-49.322667 32.853334-79.189333 0-29.866667-11.605333-58.026667-32.853334-79.274667A111.189333 111.189333 0 0 0 512 326.997333z m342.613333-37.888a362.496 362.496 0 0 0-79.872-115.712A375.04 375.04 0 0 0 512 66.986667c-50.090667 0-98.730667 9.642667-144.469333 28.501333-44.373333 18.346667-84.053333 44.544-118.272 77.824a363.52 363.52 0 0 0-79.872 115.712 355.157333 355.157333 0 0 0-29.354667 141.994667c0 70.570667 16.896 140.885333 50.090667 208.64a660.48 660.48 0 0 0 110.933333 158.122666 893.184 893.184 0 0 0 188.416 153.002667 43.861333 43.861333 0 0 0 44.8 0c23.893333-14.08 108.117333-66.816 188.416-153.002667 46.933333-50.346667 84.309333-103.594667 110.933333-158.122666 33.450667-67.669333 50.346667-137.898667 50.346667-208.554667 0-49.237333-9.898667-97.024-29.354667-141.994667zM512 614.997333a176.042667 176.042667 0 1 1 0-352 176.042667 176.042667 0 0 1 0 352z" p-id="22644"></path></svg>