<?xml version="1.0" standalone="no"?><!DOCTYPE svg PUBLIC "-//W3C//DTD SVG 1.1//EN" "http://www.w3.org/Graphics/SVG/1.1/DTD/svg11.dtd"><svg t="1677676156274" class="icon" viewBox="0 0 1024 1024" version="1.1" xmlns="http://www.w3.org/2000/svg" p-id="1841" xmlns:xlink="http://www.w3.org/1999/xlink" width="200" height="200"><path d="M525.184 113.856l294.848 100.672c7.68 3.008 12.736 10.24 12.992 18.432v419.456a32.384 32.384 0 0 1-10.944 22.4l-299.136 233.6a18.624 18.624 0 0 1-21.952 0l-299.072-233.6a32.512 32.512 0 0 1-10.88-22.4V232.96a20.864 20.864 0 0 1 13.056-18.432l294.848-100.672a47.808 47.808 0 0 1 26.24 0z m-35.968 216.256A122.24 122.24 0 0 0 457.472 448l0.896 3.328-141.696 141.696a8 8 0 0 0 0 11.328l70.656 70.72a8 8 0 0 0 11.328 0l141.632-141.696 3.392 0.896A122.112 122.112 0 0 0 686.4 365.248l-0.64-1.408a7.872 7.872 0 0 0-12.608-2.24l-2.048 2.048-10.24 10.048-14.656 14.528-17.728 17.6L592 442.24l-2.368 2.432-42.496-42.496 82.176-82.112a8.064 8.064 0 0 0-1.28-13.44l-1.28-0.64a121.344 121.344 0 0 0-137.6 24.128z" p-id="1842"></path></svg>