<?xml version="1.0" standalone="no"?><!DOCTYPE svg PUBLIC "-//W3C//DTD SVG 1.1//EN" "http://www.w3.org/Graphics/SVG/1.1/DTD/svg11.dtd"><svg t="1658233723540" class="icon" viewBox="0 0 1024 1024" version="1.1" xmlns="http://www.w3.org/2000/svg" p-id="24471" xmlns:xlink="http://www.w3.org/1999/xlink" width="200" height="200"><defs><style type="text/css">@font-face { font-family: feedback-iconfont; src: url("//at.alicdn.com/t/font_1031158_u69w8yhxdu.woff2?t=1630033759944") format("woff2"), url("//at.alicdn.com/t/font_1031158_u69w8yhxdu.woff?t=1630033759944") format("woff"), url("//at.alicdn.com/t/font_1031158_u69w8yhxdu.ttf?t=1630033759944") format("truetype"); }
</style></defs><path d="M512 112c-220.914 0-400 179.086-400 400s179.086 400 400 400 400-179.086 400-400-179.086-400-400-400z m-25.029 50c0-3.943 3.2-7.143 7.143-7.143h35.715c4 0 7.2 3.2 7.2 7.143v64.286a7.143 7.143 0 0 1-7.2 7.143H494.17a7.143 7.143 0 0 1-7.142-7.143V162h-0.058zM233.43 529.886a7.143 7.143 0 0 1-7.143 7.085H162a7.143 7.143 0 0 1-7.143-7.085v-35.772c0-3.943 3.2-7.143 7.143-7.143h64.286c3.943 0 7.143 3.2 7.143 7.143V529.886zM537.029 862a7.143 7.143 0 0 1-7.2 7.143H494.17A7.143 7.143 0 0 1 487.03 862v-64.286a7.11 7.11 0 0 1 7.142-7.143h35.715c3.943 0 7.085 3.2 7.085 7.143V862h0.058z m99.428-251.086c0 5.143-4.228 9.372-9.428 9.372h-77.543v-63.372c0-10.351-8.392-18.743-18.743-18.743h-37.486c-10.351 0-18.743 8.392-18.743 18.743v63.429h-77.543a9.372 9.372 0 0 1-9.428-9.429V470.571c0-5.142 2.4-9.942 6.457-13.028l108.057-82.457a16.457 16.457 0 0 1 20 0l108 82.457a16.457 16.457 0 0 1 6.457 13.028l-0.114 140.343h0.057zM862 537.03h-64.286a7.143 7.143 0 0 1-7.143-7.2V494.17c0-4 3.2-7.142 7.143-7.142H862a7.11 7.11 0 0 1 7.143 7.142v35.715A7.143 7.143 0 0 1 862 536.97v0.058z" p-id="24472"></path></svg>