<?xml version="1.0" standalone="no"?><!DOCTYPE svg PUBLIC "-//W3C//DTD SVG 1.1//EN" "http://www.w3.org/Graphics/SVG/1.1/DTD/svg11.dtd"><svg t="1750919539414" class="icon" viewBox="0 0 1024 1024" version="1.1" xmlns="http://www.w3.org/2000/svg" p-id="1883" xmlns:xlink="http://www.w3.org/1999/xlink" width="200" height="200"><path d="M428.001 90.115l85.068 176.598 85.07-176.598A32.007 32.007 0 0 1 626.93 72l159.609 2.032a32 32 0 0 1 13.496 3.176c15.918 7.678 22.597 26.807 14.918 42.725L666.65 427.37l-0.75-0.483 2.304 1.497c77.523 50.935 128.708 138.67 128.708 238.361 0 157.402-127.599 285-285 285s-285-127.598-285-285c0-100.674 52.2-189.156 131.01-239.858l2.188-1.392-1.168 0.74-147.756-306.302c-7.68-15.918-1-35.047 14.918-42.725a32 32 0 0 1 13.496-3.176L398.764 72a32.013 32.013 0 0 1 29.237 18.115z m83.91 427.63c-82.29 0-149 66.71-149 149s66.71 149 149 149c82.291 0 149-66.71 149-149s-66.709-149-149-149zM646.95 136.258L548.588 340.45l-22.493 41.643c28.444 1.394 55.792 6.958 81.446 16.094l1.813 0.652 126.123-261.452-88.528-1.128z m-267.758 0l-88.528 1.128 125.78 260.743 1.91-0.672a282.856 282.856 0 0 1 35.594-9.813l0.958-0.196 22.645-46.999-98.359-204.19z" p-id="1884"></path></svg>