<?xml version="1.0" standalone="no"?><!DOCTYPE svg PUBLIC "-//W3C//DTD SVG 1.1//EN" "http://www.w3.org/Graphics/SVG/1.1/DTD/svg11.dtd"><svg t="1677650771472" class="icon" viewBox="0 0 1024 1024" version="1.1" xmlns="http://www.w3.org/2000/svg" p-id="2549" xmlns:xlink="http://www.w3.org/1999/xlink" width="200" height="200"><path d="M625.152 116.032l282.88 282.88a160 160 0 0 1 0 226.24l-282.88 282.88a160 160 0 0 1-226.304 0l-282.88-282.88a160 160 0 0 1 0-226.304l282.88-282.88a160 160 0 0 1 226.304 0zM595.968 312H428.032a8 8 0 0 0-8 8v99.968H320a8 8 0 0 0-8 8v168c0 4.48 3.584 8.064 8 8.064h100.032V704c0 4.416 3.52 8 8 8h168a8 8 0 0 0 7.936-8V603.968H704a8 8 0 0 0 8-7.936V427.968a8 8 0 0 0-8-7.936H603.968V320a8 8 0 0 0-7.936-8z m-48 56v108.032H656v72H547.968V656h-71.936V547.968H368v-71.936h108.032V368h72z" p-id="2550"></path></svg>