<?xml version="1.0" standalone="no"?><!DOCTYPE svg PUBLIC "-//W3C//DTD SVG 1.1//EN" "http://www.w3.org/Graphics/SVG/1.1/DTD/svg11.dtd"><svg t="1649139147187" class="icon" viewBox="0 0 1024 1024" version="1.1" xmlns="http://www.w3.org/2000/svg" p-id="25475" xmlns:xlink="http://www.w3.org/1999/xlink" width="200" height="200"><defs><style type="text/css">@font-face { font-family: feedback-iconfont; src: url("//at.alicdn.com/t/font_1031158_u69w8yhxdu.woff2?t=1630033759944") format("woff2"), url("//at.alicdn.com/t/font_1031158_u69w8yhxdu.woff?t=1630033759944") format("woff"), url("//at.alicdn.com/t/font_1031158_u69w8yhxdu.ttf?t=1630033759944") format("truetype"); }
</style></defs><path d="M0 512C0 229.2 229.2 0 512 0s512 229.2 512 512-229.2 512-512 512S0 794.8 0 512z m352.8-32c35.2 0 64-28.6 64-64s-28.8-64-64-64c-35.4 0-64 28.6-64 64s28.6 64 64 64z m320-128c-35.4 0-64 28.6-64 64s28.6 64 64 64c35.2 0 64-28.6 64-64s-28.8-64-64-64zM320 672c-17.6 0-32 14.4-32 32s14.4 32 32 32h384c17.6 0 32-14.4 32-32s-14.4-32-32-32H320z" p-id="25476"></path></svg>