<?xml version="1.0" standalone="no"?><!DOCTYPE svg PUBLIC "-//W3C//DTD SVG 1.1//EN" "http://www.w3.org/Graphics/SVG/1.1/DTD/svg11.dtd"><svg t="1678026070543" class="icon" viewBox="0 0 1024 1024" version="1.1" xmlns="http://www.w3.org/2000/svg" p-id="1050" xmlns:xlink="http://www.w3.org/1999/xlink" width="200" height="200"><path d="M924.288 338.368A447.552 447.552 0 0 0 685.184 98.816 443.904 443.904 0 0 0 512 64h-1.984a444.992 444.992 0 0 0-315.84 132.416A444.992 444.992 0 0 0 99.2 339.2a450.752 450.752 0 0 0 13.696 374.784v152c0 25.408 20.608 46.016 45.888 46.016h151.808c61.504 31.104 130.24 47.68 199.488 48h2.112c59.776 0 117.76-11.584 172.288-34.304a443.2 443.2 0 0 0 142.528-95.168 444.8 444.8 0 0 0 96.32-142.08c23.488-55.168 35.456-113.856 35.776-174.464a449.92 449.92 0 0 0-34.816-175.616zM312.448 560a48 48 0 0 1 0-96 48 48 0 0 1 0 96zM512 560a48 48 0 0 1 0-96 48 48 0 0 1 0 96z m199.616 0a48 48 0 0 1 0-96 48 48 0 0 1 0 96z" p-id="1051"></path></svg>