<?xml version="1.0" standalone="no"?><!DOCTYPE svg PUBLIC "-//W3C//DTD SVG 1.1//EN" "http://www.w3.org/Graphics/SVG/1.1/DTD/svg11.dtd"><svg t="1658234269721" class="icon" viewBox="0 0 1025 1024" version="1.1" xmlns="http://www.w3.org/2000/svg" p-id="25783" xmlns:xlink="http://www.w3.org/1999/xlink" width="200.1953125" height="200"><defs><style type="text/css">@font-face { font-family: feedback-iconfont; src: url("//at.alicdn.com/t/font_1031158_u69w8yhxdu.woff2?t=1630033759944") format("woff2"), url("//at.alicdn.com/t/font_1031158_u69w8yhxdu.woff?t=1630033759944") format("woff"), url("//at.alicdn.com/t/font_1031158_u69w8yhxdu.ttf?t=1630033759944") format("truetype"); }
</style></defs><path d="M465.31 707.631h-76.743l98.147-172.029 127.166 1.35-61.896 115.65h91.495L421.732 901.344z" p-id="25784"></path><path d="M912.496 490.45c0-71.53-58.061-129.58-129.603-129.58-8.762 0-17.331 0.866-25.612 2.503 3.852-15.115 5.874-31 5.874-47.366 0-106.86-86.66-193.503-193.538-193.503-83.866 0-155.215 53.334-182.08 127.847-18.487-10.493-39.862-16.559-62.682-16.559-70.098 0-127.004 56.8-127.004 126.981 0 21.854 5.489 42.36 15.214 60.362h-0.385c-54.788 0-99.176 44.38-99.176 99.158s44.388 99.16 99.176 99.16c4.91 0 9.628-0.386 14.347-1.06l0.192 1.54h175.82l65.38-114.85 195.848 2.118-60.372 112.829h193.442l-0.386-0.77c64.994-7.028 115.545-61.999 115.545-128.81z m-206.44 221.71s31.582 30.615 31.582 59.496c0 28.88-14.154 45.054-31.582 45.054s-31.582-16.173-31.582-45.054c0-28.881 31.582-59.495 31.582-59.495z m-387.268 0s31.583 30.615 31.583 59.496c0 28.88-14.155 45.054-31.583 45.054-17.428 0-31.582-16.173-31.582-45.054 0-28.881 31.582-59.495 31.582-59.495z" p-id="25785"></path></svg>