<?xml version="1.0" encoding="UTF-8"?>
<svg width="1024px" height="1024px" viewBox="0 0 1024 1024" version="1.1" xmlns="http://www.w3.org/2000/svg" xmlns:xlink="http://www.w3.org/1999/xlink">
    <title>实时经济观察_面性</title>
    <g id="页面1" stroke="none" stroke-width="1" fill="none" fill-rule="evenodd">
        <g id="实时经济观察_面性" fill="#000000" fill-rule="nonzero">
            <path d="M496,88 C721.309257,88 904,270.690743 904,496 C904,589.912974 872.2598,676.421522 818.92299,745.382053 L937.161472,863.622366 C943.40986,869.870755 943.40986,880.001395 937.161472,886.249783 L886.249783,937.161472 C880.001395,943.40986 869.870755,943.40986 863.622366,937.161472 L745.382053,818.92299 C676.421522,872.2598 589.912974,904 496,904 C270.690743,904 88,721.309257 88,496 C88,270.690743 270.690743,88 496,88 Z M395.392,296.533333 L338.619733,296.533333 L338.2016,296.541867 C336.256,296.6016 334.421333,297.088 332.6976,298.0096 C326.822993,301.257953 324.593746,308.56132 327.601095,314.520469 L327.748267,314.8032 L436.3776,513.664 L380.279467,513.664 C373.734269,513.823639 368.413444,519.145499 368.251275,525.695294 L368.247467,526.0032 L368.247467,552.6016 C368.433492,559.183531 373.732416,564.449 380.278901,564.628906 L380.586667,564.6336 L458.478933,564.6336 L458.478933,601.301333 L380.279467,601.301333 C373.734269,601.460973 368.413444,606.782832 368.251275,613.340773 L368.247467,613.649067 L368.247467,640.238933 C368.429041,646.82416 373.729157,652.094574 380.278754,652.274763 L380.586667,652.279467 L458.478933,652.279467 L458.478933,716.526933 C458.664958,723.108864 463.963882,728.374333 470.510367,728.554239 L470.818133,728.558933 L522.103467,728.558933 C528.648664,728.399294 533.977763,723.077434 534.140186,716.527639 L534.144,716.219733 L534.144,652.270933 L612.7104,652.270933 C619.255598,652.111294 624.576423,646.789434 624.738592,640.239639 L624.7424,639.931733 L624.7424,613.333333 C624.582761,606.788135 619.260902,601.46731 612.702961,601.305141 L612.394667,601.301333 L534.144,601.301333 L534.144,564.6336 L612.7104,564.6336 C619.255598,564.473961 624.576423,559.152102 624.738592,552.594161 L624.7424,552.285867 L624.7424,525.696 C624.582761,519.150803 619.260902,513.821704 612.702961,513.659281 L612.394667,513.655467 L555.989333,513.655467 L664.2432,314.8032 L664.439467,314.427733 C666.350056,310.5958 666.143693,306.048426 663.893882,302.405295 C661.704876,298.860627 657.884144,296.662243 653.735271,296.538801 L653.3888,296.533333 L597.512533,296.533333 C593.079613,296.63085 589.057679,299.123995 586.993396,303.029089 L586.845867,303.317333 L496.494933,481.442133 L406.510933,303.317333 L406.357333,303.035733 C404.215467,299.008 399.982933,296.533333 395.392,296.533333 Z" id="形状"></path>
        </g>
    </g>
</svg>