<?xml version="1.0" standalone="no"?><!DOCTYPE svg PUBLIC "-//W3C//DTD SVG 1.1//EN" "http://www.w3.org/Graphics/SVG/1.1/DTD/svg11.dtd"><svg t="1678077158356" class="icon" viewBox="0 0 1024 1024" version="1.1" xmlns="http://www.w3.org/2000/svg" p-id="1411" xmlns:xlink="http://www.w3.org/1999/xlink" width="200" height="200"><path d="M212.032 212.032c148.544-148.16 388.992-148.16 536.96 0a379.776 379.776 0 0 1 29.632 504.448l-3.648 4.48 146.048 146.048c2.688 3.136 2.752 8.064 0.128 10.816l-43.136 43.2c-2.624 2.688-7.616 2.752-10.816 0.128l-0.192-0.128-145.984-146.048a379.776 379.776 0 0 1-509.056-25.984c-148.096-147.968-148.096-388.416 0-536.96zM696 265.984A304.128 304.128 0 0 0 265.984 696 304.128 304.128 0 0 0 696 265.984z m-28.992 29.056A263.04 263.04 0 0 1 295.04 667.008 263.04 263.04 0 0 1 667.008 295.04z m-74.304 34.88h-43.776a8.448 8.448 0 0 0-7.36 4.352l-0.192 0.256-59.904 121.856-59.84-121.792a8.32 8.32 0 0 0-7.232-4.608h-45.12a8.448 8.448 0 0 0-7.424 12.16l71.68 141.248h-41.408c-4.544 0-8.32 3.648-8.448 8.128v25.408c0 4.48 3.712 8.256 8.192 8.32h63.232v28.672h-62.976c-4.544 0-8.32 3.648-8.448 8.128v25.344c0 4.48 3.712 8.32 8.192 8.384h63.232v49.92c0 4.48 3.648 8.32 8.128 8.384H499.2c4.48 0 8.32-3.648 8.384-8.128v-50.176h63.36c4.48 0 8.192-3.712 8.192-8.256v-25.216c0-4.48-3.712-8.32-8.192-8.384h-63.552v-28.608h63.36c4.48 0 8.192-3.648 8.32-8.192v-25.344c0-4.48-3.648-8.256-8.128-8.32h-42.176L600 342.4a10.816 10.816 0 0 0 1.088-4.096c0-4.48-3.648-8.32-8.128-8.384h-0.32z" p-id="1412"></path></svg>