<?xml version="1.0" standalone="no"?><!DOCTYPE svg PUBLIC "-//W3C//DTD SVG 1.1//EN" "http://www.w3.org/Graphics/SVG/1.1/DTD/svg11.dtd"><svg t="1678070726915" class="icon" viewBox="0 0 1024 1024" version="1.1" xmlns="http://www.w3.org/2000/svg" p-id="2850" xmlns:xlink="http://www.w3.org/1999/xlink" width="200" height="200"><path d="M264 136c4.416 0 8 3.584 8 8v48h480v-48c0-4.48 3.584-8 8-8h120c4.48 0 8 3.584 8 8v120a8 8 0 0 1-8 8h-48v480h48c4.48 0 8 3.584 8 8v120a8 8 0 0 1-8 8H760a8 8 0 0 1-8-8v-48H272v48a8 8 0 0 1-8 8H144a8 8 0 0 1-8.064-8V760c0-4.416 3.584-8 8.064-8h48V272h-48a8 8 0 0 1-8-8V144c0-4.48 3.584-8.064 8-8.064h120z m7.488 586.496v22.016c0 4.416 3.584 8 8 8h21.888a16 16 0 0 0 11.328-4.672l435.136-435.2a16 16 0 0 0 4.672-11.264v-21.888a8 8 0 0 0-8-8h-22.016a16 16 0 0 0-11.328 4.672L276.16 711.168a16 16 0 0 0-4.672 11.328z m222.72 30.016h47.168a16 16 0 0 0 11.328-4.672l195.136-195.2a16 16 0 0 0 4.672-11.264v-47.168a8 8 0 0 0-13.632-5.696L488.512 738.88a8 8 0 0 0 5.696 13.632z m35.456-481.024H482.56a16 16 0 0 0-11.328 4.672L276.16 471.168a16 16 0 0 0-4.672 11.328v47.168a8 8 0 0 0 13.632 5.696l250.24-250.24a8 8 0 0 0-5.696-13.632z" p-id="2851"></path></svg>