<?xml version="1.0" standalone="no"?><!DOCTYPE svg PUBLIC "-//W3C//DTD SVG 1.1//EN" "http://www.w3.org/Graphics/SVG/1.1/DTD/svg11.dtd"><svg t="1677985244799" class="icon" viewBox="0 0 1024 1024" version="1.1" xmlns="http://www.w3.org/2000/svg" p-id="2424" xmlns:xlink="http://www.w3.org/1999/xlink" width="200" height="200"><path d="M904 316.032a32 32 0 0 1 32 32V856a32 32 0 0 1-32 32H296a32 32 0 0 1-32-32v-96.064h544V315.968h96zM728 136a32 32 0 0 1 32 32v512a32 32 0 0 1-32 32H120a32 32 0 0 1-32-32V168a32 32 0 0 1 32-32h608z" p-id="2425"></path></svg>