<?xml version="1.0" standalone="no"?><!DOCTYPE svg PUBLIC "-//W3C//DTD SVG 1.1//EN" "http://www.w3.org/Graphics/SVG/1.1/DTD/svg11.dtd"><svg t="1711440246366" class="icon" viewBox="0 0 1024 1024" version="1.1" xmlns="http://www.w3.org/2000/svg" p-id="1210" xmlns:xlink="http://www.w3.org/1999/xlink" width="200" height="200"><path d="M372.032 64c4.416 0 8 3.584 8 8v80H440c4.416 0 8 3.584 8 8v72h104c4.416 0 8 3.584 8 8v372.032c0 4.416 3.584 7.936 8 7.936h72a8 8 0 0 0 8-7.936v-160c0-4.48 3.584-8 8-8h80v-120c0-4.48 3.584-8 8-8h72c4.416 0 8 3.52 8 8v120h80c4.416 0 8 3.52 8 8V928a8 8 0 0 1-8 8H128a8 8 0 0 1-8-8V240c0-4.416 3.584-8 8-8h104v-72c0-4.416 3.584-8 8-8h60.032V72c0-4.416 3.52-8 8-8h64zM288 716.032h-72a8 8 0 0 0-8 7.936v72.064c0 4.416 3.584 7.936 8 7.936h72a8 8 0 0 0 8-7.936v-72.064a8 8 0 0 0-8-7.936z m176 0h-72a8 8 0 0 0-8 7.936v72.064c0 4.416 3.584 7.936 8 7.936h72a8 8 0 0 0 8-7.936v-72.064a8 8 0 0 0-8-7.936z m176 0h-72a8 8 0 0 0-8 7.936v72.064c0 4.416 3.584 7.936 8 7.936h72a8 8 0 0 0 8-7.936v-72.064a8 8 0 0 0-8-7.936z m176 0h-72a8 8 0 0 0-8 7.936v72.064c0 4.416 3.584 7.936 8 7.936h72a8 8 0 0 0 8-7.936v-72.064a8 8 0 0 0-8-7.936zM288 531.968h-72a8 8 0 0 0-8 8.064v71.936c0 4.48 3.584 8.064 8 8.064h72a8 8 0 0 0 8-8.064v-71.936a8 8 0 0 0-8-8.064z m176 0h-72a8 8 0 0 0-8 8.064v71.936c0 4.48 3.584 8.064 8 8.064h72a8 8 0 0 0 8-8.064v-71.936a8 8 0 0 0-8-8.064z m352 0h-72a8 8 0 0 0-8 8.064v71.936c0 4.48 3.584 8.064 8 8.064h72a8 8 0 0 0 8-8.064v-71.936a8 8 0 0 0-8-8.064zM288 348.032h-72a8 8 0 0 0-8 8v72c0 4.416 3.584 8 8 8h72a8 8 0 0 0 8-8v-72a8 8 0 0 0-8-8z m176 0h-72a8 8 0 0 0-8 8v72c0 4.416 3.584 8 8 8h72a8 8 0 0 0 8-8v-72a8 8 0 0 0-8-8z" p-id="1211"></path></svg>