<?xml version="1.0" standalone="no"?><!DOCTYPE svg PUBLIC "-//W3C//DTD SVG 1.1//EN" "http://www.w3.org/Graphics/SVG/1.1/DTD/svg11.dtd"><svg t="1655177306321" class="icon" viewBox="0 0 1024 1024" version="1.1" xmlns="http://www.w3.org/2000/svg" p-id="46197" xmlns:xlink="http://www.w3.org/1999/xlink" width="200" height="200"><defs><style type="text/css">@font-face { font-family: feedback-iconfont; src: url("//at.alicdn.com/t/font_1031158_u69w8yhxdu.woff2?t=1630033759944") format("woff2"), url("//at.alicdn.com/t/font_1031158_u69w8yhxdu.woff?t=1630033759944") format("woff"), url("//at.alicdn.com/t/font_1031158_u69w8yhxdu.ttf?t=1630033759944") format("truetype"); }
</style></defs><path d="M368 248c8.837 0 16 7.163 16 16v40c0 8.837-7.163 16-16 16h-51.174l37.953 198.556c0.451 0.295 0.902 0.593 1.351 0.892L213.96 624.533l-0.838 0.63c-27.738 21.206-33.364 60.77-12.588 88.878 12.605 17.055 32.074 26.04 51.772 25.963l0.985-0.012c12.808-0.247 25.665-4.331 36.751-12.525l142.197-105.102C437.288 639.36 440 657.364 440 676c0 102.791-82.495 186.315-184.891 187.975L252 864c-103.83 0-188-84.17-188-188 0-102.791 82.495-186.315 184.891-187.975L252 488c8.104 0 16.088 0.513 23.922 1.508L243.523 320H176c-8.837 0-16-7.163-16-16v-40c0-8.837 7.163-16 16-16h192z m411.68 201.826C881.47 463.36 960 550.51 960 656c0 113.726-91.272 206.135-204.56 207.972L752 864c-114.875 0-208-93.125-208-208 0-78.536 43.526-146.906 107.771-182.303l1.953-1.062 35.396 195.438 0.172 0.902c6.033 30.484 32.846 51.674 62.919 51.576l1.015-0.012c3.387-0.065 6.812-0.4 10.252-1.023 34.78-6.299 57.87-39.6 51.57-74.38l-35.368-195.31zM658.135 112.54c15.446 0 28.687 11.033 31.475 26.225l93.95 512.072c3.15 17.39-8.395 34.04-25.785 37.19a32.23 32.23 0 0 1-5.13 0.512l-0.508 0.006c-15.048 0.047-28.442-10.564-31.454-25.783l-0.098-0.52-47.364-257.788-402.2 297.279a31.854 31.854 0 0 1-18.376 6.262l-0.492 0.006c-9.85 0.039-19.584-4.454-25.887-12.981-10.4-14.07-7.558-33.85 6.29-44.437l0.423-0.318 427.368-315.88-29-157.845H482.695c-8.836 0-16-7.164-16-16v-32c-0.001-8.837 7.162-16 15.999-16h175.44z m227.091 516.068l0.67 3.696c0.268 1.478 0.51 2.955 0.728 4.43l0.308 2.211-0.14-1.112a135.56 135.56 0 0 0-1.29-7.862l-0.276-1.363z" p-id="46198"></path></svg>