<?xml version="1.0" standalone="no"?><!DOCTYPE svg PUBLIC "-//W3C//DTD SVG 1.1//EN" "http://www.w3.org/Graphics/SVG/1.1/DTD/svg11.dtd"><svg t="1677985225704" class="icon" viewBox="0 0 1024 1024" version="1.1" xmlns="http://www.w3.org/2000/svg" p-id="1806" xmlns:xlink="http://www.w3.org/1999/xlink" width="200" height="200"><path d="M368 272a16 16 0 0 1 16 16v40a16 16 0 0 1-16 16h-51.2l37.952 198.528 1.408 0.896-142.208 105.088-0.832 0.64a64 64 0 0 0 39.168 114.88h1.024a63.68 63.68 0 0 0 36.736-12.544l142.208-105.152A188.096 188.096 0 0 1 255.104 888h-3.136a187.968 187.968 0 0 1-3.008-376h3.136c8.064 0 16 0.512 23.872 1.536L243.584 344H176a16 16 0 0 1-16-16v-40a16 16 0 0 1 16-16h192z m411.648 201.856a208 208 0 0 1-24.192 414.08L752 888a208 208 0 0 1-100.224-390.272l1.92-1.088 35.392 195.456 0.192 0.896a64 64 0 0 0 62.912 51.584h1.024a64 64 0 0 0 61.824-75.392l-35.392-195.328z m-121.536-337.28a32 32 0 0 1 31.488 26.24l93.952 512a32 32 0 0 1-30.912 37.76h-0.512a32 32 0 0 1-31.424-25.792l-0.128-0.512-47.36-257.792L271.04 725.76a31.872 31.872 0 0 1-18.368 6.208h-0.512a32 32 0 0 1-19.584-57.408l0.384-0.32L660.352 358.4 631.36 200.512H482.688a16 16 0 0 1-16-16v-32a16 16 0 0 1 16-16h175.424z m227.136 516.032l2.496 3.712a55.403 55.403 0 0 1 2.752 4.416l1.152 2.24-0.576-1.152a56.32 56.32 0 0 0-4.8-7.872l-1.024-1.344z" p-id="1807"></path></svg>