<?xml version="1.0" standalone="no"?><!DOCTYPE svg PUBLIC "-//W3C//DTD SVG 1.1//EN" "http://www.w3.org/Graphics/SVG/1.1/DTD/svg11.dtd"><svg t="1678346816008" class="icon" viewBox="0 0 1024 1024" version="1.1" xmlns="http://www.w3.org/2000/svg" p-id="2268" xmlns:xlink="http://www.w3.org/1999/xlink" width="200" height="200"><path d="M128 160c4.416 0 8 3.584 8 8v344h816c4.416 0 8 3.584 8 8v336a8 8 0 0 1-8 8h-56a8 8 0 0 1-8-8V752H136v104a8 8 0 0 1-8 8H72a8 8 0 0 1-8-8V168c0-4.416 3.584-8 8-8h56z m408-48c44.864 0 87.04 17.472 118.784 49.216C686.528 192.896 704 235.136 704 280c0 44.864-17.472 87.04-49.216 118.784A166.976 166.976 0 0 1 536 448c-44.864 0-87.04-17.472-118.784-49.216A166.976 166.976 0 0 1 368 280c0-44.864 17.472-87.04 49.216-118.784A166.976 166.976 0 0 1 536 112z m-72.192 142.016h-0.256a7.936 7.936 0 0 0-7.552 7.68v32.448a7.936 7.936 0 0 0 7.552 7.68h0.256l148.352 0.192h0.256a7.936 7.936 0 0 0 7.552-7.744v-32.384a7.936 7.936 0 0 0-7.552-7.68h-0.256l-148.352-0.192z" p-id="2269"></path></svg>