<?xml version="1.0" standalone="no"?><!DOCTYPE svg PUBLIC "-//W3C//DTD SVG 1.1//EN" "http://www.w3.org/Graphics/SVG/1.1/DTD/svg11.dtd"><svg t="1666017202005" class="icon" viewBox="0 0 1024 1024" version="1.1" xmlns="http://www.w3.org/2000/svg" p-id="1258" xmlns:xlink="http://www.w3.org/1999/xlink" width="200" height="200"><path d="M128 194.603c4.418 0 8 3.579 8 7.993V514.33h792c17.673 0 32 14.315 32 31.973v343.705c0 4.414-3.582 7.993-8 7.993h-56c-4.418 0-8-3.579-8-7.993V754.123H136v135.884c0 4.414-3.582 7.993-8 7.993H72c-4.418 0-8-3.579-8-7.993v-687.41c0-4.415 3.582-7.994 8-7.994h56zM512 65c110.463 0 200 89.537 200 200s-89.537 200-200 200-200-89.537-200-200S401.537 65 512 65z m0 59.26c-37.593 0-72.963 14.629-99.537 41.203-26.574 26.574-41.204 61.944-41.204 99.537s14.63 72.963 41.204 99.537c26.574 26.574 61.944 41.204 99.537 41.204s72.963-14.63 99.537-41.204c26.574-26.574 41.204-61.944 41.204-99.537s-14.63-72.963-41.204-99.537c-26.574-26.574-61.944-41.204-99.537-41.204zM583.75 237c5.539 0 10.088 3.475 10.246 7.77l0.004 0.23v40c0 4.323-4.452 7.873-9.954 7.997l-0.296 0.003h-143.5c-5.539 0-10.088-3.475-10.246-7.77L430 285v-40c0-4.323 4.452-7.873 9.954-7.997l0.296-0.003h143.5z" p-id="1259"></path></svg>