<?xml version="1.0" standalone="no"?><!DOCTYPE svg PUBLIC "-//W3C//DTD SVG 1.1//EN" "http://www.w3.org/Graphics/SVG/1.1/DTD/svg11.dtd"><svg t="1678079114215" class="icon" viewBox="0 0 1024 1024" version="1.1" xmlns="http://www.w3.org/2000/svg" p-id="2140" xmlns:xlink="http://www.w3.org/1999/xlink" width="200" height="200"><path d="M536 64a16 16 0 0 1 16 16v80h352a32 32 0 0 1 32 32v456a32 32 0 0 1-32 32H552v81.28l185.088 185.088A8 8 0 0 1 731.456 960h-73.6a16 16 0 0 1-11.264-4.672L512 820.736 377.408 955.328A16 16 0 0 1 366.144 960H292.48a8 8 0 0 1-5.632-13.632L471.936 761.28V680h-352a32 32 0 0 1-32-32V192a32 32 0 0 1 32-32h352V80a16 16 0 0 1 16-16h48z m-98.304 235.456a8 8 0 0 0-11.264 0l-171.328 170.24a8 8 0 0 0 0 11.264l33.792 34.048a8.064 8.064 0 0 0 11.328 0L432 384.256l154.432 154.432a8 8 0 0 0 11.264 0L769.024 367.36a8 8 0 0 0 0-11.328l-33.92-33.92a8 8 0 0 0-11.328 0L592 453.76z" p-id="2141"></path></svg>