<?xml version="1.0" standalone="no"?><!DOCTYPE svg PUBLIC "-//W3C//DTD SVG 1.1//EN" "http://www.w3.org/Graphics/SVG/1.1/DTD/svg11.dtd"><svg t="1678026074823" class="icon" viewBox="0 0 1024 1024" version="1.1" xmlns="http://www.w3.org/2000/svg" p-id="1204" xmlns:xlink="http://www.w3.org/1999/xlink" width="200" height="200"><path d="M640 88a16 16 0 0 1 16 15.68V328a16 16 0 0 1-15.68 16H384a16 16 0 0 1-16-15.68V104a16 16 0 0 1 15.68-16H640z m-96 256v124.032h296a32 32 0 0 1 32 32V672h-64V531.968H544V672h-64V531.968H216V672h-64V499.968a32 32 0 0 1 32-32h296V344h64z m72 328a16 16 0 0 1 16 15.68V896a16 16 0 0 1-15.68 16H408a16 16 0 0 1-16-15.68V688a16 16 0 0 1 15.68-16H616z m-328 0a16 16 0 0 1 16 15.68V896a16 16 0 0 1-15.68 16H80a16 16 0 0 1-16-15.68V688a16 16 0 0 1 15.68-16H288z m656 0a16 16 0 0 1 16 15.68V896a16 16 0 0 1-15.68 16H736a16 16 0 0 1-16-15.68V688a16 16 0 0 1 15.68-16H944z" p-id="1205"></path></svg>