<?xml version="1.0" standalone="no"?><!DOCTYPE svg PUBLIC "-//W3C//DTD SVG 1.1//EN" "http://www.w3.org/Graphics/SVG/1.1/DTD/svg11.dtd"><svg t="1655115280469" class="icon" viewBox="0 0 1024 1024" version="1.1" xmlns="http://www.w3.org/2000/svg" p-id="55615" xmlns:xlink="http://www.w3.org/1999/xlink" width="200" height="200"><defs><style type="text/css">@font-face { font-family: feedback-iconfont; src: url("//at.alicdn.com/t/font_1031158_u69w8yhxdu.woff2?t=1630033759944") format("woff2"), url("//at.alicdn.com/t/font_1031158_u69w8yhxdu.woff?t=1630033759944") format("woff"), url("//at.alicdn.com/t/font_1031158_u69w8yhxdu.ttf?t=1630033759944") format("truetype"); }
</style></defs><path d="M662.016 72.192c8.704 0 15.872 7.168 15.872 15.872v300.032c0 8.704-7.168 15.872-15.872 15.872H547.84V476.16h218.112c17.92 0 31.744 14.336 31.744 31.744v105.984h114.176c8.704 0 15.872 7.168 15.872 15.872v300.032c0 8.704-7.168 15.872-15.872 15.872h-300.032c-8.704 0-15.872-7.168-15.872-15.872V629.76c0-8.704 7.168-15.872 15.872-15.872h119.296V547.84H292.864v66.048h119.296c8.704 0 15.872 7.168 15.872 15.872v300.032c0 8.704-7.168 15.872-15.872 15.872H112.128c-8.704 0-15.872-7.168-15.872-15.872V629.76c0-8.704 7.168-15.872 15.872-15.872h114.176V507.904c0-17.92 14.336-31.744 31.744-31.744H476.16V403.968H361.984c-8.704 0-15.872-7.168-15.872-15.872V88.064c0-8.704 7.168-15.872 15.872-15.872h300.032z" p-id="55616"></path><path d="M167.936 686.08h187.904v187.904H167.936zM668.16 686.08h187.904v187.904h-187.904zM417.792 143.872h187.904v187.904H417.792z" p-id="55617"></path></svg>