<?xml version="1.0" standalone="no"?><!DOCTYPE svg PUBLIC "-//W3C//DTD SVG 1.1//EN" "http://www.w3.org/Graphics/SVG/1.1/DTD/svg11.dtd"><svg t="1678026078149" class="icon" viewBox="0 0 1024 1024" version="1.1" xmlns="http://www.w3.org/2000/svg" p-id="1360" xmlns:xlink="http://www.w3.org/1999/xlink" width="200" height="200"><path d="M910.976 493.952v399.68c0 9.6-7.808 17.344-17.28 17.344H563.712a17.408 17.408 0 0 1-17.344-17.28V493.888c0-9.6 7.808-17.408 17.344-17.408h329.856c9.6 0 17.344 7.808 17.344 17.408z m0-364.16V390.4c0 9.536-7.808 17.28-17.28 17.28H563.712a17.408 17.408 0 0 1-17.344-17.28V129.728c0-9.536 7.808-17.28 17.344-17.28h329.856c9.6 0 17.344 7.744 17.344 17.28z m-290.752 56.384v147.776h216.96V186.176h-216.96zM476.992 632.768v260.864c0 9.6-7.808 17.344-17.408 17.344H129.728a17.408 17.408 0 0 1-17.28-17.28V632.704c0-9.536 7.744-17.344 17.28-17.344h329.856c9.6 0 17.408 7.808 17.408 17.344z m-290.816 56.448v147.968h216.96V689.28H186.24z m290.816-559.488v398.72c0 9.536-7.808 17.28-17.408 17.28H129.728a17.408 17.408 0 0 1-17.28-17.28v-398.72c0-9.536 7.744-17.28 17.28-17.28h329.856c9.6 0 17.408 7.744 17.408 17.28z" p-id="1361"></path></svg>