<?xml version="1.0" standalone="no"?><!DOCTYPE svg PUBLIC "-//W3C//DTD SVG 1.1//EN" "http://www.w3.org/Graphics/SVG/1.1/DTD/svg11.dtd"><svg t="1678070774748" class="icon" viewBox="0 0 1024 1024" version="1.1" xmlns="http://www.w3.org/2000/svg" p-id="4558" xmlns:xlink="http://www.w3.org/1999/xlink" width="200" height="200"><path d="M912 261.12V752c0 88.32-179.072 160-400 160-218.688 0-396.416-70.208-399.936-157.376V261.12c5.056 6.848 11.328 13.504 18.688 19.968 34.304 36.8 113.216 66.752 215.04 82.624 50.944 8.576 107.136 13.312 166.208 13.312 59.008 0 115.2-4.736 166.016-13.248 102.016-15.872 180.992-45.952 215.296-82.752 7.36-6.4 13.568-13.056 18.688-19.904zM643.008 583.296l-205.44 205.312a8 8 0 0 1-11.264 0l-106.24-106.24-104.448 96.32 0.448 0.256 2.816 1.664 1.536 0.896 2.24 1.28 1.472 0.832 1.6 0.768 1.536 0.832 1.664 0.896 5.76 2.88 2.56 1.216 1.728 0.832 1.856 0.768 1.728 0.832 1.856 0.768 1.792 0.896 1.92 0.768 2.816 1.152 2.816 1.28 1.984 0.704 1.92 0.768c65.472 25.792 156.48 40.96 254.336 40.96 98.88 0 190.656-15.424 256.128-41.664l0.96-0.32 1.92-0.832 1.408-0.64 5.184-2.112 3.648-1.6 1.728-0.896 1.792-0.768 1.728-0.832 5.888-2.816 1.664-0.832 1.6-0.832 0.768-0.448 1.6-0.768a240.64 240.64 0 0 0 12.416-7.104l1.28-0.896 1.408-0.832 0.64-0.384 1.28-0.896 1.28-0.832 1.152-0.768 3.008-2.112 1.088-0.896 3.264-2.496 1.088-0.832 0.192-0.192-183.04-183.04zM296 423.936a56 56 0 1 0 0 112 56 56 0 0 0 0-112z m107.968-298.752a10.24 10.24 0 0 1 0 1.344v192.448l-19.072-1.984a862.208 862.208 0 0 1-19.456-2.752l-3.456-0.64a823.68 823.68 0 0 1-5.248-0.832l-3.456-0.576a789.504 789.504 0 0 1-13.632-2.432l-3.328-0.64a592.896 592.896 0 0 1-98.496-27.072l-2.368-0.896-2.112-0.832-1.024-0.448-2.112-0.832-1.024-0.384-2.56-1.088-2.56-1.024a350.656 350.656 0 0 1-9.92-4.48l-1.664-0.64-1.856-0.96-1.792-0.832-1.792-0.896-0.896-0.448-1.792-0.896-1.728-0.896a268.928 268.928 0 0 1-5.44-2.88l-1.28-0.64-1.664-0.96a235.968 235.968 0 0 1-3.584-2.048l-1.152-0.64-1.536-0.96-1.536-0.896-0.768-0.448-1.408-0.96a148.16 148.16 0 0 1-20.608-15.36l-0.448-0.384-0.448-0.384-0.832-0.832-0.448-0.384-0.384-0.448-0.832-0.768-0.768-0.768a82.368 82.368 0 0 1-2.048-2.176l-0.448-0.512-0.64-0.768-0.512-0.512-0.448-0.576-0.64-0.64c-4.8-6.08-6.784-10.88-6.784-14.592 0-3.648 1.92-8.32 6.528-14.208l0.32-0.384 0.576-0.704 0.448-0.576 0.448-0.512 0.64-0.768 1.984-2.112 0.576-0.512 0.768-0.832 0.832-0.768 0.832-0.832 0.384-0.384 0.896-0.832 0.448-0.384c5.44-4.992 12.032-9.92 19.648-14.72l0.96-0.64 1.408-0.896 0.768-0.512 1.536-0.896 1.536-0.896 3.52-2.048 1.216-0.64 1.6-0.96 5.376-2.88 1.408-0.704 1.728-0.896 1.792-0.896 0.896-0.448 1.792-0.832 1.792-0.896 1.92-0.896 9.856-4.48 1.728-0.64 2.496-1.088 2.56-1.024 1.024-0.448 1.024-0.448 2.112-0.768 2.112-0.832 1.024-0.448a507.52 507.52 0 0 1 46.528-15.168c32.064-7.872 67.648-14.144 105.664-18.432l5.504-0.64 1.024-0.128a8 8 0 0 1 8.768 7.168z m224.832-7.04l2.88 0.256c39.744 4.352 76.8 10.816 110.144 19.008 16.192 4.48 31.488 9.536 45.696 14.976l1.024 0.448 2.112 0.832 1.024 0.384 2.112 0.832 1.024 0.448 2.56 1.024 2.56 1.024c3.392 1.472 6.72 2.944 9.92 4.48l1.664 0.704 1.856 0.896 1.792 0.896 1.792 0.832 0.896 0.448 1.792 0.896 1.728 0.896 5.44 2.88 1.28 0.704 1.664 0.896c1.28 0.64 2.432 1.344 3.584 2.048l1.152 0.64 1.536 0.96 1.536 0.896 0.768 0.512 1.408 0.896c8.064 5.056 14.912 10.24 20.608 15.36l0.448 0.384 0.448 0.448 0.832 0.768 0.448 0.448 0.384 0.384 0.832 0.768 0.768 0.832 2.048 2.112 0.448 0.512 0.64 0.768 0.512 0.512 0.448 0.576 0.64 0.704c4.8 6.016 6.72 10.88 6.72 14.592 0 3.584-1.856 8.32-6.4 14.08l-0.384 0.448-0.576 0.704-0.448 0.576-0.448 0.512-0.64 0.768-1.984 2.112-0.576 0.576-0.768 0.768-0.832 0.768a103.296 103.296 0 0 1-0.832 0.832l-0.384 0.384-0.896 0.832-0.448 0.448a146.368 146.368 0 0 1-19.648 14.72l-0.96 0.64-1.408 0.896-0.768 0.448-1.536 0.896-1.536 0.896-3.52 2.048-1.216 0.704-1.6 0.896-5.376 2.88-1.408 0.704-1.728 0.896-1.792 0.896-0.896 0.448-1.792 0.896-1.792 0.832-1.92 0.896c-3.2 1.472-6.4 3.008-9.856 4.48l-1.728 0.64-2.496 1.088-2.56 1.088-1.024 0.384-1.024 0.448-2.112 0.832-2.112 0.832-1.024 0.384a592.64 592.64 0 0 1-101.504 27.904l-3.392 0.64a787.2 787.2 0 0 1-8.512 1.536l-3.456 0.64c-0.576 0-1.152 0.128-1.728 0.256l-3.456 0.576-3.456 0.512a832 832 0 0 1-1.728 0.256l-3.52 0.576-7.04 1.024-3.584 0.512-3.52 0.512-3.584 0.448a1025.92 1025.92 0 0 1-19.008 1.984V126.848a8.064 8.064 0 0 1 8.768-8.768z" p-id="4559"></path></svg>