<?xml version="1.0" standalone="no"?><!DOCTYPE svg PUBLIC "-//W3C//DTD SVG 1.1//EN" "http://www.w3.org/Graphics/SVG/1.1/DTD/svg11.dtd"><svg t="1677650798094" class="icon" viewBox="0 0 1024 1024" version="1.1" xmlns="http://www.w3.org/2000/svg" p-id="3477" xmlns:xlink="http://www.w3.org/1999/xlink" width="200" height="200"><path d="M389.12 112c57.408 0.128 111.36 22.592 152 63.168a214.4 214.4 0 0 1 63.168 152.64c0 57.6-22.4 111.808-63.168 152.576a214.208 214.208 0 0 1-150.272 63.232H200V880a8 8 0 0 1-7.744 8H120a8 8 0 0 1-8-7.744V120c0-4.288 3.456-7.872 7.744-8H389.12z m448.576 376a16 16 0 0 1 14.592 9.408L902.4 607.68l18.944-19.008a8 8 0 0 1 11.328 0l22.656 22.656a8 8 0 0 1 0 11.328l-31.744 31.68L928 664v216a8 8 0 0 1-8 8h-56a8 8 0 0 1-8-8v-40H576v40a8 8 0 0 1-8 8h-56a8 8 0 0 1-8-8V664l4.416-9.664-31.744-31.68a8 8 0 0 1 0-11.328l22.656-22.656a8 8 0 0 1 11.328 0L529.6 607.68l50.112-110.272A16 16 0 0 1 594.304 488h243.392zM603.968 708.032a35.968 35.968 0 1 0 0 71.936 35.968 35.968 0 0 0 0-71.936z m224 0a35.968 35.968 0 1 0 0 71.936 35.968 35.968 0 0 0 0-71.936zM806.848 552H625.152l-43.648 96h268.8l-43.52-96zM388.864 208H208v239.616h182.848c30.912-0.576 59.52-12.608 81.664-34.432l0.704-0.64a118.4 118.4 0 0 0 35.072-84.736 118.4 118.4 0 0 0-35.072-84.736A118.208 118.208 0 0 0 389.888 208h-0.96z" p-id="3478"></path></svg>