<?xml version="1.0" standalone="no"?><!DOCTYPE svg PUBLIC "-//W3C//DTD SVG 1.1//EN" "http://www.w3.org/Graphics/SVG/1.1/DTD/svg11.dtd"><svg t="1677650802347" class="icon" viewBox="0 0 1024 1024" version="1.1" xmlns="http://www.w3.org/2000/svg" p-id="3631" xmlns:xlink="http://www.w3.org/1999/xlink" width="200" height="200"><path d="M555.968 371.968l0.064 0.064c99.84 0 183.296 70.4 203.392 164.288A188.032 188.032 0 0 1 748.032 912h-384a187.968 187.968 0 0 1-11.456-375.68 208.064 208.064 0 0 1 203.392-164.352zM406.016 185.984c94.912 0 175.808 60.16 206.656 144.384a255.488 255.488 0 0 0-35.008-5.44h-0.896l-0.896-0.96H552.32a257.92 257.92 0 0 0-13.248 0.576A155.968 155.968 0 1 0 282.88 501.76a234.752 234.752 0 0 0-57.408 29.888A219.968 219.968 0 0 1 406.016 185.92z m-208 188.032c4.48 0 7.936 3.52 7.936 8v48a8 8 0 0 1-8 8h-89.92a8 8 0 0 1-8-8v-48c0-4.48 3.584-8 8-8h89.92z m13.312-204.672c2.112 0 4.16 0.896 5.696 2.368h-0.064l64.64 64.64a8 8 0 0 1 0 11.264l-33.92 33.92a8 8 0 0 1-11.392 0l-64.512-64.576a8 8 0 0 1 0-11.328l33.92-33.92a8 8 0 0 1 5.632-2.368z m389.312 0c2.176 0 4.16 0.896 5.696 2.368l33.92 33.92a8 8 0 0 1 0 11.328l-64.512 64.64a8 8 0 0 1-11.328 0l-33.92-33.92a8 8 0 0 1 0-11.392l64.512-64.576a8 8 0 0 1 5.632-2.368z m-170.56-69.312c4.416 0 8 3.584 8 8v89.984a8 8 0 0 1-8 8h-48a8 8 0 0 1-8-8v-89.984c0-4.48 3.584-8 8-8h48z" p-id="3632"></path></svg>