<?xml version="1.0" standalone="no"?><!DOCTYPE svg PUBLIC "-//W3C//DTD SVG 1.1//EN" "http://www.w3.org/Graphics/SVG/1.1/DTD/svg11.dtd"><svg t="1677676152335" class="icon" viewBox="0 0 1024 1024" version="1.1" xmlns="http://www.w3.org/2000/svg" p-id="1685" xmlns:xlink="http://www.w3.org/1999/xlink" width="200" height="200"><path d="M512 125.056v357.888l-43.136 59.328-64.64-88.96a16.256 16.256 0 0 0-9.28-6.208l-3.776-0.448H336a8.064 8.064 0 0 0-7.808 9.984l1.28 2.752 126.4 174.08a16.064 16.064 0 0 0 22.912 3.2l3.072-3.2L512 592V483.2l107.84-148.48a16.512 16.512 0 0 1 9.216-6.272l3.712-0.512H688a8.064 8.064 0 0 1 7.808 10.048l-1.28 2.688L512 592v294.528l297.984-232.32v-427.52L512 125.056z m7.616-72.576l7.424 1.664 339.84 115.84a23.296 23.296 0 0 1 14.08 15.744l0.768 5.44v482.368a37.12 37.12 0 0 1-8.384 21.696l-4.16 4.224L524.48 968.064a20.48 20.48 0 0 1-8.192 3.648l-4.288 0.384a21.44 21.44 0 0 1-8.768-1.856l-3.84-2.176-344.704-268.672a38.4 38.4 0 0 1-11.968-20.352l-0.64-5.568V191.104c0-7.296 4.736-15.168 11.072-19.264l4.032-1.92L496.96 54.08a41.984 41.984 0 0 1 9.6-1.856l5.44-0.192 7.616 0.384z" p-id="1686"></path></svg>