<?xml version="1.0" standalone="no"?><!DOCTYPE svg PUBLIC "-//W3C//DTD SVG 1.1//EN" "http://www.w3.org/Graphics/SVG/1.1/DTD/svg11.dtd"><svg t="1702464694098" class="icon" viewBox="0 0 1024 1024" version="1.1" xmlns="http://www.w3.org/2000/svg" p-id="2212" xmlns:xlink="http://www.w3.org/1999/xlink" width="200" height="200"><path d="M212.032 112a100.032 100.032 0 1 1 0 200 100.032 100.032 0 0 1 0-200z m0 300.032a100.032 100.032 0 1 1 0 200 100.032 100.032 0 0 1 0-200.064z m0 299.968a99.968 99.968 0 1 1 0 200 99.968 99.968 0 0 1 0-200zM512 112a99.968 99.968 0 1 1 0 200 99.968 99.968 0 0 1 0-200z m0 300.032a99.968 99.968 0 1 1 0 199.936 99.968 99.968 0 0 1 0-199.936zM512 712a99.968 99.968 0 1 1 0 200 99.968 99.968 0 0 1 0-200z m300.032-600a99.968 99.968 0 1 1 0 200 99.968 99.968 0 0 1 0-200z m0 300.032a99.968 99.968 0 1 1 0 199.936 99.968 99.968 0 0 1 0-199.936z m0 299.968a99.968 99.968 0 1 1 0 200 99.968 99.968 0 0 1 0-200z" p-id="2213"></path></svg>