<?xml version="1.0" standalone="no"?><!DOCTYPE svg PUBLIC "-//W3C//DTD SVG 1.1//EN" "http://www.w3.org/Graphics/SVG/1.1/DTD/svg11.dtd"><svg t="1678026086070" class="icon" viewBox="0 0 1024 1024" version="1.1" xmlns="http://www.w3.org/2000/svg" p-id="1670" xmlns:xlink="http://www.w3.org/1999/xlink" width="200" height="200"><path d="M512 64a448 448 0 1 1 0 896 448 448 0 0 1 0-896zM411.456 312.448v0.064h-57.28a12.416 12.416 0 0 0-10.432 18.304L452.48 529.728h-56.448a12.416 12.416 0 0 0-11.776 12.288v26.88a12.416 12.416 0 0 0 12.48 11.712h77.824v36.736h-78.656a12.416 12.416 0 0 0-11.712 12.288v26.88c0.384 6.592 5.824 11.776 12.48 11.776h77.824v64.576c0.32 6.528 5.76 11.712 12.352 11.712h51.52a12.416 12.416 0 0 0 11.712-12.416v-63.872h79.04a12.416 12.416 0 0 0 11.648-12.416v-26.88a12.416 12.416 0 0 0-12.352-11.648H550.08v-36.736h79.04a12.416 12.416 0 0 0 11.648-12.288v-26.88a12.416 12.416 0 0 0-12.352-11.84h-56.32l108.16-198.784a12.416 12.416 0 0 0-10.88-18.304h0.064-56.256a12.16 12.16 0 0 0-10.368 6.848l-90.304 177.92-89.984-177.92a12.608 12.608 0 0 0-11.072-6.848z" p-id="1671"></path></svg>