<?xml version="1.0" standalone="no"?><!DOCTYPE svg PUBLIC "-//W3C//DTD SVG 1.1//EN" "http://www.w3.org/Graphics/SVG/1.1/DTD/svg11.dtd"><svg t="1705563280566" class="icon" viewBox="0 0 1024 1024" version="1.1" xmlns="http://www.w3.org/2000/svg" p-id="811" xmlns:xlink="http://www.w3.org/1999/xlink" width="200" height="200"><path d="M373.76 529.024h3.2c107.776 0 209.984 22.912 306.688 68.8 18.624 8.896 30.592 27.52 30.848 48.192v146.24a6.72 6.72 0 0 1-6.528 6.72H46.208a6.72 6.72 0 0 1-6.72-6.528V646.656c0-20.864 12.032-39.872 30.848-48.832a706.368 706.368 0 0 1 303.488-68.8z m346.368 34.88a613.568 613.568 0 0 1 244.8 59.52c16.192 7.68 26.624 24 26.88 41.92V792.64a5.888 5.888 0 0 1-5.504 5.824H762.176a55.296 55.296 0 0 0 0.32-6.208V644.288a102.016 102.016 0 0 0-41.6-79.872l-0.768-0.512z m-19.392-300.032h1.344a126.336 126.336 0 1 1-1.344 0z m-195.712-7.36A145.152 145.152 0 1 1 254.592 403.2 145.152 145.152 0 0 1 504.96 256.512z" p-id="812"></path></svg>