<?xml version="1.0" standalone="no"?><!DOCTYPE svg PUBLIC "-//W3C//DTD SVG 1.1//EN" "http://www.w3.org/Graphics/SVG/1.1/DTD/svg11.dtd"><svg t="1660979313241" class="icon" viewBox="0 0 1024 1024" version="1.1" xmlns="http://www.w3.org/2000/svg" p-id="1427" xmlns:xlink="http://www.w3.org/1999/xlink" width="200" height="200"><defs><style type="text/css">@font-face { font-family: feedback-iconfont; src: url("//at.alicdn.com/t/font_1031158_u69w8yhxdu.woff2?t=1630033759944") format("woff2"), url("//at.alicdn.com/t/font_1031158_u69w8yhxdu.woff?t=1630033759944") format("woff"), url("//at.alicdn.com/t/font_1031158_u69w8yhxdu.ttf?t=1630033759944") format("truetype"); }
</style></defs><path d="M928 160c17.673 0 32 14.327 32 32v640c0 17.673-14.327 32-32 32H96c-17.673 0-32-14.327-32-32V192c0-17.673 14.327-32 32-32h832zM794.69 352L554.419 591.792a4.752 4.752 0 0 0-1.293 3.168h-0.041L552 662.787a9.172 9.172 0 0 0 9.133 9.213h0.208l67.26-1.668a4.713 4.713 0 0 0 3.087-1.25L872 429.29 794.69 352zM328 518.25a327.025 327.025 0 0 0-141.975 31.875 25 25 0 0 0-14.275 22.6v67.5a3.126 3.126 0 0 0 3.125 3.025h306.35a3.126 3.126 0 0 0 3.025-3.125v-67.7a25 25 0 0 0-14.275-22.3C425.2 528.875 377.875 518.25 328 518.25z m466.69-114.765l25.77 25.68L614.925 634.19l-26.062 0.625 0.417-26.43v0.041l205.41-204.94zM328 355.75c-37.107 0-67.188 30.08-67.188 67.188 0 37.106 30.081 67.187 67.188 67.187a67.187 67.187 0 0 0 58.186-100.781A67.187 67.187 0 0 0 328 355.75z" p-id="1428"></path></svg>