<?xml version="1.0" standalone="no"?><!DOCTYPE svg PUBLIC "-//W3C//DTD SVG 1.1//EN" "http://www.w3.org/Graphics/SVG/1.1/DTD/svg11.dtd"><svg t="1658235983502" class="icon" viewBox="0 0 1024 1024" version="1.1" xmlns="http://www.w3.org/2000/svg" p-id="31648" xmlns:xlink="http://www.w3.org/1999/xlink" width="200" height="200"><defs><style type="text/css">@font-face { font-family: feedback-iconfont; src: url("//at.alicdn.com/t/font_1031158_u69w8yhxdu.woff2?t=1630033759944") format("woff2"), url("//at.alicdn.com/t/font_1031158_u69w8yhxdu.woff?t=1630033759944") format("woff"), url("//at.alicdn.com/t/font_1031158_u69w8yhxdu.ttf?t=1630033759944") format("truetype"); }
</style></defs><path d="M838.068 624.76a8.096 8.096 0 0 1 4.563 8.784l-0.095 0.521c-11.292 61.328-39.79 118.637-82.739 164.909C703.549 859.574 608.665 894 526.057 894h-3.21C547.444 898.82 566 920.493 566 946.5c0 29.547-23.953 53.5-53.5 53.5S459 976.047 459 946.5c0-26.007 18.557-47.68 43.152-52.5h-4.208c-82.609 0-177.493-34.427-233.741-95.026-41.701-44.927-69.778-100.259-81.71-159.571l-0.198-0.998a8.653 8.653 0 0 1 16.173-5.638l0.122 0.245c11.772 24.531 25.606 46.096 41.502 64.695l1.259 1.462 22.852 26.35c55.467 63.958 151.643 94.415 236.138 95.017l2.562 0.01h18.194c84.58 0 181.047-29.818 237.012-93.099l1.688-1.928 22.852-26.35c16.893-19.479 31.561-42.493 44.005-69.042l0.664-1.426a8.096 8.096 0 0 1 10.75-3.94zM268.184 51.505l112.184 108.592h263.263L755.816 51.504c10.101-9.778 25.96-9.984 36.303-0.712l1.087 1.03 31.363 31.405a80.163 80.163 0 0 1 23.396 54.289l0.035 2.357v344.665c0 64.352-23.207 126.539-65.35 175.12L759.796 686c-56.028 64.586-153.266 95-238.7 95h-18.194c-85.434 0-182.672-30.414-238.7-95l-22.852-26.342C199.207 611.077 176 548.89 176 484.538V139.873a80.165 80.165 0 0 1 23.431-56.646l31.363-31.406c10.29-10.303 26.928-10.444 37.39-0.317zM552 562.277h-80c-4.327 0-8.538 1.401-12 3.993-8.737 6.54-10.586 18.846-4.22 27.648l0.22 0.299 34.667 46.135a26.642 26.642 0 0 0 5.333 5.323c11.664 8.732 28.163 6.483 37.066-4.973l0.267-0.35L568 594.217c2.596-3.456 4-7.658 4-11.978 0-11.024-8.954-19.962-20-19.962zM388 356c-19.882 0-36 16.118-36 36s16.118 36 36 36 36-16.118 36-36-16.118-36-36-36z m248 0c-19.882 0-36 16.118-36 36s16.118 36 36 36 36-16.118 36-36-16.118-36-36-36z" p-id="31649"></path></svg>