<?xml version="1.0" standalone="no"?><!DOCTYPE svg PUBLIC "-//W3C//DTD SVG 1.1//EN" "http://www.w3.org/Graphics/SVG/1.1/DTD/svg11.dtd"><svg t="1700646112386" class="icon" viewBox="0 0 1024 1024" version="1.1" xmlns="http://www.w3.org/2000/svg" p-id="802" xmlns:xlink="http://www.w3.org/1999/xlink" width="200" height="200"><path d="M162.24 874.24l-82.624-82.56a56 56 0 0 1 0-79.232L198.4 593.6a56 56 0 0 1 79.168 0L396.8 712.832A513.408 513.408 0 0 0 710.848 394.88L593.6 277.568a56 56 0 0 1 0-79.168L712.384 79.616a56 56 0 0 1 79.232 0l79.936 79.936A128.64 128.64 0 0 1 912.64 271.36l-1.024 7.872c-2.112 15.744-3.84 26.624-5.056 32.704a768.896 768.896 0 0 1-606.784 600.256l-1.408 0.256a613.12 613.12 0 0 1-23.104 3.456c-42.24 5.76-84.48-9.92-113.024-41.6z" p-id="803"></path></svg>