<?xml version="1.0" standalone="no"?><!DOCTYPE svg PUBLIC "-//W3C//DTD SVG 1.1//EN" "http://www.w3.org/Graphics/SVG/1.1/DTD/svg11.dtd"><svg t="1703830396141" class="icon" viewBox="0 0 1024 1024" version="1.1" xmlns="http://www.w3.org/2000/svg" p-id="2614" xmlns:xlink="http://www.w3.org/1999/xlink" width="200" height="200"><path d="M181.376 852.608l-77.888-77.824a52.8 52.8 0 0 1 0-74.688l112-112a52.8 52.8 0 0 1 74.624 0l112.384 112.32A484.032 484.032 0 0 0 698.56 400.704L588.032 290.112a52.8 52.8 0 0 1 0-74.624l112-112a52.8 52.8 0 0 1 74.688 0l75.392 75.328a121.268 121.268 0 0 1 38.72 105.408l-0.96 7.424a554.304 554.304 0 0 1-4.8 30.848A724.864 724.864 0 0 1 311.04 888.384l-1.28 0.256c-7.296 1.28-14.528 2.304-21.824 3.2a121.408 121.408 0 0 1-106.56-39.168z" p-id="2615"></path></svg>