<?xml version="1.0" standalone="no"?><!DOCTYPE svg PUBLIC "-//W3C//DTD SVG 1.1//EN" "http://www.w3.org/Graphics/SVG/1.1/DTD/svg11.dtd"><svg t="1709114375123" class="icon" viewBox="0 0 1024 1024" version="1.1" xmlns="http://www.w3.org/2000/svg" p-id="4624" xmlns:xlink="http://www.w3.org/1999/xlink" width="200" height="200"><path d="M859.558 156.612a28.853 28.853 0 0 1 28.913 28.973V880.76a28.853 28.853 0 0 1-28.913 28.913H164.442a28.853 28.853 0 0 1-28.913-28.913V185.645a28.844 28.844 0 0 1 28.913-28.913l695.116-0.06zM554.285 308.344a7.53 7.53 0 0 0-12.167 5.602V752.52c0 4.096 3.252 7.408 7.288 7.529h45.418a7.53 7.53 0 0 0 7.529-7.289V422.008l40.538 31.564a7.53 7.53 0 0 0 12.168-5.723V394a15.059 15.059 0 0 0-5.482-11.565l-0.3-0.241-94.992-73.909z m-79.932-1.867h-45.177a7.53 7.53 0 0 0-7.529 7.228v330.752l-40.538-31.563a7.53 7.53 0 0 0-12.168 5.662v53.85a15.059 15.059 0 0 0 5.482 11.626l0.3 0.24 94.992 73.91a7.53 7.53 0 0 0 12.167-5.662V313.946a7.53 7.53 0 0 0-7.288-7.53h-0.241z" p-id="4625"></path></svg>