<?xml version="1.0" standalone="no"?><!DOCTYPE svg PUBLIC "-//W3C//DTD SVG 1.1//EN" "http://www.w3.org/Graphics/SVG/1.1/DTD/svg11.dtd"><svg t="1709114348711" class="icon" viewBox="0 0 1024 1024" version="1.1" xmlns="http://www.w3.org/2000/svg" p-id="4006" xmlns:xlink="http://www.w3.org/1999/xlink" width="200" height="200"><path d="M897.536 126.464a104 104 0 0 0-145.92-1.216l-1.152 1.216-142.912 142.848h-394.24a32 32 0 0 0-22.656 9.408l-75.136 75.136a16 16 0 0 0 7.04 26.752l293.696 80-117.12 117.184-149.76-40.768a8 8 0 0 0-7.68 2.048l-38.208 38.208a8 8 0 0 0 1.792 12.608l211.328 117.568 117.376 211.328a8 8 0 0 0 12.672 1.728l38.272-38.272a8 8 0 0 0 2.048-7.744l-40.768-149.632 117.12-117.12 80 293.696a16 16 0 0 0 26.816 7.04l75.136-75.136a32 32 0 0 0 9.408-22.656V416.384l142.848-142.912a103.936 103.936 0 0 0 0-147.008z" p-id="4007"></path></svg>