<?xml version="1.0" standalone="no"?><!DOCTYPE svg PUBLIC "-//W3C//DTD SVG 1.1//EN" "http://www.w3.org/Graphics/SVG/1.1/DTD/svg11.dtd"><svg t="1657267142156" class="icon" viewBox="0 0 1024 1024" version="1.1" xmlns="http://www.w3.org/2000/svg" p-id="883" xmlns:xlink="http://www.w3.org/1999/xlink" width="200" height="200"><defs><style type="text/css">@font-face { font-family: feedback-iconfont; src: url("//at.alicdn.com/t/font_1031158_u69w8yhxdu.woff2?t=1630033759944") format("woff2"), url("//at.alicdn.com/t/font_1031158_u69w8yhxdu.woff?t=1630033759944") format("woff"), url("//at.alicdn.com/t/font_1031158_u69w8yhxdu.ttf?t=1630033759944") format("truetype"); }
</style></defs><path d="M371.09987556 154.61034667C307.26295666 222.62215111 284.39817444 317.81925888 302.45698333 405.20059221a275.2512 275.2512 0 0 0 68.64289223 133.25653334L551.34814777 730.45333333l180.19972779-191.94766222A275.73665223 275.73665223 0 0 0 800.19076779 405.20059221C818.34666667 317.81925888 795.43333888 222.67069667 731.54787556 154.61034667c-99.51763001-106.02268445-260.93036999-106.02268445-360.448 0z m334.57341668 150.00462222c13.39847111 56.06968889-0.48545223 117.9648-41.74886002 161.89819221-62.13783666 66.21563221-163.06327666 66.21563221-225.24965888 0-41.21486222-43.88484779-55.14732999-105.82850333-41.74885888-161.94673777a171.84995555 171.84995555 0 0 1 41.74885888-78.01211222 156.07276999 156.07276999 0 0 1 73.25468444-44.46739001 149.85898667 149.85898667 0 0 1 78.83738112 0 156.31549667 156.31549667 0 0 1 73.25468444 44.46739001c20.92297443 22.33078557 34.85544334 49.4189989 41.6517689 78.01211222z" p-id="884"></path><path d="M442.1214811 329.95555555a109.22666667 109.22666667 0 1 0 218.45333334 0 109.22666667 109.22666667 0 0 0-218.45333334 0z" p-id="885"></path><path d="M599.35933668 948.90666667a25.43767666 25.43767666 0 0 1-14.70919111-4.66033778l-217.87079111-151.55806777-175.34520889 111.7995611a25.38913223 25.38913223 0 0 1-26.99112335 0.33981668 28.78729443 28.78729443 0 0 1-13.59265222-24.75804445v-412.34280334c0-15.72864 11.99066112-28.49602333 26.79694222-28.49602332 14.75773667 0 26.74839666 12.76738333 26.74839779 28.49602332v362.09853668l149.22789888-95.14856334a25.38913223 25.38913223 0 0 1 28.4474789 0.58254222l217.62806443 151.46097778 225.73511111-148.06281444v-271.02776889c0-15.68009443 12.03920555-28.4474789 26.79694222-28.4474789 14.8062811 0 26.79694222 12.76738333 26.79694222 28.4474789v286.90204445c0 9.85467221-4.8545189 19.02971221-12.76738332 24.27259221l-252.92041444 165.83035221a25.00076999 25.00076999 0 0 1-13.98101333 4.27197668z" p-id="886"></path></svg>