<?xml version="1.0" standalone="no"?><!DOCTYPE svg PUBLIC "-//W3C//DTD SVG 1.1//EN" "http://www.w3.org/Graphics/SVG/1.1/DTD/svg11.dtd"><svg t="1678070712390" class="icon" viewBox="0 0 1024 1024" version="1.1" xmlns="http://www.w3.org/2000/svg" p-id="2228" xmlns:xlink="http://www.w3.org/1999/xlink" width="200" height="200"><path d="M832 64a32 32 0 0 1 32 32v832a32 32 0 0 1-32 32H192a32 32 0 0 1-32-32V96a32 32 0 0 1 32-32h640zM612.864 547.2h-115.84a16 16 0 0 0-13.888 8l-84.864 147.52a8 8 0 0 0 6.912 11.968h67.968L449.6 826.24a8 8 0 0 0 13.76 7.04l157.248-174.336a8 8 0 0 0-5.952-13.312h-80.64L612.8 547.2z m-80.832-362.368V248a8 8 0 0 1-8.064 8h-23.936a8 8 0 0 1-8-8v-63.168A240 240 0 0 0 272.064 415.36v0.512a7.872 7.872 0 0 0 7.68 8.128h192.192a40 40 0 0 1 46.528-39.488l66.816-66.816a8 8 0 0 1 11.328 0l22.656 22.592a8 8 0 0 1 0 11.328L551.68 419.2c0.192 1.6 0.256 3.2 0.256 4.8h191.616a8 8 0 0 0 8.256-7.744v-1.344a240 240 0 0 0-219.84-230.08z" p-id="2229"></path></svg>