<?xml version="1.0" standalone="no"?><!DOCTYPE svg PUBLIC "-//W3C//DTD SVG 1.1//EN" "http://www.w3.org/Graphics/SVG/1.1/DTD/svg11.dtd"><svg t="1677676188639" class="icon" viewBox="0 0 1024 1024" version="1.1" xmlns="http://www.w3.org/2000/svg" p-id="2767" xmlns:xlink="http://www.w3.org/1999/xlink" width="200" height="200"><path d="M822.784 118.784a8 8 0 0 0-11.136-0.192l-0.192 0.192L698.24 232H465.6a64 64 0 0 0-45.504 19.008l-0.448 0.512L206.208 472H40a8 8 0 0 0-8 7.744V544c0 4.352 3.456 7.872 7.744 8h165.504l85.12 87.936-111.552 111.552a8 8 0 0 0-0.256 11.072l0.256 0.256 42.368 42.368a8 8 0 0 0 11.136 0.256l0.192-0.256 632.704-632.64a8 8 0 0 0 0.192-11.136l-0.192-0.192-42.432-42.432zM800 305.664l-112 112V672a8 8 0 0 1-7.744 8H640a8 8 0 0 1-8-7.744V473.6L376.64 729.024l43.008 44.48a64 64 0 0 0 45.312 19.52H784a16 16 0 0 0 16-15.68v-85.376h152a8 8 0 0 0 8-7.68v-56.256a8 8 0 0 0-7.744-8H800V435.968h152a8 8 0 0 0 8-7.68v-56.32a8 8 0 0 0-7.744-7.936H800V305.6z" p-id="2768"></path></svg>