<?xml version="1.0" standalone="no"?><!DOCTYPE svg PUBLIC "-//W3C//DTD SVG 1.1//EN" "http://www.w3.org/Graphics/SVG/1.1/DTD/svg11.dtd"><svg t="1678026065279" class="icon" viewBox="0 0 1024 1024" version="1.1" xmlns="http://www.w3.org/2000/svg" p-id="894" xmlns:xlink="http://www.w3.org/1999/xlink" width="200" height="200"><path d="M880 112a32 32 0 0 1 32 32v736a32 32 0 0 1-32 32H144a32 32 0 0 1-32-32V144a32 32 0 0 1 32-32h736zM304 648.064a44.032 44.032 0 1 0 0 88.064 44.032 44.032 0 0 0 0-88.064z m419.968 8H412.032a8.064 8.064 0 0 0-8.064 8.064v55.936c0 4.416 3.648 8.064 8.064 8.064h311.936a8.128 8.128 0 0 0 8.064-8.064v-56a8.064 8.064 0 0 0-8.064-8.064v0.064zM304 468.096a44.032 44.032 0 1 0 0 88 44.032 44.032 0 1 0 0-88.064v0.064z m419.968 8H412.032a8.064 8.064 0 0 0-8.064 8.064v55.936c0 4.352 3.648 8.064 8.064 8.064h311.936a8.128 8.128 0 0 0 8.064-8.064v-56.064a8.064 8.064 0 0 0-8.064-8zM304 288.128a44.032 44.032 0 1 0 0 88 44.032 44.032 0 0 0 0-88.064z m419.968 7.936H412.032a8.064 8.064 0 0 0-8.064 8.064v55.936c0 4.416 3.648 8.064 8.064 8.064h311.936a8.128 8.128 0 0 0 8.064-8.064v-56a8.064 8.064 0 0 0-8.064-8.064v0.064z" p-id="895"></path></svg>