<?xml version="1.0" encoding="UTF-8"?>
<svg width="16px" height="16px" viewBox="0 0 16 16" version="1.1" xmlns="http://www.w3.org/2000/svg" xmlns:xlink="http://www.w3.org/1999/xlink">
    <title>二维码/fill</title>
    <g id="已有图标整理" stroke="none" stroke-width="1" fill="none" fill-rule="evenodd">
        <g id="霜冻备份-30" fill="#0A1B39" fill-rule="nonzero">
            <g id="qrcode-outlined">
                <rect id="矩形" opacity="0" x="0" y="0" width="16" height="16"></rect>
                <path d="M7.3125,2 C7.38125,2 7.4375,2.05625 7.4375,2.125 L7.4375,2.125 L7.4375,7.3125 C7.4375,7.38125 7.38125,7.4375 7.3125,7.4375 L7.3125,7.4375 L2.125,7.4375 C2.05625,7.4375 2,7.38125 2,7.3125 L2,7.3125 L2,2.5 C2,2.2234375 2.2234375,2 2.5,2 L2.5,2 Z M5.5625,3.875 L3.875,3.875 L3.875,5.5625 L5.5625,5.5625 L5.5625,3.875 Z M7.3125,8.5625 L2.125,8.5625 C2.05625,8.5625 2,8.61875 2,8.6875 L2,13.5 C2,13.7765625 2.2234375,14 2.5,14 L7.3125,14 C7.38125,14 7.4375,13.94375 7.4375,13.875 L7.4375,8.6875 C7.4375,8.61875 7.38125,8.5625 7.3125,8.5625 Z M13.5,2 L8.6875,2 C8.61875,2 8.5625,2.05625 8.5625,2.125 L8.5625,7.3125 C8.5625,7.38125 8.61875,7.4375 8.6875,7.4375 L13.875,7.4375 C13.94375,7.4375 14,7.38125 14,7.3125 L14,2.5 C14,2.2234375 13.7765625,2 13.5,2 Z M13.875,8.5625 L13.125,8.5625 C13.05625,8.5625 13,8.61875 13,8.6875 L13,10.53125 L11.78125,10.53125 L11.78125,8.6875 C11.78125,8.61875 11.725,8.5625 11.65625,8.5625 L8.6875,8.5625 C8.61875,8.5625 8.5625,8.61875 8.5625,8.6875 L8.5625,13.875 C8.5625,13.94375 8.61875,14 8.6875,14 L9.6875,14 C9.75625,14 9.8125,13.94375 9.8125,13.875 L9.8125,9.8125 L10.78125,9.8125 L10.78125,11.65625 C10.78125,11.725 10.8375,11.78125 10.90625,11.78125 L13.875,11.78125 C13.94375,11.78125 14,11.725 14,11.65625 L14,8.6875 C14,8.61875 13.94375,8.5625 13.875,8.5625 Z M11.90625,12.75 L10.90625,12.75 C10.8375,12.75 10.78125,12.80625 10.78125,12.875 L10.78125,13.875 C10.78125,13.94375 10.8375,14 10.90625,14 L11.90625,14 C11.975,14 12.03125,13.94375 12.03125,13.875 L12.03125,12.875 C12.03125,12.80625 11.975,12.75 11.90625,12.75 Z M13.875,12.75 C13.94375,12.75 14,12.80625 14,12.875 L14,12.875 L14,13.875 C14,13.94375 13.94375,14 13.875,14 L13.875,14 L12.875,14 C12.80625,14 12.75,13.94375 12.75,13.875 L12.75,13.875 L12.75,12.875 C12.75,12.80625 12.80625,12.75 12.875,12.75 L12.875,12.75 Z M5.5625,10.4375 L5.5625,12.125 L3.875,12.125 L3.875,10.4375 L5.5625,10.4375 Z M12.125,3.875 L12.125,5.5625 L10.4375,5.5625 L10.4375,3.875 L12.125,3.875 Z" id="形状"></path>
            </g>
        </g>
    </g>
</svg>