<?xml version="1.0" standalone="no"?><!DOCTYPE svg PUBLIC "-//W3C//DTD SVG 1.1//EN" "http://www.w3.org/Graphics/SVG/1.1/DTD/svg11.dtd"><svg t="1709114345353" class="icon" viewBox="0 0 1024 1024" version="1.1" xmlns="http://www.w3.org/2000/svg" p-id="3854" xmlns:xlink="http://www.w3.org/1999/xlink" width="200" height="200"><path d="M228.032 174.016c22.912 0 42.304 14.784 49.28 35.392L805.12 312H928a32 32 0 0 1 32 31.488v410.496a32 32 0 0 1-32 32H819.968V848a16 16 0 0 1-16 16h-39.936a16 16 0 0 1-16-16v-62.016H275.904V848a16 16 0 0 1-16 16h-40a16 16 0 0 1-16-16v-62.016H96a32 32 0 0 1-32-31.424V344a32 32 0 0 1 32-32h373.76l-214.528-41.664a51.968 51.968 0 1 1-27.2-96.32zM224 584a40 40 0 1 0 0 80 40 40 0 0 0 0-80z m120 0a40 40 0 1 0 0 80 40 40 0 0 0 0-80z m120 0a40 40 0 1 0 0 80 40 40 0 0 0 0-80z m254.976-168a120.96 120.96 0 1 0 0 241.984 120.96 120.96 0 0 0 0-241.984z m0 56a65.024 65.024 0 1 1 0 129.984 65.024 65.024 0 0 1 0-129.984zM304 416h-24a16 16 0 0 0-16 15.68V456h-64a16 16 0 0 0-16 15.68V496c0 8.704 7.04 15.808 15.68 16H264v24c0 8.704 7.04 15.808 15.68 16H304a16 16 0 0 0 16-15.68V512h206.016a16 16 0 0 0 16-15.68V472a16 16 0 0 0-15.68-16H320v-24a16 16 0 0 0-16-16z" p-id="3855"></path></svg>