<?xml version="1.0" standalone="no"?><!DOCTYPE svg PUBLIC "-//W3C//DTD SVG 1.1//EN" "http://www.w3.org/Graphics/SVG/1.1/DTD/svg11.dtd"><svg t="1709114338362" class="icon" viewBox="0 0 1024 1024" version="1.1" xmlns="http://www.w3.org/2000/svg" p-id="3548" xmlns:xlink="http://www.w3.org/1999/xlink" width="200" height="200"><path d="M512 280c67.904 0 129.408 27.52 173.952 72.064a245.248 245.248 0 0 1 72.064 173.952c0 67.904-27.52 129.408-72.064 173.952A245.376 245.376 0 0 1 552 768.768V472h100.032a8 8 0 0 0 7.936-7.744V400a8 8 0 0 0-7.68-8h-280.32a8 8 0 0 0-8 7.744V464c0 4.352 3.392 7.872 7.68 8h100.288v296.768a245.376 245.376 0 0 1-133.952-68.8 245.248 245.248 0 0 1-72.064-173.952c0-67.968 27.52-129.472 72.064-173.952A245.248 245.248 0 0 1 512 280z m72-192c4.416 0 8 3.584 8 8v50.24a390.144 390.144 0 0 1 252.288 586.048l-1.28 2.112-1.152 1.728-0.96 1.472-1.28 2.048-1.28 1.792-1.92 2.944-2.24 3.264-1.6 2.304a8 8 0 0 1-11.264 1.92l-51.84-37.504a8 8 0 0 1-1.92-11.008l1.472-2.112 1.024-1.408 1.472-2.304 1.344-1.984 0.704-1.088 0.448-0.704 0.192-0.32a310.016 310.016 0 1 0-527.168-4.288l0.64 0.896 0.832 1.408 1.024 1.472 1.024 1.664 0.896 1.28 1.536 2.368 1.408 2.048 2.176 3.328a8 8 0 0 1-1.92 10.944l-51.776 37.632a8 8 0 0 1-11.2-1.728l-1.792-2.688-1.92-2.88-1.472-2.112-1.664-2.56-1.536-2.24-1.024-1.664-0.768-1.152A390.144 390.144 0 0 1 432 146.24V96c0-4.416 3.584-8 8-8h144zM203.968 832h616.064c4.416 0 7.936 3.584 7.936 8v64a8 8 0 0 1-7.936 8H203.968a8 8 0 0 1-7.936-8v-64c0-4.416 3.52-8 7.936-8z" p-id="3549"></path></svg>