<?xml version="1.0" standalone="no"?><!DOCTYPE svg PUBLIC "-//W3C//DTD SVG 1.1//EN" "http://www.w3.org/Graphics/SVG/1.1/DTD/svg11.dtd"><svg t="1725361357977" class="icon" viewBox="0 0 1024 1024" version="1.1" xmlns="http://www.w3.org/2000/svg" p-id="1782" xmlns:xlink="http://www.w3.org/1999/xlink" width="200" height="200"><path d="M227.392 529.984a16 16 0 0 1 13.056 6.784L323.2 654.08h143.616c12.544-20.096 34.688-33.6 59.968-33.984H528a72 72 0 1 1-61.184 109.952H376.96l50.816 72h279.808a128 128 0 1 1 4.992 76.032H396.608a16 16 0 0 1-13.056-6.784L283.84 730.048H72a8 8 0 0 1-8-7.68v-60.416c0-4.48 3.584-8 8-8h158.208l-33.92-48H72a8 8 0 0 1-8-7.936v-60.032c0-4.416 3.584-8 8-8h155.392zM608 318.08a128 128 0 1 1-122.24 166.016H72a8 8 0 0 1-8-8.064V416c0-4.416 3.584-8 8-8h413.76A128 128 0 0 1 608 318.016zM788.032 32a100.032 100.032 0 1 1-90.816 142.016H495.744L314.432 355.328A16 16 0 0 1 303.104 360H72a8 8 0 0 1-8-8v-60.032c0-4.416 3.584-8 8-8h206.272L459.52 102.656a16 16 0 0 1 11.328-4.672h223.04A100.032 100.032 0 0 1 788.032 32z" p-id="1783"></path></svg>