<?xml version="1.0" standalone="no"?><!DOCTYPE svg PUBLIC "-//W3C//DTD SVG 1.1//EN" "http://www.w3.org/Graphics/SVG/1.1/DTD/svg11.dtd"><svg t="1709114285201" class="icon" viewBox="0 0 1024 1024" version="1.1" xmlns="http://www.w3.org/2000/svg" p-id="1227" xmlns:xlink="http://www.w3.org/1999/xlink" width="200" height="200"><path d="M656 72a240 240 0 1 1-24.128 478.784L267.2 853.184a8 8 0 0 1-10.752-0.448l-34.816-34.816c2.048 12.16 5.12 22.784 9.152 31.616a58.88 58.88 0 0 0 41.984 35.52c9.856 2.56 22.016 2.752 36.608 0.64l1.536-0.256 4.8-0.832c3.008-0.512 6.08-1.152 9.28-1.92l1.728-0.384 2.688-0.64 1.792-0.448 2.688-0.704 1.664-0.448 2.112-0.576 2.112-0.64 1.408-0.384 1.408-0.384 1.472-0.448 1.408-0.448 2.24-0.64 1.472-0.512 2.176-0.64 2.24-0.768 6.912-2.368 2.368-0.832 2.368-0.832 1.6-0.64 2.496-0.832 1.664-0.64 2.496-0.96 2.56-0.96 1.664-0.64 2.624-1.024 3.584-1.408 2.752-1.088 2.752-1.088 2.816-1.152 3.84-1.6 2.944-1.216 3.008-1.28 3.072-1.28 3.136-1.28 4.224-1.792 4.352-1.92 8.128-3.456 13.376-5.888 13.504-5.952 11.712-5.12 7.488-3.2 5.952-2.56 4.736-1.984 4.416-1.92 3.52-1.408 2.688-1.088 5.12-2.112 6.144-2.432 2.432-0.896 2.432-0.96 3.008-1.152 3.712-1.344 2.56-0.96 0.64-0.192 7.552-2.752 2.56-0.832 2.56-0.896a263.68 263.68 0 0 1 66.56-14.592c65.344-4.224 142.72 19.2 233.216 69.12l3.712 2.112 7.296 4.16 9.536 5.504c3.712 2.176 5.12 6.912 3.008 10.688l-0.128 0.256V880l-28.608 48.128a8 8 0 0 1-10.88 2.816l-11.52-6.592-0.448-0.256c-82.432-46.464-149.632-67.456-200.512-64.192-3.52 0.256-7.232 0.64-11.136 1.28l-1.472 0.256-5.44 1.024-1.536 0.384-2.432 0.512-4.16 1.024-1.664 0.384-3.456 0.96-4.48 1.28-1.856 0.512-0.896 0.256-1.856 0.64-1.92 0.576-1.92 0.64-1.92 0.576-0.96 0.32-1.92 0.64-1.024 0.384-3.008 1.024-2.048 0.704-2.048 0.768-3.52 1.28-2.688 0.96-2.688 1.024-1.664 0.64-3.456 1.28-3.712 1.472-2.88 1.152-2.944 1.152-3.072 1.28-3.712 1.536-3.968 1.664-4.224 1.792-3.2 1.344-6.976 3.008-7.68 3.392-17.344 7.552-18.368 8-5.504 2.432-3.584 1.536-3.584 1.536-4.608 1.92-4.48 1.92-4.352 1.856-3.2 1.28-4.288 1.792-3.072 1.28-2.048 0.768-2.048 0.832-3.008 1.152-2.944 1.152-2.88 1.152-2.88 1.088-2.816 1.088-2.816 1.024-1.856 0.64-2.752 1.024-1.792 0.64-2.688 1.024-1.728 0.64-1.792 0.576-1.728 0.64-1.792 0.512-2.56 0.896-3.456 1.088-1.664 0.576-2.56 0.768-1.664 0.512-1.728 0.512-1.664 0.512-2.496 0.768-1.664 0.448-2.496 0.704-3.328 0.896c-37.12 10.048-69.312 12.416-98.304 5.12a130.624 130.624 0 0 1-89.984-75.52c-16-35.072-21.376-80-17.344-135.168l-44.288-44.288a8 8 0 0 1-0.512-10.752L416 311.808A240 240 0 0 1 656 72zM436.8 481.792a8 8 0 0 0-11.328 0l-108.16 108.16a8 8 0 0 0 0 11.328l33.92 33.92a8 8 0 0 0 11.328 0l108.16-108.16a8 8 0 0 0 0-11.328z" p-id="1228"></path></svg>