<?xml version="1.0" standalone="no"?><!DOCTYPE svg PUBLIC "-//W3C//DTD SVG 1.1//EN" "http://www.w3.org/Graphics/SVG/1.1/DTD/svg11.dtd"><svg t="1678070779531" class="icon" viewBox="0 0 1024 1024" version="1.1" xmlns="http://www.w3.org/2000/svg" p-id="4712" xmlns:xlink="http://www.w3.org/1999/xlink" width="200" height="200"><path d="M584 113.024a32 32 0 0 1 32 32v307.712c0 2.688 1.28 5.12 3.584 6.656l24.384 16.256c1.28 0.896 2.88 1.344 4.48 1.344H680c37.12 0 67.392 29.824 67.968 66.88V840H840V484.736a8 8 0 0 0-4.096-7.04l-52.48-29.12a100.032 100.032 0 0 1-51.392-87.424v-112.32a8 8 0 0 0-4.16-7.04l-41.92-23.232a54.4 54.4 0 0 1-27.968-47.552 18.816 18.816 0 0 1 27.968-16.448l174.592 96.896c28.16 15.552 46.784 43.584 50.688 75.008L912 336v508.032c0 37.12-29.824 67.328-66.88 67.968H744c-37.12 0-67.392-29.824-67.968-66.88V548.992h-27.584a8 8 0 0 0-4.48 1.344l-24.384 16.32a8 8 0 0 0-3.584 6.656V880a32 32 0 0 1-32 32H144a32 32 0 0 1-32-32V145.024a32 32 0 0 1 32-32h440zM338.816 510.016a2.752 2.752 0 0 0-2.368 1.28l-0.384 1.728-0.128 1.28c-2.24 25.536-10.944 45.44-22.208 62.976l-9.792 14.08-10.752 13.568-18.24 22.528-3.52 4.608c-15.36 20.672-27.392 43.2-27.392 74.432 0 44.672 31.616 80.512 70.592 97.472l8.512 3.328 4.288 1.408c1.408 0.448 2.368 0.192 3.072-0.384a2.752 2.752 0 0 0 0.32-3.84 28.992 28.992 0 0 1-3.264-4.48 45.632 45.632 0 0 1-5.568-22.784c0-23.808 8.768-45.12 25.472-65.28 3.584-4.288 7.424-8.512 11.584-12.608l6.592-6.144 3.968 7.744 10.88 18.176 12.992 19.968 3.2 5.376c6.848 12.224 9.344 21.12 9.344 32.768a44.928 44.928 0 0 1-6.4 24.32l-1.664 2.176a2.752 2.752 0 0 0 1.536 4.352l1.472-0.064 3.456-1.28c42.944-16.32 79.616-56.32 79.616-100.224 0-49.792-14.464-84.352-33.664-112l-6.72-9.152a2.688 2.688 0 0 0-3.264-0.768l-1.088 0.896-13.568 19.84c-14.144-30.272-37.44-58.048-69.952-83.392l-15.36-11.392a2.752 2.752 0 0 0-1.6-0.512z m189.44-316.992H200a8 8 0 0 0-8 7.68v216.32c0 3.456 2.176 6.4 5.312 7.488l2.688 0.512h328c3.456 0 6.4-2.24 7.552-5.312l0.448-2.688V200.96a8 8 0 0 0-7.744-8z" p-id="4713"></path></svg>
