<?xml version="1.0" standalone="no"?><!DOCTYPE svg PUBLIC "-//W3C//DTD SVG 1.1//EN" "http://www.w3.org/Graphics/SVG/1.1/DTD/svg11.dtd"><svg t="1658728684665" class="icon" viewBox="0 0 1024 1024" version="1.1" xmlns="http://www.w3.org/2000/svg" p-id="23302" xmlns:xlink="http://www.w3.org/1999/xlink" width="200" height="200"><defs><style type="text/css">@font-face { font-family: feedback-iconfont; src: url("//at.alicdn.com/t/font_1031158_u69w8yhxdu.woff2?t=1630033759944") format("woff2"), url("//at.alicdn.com/t/font_1031158_u69w8yhxdu.woff?t=1630033759944") format("woff"), url("//at.alicdn.com/t/font_1031158_u69w8yhxdu.ttf?t=1630033759944") format("truetype"); }
</style></defs><path d="M539.605333 138.496c40.533333 0 73.386667 32.896 73.386667 73.386667v277.504c0 18.346667 14.805333 33.109333 33.109333 33.109333h18.005334c50.986667 0 92.373333 41.386667 92.373333 92.416v253.269333c0 12.416 10.026667 22.4 22.4 22.4h28.416a40.661333 40.661333 0 0 0 40.704-40.661333v-380.330667c0-12.8-10.410667-23.082667-23.082667-23.082666a82.389333 82.389333 0 0 1-82.432-82.389334V279.808c0-24.789333-12.586667-47.786667-33.493333-61.226667l-12.074667-7.68a48.64 48.64 0 0 1-22.4-41.002666v-4.992a23.04 23.04 0 0 1 35.584-19.413334l164.010667 105.813334A105.898667 105.898667 0 0 1 922.453333 340.053333l0.512 580.693334c0 24.32-19.712 43.946667-43.946666 43.946666l-147.072-0.256c-27.904 0-50.474667-22.613333-50.474667-50.474666v-284.416a33.066667 33.066667 0 0 0-33.109333-33.109334h-2.304a33.066667 33.066667 0 0 0-33.109334 33.109334v301.525333c0 18.346667-14.890667 33.365333-33.408 33.365333H112.384a33.408 33.408 0 0 1-33.365333-33.365333V211.882667c0-40.490667 32.853333-73.386667 73.386666-73.386667zM316.8 385.066667c7.168 53.504-24.704 111.786667-55.509333 155.818666-1.024-21.418667-2.090667-35.712-12.373334-57.088-2.048 39.253333-27.733333 70.144-34.944 109.397334-9.258667 53.504 7.210667 91.562667 69.930667 133.205333-19.541333-47.573333-9.258667-74.922667 6.144-99.882667 16.469333-28.586667 20.565333-55.893333 20.565333-55.893333s13.354667 18.986667 8.234667 49.92c22.613333-29.738667 26.709333-77.312 23.637333-95.146667 51.413333 41.642667 74.026667 133.205333 44.202667 199.808 158.293333-104.661333 39.082667-260.437333 18.517333-277.12 7.210667 17.834667 8.234667 47.573333-6.186666 61.866667-23.637333-104.661333-82.218667-124.885333-82.218667-124.885333z" p-id="23303"></path></svg>