<?xml version="1.0" standalone="no"?><!DOCTYPE svg PUBLIC "-//W3C//DTD SVG 1.1//EN" "http://www.w3.org/Graphics/SVG/1.1/DTD/svg11.dtd"><svg t="1677650815012" class="icon" viewBox="0 0 1024 1024" version="1.1" xmlns="http://www.w3.org/2000/svg" p-id="4095" xmlns:xlink="http://www.w3.org/1999/xlink" width="200" height="200"><path d="M701.952 462.976c1.472 0.064 2.88 0.64 4.096 1.472l14.848 10.88c56 42.688 96 89.6 119.872 140.672l3.008-4.48 3.2-4.608 3.776-5.504 3.968-5.824 4.672-6.784 0.768-1.152a8 8 0 0 1 12.992-0.192l0.768 1.024C908.8 635.328 936 694.08 936 781.44c0 92.992-100.864 175.616-194.368 176.576h-1.6C646.08 958.016 544 883.904 544 781.376c0-55.616 23.424-94.336 51.84-130.752l1.728-2.304 0.96-1.152 1.792-2.304 1.92-2.432 2.048-2.496 2.944-3.648 2.112-2.56 2.112-2.56 7.68-9.408 2.112-2.56 3.008-3.648 1.856-2.24 2.688-3.392 1.792-2.24 1.856-2.24 0.896-1.152 1.792-2.304 6.208-8.064 1.728-2.304 1.28-1.792 1.408-1.856 0.64-0.896 1.28-1.792 0.64-0.96 1.344-1.792 1.28-1.92 0.64-0.896 1.28-1.856a328.32 328.32 0 0 0 4.48-6.592l1.152-1.92 0.64-0.96 1.216-1.92c14.656-23.68 26.368-50.112 31.68-82.112l0.32-1.856 0.384-4.352 0.64-7.872a8 8 0 0 1 8.576-7.296zM808 64a32 32 0 0 1 32 32v428.288a493.12 493.12 0 0 0-88.576-86.016l-2.816-2.112-2.688-2.048-1.728-1.28-2.56-1.92-2.432-1.856-1.6-1.152-1.536-1.088-1.472-1.088-2.24-1.6-1.408-1.024-1.344-0.96-1.984-1.408-1.92-1.28-1.28-0.896-1.728-1.28-1.728-1.088-1.664-1.152-1.6-1.024-1.088-0.64-1.472-1.024-0.96-0.64-1.408-0.832-1.344-0.832-0.896-0.512-1.664-1.024-2.048-1.216-1.152-0.64-1.792-1.088-2.816-1.536-4.416-2.432-0.832-0.448-0.64-0.32-0.96-0.512-1.472-0.768-0.768-0.384-1.664-0.768-1.408-0.64-1.92-0.896-2.176-0.96-2.304-1.024-1.152-0.512a24 24 0 0 0-33.664 21.824v10.176l-0.064 1.92v1.92l-0.128 1.984v1.344l-0.128 2.112-0.128 2.944-0.128 2.24-0.128 2.304-0.128 2.368-0.128 2.432-0.192 3.328-0.256 3.456-0.192 2.624-0.32 4.544-0.192 2.816-0.384 4.864-0.32 3.968-0.384 4.032c-3.84 22.208-11.776 42.112-24.32 62.528l-0.64 1.024-0.96 1.664-0.512 0.768-1.088 1.6-0.896 1.408-1.92 2.816-0.896 1.472-1.408 1.984-1.472 2.112-1.6 2.24-1.728 2.432-1.28 1.664-1.152 1.6-1.6 2.112-0.768 1.024-4.928 6.4-1.6 2.048-0.832 1.024-1.728 2.176-1.664 2.112-2.624 3.2-1.728 2.176-3.072 3.712-1.984 2.432-7.68 9.344-2.176 2.624-2.24 2.752-3.072 3.84-2.112 2.56-2.048 2.56-1.92 2.432-1.024 1.28-1.92 2.368a541.248 541.248 0 0 0-8.768 11.712l-1.728 2.24c-13.44 18.56-23.744 35.712-32 54.336C502.592 718.08 496 748.288 496 781.44c0 48.32 17.28 93.312 47.488 130.56H168a32 32 0 0 1-32-32V96a32 32 0 0 1 32-32h640z m-76.608 505.856l-0.64 1.28a311.04 311.04 0 0 1-9.28 17.664l-1.28 2.176-1.216 2.112-0.96 1.728-0.512 0.832-1.024 1.664-0.512 0.832-1.024 1.664-1.024 1.664-1.024 1.664-1.088 1.664a355.072 355.072 0 0 1-0.512 0.832l-1.28 2.048-1.408 2.112-0.576 0.768-1.088 1.664-1.088 1.664-1.152 1.664-1.152 1.664-1.152 1.664-1.216 1.664-0.64 0.832-1.152 1.664-1.28 1.728-1.856 2.56-1.28 1.728-1.28 1.728-1.28 1.728-1.408 1.792-1.28 1.792-1.472 1.792-1.408 1.856-1.408 1.792-2.24 2.816-1.472 1.92-1.536 1.92-2.368 2.944-3.264 3.968-1.664 2.048-2.176 2.688-2.112 2.56-7.68 9.28-2.112 2.56-2.56 3.2-2.432 3.008-2.304 2.88-1.088 1.408-1.664 2.048-1.6 1.984-1.536 1.984-0.96 1.28-1.472 1.92-0.96 1.28-1.344 1.792-0.896 1.216-1.28 1.792-1.728 2.304-0.832 1.152-0.768 1.088-1.216 1.664-0.768 1.088-0.704 1.088-0.704 1.088-0.768 1.024-0.64 1.088-0.704 1.024-1.024 1.536-0.64 1.024-0.96 1.536-0.64 1.024-0.576 1.024-0.576 0.96-0.576 1.024-0.576 1.024-0.512 0.96-0.576 0.96-0.512 1.024-0.576 0.96-0.512 1.024-0.512 0.96-0.448 0.96-0.256 0.512c-8.32 16.64-12.416 32.96-12.416 52.288 0 28.672 14.08 56 39.936 77.696 25.792 21.696 59.904 34.56 91.136 34.88h2.816c29.248-0.64 62.656-14.4 88.96-37.12l0.832-0.768C857.6 833.344 872 805.888 872 781.44c0-30.144-3.648-56.32-10.88-80.256l-0.256-0.896-30.336 44.672-47.68-101.824a275.136 275.136 0 0 0-51.072-72.896l-0.384-0.384zM360 368h-96a8 8 0 0 0-8 7.744V432c0 4.352 3.456 7.872 7.744 8H360a8 8 0 0 0 8-7.744V376a8 8 0 0 0-8-8z m176 0h-96a8 8 0 0 0-8 7.744V432c0 4.352 3.456 7.872 7.744 8H536a8 8 0 0 0 8-7.744V376a8 8 0 0 0-8-8z m176-184H264c-4.352 0-7.872 2.496-8 5.632v92.544c0 3.2 3.456 5.76 7.68 5.76l0.32 0.064h448c4.352 0 7.872-2.496 8-5.632v-92.544c0-3.2-3.584-5.824-8-5.824z" p-id="4096"></path><path d="M784.32 785.984l-23.616-48.576a7.104 7.104 0 0 0-11.136-2.176L709.184 771.2a173.952 173.952 0 0 0-18.048 18.624c-19.2 23.04-29.568 49.152-29.568 77.76 0 27.648 12.864 52.48 36.096 66.752l7.68 4.672 8.832 1.6a134.08 134.08 0 0 0 53.632-0.64l8.64-1.792 7.424-4.8a76.8 76.8 0 0 0 34.56-65.792c0-16.832-3.968-31.04-12.544-46.464l-0.576-0.96-0.768-1.28-0.768-1.408-0.512-0.896-0.768-1.216-0.896-1.408-0.64-1.024-0.576-0.96-0.64-0.96-0.96-1.536-1.216-1.792-3.712-5.632-1.216-1.92-0.448-0.64-0.64-1.024-0.768-1.216-0.768-1.152-0.768-1.28-0.512-0.832-0.32-0.512-0.64-1.088-0.512-0.896-0.512-0.896-0.512-0.96-0.32-0.512-0.384-0.768-0.448-0.832-0.384-0.832-0.384-0.64z m-43.136 20.992l0.192 0.384 0.448 1.024 0.512 0.96 0.64 1.28 0.384 0.64 0.32 0.64 0.384 0.64 0.32 0.64 0.576 1.024 0.64 1.152 0.448 0.768 0.384 0.64 0.448 0.704 0.384 0.64 0.384 0.704 0.64 1.024 0.64 1.088 0.448 0.64 0.896 1.472 0.512 0.768 0.448 0.704 0.704 1.152 1.024 1.6 0.832 1.152 3.776 5.76 1.28 1.856 0.64 1.024 0.448 0.768 0.512 0.768 0.448 0.768 0.832 1.344 0.384 0.64 0.64 1.024 0.32 0.64 0.576 0.896a43.84 43.84 0 0 1 6.784 23.68 28.928 28.928 0 0 1-12.608 25.472 86.208 86.208 0 0 1-35.072 0.32c-8.32-5.056-13.184-14.08-13.184-25.792 0-17.152 6.4-32.512 18.432-47.04 3.648-4.416 7.68-8.576 12.16-12.608l1.024-0.96z" p-id="4097"></path></svg>