<?xml version="1.0" standalone="no"?><!DOCTYPE svg PUBLIC "-//W3C//DTD SVG 1.1//EN" "http://www.w3.org/Graphics/SVG/1.1/DTD/svg11.dtd"><svg t="1678070789919" class="icon" viewBox="0 0 1024 1024" version="1.1" xmlns="http://www.w3.org/2000/svg" p-id="5176" xmlns:xlink="http://www.w3.org/1999/xlink" width="200" height="200"><path d="M624.96 104a32 32 0 0 1 30.336 21.888L688 224h216c4.416 0 8 3.584 8 8v56a8 8 0 0 1-8 8h-76.672l-22.144 574.592A68.032 68.032 0 0 1 738.304 936h-451.52c-36.16 0-65.92-28.288-67.84-64.256l-0.128-1.152L196.672 296H120a8 8 0 0 1-8-8v-56c0-4.416 3.584-8 8-8h216l32.704-98.112A32 32 0 0 1 399.04 104h225.92zM407.808 569.408a8 8 0 0 0-7.36 3.712l-0.128 0.256-68.48 118.592a16 16 0 0 0 13.504 24.064H480a8 8 0 0 0 8-7.744v-48.256a8 8 0 0 0-7.744-8H428.8l27.264-47.232a8 8 0 0 0-0.128-8.256l-0.192-0.256-14.464-21.44a8 8 0 0 0-5.76-3.456h-0.32l-27.456-1.984zM625.28 576a8 8 0 0 0-10.752-3.008l-0.192 0.128-41.536 23.936-0.192 0.192a8 8 0 0 0-2.816 10.56l0.128 0.192 25.344 43.904h-54.72a8 8 0 0 0-7.04 4.288l-0.128 0.256-11.648 23.936a8 8 0 0 0-0.128 6.72l0.128 0.32 11.712 24c1.28 2.624 3.968 4.352 6.912 4.48h137.984a16 16 0 0 0 14.08-23.616l-0.192-0.32L625.28 576zM520 398.08a16 16 0 0 0-21.696 5.504l-0.192 0.32-67.328 116.736a8 8 0 0 0 2.752 10.752l0.192 0.192 41.6 23.936a8 8 0 0 0 10.752-2.688l0.128-0.192L512 507.904l27.776 48.128a7.976 7.976 0 0 0 7.232 3.968h0.256l25.728-1.92a8 8 0 0 0 5.824-3.2l0.192-0.256 15.424-22.784a8 8 0 0 0 0.448-8.256l-0.128-0.256-68.864-119.36a16 16 0 0 0-5.504-5.568l-0.384-0.256v-0.064zM596.16 176H427.84l-16 48h200.32l-16-48z" p-id="5177"></path></svg>