<?xml version="1.0" standalone="no"?><!DOCTYPE svg PUBLIC "-//W3C//DTD SVG 1.1//EN" "http://www.w3.org/Graphics/SVG/1.1/DTD/svg11.dtd"><svg t="1659954663210" class="icon" viewBox="0 0 1024 1024" version="1.1" xmlns="http://www.w3.org/2000/svg" p-id="33747" xmlns:xlink="http://www.w3.org/1999/xlink" width="200" height="200"><defs><style type="text/css">@font-face { font-family: feedback-iconfont; src: url("//at.alicdn.com/t/font_1031158_u69w8yhxdu.woff2?t=1630033759944") format("woff2"), url("//at.alicdn.com/t/font_1031158_u69w8yhxdu.woff?t=1630033759944") format("woff"), url("//at.alicdn.com/t/font_1031158_u69w8yhxdu.ttf?t=1630033759944") format("truetype"); }
</style></defs><path d="M119.954286 367.981714h56.027428c4.388571 0 8.045714-3.584 8.045715-8.045714V184.100571h175.981714c4.388571 0 8.045714-3.657143 8.045714-8.045714v-55.954286a8.045714 8.045714 0 0 0-8.045714-8.045714H179.931429a67.949714 67.949714 0 0 0-68.022858 68.022857v179.931429c0 4.461714 3.657143 8.045714 8.045715 8.045714z m544.036571-183.954285h175.981714v175.981714c0 4.388571 3.657143 8.045714 8.045715 8.045714h55.954285c4.388571 0 8.045714-3.657143 8.045715-8.045714V179.931429a67.949714 67.949714 0 0 0-68.022857-68.022858H664.137143a8.045714 8.045714 0 0 0-8.045714 8.045715v55.954285c0 4.388571 3.584 8.045714 8.045714 8.045715z m-303.981714 655.945142H184.027429V663.990857a8.045714 8.045714 0 0 0-8.045715-8.045714h-55.954285a8.045714 8.045714 0 0 0-8.045715 8.045714v180.004572c0 37.595429 30.427429 68.022857 68.022857 68.022857h179.931429c4.461714 0 8.045714-3.657143 8.045714-8.045715v-55.954285a8.045714 8.045714 0 0 0-8.045714-8.045715z m543.963428-183.954285h-55.954285a8.045714 8.045714 0 0 0-8.045715 8.045714v175.908571H663.990857a8.045714 8.045714 0 0 0-8.045714 8.045715v55.954285c0 4.388571 3.657143 8.045714 8.045714 8.045715h180.004572c37.595429 0 68.022857-30.427429 68.022857-68.022857V664.137143a8.045714 8.045714 0 0 0-8.045715-8.045714zM774.509714 484.205714v-32.768a14.043429 14.043429 0 0 0-14.043428-14.043428h-24.502857l-24.868572-111.908572A41.984 41.984 0 0 0 669.988571 292.571429H354.011429a41.984 41.984 0 0 0-41.033143 32.914285l-24.868572 111.908572h-24.576a14.043429 14.043429 0 0 0-14.043428 14.043428v32.841143c0 7.753143 6.290286 14.043429 14.043428 14.043429h4.681143l-13.092571 36.790857a97.499429 97.499429 0 0 0-5.632 32.621714v142.701714c0 11.629714 9.435429 20.992 20.992 20.992h41.179428a20.992 20.992 0 0 0 21.065143-20.992v-34.742857H691.2v34.742857c0 11.629714 9.435429 20.992 20.992 20.992h41.179429a20.992 20.992 0 0 0 21.065142-20.992v-142.628571c0-11.190857-1.901714-22.235429-5.632-32.694857l-13.165714-36.790857h4.754286a14.043429 14.043429 0 0 0 14.043428-14.043429z m-441.197714-38.692571l16.896-93.476572a20.992 20.992 0 0 1 20.699429-17.188571h282.185142c10.166857 0 18.870857 7.241143 20.699429 17.188571l16.896 93.476572a20.992 20.992 0 0 1-8.777143 21.065143l-24.722286 16.969143a20.992 20.992 0 0 1-11.849142 3.657142H378.660571a20.992 20.992 0 0 1-11.849142-3.657142l-24.722286-16.969143a20.992 20.992 0 0 1-8.777143-21.065143z m52.224 156.233143a11.629714 11.629714 0 0 1-11.629714 11.556571h-50.834286a11.629714 11.629714 0 0 1-10.459429-6.582857l-15.067428-31.451429a5.851429 5.851429 0 0 1 5.266286-8.338285h71.094857c6.436571 0 11.629714 5.12 11.629714 11.556571v23.259429z m200.630857 6.875428a4.681143 4.681143 0 0 1-4.681143 4.681143h-138.971428a4.681143 4.681143 0 0 1-4.681143-4.681143v-37.010285c0-2.633143 2.121143-4.681143 4.681143-4.681143h138.971428c2.56 0 4.681143 2.048 4.681143 4.681143v37.010285z m140.288-33.426285l-15.067428 31.524571a11.629714 11.629714 0 0 1-10.459429 6.582857h-50.834286a11.629714 11.629714 0 0 1-11.629714-11.556571v-23.259429c0-6.363429 5.193143-11.556571 11.629714-11.556571h71.094857a5.851429 5.851429 0 0 1 5.266286 8.265143z" p-id="33748"></path></svg>