<?xml version="1.0" standalone="no"?><!DOCTYPE svg PUBLIC "-//W3C//DTD SVG 1.1//EN" "http://www.w3.org/Graphics/SVG/1.1/DTD/svg11.dtd"><svg t="1677985214476" class="icon" viewBox="0 0 1024 1024" version="1.1" xmlns="http://www.w3.org/2000/svg" p-id="1344" xmlns:xlink="http://www.w3.org/1999/xlink" width="200" height="200"><path d="M176 712c4.416 0 8 3.584 8 8v120h120c4.416 0 8 3.584 8 8v56a8 8 0 0 1-8 8H144a32 32 0 0 1-32-32V720c0-4.48 3.584-8 8-8h56z m672 0h56c4.416 0 8 3.584 8 8v160a32 32 0 0 1-32 32H720a8 8 0 0 1-8-8v-56c0-4.416 3.584-8 8-8h120V720c0-4.416 3.584-8 8-8zM661.632 271.04a16 16 0 0 1 14.464 9.088l0.128 0.32 64 142.72 20.352-20.288a8 8 0 0 1 11.264 0l28.288 28.288a8 8 0 0 1 0 11.264L764.8 477.824l3.2 7.168V736a16 16 0 0 1-16 16h-48a16 16 0 0 1-16-16v-32H336v32a16 16 0 0 1-16 16h-48a16 16 0 0 1-16-16V484.992l3.2-7.168-35.328-35.392a8 8 0 0 1 0-11.264l28.288-28.288a8 8 0 0 1 11.264 0l20.352 20.288 64-142.72a16 16 0 0 1 14.592-9.472h299.264zM384 528a40 40 0 1 0 0 80 40 40 0 0 0 0-80z m256 0a40 40 0 1 0 0 80 40 40 0 0 0 0-80z m-9.408-193.024H393.408L344.96 443.008h334.08l-48.448-108.032zM880 112a32 32 0 0 1 32 32v160a8 8 0 0 1-8 8h-56a8 8 0 0 1-8-7.744V184H720a8 8 0 0 1-8-8v-56c0-4.416 3.584-8 8-8h160z m-576 0c4.416 0 8 3.584 8 8v56a8 8 0 0 1-8 8H184v120a8 8 0 0 1-8 8h-56a8 8 0 0 1-8-8V144a32 32 0 0 1 32-32h160z" p-id="1345"></path></svg>