<?xml version="1.0" standalone="no"?><!DOCTYPE svg PUBLIC "-//W3C//DTD SVG 1.1//EN" "http://www.w3.org/Graphics/SVG/1.1/DTD/svg11.dtd"><svg t="1744100741080" class="icon" viewBox="0 0 1024 1024" version="1.1" xmlns="http://www.w3.org/2000/svg" p-id="966" xmlns:xlink="http://www.w3.org/1999/xlink" width="200" height="200"><path d="M176 712c4.416 0 8 3.584 8 8v120h120c4.416 0 8 3.584 8 8v56a8 8 0 0 1-8 8H144a32 32 0 0 1-32-32V720c0-4.48 3.584-8 8-8h56z m672 0h56c4.416 0 8 3.584 8 8v160a32 32 0 0 1-32 32H720a8 8 0 0 1-8-8v-56c0-4.416 3.584-8 8-8h120V720c0-4.416 3.584-8 8-8zM512 224a288 288 0 1 1 0 576 288 288 0 0 1 0-576z m-79.808 337.6a8 8 0 0 0-10.112-3.52l-43.264 18.432h-0.128a5.248 5.248 0 0 0-2.56 7.04l0.704 1.536a150.016 150.016 0 0 0 269.248 2.176l0.128-0.32a6.656 6.656 0 0 0-3.392-8.768l-42.24-18.816-0.256-0.064a7.232 7.232 0 0 0-8.896 3.072l-0.64 1.088a89.984 89.984 0 0 1-158.464-1.6l-0.128-0.256z m-15.168-164.672a40 40 0 1 0 0 80 40 40 0 0 0 0-80z m189.952 0a40 40 0 1 0 0 80 40 40 0 0 0 0-80zM880 112a32 32 0 0 1 32 32v160a8 8 0 0 1-8 8h-56a8 8 0 0 1-8-7.744V184H720a8 8 0 0 1-8-8v-56c0-4.416 3.584-8 8-8h160z m-576 0c4.416 0 8 3.584 8 8v56a8 8 0 0 1-8 8H184v120a8 8 0 0 1-8 8h-56a8 8 0 0 1-8-8V144a32 32 0 0 1 32-32h160z" p-id="967"></path></svg>