<?xml version="1.0" standalone="no"?><!DOCTYPE svg PUBLIC "-//W3C//DTD SVG 1.1//EN" "http://www.w3.org/Graphics/SVG/1.1/DTD/svg11.dtd"><svg t="1659954669629" class="icon" viewBox="0 0 1024 1024" version="1.1" xmlns="http://www.w3.org/2000/svg" p-id="33897" xmlns:xlink="http://www.w3.org/1999/xlink" width="200" height="200"><defs><style type="text/css">@font-face { font-family: feedback-iconfont; src: url("//at.alicdn.com/t/font_1031158_u69w8yhxdu.woff2?t=1630033759944") format("woff2"), url("//at.alicdn.com/t/font_1031158_u69w8yhxdu.woff?t=1630033759944") format("woff"), url("//at.alicdn.com/t/font_1031158_u69w8yhxdu.ttf?t=1630033759944") format("truetype"); }
</style></defs><path d="M120.0128 368.0256h56.0128c4.352 0 7.9872-3.584 7.9872-8.0384V184.0128H359.936c4.4032 0 8.0384-3.584 8.0384-7.9872V119.9616a8.0384 8.0384 0 0 0-8.0384-7.9872H180.0192c-37.632 0-68.0448 30.3616-68.0448 67.9936V359.936c0 4.4032 3.584 8.0384 8.0384 8.0384z m544-184.0128h175.9744V359.936c0 4.4032 3.584 8.0384 8.0384 8.0384h55.9616c4.4032 0 8.0384-3.584 8.0384-8.0384V180.0192c0-37.632-30.4128-68.0448-68.0448-68.0448H664.064a8.0384 8.0384 0 0 0-7.9872 8.0384v56.0128c0 4.352 3.584 7.9872 7.9872 7.9872zM359.936 839.9872H184.0128V664.064a8.0384 8.0384 0 0 0-7.9872-7.9872H119.9616a8.0384 8.0384 0 0 0-7.9872 7.9872v179.968c0 37.632 30.3616 67.9936 67.9936 67.9936H359.936c4.4032 0 8.0384-3.584 8.0384-7.9872v-55.9616a8.0384 8.0384 0 0 0-8.0384-8.0384z m544-183.9616h-55.9616a8.0384 8.0384 0 0 0-8.0384 7.9872v175.9744H664.064a8.0384 8.0384 0 0 0-7.9872 8.0384v55.9616c0 4.4032 3.584 8.0384 7.9872 8.0384h179.968c37.632 0 67.9936-30.4128 67.9936-68.0448V664.064a8.0384 8.0384 0 0 0-7.9872-7.9872zM498.2784 344.6784a32.4608 32.4608 0 0 1 19.8144 6.656 79.0016 79.0016 0 0 1 15.4624 15.36l45.1584 73.5232c1.3824 2.2528 3.84 3.584 6.4512 3.584h58.5728a20.9408 20.9408 0 1 1 0 41.8816h-84.48a16.7424 16.7424 0 0 1-14.1312-7.7824l-21.504-34.0992-16.5376 68.352L563.2 611.84a26.88 26.88 0 0 1 3.4304 13.1584v121.7536a21.0432 21.0432 0 0 1-21.0432 21.0432h-0.8704a21.0432 21.0432 0 0 1-21.0944-21.0432v-86.8864a26.88 26.88 0 0 0-5.2736-16.0256l-48.64-65.536-63.3344 175.616a21.0432 21.0432 0 0 1-40.2432-12.3392l84.7872-335.2064-44.4416 14.848c-3.072 1.024-5.12 3.8912-5.12 7.1168v60.7232a20.9408 20.9408 0 0 1-20.992 20.8896l-4.1984-0.4096a20.9408 20.9408 0 0 1-16.6912-20.48V400.3328a17.408 17.408 0 0 1 12.032-16.5376l114.688-36.864a54.784 54.784 0 0 1 6.0416-1.6896 32.1024 32.1024 0 0 1 6.0928-0.512zM547.84 255.488a41.7792 41.7792 0 0 1 29.7472 12.1344c3.6864 4.4032 6.656 9.216 8.8064 14.336a41.472 41.472 0 0 1 3.328 16.5376 41.7792 41.7792 0 0 1-12.1344 29.7472 42.3936 42.3936 0 0 1-29.7472 12.0832 40.8576 40.8576 0 0 1-16.5888-3.328 57.856 57.856 0 0 1-14.336-8.8064 42.24 42.24 0 0 1-12.0832-29.7984c0-5.888 1.0752-11.3664 3.328-16.5376 2.2016-5.12 5.12-9.9328 8.8064-14.336 4.4032-3.6864 9.216-6.656 14.336-8.8064a42.2912 42.2912 0 0 1 16.5376-3.2256z" p-id="33898"></path></svg>