<?xml version="1.0" standalone="no"?><!DOCTYPE svg PUBLIC "-//W3C//DTD SVG 1.1//EN" "http://www.w3.org/Graphics/SVG/1.1/DTD/svg11.dtd"><svg t="1677985230170" class="icon" viewBox="0 0 1024 1024" version="1.1" xmlns="http://www.w3.org/2000/svg" p-id="1960" xmlns:xlink="http://www.w3.org/1999/xlink" width="200" height="200"><path d="M177.024 712c4.416 0 8 3.584 8 8v120h120c4.416 0 8 3.584 8 8v56a8 8 0 0 1-8 8h-160a32 32 0 0 1-32-32V720c0-4.48 3.584-8 8-8h56z m672 0h56c4.416 0 8 3.584 8 8v160a32 32 0 0 1-32 32h-160a8 8 0 0 1-8-8v-56c0-4.416 3.584-8 8-8h120V720c0-4.416 3.584-8 8-8zM510.528 528h2.496c82.944 0 161.728 17.664 236.224 53.056a41.6 41.6 0 0 1 23.744 37.12v96.64c0 2.816-2.24 5.12-5.056 5.184h-509.76a5.184 5.184 0 0 1-5.12-5.056v-96.32a41.6 41.6 0 0 1 23.68-37.568A544.192 544.192 0 0 1 508.16 528h2.432z m2.496-280a112 112 0 0 1 1.152 224h-1.152a112 112 0 0 1-1.92-224h1.92z m368-136a32 32 0 0 1 32 32v160a8 8 0 0 1-8 8h-56a8 8 0 0 1-8-7.744V184h-120a8 8 0 0 1-8-8v-56c0-4.416 3.584-8 8-8h160z m-576 0c4.416 0 8 3.584 8 8v56a8 8 0 0 1-8 8H184.96v120a8 8 0 0 1-8 8h-56a8 8 0 0 1-8-8V144a32 32 0 0 1 32-32h160z" p-id="1961"></path></svg>