<?xml version="1.0" standalone="no"?><!DOCTYPE svg PUBLIC "-//W3C//DTD SVG 1.1//EN" "http://www.w3.org/Graphics/SVG/1.1/DTD/svg11.dtd"><svg t="1744100724922" class="icon" viewBox="0 0 1024 1024" version="1.1" xmlns="http://www.w3.org/2000/svg" p-id="802" xmlns:xlink="http://www.w3.org/1999/xlink" width="200" height="200"><path d="M176 712c4.416 0 8 3.584 8 8v120h120c4.416 0 8 3.584 8 8v56a8 8 0 0 1-8 8H144a32 32 0 0 1-32-32V720c0-4.48 3.584-8 8-8h56z m728 0c4.416 0 8 3.584 8 8v160a32 32 0 0 1-32 32H720a8 8 0 0 1-8-8v-56c0-4.416 3.584-8 8-8h120V720c0-4.416 3.584-8 8-8h56zM695.808 475.392a132.096 132.096 0 1 1-102.4 18.304l21.312 119.168 0.128 1.088 0.256 1.024a52.032 52.032 0 0 0 102.144-19.2v-0.448l-21.44-119.936zM424 347.968a16 16 0 0 1 16 16v24a16 16 0 0 1-16 16h-19.328l17.728 92.864-8 5.952-19.008 14.08-79.232 58.624-0.448 0.32-0.512 0.384a50.048 50.048 0 0 0-9.92 70.08l0.512 0.64c16.576 21.312 47.04 25.6 68.864 9.728l87.872-65.024a120 120 0 1 1-92.736-93.056l-18.048-94.592h-27.776a16 16 0 0 1-16-16v-24a16 16 0 0 1 16-16H424zM600.192 395.2l10.24 57.152L453.44 568.448l-92.928 68.8-0.32 0.256a26.048 26.048 0 0 1-35.456-5.312l-0.32-0.384-0.192-0.32a26.048 26.048 0 0 1 5.376-36.096l0.384-0.256 97.28-72.064L600.192 395.2z m4.48-143.232a32 32 0 0 1 31.488 26.368l34.688 193.728 22.656 127.04a28.032 28.032 0 0 1-55.04 10.368l-0.064-0.448-22.72-127.104-5.248-29.568-25.856-144.32h-84.608a8 8 0 0 1-8-8v-40c0-4.48 3.584-8 8-8h104.704v-0.064zM880 112a32 32 0 0 1 32 32v160a8 8 0 0 1-8 8h-56a8 8 0 0 1-8-7.744V184H720a8 8 0 0 1-8-8v-56c0-4.416 3.584-8 8-8h160z m-576 0c4.416 0 8 3.584 8 8v56a8 8 0 0 1-8 8H184v120a8 8 0 0 1-8 8h-56a8 8 0 0 1-8-8V144a32 32 0 0 1 32-32h160z" p-id="803"></path></svg>