<?xml version="1.0" standalone="no"?><!DOCTYPE svg PUBLIC "-//W3C//DTD SVG 1.1//EN" "http://www.w3.org/Graphics/SVG/1.1/DTD/svg11.dtd"><svg t="1711440252566" class="icon" viewBox="0 0 1024 1024" version="1.1" xmlns="http://www.w3.org/2000/svg" p-id="1538" xmlns:xlink="http://www.w3.org/1999/xlink" width="200" height="200"><path d="M887.68 112a8 8 0 0 1 6.72 12.352l-48.96 75.968a161.984 161.984 0 0 0-1.024 173.632l1.024 1.6 4.928 7.68a238.016 238.016 0 0 1 1.472 255.04l-1.472 2.368-4.928 7.68a161.984 161.984 0 0 0-1.024 173.632l1.024 1.6 48.896 76.032a8 8 0 0 1-6.72 12.352h-128a8 8 0 0 0 6.976-11.904L752 873.92a8.064 8.064 0 0 0-10.88-3.072l-34.944 19.456a8.064 8.064 0 0 0-3.072 10.88l1.408 2.56a16 16 0 0 0 13.952 8.192h-315.84a1510.592 1510.592 0 0 1-9.856-13.12l-33.216-45.056a8 8 0 0 0-11.2-1.728l-32.192 23.744a8.064 8.064 0 0 0-1.664 11.2l13.568 18.432 4.672 6.528H212.672a16 16 0 0 1-13.44-7.36l-25.664-39.936a238.016 238.016 0 0 1-1.472-255.04l1.472-2.368 4.928-7.68c33.92-52.864 34.304-120.512 1.024-173.632l-1.024-1.6-4.928-7.68a238.016 238.016 0 0 1-1.472-255.04l1.472-2.368 25.664-39.936a16 16 0 0 1 13.44-7.36l120.448 0.128-4.8 6.144-7.68 10.048a8 8 0 0 0 1.536 11.264l31.808 24.256c3.712 2.624 8.576 1.92 11.2-1.536l28.608-37.44c0.64-0.96 4.736-6.208 12.16-15.872l-2.304 3.008 307.2 0.064-3.2 5.76-1.344 2.304-10.624 18.816a8.064 8.064 0 0 0 3.072 10.88l34.88 19.648a8.064 8.064 0 0 0 10.88-3.072l23.936-42.496 9.6-16.896-2.944 4.992H887.68z m-188.8 655.744l-2.496 0.256-38.72 5.76a8.064 8.064 0 0 0-6.784 9.28l0.384 1.92 0.192 1.152a229.041 229.041 0 0 0 18.688 55.296l0.512 1.024 0.64 1.28 0.64 1.28a8.128 8.128 0 0 0 11.968 2.752l33.408-18.56 0.64-0.32a8 8 0 0 0 3.2-10.688l-1.472-3.008a171.712 171.712 0 0 1-12.8-37.44l-0.128-0.768-0.192-0.832-0.128-0.896-0.192-0.96c-1.216-4.736-5.568-7.36-9.856-6.272z m-395.392-14.016l-2.56 0.384-36.48 4.864-0.96 0.128-0.896 0.128a8 8 0 0 0-6.592 9.216l0.192 1.088 0.448 2.56 0.32 1.792 0.256 1.216 0.256 1.088 0.128 0.64c3.584 17.088 9.28 33.664 16.832 49.472l0.32 0.64 0.512 1.024 0.832 1.6 0.64 1.28 1.024 1.536c2.88 3.328 7.936 3.776 11.392 1.024l32.768-18.304 0.512-0.32a8 8 0 0 0 3.52-10.752l-0.64-1.344-0.448-0.832-0.576-1.152-0.64-1.408-0.256-0.64-0.64-1.472a163.2 163.2 0 0 1-10.176-30.848l-0.192-1.088-0.192-0.896-0.192-0.896-0.256-1.408-0.256-1.6a8.256 8.256 0 0 0-10.496-6.336z m373.568-108.544a8 8 0 0 0-10.56 4.032l-0.32 0.704-0.64 1.344-0.64 1.6a227.84 227.84 0 0 0-15.68 56.96l-0.064 0.64-0.256 1.728v1.024c0 4.416 3.584 7.936 8 8l38.4 3.52c4.864 0.512 8.768-2.56 9.344-6.848l0.192-1.472c2.048-13.76 5.76-27.264 11.008-40.192l0.256-0.64 0.512-1.152 0.512-1.28a8.064 8.064 0 0 0-4.736-10.88z m-391.168-14.336a8 8 0 0 0-10.688 3.648l-0.896 1.728-0.512 1.152-0.768 1.536a219.136 219.136 0 0 0-17.472 57.152l-0.192 1.536a8.128 8.128 0 0 0 7.552 8.832l38.72 4.544c4.736 0.64 8.704-2.368 9.344-6.656l0.32-1.664 0.128-1.024 0.128-0.64a163.2 163.2 0 0 1 10.944-35.584l0.512-1.024 0.512-1.152 1.28-2.688a8.128 8.128 0 0 0-4.48-11.072l-33.216-17.92z m438.528-88.96a8 8 0 0 0-9.472 6.208l-0.256 1.28a173.95 173.95 0 0 1-14.848 40.896l-0.768 1.408c-2.048 4.608-0.192 9.28 3.84 11.136l33.536 19.648c4.288 2.304 9.152 0.896 11.264-3.008l0.704-1.28 0.64-1.088 0.768-1.536c8.768-17.152 15.36-35.328 19.52-54.016l0.256-1.216 0.256-1.28 0.192-1.024a8.064 8.064 0 0 0-7.488-9.6l-37.632-6.4z m-397.568-13.696a8.064 8.064 0 0 0-8.96 6.976c-1.984 15.168-5.76 29.44-11.456 43.072l-0.256 0.64-0.448 0.96a8 8 0 0 0 4.032 10.496l35.328 16.96 0.832 0.384c4.096 1.792 8.768 0 10.56-4.096l0.384-0.768 0.64-1.536a225 225 0 0 0 15.872-58.56l0.064-0.704 0.192-1.6 0.064-0.832a8 8 0 0 0-7.872-8.128l-39.04-3.2z m422.4-109.312l-2.368 0.64-36.288 16.768a8.064 8.064 0 0 0-4.48 10.496l0.384 0.896a169.604 169.604 0 0 1 11.008 42.56l0.128 0.64 0.064 0.832c0.704 4.736 4.8 7.68 9.152 7.04L766.016 496a8.064 8.064 0 0 0 7.488-8.832v-0.64l-0.192-1.28-0.192-1.92a227.776 227.776 0 0 0-16-59.776 7.68 7.68 0 0 0-10.24-4.032zM348.16 406.592a8.128 8.128 0 0 0-11.264-1.408l-32.768 18.944-0.64 0.384a8 8 0 0 0-3.328 10.816l0.896 1.728 0.64 1.28 0.576 1.088 0.832 1.664c5.184 11.2 9.024 22.272 11.712 33.664l0.128 0.64 0.192 0.832 0.256 1.28 0.32 1.408 0.128 0.64a8.064 8.064 0 0 0 9.92 5.504l38.4-6.144a8.064 8.064 0 0 0 6.72-9.472l-0.192-1.024-0.448-2.432-0.32-1.28-0.32-1.472-0.192-1.024a225.28 225.28 0 0 0-17.344-48.512l-0.32-0.64-0.384-0.64-0.576-1.152-0.64-1.28-1.152-2.24a7.808 7.808 0 0 0-0.832-1.152z m352.768-91.072l-2.56 0.32-38.272 6.976c-4.864 1.024-7.616 5.248-6.656 9.6l0.384 1.792 0.192 0.832 0.32 1.472 0.256 0.96 0.448 1.792c4.288 17.152 10.624 33.792 18.88 49.6l0.32 0.64 0.64 1.088 0.64 1.216 0.96 1.792a8.256 8.256 0 0 0 12.48 2.112l32.128-19.328 0.576-0.32a8 8 0 0 0 3.136-10.88l-0.512-0.896-0.576-1.088a171.712 171.712 0 0 1-14.656-38.592l-0.256-1.088-0.192-0.832-0.192-0.896c-1.28-4.672-5.76-7.168-10.048-5.952z m-402.176-12.672l-40 2.24a8.064 8.064 0 0 0-7.488 8.768l0.128 1.664 0.256 2.56 0.256 2.304 0.128 0.832 0.128 1.088 0.128 1.088c2.112 15.104 5.888 30.016 11.136 44.416l0.32 0.704 0.448 1.28 0.512 1.28 0.768 1.856 0.64 1.472 0.64 1.664 0.768 1.664a8.064 8.064 0 0 0 11.84 3.584l34.176-16.128 0.64-0.32a8 8 0 0 0 4.224-10.496l-0.768-1.92-0.576-1.28-0.32-0.832-0.32-0.768-0.256-0.64-0.32-1.024c-3.84-10.368-6.464-21.056-8-32l-0.128-0.64-0.128-1.28-0.192-1.344-0.128-1.024-0.128-1.536a8 8 0 0 0-8.384-7.232z m376.32-109.12a8 8 0 0 0-10.432 4.416l-0.448 1.088-0.64 1.536-0.704 1.92-0.512 1.28-0.32 0.832-0.384 1.088c-5.888 16.32-9.92 33.28-11.968 50.432l-0.064 0.768-0.128 1.216-0.128 0.832-0.064 0.96-0.128 1.536v1.408c0.384 4.48 4.288 7.68 8.704 7.36l37.696 2.24h0.768a8 8 0 0 0 8.704-7.168l0.192-1.472 0.128-1.344 0.192-1.664 0.128-0.768 0.128-0.96 0.192-1.664c1.536-10.048 3.968-19.84 7.168-29.44l0.256-0.768 0.32-0.768 0.256-0.832 0.512-1.28 0.576-1.472 0.384-1.024 0.64-1.6 0.384-1.28a8.32 8.32 0 0 0-6.144-9.664l-33.664-15.04-1.6-0.704z m-382.592-14.72a8 8 0 0 0-10.944 2.56l-0.832 1.344-0.896 1.536c-9.6 16.256-16.896 33.728-21.888 51.84l-0.384 1.536-1.152 4.8a8 8 0 0 0-0.192 2.752c0.512 4.416 4.48 7.552 8.96 7.488l35.52 7.168 0.768 0.128a8 8 0 0 0 9.664-5.888l0.192-0.704 0.192-0.704 0.192-0.96 0.448-1.472A158.72 158.72 0 0 1 326.4 215.68l0.768-1.28 0.896-1.536 0.512-0.896c2.304-4.416 0.704-9.216-3.2-11.264L292.864 179.2z" p-id="1539"></path></svg>