<?xml version="1.0" standalone="no"?><!DOCTYPE svg PUBLIC "-//W3C//DTD SVG 1.1//EN" "http://www.w3.org/Graphics/SVG/1.1/DTD/svg11.dtd"><svg t="1678079137053" class="icon" viewBox="0 0 1024 1024" version="1.1" xmlns="http://www.w3.org/2000/svg" p-id="3222" xmlns:xlink="http://www.w3.org/1999/xlink" width="200" height="200"><path d="M462.016 501.568l153.536 153.6a87.68 87.68 0 0 0-1.024 77.632l0.32 0.768L436.48 912H144a32 32 0 0 1-32-32v-28.416l135.488-135.488c15.232 8.704 32.832 13.76 51.584 13.888h0.896a105.984 105.984 0 0 0 92.544-157.76l-0.384-0.704 69.888-69.952zM733.888 773.44L872.384 912h-356.8l138.56-138.56c11.712 6.016 24.96 9.408 39.04 9.6h0.832c14.08 0 27.328-3.328 39.104-9.216l0.768-0.384zM912 515.584v356.8l-138.88-138.88c5.568-11.328 8.768-24.128 8.896-37.632v-0.896c0-14.08-3.328-27.328-9.152-39.104l-0.384-0.768L912 515.584z m-800-40l95.872 95.936A105.536 105.536 0 0 0 193.984 624c0 18.816 4.928 36.48 13.44 51.776l0.448 0.704-95.872 96V475.52z m582.656 179.392h0.96l0.512 0.064a40.32 40.32 0 0 1 0.768 0.064h0.64l0.64 0.128h0.384l0.64 0.128 0.896 0.128 0.832 0.128 0.576 0.064 0.768 0.192 0.448 0.064 0.512 0.128 0.256 0.064 0.64 0.192 0.64 0.128 0.64 0.192 0.576 0.192 0.512 0.192 0.576 0.128 0.64 0.256 0.896 0.32 0.512 0.256 0.96 0.384 0.64 0.32 0.768 0.32 0.448 0.256 0.576 0.256 0.512 0.32 0.576 0.256 0.512 0.32 0.768 0.448 0.512 0.32 0.384 0.256 1.408 0.96 0.64 0.512 0.32 0.192 0.512 0.384 0.64 0.512 0.384 0.32 0.384 0.32 0.448 0.384 0.448 0.448a40.256 40.256 0 0 1 1.664 1.536l0.448 0.512 0.512 0.512 0.384 0.448 0.64 0.768 0.576 0.64v0.128a33.92 33.92 0 0 1 0.384 0.448l0.768 0.96 0.64 0.96 0.64 0.896 0.32 0.512 0.448 0.832 0.448 0.704 0.32 0.512 0.384 0.768 0.192 0.448 0.32 0.512 0.128 0.32 0.256 0.576 0.256 0.576 0.192 0.512 0.256 0.576 0.256 0.64 0.192 0.448 0.192 0.64 0.192 0.576 0.256 0.64 0.128 0.64 0.192 0.512 0.128 0.64 0.192 0.64a39.808 39.808 0 0 1 1.088 7.296v4.672l-0.064 0.96v0.128a40.128 40.128 0 0 1-0.704 4.544l-0.192 0.832-0.128 0.576-0.192 0.64-0.128 0.64-0.192 0.576-0.128 0.512-0.256 0.64-0.192 0.64-0.128 0.448-0.32 0.704-0.192 0.512-0.32 0.896-0.32 0.704-0.512 1.024-0.256 0.576-0.256 0.448-0.448 0.832-0.448 0.832-0.32 0.512-0.32 0.576a40.064 40.064 0 0 1-1.408 2.048l-0.512 0.64-0.128 0.256a40.32 40.32 0 0 1-0.384 0.448l-0.384 0.512-0.256 0.32-0.384 0.448-0.512 0.64-0.384 0.384-1.92 1.92-0.448 0.448-0.448 0.448-0.448 0.384-0.704 0.64-0.512 0.384-0.704 0.576-0.448 0.32-0.512 0.384-0.512 0.384-0.512 0.32-0.64 0.448-0.512 0.32-0.64 0.384-0.832 0.512-0.64 0.384-0.896 0.448-0.704 0.32-0.384 0.192-0.64 0.32-0.512 0.192-0.64 0.256-0.64 0.256-0.448 0.192-0.512 0.192-0.64 0.256-0.384 0.128-0.832 0.256-0.64 0.192-0.768 0.256-0.64 0.128-0.96 0.256-0.64 0.128a39.808 39.808 0 0 1-0.768 0.128l-0.768 0.128-0.256 0.064-0.64 0.128-0.704 0.064-0.576 0.064a40.128 40.128 0 0 1-1.92 0.192H696l-0.512 0.064h-1.472a40.704 40.704 0 0 1-4.352-0.192l-0.448-0.064-0.64-0.064-0.64-0.128-0.768-0.128h-0.256l-0.64-0.128-0.64-0.128-0.64-0.128-0.64-0.192-0.832-0.192-0.64-0.192-0.576-0.192-0.64-0.192-0.512-0.192-0.64-0.192-0.576-0.192-0.832-0.32-0.576-0.256-0.512-0.256-0.64-0.256-0.256-0.128-0.64-0.32-0.512-0.192-0.512-0.32-1.024-0.512-0.768-0.512-0.576-0.32-0.96-0.64-0.512-0.32-0.64-0.384-0.448-0.32-0.512-0.384-0.384-0.32-0.576-0.448-0.384-0.32-0.384-0.32-0.384-0.32-0.448-0.384-0.448-0.384-0.32-0.32-0.384-0.384-0.32-0.256-0.32-0.32-0.384-0.448a40.256 40.256 0 0 1-0.832-0.896l-0.384-0.448-0.448-0.448a40.704 40.704 0 0 1-1.088-1.28l-0.448-0.64-0.32-0.384-0.384-0.512-0.384-0.64-0.256-0.384a40.128 40.128 0 0 1-0.384-0.512l-0.32-0.576-0.384-0.64-0.448-0.64-0.256-0.512-0.32-0.64-0.384-0.704-0.32-0.64-0.256-0.576-0.256-0.576-0.192-0.448-0.256-0.64-0.256-0.576-0.256-0.64-0.384-1.088-0.192-0.64-0.192-0.576-0.128-0.576-0.192-0.64-0.128-0.512-0.192-0.64-0.128-0.576-0.128-0.768a39.872 39.872 0 0 1-0.512-3.328l-0.064-0.448-0.064-0.64v-0.832a40.576 40.576 0 0 1-0.128-2.56v-1.408a40.256 40.256 0 0 1 0.896-7.296l0.192-0.576 0.128-0.64 0.128-0.576 0.192-0.64 0.256-0.832 0.064-0.256 0.192-0.576 0.192-0.64 0.256-0.576 0.256-0.64 0.192-0.64 0.128-0.192 0.256-0.64 0.384-0.768 0.256-0.64 0.256-0.512 0.448-0.832 0.32-0.576 0.448-0.704 0.384-0.704 0.32-0.576 0.64-0.896 0.576-0.832 0.768-1.024a40.128 40.128 0 0 1 0.384-0.512l0.576-0.704 0.384-0.512 0.512-0.576 0.256-0.32 0.512-0.512 0.384-0.448a41.088 41.088 0 0 1 1.28-1.28l0.64-0.512 0.448-0.448 0.448-0.384 0.32-0.32 0.384-0.32 0.448-0.32 0.512-0.384 0.704-0.576a40.128 40.128 0 0 1 1.28-0.896l0.832-0.512 0.768-0.512 0.64-0.384 0.896-0.448 0.256-0.192 0.512-0.256 0.64-0.32 0.64-0.32 0.448-0.192 0.512-0.256 0.64-0.256 0.448-0.192 0.704-0.32 0.512-0.192 1.152-0.384 0.512-0.192 0.96-0.256 0.64-0.192 0.64-0.192 0.512-0.128 0.576-0.128h0.256l0.704-0.192 0.384-0.064 0.384-0.128h0.448l0.768-0.192h0.512l0.704-0.128 1.024-0.128h0.512a40.32 40.32 0 0 1 0.64-0.064l0.96-0.064h2.304zM912 231.68v204.8L732.544 615.936a87.616 87.616 0 0 0-37.632-8.896h-0.896a87.68 87.68 0 0 0-37.76 8.512l-0.768 0.384-63.872-63.872L912 231.68zM375.424 112L487.68 224.32a78.016 78.016 0 0 0 102.208 103.296l0.832-0.32 73.152 73.216L552 512.384l-84.352-84.352a8 8 0 0 0-11.072-0.192l-0.256 0.192-103.808 103.872a105.536 105.536 0 0 0-52.48-13.888c-18.816 0-36.48 4.864-51.84 13.44l-0.64 0.448L112 396.416V144a32 32 0 0 1 32-32h231.424zM880 112a32 32 0 0 1 32 32v8.384L703.488 360.96l-73.216-73.28a78.016 78.016 0 0 0-102.208-103.296l-0.768 0.32L454.592 112H880zM286.976 575.68l0.512-0.128 0.512-0.128 0.384-0.064 0.512-0.128 0.768-0.192a50.176 50.176 0 0 1 9.536-1.024h0.832c3.072 0 6.08 0.256 8.96 0.768l1.152 0.256 0.384 0.064a49.664 49.664 0 0 1 1.6 0.384l0.896 0.256 0.576 0.128 0.576 0.128 0.384 0.128 0.64 0.256 0.32 0.064 0.96 0.32 0.64 0.256 0.64 0.256 0.384 0.128 0.704 0.256 0.896 0.384 0.512 0.256 0.64 0.256 0.576 0.256 0.576 0.32 0.96 0.448 0.64 0.32 0.64 0.384 0.64 0.384 0.128 0.064a49.984 49.984 0 0 1 1.344 0.768l0.64 0.448 0.64 0.448 0.64 0.448 0.704 0.448 0.64 0.448 1.152 0.832 0.64 0.512 0.576 0.512 0.512 0.448 0.64 0.576 0.64 0.512 0.64 0.64 0.384 0.384 0.64 0.64 0.576 0.576 0.448 0.448 0.576 0.64 0.576 0.64 0.384 0.448 0.448 0.512 0.64 0.832 0.576 0.704 0.256 0.32a50.176 50.176 0 0 1 1.792 2.56l0.384 0.64a48.832 48.832 0 0 1 0.832 1.344l0.448 0.768 0.384 0.64 0.448 0.896 0.32 0.512 0.32 0.64 0.256 0.576a55.552 55.552 0 0 1 0.32 0.704l0.32 0.64 0.192 0.448 0.128 0.32 0.32 0.768 0.32 0.832 0.384 1.088 0.064 0.192 0.256 0.768 0.32 0.96 0.192 0.576 0.192 0.768 0.256 0.768a49.664 49.664 0 0 1 1.6 12.672 49.984 49.984 0 0 1-59.008 49.216l-1.152-0.256-0.384-0.064a49.664 49.664 0 0 1-1.6-0.384l-0.832-0.192-0.768-0.192-0.768-0.256-0.704-0.256a49.6 49.6 0 0 1-0.768-0.192l-0.64-0.256-0.96-0.32-0.576-0.256-0.704-0.256-0.768-0.32-0.64-0.256-0.704-0.384-1.088-0.512-0.704-0.32-0.64-0.384-0.832-0.448-0.64-0.32-0.192-0.128-0.64-0.384-0.704-0.384-0.64-0.448a50.112 50.112 0 0 1-1.28-0.896l-0.704-0.448-0.64-0.448-0.704-0.576-0.64-0.448-0.448-0.32-0.512-0.448-0.448-0.384-0.192-0.192-0.64-0.512-0.576-0.576-0.64-0.576-0.64-0.64-0.704-0.64-0.64-0.768a50.304 50.304 0 0 1-0.64-0.64l-0.576-0.64-0.384-0.448-0.64-0.768a50.24 50.24 0 0 1-0.832-1.088l-0.384-0.512a50.176 50.176 0 0 1-0.512-0.64l-0.448-0.64a50.112 50.112 0 0 1-0.704-1.024l-0.256-0.32-0.384-0.64a50.048 50.048 0 0 1-0.768-1.28l-0.384-0.64-0.512-0.832-0.064-0.256a53.76 53.76 0 0 1-0.448-0.704l-0.448-0.896a49.792 49.792 0 0 1-0.64-1.408l-0.32-0.768-0.32-0.64a49.728 49.728 0 0 1-0.32-0.768l-0.32-0.832-0.256-0.64-0.192-0.512-0.32-0.96-0.256-0.96-0.064-0.192-0.256-0.768-0.192-0.768-0.128-0.384-0.192-0.768-0.128-0.704-0.192-0.768a50.176 50.176 0 0 1-1.088-9.6V624c0-3.072 0.32-6.08 0.832-8.96l0.192-1.024 0.128-0.512 0.128-0.832a49.664 49.664 0 0 1 0.448-1.6l0.192-0.768 0.256-0.896 0.192-0.64 0.256-0.768 0.384-1.152 0.256-0.64 0.128-0.32 0.32-0.768 0.32-0.832 0.256-0.576 0.32-0.64 0.448-0.96 0.448-0.896 0.128-0.256 0.384-0.896 0.384-0.64 0.32-0.512 0.384-0.64 0.384-0.64 0.384-0.64 0.448-0.704a50.112 50.112 0 0 1 0.896-1.28l0.512-0.64 0.512-0.768 0.512-0.64 0.32-0.384 0.448-0.512 0.256-0.384 0.32-0.32 0.512-0.64 0.512-0.576 0.576-0.576 0.448-0.448a54.528 54.528 0 0 1 0.512-0.576l0.64-0.64 0.512-0.384 0.576-0.576 0.64-0.64 0.512-0.384 0.64-0.448 0.448-0.448 0.64-0.512 0.64-0.448 0.64-0.448 0.64-0.512 0.448-0.32 0.512-0.384 1.088-0.64 0.384-0.256a49.984 49.984 0 0 1 0.768-0.448l0.832-0.576 0.896-0.512 0.768-0.448 0.896-0.384a49.792 49.792 0 0 1 1.408-0.64l1.024-0.512 0.32-0.128 0.768-0.32 0.896-0.32 0.64-0.256 0.704-0.256 0.768-0.256 0.896-0.32 1.024-0.128 0.768-0.256z m279.68-348.672l0.384 0.064 0.512 0.192h0.256l0.384 0.192 0.448 0.128 0.384 0.128 0.448 0.192 0.832 0.32 0.512 0.192 0.32 0.128 0.384 0.192c6.4 2.944 11.52 8 14.528 14.272l0.192 0.448 0.256 0.576 0.256 0.576 0.256 0.64 0.256 0.704 0.128 0.384 0.128 0.384 0.192 0.64 0.192 0.64 0.192 0.64 0.128 0.512 0.064 0.448 0.128 0.384v0.384l0.128 0.512 0.128 0.832 0.064 0.32a30.08 30.08 0 0 1 0.128 1.216l0.064 0.64v0.832l0.064 0.64v0.64a30.016 30.016 0 0 1-29.44 30.016h-1.984l-0.832-0.128h-0.128a30.08 30.08 0 0 1-1.216-0.128l-1.088-0.128-0.448-0.064-0.384-0.064-0.384-0.064-0.512-0.128-0.448-0.128-0.512-0.128-0.768-0.192-0.64-0.128-0.32-0.128-0.832-0.256-0.512-0.256-0.576-0.192-0.64-0.256-0.512-0.192-0.32-0.192a30.08 30.08 0 0 1-14.528-14.272l-0.256-0.448-0.128-0.384-0.256-0.512-0.064-0.192-0.32-0.768-0.128-0.448-0.064-0.192-0.192-0.448-0.128-0.384-0.192-0.64-0.128-0.576-0.192-0.448-0.128-0.704-0.128-0.64-0.128-0.576-0.128-0.512-0.064-0.64-0.064-0.512a30.08 30.08 0 0 1-0.128-1.216l-0.064-0.64-0.064-0.832V256c0-16.256 12.864-29.44 28.992-30.016h2.624l0.64 0.128h0.128a30.08 30.08 0 0 1 1.216 0.128l1.088 0.128 0.512 0.064 0.384 0.064 0.768 0.192 0.512 0.128 0.704 0.192z" p-id="3223"></path></svg>