<?xml version="1.0" standalone="no"?><!DOCTYPE svg PUBLIC "-//W3C//DTD SVG 1.1//EN" "http://www.w3.org/Graphics/SVG/1.1/DTD/svg11.dtd"><svg t="1658731358281" class="icon" viewBox="0 0 1024 1024" version="1.1" xmlns="http://www.w3.org/2000/svg" p-id="767" xmlns:xlink="http://www.w3.org/1999/xlink" width="200" height="200"><defs><style type="text/css">@font-face { font-family: feedback-iconfont; src: url("//at.alicdn.com/t/font_1031158_u69w8yhxdu.woff2?t=1630033759944") format("woff2"), url("//at.alicdn.com/t/font_1031158_u69w8yhxdu.woff?t=1630033759944") format("woff"), url("//at.alicdn.com/t/font_1031158_u69w8yhxdu.ttf?t=1630033759944") format("truetype"); }
</style></defs><path d="M348.875 62C247.625 62 163.25 143.5625 163.25 242c0 95.625 177.1875 284.0625 177.1875 284.0625l8.4375 8.4375 8.4375-8.4375s177.1875-185.625 177.1875-284.0625C531.6875 143.5625 450.125 62 348.875 62z m0 286.875c-56.25 0-101.25-45-101.25-101.25S295.4375 146.375 348.875 146.375s101.25 45 101.25 101.25-45 101.25-101.25 101.25z m244.6875 407.8125L737 632.9375l140.625 16.875L841.0625 469.8125H576.6875v81.5625l-168.75 132.1875 87.1875 115.3125 98.4375-42.1875z m-120.9375 81.5625l-163.125-225L118.25 745.4375 81.6875 962h525.9375l-30.9375-154.6875-104.0625 30.9375zM886.0625 694.8125l-126.5625-16.875-140.625 118.125L652.625 962h289.6875l-56.25-267.1875z m-292.5 61.875L737 632.9375l140.625 16.875L841.0625 469.8125H576.6875v81.5625l-168.75 132.1875 87.1875 115.3125 98.4375-42.1875z m-120.9375 81.5625l-163.125-225L118.25 745.4375 81.6875 962h525.9375l-30.9375-154.6875-104.0625 30.9375zM886.0625 694.8125l-126.5625-16.875-140.625 118.125L652.625 962h289.6875l-56.25-267.1875z m-435.9375-222.1875h-14.0625C393.875 526.0625 357.3125 565.4375 357.3125 565.4375l-8.4375 8.4375-8.4375-8.4375s-36.5625-39.375-78.75-92.8125h-98.4375L126.6875 700.4375l180-143.4375 70.3125 95.625 154.6875-115.3125v-61.875h-11.25l-70.3125-2.8125z" p-id="768"></path></svg>