<?xml version="1.0" standalone="no"?><!DOCTYPE svg PUBLIC "-//W3C//DTD SVG 1.1//EN" "http://www.w3.org/Graphics/SVG/1.1/DTD/svg11.dtd"><svg t="1678335556371" class="icon" viewBox="0 0 1024 1024" version="1.1" xmlns="http://www.w3.org/2000/svg" p-id="1638" xmlns:xlink="http://www.w3.org/1999/xlink" width="200" height="200"><path d="M471.552 96v144.448c0 4.16 3.584 7.552 8 7.552h64a7.808 7.808 0 0 0 8-7.552V96H743.36c3.584 0 6.784 2.432 7.68 5.888l188.8 784A8 8 0 0 1 932.16 896H551.552V751.552a7.616 7.616 0 0 0-5.44-7.168l-2.56-0.384h-64c-4.416 0-8 3.392-8 7.552V896H91.008a8 8 0 0 1-7.68-10.112l188.8-784a8 8 0 0 1 7.68-5.888h191.744z m72 436.992h-64c-4.416 0-8 3.392-8 7.552v120.96c0 4.096 3.584 7.488 8 7.488h64a7.808 7.808 0 0 0 8-7.552V540.544a7.808 7.808 0 0 0-8-7.552z m0-209.984h-64c-4.416 0-8 3.392-8 7.552v120.896c0 4.16 3.584 7.552 8 7.552h64a7.808 7.808 0 0 0 8-7.552V330.56a7.808 7.808 0 0 0-8-7.552z" p-id="1639"></path></svg>