<?xml version="1.0" standalone="no"?><!DOCTYPE svg PUBLIC "-//W3C//DTD SVG 1.1//EN" "http://www.w3.org/Graphics/SVG/1.1/DTD/svg11.dtd"><svg t="1658731376228" class="icon" viewBox="0 0 1024 1024" version="1.1" xmlns="http://www.w3.org/2000/svg" p-id="1386" xmlns:xlink="http://www.w3.org/1999/xlink" width="200" height="200"><defs><style type="text/css">@font-face { font-family: feedback-iconfont; src: url("//at.alicdn.com/t/font_1031158_u69w8yhxdu.woff2?t=1630033759944") format("woff2"), url("//at.alicdn.com/t/font_1031158_u69w8yhxdu.woff?t=1630033759944") format("woff"), url("//at.alicdn.com/t/font_1031158_u69w8yhxdu.ttf?t=1630033759944") format("truetype"); }
</style></defs><path d="M402.77333333 75.09333333l-109.22666666 873.81333334H118.05582222a36.40888889 36.40888889 0 0 1-35.89916444-42.37994667l133.51139555-800.99555555A36.40888889 36.40888889 0 0 1 251.56721778 75.09333333H402.77333333z m369.65944889 0a36.40888889 36.40888889 0 0 1 35.89916445 30.43783112l133.51139555 800.99555555A36.40888889 36.40888889 0 0 1 905.94417778 948.90666667H730.45333333l-109.22666666-873.81333334zM566.61333333 694.04444445l18.20444445 254.86222222H439.18222222l18.20444445-254.86222222h109.22666666z m-18.20444444-291.27111112l18.20444444 218.45333334h-109.22666666l18.20444444-218.45333334h72.81777778z m-18.20444444-291.27111111l18.20444444 218.45333333h-72.81777778l18.20444444-218.45333333h36.4088889z" p-id="1387"></path></svg>