<?xml version="1.0" standalone="no"?><!DOCTYPE svg PUBLIC "-//W3C//DTD SVG 1.1//EN" "http://www.w3.org/Graphics/SVG/1.1/DTD/svg11.dtd"><svg t="1679049606278" class="icon" viewBox="0 0 1024 1024" version="1.1" xmlns="http://www.w3.org/2000/svg" p-id="2052" xmlns:xlink="http://www.w3.org/1999/xlink" width="200" height="200"><path d="M625.92 70.016a16 16 0 0 1 5.44 6.272l1.344 4.032 0.32 3.072v857.216a16 16 0 0 1-19.072 15.744l-452.032-87.36a32 32 0 0 1-25.92-31.36V186.368a32 32 0 0 1 25.92-31.424l452.032-87.36a16 16 0 0 1 12.032 2.432zM477.056 452.032h-56a3.968 3.968 0 0 0-3.456 1.92l-0.512 2.048v112c0 1.472 0.768 2.752 1.92 3.456l2.048 0.512h56a3.968 3.968 0 0 0 3.456-1.92l0.576-2.048V456a3.968 3.968 0 0 0-1.984-3.456l-2.048-0.512zM872 160a16 16 0 0 1 16 16v672a16 16 0 0 1-16 16H689.024a8 8 0 0 1-8-8v-56c0-4.416 3.584-8 8-8H816V232H688.96a8 8 0 0 1-8-8v-56c0-4.416 3.584-8 8-8H872z" p-id="2053"></path></svg>