<?xml version="1.0" standalone="no"?><!DOCTYPE svg PUBLIC "-//W3C//DTD SVG 1.1//EN" "http://www.w3.org/Graphics/SVG/1.1/DTD/svg11.dtd"><svg t="1661338731018" class="icon" viewBox="0 0 1024 1024" version="1.1" xmlns="http://www.w3.org/2000/svg" p-id="1089" xmlns:xlink="http://www.w3.org/1999/xlink" width="200" height="200"><defs><style type="text/css">@font-face { font-family: feedback-iconfont; src: url("//at.alicdn.com/t/font_1031158_u69w8yhxdu.woff2?t=1630033759944") format("woff2"), url("//at.alicdn.com/t/font_1031158_u69w8yhxdu.woff?t=1630033759944") format("woff"), url("//at.alicdn.com/t/font_1031158_u69w8yhxdu.ttf?t=1630033759944") format("truetype"); }
</style></defs><path d="M780 64c81.738 0 148 66.262 148 148s-66.262 148-148 148c-69.298 0-127.472-47.627-143.575-111.935l-338.441-0.001c-61.682 1.264-111.17 51.359-111.683 113.05-0.513 61.693 48.137 112.604 109.789 114.892h429.926c101.129 1.386 182.62 83.321 183.461 184.456 0.829 101.135-79.297 184.405-180.389 187.461l-341.478 0.001C371.558 912.303 313.349 960 244 960c-81.738 0-148-66.262-148-148s66.262-148 148-148c69.299 0 127.473 47.628 143.575 111.936h338.441c61.682-1.264 111.17-51.359 111.683-113.05 0.513-61.693-48.137-112.604-109.789-114.892H297.984c-101.129-1.386-182.62-83.321-183.455-184.456-0.835-101.135 79.29-184.405 180.383-187.461l341.49-0.052C652.474 111.672 710.67 64 780 64z" p-id="1090"></path></svg>