<?xml version="1.0" standalone="no"?><!DOCTYPE svg PUBLIC "-//W3C//DTD SVG 1.1//EN" "http://www.w3.org/Graphics/SVG/1.1/DTD/svg11.dtd"><svg t="1679048023486" class="icon" viewBox="0 0 1024 1024" version="1.1" xmlns="http://www.w3.org/2000/svg" p-id="1794" xmlns:xlink="http://www.w3.org/1999/xlink" width="200" height="200"><path d="M512 52.032c5.12-0.128 10.176 0.64 15.04 2.048l339.84 115.84a23.552 23.552 0 0 1 14.912 21.184v482.368a37.184 37.184 0 0 1-12.608 25.92L524.48 968a20.48 20.48 0 0 1-12.608 4.096A20.672 20.672 0 0 1 499.328 968L154.624 699.392a37.44 37.44 0 0 1-12.608-25.92V191.04a24 24 0 0 1 15.04-21.12l339.84-115.84A49.152 49.152 0 0 1 512 52.032z m176 275.84h-55.168a16.128 16.128 0 0 0-13.056 6.656L468.864 542.272l-64.64-88.96a16.32 16.32 0 0 0-13.056-6.592H336a8 8 0 0 0-6.528 12.672l126.4 174.016a16.128 16.128 0 0 0 26.048 0l212.608-292.736a8.128 8.128 0 0 0-6.528-12.8z" p-id="1795"></path></svg>