<?xml version="1.0" encoding="UTF-8"?>
<svg width="12px" height="12px" viewBox="0 0 12 12" version="1.1" xmlns="http://www.w3.org/2000/svg" xmlns:xlink="http://www.w3.org/1999/xlink">
    <title>布控任务</title>
    <g id="最终0419" stroke="none" stroke-width="1" fill="none" fill-rule="evenodd">
        <g id="00-行业应用导航" transform="translate(-366.000000, -192.000000)" fill-rule="nonzero">
            <g id="编组-8" transform="translate(366.000000, 188.000000)">
                <g id="设防" transform="translate(0.000000, 4.000000)">
                    <rect id="矩形" fill="#000000" opacity="0" x="0" y="0" width="12" height="12"></rect>
                    <path d="M6,0.60975 C6.0596383,0.608575622 6.11909711,0.616672142 6.17625,0.63375 L6.17625,0.63375 L10.15875,1.99125 C10.2613665,2.0316546 10.3300796,2.12926848 10.3335,2.2395 L10.3335,2.2395 L10.3335,7.89225 C10.3270919,8.00924676 10.2738357,8.11873286 10.18575,8.196 L10.18575,8.196 L6.14625,11.34375 C6.10368363,11.375688 6.05170955,11.392573 5.9985,11.3917787 C5.94557196,11.392239 5.8939403,11.3753797 5.8515,11.34375 L5.8515,11.34375 L1.812,8.196 C1.731,8.13225 1.66425,7.99575 1.66425,7.89225 L1.66425,7.89225 L1.66425,2.23875 C1.66954772,2.12888298 1.73840697,2.03218702 1.8405,1.99125 L1.8405,1.99125 L5.823,0.63375 C5.88039311,0.616594958 5.94011097,0.60849762 6,0.60975 Z M8.0625,3.84225 L7.416,3.84225 C7.35544995,3.84225 7.29856114,3.87124272 7.263,3.92025 L7.263,3.92025 L5.4945,6.35475 L4.737,5.31225 C4.70175,5.26425 4.644,5.235 4.584,5.235 L4.584,5.235 L3.9375,5.235 C3.90225354,5.2348501 3.86990143,5.25448223 3.85375993,5.28581572 C3.83761843,5.31714921 3.84041556,5.35488852 3.861,5.3835 L3.861,5.3835 L5.34225,7.42275 C5.37783502,7.47147104 5.43454231,7.5002753 5.494875,7.5002753 C5.55520769,7.5002753 5.61191498,7.47147104 5.6475,7.42275 L5.6475,7.42275 L8.139,3.99225 C8.1825,3.93075 8.139,3.84375 8.0625,3.84225 L8.0625,3.84225 Z" id="形状结合" fill="#6D7789"></path>
                </g>
            </g>
        </g>
    </g>
</svg>