<?xml version="1.0" standalone="no"?><!DOCTYPE svg PUBLIC "-//W3C//DTD SVG 1.1//EN" "http://www.w3.org/Graphics/SVG/1.1/DTD/svg11.dtd"><svg t="1677676165873" class="icon" viewBox="0 0 1024 1024" version="1.1" xmlns="http://www.w3.org/2000/svg" p-id="2151" xmlns:xlink="http://www.w3.org/1999/xlink" width="200" height="200"><path d="M780.8 140.608l86.08 29.312a23.534 23.534 0 0 1 14.912 20.8v482.752a37.184 37.184 0 0 1-12.16 25.6l-0.448 0.32L524.48 968a20.48 20.48 0 0 1-12.16 4.096h-0.448a20.672 20.672 0 0 1-12.16-3.84l-0.384-0.256-226.816-176.768 126.528-161.92 65.216 85.888a16 16 0 0 0 25.28 0.32l0.192-0.32 274.496-361.344a8 8 0 0 0-6.4-12.8h-53.312a16 16 0 0 0-12.416 5.888l-0.256 0.32-214.848 278.912-37.248-49.024 341.12-436.544z m-67.712-98.816l47.296 36.928a8 8 0 0 1 1.536 11.008l-0.192 0.192L168 847.104a8 8 0 0 1-11.2 1.408l-47.296-36.992a8 8 0 0 1-1.536-11.008l0.192-0.192 66.752-85.12-20.224-15.808a37.568 37.568 0 0 1-12.608-25.472V191.04a24 24 0 0 1 14.656-20.928l0.384-0.192L496.96 54.08a49.152 49.152 0 0 1 13.44-2.048h1.6a49.152 49.152 0 0 1 14.272 1.856l0.768 0.192 131.136 44.672 43.648-55.68a8 8 0 0 1 11.2-1.28z m-376.96 409.216h-56.32a8 8 0 0 0-6.592 12.608l0.192 0.192 48.512 63.872 40.832-52.032-13.952-18.304a16 16 0 0 0-12.352-6.4H336z" p-id="2152"></path></svg>