<?xml version="1.0" standalone="no"?><!DOCTYPE svg PUBLIC "-//W3C//DTD SVG 1.1//EN" "http://www.w3.org/Graphics/SVG/1.1/DTD/svg11.dtd"><svg t="1658232620825" class="icon" viewBox="0 0 1024 1024" version="1.1" xmlns="http://www.w3.org/2000/svg" p-id="23304" xmlns:xlink="http://www.w3.org/1999/xlink" width="200" height="200"><defs><style type="text/css">@font-face { font-family: feedback-iconfont; src: url("//at.alicdn.com/t/font_1031158_u69w8yhxdu.woff2?t=1630033759944") format("woff2"), url("//at.alicdn.com/t/font_1031158_u69w8yhxdu.woff?t=1630033759944") format("woff"), url("//at.alicdn.com/t/font_1031158_u69w8yhxdu.ttf?t=1630033759944") format("truetype"); }
</style></defs><path d="M822.245 216.518l-295.41-100.684a47.995 47.995 0 0 0-26.283 0l-295.41 100.684A20.857 20.857 0 0 0 192 234.974v419.418c0 7.6 4.914 17.714 10.914 22.457l299.695 233.594c6.514 4.743 15.427 4.743 21.941 0l299.695-233.594a32.343 32.343 0 0 0 10.971-22.457V234.974a20.57 20.57 0 0 0-12.97-18.456zM676.083 499.71H549.234v126.797a7.143 7.143 0 0 1-7.142 7.143h-57.14a7.143 7.143 0 0 1-7.142-7.143V499.653H351.076a7.143 7.143 0 0 1-7.143-7.085v-57.142c0-3.942 3.2-7.142 7.143-7.142h126.849v-126.74c0-4 3.2-7.2 7.142-7.2h57.14c3.942 0 7.142 3.2 7.142 7.2v126.74H676.14c3.942 0 7.142 3.2 7.142 7.142v57.142c0 4-3.2 7.142-7.142 7.142h-0.058z" p-id="23305"></path></svg>