<?xml version="1.0" standalone="no"?><!DOCTYPE svg PUBLIC "-//W3C//DTD SVG 1.1//EN" "http://www.w3.org/Graphics/SVG/1.1/DTD/svg11.dtd"><svg t="1657267506052" class="icon" viewBox="0 0 1024 1024" version="1.1" xmlns="http://www.w3.org/2000/svg" p-id="737" xmlns:xlink="http://www.w3.org/1999/xlink" width="200" height="200"><defs><style type="text/css">@font-face { font-family: feedback-iconfont; src: url("//at.alicdn.com/t/font_1031158_u69w8yhxdu.woff2?t=1630033759944") format("woff2"), url("//at.alicdn.com/t/font_1031158_u69w8yhxdu.woff?t=1630033759944") format("woff"), url("//at.alicdn.com/t/font_1031158_u69w8yhxdu.ttf?t=1630033759944") format("truetype"); }
</style></defs><path d="M907.79106293 160.05129102c-1.93317671 1.87794395-190.50079952-28.72148955-390.44655156-89.92035396C345.95454798 131.32980148 128.77590377 161.92923497 128.77590377 161.92923497 115.46459781 163.8624117 104.03123579 177.2841845 104.03123579 192.58390124v342.39328963c0 3.81112067 5.68906462 78.43175918 55.23363335 164.4857597 24.57896708 44.40784087 73.01886228 84.50745837 116.43249776 120.40931933l20.65737959 17.23289348c59.09998679 49.82073647 131.45604678 88.09764407 215.2454675 114.88595691l7.62224133 1.87794265 7.62224133-1.87794265c83.78942071-26.78831153 154.26753675-65.06521915 213.3122895-114.83072284 6.62803595-5.63383056 13.64270777-11.37812795 20.71261235-17.28812755 43.41363547-35.90186097 91.90876475-76.00147846 116.43249905-120.40931933 51.36727861-87.98717725 55.23363335-162.60781575 55.23363206-166.36370237v-342.44852498c0-13.36653873-11.43336202-28.72148955-24.74466668-30.5994322z m-520.63222393 376.69337696a21.7620518 21.7620518 0 0 1-17.45382843-8.61644674 19.88410785 19.88410785 0 0 1-2.92738211-18.55850065l85.1150279-243.85649022a42.80606595 42.80606595 0 0 1 40.65195426-28.16915279h101.62988372c7.1803727 0 13.9188755 3.47971888 17.89569707 9.27925033a19.88410785 19.88410785 0 0 1 1.82270987 19.38700516l-65.50708777 148.30230439h129.79903651c11.76476382 0 22.4248554 6.62803595 27.34064829 16.8462589a27.94821783 27.94821783 0 0 1-4.58439111 30.87559995l-246.83910508 274.73209015c-5.90999828 6.62803595-16.95672574 1.10467223-14.85784813-7.29083955l49.04746603-192.98631299h-101.13278102z" p-id="738"></path></svg>