<?xml version="1.0" standalone="no"?><!DOCTYPE svg PUBLIC "-//W3C//DTD SVG 1.1//EN" "http://www.w3.org/Graphics/SVG/1.1/DTD/svg11.dtd"><svg t="1678079124015" class="icon" viewBox="0 0 1024 1024" version="1.1" xmlns="http://www.w3.org/2000/svg" p-id="2602" xmlns:xlink="http://www.w3.org/1999/xlink" width="200" height="200"><path d="M512 64a448 448 0 1 1 0 896 448 448 0 0 1 0-896z m0 64a384 384 0 1 0 0 768 384 384 0 0 0 0-768z m0 48a336 336 0 1 1 0 672 336 336 0 0 1 0-672z m74.24 127.872l-69.376 69.376a32 32 0 0 0 0 45.248l47.936 48c-9.728 21.44-23.04 40.704-39.68 57.472l-0.576 0.512a197.696 197.696 0 0 1-58.048 40.448l-48-48a32 32 0 0 0-45.248 0l-69.44 69.312a32 32 0 0 0 0 45.248l59.264 59.264a65.728 65.728 0 0 0 56.32 18.368l0.64-0.064c67.392-11.136 134.208-46.976 188.16-100.864 53.888-53.824 89.728-120.64 100.928-188.224a65.792 65.792 0 0 0-18.304-56.96l-59.328-59.2a32 32 0 0 0-45.248 0z" p-id="2603"></path></svg>