<?xml version="1.0" standalone="no"?><!DOCTYPE svg PUBLIC "-//W3C//DTD SVG 1.1//EN" "http://www.w3.org/Graphics/SVG/1.1/DTD/svg11.dtd"><svg t="1739785703414" class="icon" viewBox="0 0 1024 1024" version="1.1" xmlns="http://www.w3.org/2000/svg" p-id="906" xmlns:xlink="http://www.w3.org/1999/xlink" width="200" height="200"><path d="M854.144 345.088l2.048 2.176a360.064 360.064 0 0 1-498.304 518.592l-13.44-12.416a5.888 5.888 0 0 1-0.128-8.32l30.144-30.208a7.552 7.552 0 0 1 10.368-0.256A304.064 304.064 0 0 0 828.224 400l-15.04-16.64a5.12 5.12 0 0 1 0-7.168l31.104-31.104a6.912 6.912 0 0 1 9.856 0zM673.92 74.304l164.032 164.032a32 32 0 0 1 0 45.248L724.8 396.736a32 32 0 0 1-45.248 0L620.16 337.28l-42.432 42.432 59.392 59.392a32 32 0 0 1 0 45.248L484.48 637.12a32 32 0 0 1-45.248 0l-59.392-59.392-42.432 42.432 59.392 59.392a32 32 0 0 1 0 45.248L283.52 837.952a32 32 0 0 1-45.248 0L74.24 673.92a32 32 0 0 1 0-45.248L187.328 515.52a32 32 0 0 1 45.312 0l59.392 59.392L334.4 532.48 122.304 320.384a32 32 0 0 1 0-45.312l152.704-152.704a32 32 0 0 1 45.312 0l212.16 212.096 42.432-42.368-59.392-59.392a32 32 0 0 1 0-45.312L628.672 74.304a32 32 0 0 1 45.248 0z m72.64 378.24a208 208 0 0 1-279.616 306.368l-11.072-9.344-2.24-2.112a8 8 0 0 1-2.048-8.576l2.112-3.2 27.52-27.52a8.064 8.064 0 0 1 11.264-0.96l4.352 3.84a152 152 0 0 0 212.16-216.576l-1.728-1.92c-2.88-3.072-2.88-7.36-0.32-10.112l29.952-29.888a6.848 6.848 0 0 1 9.6 0zM360 263.744L263.744 360l39.552 39.616 96.256-96.256-39.616-39.552z" p-id="907"></path><path d="M210.048 594.688l-56.576 56.576 107.52 107.52 56.512-56.576z m441.216-441.216l-56.576 56.576 107.52 107.52 56.576-56.64z" p-id="908"></path></svg>