<?xml version="1.0" standalone="no"?><!DOCTYPE svg PUBLIC "-//W3C//DTD SVG 1.1//EN" "http://www.w3.org/Graphics/SVG/1.1/DTD/svg11.dtd"><svg t="1678075054142" class="icon" viewBox="0 0 1024 1024" version="1.1" xmlns="http://www.w3.org/2000/svg" p-id="5332" xmlns:xlink="http://www.w3.org/1999/xlink" width="200" height="200"><path d="M284.352 754.88l0.64 0.576 52.992 53.056 53.12-53.12a48 48 0 0 1 67.264-0.512l0.576 0.576L512 808.512l53.056-53.12a48 48 0 0 1 67.328-0.512l0.576 0.576 53.056 53.056 53.056-53.12a48 48 0 0 1 67.328-0.512l0.512 0.576 70.08 70.016a8 8 0 0 1 0 11.328l-33.92 33.92a8 8 0 0 1-11.328 0l-58.752-58.688-53.056 53.056a48 48 0 0 1-67.328 0.512l-0.576-0.512-53.056-53.12-53.056 53.12a48 48 0 0 1-67.264 0.512l-0.64-0.512-52.992-53.12-53.12 53.12a48 48 0 0 1-67.264 0.512l-0.64-0.512-52.992-53.12-58.752 58.752a8 8 0 0 1-11.264 0l-33.92-33.92a8 8 0 0 1 0-11.328l70.016-70.016a48 48 0 0 1 67.264-0.64z m0-161.728l0.64 0.512 52.992 53.12 53.12-53.12a48 48 0 0 1 67.264-0.512l0.576 0.512L512 646.784l53.056-53.12a48 48 0 0 1 67.328-0.512l0.576 0.512 53.056 53.12 53.056-53.12a48 48 0 0 1 67.328-0.512l0.512 0.512 70.08 70.08a8 8 0 0 1 0 11.264l-33.92 33.92a8 8 0 0 1-11.328 0l-58.752-58.688-53.056 53.12a48 48 0 0 1-67.328 0.512l-0.576-0.576-53.056-53.056-53.056 53.12a48 48 0 0 1-67.264 0.512l-0.64-0.576-52.992-53.056-53.12 53.12a48 48 0 0 1-67.264 0.512l-0.64-0.576-52.992-53.056-58.752 58.752a8 8 0 0 1-11.264 0l-33.92-33.92a8 8 0 0 1 0-11.328l70.016-70.08a48 48 0 0 1 67.264-0.512zM120 465.92h784c4.416 0 8 3.584 8 8v48a8 8 0 0 1-8 8H120a8 8 0 0 1-8-8v-48c0-4.416 3.584-8 8-8zM288 112a64 64 0 1 1 0 128 64 64 0 0 1 0-128z m583.872 373.12a8.128 8.128 0 0 1-5.12 1.92H197.248a8 8 0 0 1-6.4-12.992l170.496-202.24a8.064 8.064 0 0 1 11.392-1.024l1.024 1.024 99.392 117.952 158.08-187.52a8.064 8.064 0 0 1 11.328-1.024l0.96 1.024 229.632 271.616a8.128 8.128 0 0 1-1.28 11.2v0.064z" p-id="5333"></path></svg>