<?xml version="1.0" standalone="no"?><!DOCTYPE svg PUBLIC "-//W3C//DTD SVG 1.1//EN" "http://www.w3.org/Graphics/SVG/1.1/DTD/svg11.dtd"><svg t="1678070733693" class="icon" viewBox="0 0 1024 1024" version="1.1" xmlns="http://www.w3.org/2000/svg" p-id="3160" xmlns:xlink="http://www.w3.org/1999/xlink" width="200" height="200"><path d="M832 64H192a32 32 0 0 0-32 32v832a32 32 0 0 0 32 32h640a32 32 0 0 0 32-32V96a32 32 0 0 0-32-32zM706.368 418.368L648 360l-58.24 59.2a8 8 0 0 1-13.76-5.632v-281.92c0-4.352 3.456-7.872 7.744-8H584l128 0.32c4.48 0 8 3.584 8 8v280.704a8 8 0 0 1-13.632 5.696z" p-id="3161"></path></svg>