<?xml version="1.0" standalone="no"?><!DOCTYPE svg PUBLIC "-//W3C//DTD SVG 1.1//EN" "http://www.w3.org/Graphics/SVG/1.1/DTD/svg11.dtd"><svg t="1657267351512" class="icon" viewBox="0 0 1024 1024" version="1.1" xmlns="http://www.w3.org/2000/svg" p-id="801" xmlns:xlink="http://www.w3.org/1999/xlink" width="200" height="200"><defs><style type="text/css">@font-face { font-family: feedback-iconfont; src: url("//at.alicdn.com/t/font_1031158_u69w8yhxdu.woff2?t=1630033759944") format("woff2"), url("//at.alicdn.com/t/font_1031158_u69w8yhxdu.woff?t=1630033759944") format("woff"), url("//at.alicdn.com/t/font_1031158_u69w8yhxdu.ttf?t=1630033759944") format("truetype"); }
</style></defs><path d="M771.2158232 579.04047935L960.57144492 515.88266076v315.61234392l-189.35562172-63.09890224v94.67781084a30.75408681 30.75408681 0 0 1-8.83738125 22.74152733 30.75408681 30.75408681 0 0 1-22.74152871 8.83738127H108.41222816a30.75408681 30.75408681 0 0 1-22.74152873-8.83738127 30.75408681 30.75408681 0 0 1-8.83738125-22.74152733v-378.71124478c0-9.24979285 2.9457933-16.79102442 8.83738125-22.74152871a30.75408681 30.75408681 0 0 1 22.74152873-8.83738128H739.63691324c9.24979285 0 16.79102442 2.9457933 22.74152871 8.83738128 5.89158797 5.89158797 8.83738127 13.55065082 8.83738125 22.74152871V579.04047935z m-568.12578419 189.35562309v63.09890224h378.77016112v-63.09890224H203.09003901z m189.35562308-473.38905703c1.35506467-44.71714921 16.79102442-81.89306688 46.36679279-111.46883526 29.63468473-29.63468473 66.75168604-45.07064446 111.46883665-46.36679418 44.65823287 1.29614971 81.89306688 16.79102442 111.35100397 46.36679418 29.69360106 29.57576977 45.1295608 66.75168604 46.42570913 111.46883526-1.29614971 44.65823287-16.79102442 81.89306688-46.36679417 111.46883525-29.57576977 29.51685344-66.75168604 45.01172812-111.40991893 46.30787785-44.71714921-1.29614971-81.89306688-16.79102442-111.46883665-46.30787785-29.57576977-29.69360106-45.01172812-66.81060238-46.36679279-111.46883525z m63.15781721 0c0 17.08560333 4.30085935 32.87505831 12.78474536 47.30944727 8.54280236 14.43438895 20.20814562 25.92298459 34.99602981 34.52470326 14.84680053 8.6017173 30.40059155 12.84366031 46.83812073 12.84366032 16.37861281 0 32.16806781-4.30085935 47.30944724-12.84366032 15.14137943-8.54280236 26.86563906-20.03139801 35.05494617-34.52470326 8.18930709-14.43438895 12.37233377-30.75408681 12.31341744-47.30944727-0.58915921-26.98347035-9.83895069-49.31258747-27.57262956-67.16409763-17.73367887-17.67476253-40.06279462-26.51214381-67.16409763-26.51214382-26.92455539 0-49.19475619 8.83738127-66.98735001 26.51214382-17.73367887 17.85151015-26.98347035 40.18062729-27.69046084 67.16409763h0.11783129z m-315.61234255 31.51999363c0-22.97719129 5.53809273-44.06907505 16.73210807-63.09890224 11.19401674-19.08874354 26.62997509-34.34795566 46.36679419-45.95438259a123.25201121 123.25201121 0 0 1 63.15781858-17.20343599c22.32911714 0 43.36208453 5.7737553 63.09890225 17.26235095 19.73681771 11.54751198 35.23169378 26.80672272 46.30787785 45.89546763 11.25293169 19.0298272 16.79102442 40.06279462 16.7910244 63.09890224-0.58915921 35.52627269-12.96149298 65.2787901-36.9402537 89.25755082-24.03767705 23.97876071-53.79019444 36.29217952-89.2575508 36.99916865-35.58518903-0.58915921-65.2787901-12.96149298-89.2575508-36.99916865-24.03767705-23.97876071-36.29217952-53.79019444-36.99917004-89.25755082z m63.09890226 0c0.58915921 17.73367887 6.95207373 32.58047941 18.73524829 44.36365398 11.78317456 11.78317456 27.80829353 18.20500541 44.42257029 17.73367749 16.55536045 0.53024288 32.63939435-5.89158797 44.36365397-17.67476253 11.78317456-11.78317456 18.20500541-27.80829353 17.67476253-44.42256894a60.27094026 60.27094026 0 0 0-17.67476253-44.36365394c-11.72425962-11.78317456-27.80829353-18.26392176-44.36365397-17.73367888a60.38877153 60.38877153 0 0 0-44.42257029 17.73367888c-11.78317456 11.78317456-18.55850066 27.69046084-18.73524829 44.36365394z" p-id="802"></path></svg>