<?xml version="1.0" standalone="no"?><!DOCTYPE svg PUBLIC "-//W3C//DTD SVG 1.1//EN" "http://www.w3.org/Graphics/SVG/1.1/DTD/svg11.dtd"><svg t="1709114351628" class="icon" viewBox="0 0 1024 1024" version="1.1" xmlns="http://www.w3.org/2000/svg" p-id="4158" xmlns:xlink="http://www.w3.org/1999/xlink" width="200" height="200"><path d="M512 64a184 184 0 0 1 184 180.928V264h82.624a32 32 0 0 1 31.872 29.248l50.56 584a32 32 0 0 1-32 34.752H194.944a32 32 0 0 1-31.872-34.752l50.496-584A32 32 0 0 1 245.44 264H328l0.064-16A184 184 0 0 1 512 64z m1.856 72H512a112 112 0 0 0-112 110.144V264h224v-16a112 112 0 0 0-110.144-112z" p-id="4159"></path><path d="M741.952 336h-46.016l0.064 88a8 8 0 0 1-8 8h-56a8 8 0 0 1-8-8v-88H400v88a8 8 0 0 1-8 8h-56a8 8 0 0 1-8-8v-88h-45.952l-43.52 504h547.008l-43.584-504z" p-id="4160"></path></svg>