<?xml version="1.0" standalone="no"?><!DOCTYPE svg PUBLIC "-//W3C//DTD SVG 1.1//EN" "http://www.w3.org/Graphics/SVG/1.1/DTD/svg11.dtd"><svg t="1750919527626" class="icon" viewBox="0 0 1024 1024" version="1.1" xmlns="http://www.w3.org/2000/svg" p-id="1395" xmlns:xlink="http://www.w3.org/1999/xlink" width="200" height="200"><path d="M410.043 157.999A106.87 106.87 0 0 0 410 161c0 56.333 45.667 102 102 102s102-45.667 102-102c0-1.004-0.015-2.004-0.043-3.001h163.727a32.302 32.302 0 0 1 25.97 13.095l138.015 186.61 0.278 0.382c9.082 12.657 7.838 30.03-3.017 41.267L819.086 523.407l-0.363 0.37c-12.044 12.08-31.458 12.72-44.277 1.374l-14.074-12.688v320.825c0 17.839-14.461 32.3-32.3 32.3H296.049c-17.84 0-32.3-14.461-32.3-32.3V512.38l-14.195 12.77c-12.819 11.346-32.233 10.706-44.277-1.375l-0.363-0.37L85.07 399.354c-10.855-11.236-12.099-28.61-3.017-41.267l0.278-0.382 138.015-186.61A32.302 32.302 0 0 1 246.316 158h163.727z" p-id="1396"></path></svg>