<?xml version="1.0" standalone="no"?><!DOCTYPE svg PUBLIC "-//W3C//DTD SVG 1.1//EN" "http://www.w3.org/Graphics/SVG/1.1/DTD/svg11.dtd"><svg t="1666017206047" class="icon" viewBox="0 0 1024 1024" version="1.1" xmlns="http://www.w3.org/2000/svg" p-id="1412" xmlns:xlink="http://www.w3.org/1999/xlink" width="200" height="200"><path d="M928 480c17.673 0 32 14.327 32 32v344a8 8 0 0 1-8 8h-56a8 8 0 0 1-8-8V720H136v136a8 8 0 0 1-8 8H72a8 8 0 0 1-8-8V168a8 8 0 0 1 8-8h56a8 8 0 0 1 8 8v312h792zM276 216c55.228 0 100 44.772 100 100s-44.772 100-100 100-100-44.772-100-100 44.772-100 100-100z m520 0c55.228 0 100 44.772 100 100v68c0 17.673-14.327 32-32 32H448c-17.673 0-32-14.327-32-32V248c0-17.673 14.327-32 32-32h348z" p-id="1413"></path></svg>