<?xml version="1.0" standalone="no"?><!DOCTYPE svg PUBLIC "-//W3C//DTD SVG 1.1//EN" "http://www.w3.org/Graphics/SVG/1.1/DTD/svg11.dtd"><svg t="1648635406921" class="icon" viewBox="0 0 1024 1024" version="1.1" xmlns="http://www.w3.org/2000/svg" p-id="22493" xmlns:xlink="http://www.w3.org/1999/xlink" width="200" height="200"><defs><style type="text/css">@font-face { font-family: feedback-iconfont; src: url("//at.alicdn.com/t/font_1031158_u69w8yhxdu.woff2?t=1630033759944") format("woff2"), url("//at.alicdn.com/t/font_1031158_u69w8yhxdu.woff?t=1630033759944") format("woff"), url("//at.alicdn.com/t/font_1031158_u69w8yhxdu.ttf?t=1630033759944") format("truetype"); }
</style></defs><path d="M765.287 112.799c16.7 0 30.266 13.4 30.536 30.035l0.004 0.505-0.001 299.66H849c8.284 0.001 15 6.717 15 15.001v261c0 8.284-6.716 15-15 15l-74.554 0.003c-42.548 103.003-143.992 175.493-262.355 175.493-118.364 0-219.808-72.49-262.355-175.493L175 734.001c-8.284-0.001-15-6.717-15-15.001V458c0-8.284 6.716-15 15-15l53.355-0.001v-299.66c0-16.7 13.4-30.266 30.035-30.54h506.897z m-261.67 398.626C479.398 543.54 414 634.353 414 678.623 414 732.956 458.1 777 512.5 777s98.5-44.044 98.5-98.377c0-44.27-65.398-135.083-89.618-167.198-4.449-5.9-13.315-5.9-17.764 0z m10.551 56.48c9.15 13.319 52.832 78.42 52.832 107.427C567 707.734 542.6 734 512.5 734S458 707.734 458 675.332c0-29.007 43.682-94.108 52.832-107.426 0.83-1.208 2.506-1.208 3.336 0zM669.871 224H354.129C347.43 224 342 230.396 342 238.286v171.428c0 7.89 5.43 14.286 12.13 14.286h315.74c6.7 0 12.13-6.396 12.13-14.286V238.286c0-7.89-5.43-14.286-12.13-14.286zM632 274v100H391V274h241z" p-id="22494"></path></svg>