<?xml version="1.0" standalone="no"?><!DOCTYPE svg PUBLIC "-//W3C//DTD SVG 1.1//EN" "http://www.w3.org/Graphics/SVG/1.1/DTD/svg11.dtd"><svg t="1658235652502" class="icon" viewBox="0 0 1024 1024" version="1.1" xmlns="http://www.w3.org/2000/svg" p-id="26513" xmlns:xlink="http://www.w3.org/1999/xlink" width="200" height="200"><defs><style type="text/css">@font-face { font-family: feedback-iconfont; src: url("//at.alicdn.com/t/font_1031158_u69w8yhxdu.woff2?t=1630033759944") format("woff2"), url("//at.alicdn.com/t/font_1031158_u69w8yhxdu.woff?t=1630033759944") format("woff"), url("//at.alicdn.com/t/font_1031158_u69w8yhxdu.ttf?t=1630033759944") format("truetype"); }
</style></defs><path d="M823.357 26.203L843.19 54.58a8 8 0 0 1 0.883 7.522l-0.295 0.738-0.277 0.67c-0.133 0.318-0.26 0.61-0.378 0.875-32.182 71.939-102.162 100.062-162.488 67.31l-3.373 1.319-4.231 1.667-3.926 1.562c-30.89 12.351-49.482 21.317-66.552 32.181-26.861 17.096-39.303 33.896-39.55 52.997L563 222v250.565l119.187-14.302c17.548-2.106 33.48 10.412 35.585 27.96a32 32 0 0 1 0.219 3.047l0.009 0.765v37.707c11.854 5.89 20 18.123 20 32.258 0 19.882-16.118 36-36 36s-36-16.118-36-36c0-14.135 8.146-26.367 20-32.258v-37.707l-123 14.759V826h5.533a8 8 0 0 1 7.98 7.45l10.897 158a8 8 0 0 1-7.43 8.531c-0.184 0.019-0.367 0.019-0.55 0.019H476.57a8 8 0 0 1-7.98-8.55l10.896-158a8 8 0 0 1 7.981-7.45h5.392V357l-0.003-0.539c-0.264-17.583-13.445-33.735-42.105-50.307l-0.873-0.502-0.768-0.438c-22.873-12.998-47.826-23.068-98.048-40.423-60.972 35.636-132.85 7.968-165.708-65.055l-1.053-2.383-0.219-0.476a8 8 0 0 1 0.926-8.267l0.687-0.89 17.462-24.238a8 8 0 0 1 10.882-2.01l0.457 0.297c13.284 8.588 30.067 16.95 50.885 25.547l3.356 1.375 3.68 1.486 2.497 0.994c13.768 5.45 28.289 10.694 50.524 18.349l9.353 3.207 24.028 8.194c22.1 7.565 35.745 12.407 49.458 17.649l3.211 1.234 2.872 1.115c22.756 8.884 41.458 17.436 57.373 26.544 19.299 11.045 34.4 22.88 45.345 36.304 0.657 0.806 1.298 1.616 1.923 2.431L519 222c0-36.972 21.359-66.149 59.928-90.696 14.789-9.413 32.163-18.242 53.25-27.38l3.413-1.467 3.247-1.38 3.847-1.612 3.188-1.318c10.074-4.14 21.068-8.423 36.058-14.102l28.833-10.858c24.65-9.31 39.476-15.181 54.277-21.651l2.583-1.135 2.316-1.03 2.282-1.026c17.119-7.75 31.335-15.276 43.137-22.977l0.82-0.537a5.24 5.24 0 0 1 7.178 1.372zM436 416c8.837 0 16 7.163 16 16v224c0 8.837-7.163 16-16 16H292c-8.837 0-16-7.163-16-16V432c0-8.837 7.163-16 16-16h144z" p-id="26514"></path></svg>