<?xml version="1.0" standalone="no"?><!DOCTYPE svg PUBLIC "-//W3C//DTD SVG 1.1//EN" "http://www.w3.org/Graphics/SVG/1.1/DTD/svg11.dtd"><svg t="1711440242597" class="icon" viewBox="0 0 1024 1024" version="1.1" xmlns="http://www.w3.org/2000/svg" p-id="1046" xmlns:xlink="http://www.w3.org/1999/xlink" width="200" height="200"><path d="M523.328 93.312l409.344 409.344a16 16 0 0 1-11.328 27.328H864V896a16 16 0 0 1-16 16H176a16 16 0 0 1-16-16V529.984h-57.344a16 16 0 0 1-11.328-27.328L500.672 93.312a16 16 0 0 1 22.656 0zM484.032 464h-64v320h64V464z m120 136h-64v184h64V600z m119.936 32h-64v152h64V632z m-359.872-72h-64v224h64V560z" p-id="1047"></path></svg>