<?xml version="1.0" standalone="no"?><!DOCTYPE svg PUBLIC "-//W3C//DTD SVG 1.1//EN" "http://www.w3.org/Graphics/SVG/1.1/DTD/svg11.dtd"><svg t="1677985210291" class="icon" viewBox="0 0 1024 1024" version="1.1" xmlns="http://www.w3.org/2000/svg" p-id="1188" xmlns:xlink="http://www.w3.org/1999/xlink" width="200" height="200"><path d="M512 64a448 448 0 1 1 0 896 448 448 0 0 1 0-896z m144.64 516.48l-0.064 0.128-0.768 1.664a160 160 0 0 1-287.04 1.152l-0.128-0.384a8 8 0 0 0-10.112-3.904l-0.256 0.128-46.208 20.224h-0.128a5.696 5.696 0 0 0-2.816 7.424l0.064 0.192 1.152 2.304a224 224 0 0 0 403.328 0.384l1.088-2.368 0.064-0.128a6.144 6.144 0 0 0-2.944-8l-0.192-0.128-48.256-21.12a5.248 5.248 0 0 0-6.592 2.176l-0.064 0.192zM364.096 336a56 56 0 1 0 0 112 56 56 0 0 0 0-112z m296 0a56 56 0 1 0 0 112 56 56 0 0 0 0-112z" p-id="1189"></path></svg>