<?xml version="1.0" standalone="no"?><!DOCTYPE svg PUBLIC "-//W3C//DTD SVG 1.1//EN" "http://www.w3.org/Graphics/SVG/1.1/DTD/svg11.dtd"><svg t="1678331276758" class="icon" viewBox="0 0 1024 1024" version="1.1" xmlns="http://www.w3.org/2000/svg" p-id="2104" xmlns:xlink="http://www.w3.org/1999/xlink" width="200" height="200"><path d="M357.376 643.968a8 8 0 0 1 8 8.576 109.888 109.888 0 0 1-22.208 60.416l-8.512 11.072c-10.624 13.248-17.024 21.248-17.024 40 0 16.064 4.736 24.256 12.8 34.56l4.224 5.44c12.16 15.168 28.48 35.584 30.72 71.488a8 8 0 0 1-5.76 8.192l-2.176 0.32h-48.192a8 8 0 0 1-7.936-7.168 48.64 48.64 0 0 0-11.52-26.368l-5.12-6.464c-13.056-16.384-30.976-38.784-30.976-80 0-37.12 14.464-59.008 26.88-74.88l4.096-5.12c9.152-11.456 15.168-18.944 16.64-32.896a8 8 0 0 1 5.056-6.592l2.88-0.576h48.128z m202.368 0a8 8 0 0 1 8 8.576 110.016 110.016 0 0 1-22.208 60.416l-8.512 11.072C526.4 737.28 520 745.28 520 764.032c0 16.064 4.672 24.256 12.736 34.56l4.288 5.44c12.16 15.168 28.48 35.584 30.72 71.488a8 8 0 0 1-5.824 8.192l-2.176 0.32h-48.128a8 8 0 0 1-8-7.168 48.704 48.704 0 0 0-11.52-26.368l-13.376-17.152a110.784 110.784 0 0 1-22.784-69.312c0-33.024 11.52-53.952 22.784-69.376l8.256-10.624c9.152-11.456 15.168-18.944 16.64-32.896a8 8 0 0 1 5.12-6.592l2.88-0.576h48.128z m202.304 0a8 8 0 0 1 8 8.576 109.888 109.888 0 0 1-22.208 60.416l-8.512 11.072c-10.624 13.248-17.024 21.248-17.024 40 0 16.064 4.736 24.256 12.8 34.56l4.224 5.44c12.16 15.168 28.48 35.584 30.72 71.488a8 8 0 0 1-5.76 8.192l-2.176 0.32H713.92a8 8 0 0 1-7.936-7.168 48.64 48.64 0 0 0-11.52-26.368l-5.12-6.464c-13.056-16.384-30.976-38.784-30.976-80 0-37.12 14.464-59.008 26.88-74.88l4.096-5.12c9.152-11.456 15.168-18.944 16.64-32.896a8 8 0 0 1 5.056-6.592l2.88-0.576h48.128zM952 140.032a8.02 8.02 0 0 1 7.616 5.44l0.384 2.56v55.936a8 8 0 0 1-5.44 7.68l-2.56 0.384h-40v265.984a112 112 0 0 1-102.784 111.616l-9.216 0.384H224a112 112 0 0 1-111.616-102.848L112 478.08V211.968H72a8 8 0 0 1-7.616-5.44l-0.384-2.56v-55.936a8.126 8.126 0 0 1 5.44-7.68l2.56-0.384h880zM388.48 366.08h-48c-4.288 0-6.848 1.728-7.68 5.12l-0.32 2.88v96c0 4.288 1.664 6.848 5.12 7.68l2.88 0.32h48c4.224 0 6.784-1.728 7.68-5.12l0.32-2.88v-96c0-4.288-1.728-6.848-5.12-7.68l-2.88-0.32z m295.04 0h-48c-4.224 0-6.784 1.728-7.68 5.12l-0.32 2.88v96c0 4.288 1.728 6.848 5.12 7.68l2.88 0.32h48c4.288 0 6.848-1.728 7.68-5.12l0.32-2.88v-96c0-4.288-1.664-6.848-5.12-7.68l-2.88-0.32z m-147.52 0h-48c-4.288 0-6.848 1.728-7.68 5.12l-0.32 2.88v96c0 4.288 1.728 6.848 5.12 7.68l2.88 0.32h48c4.288 0 6.848-1.728 7.68-5.12l0.32-2.88v-96c0-4.288-1.728-6.848-5.12-7.68l-2.88-0.32z" p-id="2105"></path></svg>