<?xml version="1.0" standalone="no"?><!DOCTYPE svg PUBLIC "-//W3C//DTD SVG 1.1//EN" "http://www.w3.org/Graphics/SVG/1.1/DTD/svg11.dtd"><svg t="1648661077407" class="icon" viewBox="0 0 1024 1024" version="1.1" xmlns="http://www.w3.org/2000/svg" p-id="22573" xmlns:xlink="http://www.w3.org/1999/xlink" width="200" height="200"><defs><style type="text/css">@font-face { font-family: feedback-iconfont; src: url("//at.alicdn.com/t/font_1031158_u69w8yhxdu.woff2?t=1630033759944") format("woff2"), url("//at.alicdn.com/t/font_1031158_u69w8yhxdu.woff?t=1630033759944") format("woff"), url("//at.alicdn.com/t/font_1031158_u69w8yhxdu.ttf?t=1630033759944") format("truetype"); }
</style></defs><path d="M964.821333 153.6a8.106667 8.106667 0 0 1 7.978667 8.192v57.344a8.106667 8.106667 0 0 1-8.021333 8.192h-39.978667v272.384c0 63.36-50.133333 114.688-112 114.688H236.8c-61.866667 0-112-51.328-112-114.688V227.328h-39.978667a8.106667 8.106667 0 0 1-8.021333-8.192V161.792a8.106667 8.106667 0 0 1 8.021333-8.192zM400 358.4h-57.6c-6.4 0-9.6 2.432-9.6 7.296v87.808c0 4.864 3.2 7.296 9.6 7.296h57.6c6.4 0 9.6-2.432 9.6-7.296V365.653333c0-4.864-3.2-7.296-9.6-7.296z m281.6 0h-57.6c-6.4 0-9.6 2.432-9.6 7.296v87.808c0 4.864 3.2 7.296 9.6 7.296h57.6c6.4 0 9.6-2.432 9.6-7.296V365.653333c0-4.864-3.2-7.296-9.6-7.296z m-128 0h-57.6c-6.4 0-9.6 2.432-9.6 7.296v87.808c0 4.864 3.2 7.296 9.6 7.296h57.6c6.4 0 9.6-2.432 9.6-7.296V365.653333c0-4.864-3.2-7.296-9.6-7.296zM366.762667 673.792a7.552 7.552 0 0 0-2.133334-5.76 8.064 8.064 0 0 0-5.802666-2.432H311.125333a7.850667 7.850667 0 0 0-7.893333 6.826667c-1.450667 13.397333-7.424 20.608-16.512 31.573333-12.970667 15.701333-30.72 37.205333-30.72 76.8s17.749333 61.098667 30.72 76.8c9.088 10.965333 15.061333 18.218667 16.512 31.573333 0.426667 3.84 3.84 6.826667 7.893333 6.826667H358.826667c2.218667 0 4.309333-0.853333 5.802666-2.432a7.552 7.552 0 0 0 2.133334-5.76c-2.218667-34.389333-18.432-54.016-30.464-68.608-10.496-12.714667-16.853333-20.352-16.853334-38.4 0-18.005333 6.314667-25.685333 16.853334-38.4 12.032-14.592 28.245333-34.218667 30.464-68.608z m200.618666 0a7.552 7.552 0 0 0-2.133333-5.76 8.064 8.064 0 0 0-5.802667-2.432h-47.744a7.850667 7.850667 0 0 0-7.936 6.826667c-1.450667 13.397333-7.424 20.608-16.469333 31.573333-12.970667 15.701333-30.72 37.205333-30.72 76.8s17.749333 61.098667 30.72 76.8c9.045333 10.965333 15.018667 18.218667 16.469333 31.573333 0.426667 3.882667 3.882667 6.826667 7.936 6.826667h47.786667c2.133333 0 4.266667-0.853333 5.76-2.432a7.552 7.552 0 0 0 2.133333-5.76c-2.261333-34.389333-18.432-54.016-30.464-68.608-10.538667-12.714667-16.896-20.352-16.896-38.4 0-18.005333 6.357333-25.685333 16.896-38.4 12.032-14.592 28.202667-34.218667 30.464-68.608z m200.576 0a7.552 7.552 0 0 0-2.133333-5.76 8.064 8.064 0 0 0-5.802667-2.432h-47.701333a7.850667 7.850667 0 0 0-7.893333 6.826667c-1.450667 13.397333-7.424 20.608-16.469334 31.573333-12.970667 15.701333-30.72 37.205333-30.72 76.8s17.749333 61.098667 30.72 76.8c9.045333 10.965333 15.018667 18.218667 16.469334 31.573333 0.426667 3.84 3.84 6.826667 7.893333 6.826667h47.744c2.176 0 4.266667-0.853333 5.802667-2.432a7.552 7.552 0 0 0 2.133333-5.76c-2.261333-34.389333-18.432-54.016-30.506667-68.608-10.496-12.714667-16.853333-20.352-16.853333-38.4 0-18.005333 6.357333-25.685333 16.853333-38.4 12.032-14.592 28.245333-34.218667 30.464-68.608z" p-id="22574"></path></svg>