<?xml version="1.0" standalone="no"?><!DOCTYPE svg PUBLIC "-//W3C//DTD SVG 1.1//EN" "http://www.w3.org/Graphics/SVG/1.1/DTD/svg11.dtd"><svg t="1746000578330" class="icon" viewBox="0 0 1024 1024" version="1.1" xmlns="http://www.w3.org/2000/svg" p-id="818" xmlns:xlink="http://www.w3.org/1999/xlink" width="200" height="200"><path d="M715.733 470c65.465 0.263 126.916 25.958 172.784 72.286 45.883 46.277 71.007 107.905 70.75 173.384l-0.012 1.204c-0.38 38.105-9.66 75.82-26.95 109.462l-0.472 0.911v88.467l-0.002 0.315c-0.168 8.692-7.266 15.685-15.997 15.685h-88.468l-0.858 0.444c-34.05 17.5-72.205 26.793-110.687 26.985h-1.13c-64.336 0-124.999-24.644-170.899-69.383l-1.403-1.379C496.141 842.527 470.399 781.11 470 715.737c-0.126-33.282 6.266-65.537 19.015-95.898 12.275-29.275 30.032-55.678 52.591-78.238 22.597-22.596 48.937-40.305 78.254-52.598C649.87 476.395 681.797 470 714.634 470h1.1zM511.21 62c63.57 0 116.317 46.342 126.3 107.085l-0.043-0.26 0.003-0.01c125.62 49.723 218.754 163.798 238.736 301.569a289.684 289.684 0 0 0-86.74-38.809c-26.386-82.009-86.217-149.014-163.43-184.95l-0.673 1.342C604.215 289.529 561.037 318 511.209 318c-53.726 0-99.721-33.1-118.704-80.022l-0.723-1.825-3.55 1.305C271.387 281.203 188.209 393.888 188.209 526c0 17.114 1.396 33.903 4.08 50.257l0.291 1.748 1.54 0.012c69.717 1.13 125.884 57.997 125.884 127.983 0 22.123-5.612 42.934-15.49 61.09 40.06 31.896 88.255 54.018 140.97 62.752 12.448 29.108 29.652 56.17 51.184 80.158h-0.459c-93.888 0-179.906-33.695-246.614-89.657l0.215-0.11-0.726 0.367c-17.185 8.576-36.569 13.4-57.08 13.4-70.692 0-128-57.308-128-128 0-43.323 21.523-81.62 54.46-104.779l0.975-0.679-0.35-1.808c-4.516-23.551-6.88-47.866-6.88-72.734 0-174.258 116.073-321.406 275.121-368.346l-0.043 0.172C401.557 102.706 451.629 62 511.209 62z m99.059 621c-17.674 0-32 14.327-32 32 0 17.673 14.326 32 32 32 17.673 0 32-14.327 32-32 0-17.673-14.327-32-32-32z m208 0c-17.674 0-32 14.327-32 32 0 17.673 14.326 32 32 32 17.673 0 32-14.327 32-32 0-17.673-14.327-32-32-32z m-104 0c-17.674 0-32 14.327-32 32 0 17.673 14.326 32 32 32 17.673 0 32-14.327 32-32 0-17.673-14.327-32-32-32z" p-id="819"></path></svg>