<?xml version="1.0" standalone="no"?><!DOCTYPE svg PUBLIC "-//W3C//DTD SVG 1.1//EN" "http://www.w3.org/Graphics/SVG/1.1/DTD/svg11.dtd"><svg t="1677578997434" class="icon" viewBox="0 0 1024 1024" version="1.1" xmlns="http://www.w3.org/2000/svg" p-id="1470" xmlns:xlink="http://www.w3.org/1999/xlink" width="200" height="200"><path d="M496.128 40.832a21.504 21.504 0 0 1 31.552-0.256l0.192 0.256 282.24 327.296c10.368 12.032 1.216 29.696-15.36 30.08H229.76c-16.768 0-26.24-17.536-16.256-29.76l0.32-0.32L496.128 40.832z m298.048 584.96c16.768 0 26.24 17.536 16.256 29.76l-0.32 0.32-282.24 327.296a21.504 21.504 0 0 1-31.552 0.256l-0.192-0.256-282.24-327.296c-10.368-12.032-1.216-29.696 15.36-30.08h564.928z" p-id="1471"></path></svg>