<?xml version="1.0" standalone="no"?><!DOCTYPE svg PUBLIC "-//W3C//DTD SVG 1.1//EN" "http://www.w3.org/Graphics/SVG/1.1/DTD/svg11.dtd"><svg t="1725356210006" class="icon" viewBox="0 0 1024 1024" version="1.1" xmlns="http://www.w3.org/2000/svg" p-id="1590" xmlns:xlink="http://www.w3.org/1999/xlink" width="200" height="200"><path d="M544 124.032c247.424 0 448 173.696 448 387.968 0 214.272-200.576 388.032-448 388.032-100.928 0-194.112-28.928-268.992-77.76l-224.384 60.16a8 8 0 0 1-8.96-11.776l104.256-180.48A345.408 345.408 0 0 1 96 512c0-214.272 200.576-388.032 448-388.032zM736 368H352a144 144 0 1 0 137.472 186.56l0.192-0.768a56.192 56.192 0 0 1 54.4-41.792h0.704c24.96 0.32 46.656 17.088 53.312 41.088l0.256 0.704A144 144 0 1 0 736 368z m-368 40a88 88 0 1 1 0 176 88 88 0 0 1 0-176z m352 0a88 88 0 1 1 0 176 88 88 0 0 1 0-176z" p-id="1591"></path></svg>