<?xml version="1.0" standalone="no"?><!DOCTYPE svg PUBLIC "-//W3C//DTD SVG 1.1//EN" "http://www.w3.org/Graphics/SVG/1.1/DTD/svg11.dtd"><svg t="1678070737672" class="icon" viewBox="0 0 1024 1024" version="1.1" xmlns="http://www.w3.org/2000/svg" p-id="3316" xmlns:xlink="http://www.w3.org/1999/xlink" width="200" height="200"><path d="M462.528 515.712l-1.408 1.92L180.352 798.4a8.128 8.128 0 0 1-11.264 1.536l-1.344-1.28-4.352-5.184A446.08 446.08 0 0 1 65.152 544l-1.024-22.4L64 509.44c0-4.288 3.392-7.808 7.68-8l9.984-0.448a446.336 446.336 0 0 0 239.168-87.36l20.672-16.384a8 8 0 0 1 10.816 0.448l106.88 106.88a8.64 8.64 0 0 1 3.264 11.2z m164.288 166.72l-2.24 2.688a445.824 445.824 0 0 0-99.264 232.256l-2.304 26.496-0.384 8.384a8 8 0 0 1-7.936 7.68h-12.032a446.72 446.72 0 0 1-255.104-86.208l-16.96-13.12-5.312-4.352a8 8 0 0 1-0.96-11.264L506.368 562.88a8 8 0 0 1 8.64-1.728l2.88 1.984 108.48 108.48c2.944 2.944 3.136 7.68 0.448 10.88z m172.352 173.312l-17.728 14.272a445.056 445.056 0 0 1-151.68 74.24l-28.8 6.848-4.352 0.832a8 8 0 0 1-9.344-6.4l-0.064-1.984 0.768-9.92a382.4 382.4 0 0 1 69.76-186.688l13.568-17.92a8 8 0 0 1 8.448-2.56l3.2 1.664 116.224 116.288a8 8 0 0 1 0 11.328zM297.536 348.8l-2.048 3.328-4.544 3.712a382.08 382.08 0 0 1-184.448 78.272l-21.12 2.304-4.928 0.384a8 8 0 0 1-8.512-7.488l0.128-1.984 1.344-7.04a445.312 445.312 0 0 1 78.72-175.36l15.616-19.712a8 8 0 0 1 8.448-2.56l3.2 1.92L295.04 340.288c2.56 2.176 3.392 5.568 2.496 8.512zM436.672 78.4l0.128 1.024-1.28 16.384a382.336 382.336 0 0 1-68.672 180.352l-14.208 18.688A8 8 0 0 1 341.376 296l-116.48-116.48a8 8 0 0 1-1.92-8.64l1.984-2.944 1.472-1.216a445.184 445.184 0 0 1 165.824-86.592l25.92-6.272 9.152-1.792a8 8 0 0 1 9.344 6.4z m362.56 101.12l-281.6 281.472a8 8 0 0 1-8.448 1.856l-2.816-1.856-108.16-108.096a8.064 8.064 0 0 1-1.152-11.264l3.008-3.584A445.888 445.888 0 0 0 499.2 102.4l2.112-27.712 0.128-3.008a8 8 0 0 1 7.872-7.68h10.624a446.528 446.528 0 0 1 271.104 97.408l7.68 6.272c2.56 2.112 3.392 5.504 2.496 8.512l-1.984 3.264z m55.552 44.352l0.768 0.64 4.992 5.888a446.272 446.272 0 0 1 98.944 259.584L960 514.56a8 8 0 0 1-7.68 7.936h-1.088a446.464 446.464 0 0 0-250.496 89.6l-18.304 14.72a8.064 8.064 0 0 1-11.264-0.96l-106.24-106.24a8.768 8.768 0 0 1-3.584-11.136l0.704-1.152L843.52 225.664a8.192 8.192 0 0 1 11.264-1.792z m97.472 370.112v0.96l-0.192 1.088a445.44 445.44 0 0 1-71.68 171.008L861.696 792l-5.44 6.592a8 8 0 0 1-8.448 2.56l-3.392-2.048-115.84-115.84a8 8 0 0 1-0.32-11.264l1.536-1.28a382.08 382.08 0 0 1 193.28-81.728l21.184-1.92a7.488 7.488 0 0 1 8 6.912z" p-id="3317"></path></svg>