<?xml version="1.0" standalone="no"?><!DOCTYPE svg PUBLIC "-//W3C//DTD SVG 1.1//EN" "http://www.w3.org/Graphics/SVG/1.1/DTD/svg11.dtd"><svg t="1678079179531" class="icon" viewBox="0 0 1024 1024" version="1.1" xmlns="http://www.w3.org/2000/svg" p-id="4457" xmlns:xlink="http://www.w3.org/1999/xlink" width="200" height="200"><path d="M912 714.88v75.904c0 66.304-179.072 120-400 120s-400-53.76-400-120V714.88c15.232 10.624 33.408 20.288 54.272 28.928l2.304 0.96 2.368 0.96 6.016 2.368 2.432 0.896 2.496 0.896 2.432 0.96a473.6 473.6 0 0 0 1.28 0.448l2.56 0.896 2.496 0.896 1.28 0.384 2.56 0.896 1.28 0.448 2.56 0.832 5.312 1.728 2.688 0.832 4.032 1.28 2.688 0.832c80.128 24 186.24 37.504 298.944 37.504 112.64 0 218.816-13.44 298.88-37.504l2.752-0.832 4.032-1.28 2.688-0.832 5.248-1.728 2.56-0.832a521.6 521.6 0 0 0 1.344-0.448l2.56-0.896 1.28-0.384 2.56-0.896 2.56-0.896 1.216-0.448 2.432-0.96 2.496-0.896 2.432-0.896 6.016-2.368 2.368-0.96 2.304-0.96A284.8 284.8 0 0 0 912 714.88z m-800-89.984v-75.968c15.232 10.624 33.408 20.288 54.272 28.928l2.304 0.96 2.368 0.96 6.016 2.368 2.432 0.896 2.496 0.96 2.432 0.896 1.28 0.448 2.56 0.896 2.496 0.896 1.28 0.448 2.56 0.832 1.28 0.448 2.56 0.896 5.312 1.664 2.688 0.896 4.032 1.216 2.688 0.832c80.128 24.064 186.24 37.504 298.944 37.504 112.64 0 218.816-13.44 298.88-37.504l2.752-0.832 4.032-1.28 2.688-0.832 5.248-1.664 2.56-0.896 1.344-0.448 2.56-0.832 1.28-0.448 2.56-0.896 2.56-0.896 1.216-0.448 2.432-0.896 2.496-0.96 2.432-0.896 6.016-2.368 2.368-0.96 2.304-0.96A284.8 284.8 0 0 0 912 548.928v75.968c0 66.24-179.072 120-400 120s-400-53.76-400-120z m800-242.88v76.864c0 66.24-179.072 120-400 120s-400-53.76-400-120v-76.864c15.232 10.624 33.408 20.288 54.272 28.928l2.304 0.96 2.368 0.96 6.016 2.304 2.432 0.96 2.496 0.896 2.432 0.896 1.28 0.512 2.56 0.896 2.496 0.832 1.28 0.448 2.56 0.896 1.28 0.448 2.56 0.832 5.312 1.728 2.688 0.832 4.032 1.28 2.688 0.832c80.128 24 186.24 37.504 298.944 37.504 112.64 0 218.816-13.44 298.88-37.504l2.752-0.832 4.032-1.28 2.688-0.832 5.248-1.728 2.56-0.832 1.344-0.448 2.56-0.896 1.28-0.448 2.56-0.832 2.56-0.896 1.216-0.512 2.432-0.896 2.496-0.896 2.432-0.96 6.016-2.304 2.368-0.96 2.304-0.96A284.8 284.8 0 0 0 912 382.016zM512 112c220.928 0 400 53.76 400 120v60.032c0 66.24-179.072 120-400 120s-400-53.76-400-120V232c0-66.304 179.072-120 400-120z" p-id="4458"></path></svg>