<?xml version="1.0" standalone="no"?><!DOCTYPE svg PUBLIC "-//W3C//DTD SVG 1.1//EN" "http://www.w3.org/Graphics/SVG/1.1/DTD/svg11.dtd"><svg t="1653037102470" class="icon" viewBox="0 0 1024 1024" version="1.1" xmlns="http://www.w3.org/2000/svg" p-id="1064" xmlns:xlink="http://www.w3.org/1999/xlink" width="200" height="200"><defs><style type="text/css">@font-face { font-family: feedback-iconfont; src: url("//at.alicdn.com/t/font_1031158_u69w8yhxdu.woff2?t=1630033759944") format("woff2"), url("//at.alicdn.com/t/font_1031158_u69w8yhxdu.woff?t=1630033759944") format("woff"), url("//at.alicdn.com/t/font_1031158_u69w8yhxdu.ttf?t=1630033759944") format("truetype"); }
</style></defs><path d="M808.96 671.915c-35.84 54.784-153.6 98.56-296.96 98.56-138.24 0-256-43.776-296.96-98.56-10.24-10.966-10.24-5.504-10.24 0v82.09c0 82.176 138.24 164.31 307.2 164.31s307.2-82.134 307.2-164.267v-82.133c0-5.504-5.12-10.966-10.24 0z m0-257.408c-35.84 54.784-158.72 98.56-296.96 98.56-138.24 0-261.12-43.776-296.96-98.56-5.12-10.966-10.24-5.462-10.24 0V518.57c0 82.176 138.24 142.378 307.2 142.378s307.2-65.706 307.2-142.336V414.464c0-5.461-5.12-10.965-10.24 0v0.043zM512 102.4c-168.96 0-307.2 54.784-307.2 120.49v60.16c0 71.211 138.24 125.995 307.2 125.995s307.2-60.202 307.2-125.952v-60.202C819.2 157.184 680.96 102.4 512 102.4z" p-id="1065"></path></svg>