<?xml version="1.0" standalone="no"?><!DOCTYPE svg PUBLIC "-//W3C//DTD SVG 1.1//EN" "http://www.w3.org/Graphics/SVG/1.1/DTD/svg11.dtd"><svg t="1709114387982" class="icon" viewBox="0 0 1024 1024" version="1.1" xmlns="http://www.w3.org/2000/svg" p-id="5246" xmlns:xlink="http://www.w3.org/1999/xlink" width="200" height="200"><path d="M512 64a448 448 0 1 1 0 896 448 448 0 0 1 0-896z m0 72a376 376 0 1 0 0 752 376 376 0 0 0 0-752z m0 72a304 304 0 0 1 304 304H667.968V387.968a32 32 0 0 0-32-32H388.032a32 32 0 0 0-31.488 26.24l-0.512 5.76v248a32 32 0 0 0 26.24 31.488l5.76 0.512h248a32 32 0 0 0 31.424-26.24l0.512-5.76V584l139.456 0.064A304.128 304.128 0 0 1 208 512a304 304 0 0 1 304-304z m92.032 212.032v184H419.968V419.968h184z" p-id="5247"></path></svg>