<?xml version="1.0" standalone="no"?><!DOCTYPE svg PUBLIC "-//W3C//DTD SVG 1.1//EN" "http://www.w3.org/Graphics/SVG/1.1/DTD/svg11.dtd"><svg t="1678330000621" class="icon" viewBox="0 0 1024 1024" version="1.1" xmlns="http://www.w3.org/2000/svg" p-id="1720" xmlns:xlink="http://www.w3.org/1999/xlink" width="200" height="200"><path d="M937.984 458.816l-29.568-312.64a33.984 33.984 0 0 0-30.592-30.592L565.12 86.016h-0.384a10.24 10.24 0 0 0-7.616 2.88L88.96 557.184c-3.84 3.904-3.84 10.24 0 14.08l363.776 363.84c1.92 1.92 4.48 2.88 7.104 2.88a9.92 9.92 0 0 0 7.104-2.88l468.352-468.288a10.56 10.56 0 0 0 2.752-8z m-238.976-71.808a64 64 0 0 1 0-128 64 64 0 0 1 0 128z" p-id="1721"></path></svg>