<?xml version="1.0" standalone="no"?><!DOCTYPE svg PUBLIC "-//W3C//DTD SVG 1.1//EN" "http://www.w3.org/Graphics/SVG/1.1/DTD/svg11.dtd"><svg t="1699523724266" class="icon" viewBox="0 0 1024 1024" version="1.1" xmlns="http://www.w3.org/2000/svg" p-id="796" xmlns:xlink="http://www.w3.org/1999/xlink" width="200" height="200"><path d="M321.486 159l-1.132 103.65c-0.194 17.672 13.976 32.155 31.648 32.348l0.35 0.002h319.996c17.537 0 31.806-14.115 31.998-31.65l1.14-104.35H832c17.673 0 32 14.327 32 32v713.984c0 17.673-14.327 32-32 32H192c-17.673 0-32-14.327-32-32V191c0-17.673 14.327-32 32-32h129.486z m290.672 261l-0.375 0.006c-5.248 0.142-10.22 2.853-13.383 7.174L484.01 585.849l-58.3-80.715c-3.313-4.637-8.613-7.287-14.244-7.287h-60.619c-7.177 0-11.373 8.171-7.177 14.023l125.985 174.678c7.067 9.717 21.421 9.717 28.488 0L680.33 434.026c4.196-5.852 0-14.023-7.177-14.023h-60.619l-0.376-0.003zM640 215c0 8.837-7.163 16-16 16H400c-8.837 0-16-7.163-16-16v-87c0-8.837 7.163-16 16-16h224c8.837 0 16 7.163 16 16v87z" p-id="797"></path></svg>