<?xml version="1.0" standalone="no"?><!DOCTYPE svg PUBLIC "-//W3C//DTD SVG 1.1//EN" "http://www.w3.org/Graphics/SVG/1.1/DTD/svg11.dtd"><svg t="1678079111120" class="icon" viewBox="0 0 1024 1024" version="1.1" xmlns="http://www.w3.org/2000/svg" p-id="1985" xmlns:xlink="http://www.w3.org/1999/xlink" width="200" height="200"><path d="M921.344 504H816v368h-72V504H632v368h-64V504H456v368h400a32 32 0 0 1 32 31.488V936a8 8 0 0 1-8 8H144a8 8 0 0 1-8-8v-32a32 32 0 0 1 32-32h40V504H102.656a16 16 0 0 1-11.328-27.328L500.672 67.328a16 16 0 0 1 22.656 0l409.344 409.344A16 16 0 0 1 921.344 504zM280 504v368h112V504H280z m232-346.176L237.824 432h548.352L512 157.824z" p-id="1986"></path><path d="M921.344 504H816v368h-72V504H632v368h-64V504H456v368h400a32 32 0 0 1 32 31.488V936a8 8 0 0 1-8 8H144a8 8 0 0 1-8-8v-32a32 32 0 0 1 32-32h40V504H102.656a16 16 0 0 1-11.328-27.328L500.672 67.328a16 16 0 0 1 22.656 0l409.344 409.344A16 16 0 0 1 921.344 504zM280 504v368h112V504H280z" p-id="1987"></path></svg>