<?xml version="1.0" standalone="no"?><!DOCTYPE svg PUBLIC "-//W3C//DTD SVG 1.1//EN" "http://www.w3.org/Graphics/SVG/1.1/DTD/svg11.dtd"><svg t="1709114292451" class="icon" viewBox="0 0 1024 1024" version="1.1" xmlns="http://www.w3.org/2000/svg" p-id="1537" xmlns:xlink="http://www.w3.org/1999/xlink" width="200" height="200"><path d="M916.032 112a32 32 0 0 1 32 31.488V273.28a16 16 0 0 1-3.008 9.216l-3.008 4.224-2.24 3.136-2.176 3.072-1.472 1.92-2.112 2.944-1.408 1.92-2.112 2.88-2.048 2.752-1.984 2.688-1.92 2.56-1.984 2.56-1.28 1.728-1.28 1.6-1.28 1.664-1.216 1.536-1.792 2.304-1.216 1.536-1.792 2.24-1.728 2.112v551.104a32 32 0 0 1-32 32h-145.92a32 32 0 0 1-32-32V862.08a270.72 270.72 0 0 1-24.064 8.576C632.704 884.352 574.144 892.032 512 892.032c-62.144 0-120.704-7.68-164.992-21.376a270.72 270.72 0 0 1-24-8.576v16.896a32 32 0 0 1-32 32H145.024a32 32 0 0 1-32-32v-551.04l-1.728-2.176-1.792-2.176-1.216-1.536-1.216-1.536-1.216-1.536-1.28-1.6-1.28-1.664-1.216-1.664-1.28-1.664-1.92-2.56-1.344-1.792-2.048-2.688-2.048-2.752-1.344-1.92-2.112-2.816-1.472-1.92-1.408-2.048-2.176-3.008-1.472-2.048-2.24-3.136-2.304-3.2a16 16 0 0 1-2.944-8.832V144a32 32 0 0 1 31.488-32h808.576zM250.944 376.192a100.48 100.48 0 0 1-65.984 4.096v458.688h65.92V376.192z m521.984 0v462.784h65.984V380.288a100.48 100.48 0 0 1-65.92-4.096zM512 329.216l-0.576 0.64c-8.256 9.536-16.64 17.792-25.216 24.832l-0.96 0.768-0.768 0.64C461.824 374.272 437.44 384 411.968 384c-25.408 0-49.792-9.728-72.448-27.904a189.76 189.76 0 0 1-16.512-14.912V792h1.024a9.856 9.856 0 0 0-0.512-3.008v-0.192l-0.128-0.32-0.128-0.192v-0.128l-0.128-0.128 0.064 0.128 0.192 0.192 0.192 0.256 0.256 0.256 0.256 0.32a88.704 88.704 0 0 0 20.16 12.352l1.28 0.576 1.28 0.576 1.408 0.576 0.64 0.256 1.472 0.576 2.112 0.832 1.472 0.512 1.536 0.576 1.536 0.576 1.536 0.512 0.768 0.256 1.6 0.576 1.664 0.512 1.664 0.512 1.664 0.576c37.76 11.648 89.984 18.496 146.112 18.496s108.416-6.848 146.112-18.56l1.664-0.512 1.664-0.512 1.664-0.512 1.6-0.576 0.768-0.256 1.536-0.512 1.536-0.576 1.536-0.576 1.472-0.512a182.4 182.4 0 0 0 2.112-0.832l1.408-0.64 1.408-0.512 1.92-0.832 1.344-0.576c6.656-2.944 12.032-5.952 16.064-8.96a32.704 32.704 0 0 0 4.096-3.392l0.256-0.32 0.256-0.256 0.192-0.256 0.192-0.192v-0.128 0.128l-0.064 0.128-0.128 0.192-0.064 0.32-0.064 0.192a9.728 9.728 0 0 0-0.448 2.624V792h0.96V341.184a192.32 192.32 0 0 1-14.72 13.504l-1.024 0.768-0.768 0.64C661.824 374.272 637.44 384 611.968 384c-25.408 0-49.792-9.728-72.448-27.904a205.056 205.056 0 0 1-26.048-25.152l-0.896-1.088-0.576-0.64z" p-id="1538"></path></svg>