<?xml version="1.0" standalone="no"?><!DOCTYPE svg PUBLIC "-//W3C//DTD SVG 1.1//EN" "http://www.w3.org/Graphics/SVG/1.1/DTD/svg11.dtd"><svg t="1676623291699" class="icon" viewBox="0 0 1024 1024" version="1.1" xmlns="http://www.w3.org/2000/svg" p-id="892" xmlns:xlink="http://www.w3.org/1999/xlink" width="200" height="200"><path d="M168 112h688c5.312 0 8 2.112 8 6.336v59.328c0 4.224-2.688 6.336-8 6.336H168c-5.312 0-8-2.112-8-6.336v-59.328c0-4.224 2.688-6.336 8-6.336z m353.728 128.64a16 16 0 0 1 2.944 2.88l267.52 348.8a16 16 0 0 1-12.608 25.664H632V896a16 16 0 0 1-16 16H408a16 16 0 0 1-16-16V617.984H244.416a16 16 0 0 1-12.672-25.728l267.52-348.736a16 16 0 0 1 22.464-2.944z" p-id="893"></path></svg>