<?xml version="1.0" standalone="no"?><!DOCTYPE svg PUBLIC "-//W3C//DTD SVG 1.1//EN" "http://www.w3.org/Graphics/SVG/1.1/DTD/svg11.dtd"><svg t="1677676173578" class="icon" viewBox="0 0 1024 1024" version="1.1" xmlns="http://www.w3.org/2000/svg" p-id="2305" xmlns:xlink="http://www.w3.org/1999/xlink" width="200" height="200"><path d="M857.792 251.84l-4.736 4.672-8.64 8.448-9.6 9.536-21.76 21.44-23.68 23.552-23.872 23.68-36.8 36.736-45.504 45.44-84.928-84.928 173.824-173.824a7.68 7.68 0 0 0-1.472-11.968l-0.256-0.192a242.56 242.56 0 0 0-288 41.792A244.48 244.48 0 0 0 419.008 432l1.792 6.72-283.52 283.392a16 16 0 0 0 0 22.592l141.44 141.44a16 16 0 0 0 22.592 0l283.264-283.328 6.72 1.792a244.288 244.288 0 0 0 236.032-63.36 244.16 244.16 0 0 0 43.52-286.72l-0.448-0.768a8 8 0 0 0-12.608-1.92z" p-id="2306"></path></svg>