<?xml version="1.0" standalone="no"?><!DOCTYPE svg PUBLIC "-//W3C//DTD SVG 1.1//EN" "http://www.w3.org/Graphics/SVG/1.1/DTD/svg11.dtd"><svg t="1658731367000" class="icon" viewBox="0 0 1024 1024" version="1.1" xmlns="http://www.w3.org/2000/svg" p-id="1073" xmlns:xlink="http://www.w3.org/1999/xlink" width="200" height="200"><defs><style type="text/css">@font-face { font-family: feedback-iconfont; src: url("//at.alicdn.com/t/font_1031158_u69w8yhxdu.woff2?t=1630033759944") format("woff2"), url("//at.alicdn.com/t/font_1031158_u69w8yhxdu.woff?t=1630033759944") format("woff"), url("//at.alicdn.com/t/font_1031158_u69w8yhxdu.ttf?t=1630033759944") format("truetype"); }
</style></defs><path d="M832 256c17.6 0 32-14.4 32-32s-14.4-32-32-32h-96c0-70.4-57.6-128-128-128H416c-70.4 0-128 57.6-128 128h-96c-17.6 0-32 14.4-32 32s14.4 32 32 32h96v192h-96c-17.6 0-32 14.4-32 32s14.4 32 32 32h96v192h-96c-17.6 0-32 14.4-32 32s14.4 32 32 32h96v64c0 70.4 57.6 128 128 128h192c70.4 0 128-57.6 128-128v-64h96c17.6 0 32-14.4 32-32s-14.4-32-32-32h-96V512h96c17.6 0 32-14.4 32-32s-14.4-32-32-32h-96V256h96zM512 864c-53.019 0-96-42.981-96-96s42.981-96 96-96 96 42.981 96 96-42.981 96-96 96z m0-256c-53.019 0-96-42.981-96-96s42.981-96 96-96 96 42.981 96 96-42.981 96-96 96z m0-256c-53.019 0-96-42.981-96-96s42.981-96 96-96 96 42.981 96 96-42.981 96-96 96z" p-id="1074"></path></svg>