<?xml version="1.0" standalone="no"?><!DOCTYPE svg PUBLIC "-//W3C//DTD SVG 1.1//EN" "http://www.w3.org/Graphics/SVG/1.1/DTD/svg11.dtd"><svg t="1658733750726" class="icon" viewBox="0 0 1024 1024" version="1.1" xmlns="http://www.w3.org/2000/svg" p-id="1126" xmlns:xlink="http://www.w3.org/1999/xlink" width="200" height="200"><defs><style type="text/css">@font-face { font-family: feedback-iconfont; src: url("//at.alicdn.com/t/font_1031158_u69w8yhxdu.woff2?t=1630033759944") format("woff2"), url("//at.alicdn.com/t/font_1031158_u69w8yhxdu.woff?t=1630033759944") format("woff"), url("//at.alicdn.com/t/font_1031158_u69w8yhxdu.ttf?t=1630033759944") format("truetype"); }
</style></defs><path d="M512 75.09333333c237.568 0 430.86279111 189.65390222 436.76103111 425.80195556L948.90666667 512v436.90666667h-72.81777778V512c0-201.08629333-163.00259555-364.08888889-364.08888889-364.08888889-197.70026667 0-358.55473778 157.54126222-363.94325333 353.8944L147.91111111 512v436.90666667h-72.81777778V512c0-241.28170667 195.62496-436.90666667 436.90666667-436.90666667z m0 218.45333334a218.45333333 218.45333333 0 0 1 218.45333333 218.45333333v436.90666667H615.65610667a36.40888889 36.40888889 0 0 1-35.89916445-30.43783112l-10.59498667-63.56992A18.20444445 18.20444445 0 0 0 551.17596445 839.68h-78.3519289a18.20444445 18.20444445 0 0 0-17.9859911 15.21891555l-10.55857778 63.56992A36.40888889 36.40888889 0 0 1 408.34389333 948.90666667H293.54666667V512a218.45333333 218.45333333 0 0 1 218.45333333-218.45333333z m21.48124445 400.49777778h-42.9624889a18.20444445 18.20444445 0 0 0-16.96654222 11.57802666l-0.87381333 3.05834667-10.92266667 54.61333333a18.20444445 18.20444445 0 0 0 14.56355556 21.48124444l3.2768 0.29127112h64.80782222a18.20444445 18.20444445 0 0 0 18.20444444-18.49571556l-0.36408888-3.2768-10.92266667-54.61333333A18.20444445 18.20444445 0 0 0 533.48124445 694.04444445z m-17.47626667-109.22666667h-8.00995556a18.20444445 18.20444445 0 0 0-16.63886222 10.88625777l-1.01944889 2.91271112-9.10222222 36.40888888a18.20444445 18.20444445 0 0 0 14.41792 22.3186489l3.2768 0.2912711h26.17799111a18.20444445 18.20444445 0 0 0 18.16803555-19.36952888l-0.50972444-3.2768-9.10222222-36.40888889A18.20444445 18.20444445 0 0 0 516.00497778 584.81777778z" p-id="1127"></path></svg>