<?xml version="1.0" standalone="no"?><!DOCTYPE svg PUBLIC "-//W3C//DTD SVG 1.1//EN" "http://www.w3.org/Graphics/SVG/1.1/DTD/svg11.dtd"><svg t="1678346241874" class="icon" viewBox="0 0 1024 1024" version="1.1" xmlns="http://www.w3.org/2000/svg" p-id="986" xmlns:xlink="http://www.w3.org/1999/xlink" width="200" height="200"><path d="M807.936 88a32 32 0 0 1 32 32v736H880a32 32 0 0 1 32 32v40a8 8 0 0 1-8 8H651.968l0.064-336a8 8 0 0 0-7.808-8H379.968a8 8 0 0 0-8 7.744V936H119.936a8 8 0 0 1-8-8v-40a32 32 0 0 1 32-32H184V120a32 32 0 0 1 32-32h591.872zM588.032 656v280H435.968V656h152z m16-288h-184a7.936 7.936 0 0 0-8 7.744V448a8 8 0 0 0 7.744 8h184.192a8 8 0 0 0 8.064-7.68V376a8 8 0 0 0-7.808-8h-0.256z" p-id="987"></path></svg>