<?xml version="1.0" standalone="no"?><!DOCTYPE svg PUBLIC "-//W3C//DTD SVG 1.1//EN" "http://www.w3.org/Graphics/SVG/1.1/DTD/svg11.dtd"><svg t="1658917775226" class="icon" viewBox="0 0 1024 1024" version="1.1" xmlns="http://www.w3.org/2000/svg" p-id="23101" xmlns:xlink="http://www.w3.org/1999/xlink" width="200" height="200"><defs><style type="text/css">@font-face { font-family: feedback-iconfont; src: url("//at.alicdn.com/t/font_1031158_u69w8yhxdu.woff2?t=1630033759944") format("woff2"), url("//at.alicdn.com/t/font_1031158_u69w8yhxdu.woff?t=1630033759944") format("woff"), url("//at.alicdn.com/t/font_1031158_u69w8yhxdu.ttf?t=1630033759944") format("truetype"); }
</style></defs><path d="M764 88c39.765 0 72 32.235 72 72v696h68a8 8 0 0 1 8 8v64a8 8 0 0 1-8 8H120a8 8 0 0 1-8-8v-64a8 8 0 0 1 8-8h68V160c0-39.765 32.235-72 72-72h504zM620 592H404a8 8 0 0 0-8 8v256h232V600a8 8 0 0 0-8-8z m24-208H380a8 8 0 0 0-8 8v56a8 8 0 0 0 8 8h264a8 8 0 0 0 8-8v-56a8 8 0 0 0-8-8z" p-id="23102"></path></svg>