<?xml version="1.0" encoding="UTF-8"?>
<svg width="14px" height="10px" viewBox="0 0 14 10" version="1.1" xmlns="http://www.w3.org/2000/svg" xmlns:xlink="http://www.w3.org/1999/xlink">
    <title>icon/上传备份 12</title>
    <g id="疫情防控" stroke="none" stroke-width="1" fill="none" fill-rule="evenodd">
        <g id="添加视频-本地上传" transform="translate(-157.000000, -819.000000)" fill="#000000" fill-rule="nonzero">
            <g id="编组-2" transform="translate(144.000000, 808.000000)">
                <g id="cloud-fill" transform="translate(12.000000, 8.000000)">
                    <rect id="矩形" opacity="0" x="0" y="0" width="16" height="16"></rect>
                    <path d="M7.5694549,3.08802083 C9.59706443,3.08802083 11.2847258,4.49440532 11.7368396,6.38223922 C11.8075902,6.37706234 11.8766152,6.36153172 11.9490915,6.36153172 C13.6350273,6.36153172 15.0017224,7.72822683 15,9.41588821 C15,11.1000983 13.6350273,12.4667935 11.9490915,12.4667935 L11.9490915,12.4667935 L4.25798026,12.4667935 C2.46160449,12.4667935 1,11.005189 1,9.2088132 C1,7.68853745 2.04227758,6.4012211 3.48835145,6.05437044 C3.4987052,6.03538857 3.51078457,6.01985794 3.52113833,6.00260169 C4.09749712,4.31148906 5.68334662,3.08802083 7.5694549,3.08802083 Z M8.00086118,5.9583108 C7.85935992,5.9583108 7.71785866,6.01180518 7.6108699,6.12051956 L6.2855898,7.44579967 C6.06988665,7.66150281 6.06988665,8.01180471 6.2855898,8.22578223 C6.50129294,8.43975975 6.85159484,8.44148537 7.06557236,8.22578223 L7.44866114,7.84269345 L7.44866114,10.2614445 C7.44866114,10.5668802 7.69542553,10.8136446 8.00086118,10.8136446 C8.30629683,10.8136446 8.55306123,10.5668802 8.55306123,10.2614445 L8.55306123,7.84269345 L8.93615001,8.22578223 C9.15185315,8.44148537 9.50215505,8.44148537 9.71613257,8.22578223 C9.93011009,8.01007909 9.93183571,7.66150281 9.71613257,7.44579967 L8.39085246,6.12051956 C8.2838637,6.0135308 8.14236244,5.9583108 8.00086118,5.9583108 Z" id="形状"></path>
                </g>
            </g>
        </g>
    </g>
</svg>