<?xml version="1.0" standalone="no"?><!DOCTYPE svg PUBLIC "-//W3C//DTD SVG 1.1//EN" "http://www.w3.org/Graphics/SVG/1.1/DTD/svg11.dtd"><svg t="1658235841603" class="icon" viewBox="0 0 1024 1024" version="1.1" xmlns="http://www.w3.org/2000/svg" p-id="29439" xmlns:xlink="http://www.w3.org/1999/xlink" width="200" height="200"><defs><style type="text/css">@font-face { font-family: feedback-iconfont; src: url("//at.alicdn.com/t/font_1031158_u69w8yhxdu.woff2?t=1630033759944") format("woff2"), url("//at.alicdn.com/t/font_1031158_u69w8yhxdu.woff?t=1630033759944") format("woff"), url("//at.alicdn.com/t/font_1031158_u69w8yhxdu.ttf?t=1630033759944") format("truetype"); }
</style></defs><path d="M657.669 561.863L869.26 724.22a99.627 99.627 0 0 1 38.917 78.98v88.09c0 8.794-7.129 15.923-15.923 15.923H127.924c-8.795 0-15.924-7.129-15.924-15.923V789.57c0-30.892 14.395-60.064 38.917-78.98L353.72 555.047c-82.112-66.822-112.698-178.431-76.124-277.778 36.575-99.347 132.229-164.48 238.068-162.108 105.839 2.372 198.478 71.728 230.563 172.614 32.086 100.886-3.47 211.012-88.495 274.087h-0.063z m-147.58 15.924a29.873 29.873 0 1 0 0-59.682c-15.945 0.737-28.493 13.879-28.493 29.84 0 15.963 12.548 29.105 28.493 29.842z m46.943-163.822c44.076-16.943 72.484-55.796 72.484-98.917 0-29.3-12.866-56.688-36.115-77.07a126.242 126.242 0 0 0-83.312-30.51c-31.337 0-60.892 10.828-83.312 30.382-23.248 20.382-36.115 47.771-36.115 77.07v5.733c0 3.248 2.676 5.987 5.988 5.987h35.796a5.987 5.987 0 0 0 5.987-5.987v-5.733c0-32.866 32.166-59.681 71.656-59.681 39.49 0 71.656 26.815 71.656 59.745 0 23.185-16.433 44.459-41.783 54.268-32.71 12.447-54.176 43.985-53.758 78.98v16.051c0 3.249 2.675 5.924 5.987 5.924h35.796a5.987 5.987 0 0 0 5.988-5.924v-16.879c0-14.713 9.235-28.152 23.057-33.439z" p-id="29440"></path></svg>