<?xml version="1.0" standalone="no"?><!DOCTYPE svg PUBLIC "-//W3C//DTD SVG 1.1//EN" "http://www.w3.org/Graphics/SVG/1.1/DTD/svg11.dtd"><svg t="1658236030205" class="icon" viewBox="0 0 1024 1024" version="1.1" xmlns="http://www.w3.org/2000/svg" p-id="32236" xmlns:xlink="http://www.w3.org/1999/xlink" width="200" height="200"><defs><style type="text/css">@font-face { font-family: feedback-iconfont; src: url("//at.alicdn.com/t/font_1031158_u69w8yhxdu.woff2?t=1630033759944") format("woff2"), url("//at.alicdn.com/t/font_1031158_u69w8yhxdu.woff?t=1630033759944") format("woff"), url("//at.alicdn.com/t/font_1031158_u69w8yhxdu.ttf?t=1630033759944") format("truetype"); }
</style></defs><path d="M425 532.67c27.637 0 54.324 4.068 79.495 11.638l-16.091 16.091-0.577-0.054A88.728 88.728 0 0 0 480 560c-48.601 0-88 39.399-88 88s39.399 88 88 88 88-39.399 88-88l-0.005-0.983a88.67 88.67 0 0 0-0.34-6.844l-0.055-0.578 38.81-38.81c57.745 50.523 94.215 124.759 94.215 207.512v3.407c0 13.53-10.97 24.5-24.5 24.5H75.875c-13.53 0-24.5-10.97-24.5-24.5v-3.407C51.375 656.075 174.778 532.67 327 532.67h98zM912 376c44.183 0 80 35.817 80 80s-35.817 80-80 80c-13.351 0-25.938-3.27-37.004-9.054L795.64 606.3A55.826 55.826 0 0 1 800 628c0 30.928-25.072 56-56 56s-56-25.072-56-56c0-5.486 0.789-10.789 2.26-15.8l-49.808-49.806C633.064 565.985 624.767 568 616 568a55.905 55.905 0 0 1-18.818-3.24l-64.422 64.422A55.905 55.905 0 0 1 536 648c0 30.928-25.072 56-56 56s-56-25.072-56-56 25.072-56 56-56a55.905 55.905 0 0 1 18.818 3.24l64.422-64.422A55.905 55.905 0 0 1 560 512c0-30.928 25.072-56 56-56s56 25.072 56 56c0 4.343-0.494 8.57-1.43 12.629l51.73 51.73A55.826 55.826 0 0 1 744 572c5.486 0 10.789 0.789 15.8 2.26l81.254-81.256C835.271 481.938 832 469.351 832 456c0-44.183 35.817-80 80-80zM489.564 234.585c40.577 40.572 56.425 99.71 41.575 155.136-14.85 55.426-58.143 98.72-113.569 113.57-55.426 14.85-114.563-1-155.136-41.576-40.577-40.572-56.425-99.71-41.575-155.136 14.85-55.426 58.143-98.719 113.57-113.569 55.425-14.85 114.563 0.998 155.135 41.575z" p-id="32237"></path></svg>