<?xml version="1.0" standalone="no"?><!DOCTYPE svg PUBLIC "-//W3C//DTD SVG 1.1//EN" "http://www.w3.org/Graphics/SVG/1.1/DTD/svg11.dtd"><svg t="1678079130642" class="icon" viewBox="0 0 1024 1024" version="1.1" xmlns="http://www.w3.org/2000/svg" p-id="2914" xmlns:xlink="http://www.w3.org/1999/xlink" width="200" height="200"><path d="M440 542.976c40.768 0 80.896 3.008 120.256 8.896-37.248 15.36-63.552 51.84-64.256 94.4V648a104 104 0 0 0-48.512 196.032H71.552a7.552 7.552 0 0 1-7.552-7.36v-162.56a60.16 60.16 0 0 1 34.368-54.4 786.56 786.56 0 0 1 338.112-76.8H440z m440-10.944a80 80 0 1 1-40.512 148.992l-64.256 64.32a56 56 0 1 1-102.272-0.32l-47.232-47.296a55.744 55.744 0 0 1-48.64 1.408l-29.952 30.016a56 56 0 1 1-28.288-28.288l30.016-30.016a56 56 0 1 1 103.488-3.008l48.96 48.96a55.808 55.808 0 0 1 45.696 0.128l64.128-64.128A80 80 0 0 1 880 532.032zM439.488 160a161.472 161.472 0 1 1 0 323.008 161.472 161.472 0 0 1 0-323.008z" p-id="2915"></path></svg>