<?xml version="1.0" standalone="no"?><!DOCTYPE svg PUBLIC "-//W3C//DTD SVG 1.1//EN" "http://www.w3.org/Graphics/SVG/1.1/DTD/svg11.dtd"><svg t="1695367132918" class="icon" viewBox="0 0 1024 1024" version="1.1" xmlns="http://www.w3.org/2000/svg" p-id="1142" xmlns:xlink="http://www.w3.org/1999/xlink" width="200" height="200"><path d="M744.128 456a216 216 0 1 1 0 432 216 216 0 0 1 0-432z m-293.12 75.008c22.976 0 45.696 0.896 68.224 2.688-24.832 40.32-39.04 87.68-39.04 138.304 0 63.872 22.656 122.432 60.352 168.064L71.744 840A7.68 7.68 0 0 1 64 832.512V665.664c0-23.872 13.76-45.632 35.328-55.872a811.328 811.328 0 0 1 351.68-78.784zM744.128 520a151.04 151.04 0 0 0-107.52 44.48A151.04 151.04 0 0 0 592.128 672c0 40.576 15.808 78.784 44.544 107.52A151.04 151.04 0 0 0 744.192 824a151.04 151.04 0 0 0 107.456-44.48A151.04 151.04 0 0 0 896.128 672a151.04 151.04 0 0 0-44.48-107.52A151.04 151.04 0 0 0 744.128 520z m-53.76 58.624l53.76 53.76 53.76-53.696a8 8 0 0 1 9.216-1.472l2.048 1.472 28.288 28.288a8 8 0 0 1 0 11.328l-53.76 53.632 53.696 53.888a8 8 0 0 1 1.472 9.216l-1.472 2.048-28.288 28.288a8 8 0 0 1-11.328 0l-53.696-53.824-53.76 53.76a8 8 0 0 1-9.28 1.472l-2.048-1.472-28.288-28.288a8 8 0 0 1 0-11.328l53.76-53.76-53.632-53.76a8 8 0 0 1-1.536-9.216l1.536-2.048 28.288-28.288a8 8 0 0 1 11.264 0zM450.56 136a166.528 166.528 0 1 1 0 332.992 166.528 166.528 0 0 1 0-332.992z" p-id="1143"></path></svg>