<?xml version="1.0" standalone="no"?><!DOCTYPE svg PUBLIC "-//W3C//DTD SVG 1.1//EN" "http://www.w3.org/Graphics/SVG/1.1/DTD/svg11.dtd"><svg t="1657088267549" class="icon" viewBox="0 0 1024 1024" version="1.1" xmlns="http://www.w3.org/2000/svg" p-id="55363" xmlns:xlink="http://www.w3.org/1999/xlink" width="200" height="200"><defs><style type="text/css">@font-face { font-family: feedback-iconfont; src: url("//at.alicdn.com/t/font_1031158_u69w8yhxdu.woff2?t=1630033759944") format("woff2"), url("//at.alicdn.com/t/font_1031158_u69w8yhxdu.woff?t=1630033759944") format("woff"), url("//at.alicdn.com/t/font_1031158_u69w8yhxdu.ttf?t=1630033759944") format("truetype"); }
</style></defs><path d="M469.61 122c138.174 0 169.65 95.014 169.65 212.227 0 55.516-27.88 123.397-69.896 162.296l-3.037 2.814c-5.023 4.637-9.919 9.023-15.57 13.135a13.625 13.625 0 0 0-5.61 10.91l0.001 0.351 0.42 22.68a13.68 13.68 0 0 0 6.725 11.523l0.288 0.165 105.83 57.492-89.047 99.708v51.488h79.478V887.55H139.401c-14.982 0-27.156-12.007-27.401-26.912v-93.85c0.012-37.226 21.617-71.037 55.334-86.753l1.025-0.47L386.603 558.1a13.68 13.68 0 0 0 7.02-11.374l0.01-0.332 0.411-22.66a13.599 13.599 0 0 0-5.582-11.263c-6.774-4.934-12.476-10.278-18.6-15.948-42.024-38.9-69.905-106.78-69.905-162.296C299.957 217.014 345.862 122 469.61 122z" p-id="55364"></path><path d="M763.116 556.88a6.905 6.905 0 0 0-10.366 0L605.597 724.001a6.935 6.935 0 0 0-1.12 7.432 6.91 6.91 0 0 0 6.303 4.076h71.13V887.55c0 7.649 6.188 13.85 13.822 13.85h124.402c7.634 0 13.823-6.201 13.823-13.85V735.51h71.133a6.91 6.91 0 0 0 6.299-4.078 6.935 6.935 0 0 0-1.12-7.43l-147.153-167.12z" p-id="55365"></path></svg>