<?xml version="1.0" standalone="no"?><!DOCTYPE svg PUBLIC "-//W3C//DTD SVG 1.1//EN" "http://www.w3.org/Graphics/SVG/1.1/DTD/svg11.dtd"><svg t="1668760907722" class="icon" viewBox="0 0 1024 1024" version="1.1" xmlns="http://www.w3.org/2000/svg" p-id="1207" xmlns:xlink="http://www.w3.org/1999/xlink" width="200" height="200"><path d="M744.151 456c119.3 0 216 96.7 216 216s-96.7 216-216 216-216-96.7-216-216 96.7-216 216-216zM451 531.005c22.957 0 45.697 0.907 68.218 2.721C494.44 573.94 480.15 621.3 480.15 672c0 63.826 22.646 122.36 60.343 168.004L71.74 840c-4.18 0-7.606-3.308-7.74-7.478V665.665c-0.017-23.875 13.748-45.624 35.356-55.866A811.297 811.297 0 0 1 451 531.005zM744.151 520c-40.6 0-78.8 15.8-107.5 44.5-28.7 28.7-44.5 66.9-44.5 107.5 0 40.6 15.8 78.8 44.5 107.5 28.7 28.7 66.9 44.5 107.5 44.5 40.6 0 78.8-15.8 107.5-44.5 28.7-28.7 44.5-66.9 44.5-107.5 0-40.6-15.8-78.8-44.5-107.5-28.7-28.7-66.9-44.5-107.5-44.5z m20 40c4.317 0 7.864 3.465 7.996 7.752l0.004 0.248-0.056 76.02 75.98 0.056c4.318 0 7.864 3.465 7.997 7.751l0.004 0.249v40c0 4.317-3.466 7.863-7.752 7.996l-0.248 0.004-76.021-0.056L772 776c0 4.317-3.465 7.864-7.752 7.996L764 784h-40c-4.317 0-7.864-3.465-7.996-7.752L716 776l0.055-76.021-75.98-0.055c-4.316 0-7.863-3.465-7.996-7.751l-0.003-0.249v-40c0-4.317 3.465-7.863 7.751-7.996l0.249-0.004 76.019 0.055 0.056-75.979c0-4.317 3.465-7.864 7.752-7.996l0.248-0.004h40zM450.5 136c59.485 0 114.45 31.735 144.193 83.25 29.743 51.515 29.743 114.985 0 166.5C564.951 437.265 509.985 469 450.5 469 358.545 469 284 394.455 284 302.5S358.545 136 450.5 136z" p-id="1208"></path></svg>