<?xml version="1.0" standalone="no"?><!DOCTYPE svg PUBLIC "-//W3C//DTD SVG 1.1//EN" "http://www.w3.org/Graphics/SVG/1.1/DTD/svg11.dtd"><svg t="1669537398182" class="icon" viewBox="0 0 1024 1024" version="1.1" xmlns="http://www.w3.org/2000/svg" p-id="1070" xmlns:xlink="http://www.w3.org/1999/xlink" width="200" height="200"><path d="M464 542.976c70.592 0 139.008 8.896 205.376 26.56l-122.496 122.56a64 64 0 0 0-18.752 45.248l-0.064 106.624H95.552a7.552 7.552 0 0 1-7.552-7.232v-162.56a60.16 60.16 0 0 1 34.368-54.4 786.56 786.56 0 0 1 341.632-76.8z m400.64-78.08l90.496 90.496a16 16 0 0 1 0 22.592l-261.184 261.184a16 16 0 0 1-11.328 4.736h-98.56a8 8 0 0 1-7.936-8v-98.56a16 16 0 0 1 4.672-11.264l261.184-261.184a16 16 0 0 1 22.656 0zM853.312 544l-213.184 213.184v22.656h22.592l213.248-213.184-22.656-22.656zM463.552 160a161.472 161.472 0 1 1 0 323.008 161.472 161.472 0 0 1 0-323.008z" p-id="1071"></path></svg>