<?xml version="1.0" standalone="no"?><!DOCTYPE svg PUBLIC "-//W3C//DTD SVG 1.1//EN" "http://www.w3.org/Graphics/SVG/1.1/DTD/svg11.dtd"><svg t="1702464713379" class="icon" viewBox="0 0 1024 1024" version="1.1" xmlns="http://www.w3.org/2000/svg" p-id="3142" xmlns:xlink="http://www.w3.org/1999/xlink" width="200" height="200"><path d="M404.032 556.032c116.032 0 219.648 29.44 310.72 88.384A64 64 0 0 1 744 698.176v139.84a8 8 0 0 1-7.744 8H72a8 8 0 0 1-8-7.744v-139.52a64 64 0 0 1 29.056-53.568c91.136-59.456 194.816-89.216 310.976-89.152zM952 560c4.416 0 8 3.584 8 8v48a8 8 0 0 1-8 8H768a8 8 0 0 1-8-8v-48c0-4.416 3.584-8 8-8h184zM403.968 184a150.016 150.016 0 1 1 6.208 299.968A150.016 150.016 0 0 1 403.968 184zM952 400c4.416 0 8 3.584 8 8v48a8 8 0 0 1-8 8H648a8 8 0 0 1-8-8v-48c0-4.416 3.584-8 8-8h304z m8-152v48a8 8 0 0 1-8 8H648a8 8 0 0 1-8-8v-48c0-4.416 3.584-8 8-8h304c4.416 0 8 3.584 8 8z" p-id="3143"></path></svg>