<?xml version="1.0" standalone="no"?><!DOCTYPE svg PUBLIC "-//W3C//DTD SVG 1.1//EN" "http://www.w3.org/Graphics/SVG/1.1/DTD/svg11.dtd"><svg t="1658235742964" class="icon" viewBox="0 0 1024 1024" version="1.1" xmlns="http://www.w3.org/2000/svg" p-id="27832" xmlns:xlink="http://www.w3.org/1999/xlink" width="200" height="200"><defs><style type="text/css">@font-face { font-family: feedback-iconfont; src: url("//at.alicdn.com/t/font_1031158_u69w8yhxdu.woff2?t=1630033759944") format("woff2"), url("//at.alicdn.com/t/font_1031158_u69w8yhxdu.woff?t=1630033759944") format("woff"), url("//at.alicdn.com/t/font_1031158_u69w8yhxdu.ttf?t=1630033759944") format("truetype"); }
</style></defs><path d="M620.313 571.965c33.27 0 60.241 26.971 60.241 60.241v201.446c0 16.635-13.485 30.12-30.12 30.12s-30.12-13.485-30.12-30.12V684.917c0-8.224-6.597-14.928-14.82-15.06h-15.361v186.385a7.53 7.53 0 0 1-7.47 7.53H439.53a7.53 7.53 0 0 1-7.53-7.53V669.857h-15.06c-8.202-0.002-14.896 6.56-15.06 14.759v149.036c0 16.635-13.486 30.12-30.121 30.12-16.635 0-30.12-13.485-30.12-30.12V632.206c0-33.27 26.97-60.24 60.24-60.24h218.434zM172.241 459.014h215.06c2.41 25.662 12.47 49.036 27.952 67.77H401.94c-58.223 0-105.422 47.2-105.422 105.422v118.615h-86.626a7.53 7.53 0 0 1-7.53-7.53V556.905h-15.06c-8.202-0.002-14.897 6.56-15.061 14.76V720.7c0 16.635-13.485 30.12-30.12 30.12-16.636 0-30.121-13.485-30.121-30.12V519.255c0-33.27 26.97-60.241 60.241-60.241z m677.71 0c33.271 0 60.242 26.97 60.242 60.24V720.7c0 16.635-13.486 30.12-30.12 30.12-16.636 0-30.121-13.485-30.121-30.12V571.965c0.001-8.201-6.56-14.896-14.76-15.06h-15.36v186.386a7.53 7.53 0 0 1-7.53 7.53h-86.627V632.206c0-58.222-47.2-105.421-105.422-105.421H606.94c15.482-18.735 25.602-42.169 27.891-67.771h215.12z m-338.855-90.362a79.096 79.096 0 1 1 0 158.133c-42.817-1.182-76.913-36.233-76.913-79.067 0-42.833 34.096-77.884 76.913-79.066z m229.7-112.952a79.096 79.096 0 1 1 0 158.133c-42.818-1.182-76.915-36.233-76.915-79.066 0-42.834 34.097-77.885 76.914-79.067z m-459.398 0a79.096 79.096 0 1 1 0 158.133c-42.818-1.182-76.914-36.233-76.914-79.066 0-42.834 34.096-77.885 76.914-79.067z m229.698-99.759a79.096 79.096 0 1 1 0 158.133c-42.817-1.182-76.913-36.233-76.913-79.066 0-42.834 34.096-77.885 76.913-79.067z" p-id="27833"></path></svg>