<?xml version="1.0" standalone="no"?><!DOCTYPE svg PUBLIC "-//W3C//DTD SVG 1.1//EN" "http://www.w3.org/Graphics/SVG/1.1/DTD/svg11.dtd"><svg t="1669373780256" class="icon" viewBox="0 0 1024 1024" version="1.1" xmlns="http://www.w3.org/2000/svg" p-id="1302" xmlns:xlink="http://www.w3.org/1999/xlink" width="200" height="200"><path d="M744 456c119.3 0 216 96.7 216 216s-96.7 216-216 216-216-96.7-216-216 96.7-216 216-216z m-256 88c10.965 0 21.883 0.2 32.752 0.602C499.272 582.15 487 625.642 487 672c0 76.358 33.295 144.934 86.159 192.005L96 864a8.002 8.002 0 0 1-8-7.744v-172.8a64 64 0 0 1 36.544-57.856A837.184 837.184 0 0 1 488 544z m256-24c-40.6 0-78.8 15.8-107.5 44.5C607.8 593.2 592 631.4 592 672c0 40.6 15.8 78.8 44.5 107.5C665.2 808.2 703.4 824 744 824c40.6 0 78.8-15.8 107.5-44.5C880.2 750.8 896 712.6 896 672c0-40.6-15.8-78.8-44.5-107.5C822.8 535.8 784.6 520 744 520z m12 67a8 8 0 0 1 5.615 2.302l77.79 76.664a8 8 0 0 1 0 11.396l-77.79 76.663A8 8 0 0 1 748 748.327v-48.164h-94c-4.317 0-7.864-3.465-7.996-7.751l-0.004-0.248v-40c0-4.4 3.6-8 8-8l94-0.001V595a8 8 0 0 1 8-8zM488 136c61.45 0 118.232 32.783 148.956 86 30.725 53.217 30.725 118.783 0 172-30.724 53.217-87.506 86-148.956 86-94.993 0-172-77.007-172-172s77.007-172 172-172z" p-id="1303"></path></svg>