<?xml version="1.0" standalone="no"?><!DOCTYPE svg PUBLIC "-//W3C//DTD SVG 1.1//EN" "http://www.w3.org/Graphics/SVG/1.1/DTD/svg11.dtd"><svg t="1677583793660" class="icon" viewBox="0 0 1024 1024" version="1.1" xmlns="http://www.w3.org/2000/svg" p-id="2640" xmlns:xlink="http://www.w3.org/1999/xlink" width="200" height="200"><path d="M744.128 456a216 216 0 1 1 0 432 216 216 0 0 1 0-432z m-293.12 75.008c22.976 0 45.696 0.896 68.224 2.688-24.832 40.32-39.04 87.68-39.04 138.304 0 63.872 22.656 122.432 60.352 168.064L71.744 840A7.68 7.68 0 0 1 64 832.512V665.664c0-23.872 13.76-45.632 35.328-55.872a811.328 811.328 0 0 1 351.68-78.784zM744.128 520a151.04 151.04 0 0 0-107.52 44.48A151.04 151.04 0 0 0 592.128 672c0 40.576 15.808 78.784 44.544 107.52A151.04 151.04 0 0 0 744.192 824a151.04 151.04 0 0 0 107.456-44.48A151.04 151.04 0 0 0 896.128 672a151.04 151.04 0 0 0-44.48-107.52A151.04 151.04 0 0 0 744.128 520z m0 200a32 32 0 1 1 0 64 32 32 0 0 1 0-64z m20.032-160c4.288 0 7.872 3.456 8 7.744V680a8 8 0 0 1-7.744 8H724.16a8 8 0 0 1-8-7.744V568c0-4.288 3.456-7.872 7.744-8h40.256z m-313.6-424a166.528 166.528 0 1 1 0 332.992 166.528 166.528 0 0 1 0-332.992z" p-id="2641"></path></svg>