<?xml version="1.0" standalone="no"?><!DOCTYPE svg PUBLIC "-//W3C//DTD SVG 1.1//EN" "http://www.w3.org/Graphics/SVG/1.1/DTD/svg11.dtd"><svg t="1679309422904" class="icon" viewBox="0 0 1024 1024" version="1.1" xmlns="http://www.w3.org/2000/svg" p-id="2786" xmlns:xlink="http://www.w3.org/1999/xlink" width="200" height="200"><path d="M744 456a216.064 216.064 0 1 1-0.128 432.128A216.064 216.064 0 0 1 744 456z m-292.992 75.008c22.976 0 45.696 0.896 68.224 2.688-24.832 40.32-39.04 87.68-39.04 138.304 0 63.872 22.656 122.432 60.352 168.064L71.744 840A7.68 7.68 0 0 1 64 832.512V665.664c0-23.872 13.76-45.632 35.328-55.872a811.328 811.328 0 0 1 351.68-78.784zM744 520a151.872 151.872 0 0 0-152 152 152.192 152.192 0 0 0 152 152 152.192 152.192 0 0 0 152-152 152.192 152.192 0 0 0-152-152z m-4.352 79.36a8 8 0 0 1 8.32-2.944l2.88 1.408 88.832 67.84a8 8 0 0 1 2.112 10.304l-2.112 2.368-88.832 67.84a8 8 0 0 1-12.416-3.84l-0.448-2.56v-39.744h-78.528a7.488 7.488 0 0 1-7.04-5.504l-0.448-2.56v-39.936c0-3.584 2.176-6.592 5.12-7.68l2.368-0.32h78.528V604.16c0-1.728 0.64-3.456 1.664-4.864zM450.496 136a166.528 166.528 0 1 1 0 332.992 166.528 166.528 0 0 1 0-332.992z" p-id="2787"></path></svg>