<?xml version="1.0" standalone="no"?><!DOCTYPE svg PUBLIC "-//W3C//DTD SVG 1.1//EN" "http://www.w3.org/Graphics/SVG/1.1/DTD/svg11.dtd"><svg t="1648561996141" class="icon" viewBox="0 0 1024 1024" version="1.1" xmlns="http://www.w3.org/2000/svg" p-id="22449" xmlns:xlink="http://www.w3.org/1999/xlink" width="200" height="200"><defs><style type="text/css">@font-face { font-family: feedback-iconfont; src: url("//at.alicdn.com/t/font_1031158_u69w8yhxdu.woff2?t=1630033759944") format("woff2"), url("//at.alicdn.com/t/font_1031158_u69w8yhxdu.woff?t=1630033759944") format("woff"), url("//at.alicdn.com/t/font_1031158_u69w8yhxdu.ttf?t=1630033759944") format("truetype"); }
</style></defs><path d="M512 560.128c127.488 0 248.832 27.136 363.52 81.408 22.016 10.24 36.352 32.768 36.352 57.344v173.568c0 4.096-3.584 7.68-7.68 8.192H119.808c-4.096 0-7.68-3.584-8.192-7.68v-173.056c0-24.576 14.336-47.104 36.352-57.856 114.176-54.784 238.08-82.432 364.032-81.92z m0-416.256c61.44 0 118.272 32.768 148.992 86.016s30.72 118.784 0 172.032c-30.72 53.248-87.552 86.016-148.992 86.016-95.232 0-172.032-76.8-172.032-172.032s76.8-172.032 172.032-172.032z" p-id="22450"></path></svg>