<?xml version="1.0" standalone="no"?><!DOCTYPE svg PUBLIC "-//W3C//DTD SVG 1.1//EN" "http://www.w3.org/Graphics/SVG/1.1/DTD/svg11.dtd"><svg t="1658235757843" class="icon" viewBox="0 0 1025 1024" version="1.1" xmlns="http://www.w3.org/2000/svg" p-id="27976" xmlns:xlink="http://www.w3.org/1999/xlink" width="200.1953125" height="200"><defs><style type="text/css">@font-face { font-family: feedback-iconfont; src: url("//at.alicdn.com/t/font_1031158_u69w8yhxdu.woff2?t=1630033759944") format("woff2"), url("//at.alicdn.com/t/font_1031158_u69w8yhxdu.woff?t=1630033759944") format("woff"), url("//at.alicdn.com/t/font_1031158_u69w8yhxdu.ttf?t=1630033759944") format("truetype"); }
</style></defs><path d="M489.506 510.506a376.508 376.508 0 0 1 109.699 16.265l17.168 5.663c-60.503 40.523-96.796 108.565-96.746 181.385a218.072 218.072 0 0 0 85.361 173.193H119.325a6.446 6.446 0 0 1-6.325-6.325v-0.241l0.12-6.085c6.823-202.935 173.336-363.905 376.386-363.855zM738 540.626c95.652 0 173.193 77.542 173.193 173.193 0 95.652-77.541 173.193-173.193 173.193-95.652 0-173.193-77.541-173.193-173.193 0-95.651 77.541-173.192 173.193-173.192z m0 52.711c-66.54 0-120.482 53.942-120.482 120.482 0 66.54 53.942 120.482 120.482 120.482 66.54 0 120.482-53.941 120.482-120.482 0-66.54-53.942-120.482-120.482-120.482z m15.06 30.12a7.533 7.533 0 0 1 7.53 7.531v60.24h52.711a7.533 7.533 0 0 1 7.53 7.531v30.12a7.53 7.53 0 0 1-7.53 7.53H722.94a7.53 7.53 0 0 1-7.53-7.53v-97.891a7.533 7.533 0 0 1 7.53-7.53h30.12zM489.506 134c95.652 0 173.193 77.541 173.193 173.193 0 95.651-77.541 173.193-173.193 173.193-95.652 0-173.193-77.542-173.193-173.193C316.313 211.54 393.854 134 489.506 134z" p-id="27977"></path></svg>