<?xml version="1.0" standalone="no"?><!DOCTYPE svg PUBLIC "-//W3C//DTD SVG 1.1//EN" "http://www.w3.org/Graphics/SVG/1.1/DTD/svg11.dtd"><svg t="1668760900321" class="icon" viewBox="0 0 1024 1024" version="1.1" xmlns="http://www.w3.org/2000/svg" p-id="897" xmlns:xlink="http://www.w3.org/1999/xlink" width="200" height="200"><path d="M509.201 625.872l2.799 0.003c94.763 0 184.68 20.188 269.753 60.563a47.5 47.5 0 0 1 27.122 42.37v128.63a5.94 5.94 0 0 1-5.747 5.937H221.062a5.94 5.94 0 0 1-5.937-5.747v-128.25a47.5 47.5 0 0 1 27.123-42.94 621.348 621.348 0 0 1 264.154-60.557l2.799-0.009z m212.766-217.249l2.033 0.003c68.827 0 134.136 14.663 195.926 43.988a34.5 34.5 0 0 1 19.699 30.774v93.425a4.316 4.316 0 0 1-4.174 4.315h-312.7a175.487 175.487 0 0 0 41.372-48.518 176.04 176.04 0 0 0 6.077-11.483c7.873-13.949 13.07-30.877 15.588-50.785 3.778-29.862 2.409-40.305-1.558-60.1a451.546 451.546 0 0 1 35.704-1.612l2.033-0.007z m-424 0l2.033 0.003c13.377 0 26.621 0.554 39.733 1.662a176.258 176.258 0 0 0-3.39 34.494c0 8.697 0.633 17.247 1.854 25.605s4.278 27.397 15.561 50.74c11.283 23.343 27.58 43.81 47.493 60H88.688a4.315 4.315 0 0 1-4.313-4.175V483.8a34.5 34.5 0 0 1 19.7-31.188 451.295 451.295 0 0 1 191.859-43.984l2.033-0.005z m324.587-27.67c22.803 39.497 22.803 88.16 0 127.656-22.576 39.102-64.106 63.34-109.187 63.821l-1.367 0.008c-70.503 0-127.656-57.154-127.656-127.657 0-69.797 56.016-126.512 125.545-127.639l2.111-0.017c45.607 0 87.75 24.331 110.554 63.828zM724 184.375c50.99 0.033 92.385 41.233 92.659 92.222 0.272 50.99-40.68 92.63-91.666 93.21l-0.993 0.005c-51.207 0-92.719-41.511-92.719-92.718 0-50.695 40.686-91.888 91.186-92.707l1.533-0.012z m-424 0c50.99 0.033 92.385 41.233 92.659 92.222 0.272 50.99-40.68 92.63-91.666 93.21l-0.993 0.005c-51.207 0-92.719-41.511-92.719-92.718 0-50.695 40.686-91.888 91.186-92.707l1.533-0.012z" p-id="898"></path></svg>