<?xml version="1.0" standalone="no"?><!DOCTYPE svg PUBLIC "-//W3C//DTD SVG 1.1//EN" "http://www.w3.org/Graphics/SVG/1.1/DTD/svg11.dtd"><svg t="1677583757031" class="icon" viewBox="0 0 1024 1024" version="1.1" xmlns="http://www.w3.org/2000/svg" p-id="1562" xmlns:xlink="http://www.w3.org/1999/xlink" width="200" height="200"><path d="M744.128 456a216 216 0 1 1 0 432 216 216 0 0 1 0-432z m-293.12 75.008c22.976 0 45.696 0.896 68.224 2.688-24.832 40.32-39.04 87.68-39.04 138.304 0 63.872 22.656 122.432 60.352 168.064L71.744 840A7.68 7.68 0 0 1 64 832.512V665.664c0-23.872 13.76-45.632 35.328-55.872a811.328 811.328 0 0 1 351.68-78.784zM744.128 520a151.04 151.04 0 0 0-107.52 44.48A151.04 151.04 0 0 0 592.128 672c0 40.576 15.808 78.784 44.544 107.52A151.04 151.04 0 0 0 744.192 824a151.04 151.04 0 0 0 107.456-44.48A151.04 151.04 0 0 0 896.128 672a151.04 151.04 0 0 0-44.48-107.52A151.04 151.04 0 0 0 744.128 520zM640.064 643.904l208 0.192c3.52 0 6.528 2.304 7.616 5.44l0.384 2.56v40a8 8 0 0 1-5.44 7.552l-2.56 0.448-208-0.192a8 8 0 0 1-7.552-5.44l-0.448-2.56v-40c0-4.352 3.584-8 8-8zM450.56 136a166.528 166.528 0 1 1 0 332.992 166.528 166.528 0 0 1 0-332.992z" p-id="1563"></path></svg>