<?xml version="1.0" standalone="no"?><!DOCTYPE svg PUBLIC "-//W3C//DTD SVG 1.1//EN" "http://www.w3.org/Graphics/SVG/1.1/DTD/svg11.dtd"><svg t="1679309409958" class="icon" viewBox="0 0 1024 1024" version="1.1" xmlns="http://www.w3.org/2000/svg" p-id="2320" xmlns:xlink="http://www.w3.org/1999/xlink" width="200" height="200"><path d="M744 456a216.064 216.064 0 1 1-0.128 432.128A216.064 216.064 0 0 1 744 456z m-292.992 75.008c22.976 0 45.696 0.896 68.224 2.688-24.832 40.32-39.04 87.68-39.04 138.304 0 63.872 22.656 122.432 60.352 168.064L71.744 840A7.68 7.68 0 0 1 64 832.512V665.664c0-23.872 13.76-45.632 35.328-55.872a811.328 811.328 0 0 1 351.68-78.784zM744 520a152.192 152.192 0 0 0-152 152 152.192 152.192 0 0 0 152 152 152.192 152.192 0 0 0 152-152 151.872 151.872 0 0 0-152-152z m4.352 79.36a8 8 0 0 1 1.664 4.8v39.872h78.528c4.096 0 7.488 3.52 7.488 7.936v40.064c0 4.416-3.392 7.936-7.488 7.936H750.08v39.872a8 8 0 0 1-12.864 6.4L648.32 678.4a8 8 0 0 1-1.472-11.264l1.472-1.472 88.832-67.84a8 8 0 0 1 11.2 1.472zM450.56 135.936a166.528 166.528 0 1 1 0 332.992 166.528 166.528 0 0 1 0-332.992z" p-id="2321"></path></svg>