<?xml version="1.0" standalone="no"?><!DOCTYPE svg PUBLIC "-//W3C//DTD SVG 1.1//EN" "http://www.w3.org/Graphics/SVG/1.1/DTD/svg11.dtd"><svg t="1660536790579" class="icon" viewBox="0 0 1228 1024" version="1.1" xmlns="http://www.w3.org/2000/svg" p-id="1064" xmlns:xlink="http://www.w3.org/1999/xlink" width="239.84375" height="200"><defs><style type="text/css">@font-face { font-family: feedback-iconfont; src: url("//at.alicdn.com/t/font_1031158_u69w8yhxdu.woff2?t=1630033759944") format("woff2"), url("//at.alicdn.com/t/font_1031158_u69w8yhxdu.woff?t=1630033759944") format("woff"), url("//at.alicdn.com/t/font_1031158_u69w8yhxdu.ttf?t=1630033759944") format("truetype"); }
</style></defs><path d="M1113.6 89.6c20.992 0 38.0928 16.7936 38.4 37.7856V896a38.4 38.4 0 0 1-37.7856 38.4H115.2a38.4 38.4 0 0 1-38.4-37.7856V128c0-20.992 16.7936-38.0928 37.7856-38.4h999.0144z m-546.4064 223.232H325.632a9.6256 9.6256 0 0 0-8.3968 4.9152L241.2544 454.656a9.6256 9.6256 0 0 0-1.2288 4.608v237.568c0 5.2224 4.3008 9.5232 9.6256 9.5232h47.9232A9.6256 9.6256 0 0 0 307.2 696.832v-28.8768h278.4256v28.8768c0 5.2224 4.3008 9.5232 9.5232 9.5232h48.128a9.6256 9.6256 0 0 0 9.5232-9.5232v-237.568a9.6256 9.6256 0 0 0-1.2288-4.608l-75.9808-136.9088a9.6256 9.6256 0 0 0-8.3968-4.9152z m393.728 251.904H738.0992c-4.7104 0-8.4992 4.4032-8.4992 9.6256v57.6512c0 5.2224 3.7888 9.6256 8.4992 9.6256h223.0272c4.608 0 8.4992-4.4032 8.4992-9.6256h-0.1024v-57.6512c0-5.2224-3.8912-9.5232-8.6016-9.5232zM585.728 504.832v95.9488H307.2V504.832h278.4256z m-220.8768 19.1488a28.7744 28.7744 0 1 0 0 57.6512 28.7744 28.7744 0 0 0 0-57.6512z m163.2256 0a28.7744 28.7744 0 1 0 0 57.6512 28.7744 28.7744 0 0 0 0-57.6512z m432.9472-131.9936H738.0992c-4.7104 0-8.4992 4.3008-8.4992 9.6256v57.5488c0 5.3248 3.7888 9.6256 8.4992 9.6256h223.0272c4.608 0 8.4992-4.3008 8.4992-9.6256h-0.1024v-57.5488c0-5.3248-3.8912-9.6256-8.6016-9.6256z m-427.6224-11.9808l42.5984 76.8h-259.072l42.7008-76.8h173.7728z" p-id="1065"></path></svg>