<?xml version="1.0" standalone="no"?><!DOCTYPE svg PUBLIC "-//W3C//DTD SVG 1.1//EN" "http://www.w3.org/Graphics/SVG/1.1/DTD/svg11.dtd"><svg t="1677649686312" class="icon" viewBox="0 0 1024 1024" version="1.1" xmlns="http://www.w3.org/2000/svg" p-id="3640" xmlns:xlink="http://www.w3.org/1999/xlink" width="200" height="200"><path d="M792 552a168 168 0 1 1 0 336 168 168 0 0 1 0-336zM495.04 88a56 56 0 0 1 52.736 74.752l184.96 72.448a32 32 0 0 1 20.288 29.824v174.4l98.496 43.136a32 32 0 0 1 18.496 35.968 216 216 0 0 0-240.64 343.68 99.84 99.84 0 0 1-73.152-25.728l-1.216-1.088-40.896-38.208a27.968 27.968 0 0 0-37.888-0.32l-0.32 0.32-40.96 38.208a100.032 100.032 0 0 1-135.424 1.088l-1.152-1.088-40.96-38.208a27.968 27.968 0 0 0-37.888-0.32l-0.32 0.32-78.72 73.6a8 8 0 0 1-11.328-0.32l-38.272-40.96a8 8 0 0 1 0.384-11.264l78.72-73.664c9.088-8.448 19.2-14.848 30.08-19.328l-78.656-201.792a32 32 0 0 1 17.024-40.96l98.56-43.072v-174.4a32 32 0 0 1 20.416-29.888l185.024-71.552a56 56 0 0 1 52.48-75.52zM792 616c-27.776 0-53.888 10.816-73.6 30.464A103.36 103.36 0 0 0 688 720c0 27.776 10.816 53.888 30.464 73.6C738.112 813.184 764.224 824 792 824c27.776 0 53.888-10.816 73.6-30.464C885.184 773.888 896 747.776 896 720c0-27.776-10.816-53.888-30.464-73.6A103.36 103.36 0 0 0 792 616z m56 81.024c4.352 0 7.872 3.392 8 7.68v32.32a8 8 0 0 1-7.744 8H736a8 8 0 0 1-8-7.744v-32.256c0-4.352 3.456-7.872 7.744-8H848z m-355.136-316.48l-0.256 0.128-19.2 8.32a4.032 4.032 0 0 0-2.432 3.456V568c0 0.512 0.384 0.96 0.896 1.024h46.144a1.024 1.024 0 0 0 0.96-0.896V392.256a4.032 4.032 0 0 0-2.112-3.584l-0.192-0.064-17.6-7.936a8 8 0 0 0-5.888-0.256l-0.32 0.128z m3.584-169.216l-195.456 75.584V411.52l181.12-79.36a32 32 0 0 1 25.728 0l181.12 79.36V286.848l-192.512-75.52z" p-id="3641"></path></svg>