<?xml version="1.0" standalone="no"?><!DOCTYPE svg PUBLIC "-//W3C//DTD SVG 1.1//EN" "http://www.w3.org/Graphics/SVG/1.1/DTD/svg11.dtd"><svg t="1681872833484" class="icon" viewBox="0 0 1024 1024" version="1.1" xmlns="http://www.w3.org/2000/svg" p-id="940" xmlns:xlink="http://www.w3.org/1999/xlink" width="200" height="200"><path d="M400.64 884.992l-1.92 0.32a59.392 59.392 0 0 1-2.944 0.32h-0.256a99.648 99.648 0 0 1-71.36-19.008l-8.576-7.232-40.96-38.208a27.968 27.968 0 0 0-37.888-0.32l-79.104 73.984a8 8 0 0 1-11.264-0.384l-38.272-40.96a8 8 0 0 1 0.384-11.264l78.72-73.664c9.088-8.448 19.2-14.848 30.08-19.328l-78.592-201.792a31.872 31.872 0 0 1-0.64-21.376l0.448-1.28 0.704-1.728a32.192 32.192 0 0 1 1.28-2.496l1.216-2.112 1.536-2.176a31.68 31.68 0 0 1 12.48-9.728l98.56-43.136v-174.4a32 32 0 0 1 12.48-25.408l3.712-2.432 4.096-1.92 0.128-0.128 2.56-1.024 182.272-71.36a55.68 55.68 0 0 1-2.88-12.288l-0.384-6.464c0-28.544 21.376-52.096 49.024-55.552l7.04-0.448a56 56 0 0 1 52.736 74.752l182.016 71.36 2.752 1.024a32 32 0 0 1 19.968 24.32l0.512 5.568V463.36l98.496 43.136a31.872 31.872 0 0 1 15.488 14.4l0.64 1.28a32 32 0 0 1 1.024 2.56l0.32 0.768a32.18 32.18 0 0 1 1.088 16.384l-1.6 5.504-78.528 201.792a96.321 96.321 0 0 1 23.04 13.44l6.976 5.888 78.72 73.664a8 8 0 0 1 2.112 8.576l-1.664 2.752-38.272 40.896a8 8 0 0 1-8.576 2.048l-2.688-1.664-79.104-73.984a28.032 28.032 0 0 0-33.728-2.944l-4.224 3.2-40.96 38.272-8.576 7.232a99.904 99.904 0 0 1-71.296 19.072h-0.192a59.392 59.392 0 0 1-2.944-0.384l-1.92-0.32a100.16 100.16 0 0 1-4.8-0.96l6.72 1.28a100.096 100.096 0 0 1-15.808-3.712L605.632 880a99.776 99.776 0 0 1-8.512-3.648l-4.736-2.432a98.88 98.88 0 0 1-11.968-7.68l-4.096-3.328v-0.064l-0.512-0.384-0.768-0.64a101.376 101.376 0 0 1-1.536-1.408l-10.432-9.664-32-29.952a27.904 27.904 0 0 0-10.368-5.952l0.64 0.192-1.6-0.448-2.24-0.576 0.448 0.128-1.6-0.256-4.096-0.32-4.096 0.32-1.664 0.256 0.448-0.128-2.176 0.576-0.896 0.256-1.28 0.448 0.704-0.256-3.136 1.28a27.968 27.968 0 0 0-6.656 4.48l-41.28 38.528-0.512 0.448-0.64 0.64-2.368 2.112 0.704-0.704-1.216 1.088a100.48 100.48 0 0 1-38.208 19.968l-5.504 1.28-1.408 0.32a100.224 100.224 0 0 1-2.432 0.448z m118.592-449.28a16 16 0 0 0-14.464 0l-20.416 10.24A8 8 0 0 0 480 453.12V632c0 4.416 3.584 8 8 8h48a8 8 0 0 0 8-8V453.12a8 8 0 0 0-4.352-7.104z m-6.976-199.808l-193.92 75.008v124.544l181.12-79.36a32 32 0 0 1 15.424-2.56l5.184 0.896 5.056 1.728 181.12 79.296V310.912l-193.92-75.008z" p-id="941"></path></svg>