<?xml version="1.0" standalone="no"?><!DOCTYPE svg PUBLIC "-//W3C//DTD SVG 1.1//EN" "http://www.w3.org/Graphics/SVG/1.1/DTD/svg11.dtd"><svg t="1700814745687" class="icon" viewBox="0 0 1024 1024" version="1.1" xmlns="http://www.w3.org/2000/svg" p-id="1295" xmlns:xlink="http://www.w3.org/1999/xlink" width="200" height="200"><path d="M431.18 164.64l-42.545 51.92L584 408l-32.005 37.436 1.82-2.333-23.695-12.651-18.362-9.748-6.307-3.316-132.834-69.178a17.317 17.317 0 0 0-25.117 18.036l0.06 0.362 57.246 324.656a17.317 17.317 0 1 0 29.832 8.686l44.034-47.826 124.956 150.988L552.972 864l-416.401 21.046c-17.473 0.916-32.405-12.363-33.604-29.753L69.445 215.642c-0.916-17.473 12.362-32.405 29.753-33.604l331.981-17.398zM588.576 160l343.776 12.005c17.485 0.61 31.203 15.14 30.882 32.569L940.88 844.713c-0.61 17.485-15.14 31.203-32.569 30.883l-0.529-0.02L552.972 864l86.262-55.214-109.601-180.131L664.99 524.758a17.317 17.317 0 0 0 0-27.47l-35.806-27.483 63.915-57.381-156.955-204.602L588.577 160z" p-id="1296"></path></svg>