<?xml version="1.0" standalone="no"?><!DOCTYPE svg PUBLIC "-//W3C//DTD SVG 1.1//EN" "http://www.w3.org/Graphics/SVG/1.1/DTD/svg11.dtd"><svg t="1703830380426" class="icon" viewBox="0 0 1024 1024" version="1.1" xmlns="http://www.w3.org/2000/svg" p-id="1998" xmlns:xlink="http://www.w3.org/1999/xlink" width="200" height="200"><path d="M431.168 164.608l-42.56 51.968L584 408l-32 37.44 1.792-2.368-23.68-12.608-18.368-9.728-6.272-3.328-132.864-69.248a17.28 17.28 0 0 0-25.088 18.048v0.32L404.8 691.2a17.28 17.28 0 0 0 29.824 8.704l44.032-47.872 124.992 151.04-50.688 60.864-416.384 21.056a32 32 0 0 1-33.6-29.76L69.44 215.552a32 32 0 0 1 29.76-33.6l331.968-17.408zM588.608 160l343.744 12.032a32 32 0 0 1 30.912 32.512L940.8 844.8a32 32 0 0 1-32.576 30.848h-0.512L552.96 864l86.272-55.232-109.568-180.096L664.96 524.736a17.28 17.28 0 0 0 0-27.456l-35.776-27.52 63.936-57.344-156.992-204.608L588.608 160z" p-id="1999"></path></svg>