<?xml version="1.0" standalone="no"?><!DOCTYPE svg PUBLIC "-//W3C//DTD SVG 1.1//EN" "http://www.w3.org/Graphics/SVG/1.1/DTD/svg11.dtd"><svg t="1678079117203" class="icon" viewBox="0 0 1024 1024" version="1.1" xmlns="http://www.w3.org/2000/svg" p-id="2294" xmlns:xlink="http://www.w3.org/1999/xlink" width="200" height="200"><path d="M118.912 404.096l136.448 177.28L453.952 704.64a32 32 0 0 1 16.32 27.84V896a16 16 0 0 1-16 16h-56a16 16 0 0 1-16-16V766.208L183.488 639.936a32 32 0 0 1-12.224-14.336L83.776 423.104a20.032 20.032 0 0 1 35.2-19.008z m785.408 0a20.032 20.032 0 0 1 35.328 18.624l-0.128 0.384L852.032 625.6a32 32 0 0 1-11.776 14.016l-0.448 0.32-198.784 126.272V896a16 16 0 0 1-15.68 16h-56.32a16 16 0 0 1-16-15.68V732.48a32 32 0 0 1 15.872-27.648l0.384-0.192 198.592-123.264 136.448-177.28zM780.224 158.08c61.056 61.056 61.056 160 0 221.056L534.4 624.96a32 32 0 0 1-45.248 0L243.328 379.2a156.352 156.352 0 0 1 221.056-221.12l47.36 47.36 47.36-47.36a156.352 156.352 0 0 1 221.12 0z" p-id="2295"></path></svg>