<?xml version="1.0" standalone="no"?><!DOCTYPE svg PUBLIC "-//W3C//DTD SVG 1.1//EN" "http://www.w3.org/Graphics/SVG/1.1/DTD/svg11.dtd"><svg t="1677651819757" class="icon" viewBox="0 0 1024 1024" version="1.1" xmlns="http://www.w3.org/2000/svg" p-id="1186" xmlns:xlink="http://www.w3.org/1999/xlink" width="200" height="200"><path d="M376 64c4.416 0 8 3.584 8 8v88h380.032a32 32 0 0 1 32 31.36V928a32 32 0 0 1-32 32H259.904a32 32 0 0 1-32-31.488V928l0.064-736.064a32 32 0 0 1 31.424-32h0.576L312 160V72c0-4.416 3.584-8 8-8h55.936z m8.96 672a36.48 36.48 0 0 0-36.928 36.032c0 19.84 16.512 35.968 36.928 35.968a36.48 36.48 0 0 0 35.072-35.968 36.48 36.48 0 0 0-35.072-35.968V736z m128 0a36.48 36.48 0 0 0-36.992 36.032c0 19.84 16.576 35.968 36.992 35.968a36.48 36.48 0 0 0 35.008-35.968 36.48 36.48 0 0 0-35.008-35.968V736z m128 0a36.48 36.48 0 0 0-36.992 36.032c0 19.84 16.576 35.968 36.992 35.968a36.48 36.48 0 0 0 35.008-35.968 36.48 36.48 0 0 0-35.008-35.968V736zM384 608a36.032 36.032 0 1 0 0 71.808 36.032 36.032 0 0 0 0-71.68V608z m128 0a36.032 36.032 0 1 0 0 71.808 36.032 36.032 0 0 0 0-71.68V608z m128 0a36.032 36.032 0 1 0 0 71.808 36.032 36.032 0 0 0 0-71.68V608z m60.032-344H323.904a8 8 0 0 0-8 7.744V496c0 4.352 3.456 7.872 7.808 8h376.192a8 8 0 0 0 8.064-7.744V272a8 8 0 0 0-7.808-8h-0.256z m-40.064 48v144H364.096V312h296z" p-id="1187"></path></svg>