<?xml version="1.0" standalone="no"?><!DOCTYPE svg PUBLIC "-//W3C//DTD SVG 1.1//EN" "http://www.w3.org/Graphics/SVG/1.1/DTD/svg11.dtd"><svg t="1657267217589" class="icon" viewBox="0 0 1024 1024" version="1.1" xmlns="http://www.w3.org/2000/svg" p-id="850" xmlns:xlink="http://www.w3.org/1999/xlink" width="200" height="200"><defs><style type="text/css">@font-face { font-family: feedback-iconfont; src: url("//at.alicdn.com/t/font_1031158_u69w8yhxdu.woff2?t=1630033759944") format("woff2"), url("//at.alicdn.com/t/font_1031158_u69w8yhxdu.woff?t=1630033759944") format("woff"), url("//at.alicdn.com/t/font_1031158_u69w8yhxdu.ttf?t=1630033759944") format("truetype"); }
</style></defs><path d="M512 948.90666667c214.42408334 0 388.3614811-78.93447111 388.3614811-176.41320334 0-44.07902777-35.38944-83.98316999-93.69220665-114.85790778 14.90337223 24.27259221 18.49571555 54.37060779 9.70903666 81.79863666-20.97152 57.67168-102.33324999 121.26587221-304.37831111 121.26587336-202.04506112 0-283.40679111-63.59419221-304.37831111-121.26587336A99.03217778 99.03217778 0 0 1 217.33072555 657.63555555C159.07650333 688.51029333 123.6385189 728.41443555 123.6385189 772.49346333 123.6385189 869.97219555 297.57591666 948.90666667 512 948.90666667z" p-id="851"></path><path d="M487.72740779 706.18074112c177.96664889 0 266.9985189-132.33417443 266.99851776-254.42531555C754.72592555 278.64329443 487.72740779 75.09333333 487.72740779 75.09333333S220.72888889 278.64329443 220.72888889 451.75542557C220.72888889 573.84656555 309.7607589 706.18074112 487.72740779 706.18074112zM364.51972779 361.99537778s-20.5831589 57.2833189 30.77764664 143.40247665c51.36080555 86.02206777 174.56848555 76.45866667 174.56848669 76.45866667-20.53461333 28.69020445-71.84687445 28.69020445-71.84687445 28.69020445-154.08241778 0-174.61703111-124.27567445-174.61703112-162.52928a107.72176555 107.72176555 0 0 1 41.11777224-86.07061334z" p-id="852"></path></svg>