<?xml version="1.0" standalone="no"?><!DOCTYPE svg PUBLIC "-//W3C//DTD SVG 1.1//EN" "http://www.w3.org/Graphics/SVG/1.1/DTD/svg11.dtd"><svg t="1678070786469" class="icon" viewBox="0 0 1024 1024" version="1.1" xmlns="http://www.w3.org/2000/svg" p-id="5022" xmlns:xlink="http://www.w3.org/1999/xlink" width="200" height="200"><path d="M286.4 124.352l-48.96 75.968a161.984 161.984 0 0 0-1.024 173.632l1.024 1.6 4.928 7.68a238.016 238.016 0 0 1 1.472 255.04l-1.472 2.368-4.928 7.68a161.984 161.984 0 0 0-1.024 173.632l1.024 1.6 48.896 76.032a8 8 0 0 1-6.72 12.352h-66.944a16 16 0 0 1-13.44-7.36l-25.664-39.936a238.016 238.016 0 0 1-1.472-255.04l1.472-2.368 4.928-7.68c33.92-52.864 34.304-120.512 1.024-173.632l-1.024-1.6-4.928-7.68a238.016 238.016 0 0 1-1.472-255.04l1.472-2.368 25.664-39.936a16 16 0 0 1 13.44-7.36h67.008a8 8 0 0 1 6.72 12.352z m608 0l-48.96 75.968a161.984 161.984 0 0 0-1.024 173.632l1.024 1.6 4.928 7.68a238.016 238.016 0 0 1 1.472 255.04l-1.472 2.368-4.928 7.68a161.984 161.984 0 0 0-1.024 173.632l1.024 1.6 48.896 76.032a8 8 0 0 1-6.72 12.352h-67.008a16 16 0 0 1-13.44-7.36l-25.664-39.936a238.016 238.016 0 0 1-1.472-255.04l1.472-2.368 4.928-7.68c33.92-52.864 34.304-120.512 1.024-173.632l-1.024-1.6-4.928-7.68a238.016 238.016 0 0 1-1.472-255.04l1.472-2.368 25.664-39.936a16 16 0 0 1 13.44-7.36h67.008a8 8 0 0 1 6.72 12.352z m-192.448 670.72v0.32a285.76 285.76 0 0 0 39.232 95.296l5.76 8.96a8 8 0 0 1-6.72 12.352H589.248a8 8 0 0 1-5.632-13.632L690.304 791.68a6.912 6.912 0 0 1 11.648 3.456z m60.224-261.504a113.92 113.92 0 0 1-16 40.064l-5.12 7.936-1.664 2.56a285.568 285.568 0 0 0-41.152 114.048l-0.192 1.664-0.064 0.768-0.192 1.664-0.192 1.344-0.128 1.472-0.256 2.688-0.256 2.88-0.128 1.28a16.32 16.32 0 0 1-5.568 10.88L506.752 907.328A16 16 0 0 1 495.424 912H385.28a8 8 0 0 1-5.696-13.632l370.944-370.944a6.912 6.912 0 0 1 11.648 6.144zM710.784 379.52l0.512 1.536 0.128 0.32a288.322 288.322 0 0 0 29.76 61.312l6.656 10.88c1.92 3.136 1.472 7.232-1.152 9.792L337.536 872.512a8 8 0 0 1-12.416-1.28l-44.352-69.12a8 8 0 0 1 1.024-9.984L697.28 376.64a8 8 0 0 1 13.504 2.88z m9.6-206.848l-1.472 2.816-0.448 0.896-0.192 0.32v0.192l-0.128 0.128a285.888 285.888 0 0 0-22.272 118.208v1.664l0.128 2.048 0.064 1.92 0.064 1.536a16.128 16.128 0 0 1-5.312 12.8L275.008 731.008a8.192 8.192 0 0 1-11.2 2.048 8 8 0 0 1-3.52-7.04 113.856 113.856 0 0 1 17.536-51.584l5.12-8 1.664-2.56 1.728-2.88a285.568 285.568 0 0 0 40.064-116.48L707.712 163.2a8 8 0 0 1 12.736 9.472z m-43.008-47.04L337.792 465.28a8.064 8.064 0 0 1-14.144-3.84l-0.64-3.904a285.44 285.44 0 0 0-22.4-68.096l-0.96-2.112-0.704-1.472-1.088-2.048-0.96-1.92-1.28-2.56a8.128 8.128 0 0 1 2.24-10.24l252.416-252.416A16 16 0 0 1 561.6 112h110.144a8 8 0 0 1 5.632 13.632z m-203.968 0l-197.76 197.824a6.656 6.656 0 0 1-11.008-2.496l-0.128-0.32a113.984 113.984 0 0 1 13.376-94.272l68.736-107.008a16 16 0 0 1 13.44-7.36H467.84a8 8 0 0 1 5.632 13.632z" p-id="5023"></path></svg>