<?xml version="1.0" standalone="no"?><!DOCTYPE svg PUBLIC "-//W3C//DTD SVG 1.1//EN" "http://www.w3.org/Graphics/SVG/1.1/DTD/svg11.dtd"><svg t="1709114313666" class="icon" viewBox="0 0 1024 1024" version="1.1" xmlns="http://www.w3.org/2000/svg" p-id="2464" xmlns:xlink="http://www.w3.org/1999/xlink" width="200" height="200"><path d="M312 91.008a91.968 91.968 0 1 0 0 184 91.968 91.968 0 0 0 0-184z m403.008 0a92.032 92.032 0 1 0 0 184 92.032 92.032 0 0 0 0-184zM468.096 304a16 16 0 0 1 15.936 17.664v0.32l-44.864 360.96a8 8 0 0 1-7.68 7.04H408v241.984a16 16 0 0 1-15.68 16H232a16 16 0 0 1-16-15.68v-242.24h-23.232a8 8 0 0 1-7.872-6.784v-0.256L139.968 321.92a16 16 0 0 1 15.552-17.984h312.512zM344 689.984h-64v193.984h64v-193.92zM798.528 304a16 16 0 0 1 15.488 12.16l90.432 363.904a8 8 0 0 1-7.744 9.92h-85.76v241.984a16 16 0 0 1-15.616 16h-160.32a16 16 0 0 1-16-15.68v-242.24h-85.76a8 8 0 0 1-7.68-9.984l90.368-363.904A16 16 0 0 1 631.488 304h167.04z m-51.52 385.984h-64v193.984h64v-193.92z" p-id="2465"></path></svg>