<?xml version="1.0" standalone="no"?><!DOCTYPE svg PUBLIC "-//W3C//DTD SVG 1.1//EN" "http://www.w3.org/Graphics/SVG/1.1/DTD/svg11.dtd"><svg t="1678079120531" class="icon" viewBox="0 0 1024 1024" version="1.1" xmlns="http://www.w3.org/2000/svg" p-id="2446" xmlns:xlink="http://www.w3.org/1999/xlink" width="200" height="200"><path d="M512 64a448 448 0 0 1 448 454.656V512a456.96 456.96 0 0 1-0.192 12.416l-0.064 2.816-0.128 4.032-0.128 2.688v0.768a452.672 452.672 0 0 1-0.384 6.272l-0.128 1.408-0.256 3.776-0.192 2.368v0.512a450.368 450.368 0 0 1-0.64 6.4l-0.128 1.28-0.384 3.84-0.256 2.432v0.448a448.64 448.64 0 0 1-0.832 6.272l-0.192 1.472a447.424 447.424 0 0 1-1.856 12.672l-0.192 1.536a446.592 446.592 0 0 1-0.704 4.16l-0.512 2.56c-0.32 1.92-0.64 3.84-1.088 5.76l-0.256 1.408a445.696 445.696 0 0 1-0.832 4.096l-0.64 3.2a445.312 445.312 0 0 1-1.28 5.44l-0.192 1.024-0.96 4.096-0.64 2.624-0.128 0.64-0.96 3.712-0.64 2.56a444.544 444.544 0 0 1-1.664 6.016l-0.384 1.472a444.48 444.48 0 0 1-3.584 11.904l-0.448 1.536-1.28 3.904-0.832 2.56a444.288 444.288 0 0 1-1.28 3.584l-0.576 1.792a444.8 444.8 0 0 1-1.856 5.12l-0.896 2.56-0.192 0.512-1.92 5.12-0.384 0.96-2.24 5.76-0.512 1.216a445.184 445.184 0 0 1-1.408 3.392l-0.896 2.112-0.192 0.384a445.376 445.376 0 0 1-2.368 5.568l-0.64 1.408a445.76 445.76 0 0 1-5.12 11.2l-0.64 1.28a446.08 446.08 0 0 1-1.792 3.712l-1.152 2.368a446.4 446.4 0 0 1-1.728 3.328l-0.832 1.664a446.08 446.08 0 0 1-3.456 6.592l-0.512 0.896-2.56 4.736-0.64 1.088a447.36 447.36 0 0 1-3.008 5.248l-0.64 1.152-1.344 2.304-1.664 2.752-0.256 0.448-2.048 3.392-1.408 2.304-0.384 0.64-2.048 3.2-1.28 2.048a448.64 448.64 0 0 1-3.328 5.056l-0.832 1.28a448.96 448.96 0 0 1-2.24 3.328l-1.408 2.048a448.896 448.896 0 0 1-2.176 3.136l-1.472 2.112-0.448 0.64-3.456 4.736-0.704 1.024a449.728 449.728 0 0 1-3.2 4.224l-0.64 0.896a449.856 449.856 0 0 1-2.496 3.2l-1.216 1.6a450.624 450.624 0 0 1-3.072 3.84l-1.664 2.112-3.776 4.608-0.96 1.152-2.496 2.944-1.472 1.728a450.56 450.56 0 0 1-2.688 3.136l-1.28 1.536a451.968 451.968 0 0 1-3.648 3.968l-1.728 1.92-3.84 4.16-0.896 1.024-2.816 2.88-2.112 2.176-3.648 3.776-1.024 0.96a450.816 450.816 0 0 1-4.16 4.096l-1.024 1.024-3.776 3.584-0.768 0.704a450.56 450.56 0 0 1-2.88 2.752l-1.472 1.344a451.264 451.264 0 0 1-10.24 9.088l-1.088 0.896a450.56 450.56 0 0 1-3.072 2.56l-1.984 1.728a450.368 450.368 0 0 1-4.352 3.584l-1.088 0.832a449.984 449.984 0 0 1-3.2 2.56l-1.92 1.472-0.256 0.256a450.112 450.112 0 0 1-3.008 2.304l-1.92 1.472-0.384 0.256c-1.6 1.28-3.2 2.432-4.8 3.584l-1.152 0.896a449.408 449.408 0 0 1-4.288 3.072l-0.832 0.64a449.152 449.152 0 0 1-4.928 3.392l-1.152 0.768a449.024 449.024 0 0 1-3.136 2.112l-2.048 1.408a448.896 448.896 0 0 1-3.328 2.176l-2.304 1.472-1.856 1.216A445.888 445.888 0 0 1 512 960a445.888 445.888 0 0 1-237.952-68.352l-2.048-1.28a448.448 448.448 0 0 1-5.056-3.2l-2.816-1.92a448.896 448.896 0 0 1-4.8-3.2l-1.152-0.832a449.024 449.024 0 0 1-3.328-2.304l-2.432-1.728a449.6 449.6 0 0 1-4.288-3.072l-1.152-0.896a449.6 449.6 0 0 1-4.736-3.52l-0.96-0.704a449.92 449.92 0 0 1-2.944-2.24l-2.112-1.664-4.8-3.84-0.96-0.704a450.24 450.24 0 0 1-2.944-2.432l-1.92-1.6a450.496 450.496 0 0 1-3.136-2.56l-2.048-1.792-0.448-0.448a450.56 450.56 0 0 1-3.136-2.688l-1.792-1.536a450.56 450.56 0 0 1-2.88-2.624l-1.472-1.28a450.688 450.688 0 0 1-3.968-3.712l-2.048-1.92-3.968-3.84-0.896-0.832a450.816 450.816 0 0 1-4.288-4.224l-0.896-0.832a450.688 450.688 0 0 1-3.648-3.776l-0.832-0.832a450.752 450.752 0 0 1-4.16-4.288l-0.832-0.96a450.496 450.496 0 0 1-2.56-2.752l-1.728-1.856a450.688 450.688 0 0 1-4.032-4.48l-0.96-1.088a450.496 450.496 0 0 1-8-9.344l-0.832-1.024a450.368 450.368 0 0 1-2.56-3.2l-1.728-1.984a450.176 450.176 0 0 1-2.368-3.008l-1.536-1.92-0.32-0.448a449.92 449.92 0 0 1-3.712-4.864l-0.704-0.896a449.728 449.728 0 0 1-3.2-4.224l-0.64-0.96a449.6 449.6 0 0 1-2.368-3.2l-1.6-2.24-0.384-0.64a449.024 449.024 0 0 1-2.176-3.008l-1.344-1.984a448.896 448.896 0 0 1-3.392-4.992l-0.896-1.28a448.576 448.576 0 0 1-2.176-3.392l-1.28-1.92a448.384 448.384 0 0 1-3.136-5.056l-0.704-1.152a448.128 448.128 0 0 1-2.112-3.456l-1.536-2.496a447.744 447.744 0 0 1-2.752-4.672l-0.64-1.152a447.488 447.488 0 0 1-2.048-3.456l-0.96-1.792a447.36 447.36 0 0 1-3.2-5.76l-0.512-0.96a446.848 446.848 0 0 1-1.856-3.52l-1.28-2.432-0.32-0.64a446.592 446.592 0 0 1-1.728-3.392l-1.088-2.112a446.144 446.144 0 0 1-2.688-5.504l-0.64-1.408a445.76 445.76 0 0 1-5.12-11.2l-0.64-1.28a445.44 445.44 0 0 1-1.6-3.776l-1.152-2.688a445.056 445.056 0 0 1-2.112-5.12l-0.448-1.152a445.056 445.056 0 0 1-1.536-3.84l-1.152-2.88a444.736 444.736 0 0 1-1.92-5.12l-0.448-1.152-2.048-5.696-0.448-1.344a444.544 444.544 0 0 1-1.28-3.648l-0.768-2.304-1.92-5.952-0.448-1.408a444.48 444.48 0 0 1-3.52-11.968l-0.448-1.536a444.544 444.544 0 0 1-1.088-3.904l-0.704-2.752a444.8 444.8 0 0 1-0.96-3.712l-0.64-2.496-0.128-0.576a444.928 444.928 0 0 1-1.472-6.144l-0.256-1.024a445.12 445.12 0 0 1-0.832-3.648l-0.512-2.368-0.128-0.64a445.568 445.568 0 0 1-1.28-6.08l-0.192-1.344a445.952 445.952 0 0 1-0.768-3.84l-0.448-2.496a446.464 446.464 0 0 1-1.088-6.208l-0.192-1.536a447.424 447.424 0 0 1-1.92-12.672l-0.128-1.472a448.448 448.448 0 0 1-0.576-4.16l-0.32-3.008a449.408 449.408 0 0 1-0.64-5.76l-0.064-1.28a450.24 450.24 0 0 1-0.448-4.288l-0.192-2.688v-0.512a451.456 451.456 0 0 1-0.448-5.632l-0.128-1.408a452.48 452.48 0 0 1-0.192-4.16l-0.192-2.88v-0.704a453.888 453.888 0 0 1-0.192-3.968l-0.064-2.624a455.424 455.424 0 0 1-0.256-6.592V512A448 448 0 0 1 512 64zM136.768 487.872a381.696 381.696 0 0 0 0.256 51.84l0.192 2.56v0.64a16 16 0 0 0 6.4 11.52l0.512 0.32 0.128 0.128c37.568 26.432 79.872 48.64 125.44 65.92l2.304 0.832V792.96c-0.256 5.12 1.92 10.112 6.016 13.376l1.6 1.28 0.576 0.448A374.4 374.4 0 0 0 512 888a374.4 374.4 0 0 0 231.36-79.616l0.896-0.64 1.408-1.152 0.32-0.256A16.064 16.064 0 0 0 752 792.96V621.632a570.24 570.24 0 0 0 124.544-64.512l1.856-1.28 1.28-0.96 0.384-0.192a16 16 0 0 0 6.656-11.712l0.128-1.664a379.456 379.456 0 0 0 0.576-50.752l-0.192-2.368a4.992 4.992 0 0 0-8.192-3.456l-1.28 1.024-0.256 0.256a498.56 498.56 0 0 1-154.56 86.592A609.792 609.792 0 0 0 512 534.016a609.728 609.728 0 0 0-210.944 38.592 498.816 498.816 0 0 1-154.24-86.4l-1.856-1.472-0.256-0.256a4.8 4.8 0 0 0-7.936 3.392zM363.968 336a56 56 0 1 0 0 112 56 56 0 0 0 0-112z m296 0a56 56 0 1 0 0 112 56 56 0 0 0 0-112z" p-id="2447"></path></svg>