<?xml version="1.0" standalone="no"?><!DOCTYPE svg PUBLIC "-//W3C//DTD SVG 1.1//EN" "http://www.w3.org/Graphics/SVG/1.1/DTD/svg11.dtd"><svg t="1677650785716" class="icon" viewBox="0 0 1024 1024" version="1.1" xmlns="http://www.w3.org/2000/svg" p-id="3015" xmlns:xlink="http://www.w3.org/1999/xlink" width="200" height="200"><path d="M574.4 304l3.84 38.4a16 16 0 0 1-15.936 17.6H544v121.984h12.032a16 16 0 0 1 16 16v36.032h103.232a120.064 120.064 0 1 1 0 56H571.968v75.968a16 16 0 0 1-16 16H544V880h39.04a32 32 0 0 1 31.872 28.8l4.224 42.432a8 8 0 0 1-8 8.768H412.864a8 8 0 0 1-8-8.768l4.224-42.432A32 32 0 0 1 440.96 880H480V681.984h-12.032a16 16 0 0 1-16-16V590.08H348.8a120.064 120.064 0 1 1 0-56h103.296v-36.16a16 16 0 0 1 16-16H480V360h-18.304a16 16 0 0 1-15.936-17.6l12.8-128a16 16 0 0 1 15.936-14.4h75.008a16 16 0 0 1 15.936 14.4l3.328 33.6h126.976L707.52 71.488A8 8 0 0 1 715.456 64h153.088c4.16 0 7.68 3.264 7.936 7.488l14.976 224a8 8 0 0 1-8 8.512H574.4z" p-id="3016"></path></svg>