<?xml version="1.0" standalone="no"?><!DOCTYPE svg PUBLIC "-//W3C//DTD SVG 1.1//EN" "http://www.w3.org/Graphics/SVG/1.1/DTD/svg11.dtd"><svg t="1658235796612" class="icon" viewBox="0 0 1024 1024" version="1.1" xmlns="http://www.w3.org/2000/svg" p-id="28708" xmlns:xlink="http://www.w3.org/1999/xlink" width="200" height="200"><defs><style type="text/css">@font-face { font-family: feedback-iconfont; src: url("//at.alicdn.com/t/font_1031158_u69w8yhxdu.woff2?t=1630033759944") format("woff2"), url("//at.alicdn.com/t/font_1031158_u69w8yhxdu.woff?t=1630033759944") format("woff"), url("//at.alicdn.com/t/font_1031158_u69w8yhxdu.ttf?t=1630033759944") format("truetype"); }
</style></defs><path d="M726.286 791.429h71.885A398.801 398.801 0 0 1 518.63 912H512A398.858 398.858 0 0 1 225.829 791.43h71.885v3.6c0 7.828 6.286 14.114 14 14.285H712c7.78 0.002 14.13-6.222 14.286-14v-3.885zM469.086 600.4L512 643.371l42.914-42.971a7.143 7.143 0 0 1 10.115 0l20.228 20.229a7.143 7.143 0 0 1 0 10.114l-42.971 42.914 42.971 42.914a7.143 7.143 0 0 1 0 10.115l-20.228 20.228a7.143 7.143 0 0 1-10.115 0L512 703.886l-42.914 42.971a7.143 7.143 0 0 1-10.115 0l-20.228-20.228a7.143 7.143 0 0 1 0-10.115l42.971-42.857-42.971-42.971a7.143 7.143 0 0 1 0-10.115l20.228-20.228a7.143 7.143 0 0 1 10.115 0v0.057z m442.857-92.457L912 512c0 86.971-27.771 167.429-74.857 233.029H726.286V615.086L912 507.886l-0.057 0.057zM112 507.886l185.714 107.2v129.943H186.857A398.057 398.057 0 0 1 112 518.629V507.886zM512 112c199.453 0.026 368.427 146.943 396.171 344.457L726.286 561.486v-9.315c0.001-7.78-6.222-14.13-14-14.285H312c-7.78-0.002-14.13 6.222-14.286 14v9.6L115.83 456.457c27.395-195.023 192.632-341.111 389.542-344.4L512 112zM354.857 387.886c-23.67 0-42.857 19.188-42.857 42.857 0 23.67 19.188 42.857 42.857 42.857 23.67 0 42.857-19.188 42.857-42.857 0-23.67-19.188-42.857-42.857-42.857z m314.286 0c-23.67 0-42.857 19.188-42.857 42.857 0 23.67 19.188 42.857 42.857 42.857 23.67 0 42.857-19.188 42.857-42.857 0-23.67-19.188-42.857-42.857-42.857z" p-id="28709"></path></svg>