<?xml version="1.0" standalone="no"?><!DOCTYPE svg PUBLIC "-//W3C//DTD SVG 1.1//EN" "http://www.w3.org/Graphics/SVG/1.1/DTD/svg11.dtd"><svg t="1709114378587" class="icon" viewBox="0 0 1024 1024" version="1.1" xmlns="http://www.w3.org/2000/svg" p-id="4780" xmlns:xlink="http://www.w3.org/1999/xlink" width="200" height="200"><path d="M820.032 104a145.984 145.984 0 0 1 85.76 264.128A427.968 427.968 0 1 1 109.44 390.08l7.616-19.2A145.984 145.984 0 1 1 304.192 148.8l7.808 8.704a426.112 426.112 0 0 1 200-49.472c70.848 0 137.664 17.216 196.544 47.68A145.792 145.792 0 0 1 820.032 104zM512 585.024a55.936 55.936 0 0 0-38.144 96.832 48.32 48.32 0 0 1-35.264 23.68l-6.592 0.448h-41.984a8 8 0 0 0-7.616 5.504l-0.384 2.56v48c0 3.456 2.304 6.464 5.44 7.552l2.56 0.384h43.84a112 112 0 0 0 78.272-33.6 112 112 0 0 0 67.008 32.832l11.328 0.768h44.16a8 8 0 0 0 7.296-5.504l0.384-2.496v-48.256a8 8 0 0 0-5.504-7.36l-2.496-0.384h-42.496a48.32 48.32 0 0 1-41.408-24.32 55.872 55.872 0 0 0-38.4-96.64zM325.888 376l-7.872 5.76-62.784 50.496a90.368 90.368 0 0 0-20.8 115.712 90.688 90.688 0 0 0 103.04 40.448l8.192-2.88 74.432-30.4c27.648-11.264 48.832-33.792 58.048-61.76a102.144 102.144 0 0 0-8.96-83.968c-14.976-25.6-40.192-43.392-69.248-48.512A100.992 100.992 0 0 0 325.888 376z m299.008-15.424a101.76 101.76 0 0 0-28.992 190.08l8.832 4.16 74.432 30.72c10.88 4.416 22.528 6.4 33.792 6.4 31.04 0 61.44-16 77.12-44.288a89.984 89.984 0 0 0-14.272-109.952l-6.528-5.76-62.464-50.56a102.4 102.4 0 0 0-81.92-20.8z m-242.944 62.656l6.144 0.576 0.384 0.064 0.32 0.064a37.056 37.056 0 0 1 25.216 17.856c5.632 9.6 6.848 20.864 3.328 31.552a37.12 37.12 0 0 1-21.376 22.528l-74.432 30.336a26.88 26.88 0 0 1-32-10.688 26.496 26.496 0 0 1 5.76-33.344l62.848-50.56c8.96-7.04 19.84-9.728 29.952-7.808z m254.592 0.256a38.4 38.4 0 0 1 30.08 7.68l62.912 50.944a25.984 25.984 0 0 1 5.632 32.64l-1.024 1.856A24.32 24.32 0 0 1 712.96 528a27.2 27.2 0 0 1-9.216-1.6l-0.448-0.128-74.112-30.656a39.04 39.04 0 0 1-21.888-23.296 36.736 36.736 0 0 1 3.328-30.592l0.448-0.768a37.76 37.76 0 0 1 25.088-17.408h0.192z" p-id="4781"></path></svg>