<?xml version="1.0" standalone="no"?><!DOCTYPE svg PUBLIC "-//W3C//DTD SVG 1.1//EN" "http://www.w3.org/Graphics/SVG/1.1/DTD/svg11.dtd"><svg t="1658236044590" class="icon" viewBox="0 0 1024 1024" version="1.1" xmlns="http://www.w3.org/2000/svg" p-id="32529" xmlns:xlink="http://www.w3.org/1999/xlink" width="200" height="200"><defs><style type="text/css">@font-face { font-family: feedback-iconfont; src: url("//at.alicdn.com/t/font_1031158_u69w8yhxdu.woff2?t=1630033759944") format("woff2"), url("//at.alicdn.com/t/font_1031158_u69w8yhxdu.woff?t=1630033759944") format("woff"), url("//at.alicdn.com/t/font_1031158_u69w8yhxdu.ttf?t=1630033759944") format("truetype"); }
</style></defs><path d="M682.0864 829.44H344.68864A22.12864 22.12864 0 0 1 322.56 807.31648V216.68352A22.12864 22.12864 0 0 1 344.68864 194.56h337.39776a22.12864 22.12864 0 0 1 22.12352 22.12352v590.63296A22.1184 22.1184 0 0 1 682.0864 829.44" fill="#2B6DE5" p-id="32530"></path><path d="M671.93856 800.8192H354.83648a3.15904 3.15904 0 0 1-3.15392-3.15904V321.5616c0-1.7408 1.41824-3.15904 3.15392-3.15904h317.10208c1.7408 0 3.15392 1.41312 3.15392 3.15904v476.09856a3.15392 3.15392 0 0 1-3.15392 3.15904M665.14432 239.92832c-2.62656 0-5.21216-1.0752-7.04-2.90304a10.09664 10.09664 0 0 1-2.944-7.04 9.45152 9.45152 0 0 1 0.7936-3.81952 9.3696 9.3696 0 0 1 0.9216-1.71008c0.3584-0.5632 0.74752-1.03936 1.2288-1.51552a9.94816 9.94816 0 0 1 10.81344-2.14528c0.59904 0.24064 1.2032 0.5632 1.75616 0.91136 0.51712 0.36352 1.03424 0.79872 1.5104 1.23392a10.38848 10.38848 0 0 1 2.1504 3.2256c0.23552 0.59392 0.4352 1.2288 0.55296 1.8688 0.12288 0.63488 0.2048 1.28 0.2048 1.95072a9.96864 9.96864 0 0 1-9.94304 9.94304M635.25376 239.92832c-2.62656 0-5.2224-1.0752-7.04512-2.90304a10.112 10.112 0 0 1-2.944-7.04c0-0.67584 0.08192-1.31584 0.19456-1.9456 0.16384-0.64512 0.32256-1.28 0.60416-1.87392 0.23552-0.59904 0.54784-1.15712 0.91136-1.71008a8.704 8.704 0 0 1 1.2288-1.51552 9.95328 9.95328 0 0 1 10.82368-2.14528c0.59904 0.24064 1.19296 0.5632 1.75616 0.91136 0.512 0.36352 1.024 0.79872 1.50528 1.23392 0.44544 0.47616 0.87552 0.95232 1.2288 1.51552 0.36864 0.55296 0.63488 1.11104 0.9216 1.71008 0.23552 0.59392 0.4352 1.2288 0.55296 1.8688 0.128 0.63488 0.2048 1.28 0.2048 1.95072a9.97888 9.97888 0 0 1-9.94304 9.94304M605.35808 239.92832c-2.63168 0-5.2224-1.0752-7.04512-2.90304a10.09664 10.09664 0 0 1-2.944-7.04c0-0.67584 0.08192-1.31584 0.19968-1.9456a10.17856 10.17856 0 0 1 1.51552-3.584c0.35328-0.5632 0.75264-1.03936 1.2288-1.51552a9.95328 9.95328 0 0 1 10.81856-2.14528c0.59904 0.24064 1.19808 0.5632 1.75104 0.91136 0.512 0.36352 1.03424 0.79872 1.5104 1.23392 0.44032 0.47616 0.8704 0.95232 1.2288 1.51552 0.36864 0.55296 0.64 1.11104 0.9216 1.71008 0.23552 0.59392 0.44032 1.2288 0.55296 1.8688 0.12288 0.63488 0.19968 1.28 0.19968 1.95072a9.97888 9.97888 0 0 1-9.93792 9.94304" fill="#FFFFFF" p-id="32531"></path><path d="M513.3824 563.82464c40.36096 0 73.07264 32.7168 73.07264 73.06752 0 5.38624-0.62976 10.62912-1.73056 15.68256l-16.8192 152.30976H458.8544l-16.80896-152.30976a74.38336 74.38336 0 0 1-1.6896-13.38368l-0.04096-2.29888c0-40.35584 32.7168-73.0624 73.0624-73.0624zM513.3824 529.70496c40.36096 0 73.07264-32.7168 73.07264-73.0624 0-40.35584-32.7168-73.0624-73.06752-73.0624C473.0368 383.57504 440.32 416.2816 440.32 456.63744c0 40.3456 32.7168 73.0624 73.0624 73.0624" fill="#2B6DE5" p-id="32532"></path><path d="M704.2048 266.24v542.72a20.48 20.48 0 0 1-20.48 20.48H343.04a20.48 20.48 0 0 1-20.48-20.48V266.24h381.6448z m-32.26624 52.16256H354.83648a3.15904 3.15904 0 0 0-3.15392 3.15904v476.09856c0 1.74592 1.41824 3.15904 3.15392 3.15904h317.10208c1.7408 0 3.15392-1.41312 3.15392-3.15904V321.5616a3.15392 3.15392 0 0 0-3.15392-3.15904z" fill="#02134D" fill-opacity=".15" p-id="32533"></path><path d="M351.68256 479.21152v318.44864c0 1.7408 1.41312 3.15904 3.15904 3.15904h317.09696a3.16928 3.16928 0 0 0 3.15904-3.15904V479.21152H351.68256z" fill="#E52C3E" fill-opacity=".3" p-id="32534"></path><path d="M351.67744 483.10784h323.42016v-7.80288H351.67744z" fill="#E52C3E" p-id="32535"></path></svg>