<?xml version="1.0" standalone="no"?><!DOCTYPE svg PUBLIC "-//W3C//DTD SVG 1.1//EN" "http://www.w3.org/Graphics/SVG/1.1/DTD/svg11.dtd"><svg t="1658233281968" class="icon" viewBox="0 0 1024 1024" version="1.1" xmlns="http://www.w3.org/2000/svg" p-id="23888" xmlns:xlink="http://www.w3.org/1999/xlink" width="200" height="200"><defs><style type="text/css">@font-face { font-family: feedback-iconfont; src: url("//at.alicdn.com/t/font_1031158_u69w8yhxdu.woff2?t=1630033759944") format("woff2"), url("//at.alicdn.com/t/font_1031158_u69w8yhxdu.woff?t=1630033759944") format("woff"), url("//at.alicdn.com/t/font_1031158_u69w8yhxdu.ttf?t=1630033759944") format("truetype"); }
</style></defs><path d="M672.32768 834.56H351.5904C327.1168 834.56 307.2 814.8992 307.2 790.74816V238.37696C307.2 214.2208 327.1168 194.56 351.5904 194.56h320.8192c24.4736 0 44.3904 19.6608 44.3904 43.81696v552.448c-0.0768 24.16128-19.99872 43.73504-44.47232 43.73504" fill="#2B6DE5" p-id="23889"></path><path d="M307.2 194.56v596.18816c0 24.19712 19.87584 43.81184 44.3904 43.81184h320.73728c24.4736 0 44.39552-19.57376 44.47232-43.74016V194.56H307.2z" fill="#02134D" fill-opacity=".15" p-id="23890"></path><path d="M675.94752 656.9472H348.04736A40.84736 40.84736 0 0 1 307.2 616.0896V413.0304a40.84736 40.84736 0 0 1 40.84736-40.85248h327.90016a40.85248 40.85248 0 0 1 40.8576 40.84736v203.06432a40.8576 40.8576 0 0 1-40.8576 40.8576" fill="#2B6DE5" p-id="23891"></path><path d="M619.24352 534.44096V505.344a1.61792 1.61792 0 0 0-1.6128-1.6128h-54.26176a1.61792 1.61792 0 0 0-1.61792 1.6128v29.10208a1.6128 1.6128 0 0 1-1.6128 1.6128H463.85664a1.61792 1.61792 0 0 1-1.6128-1.6128V505.344a1.61792 1.61792 0 0 0-1.6128-1.6128H406.3744a1.61792 1.61792 0 0 0-1.61792 1.6128v29.10208a1.6128 1.6128 0 0 1-1.6128 1.6128h-40.63744a1.61792 1.61792 0 0 0-1.6128 1.61792v48.09728c0 0.896 0.72192 1.61792 1.6128 1.61792H661.504a1.6128 1.6128 0 0 0 1.6128-1.61792v-48.09728a1.61792 1.61792 0 0 0-1.6128-1.61792h-40.64256a1.61792 1.61792 0 0 1-1.6128-1.6128" fill="#FFFFFF" p-id="23892"></path><path d="M663.11168 738.1504a7.6032 7.6032 0 1 1 0 15.2064 7.6032 7.6032 0 0 1 0-15.2064M632.69376 738.1504a7.6032 7.6032 0 1 1 0 15.2064 7.6032 7.6032 0 0 1 0-15.2064M602.28096 738.1504a7.6032 7.6032 0 1 1 0 15.2064 7.6032 7.6032 0 0 1 0-15.2064M571.85792 738.1504a7.6032 7.6032 0 1 1 0 15.2064 7.6032 7.6032 0 0 1 0-15.2064" fill="#02134D" p-id="23893"></path></svg>