<?xml version="1.0" encoding="UTF-8"?>
<svg width="28px" height="28px" viewBox="0 0 28 28" version="1.1" xmlns="http://www.w3.org/2000/svg" xmlns:xlink="http://www.w3.org/1999/xlink">
    <defs>
        <linearGradient x1="0%" y1="0%" x2="100%" y2="100%" id="linearGradient-1">
            <stop stop-color="#2B6DE5" stop-opacity="0.9" offset="0%"></stop>
            <stop stop-color="#2B6DE5" offset="100%"></stop>
        </linearGradient>
        <linearGradient x1="0%" y1="0%" x2="50%" y2="50%" id="linearGradient-2">
            <stop stop-color="#FFFFFF" stop-opacity="0.15" offset="0%"></stop>
            <stop stop-color="#2B6DE5" stop-opacity="0.25" offset="100%"></stop>
        </linearGradient>
        <rect id="path-3" x="7" y="7" width="18" height="18" rx="2"></rect>
        <filter x="-5.6%" y="-5.6%" width="111.1%" height="111.1%" filterUnits="objectBoundingBox" id="filter-4">
            <feGaussianBlur stdDeviation="0.5" in="SourceAlpha" result="shadowBlurInner1"></feGaussianBlur>
            <feOffset dx="1" dy="1" in="shadowBlurInner1" result="shadowOffsetInner1"></feOffset>
            <feComposite in="shadowOffsetInner1" in2="SourceAlpha" operator="arithmetic" k2="-1" k3="1" result="shadowInnerInner1"></feComposite>
            <feColorMatrix values="0 0 0 0 1   0 0 0 0 1   0 0 0 0 1  0 0 0 0.15 0" type="matrix" in="shadowInnerInner1"></feColorMatrix>
        </filter>
    </defs>
    <g stroke="none" stroke-width="1" fill="none" fill-rule="evenodd">
        <path d="M18,10 C18,14.418278 14.418278,18 10,18 C5.581722,18 2,14.418278 2,10 C2,5.581722 5.581722,2 10,2 C14.418278,2 18,5.581722 18,10 Z" id="路径" fill="url(#linearGradient-1)"></path>
        <g>
            <use fill="url(#linearGradient-2)" fill-rule="evenodd" xlink:href="#path-3"></use>
            <use fill="black" fill-opacity="1" filter="url(#filter-4)" xlink:href="#path-3"></use>
        </g>
        <path d="M14,11 C14.2761424,11 14.5,11.2238576 14.5,11.5 L14.499,13 L17.5,13 L17.5,11.5 C17.5,11.2238576 17.7238576,11 18,11 L18.5,11 C18.7761424,11 19,11.2238576 19,11.5 L19,13 L20.5,13 C20.7761424,13 21,13.2238576 21,13.5 L21,14 C21,14.2761424 20.7761424,14.5 20.5,14.5 L19,14.5 L19,17.5 L20.5,17.5 C20.7761424,17.5 21,17.7238576 21,18 L21,18.5 C21,18.7761424 20.7761424,19 20.5,19 L19,19 L19,20.5 C19,20.7761424 18.7761424,21 18.5,21 L18,21 C17.7238576,21 17.5,20.7761424 17.5,20.5 L17.5,19 L14.5,19 L14.5,20.5 C14.5,20.7761424 14.2761424,21 14,21 L13.5,21 C13.2238576,21 13,20.7761424 13,20.5 L13,19 L11.5,19 C11.2238576,19 11,18.7761424 11,18.5 L11,18 C11,17.7238576 11.2238576,17.5 11.5,17.5 L12.999,17.5 L12.999,14.5 L11.5,14.5 C11.2238576,14.5 11,14.2761424 11,14 L11,13.5 C11,13.2238576 11.2238576,13 11.5,13 L12.999,13 L13,11.5 C13,11.2238576 13.2238576,11 13.5,11 L14,11 Z M17.5,14.5 L14.499,14.5 L14.499,17.5 L17.5,17.5 L17.5,14.5 Z" id="形状" fill="#FFFFFF" fill-rule="nonzero"></path>
    </g>
</svg>
