<?xml version="1.0" encoding="UTF-8"?>
<svg width="256px" height="256px" viewBox="0 0 256 256" version="1.1" xmlns="http://www.w3.org/2000/svg" xmlns:xlink="http://www.w3.org/1999/xlink">
    <title>请假无打卡记录</title>
    <defs>
        <linearGradient x1="100%" y1="50%" x2="0%" y2="50%" id="linearGradient-1">
            <stop stop-color="#2B6DE5" stop-opacity="0.04" offset="0%"></stop>
            <stop stop-color="#2B6DE5" stop-opacity="0.09" offset="100%"></stop>
        </linearGradient>
        <path d="M176.679,74 L194,84 L97,140 L0,84 L17.321,74 L97,120 L176.679,74 Z" id="path-2"></path>
        <linearGradient x1="100%" y1="28.2336061%" x2="0%" y2="71.7663939%" id="linearGradient-3">
            <stop stop-color="#2B6DE5" stop-opacity="0.15" offset="0%"></stop>
            <stop stop-color="#2B6DE5" stop-opacity="0.45" offset="100%"></stop>
        </linearGradient>
        <path d="M194,64 L97,120 L97,112 L194,56 L194,64 Z" id="path-4"></path>
        <linearGradient x1="0%" y1="28.2336061%" x2="100%" y2="71.7663939%" id="linearGradient-5">
            <stop stop-color="#2B6DE5" stop-opacity="0" offset="0%"></stop>
            <stop stop-color="#2B6DE5" stop-opacity="0.25" offset="100%"></stop>
        </linearGradient>
        <path d="M97,112 L97,120 L0,64 L0,56 L97,112 Z" id="path-6"></path>
        <filter x="-0.5%" y="-0.8%" width="101.0%" height="101.6%" filterUnits="objectBoundingBox" id="filter-7">
            <feOffset dx="-1" dy="0.5" in="SourceAlpha" result="shadowOffsetInner1"></feOffset>
            <feComposite in="shadowOffsetInner1" in2="SourceAlpha" operator="arithmetic" k2="-1" k3="1" result="shadowInnerInner1"></feComposite>
            <feColorMatrix values="0 0 0 0 1   0 0 0 0 1   0 0 0 0 1  0 0 0 0.25 0" type="matrix" in="shadowInnerInner1"></feColorMatrix>
        </filter>
        <linearGradient x1="100%" y1="50%" x2="0%" y2="50%" id="linearGradient-8">
            <stop stop-color="#2B6DE5" stop-opacity="0" offset="0%"></stop>
            <stop stop-color="#2B6DE5" stop-opacity="0.25" offset="100%"></stop>
        </linearGradient>
        <path d="M97,0 L194,56 L97,112 L0,56 L97,0 Z" id="path-9"></path>
        <linearGradient x1="50%" y1="17.5719636%" x2="50%" y2="100%" id="linearGradient-10">
            <stop stop-color="#2B6DE5" stop-opacity="0" offset="0%"></stop>
            <stop stop-color="#2B6DE5" stop-opacity="0.15" offset="100%"></stop>
        </linearGradient>
        <linearGradient x1="100%" y1="50%" x2="0%" y2="50%" id="linearGradient-11">
            <stop stop-color="#2B6DE5" stop-opacity="0.2" offset="0%"></stop>
            <stop stop-color="#2B6DE5" stop-opacity="0.3" offset="100%"></stop>
        </linearGradient>
        <path d="M97,82 L162,120 L97,158 L32,120 L97,82 Z" id="path-12"></path>
        <linearGradient x1="50%" y1="17.5719636%" x2="50%" y2="100%" id="linearGradient-13">
            <stop stop-color="#2B6DE5" stop-opacity="0" offset="0%"></stop>
            <stop stop-color="#2B6DE5" stop-opacity="0.15" offset="100%"></stop>
        </linearGradient>
        <linearGradient x1="100%" y1="50.8487929%" x2="0%" y2="49.1512071%" id="linearGradient-14">
            <stop stop-color="#2B6DE5" stop-opacity="0.45" offset="0%"></stop>
            <stop stop-color="#2B6DE5" stop-opacity="0.65" offset="100%"></stop>
        </linearGradient>
        <polygon id="path-15" points="78.9692889 33.5009441 79.0307111 34.4990559 10.0307111 42.4990559 9.96928887 41.5009441"></polygon>
        <linearGradient x1="100%" y1="81.8406559%" x2="0%" y2="18.1593441%" id="linearGradient-16">
            <stop stop-color="#2B6DE5" stop-opacity="0.45" offset="0%"></stop>
            <stop stop-color="#2B6DE5" stop-opacity="0.15" offset="100%"></stop>
        </linearGradient>
        <polygon id="path-17" points="49.4049711 9.70674509 79.4049711 33.7067451 78.5950289 34.2932549 48.5950289 10.2932549"></polygon>
        <linearGradient x1="58.4775087%" y1="0%" x2="41.5224913%" y2="100%" id="linearGradient-18">
            <stop stop-color="#2B6DE5" stop-opacity="0.25" offset="0%"></stop>
            <stop stop-color="#2B6DE5" stop-opacity="0.6" offset="100%"></stop>
        </linearGradient>
        <path d="M7,0 L14,4.25 L14,12.75 L7,17 L7,8.5 L13.999,4.25 L7,0 Z" id="path-19"></path>
        <linearGradient x1="34.9288735%" y1="0%" x2="64.9682041%" y2="99.6585446%" id="linearGradient-20">
            <stop stop-color="#2B6DE5" stop-opacity="0.15" offset="0%"></stop>
            <stop stop-color="#2B6DE5" stop-opacity="0.35" offset="100%"></stop>
        </linearGradient>
        <path d="M7,8.5 L7,17 L0,12.75 L0,4.25 L7,8.5 Z" id="path-21"></path>
        <linearGradient x1="100%" y1="50%" x2="0%" y2="50%" id="linearGradient-22">
            <stop stop-color="#2B6DE5" stop-opacity="0.2" offset="0%"></stop>
            <stop stop-color="#2B6DE5" stop-opacity="0.3" offset="100%"></stop>
        </linearGradient>
        <path d="M7,0 L13.999,4.25 L7,8.5 L0,4.25 L7,0 Z" id="path-23"></path>
        <linearGradient x1="65.4320988%" y1="100%" x2="34.5679012%" y2="0%" id="linearGradient-24">
            <stop stop-color="#2B6DE5" stop-opacity="0.45" offset="0%"></stop>
            <stop stop-color="#2B6DE5" offset="100%"></stop>
        </linearGradient>
        <path d="M20,18 L10,24 L10,12 L20,6 L20,18 Z" id="path-25"></path>
        <linearGradient x1="60.5694279%" y1="100%" x2="39.4305721%" y2="0%" id="linearGradient-26">
            <stop stop-color="#2B6DE5" stop-opacity="0.45" offset="0%"></stop>
            <stop stop-color="#2B6DE5" stop-opacity="0.25" offset="100%"></stop>
        </linearGradient>
        <path d="M10,12 L10,24 L-2.04281037e-13,18 L-2.04281037e-13,6 L10,12 Z" id="path-27"></path>
        <filter x="-5.0%" y="-2.3%" width="110.0%" height="104.6%" filterUnits="objectBoundingBox" id="filter-28">
            <feOffset dx="-1" dy="0.5" in="SourceAlpha" result="shadowOffsetInner1"></feOffset>
            <feComposite in="shadowOffsetInner1" in2="SourceAlpha" operator="arithmetic" k2="-1" k3="1" result="shadowInnerInner1"></feComposite>
            <feColorMatrix values="0 0 0 0 1   0 0 0 0 1   0 0 0 0 1  0 0 0 0.25 0" type="matrix" in="shadowInnerInner1"></feColorMatrix>
        </filter>
        <linearGradient x1="100%" y1="68%" x2="0%" y2="32%" id="linearGradient-29">
            <stop stop-color="#2B6DE5" stop-opacity="0.45" offset="0%"></stop>
            <stop stop-color="#2B6DE5" stop-opacity="0.65" offset="100%"></stop>
        </linearGradient>
        <path d="M10,0 L20,6 L10,12 L0,6 L10,0 Z" id="path-30"></path>
        <linearGradient x1="64.2222222%" y1="0%" x2="35.7777778%" y2="100%" id="linearGradient-31">
            <stop stop-color="#2B6DE5" stop-opacity="0.25" offset="0%"></stop>
            <stop stop-color="#2B6DE5" stop-opacity="0.6" offset="100%"></stop>
        </linearGradient>
        <path d="M16,15 L8,20 L8,10 L16,5 L16,15 Z" id="path-32"></path>
        <linearGradient x1="35.7777778%" y1="0%" x2="64.1250971%" y2="99.6585446%" id="linearGradient-33">
            <stop stop-color="#2B6DE5" stop-opacity="0.15" offset="0%"></stop>
            <stop stop-color="#2B6DE5" stop-opacity="0.35" offset="100%"></stop>
        </linearGradient>
        <path d="M8,10 L8,20 L0,15 L0,5 L8,10 Z" id="path-34"></path>
        <linearGradient x1="100%" y1="50%" x2="0%" y2="50%" id="linearGradient-35">
            <stop stop-color="#2B6DE5" stop-opacity="0.2" offset="0%"></stop>
            <stop stop-color="#2B6DE5" stop-opacity="0.3" offset="100%"></stop>
        </linearGradient>
        <path d="M8,0 L16,5 L8,10 L0,5 L8,0 Z" id="path-36"></path>
        <linearGradient x1="0%" y1="24.0565067%" x2="100%" y2="75.9434933%" id="linearGradient-37">
            <stop stop-color="#2B6DE5" stop-opacity="0" offset="0%"></stop>
            <stop stop-color="#2B6DE5" stop-opacity="0.55" offset="100%"></stop>
        </linearGradient>
        <path d="M35,25 C54.3299662,25 70,40.8291245 70,60.3553391 C70,60.5512887 69.9929506,60.745272 69.9789933,60.9372889 C69.9930866,61.0986705 70,61.2604301 70,61.4228355 C70,69.154822 54.3299662,75.4228355 35,75.4228355 C15.6700338,75.4228355 0,69.154822 0,61.4228355 C0,61.2604301 0.00691335917,61.0986705 0.0206287825,60.9376013 C0.00704938256,60.745272 0,60.5512887 0,60.3553391 C0,40.8291245 15.6700338,25 35,25 Z" id="path-38"></path>
        <linearGradient x1="0%" y1="0%" x2="100%" y2="100%" id="linearGradient-39">
            <stop stop-color="#2B6DE5" stop-opacity="0" offset="0%"></stop>
            <stop stop-color="#2B6DE5" stop-opacity="0.45" offset="100%"></stop>
        </linearGradient>
        <circle id="path-40" cx="35" cy="16" r="16"></circle>
        <linearGradient x1="0%" y1="0%" x2="100%" y2="100%" id="linearGradient-41">
            <stop stop-color="#2B6DE5" stop-opacity="0" offset="0%"></stop>
            <stop stop-color="#2B6DE5" stop-opacity="0.0286486308" offset="0%"></stop>
            <stop stop-color="#2B6DE5" stop-opacity="0.55" offset="100%"></stop>
        </linearGradient>
        <path d="M0,18 C0,27.9411255 8.0588745,36 18,36 C27.9411255,36 36,27.9411255 36,18 C36,8.0588745 27.9411255,0 18,0 C8.0588745,0 0,8.0588745 0,18 Z" id="path-42"></path>
        <linearGradient x1="75.5101929%" y1="100%" x2="24.4898071%" y2="0%" id="linearGradient-43">
            <stop stop-color="#2B6DE5" stop-opacity="0.45" offset="0%"></stop>
            <stop stop-color="#2B6DE5" stop-opacity="0.9" offset="100%"></stop>
        </linearGradient>
        <path d="M18.5957413,11 C18.9253509,11 19.1950315,11.2734459 19.1950315,11.6076576 L19.195,18.012 L24.7008172,21.2353299 C24.9577225,21.3857252 25.0633681,21.7033273 24.9617855,21.9763424 L24.9201727,22.0654056 L23.4219567,24.6966455 C23.2571423,24.9860758 22.8887518,25.086164 22.603296,24.9190676 L15.3372938,20.6654552 C15.3226645,20.656891 15.3085256,20.6477847 15.2948876,20.6381752 C15.1191006,20.5322324 15,20.3369661 15,20.1148634 L15,11.6076576 C15,11.2734459 15.2696806,11 15.5992902,11 Z" id="path-44"></path>
    </defs>
    <g id="icon" stroke="none" stroke-width="1" fill="none" fill-rule="evenodd">
        <g id="请假无打卡记录" transform="translate(31.000000, 36.000000)">
            <g id="形状结合" transform="translate(0.000000, 64.000000)">
                <g>
                    <use fill="#FFFFFF" xlink:href="#path-2"></use>
                    <use fill="url(#linearGradient-1)" xlink:href="#path-2"></use>
                </g>
                <g>
                    <use fill="#FFFFFF" xlink:href="#path-4"></use>
                    <use fill="url(#linearGradient-3)" xlink:href="#path-4"></use>
                </g>
                <g>
                    <use fill="#FFFFFF" fill-rule="evenodd" xlink:href="#path-6"></use>
                    <use fill="url(#linearGradient-5)" fill-rule="evenodd" xlink:href="#path-6"></use>
                    <use fill="black" fill-opacity="1" filter="url(#filter-7)" xlink:href="#path-6"></use>
                </g>
                <g>
                    <use fill="#FFFFFF" xlink:href="#path-9"></use>
                    <use fill="url(#linearGradient-8)" xlink:href="#path-9"></use>
                </g>
            </g>
            <g id="形状结合" transform="translate(0.000000, 36.000000)" fill="url(#linearGradient-10)">
                <path d="M194,0 L194,84 L97,140 L97,0 L194,0 Z"></path>
                <path d="M97,0 L97,140 L0,84 L0,0 L97,0 Z"></path>
            </g>
            <g id="形状结合">
                <use fill="#FFFFFF" xlink:href="#path-12"></use>
                <use fill="url(#linearGradient-11)" xlink:href="#path-12"></use>
            </g>
            <polygon id="多边形" fill="url(#linearGradient-13)" points="97 6 162 44 162 120 97 158 32 120 32 44"></polygon>
            <g id="编组-3" transform="translate(53.000000, 0.000000)">
                <g id="路径-6">
                    <use fill="#FFFFFF" xlink:href="#path-15"></use>
                    <use fill="url(#linearGradient-14)" xlink:href="#path-15"></use>
                </g>
                <g id="路径-7">
                    <use fill="#FFFFFF" xlink:href="#path-17"></use>
                    <use fill="url(#linearGradient-16)" xlink:href="#path-17"></use>
                </g>
                <g id="编组-4" transform="translate(72.000000, 25.000000)">
                    <g id="形状结合">
                        <use fill="#FFFFFF" xlink:href="#path-19"></use>
                        <use fill="url(#linearGradient-18)" xlink:href="#path-19"></use>
                    </g>
                    <g id="形状结合">
                        <use fill="#FFFFFF" xlink:href="#path-21"></use>
                        <use fill="url(#linearGradient-20)" xlink:href="#path-21"></use>
                    </g>
                    <g id="形状结合备份">
                        <use fill="#FFFFFF" xlink:href="#path-23"></use>
                        <use fill="url(#linearGradient-22)" xlink:href="#path-23"></use>
                    </g>
                </g>
                <g id="编组-4" transform="translate(0.000000, 30.000000)">
                    <g id="形状结合">
                        <use fill="#FFFFFF" xlink:href="#path-25"></use>
                        <use fill="url(#linearGradient-24)" xlink:href="#path-25"></use>
                    </g>
                    <g id="形状结合">
                        <use fill="#FFFFFF" fill-rule="evenodd" xlink:href="#path-27"></use>
                        <use fill="url(#linearGradient-26)" fill-rule="evenodd" xlink:href="#path-27"></use>
                        <use fill="black" fill-opacity="1" filter="url(#filter-28)" xlink:href="#path-27"></use>
                    </g>
                    <g id="形状结合备份">
                        <use fill="#FFFFFF" xlink:href="#path-30"></use>
                        <use fill="url(#linearGradient-29)" xlink:href="#path-30"></use>
                    </g>
                </g>
                <g id="编组-4" transform="translate(41.000000, 0.000000)">
                    <g id="形状结合">
                        <use fill="#FFFFFF" xlink:href="#path-32"></use>
                        <use fill="url(#linearGradient-31)" xlink:href="#path-32"></use>
                    </g>
                    <g id="形状结合">
                        <use fill="#FFFFFF" xlink:href="#path-34"></use>
                        <use fill="url(#linearGradient-33)" xlink:href="#path-34"></use>
                    </g>
                    <g id="形状结合备份">
                        <use fill="#FFFFFF" xlink:href="#path-36"></use>
                        <use fill="url(#linearGradient-35)" xlink:href="#path-36"></use>
                    </g>
                </g>
            </g>
            <g id="编组-2" transform="translate(56.000000, 56.000000)">
                <g id="形状结合">
                    <use fill="#FFFFFF" xlink:href="#path-38"></use>
                    <use fill="url(#linearGradient-37)" xlink:href="#path-38"></use>
                </g>
                <g id="椭圆形">
                    <use fill="#FFFFFF" xlink:href="#path-40"></use>
                    <use fill="url(#linearGradient-39)" xlink:href="#path-40"></use>
                </g>
            </g>
            <g id="编组-7" transform="translate(101.000000, 93.000000)">
                <g id="路径">
                    <use fill="#FFFFFF" xlink:href="#path-42"></use>
                    <use fill="url(#linearGradient-41)" xlink:href="#path-42"></use>
                </g>
                <g id="形状结合">
                    <use fill="#FFFFFF" xlink:href="#path-44"></use>
                    <use fill="url(#linearGradient-43)" xlink:href="#path-44"></use>
                </g>
            </g>
        </g>
    </g>
</svg>