<?xml version="1.0" encoding="UTF-8"?>
<svg width="28px" height="28px" viewBox="0 0 28 28" version="1.1" xmlns="http://www.w3.org/2000/svg" xmlns:xlink="http://www.w3.org/1999/xlink">
    <defs>
        <linearGradient x1="8.951494%" y1="0%" x2="91.048506%" y2="100%" id="linearGradient-1">
            <stop stop-color="#2B6DE5" stop-opacity="0.9" offset="0%"></stop>
            <stop stop-color="#2B6DE5" offset="100%"></stop>
        </linearGradient>
        <linearGradient x1="0%" y1="0%" x2="50%" y2="50%" id="linearGradient-2">
            <stop stop-color="#FFFFFF" stop-opacity="0.15" offset="0%"></stop>
            <stop stop-color="#2B6DE5" stop-opacity="0.25" offset="100%"></stop>
        </linearGradient>
        <path d="M26,16 C26,21.5228475 21.5228475,26 16,26 C10.4771525,26 6,21.5228475 6,16 C6,10.4771525 10.4771525,6 16,6 C21.5228475,6 26,10.4771525 26,16 Z" id="path-3"></path>
        <filter x="-5.0%" y="-5.0%" width="110.0%" height="110.0%" filterUnits="objectBoundingBox" id="filter-4">
            <feGaussianBlur stdDeviation="0.5" in="SourceAlpha" result="shadowBlurInner1"></feGaussianBlur>
            <feOffset dx="1" dy="1" in="shadowBlurInner1" result="shadowOffsetInner1"></feOffset>
            <feComposite in="shadowOffsetInner1" in2="SourceAlpha" operator="arithmetic" k2="-1" k3="1" result="shadowInnerInner1"></feComposite>
            <feColorMatrix values="0 0 0 0 1   0 0 0 0 1   0 0 0 0 1  0 0 0 0.15 0" type="matrix" in="shadowInnerInner1"></feColorMatrix>
        </filter>
    </defs>
    <g stroke="none" stroke-width="1" fill="none" fill-rule="evenodd">
        <path d="M10.6547005,2.55940108 L15.3452995,5.26751963 C16.0598306,5.6800544 16.5,6.44245009 16.5,7.26751963 L16.5,12.6837567 C16.5,13.5088263 16.0598306,14.271222 15.3452995,14.6837567 L10.6547005,17.3918753 C9.94016936,17.80441 9.05983064,17.80441 8.34529946,17.3918753 L3.65470054,14.6837567 C2.94016936,14.271222 2.5,13.5088263 2.5,12.6837567 L2.5,7.26751963 C2.5,6.44245009 2.94016936,5.6800544 3.65470054,5.26751963 L8.34529946,2.55940108 C9.05983064,2.14686631 9.94016936,2.14686631 10.6547005,2.55940108 Z" id="多边形备份-2" fill="url(#linearGradient-1)"></path>
        <g>
            <use fill="url(#linearGradient-2)" fill-rule="evenodd" xlink:href="#path-3"></use>
            <use fill="black" fill-opacity="1" filter="url(#filter-4)" xlink:href="#path-3"></use>
        </g>
        <path d="M16,9.6268375 C17.2426407,9.6268375 18.25,10.6341968 18.25,11.8768375 C18.25,12.8564069 17.6240154,13.6897697 16.7502535,13.9987186 L16.7506625,15.71396 C18.1836786,16.0527821 19.25,17.3402834 19.25,18.8768375 C19.25,20.6717629 17.7949254,22.1268375 16,22.1268375 C14.2050746,22.1268375 12.75,20.6717629 12.75,18.8768375 C12.75,17.3399236 13.8168209,16.0521791 15.2503444,15.7137221 L15.2507654,13.9990786 C14.3764713,13.6904175 13.75,12.8567876 13.75,11.8768375 C13.75,10.6341968 14.7573593,9.6268375 16,9.6268375 Z M16,17.1268375 C15.0335017,17.1268375 14.25,17.9103392 14.25,18.8768375 C14.25,19.8433358 15.0335017,20.6268375 16,20.6268375 C16.9664983,20.6268375 17.75,19.8433358 17.75,18.8768375 C17.75,17.9103392 16.9664983,17.1268375 16,17.1268375 Z M16,11.1268375 C15.5857864,11.1268375 15.25,11.4626239 15.25,11.8768375 C15.25,12.2910511 15.5857864,12.6268375 16,12.6268375 C16.4142136,12.6268375 16.75,12.2910511 16.75,11.8768375 C16.75,11.4626239 16.4142136,11.1268375 16,11.1268375 Z" id="形状结合" fill="#FFFFFF" fill-rule="nonzero" transform="translate(16.000000, 15.876838) rotate(40.000000) translate(-16.000000, -15.876838) "></path>
    </g>
</svg>
