<?xml version="1.0" encoding="UTF-8"?>
<svg width="28px" height="28px" viewBox="0 0 28 28" version="1.1" xmlns="http://www.w3.org/2000/svg" xmlns:xlink="http://www.w3.org/1999/xlink">
    <defs>
        <linearGradient x1="0%" y1="0%" x2="100%" y2="100%" id="linearGradient-1">
            <stop stop-color="#2B6DE5" stop-opacity="0.9" offset="0%"></stop>
            <stop stop-color="#2B6DE5" offset="100%"></stop>
        </linearGradient>
        <linearGradient x1="0%" y1="0%" x2="50%" y2="50%" id="linearGradient-2">
            <stop stop-color="#FFFFFF" stop-opacity="0.15" offset="0%"></stop>
            <stop stop-color="#2B6DE5" stop-opacity="0.25" offset="100%"></stop>
        </linearGradient>
        <path d="M9,7 L23,7 C24.1045695,7 25,7.8954305 25,9 L25,23 C25,24.1045695 24.1045695,25 23,25 L9,25 C7.8954305,25 7,24.1045695 7,23 L7,9 C7,7.8954305 7.8954305,7 9,7 Z" id="path-3"></path>
        <filter x="-5.6%" y="-5.6%" width="111.1%" height="111.1%" filterUnits="objectBoundingBox" id="filter-4">
            <feGaussianBlur stdDeviation="0.5" in="SourceAlpha" result="shadowBlurInner1"></feGaussianBlur>
            <feOffset dx="1" dy="1" in="shadowBlurInner1" result="shadowOffsetInner1"></feOffset>
            <feComposite in="shadowOffsetInner1" in2="SourceAlpha" operator="arithmetic" k2="-1" k3="1" result="shadowInnerInner1"></feComposite>
            <feColorMatrix values="0 0 0 0 1   0 0 0 0 1   0 0 0 0 1  0 0 0 0.15 0" type="matrix" in="shadowInnerInner1"></feColorMatrix>
        </filter>
    </defs>
    <g stroke="none" stroke-width="1" fill="none" fill-rule="evenodd">
        <path d="M5,3 L15,3 C16.1045695,3 17,3.8954305 17,5 L17,15 C17,16.1045695 16.1045695,17 15,17 L5,17 C3.8954305,17 3,16.1045695 3,15 L3,5 C3,3.8954305 3.8954305,3 5,3 Z" id="矩形" fill="url(#linearGradient-1)"></path>
        <g>
            <use fill="url(#linearGradient-2)" fill-rule="evenodd" xlink:href="#path-3"></use>
            <use fill="black" fill-opacity="1" filter="url(#filter-4)" xlink:href="#path-3"></use>
        </g>
        <path d="M19,10.25 C20.5187831,10.25 21.75,11.4812169 21.75,13 C21.75,14.5187831 20.5187831,15.75 19,15.75 C18.512897,15.75 18.0553733,15.623356 17.6585594,15.4011985 L15.6035534,17.4571068 C15.416017,17.6446432 15.1616631,17.75 14.8964466,17.75 L11.75,17.75 C11.3357864,17.75 11,17.4142136 11,17 C11,16.5857687 11.3357687,16.249951 11.75,16.2498904 L14.689,16.2494612 L16.5988015,14.3414406 C16.376644,13.9446267 16.25,13.487103 16.25,13 C16.25,11.4812169 17.4812169,10.25 19,10.25 Z M19,11.75 C18.3096441,11.75 17.75,12.3096441 17.75,13 C17.75,13.6903559 18.3096441,14.25 19,14.25 C19.6903559,14.25 20.25,13.6903559 20.25,13 C20.25,12.3096441 19.6903559,11.75 19,11.75 Z M21,20 C21,20.4142136 20.6642136,20.75 20.25,20.75 L11.75,20.75 C11.3357864,20.75 11,20.4142136 11,20 C11,19.5857864 11.3357864,19.25 11.75,19.25 L20.25,19.25 C20.6642136,19.25 21,19.5857864 21,20 Z" id="形状" fill="#FFFFFF" fill-rule="nonzero"></path>
    </g>
</svg>
