<?xml version="1.0" standalone="no"?><!DOCTYPE svg PUBLIC "-//W3C//DTD SVG 1.1//EN" "http://www.w3.org/Graphics/SVG/1.1/DTD/svg11.dtd"><svg t="1658235914698" class="icon" viewBox="0 0 1024 1024" version="1.1" xmlns="http://www.w3.org/2000/svg" p-id="30607" xmlns:xlink="http://www.w3.org/1999/xlink" width="200" height="200"><defs><style type="text/css">@font-face { font-family: feedback-iconfont; src: url("//at.alicdn.com/t/font_1031158_u69w8yhxdu.woff2?t=1630033759944") format("woff2"), url("//at.alicdn.com/t/font_1031158_u69w8yhxdu.woff?t=1630033759944") format("woff"), url("//at.alicdn.com/t/font_1031158_u69w8yhxdu.ttf?t=1630033759944") format("truetype"); }
</style></defs><path d="M860.40576 446.91456v74.96192c0 46.05952-37.34016 83.39456-83.4048 83.39456H247.23968c-46.0544 0-83.39456-37.33504-83.39456-83.39456V446.9248C163.84 400.84992 201.18016 363.52 247.23968 363.52h529.7664c46.05952 0 83.39968 37.33504 83.39968 83.39456" fill="#DFE0E4" p-id="30608"></path><path d="M254.75584 508.33408a29.1328 29.1328 0 1 0 58.2656 0 29.1328 29.1328 0 0 0-58.2656 0M346.368 508.33408a29.12768 29.12768 0 1 0 58.26048 0 29.12256 29.12256 0 0 0-29.1328-29.12768 29.12256 29.12256 0 0 0-29.12256 29.1328M437.98016 508.33408a29.1328 29.1328 0 1 0 58.2656 0 29.1328 29.1328 0 0 0-58.2656 0" fill="#FFFFFF" p-id="30609"></path><path d="M860.40576 553.05728c0 59.42784-48.1792 107.60704-107.60704 107.60704s-107.60704-48.1792-107.60704-107.60704S693.37088 445.44 752.7936 445.44c59.43296 0 107.60704 48.1792 107.60704 107.61216" fill="#E52C3E" p-id="30610"></path><path d="M812.3136 564.82304h-119.03488a11.77088 11.77088 0 1 1 0-23.54688h119.04a11.776 11.776 0 1 1 0 23.552" fill="#FFFFFF" p-id="30611"></path></svg>