<?xml version="1.0" encoding="UTF-8"?>
<svg width="28px" height="28px" viewBox="0 0 28 28" version="1.1" xmlns="http://www.w3.org/2000/svg" xmlns:xlink="http://www.w3.org/1999/xlink">
    <defs>
        <linearGradient x1="0%" y1="21.875%" x2="100%" y2="78.125%" id="linearGradient-1">
            <stop stop-color="#2B6DE5" stop-opacity="0.9" offset="0%"></stop>
            <stop stop-color="#2B6DE5" offset="100%"></stop>
        </linearGradient>
        <linearGradient x1="0%" y1="18%" x2="50%" y2="50%" id="linearGradient-2">
            <stop stop-color="#FFFFFF" stop-opacity="0.15" offset="0%"></stop>
            <stop stop-color="#2B6DE5" stop-opacity="0.25" offset="100%"></stop>
        </linearGradient>
        <path d="M26,9.77777778 L26,22.2222222 C26,23.2040618 25.1859723,24 24.1818182,24 L7.81818182,24 C6.81402773,24 6,23.2040618 6,22.2222222 L6,9.77777778 C6,8.79593822 6.81402773,8 7.81818182,8 L24.1818182,8 C25.1859723,8 26,8.79593822 26,9.77777778 Z" id="path-3"></path>
        <filter x="-5.0%" y="-6.2%" width="110.0%" height="112.5%" filterUnits="objectBoundingBox" id="filter-4">
            <feGaussianBlur stdDeviation="0.5" in="SourceAlpha" result="shadowBlurInner1"></feGaussianBlur>
            <feOffset dx="1" dy="1" in="shadowBlurInner1" result="shadowOffsetInner1"></feOffset>
            <feComposite in="shadowOffsetInner1" in2="SourceAlpha" operator="arithmetic" k2="-1" k3="1" result="shadowInnerInner1"></feComposite>
            <feColorMatrix values="0 0 0 0 1   0 0 0 0 1   0 0 0 0 1  0 0 0 0.15 0" type="matrix" in="shadowInnerInner1"></feColorMatrix>
        </filter>
    </defs>
    <g stroke="none" stroke-width="1" fill="none" fill-rule="evenodd">
        <path d="M3.77777778,4 L16.2222222,4 C17.2040618,4 18,4.76751186 18,5.71428571 L18,14.2857143 C18,15.2324881 17.2040618,16 16.2222222,16 L3.77777778,16 C2.79593822,16 2,15.2324881 2,14.2857143 L2,5.71428571 C2,4.76751186 2.79593822,4 3.77777778,4 Z" id="矩形" fill="url(#linearGradient-1)"></path>
        <g>
            <use fill="url(#linearGradient-2)" fill-rule="evenodd" xlink:href="#path-3"></use>
            <use fill="black" fill-opacity="1" filter="url(#filter-4)" xlink:href="#path-3"></use>
        </g>
        <path d="M20,13 L21,13 C21.2761424,13 21.5,13.2238576 21.5,13.5 L21.5,14.5 C21.5,14.7761424 21.2761424,15 21,15 L20,15 C19.7238576,15 19.5,14.7761424 19.5,14.5 L19.5,13.5 C19.5,13.2238576 19.7238576,13 20,13 Z M15.5,13 L16.5,13 C16.7761424,13 17,13.2238576 17,13.5 L17,14.5 C17,14.7761424 16.7761424,15 16.5,15 L15.5,15 C15.2238576,15 15,14.7761424 15,14.5 L15,13.5 C15,13.2238576 15.2238576,13 15.5,13 Z M20,17.5 L21,17.5 C21.2761424,17.5 21.5,17.7238576 21.5,18 L21.5,19 C21.5,19.2761424 21.2761424,19.5 21,19.5 L20,19.5 C19.7238576,19.5 19.5,19.2761424 19.5,19 L19.5,18 C19.5,17.7238576 19.7238576,17.5 20,17.5 Z M15.5,17.5 L16.5,17.5 C16.7761424,17.5 17,17.7238576 17,18 L17,19 C17,19.2761424 16.7761424,19.5 16.5,19.5 L15.5,19.5 C15.2238576,19.5 15,19.2761424 15,19 L15,18 C15,17.7238576 15.2238576,17.5 15.5,17.5 Z M11,17.5 L12,17.5 C12.2761424,17.5 12.5,17.7238576 12.5,18 L12.5,19 C12.5,19.2761424 12.2761424,19.5 12,19.5 L11,19.5 C10.7238576,19.5 10.5,19.2761424 10.5,19 L10.5,18 C10.5,17.7238576 10.7238576,17.5 11,17.5 Z" id="形状" fill="#FFFFFF" fill-rule="nonzero"></path>
    </g>
</svg>
