<?xml version="1.0" standalone="no"?><!DOCTYPE svg PUBLIC "-//W3C//DTD SVG 1.1//EN" "http://www.w3.org/Graphics/SVG/1.1/DTD/svg11.dtd"><svg t="1658235675633" class="icon" viewBox="0 0 1024 1024" version="1.1" xmlns="http://www.w3.org/2000/svg" p-id="26955" xmlns:xlink="http://www.w3.org/1999/xlink" width="200" height="200"><defs><style type="text/css">@font-face { font-family: feedback-iconfont; src: url("//at.alicdn.com/t/font_1031158_u69w8yhxdu.woff2?t=1630033759944") format("woff2"), url("//at.alicdn.com/t/font_1031158_u69w8yhxdu.woff?t=1630033759944") format("woff"), url("//at.alicdn.com/t/font_1031158_u69w8yhxdu.ttf?t=1630033759944") format("truetype"); }
</style></defs><path d="M413.36832 399.6672C351.90784 399.6672 302.08 449.4848 302.08 510.94016c0 8.2176 0.9472 16.18944 2.63168 23.88992l32.384 293.376a18.62656 18.62656 0 0 0 18.51904 16.5888h115.49184a18.6368 18.6368 0 0 0 18.52416-16.5888l32.37888-293.376c1.68448-7.7056 2.6368-15.67744 2.6368-23.88992 0-61.46048-49.82272-111.2832-111.2832-111.2832" fill="#2B6DE5" p-id="26956"></path><path d="M711.98208 844.8h-30.2848a5.03808 5.03808 0 0 1-5.03808-5.0432v-209.8176c0-17.82272-13.0048-33.77664-30.74048-35.50208a34.19648 34.19648 0 0 0-37.5808 33.98656v36.3264a5.0432 5.0432 0 0 1-5.0432 5.0432h-30.2848a5.03808 5.03808 0 0 1-5.03808-5.0432v-33.6896c0-39.6544 29.8496-74.3424 69.4272-76.98432 43.38688-2.9184 79.616 31.5648 79.616 74.3424v211.33824c0 2.7904-2.2528 5.0432-5.03296 5.0432" fill="#E52C3E" p-id="26957"></path><path d="M530.37056 389.1712c57.984 0 104.99072-47.0016 104.99072-104.98048 0-57.984-47.0016-104.99072-104.99072-104.99072-57.97888 0-104.9856 47.0016-104.9856 104.99072 0 57.97888 47.00672 104.9856 104.9856 104.9856" fill="#2C6DE5" p-id="26958"></path></svg>