<?xml version="1.0" standalone="no"?><!DOCTYPE svg PUBLIC "-//W3C//DTD SVG 1.1//EN" "http://www.w3.org/Graphics/SVG/1.1/DTD/svg11.dtd"><svg t="1658235961623" class="icon" viewBox="0 0 1024 1024" version="1.1" xmlns="http://www.w3.org/2000/svg" p-id="31338" xmlns:xlink="http://www.w3.org/1999/xlink" width="200" height="200"><defs><style type="text/css">@font-face { font-family: feedback-iconfont; src: url("//at.alicdn.com/t/font_1031158_u69w8yhxdu.woff2?t=1630033759944") format("woff2"), url("//at.alicdn.com/t/font_1031158_u69w8yhxdu.woff?t=1630033759944") format("woff"), url("//at.alicdn.com/t/font_1031158_u69w8yhxdu.ttf?t=1630033759944") format("truetype"); }
</style></defs><path d="M378.88 742.4c0 45.24544-36.67456 81.92-81.92 81.92S215.04 787.64544 215.04 742.4h51.2a30.72 30.72 0 1 0 61.44 0z" fill="#3A0606" p-id="31339"></path><path d="M327.94112 420.6592l0.04096 1.95584c0.14336 7.7056 0.256 13.68064 0.32256 17.93536 2.75456 165.5808 26.86464 252.65664 72.33536 261.248-13.66016 1.0752-26.49088 1.64864-38.5024 1.73568l-2.75456 0.01024c-78.59712 0.0512-121.04704-21.504-127.33952-64.68096-7.3216-50.20672 9.85088-117.52448 51.52768-201.95328l25.41056-9.58976 18.95936-6.66624z" fill="#2B6DE5" p-id="31340"></path><path d="M327.94112 420.6592l0.04096 1.95584c0.14336 7.7056 0.256 13.68064 0.32256 17.93536 2.75456 165.5808 26.86464 252.65664 72.33536 261.248-13.66016 1.0752-26.49088 1.64864-38.5024 1.73568l-2.75456 0.01024c-78.59712 0.0512-121.04704-21.504-127.33952-64.68096-7.3216-50.20672 9.85088-117.52448 51.52768-201.95328l25.41056-9.58976 18.95936-6.66624z" fill="#02134D" fill-opacity=".3" p-id="31341"></path><path d="M675.84 773.12a30.72 30.72 0 0 0 30.72-30.72h51.2c0 45.24544-36.67456 81.92-81.92 81.92s-81.92-36.67456-81.92-81.92h51.2a30.72 30.72 0 0 0 30.72 30.72z" fill="#3A0606" p-id="31342"></path><path d="M593.92 527.36h163.84c39.58784 0 71.68 32.09216 71.68 71.68v143.36H522.24V599.04c0-39.58784 32.09216-71.68 71.68-71.68z" fill="#2B6DE5" p-id="31343"></path><path d="M593.92 527.36c-39.58784 0-71.68 32.09216-71.68 71.68v143.36h153.6V527.36H593.92z" fill="#02134D" fill-opacity=".3" p-id="31344"></path><path d="M189.55776 742.4A107.44832 107.44832 0 0 1 194.56 704.39424V701.44h0.9984C210.31424 659.6864 250.14272 629.76 296.96 629.76s86.64576 29.92128 101.4016 71.68H829.44v40.96H189.55776z" fill="#2B6DE5" p-id="31345"></path><path d="M522.24 471.04m38.4 0l230.4 0q38.4 0 38.4 38.4l0 0q0 38.4-38.4 38.4l-230.4 0q-38.4 0-38.4-38.4l0 0q0-38.4 38.4-38.4Z" fill="#3A0606" p-id="31346"></path><path d="M256 363.52m15.36 0l51.2 0q15.36 0 15.36 15.36l0 51.2q0 15.36-15.36 15.36l-51.2 0q-15.36 0-15.36-15.36l0-51.2q0-15.36 15.36-15.36Z" fill="#2B6DE5" p-id="31347"></path><path d="M286.72 389.12m12.8 0l56.32 0q12.8 0 12.8 12.8l0 0q0 12.8-12.8 12.8l-56.32 0q-12.8 0-12.8-12.8l0 0q0-12.8 12.8-12.8Z" fill="#3A0606" p-id="31348"></path><path d="M230.4 368.64m15.36 0l5.12 0q15.36 0 15.36 15.36l0 40.96q0 15.36-15.36 15.36l-5.12 0q-15.36 0-15.36-15.36l0-40.96q0-15.36 15.36-15.36Z" fill="#FFFFFF" p-id="31349"></path><path d="M235.52 363.52m15.36 0l5.12 0q15.36 0 15.36 15.36l0 51.2q0 15.36-15.36 15.36l-5.12 0q-15.36 0-15.36-15.36l0-51.2q0-15.36 15.36-15.36Z" fill="#3A0606" p-id="31350"></path><path d="M793.6 266.24h-15.81568v-45.6192H732.16V204.8h53.53472c4.36224 0 7.90528 3.54304 7.90528 7.9104V266.24zM573.89568 266.24H558.08V212.7104c0-4.36736 3.54304-7.9104 7.9104-7.9104H619.52v15.8208h-45.62432V266.24zM785.6896 440.32H732.16v-15.81568h45.62432V378.88H793.6v53.53472c0 4.36224-3.53792 7.90528-7.9104 7.90528M619.52 440.32h-53.5296A7.9104 7.9104 0 0 1 558.08 432.41472V378.88h15.81568v45.62432H619.52V440.32z" fill="#E52C3E" p-id="31351"></path><path d="M756.48 355.28704v-1.0752c-0.01536-36.94592-24.3712-68.15232-57.856-78.1312-1.21856-8.448-8.32512-14.94016-17.024-14.96064h-11.52c-8.69888 0.02048-15.80544 6.51776-17.02912 14.96064-33.47456 9.97888-57.84064 41.18528-57.85088 78.1312v1.0752a17.41312 17.41312 0 0 0-11.52 16.37888c0.02048 9.64096 7.73632 17.4336 17.28 17.45408h149.76c9.54368-0.02048 17.2544-7.81312 17.28-17.45408a17.41824 17.41824 0 0 0-11.52-16.37888" fill="#FFC005" p-id="31352"></path><path d="M669.98784 266.24c-3.17952 0-5.84704 2.85696-5.85216 6.25664v2.1248c0 2.8928-1.8688 5.4272-4.50048 6.0928-30.98624 7.85408-54.02112 37.66784-54.01088 73.13408v6.25664c0 1.64864-0.62464 3.26144-1.7152 4.42368-1.1008 1.1776-2.5856 1.03936-4.13696 1.04448-3.1744 0-5.84704 3.65056-5.85216 7.05024 0.00512 3.39968 2.67264 6.2464 5.85216 6.25664H675.84V266.24h-5.85216z" fill="#FFB103" p-id="31353"></path><path d="M595.2 371.6608a5.8624 5.8624 0 0 1 5.76-5.81632c1.52576 0 2.99008-0.6144 4.07552-1.69984 1.07008-1.08544 1.6896-2.5856 1.6896-4.11648v-5.82144c-0.01536-32.9728 22.66112-60.69248 53.16096-67.9936 2.59072-0.6144 4.43392-2.9696 4.43392-5.66272v-1.97632a5.8624 5.8624 0 0 1 5.76-5.81632H675.84V261.12h-5.76c-8.69376 0.02048-15.80544 6.51776-17.02912 14.96576-33.47456 9.97376-57.84064 41.18016-57.856 78.12096v1.08032A17.41824 17.41824 0 0 0 583.68 371.66592c0.02048 9.63584 7.73632 17.4336 17.28 17.45408H675.84v-11.63776h-74.88a5.8624 5.8624 0 0 1-5.76-5.81632" fill="#FFAD03" p-id="31354"></path><path d="M750.72 365.84448c-1.52576 0-2.99008-0.6144-4.0704-1.69984a5.88288 5.88288 0 0 1-1.6896-4.11648v-5.82144c0.01024-32.9728-22.66624-60.69248-53.16608-67.9936a5.82144 5.82144 0 0 1-4.43392-5.66272v-1.97632a5.8624 5.8624 0 0 0-5.76-5.81632H675.84V261.12h5.76c8.69888 0.02048 15.80544 6.51776 17.02912 14.96576 33.47456 9.97376 57.84064 41.18016 57.856 78.12096v1.08032A17.41824 17.41824 0 0 1 768 371.66592c-0.02048 9.63584-7.73632 17.4336-17.28 17.45408H675.84v-11.63776h74.88a5.8624 5.8624 0 0 0 5.76-5.81632 5.8624 5.8624 0 0 0-5.76-5.82144z" fill="#FFB604" p-id="31355"></path></svg>