<?xml version="1.0" standalone="no"?><!DOCTYPE svg PUBLIC "-//W3C//DTD SVG 1.1//EN" "http://www.w3.org/Graphics/SVG/1.1/DTD/svg11.dtd"><svg t="1662370568261" class="icon" viewBox="0 0 1024 1024" version="1.1" xmlns="http://www.w3.org/2000/svg" p-id="908" xmlns:xlink="http://www.w3.org/1999/xlink" width="200" height="200"><path d="M210.944 204.8h49.152c3.39456 0 6.144 2.78528 6.144 6.21568v601.96864c0 3.4304-2.74944 6.21568-6.144 6.21568h-49.152c-3.39456 0-6.144-2.78528-6.144-6.21568V211.01568c0-3.4304 2.74944-6.21568 6.144-6.21568z m552.96 0h49.152c3.39456 0 6.144 2.78528 6.144 6.21568v601.96864c0 3.4304-2.74944 6.21568-6.144 6.21568h-49.152c-3.39456 0-6.144-2.78528-6.144-6.21568V211.01568c0-3.4304 2.74944-6.21568 6.144-6.21568z m-286.7712 35.0976a6.09792 6.09792 0 0 1-4.8384-9.81504l33.1776-43.3664a6.0928 6.0928 0 0 1 9.6768 0l33.16736 43.3664a6.10816 6.10816 0 0 1-4.8384 9.81504H477.1328zM543.47776 783.36a6.09792 6.09792 0 0 1 4.8384 9.81504l-33.17248 43.3664a6.0928 6.0928 0 0 1-9.6768 0l-33.17248-43.3664A6.10816 6.10816 0 0 1 477.1328 783.36h66.34496z" fill="#FFC005" p-id="909"></path><path d="M686.6176 276.48c16.67072 0 30.1824 11.73504 30.1824 26.2144v418.6112c0 14.47936-13.5168 26.2144-30.1824 26.2144h-349.2352c-16.67072 0-30.1824-11.73504-30.1824-26.2144V302.6944c0-14.47936 13.5168-26.2144 30.1824-26.2144h349.2352zM527.36 670.72h-30.72v51.2h30.72v-51.2z m0-92.16h-30.72v51.2h30.72v-51.2z m0-92.16h-30.72v51.2h30.72V486.4z m0-92.16h-30.72v51.2h30.72V394.24z m0-92.16h-30.72v51.2h30.72V302.08z" fill="#2B6DE5" p-id="910"></path></svg>