<?xml version="1.0" encoding="UTF-8"?>
<svg width="200px" height="200px" viewBox="0 0 200 200" version="1.1" xmlns="http://www.w3.org/2000/svg" xmlns:xlink="http://www.w3.org/1999/xlink">
    <title>高空抛物</title>
    <defs>
        <linearGradient x1="50%" y1="28.4575022%" x2="100%" y2="28.4575022%" id="linearGradient-1">
            <stop stop-color="#FFC005" stop-opacity="0" offset="0%"></stop>
            <stop stop-color="#FFC005" stop-opacity="0.45" offset="100%"></stop>
        </linearGradient>
        <linearGradient x1="50%" y1="28.4575022%" x2="100%" y2="28.4575022%" id="linearGradient-2">
            <stop stop-color="#FFC005" stop-opacity="0" offset="0%"></stop>
            <stop stop-color="#FFC005" stop-opacity="0.45" offset="100%"></stop>
        </linearGradient>
    </defs>
    <g id="应用图标" stroke="none" stroke-width="1" fill="none" fill-rule="evenodd">
        <g id="编组-5" transform="translate(82.548990, 90.632991) rotate(-135.000000) translate(-82.548990, -90.632991) translate(19.175884, 19.734758)">
            <path d="M2.60210717,51.9489897 L16,25.3574402 L16,17.7964646 L41,17.7964646 L41,25.3574402 L54.3978928,51.9489897 C56.108461,55.3440502 57,59.0982052 57,62.9061246 L57,129.698904 C57,136.380202 51.627417,141.796465 45,141.796465 L12,141.796465 C5.372583,141.796465 0,136.380202 0,129.698904 L0,62.9061246 C0,59.0982052 0.891539037,55.3440502 2.60210717,51.9489897 Z" id="矩形" fill="#2B6DE5"></path>
            <rect id="矩形" fill="#FFC005" x="0" y="66.0391052" width="57" height="36"></rect>
            <path d="M16.7928932,0 L40.7928932,0 C42.4497475,0 43.7928932,1.34314575 43.7928932,3 L43.7928932,19.5 C43.7928932,20.3284271 43.1213203,21 42.2928932,21 L15.2928932,21 C14.4644661,21 13.7928932,20.3284271 13.7928932,19.5 L13.7928932,3 C13.7928932,1.34314575 15.136039,0 16.7928932,0 Z" id="矩形" fill="#FFC005"></path>
            <path d="M16.7928932,0 L40.7928932,0 C42.4497475,0 43.7928932,1.34314575 43.7928932,3 L43.7928932,19.5 C43.7928932,20.3284271 43.1213203,21 42.2928932,21 L15.2928932,21 C14.4644661,21 13.7928932,20.3284271 13.7928932,19.5 L13.7928932,3 C13.7928932,1.34314575 15.136039,0 16.7928932,0 Z" id="矩形" fill="url(#linearGradient-1)"></path>
            <rect id="矩形" fill="url(#linearGradient-2)" x="0" y="66.0391052" width="57" height="36"></rect>
            <path d="M68.3969696,39.6482323 L107.39697,39.6482323 C108.225397,39.6482323 108.89697,40.3517848 108.89697,41.2196608 L108.89697,49.0768037 C108.89697,49.9446797 108.225397,50.6482323 107.39697,50.6482323 L68.3969696,50.6482323 C67.5685425,50.6482323 66.8969696,49.9446797 66.8969696,49.0768037 L66.8969696,41.2196608 C66.8969696,40.3517848 67.5685425,39.6482323 68.3969696,39.6482323 Z" id="矩形" fill="#2B6DE5"></path>
            <path d="M67.6898628,96.9238816 L106.689863,96.9238816 C107.51829,96.9238816 108.189863,97.6274341 108.189863,98.4953101 L108.189863,106.352453 C108.189863,107.220329 107.51829,107.923882 106.689863,107.923882 L67.6898628,107.923882 C66.8614357,107.923882 66.1898628,107.220329 66.1898628,106.352453 L66.1898628,98.4953101 C66.1898628,97.6274341 66.8614357,96.9238816 67.6898628,96.9238816 Z" id="矩形备份-7" fill="#2B6DE5"></path>
            <path d="M80.246212,68.6396103 L125.246212,68.6396103 C126.074639,68.6396103 126.746212,69.3431628 126.746212,70.2110389 L126.746212,78.0681817 C126.746212,78.9360578 126.074639,79.6396103 125.246212,79.6396103 L80.246212,79.6396103 C79.4177849,79.6396103 78.746212,78.9360578 78.746212,78.0681817 L78.746212,70.2110389 C78.746212,69.3431628 79.4177849,68.6396103 80.246212,68.6396103 Z" id="矩形备份-6" fill="#2B6DE5"></path>
        </g>
    </g>
</svg>
