<?xml version="1.0" standalone="no"?><!DOCTYPE svg PUBLIC "-//W3C//DTD SVG 1.1//EN" "http://www.w3.org/Graphics/SVG/1.1/DTD/svg11.dtd"><svg t="1658233750195" class="icon" viewBox="0 0 1024 1024" version="1.1" xmlns="http://www.w3.org/2000/svg" p-id="24615" xmlns:xlink="http://www.w3.org/1999/xlink" width="200" height="200"><defs><style type="text/css">@font-face { font-family: feedback-iconfont; src: url("//at.alicdn.com/t/font_1031158_u69w8yhxdu.woff2?t=1630033759944") format("woff2"), url("//at.alicdn.com/t/font_1031158_u69w8yhxdu.woff?t=1630033759944") format("woff"), url("//at.alicdn.com/t/font_1031158_u69w8yhxdu.ttf?t=1630033759944") format("truetype"); }
</style></defs><path d="M702.336 499.52256h-24.18688V430.8992H339.80416v68.62336l-26.25024 1.1008c-2.8672 0-5.1968 2.32448-5.1968 5.1968v93.71136c0 2.87232 2.33472 5.20192 5.1968 5.20192l26.25024-1.1008v157.47584H292.9664a5.20704 5.20704 0 0 0-5.23264 5.1968v36.4544c0 2.85696 2.33472 5.19168 5.23264 5.19168h432.0256c2.89792 0 5.22752-2.33472 5.22752-5.1968v-36.44928a5.18656 5.18656 0 0 0-5.22752-5.1968h-46.84288v-157.47584h24.18688c2.8672 0 5.20192-2.3296 5.20192-5.1968V504.7296a5.20192 5.20192 0 0 0-5.20192-5.20192M702.8736 365.39904h-29.78304a169.64608 169.64608 0 0 0-117.4016-120.76544v-14.6944a4.70016 4.70016 0 0 0-1.36704-3.29728 4.6848 4.6848 0 0 0-3.29728-1.36192H466.93888a4.67456 4.67456 0 0 0-4.66432 4.6592v14.6944a169.68192 169.68192 0 0 0-117.4016 120.76544H315.0848a4.6592 4.6592 0 0 0-4.6592 4.6592v32.7168a4.6592 4.6592 0 0 0 4.6592 4.66944h387.78368a4.67968 4.67968 0 0 0 4.6592-4.66432v-32.68096a4.66944 4.66944 0 0 0-4.6592-4.66432v-0.03584z" fill="#2B6DE5" p-id="24616"></path><path d="M466.93376 225.28a4.66944 4.66944 0 0 0-4.6592 4.66432v14.68928a169.6768 169.6768 0 0 0-117.40672 120.76544h-29.77792a4.64896 4.64896 0 0 0-3.29728 1.36704 4.63872 4.63872 0 0 0-1.36704 3.29728v32.7168a4.66944 4.66944 0 0 0 4.66432 4.66432h193.8944V225.28h-42.05056z m-127.1296 205.6192v68.62336l-26.25024 1.1008c-2.8672 0-5.19168 2.32448-5.19168 5.20192v93.70624c0 2.87232 2.3296 5.20192 5.19168 5.20192l26.25024-1.1008v157.47584H292.9664a5.23776 5.23776 0 0 0-3.69664 1.5104c-0.97792 0.97792-1.536 2.304-1.536 3.69152v36.44416c0 2.8672 2.33472 5.19168 5.23264 5.19168h216.01792V430.8992H339.80416z" fill="#02134D" fill-opacity=".15" p-id="24617"></path><path d="M508.9792 593.57184a42.97216 42.97216 0 1 1 0-85.88288 42.97728 42.97728 0 0 1 0 85.88288m0-121.0368c-43.12576 0-78.09024 34.9696-78.09024 78.09024 0 43.12576 34.96448 78.09024 78.09024 78.09024 43.12576 0 78.09024-34.96448 78.09024-78.09024 0-43.12576-34.96448-78.09024-78.09024-78.09024" fill="#FFFFFF" p-id="24618"></path><path d="M815.07328 447.21152h-0.2048c-3.81952-0.13824-7.68512-0.24064-11.6224-0.30208a5.888 5.888 0 0 1-5.8112-5.96992c0.04608-3.25632 3.01568-5.9392 5.97504-5.80608 4.02432 0.0512 7.98208 0.15872 11.87328 0.29184a5.90336 5.90336 0 0 1-0.20992 11.78624z m-52.8384 0.34304a5.90336 5.90336 0 0 1-5.89312-5.632 5.9136 5.9136 0 0 1 5.64224-6.144c3.97824-0.1792 7.91552-0.31744 11.81184-0.43008 3.2 0.13824 5.97504 2.46272 6.0672 5.71904a5.89312 5.89312 0 0 1-5.71904 6.06208c-3.82976 0.11776-7.72096 0.256-11.65824 0.42496h-0.256z m-41.02144 2.74432a5.89824 5.89824 0 0 1-0.512-11.76064 1149.7984 1149.7984 0 0 1 11.776-0.9728c3.00544-0.50176 6.07744 2.16576 6.3232 5.4272a5.888 5.888 0 0 1-5.4272 6.31296c-3.84 0.3072-7.72096 0.61952-11.63264 0.9728-0.17408 0.00512-0.3584 0.02048-0.52736 0.02048z m134.84032 0.2048a4.56192 4.56192 0 0 1-0.7936-0.0512 373.67808 373.67808 0 0 0-11.47904-1.34144 5.87776 5.87776 0 0 1-5.2736-6.44608c0.31744-3.24096 3.41504-5.7088 6.4512-5.26848 4.06016 0.39936 8.01792 0.8704 11.86304 1.3824a5.888 5.888 0 1 1-0.768 11.7248z m40.11008 8.60672a5.888 5.888 0 0 1-1.80736-0.28672 192.22528 192.22528 0 0 0-10.92608-3.13344 5.8624 5.8624 0 0 1-4.25984-7.15264 5.8368 5.8368 0 0 1 7.15776-4.25984c4.08576 1.024 7.9616 2.14016 11.64288 3.33824a5.888 5.888 0 0 1-1.80736 11.4944z m35.18976 20.2752c-1.62304 0-3.23584-0.6656-4.39296-1.9712a46.12096 46.12096 0 0 0-7.79264-6.84544 5.888 5.888 0 0 1-1.40288-8.21248 5.92384 5.92384 0 0 1 8.21248-1.40288 57.71264 57.71264 0 0 1 9.76896 8.61696 5.888 5.888 0 0 1-4.39296 9.81504z m5.632 38.272a5.888 5.888 0 0 1-5.4784-8.05376 41.09824 41.09824 0 0 0 2.62144-9.82528 5.91872 5.91872 0 0 1 6.5792-5.10976c3.22048 0.39936 5.50912 3.34848 5.10976 6.5792a52.44416 52.44416 0 0 1-3.34848 12.67712 5.888 5.888 0 0 1-5.4784 3.7376z m-23.69536 33.18272a5.89312 5.89312 0 0 1-4.18304-10.04544 156.21632 156.21632 0 0 0 7.69024-8.28416 5.888 5.888 0 1 1 8.94976 7.66464 168.8576 168.8576 0 0 1-8.28416 8.92928 5.88288 5.88288 0 0 1-4.1728 1.7408zM255.04768 573.44c-2.2528 0-4.38784-1.29024-5.36576-3.46112a5.87776 5.87776 0 0 1 2.93376-7.79264l10.77248-4.8128a5.90336 5.90336 0 0 1 7.76704 3.00032c1.32096 2.9696-0.0256 6.4512-3.00544 7.76192l-10.6752 4.77696c-0.78336 0.3584-1.6128 0.52736-2.42688 0.52736z m626.82624 3.8656a5.89312 5.89312 0 0 1-3.46624-10.65472 294.07232 294.07232 0 0 0 9.18528-6.95808 5.88288 5.88288 0 0 1 8.2688 0.97792 5.88288 5.88288 0 0 1-0.9728 8.2688c-3.05152 2.4064-6.22592 4.82816-9.5488 7.23968-1.0496 0.768-2.25792 1.1264-3.46624 1.1264z m-663.89504 13.8752a5.89824 5.89824 0 0 1-2.6624-11.15648c3.4816-1.76128 7.02464-3.52256 10.5984-5.26848a5.90848 5.90848 0 0 1 7.8848 2.72384 5.90848 5.90848 0 0 1-2.72384 7.8848c-3.5328 1.69984-7.0144 3.44064-10.4448 5.17632a5.92896 5.92896 0 0 1-2.65216 0.63488z m629.63712 8.82176a5.89824 5.89824 0 0 1-3.0464-10.93632c3.3792-2.04288 6.67136-4.08576 9.8816-6.1184a5.86752 5.86752 0 0 1 8.12544 1.8176 5.88288 5.88288 0 0 1-1.8176 8.12544c-3.28192 2.07872-6.64064 4.16768-10.09152 6.26176a5.888 5.888 0 0 1-3.05152 0.84992z m-665.83552 10.66496a5.89824 5.89824 0 0 1-2.94912-11.00288 820.8896 820.8896 0 0 1 10.32192-5.81632A5.888 5.888 0 1 1 194.86208 604.16c-3.45088 1.90976-6.8352 3.81952-10.1376 5.7344-0.93184 0.52736-1.9456 0.77824-2.944 0.77824z m630.00064 9.49248c-2.11456 0-4.16256-1.14688-5.20704-3.15392a5.88288 5.88288 0 0 1 2.46784-7.95136c3.49184-1.82784 6.90688-3.66592 10.28096-5.49888a5.888 5.888 0 0 1 5.63712 10.33728c-3.41504 1.87392-6.912 3.7376-10.43456 5.58592-0.87552 0.4608-1.80736 0.68096-2.74432 0.68096z m-664.86784 12.27776c-1.87392 0-3.71712-0.896-4.86912-2.56a5.90848 5.90848 0 0 1 1.54624-8.192 423.12704 423.12704 0 0 1 9.92768-6.57408 5.84704 5.84704 0 0 1 8.13568 1.76128 5.87264 5.87264 0 0 1-1.76128 8.1408c-3.31264 2.13504-6.53312 4.26496-9.65632 6.40512a5.89824 5.89824 0 0 1-3.328 1.024z m628.04992 5.99552a5.888 5.888 0 0 1-2.5088-11.21792c3.55328-1.67936 7.0656-3.34848 10.53696-5.02784a5.888 5.888 0 1 1 5.13536 10.60864c-3.49696 1.69984-7.05536 3.39456-10.65984 5.07392-0.8192 0.384-1.664 0.5632-2.5088 0.5632z m-37.57056 16.75264a5.89312 5.89312 0 0 1-2.31424-11.31008l10.752-4.62336c2.97984-1.28 6.4512 0.06656 7.75168 3.03616a5.888 5.888 0 0 1-3.04128 7.7568l-10.83904 4.66944c-0.7424 0.32256-1.536 0.47104-2.30912 0.47104z m-623.0528 2.26816a5.88288 5.88288 0 0 1-3.90656-10.30656 273.73568 273.73568 0 0 1 9.18528-7.74656 5.888 5.888 0 1 1 7.38816 9.18016c-3.072 2.47296-5.99552 4.95104-8.77056 7.3984-1.1264 0.99328-2.5088 1.47456-3.89632 1.47456z m584.96 13.14304c-2.3552 0-4.58752-1.4336-5.49888-3.77344a5.9136 5.9136 0 0 1 3.38944-7.62368c3.64544-1.39776 7.2704-2.816 10.87488-4.2496a5.92896 5.92896 0 0 1 7.64928 3.29728 5.90848 5.90848 0 0 1-3.30752 7.6544c-3.61984 1.43872-7.296 2.87232-10.9824 4.30592-0.6912 0.256-1.41824 0.38912-2.11968 0.38912z m-38.56896 14.26944a5.888 5.888 0 0 1-1.95072-11.44832l11.008-3.93728a5.86752 5.86752 0 0 1 7.54176 3.5328 5.87776 5.87776 0 0 1-3.53792 7.53664l-11.1104 3.98336a5.90336 5.90336 0 0 1-1.95072 0.3328z m-573.7216 3.10272a5.89312 5.89312 0 0 1-4.97152-9.05216c2.0992-3.30752 4.52096-6.66624 7.26016-10.04544a5.87264 5.87264 0 0 1 8.28416-0.8704 5.888 5.888 0 0 1 0.8704 8.27904 96.9216 96.9216 0 0 0-6.47168 8.96c-1.1264 1.7664-3.02592 2.72896-4.97152 2.72896z m534.784 10.09152a5.888 5.888 0 0 1-1.80736-11.4944 1229.9776 1229.9776 0 0 0 11.10528-3.64544 5.89824 5.89824 0 0 1 3.72736 11.1872c-3.71712 1.2288-7.44448 2.4576-11.21792 3.66592a5.69856 5.69856 0 0 1-1.80736 0.28672z m-39.27552 12.1856a5.888 5.888 0 0 1-1.664-11.54048l11.19232-3.36896a5.888 5.888 0 0 1 7.36768 3.91168 5.90336 5.90336 0 0 1-3.9168 7.36256l-11.3152 3.39456a6.03648 6.03648 0 0 1-1.664 0.24064z m-39.53664 11.20256a5.888 5.888 0 0 1-1.54112-11.58144l11.264-3.0976a5.85216 5.85216 0 0 1 7.26528 4.08576 5.89312 5.89312 0 0 1-4.08576 7.2704l-11.3664 3.11296a5.9392 5.9392 0 0 1-1.536 0.20992z m-463.42656 5.36576c-2.4064 0-4.6592-1.46944-5.53472-3.8656a40.00256 40.00256 0 0 1-1.0496-3.2768 38.784 38.784 0 0 1-1.29024-9.96352c0-3.25632 2.6368-6.03136 5.888-6.03136 3.26144 0 5.89824 2.4832 5.89824 5.74464 0 2.66752 0.29696 4.992 0.88576 7.18848a27.136 27.136 0 0 0 0.73728 2.28864 5.90336 5.90336 0 0 1-5.53472 7.91552z m423.62368 4.87424c-2.6624 0-5.0688-1.792-5.71904-4.49024a5.87776 5.87776 0 0 1 4.31616-7.1168l11.35616-2.83648a5.89824 5.89824 0 1 1 2.87744 11.43808l-11.42784 2.82624a5.76 5.76 0 0 1-1.40288 0.1792z m-40.07936 9.27232a5.88288 5.88288 0 0 1-1.23904-11.64288l11.42784-2.5344a5.82144 5.82144 0 0 1 7.04 4.4544 5.86752 5.86752 0 0 1-4.4544 7.02976l-11.50464 2.56a6.06208 6.06208 0 0 1-1.26976 0.13312z m-40.24832 8.2432a5.87776 5.87776 0 0 1-5.77536-4.80256 5.87264 5.87264 0 0 1 4.69504-6.88128c3.80928-0.7168 7.6288-1.46432 11.4688-2.23232a5.9648 5.9648 0 0 1 6.92736 4.62336 5.87264 5.87264 0 0 1-4.62336 6.92736c-3.8656 0.77312-7.7312 1.536-11.58656 2.25792-0.36864 0.07168-0.73728 0.1024-1.10592 0.1024z m-313.6512 4.4288c-0.79872 0-1.61792-0.16896-2.39616-0.52224a92.4672 92.4672 0 0 1-11.0848-5.8112 5.87776 5.87776 0 1 1 6.19008-10.0096c2.93888 1.80736 6.1696 3.48672 9.7024 5.07392 2.9696 1.32096 4.3008 4.8128 2.9696 7.7824a5.87776 5.87776 0 0 1-5.376 3.48672z m273.16736 2.69824a5.888 5.888 0 0 1-0.93184-11.6992l11.55584-1.92a5.91872 5.91872 0 0 1 6.78912 4.82816 5.89824 5.89824 0 0 1-4.83328 6.78912l-11.6224 1.92a5.03808 5.03808 0 0 1-0.95744 0.08192z m-40.6784 5.9136a5.888 5.888 0 0 1-0.73216-11.73504l11.58656-1.536c3.0976-0.39936 6.19008 1.792 6.64064 5.02272a5.888 5.888 0 0 1-5.02784 6.64064l-11.70432 1.5616a5.4016 5.4016 0 0 1-0.768 0.0512z m-193.0752 2.69824c-0.34304 0-0.69632-0.03584-1.04448-0.09728a256.896 256.896 0 0 1-11.78112-2.39104 5.87776 5.87776 0 0 1-4.44416-7.04512c0.72704-3.1744 3.84-5.2224 7.04512-4.43904 3.61984 0.8192 7.36256 1.57696 11.25376 2.2784a5.888 5.888 0 1 1-1.024 11.69408z m152.22784 1.84832a5.89824 5.89824 0 0 1-0.52736-11.76064l11.63264-1.1264a5.88288 5.88288 0 1 1 1.19808 11.71456l-11.7504 1.152a9.97376 9.97376 0 0 1-0.55296 0.02048z m-111.42144 2.83648c-0.11264 0-0.24064 0-0.36864-0.01536-4.04992-0.25088-7.99744-0.5632-11.86304-0.896a5.90336 5.90336 0 0 1-5.3504-6.38976c0.27648-3.2256 3.06176-5.5296 6.38464-5.3504 3.77856 0.3328 7.6288 0.62464 11.56608 0.87552a5.89312 5.89312 0 0 1-0.36864 11.776z m70.43584 0.1024a5.888 5.888 0 0 1-0.27648-11.776c3.81952-0.18432 7.71072-0.40448 11.64288-0.64512 3.16416-0.3328 6.03136 2.28352 6.24128 5.5296a5.89824 5.89824 0 0 1-5.5296 6.23104c-3.97824 0.24064-7.9104 0.4608-11.8016 0.64512-0.09216 0.01024-0.18432 0.01024-0.27648 0.01024z m-35.94752 0.90624l-5.18144-0.0256a5.89824 5.89824 0 0 1 0.03584-11.776h0.03584l5.10976 0.01536 6.53312-0.03072h0.06144a5.89312 5.89312 0 0 1 0.0512 11.78112l-6.64576 0.03584z" fill="#E52C3E" p-id="24619"></path></svg>