<?xml version="1.0" standalone="no"?><!DOCTYPE svg PUBLIC "-//W3C//DTD SVG 1.1//EN" "http://www.w3.org/Graphics/SVG/1.1/DTD/svg11.dtd"><svg t="1658234208836" class="icon" viewBox="0 0 1024 1024" version="1.1" xmlns="http://www.w3.org/2000/svg" p-id="25053" xmlns:xlink="http://www.w3.org/1999/xlink" width="200" height="200"><defs><style type="text/css">@font-face { font-family: feedback-iconfont; src: url("//at.alicdn.com/t/font_1031158_u69w8yhxdu.woff2?t=1630033759944") format("woff2"), url("//at.alicdn.com/t/font_1031158_u69w8yhxdu.woff?t=1630033759944") format("woff"), url("//at.alicdn.com/t/font_1031158_u69w8yhxdu.ttf?t=1630033759944") format("truetype"); }
</style></defs><path d="M704.03584 245.76h-378.0608a18.90304 18.90304 0 0 0-18.90304 18.89792v491.47904a18.90304 18.90304 0 0 0 18.90304 18.90304h378.0608a18.90304 18.90304 0 0 0 18.89792-18.90304V264.65792a18.90304 18.90304 0 0 0-18.8928-18.90304" fill="#2B6DE5" p-id="25054"></path><path d="M325.57568 245.76a18.90304 18.90304 0 0 0-18.49856 18.90304v491.47392c0 10.30144 8.2432 18.688 18.49344 18.90304h378.86976a18.91328 18.91328 0 0 0 18.49856-18.90304V264.66304A18.90816 18.90816 0 0 0 704.44032 245.76H325.57568z" fill="#02134D" fill-opacity=".15" p-id="25055"></path><path d="M391.9872 453.69344h246.03648a9.4464 9.4464 0 0 0 9.4464-9.45664V330.82368c0-5.2224-4.22912-9.45664-9.4464-9.45664H391.9872c-5.2224 0-9.45152 4.23424-9.45152 9.45664v113.408c0 5.23264 4.22912 9.46176 9.45152 9.46176" fill="#FFFFFF" p-id="25056"></path><path d="M512.34304 705.51552a36.608 36.608 0 0 1-17.5872-1.3568l-3.61472-1.18784c-0.44544-0.1536-11.02336-3.69152-21.632-11.98592-14.50496-11.34592-22.18496-26.14272-22.18496-42.78272 0-8.6784 2.58048-17.7664 7.8848-27.79648 4.5056-8.5248 10.32192-16.68096 16.4864-25.31328 12.76416-17.89952 25.96864-36.39296 25.96864-57.53856v-9.38496s18.86208 11.776 27.83232 21.95456c13.45024 15.24736 12.23168 29.6448 13.184 36.3264l7.33184-13.73696s17.24928 16.03584 23.52128 27.1616c3.6608 6.5024 6.5536 13.4144 8.62208 20.60288 2.6112 9.1392 3.92704 18.60096 3.90656 28.1088 0 18.0736-9.13408 33.18272-26.4192 43.70432-12.4928 7.60832-24.8832 10.112-25.40544 10.22464l-17.8944 3.00032z m-14.16192-12.4672a14.55616 14.55616 0 0 0 20.224 3.0208l6.72256-4.89472c0.512-0.512 4.63872-5.13024 4.63872-18.50368 0-4.97152-2.7904-7.37792-8.6016-11.9296-5.48864-4.3008-12.544-9.82016-15.616-20.05504-1.3824 1.13152-2.85184 2.41664-4.31104 3.82464-5.07392 4.89984-11.12576 12.37504-11.12576 20.16256 0 16.7936 7.76192 27.93984 8.06912 28.37504z" fill="#FFFFFF" p-id="25057"></path><path d="M779.56096 377.66144a5.91872 5.91872 0 0 1-0.18432-11.84256c4.07552-0.128 8.07936-0.21504 12.032-0.25088h0.06144c3.2512 0 5.888 2.6112 5.92384 5.85728a5.93408 5.93408 0 0 1-5.86752 5.98016c-3.88096 0.03584-7.80288 0.128-11.776 0.256h-0.18432z m53.59616 0.52224c-0.1024 0-0.22016 0-0.33792-0.01024-3.85024-0.22016-7.76704-0.38912-11.776-0.52736a5.9392 5.9392 0 0 1-5.72416-6.12352c0.128-3.26144 2.79552-5.36576 6.13376-5.71392 4.08576 0.13824 8.09984 0.32256 12.032 0.54272a5.91872 5.91872 0 1 1-0.3328 11.83232z m41.4464 4.43904c-0.3328 0-0.6656-0.0256-0.99328-0.08192a336.36352 336.36352 0 0 0-11.58656-1.72544 5.9392 5.9392 0 0 1-5.0944-6.65088 5.9392 5.9392 0 0 1 6.64576-5.0944c4.11648 0.54272 8.1152 1.14176 11.9808 1.792a5.9136 5.9136 0 0 1-0.95232 11.76064z m40.11008 10.94656c-0.78336 0-1.55648-0.14848-2.304-0.4608a124.44672 124.44672 0 0 0-10.68032-3.93216 5.92896 5.92896 0 0 1-3.83488-7.44448c1.00864-3.1232 4.32128-4.80256 7.44448-3.84 4.15232 1.3312 8.0384 2.77504 11.6736 4.3008a5.92384 5.92384 0 0 1-2.304 11.37664z m31.08864 26.16832c-2.28864 0-4.45952-1.3312-5.43232-3.56352a31.11936 31.11936 0 0 0-5.43232-8.31488 5.90336 5.90336 0 0 1 0.45056-8.35584 5.89824 5.89824 0 0 1 8.35072 0.45056 42.5216 42.5216 0 0 1 7.49056 11.50464 5.9392 5.9392 0 0 1-5.4272 8.27904z m-6.0928 39.42912a5.92384 5.92384 0 0 1-5.03808-9.03168c2.03264-3.2768 3.6864-6.53312 4.92544-9.6256a5.95968 5.95968 0 0 1 7.69024-3.32288c3.04128 1.21344 4.51584 4.6592 3.31264 7.69024a74.33216 74.33216 0 0 1-5.84704 11.47904 5.91872 5.91872 0 0 1-5.04832 2.816z m-27.45344 31.19616a5.91872 5.91872 0 0 1-3.9424-10.33728 194.9184 194.9184 0 0 0 8.44288-7.94624 5.92896 5.92896 0 0 1 8.37632 0 5.92896 5.92896 0 0 1 0 8.37632 225.35168 225.35168 0 0 1-8.92928 8.40704 5.9392 5.9392 0 0 1-3.9424 1.50016z m-669.11744 21.9648c-2.20672 0-4.34176-1.2544-5.34016-3.3792a5.90336 5.90336 0 0 1 2.79552-7.8848 990.6688 990.6688 0 0 1 10.8544-5.0944 5.91872 5.91872 0 0 1 4.94592 10.75712c-3.61472 1.664-7.18848 3.33824-10.71616 5.0176-0.8192 0.39424-1.6896 0.57856-2.5344 0.57856z m636.16 3.49696a5.91872 5.91872 0 0 1-3.3536-10.79808 412.06784 412.06784 0 0 0 9.61024-6.77376 5.91872 5.91872 0 1 1 6.9632 9.5744c-3.17952 2.30912-6.46144 4.62336-9.856 6.9632-1.03424 0.70144-2.2016 1.03424-3.36384 1.03424z m-673.39776 15.22688a5.91872 5.91872 0 0 1-2.80064-11.136c3.50208-1.8688 7.05024-3.73248 10.6496-5.59616a5.98016 5.98016 0 0 1 7.9872 2.57024 5.9392 5.9392 0 0 1-2.56512 7.97696c-3.56864 1.81248-7.05024 3.65568-10.4704 5.4784a5.74976 5.74976 0 0 1-2.79552 0.70656z m638.04416 6.88128c-2.03776 0-4.03456-1.05984-5.12-2.95936a5.90336 5.90336 0 0 1 2.16064-8.08448c3.47136-2.00704 6.86592-3.9936 10.17344-5.9904a5.94944 5.94944 0 0 1 8.13056 2.01216 5.9392 5.9392 0 0 1-2.0224 8.13056c-3.3792 2.02752-6.82496 4.06016-10.36288 6.0928a5.80608 5.80608 0 0 1-2.95936 0.79872z m-674.19136 13.88032a5.91872 5.91872 0 0 1-3.12832-10.95168c3.3536-2.08384 6.78912-4.16256 10.30656-6.2464a5.92896 5.92896 0 0 1 6.03648 10.19392c-3.44576 2.03776-6.81472 4.0704-10.09664 6.10816-0.9728 0.60416-2.048 0.896-3.1232 0.896z m637.47584 5.90336a5.90848 5.90848 0 0 1-2.68288-11.19232c3.57376-1.82784 7.07584-3.63008 10.53696-5.4272a5.94944 5.94944 0 0 1 7.9872 2.5088 5.92384 5.92384 0 0 1-2.5088 7.9872c-3.4816 1.82272-7.02976 3.65056-10.6496 5.4784a5.8624 5.8624 0 0 1-2.68288 0.64512z m-671.94368 17.54112a5.90848 5.90848 0 0 1-3.56864-10.63424 396.3392 396.3392 0 0 1 9.74336-7.14752 5.91872 5.91872 0 1 1 6.87104 9.64096c-3.2768 2.32448-6.4256 4.63872-9.472 6.9376a5.888 5.888 0 0 1-3.56864 1.2032z m634.3168 0.43008a5.92384 5.92384 0 0 1-2.432-11.3152c3.6352-1.6384 7.2192-3.29216 10.76224-4.9408a5.92896 5.92896 0 0 1 5.01248 10.73152c-3.584 1.67424-7.21408 3.33824-10.9056 5.00224a5.7856 5.7856 0 0 1-2.432 0.52224z m-38.27712 16.50688a5.90848 5.90848 0 0 1-2.2528-11.38688l10.9568-4.56704a5.9392 5.9392 0 0 1 7.74144 3.1744 5.90848 5.90848 0 0 1-3.16416 7.74144l-11.02848 4.58752a5.69856 5.69856 0 0 1-2.2528 0.45056z m-627.1744 10.71104c-1.4336 0-2.87744-0.512-4.00896-1.5616a5.9392 5.9392 0 0 1-0.3584-8.3712 189.25568 189.25568 0 0 1 8.64256-8.75008 5.92384 5.92384 0 0 1 8.17152 8.58112 175.2064 175.2064 0 0 0-8.0896 8.192c-1.16736 1.25952-2.7648 1.90976-4.36224 1.90976z m588.33408 4.51072a5.92384 5.92384 0 0 1-2.06848-11.4688l11.09504-4.1984a5.92384 5.92384 0 0 1 4.23424 11.0592l-11.19232 4.23936c-0.68096 0.256-1.3824 0.36864-2.06848 0.36864z m-39.26528 14.06976a5.90848 5.90848 0 0 1-1.91488-11.51488l11.21792-3.90144a5.92384 5.92384 0 0 1 3.92704 11.17184l-11.31008 3.92192a5.8368 5.8368 0 0 1-1.92 0.32256z m-39.62368 12.98432a5.9392 5.9392 0 0 1-5.6576-4.1472c-0.96768-3.1232 0.768-6.44096 3.8912-7.424l11.30496-3.584a5.90336 5.90336 0 0 1 7.44448 3.80928 5.89824 5.89824 0 0 1-3.8144 7.4496l-11.39712 3.6352a5.76512 5.76512 0 0 1-1.77152 0.26112z m-530.87744 3.66592c-0.45568 0-0.9216-0.0512-1.39776-0.1536-3.1744-0.78336-5.12-3.98848-4.36224-7.168 0.97792-3.97312 2.51392-8.12544 4.57216-12.33408a5.98016 5.98016 0 0 1 7.936-2.70336c2.9184 1.44384 4.13184 4.992 2.69824 7.936a48.7168 48.7168 0 0 0-3.6864 9.90208 5.92896 5.92896 0 0 1-5.76 4.52096z m490.92608 8.30464a5.9136 5.9136 0 0 1-1.62816-11.60704l11.4176-3.31264a5.89312 5.89312 0 0 1 7.33696 4.01408 5.90848 5.90848 0 0 1-4.00896 7.34208l-11.48416 3.328a5.65248 5.65248 0 0 1-1.63328 0.23552z m-40.21248 10.98752a5.92896 5.92896 0 0 1-1.4848-11.65824l11.47392-3.03104a5.95968 5.95968 0 0 1 7.24992 4.1984 5.92896 5.92896 0 0 1-4.19328 7.24992l-11.55584 3.05152a6.03648 6.03648 0 0 1-1.4848 0.18944z m-40.4736 10.0096a5.92384 5.92384 0 0 1-1.36192-11.67872l11.5712-2.7648a5.98016 5.98016 0 0 1 7.13728 4.37248 5.91872 5.91872 0 0 1-4.36736 7.1424l-11.61216 2.7648a5.50912 5.50912 0 0 1-1.36704 0.16384z m-397.13792 7.6544a5.888 5.888 0 0 1-3.76832-1.35168 50.55488 50.55488 0 0 1-9.1904-9.7792 5.9136 5.9136 0 1 1 9.66144-6.82496c1.85344 2.6112 4.224 5.12 7.0656 7.4752a5.92384 5.92384 0 0 1-3.76832 10.48064z m356.41344 1.31072a5.91872 5.91872 0 0 1-1.1776-11.71456l11.60704-2.45248a6.02112 6.02112 0 0 1 7.03488 4.5568 5.92384 5.92384 0 0 1-4.5568 7.02976l-11.6992 2.44736a5.10976 5.10976 0 0 1-1.20832 0.13312z m-40.92928 7.92064a5.92896 5.92896 0 0 1-1.024-11.7504l11.65824-2.1248a5.8624 5.8624 0 0 1 6.912 4.72064 5.9136 5.9136 0 0 1-4.736 6.912l-11.76064 2.1504a6.02112 6.02112 0 0 1-1.0496 0.09216z m-41.15456 6.71232a5.9136 5.9136 0 0 1-0.8448-11.776 805.0176 805.0176 0 0 0 11.71456-1.78176c3.1232-0.44032 6.26688 1.6896 6.77376 4.92544 0.512 3.2256-1.69472 6.26176-4.92544 6.77376-3.97312 0.62464-7.92064 1.2288-11.84256 1.80224a7.09632 7.09632 0 0 1-0.8704 0.05632z m-236.83072 1.54112c-0.512 0-1.03936-0.07168-1.57184-0.2048a169.3184 169.3184 0 0 1-11.77088-3.70688 5.91872 5.91872 0 0 1 3.97824-11.14624c3.43552 1.2288 7.07584 2.37056 10.93632 3.42016a5.93408 5.93408 0 0 1-1.57184 11.63776z m195.49696 3.89632a5.92384 5.92384 0 0 1-0.65024-11.80672c3.8912-0.44032 7.80288-0.90112 11.7504-1.40288a5.92384 5.92384 0 0 1 1.47968 11.7504c-4.01408 0.49664-7.98208 0.98304-11.90912 1.42336a5.888 5.888 0 0 1-0.6656 0.03584z m-154.496 3.5328a6.8096 6.8096 0 0 1-0.64512-0.04096 342.81984 342.81984 0 0 1-12.032-1.51552 5.92896 5.92896 0 0 1-5.0176-6.7072c0.4608-3.24608 3.6352-5.42208 6.7072-5.0176 3.7632 0.54272 7.6288 1.03936 11.61216 1.46432a5.92384 5.92384 0 1 1-0.62464 11.81184z m112.9984 0.37376a5.92896 5.92896 0 0 1-5.90336-5.4784 5.9392 5.9392 0 0 1 5.46816-6.3488 770.56 770.56 0 0 0 11.80672-0.93696 5.95456 5.95456 0 0 1 6.41024 5.38624 5.92384 5.92384 0 0 1-5.39136 6.41024c-4.02432 0.34304-7.99744 0.65536-11.94496 0.95744-0.14848 0.01024-0.29696 0.01024-0.45056 0.01024z m-41.62048 2.08896a5.91872 5.91872 0 0 1-0.1536-11.83744c3.88096-0.1024 7.82336-0.2304 11.81184-0.38912 3.48672 0.12288 6.02624 2.41152 6.16448 5.67296a5.9392 5.9392 0 0 1-5.67808 6.16448c-4.06016 0.16384-8.04864 0.29184-11.9808 0.38912h-0.16384z m-41.472-12.11392c3.86048 0.1536 7.7824 0.27648 11.79648 0.36352a5.9136 5.9136 0 0 1-0.12288 11.83744h-0.11264c-4.08064-0.08704-8.0896-0.2048-12.02688-0.3584a5.93408 5.93408 0 0 1-5.6832-6.144c0.13312-3.27168 2.5856-5.39648 6.14912-5.69856z m88.3968-205.99808a5.9136 5.9136 0 0 1-3.1232 7.76192l-5.4272 2.31424a5.91872 5.91872 0 0 1-4.69504-10.86976l5.48864-2.33472a5.91872 5.91872 0 0 1 7.7568 3.12832z m463.09888-111.54432a5.92896 5.92896 0 0 1-5.5296 6.2976l-5.84704 0.4096c-0.1536 0.01024-0.31744 0.01024-0.46592 0.01024-3.072 0-5.65248-2.3552-5.89312-5.46304a5.93408 5.93408 0 0 1 5.4528-6.36416l5.9904-0.41984c2.87744-0.2816 6.07232 2.25792 6.29248 5.5296z" fill="#E52C3E" p-id="25058"></path></svg>