<?xml version="1.0" standalone="no"?><!DOCTYPE svg PUBLIC "-//W3C//DTD SVG 1.1//EN" "http://www.w3.org/Graphics/SVG/1.1/DTD/svg11.dtd"><svg t="1658235863996" class="icon" viewBox="0 0 1024 1024" version="1.1" xmlns="http://www.w3.org/2000/svg" p-id="29876" xmlns:xlink="http://www.w3.org/1999/xlink" width="200" height="200"><defs><style type="text/css">@font-face { font-family: feedback-iconfont; src: url("//at.alicdn.com/t/font_1031158_u69w8yhxdu.woff2?t=1630033759944") format("woff2"), url("//at.alicdn.com/t/font_1031158_u69w8yhxdu.woff?t=1630033759944") format("woff"), url("//at.alicdn.com/t/font_1031158_u69w8yhxdu.ttf?t=1630033759944") format("truetype"); }
</style></defs><path d="M896 642.69824c0 72.49408-171.92448 131.27168-384 131.27168s-384-58.7776-384-131.2768 171.92448-131.26656 384-131.26656 384 58.77248 384 131.27168" fill="#DFE0E4" p-id="29877"></path><path d="M742.4 642.69824c0 43.4944-103.15264 78.76096-230.4 78.76096s-230.4-35.26656-230.4-78.76096c0-43.49952 103.15264-78.76608 230.4-78.76608s230.4 35.26656 230.4 78.76608" fill="#C3C3CB" p-id="29878"></path><path d="M660.2752 522.70592c-19.79904 0-35.94752-16.15872-35.94752-35.93216 0-19.79904 16.14848-35.9168 35.94752-35.9168 19.7888 0 35.9168 16.11776 35.9168 35.9168 0 19.77856-16.128 35.93216-35.9168 35.93216m-295.42912 0c-19.82464 0-35.94752-16.15872-35.94752-35.93216 0-19.79904 16.12288-35.9168 35.94752-35.9168 19.7888 0 35.90656 16.11776 35.90656 35.9168 0.01024 19.77856-16.10752 35.93216-35.90656 35.93216m-4.8384-130.69824c1.8688-6.81984 14.36672-60.20608 19.90144-78.70464 2.2784-6.38976 17.07008-25.4208 34.32448-24.34048h195.54304c17.24928-1.08544 32.06144 17.9456 34.29376 24.34048 5.56032 18.49856 18.03776 71.8848 19.93216 78.70464 2.2272 8.0896-5.12 7.3728-5.12 7.3728H365.13792s-7.3728 0.7168-5.13024-7.3728m378.76736 31.09376c-3.95776-7.92576-14.8736-16.96256-14.8736-16.96256l-44.97408-120.40192C669.5936 262.91712 642.0992 250.88 630.10816 250.88H393.90208c-12.00128 0-39.47008 12.04224-48.81408 34.8672l-44.98432 120.3968s-10.88512 9.0368-14.88384 16.96256c-3.9936 7.89504-8.3456 14.97088-8.3456 68.352 0 52.0704 10.4448 70.56384 22.92736 76.98944l9.87136 5.5808v48.34304c0 15.6672 3.72224 20.33152 18.61632 20.33152h33.40288c14.8736 0 24.89856 0.05632 24.89856-15.61088v-47.02208h250.82368v47.02208c0 15.6672 10.01472 15.616 24.88832 15.616h33.41824c14.88384 0 18.60096-4.66944 18.60096-20.33664v-48.34816l9.87136-5.57568c12.4928-6.42048 22.92736-24.91392 22.94784-76.99456 0.00512-53.376-4.352-60.45184-8.36608-68.34688" fill="#E52C3E" p-id="29879"></path><path d="M660.2752 522.70592c-19.79904 0-35.94752-16.15872-35.94752-35.93216 0-19.79904 16.14848-35.9168 35.94752-35.9168 19.7888 0 35.9168 16.11776 35.9168 35.9168 0 19.77856-16.128 35.93216-35.9168 35.93216m-295.42912 0c-19.82464 0-35.94752-16.15872-35.94752-35.93216 0-19.79904 16.12288-35.9168 35.94752-35.9168 19.7888 0 35.90656 16.11776 35.90656 35.9168 0.01024 19.77856-16.10752 35.93216-35.90656 35.93216" fill="#3A0606" p-id="29880"></path><path d="M327.808 486.784c0-19.80928 16.12288-35.92704 35.91168-35.92704 19.80416 0 35.94752 16.11776 35.94752 35.92704 0 19.7632-16.14336 35.92192-35.94752 35.92192-19.7888 0-35.91168-16.1536-35.91168-35.92192m-50.94912 4.6592c0.01536 52.09088 10.44992 70.5792 22.94784 76.99968l9.86624 5.5808v48.34304c0 15.67232 3.71712 20.3264 18.60608 20.3264h33.41312c14.87872 0 24.88832 0.06656 24.88832-15.60576v-47.02208h125.4144v-180.6848H365.11744s-7.35232 0.71168-5.11488-7.37792c1.88928-6.81472 14.3616-60.20096 19.92192-78.69952 2.23744-6.39488 17.0496-25.42592 34.29376-24.34048h97.77664v-38.08768H393.88672c-11.99104 0-39.48032 12.04224-48.8192 34.86208l-44.97408 120.40704s-10.91584 9.03168-14.8736 16.95744c-4.00896 7.89504-8.36608 14.96576-8.36096 68.34176" fill="#CD070F" p-id="29881"></path></svg>