<?xml version="1.0" standalone="no"?><!DOCTYPE svg PUBLIC "-//W3C//DTD SVG 1.1//EN" "http://www.w3.org/Graphics/SVG/1.1/DTD/svg11.dtd"><svg t="1658235847083" class="icon" viewBox="0 0 1024 1024" version="1.1" xmlns="http://www.w3.org/2000/svg" p-id="29583" xmlns:xlink="http://www.w3.org/1999/xlink" width="200" height="200"><defs><style type="text/css">@font-face { font-family: feedback-iconfont; src: url("//at.alicdn.com/t/font_1031158_u69w8yhxdu.woff2?t=1630033759944") format("woff2"), url("//at.alicdn.com/t/font_1031158_u69w8yhxdu.woff?t=1630033759944") format("woff"), url("//at.alicdn.com/t/font_1031158_u69w8yhxdu.ttf?t=1630033759944") format("truetype"); }
</style></defs><path d="M842.1888 772.04992c0 60.55424-147.27168 109.6448-328.9344 109.6448-181.66784 0-328.9344-49.09056-328.9344-109.6448s147.27168-109.6448 328.93952-109.6448c181.6576 0 328.9344 49.09056 328.9344 109.6448" fill="#DFE0E4" p-id="29584"></path><path d="M710.61504 772.04992c0 36.33152-88.36096 65.792-197.36064 65.792-108.99968 0-197.36064-29.46048-197.36064-65.792 0-36.33664 88.36096-65.792 197.36064-65.792 109.0048 0 197.36064 29.45536 197.36064 65.792" fill="#C3C3CB" p-id="29585"></path><path d="M513.26464 138.24c115.08224 0.6144 193.792 84.82816 207.08352 189.23008a252.49792 252.49792 0 0 1 8.57088 65.23904c0 58.03008-19.57376 111.10912-51.80928 152.064-36.57216 94.09536-87.68 161.4848-165.10976 161.4848l1.26464-0.01536c-0.3072 0.02048-0.6144 0.01536-0.9216 0.01536H512c-75.47904-0.83456-131.072-75.85792-167.29088-165.86752-30.21312-40.33024-48.34304-91.70944-48.34304-147.67616A252.53376 252.53376 0 0 1 305.2032 326.2976C319.61088 221.7472 396.1344 138.24 513.26464 138.24l-1.26464 0.01024c0.23552-0.01024 0.47104-0.01024 0.70144-0.01024h0.5632z" fill="#E52C3E" p-id="29586"></path><path d="M305.80224 326.2976A252.07296 252.07296 0 0 0 296.96 392.70912c0 55.97184 18.12992 107.34592 48.33792 147.68128 36.4288 90.51648 92.43648 165.87264 168.55552 165.87264V138.24c-117.13024 0-193.65376 83.5072-208.0512 188.0576" fill="#CD070F" p-id="29587"></path><path d="M325.36576 409.9072c150.4256 4.4544 165.65248 150.92736 165.65248 150.92736-176.9984-4.07552-165.6064-150.9376-165.6064-150.9376m377.74336 0.01536c-150.4256 4.4544-165.64224 150.92224-165.64224 150.92224 177.03936-4.07552 165.632-150.9376 165.632-150.9376" fill="#3A0606" p-id="29588"></path></svg>