<?xml version="1.0" standalone="no"?><!DOCTYPE svg PUBLIC "-//W3C//DTD SVG 1.1//EN" "http://www.w3.org/Graphics/SVG/1.1/DTD/svg11.dtd"><svg t="1658235995142" class="icon" viewBox="0 0 1024 1024" version="1.1" xmlns="http://www.w3.org/2000/svg" p-id="31792" xmlns:xlink="http://www.w3.org/1999/xlink" width="200" height="200"><defs><style type="text/css">@font-face { font-family: feedback-iconfont; src: url("//at.alicdn.com/t/font_1031158_u69w8yhxdu.woff2?t=1630033759944") format("woff2"), url("//at.alicdn.com/t/font_1031158_u69w8yhxdu.woff?t=1630033759944") format("woff"), url("//at.alicdn.com/t/font_1031158_u69w8yhxdu.ttf?t=1630033759944") format("truetype"); }
</style></defs><path d="M446.6176 735.55456h56.4224v99.07712c0 4.33152-3.51744 7.84896-7.85408 7.84896h-40.70912a7.85408 7.85408 0 0 1-7.85408-7.84896v-99.072z" fill="#2B6DE5" p-id="31793"></path><path d="M446.6176 735.55456h56.4224v99.07712c0 4.33152-3.51744 7.84896-7.85408 7.84896h-40.70912a7.85408 7.85408 0 0 1-7.85408-7.84896v-99.072z" fill="#02134D" fill-opacity=".3" p-id="31794"></path><path d="M469.12512 409.6256l-217.0112 315.07968a6.92224 6.92224 0 0 0 5.70368 10.84928h434.0224a6.92224 6.92224 0 0 0 5.70368-10.84928L480.53248 409.6256a6.92736 6.92736 0 0 0-11.40736 0" fill="#2B6DE5" p-id="31795"></path><path d="M469.12512 409.6256l-217.0112 315.07968a6.92224 6.92224 0 0 0 5.70368 10.84928h434.0224a6.92224 6.92224 0 0 0 5.70368-10.84928L480.53248 409.6256a6.92736 6.92736 0 0 0-11.40736 0" fill="#02134D" fill-opacity=".2" p-id="31796"></path><path d="M469.12512 270.52544l-178.432 259.072c-3.16928 4.59264 0.12288 10.8544 5.69856 10.8544h356.87424c5.5808 0 8.86272-6.26176 5.70368-10.8544l-178.432-259.072a6.92736 6.92736 0 0 0-11.41248 0" fill="#2B6DE5" p-id="31797"></path><path d="M469.12512 270.52544l-178.432 259.072c-3.16928 4.59264 0.12288 10.8544 5.69856 10.8544h356.87424c5.5808 0 8.86272-6.26176 5.70368-10.8544l-178.432-259.072a6.92736 6.92736 0 0 0-11.41248 0" fill="#02134D" fill-opacity=".1" p-id="31798"></path><path d="M469.12512 187.3152L367.68768 334.60224c-3.16928 4.59264 0.12288 10.8544 5.69856 10.8544h202.88512c5.5808 0 8.86272-6.26176 5.70368-10.8544L480.53248 187.3152a6.92736 6.92736 0 0 0-11.40736 0" fill="#2B6DE5" p-id="31799"></path><path d="M730.112 552.21248l-26.66496 7.92064a169.92256 169.92256 0 0 0-12.29824 4.2496l-0.39424 0.1536-0.89088 0.34304c-0.75264 0.27648-1.50016 0.55808-2.23232 0.86528l-7.94624 3.2768-0.06144 0.37376c-40.22784 19.21024-64.95232 52.0704-69.82656 91.6736l-1.55648 0.78336-14.28992-8.31488a4.31616 4.31616 0 0 0-6.4512 3.14368l-2.2528 16.384a280.9344 280.9344 0 0 0-0.896 7.3472l-1.81248 17.024c-0.5632 30.37184 7.64416 54.81984 23.00928 72.84736 16.39936 19.23584 41.5232 30.28992 72.66304 31.96416v0.0256c0.36864 0.02048 0.73216 0.0256 1.09568 0.03584a167.936 167.936 0 0 0 7.48544 0.18944c34.50368 0 66.60608-19.89632 79.86688-49.5104 8.20736-18.3296 15.95904-55.82336-24.35584-100.98176-30.03392-33.64352-20.06016-71.34208-19.61984-72.92928l7.424-26.86464z m-22.23616 22.66112s-13.52704 46.53056 22.94784 87.38304c59.6992 66.8672 9.1392 124.8512-44.032 124.8512-2.29376 0-4.57216-0.0768-6.8352-0.1792-0.3072-0.01536-0.61952-0.01024-0.92672-0.0256 0.0512-0.00512 0.09728-0.01536 0.14848-0.01536-48.28672-2.56-87.45984-30.1312-79.5136-104.84224l-0.00512-0.00512c0.23552-2.2528 0.52224-4.54144 0.8448-6.88128 3.49696 2.03264 7.03488 4.00896 10.5984 5.92384 8.69376 4.65408 13.87008 6.912 13.87008 6.912-5.3248-49.24416 21.74976-88.6272 68.51584-107.9296l0.01536-0.1024c0.91648-0.37376 1.87904-0.7168 2.81088-1.0752 0.83456-0.32256 1.65888-0.64512 2.50368-0.95744a161.90464 161.90464 0 0 1 9.05728-3.05664z" fill="#FFFFFF" p-id="31800"></path><path d="M730.81856 662.25664c-36.47488-40.8576-22.9376-87.38304-22.9376-87.38304a152.8832 152.8832 0 0 0-11.56608 4.0192c-0.93696 0.3584-1.8944 0.69632-2.81088 1.0752 0 0.03072-0.01024 0.06656-0.02048 0.1024-46.7712 19.29728-73.8304 58.6752-68.51584 107.91936 0 0-5.1712-2.2528-13.86496-6.912a345.6256 345.6256 0 0 1-10.5984-5.91872 224.9216 224.9216 0 0 0-0.84992 6.8864h0.01024c-7.95136 74.71104 31.22176 102.28736 79.5136 104.84224-0.0512 0-0.09728 0.01024-0.14848 0.01536 0.3072 0.01536 0.61952 0.01024 0.9216 0.0256 2.26816 0.1024 4.54144 0.1792 6.8352 0.1792 53.1712 0 103.7312-57.97888 44.032-124.8512" fill="#E52C3E" p-id="31801"></path><path d="M730.81856 662.25664c-36.47488-40.8576-22.9376-87.38304-22.9376-87.38304-4.98176 1.49504-9.77408 3.2-14.37696 5.0944-2.29376 13.1584-5.19168 49.54624 24.0384 82.28864 57.6512 64.55296 12.5184 120.832-38.51264 124.6464 2.56 0.13312 5.1456 0.2048 7.7568 0.2048 53.1712 0 103.7312-57.97888 44.032-124.8512m-105.31328 32.59904a133.78048 133.78048 0 0 1-0.5376-6.86592c-3.584-1.93024-20.9408-10.78272-24.46848-12.83072-0.32256 2.33984-0.60416 4.62848-0.8448 6.88128 7.6032 4.01408 25.856 12.81536 25.856 12.81536" fill="#02134D" p-id="31802"></path></svg>