<?xml version="1.0" standalone="no"?><!DOCTYPE svg PUBLIC "-//W3C//DTD SVG 1.1//EN" "http://www.w3.org/Graphics/SVG/1.1/DTD/svg11.dtd"><svg t="1658234227234" class="icon" viewBox="0 0 1024 1024" version="1.1" xmlns="http://www.w3.org/2000/svg" p-id="25345" xmlns:xlink="http://www.w3.org/1999/xlink" width="200" height="200"><defs><style type="text/css">@font-face { font-family: feedback-iconfont; src: url("//at.alicdn.com/t/font_1031158_u69w8yhxdu.woff2?t=1630033759944") format("woff2"), url("//at.alicdn.com/t/font_1031158_u69w8yhxdu.woff?t=1630033759944") format("woff"), url("//at.alicdn.com/t/font_1031158_u69w8yhxdu.ttf?t=1630033759944") format("truetype"); }
</style></defs><path d="M728.82688 281.6a18.57536 18.57536 0 0 1 18.57536 18.57536v427.19744a18.57536 18.57536 0 0 1-18.57536 18.57536H301.6192a18.57024 18.57024 0 0 1-18.57024-18.57536V300.17536A18.57024 18.57024 0 0 1 301.6192 281.6h427.20256z" fill="#2B6DE5" p-id="25346"></path><path d="M594.2528 625.2288a20.736 20.736 0 1 1 0 41.472 20.736 20.736 0 0 1 0-41.472M665.53344 625.2288a20.736 20.736 0 1 1-0.00512 41.46688 20.736 20.736 0 0 1 0-41.472" fill="#FFFFFF" p-id="25347"></path><path d="M359.73632 529.28512a15.54432 15.54432 0 1 1 0 31.08352 15.54432 15.54432 0 0 1 0-31.08352M421.93408 529.28512a15.54944 15.54944 0 1 1 0 31.09376 15.54944 15.54944 0 0 1 0-31.09376M484.12672 529.28512a15.54944 15.54944 0 1 1 0 31.09376 15.54944 15.54944 0 0 1 0-31.09376M546.31936 529.28512a15.54432 15.54432 0 1 1 0 31.09376 15.54944 15.54944 0 1 1 0-31.09376M608.512 529.28512a15.54432 15.54432 0 1 1 0.01536 31.08864 15.54432 15.54432 0 0 1-0.01024-31.08864M670.72 529.28512a15.54432 15.54432 0 1 1 0 31.08352 15.54432 15.54432 0 0 1 0-31.08352M359.73632 467.08736a15.54944 15.54944 0 1 1-0.00512 31.104 15.54944 15.54944 0 0 1 0.00512-31.104M421.93408 467.08736a15.54944 15.54944 0 1 1 0 31.09376 15.54944 15.54944 0 0 1 0-31.09376M484.12672 467.08736a15.54944 15.54944 0 1 1 0 31.09376 15.54944 15.54944 0 0 1 0-31.09376M546.31936 467.08736a15.54944 15.54944 0 1 1 0 31.09888 15.54944 15.54944 0 0 1 0-31.09888M608.512 467.08736a15.54944 15.54944 0 1 1 0 31.09888 15.54944 15.54944 0 0 1 0-31.09888M670.72 467.08736a15.54944 15.54944 0 1 1-0.00512 31.104 15.54944 15.54944 0 0 1 0-31.104M359.73632 404.8896a15.54944 15.54944 0 1 1-0.00512 31.09376 15.54944 15.54944 0 0 1 0.00512-31.09376M421.93408 404.8896a15.55456 15.55456 0 1 1-0.01024 31.104 15.55456 15.55456 0 0 1 0.01024-31.104M484.12672 404.8896a15.55456 15.55456 0 1 1-0.00512 31.104 15.55456 15.55456 0 0 1 0-31.104M546.31936 404.8896a15.54944 15.54944 0 1 1 0 31.09888 15.54944 15.54944 0 0 1 0-31.09888M608.512 404.8896a15.54944 15.54944 0 1 1 0.00512 31.09888 15.54944 15.54944 0 0 1 0-31.09888M670.72 404.8896a15.54944 15.54944 0 1 1-0.01024 31.09376 15.54944 15.54944 0 0 1 0.00512-31.09376M359.73632 342.69696a15.54432 15.54432 0 1 1 0 31.09376 15.54944 15.54944 0 1 1 0-31.09376M421.93408 342.69696a15.54944 15.54944 0 1 1 0 31.09376 15.54944 15.54944 0 0 1 0-31.09376M484.12672 342.69696a15.54944 15.54944 0 1 1 0 31.09376 15.54944 15.54944 0 0 1 0-31.09376M546.31936 342.69696a15.54432 15.54432 0 1 1 0 31.09376 15.54944 15.54944 0 0 1 0-31.09376M608.512 342.69696a15.54432 15.54432 0 1 1 0.01536 31.08864 15.54432 15.54432 0 0 1-0.01024-31.08864M670.72 342.69696a15.54432 15.54432 0 1 1 0 31.09376 15.54944 15.54944 0 1 1 0-31.09376" fill="#02134D" p-id="25348"></path><path d="M831.01696 393.35936c-0.10752 0-0.2048 0-0.31232-0.01536-3.84-0.2048-7.75168-0.3584-11.7504-0.47104a5.92896 5.92896 0 0 1-5.74464-6.0928c0.1024-3.25632 2.97984-5.7344 6.0928-5.73952a490.3936 490.3936 0 0 1 12.032 0.49152 5.9136 5.9136 0 0 1-0.31744 11.8272z m41.4208 4.19328c-0.32256 0-0.64-0.0256-0.9728-0.08192a292.74112 292.74112 0 0 0-11.54048-1.64352 5.89824 5.89824 0 0 1-5.1456-6.58432c0.39936-3.24096 3.42016-5.48864 6.58432-5.15584 4.1216 0.512 8.13568 1.0752 12.02688 1.71008a5.91872 5.91872 0 0 1-0.9472 11.75552z m40.20224 10.46528c-0.73728 0-1.48992-0.13312-2.2016-0.42496a129.1776 129.1776 0 0 0-10.73664-3.75296 5.92384 5.92384 0 0 1 3.44064-11.32544c4.1472 1.26976 8.05376 2.6368 11.70432 4.096a5.90848 5.90848 0 0 1-2.20672 11.40736z m32.1536 25.03168c-2.14016 0-4.21376-1.18272-5.26336-3.2256a32.52224 32.52224 0 0 0-5.95456-8.0384 5.91872 5.91872 0 0 1 8.39168-8.3456 44.70272 44.70272 0 0 1 8.09984 10.99776 5.91872 5.91872 0 0 1-5.2736 8.61184z m-4.02432 39.49568a5.91872 5.91872 0 0 1-5.12-8.88832c1.93536-3.328 3.47648-6.6048 4.57216-9.71776a5.94432 5.94432 0 0 1 7.54688-3.61472c3.08224 1.08544 4.70528 4.46976 3.61984 7.54688a70.7072 70.7072 0 0 1-5.49888 11.7248c-1.1008 1.8944-3.08736 2.94912-5.12 2.94912z m-26.89024 31.55456c-1.60768 0-3.2-0.64512-4.36736-1.93024a5.90848 5.90848 0 0 1 0.37888-8.35584 206.85824 206.85824 0 0 0 8.33024-8.0128 5.91872 5.91872 0 0 1 8.46336 8.2688c-2.75456 2.81088-5.69856 5.632-8.81664 8.48384a5.90848 5.90848 0 0 1-3.9936 1.54624z m-32.78336 25.6512a5.9136 5.9136 0 0 1-3.34848-10.79296 349.0048 349.0048 0 0 0 9.5232-6.79424 5.91872 5.91872 0 0 1 7.02464 9.5232c-3.1744 2.33472-6.4512 4.68992-9.84576 7.02976a5.888 5.888 0 0 1-3.3536 1.03936z m-677.0688 17.74592c-2.0992 0-4.13184-1.11616-5.19168-3.10272a5.89824 5.89824 0 0 1 2.39104-8.00768c3.46624-1.8944 6.99904-3.75808 10.5984-5.632a5.91872 5.91872 0 0 1 5.44256 10.5216c-3.53792 1.82272-7.00416 3.67104-10.42432 5.50912a5.8368 5.8368 0 0 1-2.816 0.71168z m641.87392 4.49536a5.90848 5.90848 0 0 1-2.98496-11.01824c3.456-2.0224 6.84544-4.02432 10.1376-6.0416a5.94944 5.94944 0 0 1 8.13568 1.9968c1.6896 2.79552 0.80896 6.43584-1.98656 8.13568-3.36384 2.02752-6.79424 4.07552-10.32192 6.1184a5.78048 5.78048 0 0 1-2.97984 0.80896z m-677.90336 16.36864a5.92384 5.92384 0 0 1-3.14368-10.93632c3.33824-2.08896 6.7584-4.17792 10.27072-6.272a5.9136 5.9136 0 1 1 6.05184 10.16832c-3.42016 2.04288-6.76864 4.09088-10.04032 6.13376a5.888 5.888 0 0 1-3.13856 0.90624z m641.27488 3.5072c-2.1504 0-4.22912-1.1776-5.2736-3.23584a5.89824 5.89824 0 0 1 2.59072-7.94624c3.54816-1.8176 7.04512-3.6352 10.49088-5.44256a5.9136 5.9136 0 1 1 5.52448 10.46528c-3.48672 1.83808-7.04 3.67616-10.65472 5.51424a5.8112 5.8112 0 0 1-2.67776 0.64512z m-37.5296 18.04288a5.91872 5.91872 0 0 1-2.46272-11.30496l10.752-4.9664a5.9136 5.9136 0 1 1 5.0176 10.72128l-10.8544 5.01248c-0.78848 0.3584-1.62304 0.5376-2.4576 0.5376z m-638.00832 2.07872a5.9136 5.9136 0 0 1-3.6096-10.60864c3.11296-2.39104 6.3488-4.79744 9.68704-7.2192a5.91872 5.91872 0 1 1 6.9376 9.59488c-3.2512 2.35008-6.4 4.6848-9.41056 7.00928-1.0752 0.8192-2.34496 1.22368-3.60448 1.22368z m599.77216 14.4896a5.888 5.888 0 0 1-5.46304-3.66592 5.90848 5.90848 0 0 1 3.21024-7.72096l10.92608-4.57216a5.91872 5.91872 0 0 1 4.62848 10.88512l-11.04896 4.61824a5.6832 5.6832 0 0 1-2.2528 0.45568z m-630.56384 13.4656a5.91872 5.91872 0 0 1-4.41344-9.856 183.2704 183.2704 0 0 1 8.51456-8.86784 5.90336 5.90336 0 0 1 8.36096 0.09216 5.90848 5.90848 0 0 1-0.08704 8.36608 164.80768 164.80768 0 0 0-7.96672 8.2944 5.9136 5.9136 0 0 1-4.40832 1.97632z m591.81056 1.80736c-2.39616 0-4.64384-1.4592-5.53472-3.84a5.89824 5.89824 0 0 1 3.456-7.61344l11.06944-4.224a5.96992 5.96992 0 0 1 7.65952 3.3792 5.9392 5.9392 0 0 1-3.38432 7.66464l-11.1872 4.2496a5.61152 5.61152 0 0 1-2.07872 0.384z m-39.19872 14.1056a5.90848 5.90848 0 0 1-1.92-11.50464c3.75808-1.29536 7.49056-2.59072 11.1872-3.90144a5.9136 5.9136 0 1 1 3.95776 11.15648c-3.74784 1.31584-7.5008 2.6368-11.30496 3.93216-0.64 0.22016-1.28 0.31744-1.92 0.31744z m-39.56224 13.02528a5.91872 5.91872 0 0 1-1.78176-11.55584l11.31008-3.60448a5.91872 5.91872 0 0 1 3.63008 11.25888l-11.37664 3.62496a6.01088 6.01088 0 0 1-1.78176 0.27648z m-533.25824 6.8608a5.92384 5.92384 0 0 1-5.8368-6.97856c0.74752-4.08576 2.08896-8.32512 3.9936-12.62592 1.3312-3.0208 4.85376-4.32128 7.80288-3.0208 2.9952 1.32096 4.34176 4.82304 3.01568 7.808a44.80512 44.80512 0 0 0-3.1744 9.96864 5.91872 5.91872 0 0 1-5.80096 4.85376z m493.3632 5.1712a5.91872 5.91872 0 0 1-1.64352-11.60704l11.40224-3.328a5.9392 5.9392 0 0 1 7.35232 3.9936c0.9216 3.13856-0.8704 6.43072-4.00384 7.35744l-11.44832 3.34848a5.81632 5.81632 0 0 1-1.65376 0.23552z m-40.14592 11.01824a5.9136 5.9136 0 0 1-1.51552-11.63264l11.4432-3.0208a5.888 5.888 0 0 1 7.26528 4.13184c0.8704 3.14368-0.9728 6.4-4.12672 7.26528l-11.55584 3.06176a5.71904 5.71904 0 0 1-1.5104 0.19456z m-40.41728 10.05568c-2.68288 0-5.10976-1.82272-5.75488-4.54144a5.89312 5.89312 0 0 1 4.3776-7.12704l11.55584-2.77504a5.92896 5.92896 0 0 1 7.13728 4.36736c0.768 3.1744-1.18784 6.36416-4.36736 7.1424l-11.57632 2.77504a5.82656 5.82656 0 0 1-1.37216 0.1536z m-40.66816 9.02656a5.91872 5.91872 0 0 1-1.19808-11.70432l11.5968-2.46784a5.92896 5.92896 0 0 1 7.02976 4.5312 5.89824 5.89824 0 0 1-4.52608 7.02464l-11.67872 2.4832c-0.39936 0.09728-0.8192 0.13312-1.2288 0.13312z m-356.52608 0.74752a5.8368 5.8368 0 0 1-3.5584-1.18784 55.13728 55.13728 0 0 1-9.61536-9.14944 5.9136 5.9136 0 0 1 9.17504-7.46496c2.06336 2.52928 4.60288 4.93568 7.56224 7.16288a5.91872 5.91872 0 0 1-3.56352 10.63936z m315.63776 7.20896c-2.79552 0-5.29408-1.9968-5.81632-4.864a5.92896 5.92896 0 0 1 4.77696-6.87616l11.65824-2.1504a5.90848 5.90848 0 1 1 2.19648 11.6224l-11.75552 2.18112a6.5792 6.5792 0 0 1-1.05984 0.08704z m-41.09312 6.78912a5.9136 5.9136 0 0 1-0.86016-11.76576l11.71456-1.8176a5.96992 5.96992 0 0 1 6.76864 4.92544c0.512 3.22048-1.69472 6.2464-4.92032 6.76864l-11.81184 1.8176a5.65248 5.65248 0 0 1-0.89088 0.07168z m-236.63104 2.54976c-0.4864 0-0.9984-0.05632-1.48992-0.18432a177.13152 177.13152 0 0 1-11.79648-3.50208 5.90336 5.90336 0 0 1-3.712-7.5008c1.0496-3.072 4.352-4.71552 7.5008-3.712 3.46624 1.17248 7.12704 2.2528 10.98752 3.2512a5.91872 5.91872 0 0 1-1.48992 11.648z m195.35872 2.95936a5.90848 5.90848 0 0 1-5.8624-5.22752 5.89824 5.89824 0 0 1 5.18144-6.55872l11.76064-1.4336c3.15392-0.49664 6.20544 1.87392 6.6048 5.13024a5.91872 5.91872 0 0 1-5.12512 6.6048l-11.8528 1.4336a4.67968 4.67968 0 0 1-0.70656 0.0512z m-41.46176 4.00896a5.91872 5.91872 0 0 1-0.44032-11.8272c3.8912-0.2816 7.81824-0.6144 11.776-0.96256a5.87776 5.87776 0 0 1 6.4256 5.36064 5.91872 5.91872 0 0 1-5.36064 6.4256c-4.00896 0.35328-7.99232 0.68096-11.93472 0.99328-0.1536 0.01024-0.29696 0.01024-0.46592 0.01024z m-112.86528 0.0512a4.77696 4.77696 0 0 1-0.6144-0.03072 356.91008 356.91008 0 0 1-12.01152-1.4336 5.92384 5.92384 0 0 1-5.0688-6.656c0.43008-3.24608 3.36896-5.66272 6.656-5.05344 3.76832 0.50176 7.64928 0.96768 11.6224 1.3824a5.90848 5.90848 0 0 1-0.58368 11.79648z m71.28064 2.14528a5.91872 5.91872 0 0 1-0.17408-11.83744c3.8912-0.11264 7.82336-0.256 11.8272-0.42496 3.2512-0.256 6.02624 2.39104 6.1696 5.66272a5.9392 5.9392 0 0 1-5.66784 6.1696c-4.0448 0.17408-8.0384 0.3072-11.9808 0.43008h-0.17408z m-41.42592-11.95008c3.86048 0.13824 7.79264 0.24576 11.78624 0.3072a5.9136 5.9136 0 0 1-0.1024 11.83744h-0.1024c-4.0704-0.07168-8.064-0.16896-11.99616-0.31232a5.92384 5.92384 0 0 1-5.7088-6.12352c0.13312-3.26144 3.16928-5.57056 6.12352-5.7088z m45.2608-188.0832c1.38752 2.96448 0.1024 6.48704-2.85696 7.87456l-5.28896 2.5088a5.85216 5.85216 0 0 1-2.57536 0.58368c-2.19648 0-4.31104-1.21856-5.3248-3.33312a5.92384 5.92384 0 0 1 2.74432-7.90528l5.43744-2.57536a5.90848 5.90848 0 0 1 7.86432 2.84672z m536.81152-136.5504c3.26656 0.14336 5.98528 2.5088 6.05184 5.77536a5.91872 5.91872 0 0 1-5.77536 6.05696l-5.90336 0.13312h-0.17408a5.9136 5.9136 0 0 1-0.17408-11.8272l5.97504-0.14336z" fill="#E52C3E" p-id="25349"></path></svg>