<?xml version="1.0" standalone="no"?><!DOCTYPE svg PUBLIC "-//W3C//DTD SVG 1.1//EN" "http://www.w3.org/Graphics/SVG/1.1/DTD/svg11.dtd"><svg t="1724643947927" class="icon" viewBox="0 0 1024 1024" version="1.1" xmlns="http://www.w3.org/2000/svg" p-id="1442" xmlns:xlink="http://www.w3.org/1999/xlink" width="200" height="200"><path d="M511.872 156.032c-27.904 0-60.544 31.744-87.04 93.12-8.384 19.2-15.744 40.512-22.016 63.36 35.2-4.16 71.808-6.4 109.184-6.4 37.312 0 73.856 2.176 108.864 6.4a475.712 475.712 0 0 0-21.888-63.36c-26.304-60.736-58.56-92.544-86.272-93.12h-0.832z m0.128 222.08c-43.392 0-85.504 3.2-124.8 9.216A832.96 832.96 0 0 0 377.92 512c0 100.736 17.28 194.624 46.784 262.848 26.56 61.376 59.2 93.184 87.04 93.184 27.968 0 60.544-31.808 87.168-93.184 29.568-68.224 46.72-162.112 46.72-262.848 0-43.328-3.2-85.376-9.152-124.736A832.96 832.96 0 0 0 512 378.112z m-1.152 561.92c-32.768-0.32-63.488-14.976-90.24-41.088-23.872-23.296-44.672-55.68-61.888-95.424-33.728-77.888-52.736-181.44-52.736-291.52 0-37.312 2.176-73.92 6.4-108.992a475.52 475.52 0 0 0-63.232 21.888c-61.376 26.624-93.12 59.2-93.12 87.104H83.968c0-33.216 14.72-64.256 41.088-91.264 23.296-23.872 55.68-44.672 95.424-61.888a584.32 584.32 0 0 1 104.96-33.216c8.512-38.4 19.712-73.856 33.28-105.152 17.216-39.68 38.016-72.128 61.888-95.424 27.008-26.432 58.048-41.024 91.264-41.024 33.216 0 64.256 14.592 91.264 40.96 23.872 23.36 44.672 55.808 61.888 95.488 13.568 31.36 24.704 66.752 33.28 105.088 38.4 8.512 73.856 19.712 105.216 33.28 39.68 17.28 72.128 38.016 95.424 61.888 26.432 27.008 41.088 58.048 41.088 91.264h-72.064c0-27.904-31.744-60.48-93.12-87.04a475.904 475.904 0 0 0-63.488-22.016c4.16 35.072 6.4 71.68 6.4 109.056 0 110.08-19.008 213.632-52.736 291.52-17.28 39.68-38.016 72.128-61.888 95.424-27.008 26.432-58.048 41.088-91.264 41.088h-1.024z" fill="#FFFFFF" fill-opacity=".6" p-id="1443"></path><path d="M940.032 512c0 33.216-14.72 64.256-41.088 91.264-23.296 23.872-55.68 44.672-95.424 61.888-77.056 33.408-179.392 52.352-288.192 52.736h-9.344l-7.936 0.128-1.408 39.36a8 8 0 0 1-1.92 4.928l-0.256 0.256a8 8 0 0 1-11.328 0.32l-104.96-98.752a8 8 0 0 1 0.512-12.096l111.68-89.152a8 8 0 0 1 12.992 6.528l-2.752 76.544h3.84l3.328-0.064h7.232c99.584-0.384 192.32-17.536 259.84-46.784 61.376-26.624 93.184-59.2 93.184-87.104h71.936z m-784 0c0 23.04 21.504 48.832 61.952 71.68v-16.896a8 8 0 0 1 13.76-5.568l90.944 94.208a8 8 0 0 1 0 11.136l-90.88 94.208a8 8 0 0 1-13.824-5.568v-91.136c-32.64-14.4-60.416-31.36-81.92-50.368-33.28-29.376-52.032-64-52.032-101.696h72z" fill="#19B172" p-id="1444"></path></svg>