<?xml version="1.0" standalone="no"?><!DOCTYPE svg PUBLIC "-//W3C//DTD SVG 1.1//EN" "http://www.w3.org/Graphics/SVG/1.1/DTD/svg11.dtd"><svg t="1724643941299" class="icon" viewBox="0 0 1024 1024" version="1.1" xmlns="http://www.w3.org/2000/svg" p-id="1114" xmlns:xlink="http://www.w3.org/1999/xlink" width="200" height="200"><path d="M511.867 156c-27.925 0-60.508 31.804-87.082 93.128-8.336 19.236-15.69 40.515-21.953 63.412 35.14-4.215 71.781-6.407 109.168-6.407 37.29 0 73.837 2.18 108.893 6.375-6.262-22.885-13.613-44.153-21.944-63.38-26.309-60.711-58.507-92.489-86.243-93.118l-0.84-0.01zM512 378.133c-43.371 0-85.486 3.194-124.833 9.192C381.185 426.626 378 468.687 378 512c0 100.705 17.216 194.637 46.785 262.872C451.359 836.196 483.942 868 511.867 868c27.924 0 60.508-31.804 87.082-93.128 29.568-68.235 46.784-162.167 46.784-262.872 0-43.328-3.187-85.403-9.173-124.717-39.269-5.971-81.29-9.15-124.56-9.15zM510.871 940c-32.822-0.294-63.505-14.918-90.27-41.043-23.853-23.282-44.664-55.728-61.88-95.457C324.988 725.655 306 622.056 306 512c0-37.325 2.184-73.906 6.386-108.993-22.838 6.254-44.065 13.594-63.258 21.911C187.804 451.492 156 484.075 156 512H84c0-33.197 14.654-64.23 41.043-91.266 23.282-23.853 55.728-44.664 95.457-61.88 31.252-13.542 66.655-24.708 104.96-33.223 8.52-38.371 19.698-73.833 33.26-105.13 17.217-39.73 38.028-72.176 61.881-95.458C447.637 98.654 478.67 84 511.867 84s64.23 14.654 91.265 41.043c23.853 23.282 44.665 55.728 61.88 95.457 13.556 31.282 24.73 66.722 33.248 105.069 38.413 8.522 73.912 19.71 105.24 33.285 39.729 17.216 72.175 38.027 95.457 61.88C925.346 447.77 940 478.803 940 512h-72c0-27.925-31.804-60.508-93.128-87.082-19.27-8.35-40.59-15.716-63.533-21.986 4.207 35.11 6.394 71.717 6.394 109.068 0 110.056-18.988 213.655-52.72 291.5-17.216 39.729-38.028 72.175-61.88 95.457C576.096 925.346 545.062 940 511.866 940h-0.996z" fill="#0A1B39" p-id="1115"></path><path d="M940 512c0 33.197-14.654 64.23-41.043 91.266-23.282 23.853-55.728 44.664-95.457 61.88-77.067 33.395-179.374 52.34-288.2 52.715l-7.219 0.02c-2.55 0.019-5.485 0.058-10.035 0.128l-1.413 39.36a8 8 0 0 1-13.479 5.538l-104.939-98.791a8 8 0 0 1 0.492-12.077l111.682-89.171a8 8 0 0 1 12.987 6.538l-2.745 76.557 4.782-0.061c0.937-0.01 1.81-0.018 2.656-0.023l2.582-0.011 1.349-0.001c100.705 0 194.637-17.217 262.872-46.785C836.196 572.508 868 539.925 868 512h72z m-784 0c0 23.018 21.534 48.839 61.998 71.731l0.002-16.93a8 8 0 0 1 13.755-5.556l90.96 94.198a8 8 0 0 1 0 11.114l-90.96 94.198A8 8 0 0 1 218 755.198v-91.143c-32.702-14.406-60.411-31.314-81.955-50.34C102.772 584.33 84 549.672 84 512h72z" fill="#19B172" p-id="1116"></path></svg>