<?xml version="1.0" standalone="no"?><!DOCTYPE svg PUBLIC "-//W3C//DTD SVG 1.1//EN" "http://www.w3.org/Graphics/SVG/1.1/DTD/svg11.dtd"><svg t="1724643958707" class="icon" viewBox="0 0 1024 1024" version="1.1" xmlns="http://www.w3.org/2000/svg" p-id="1925" xmlns:xlink="http://www.w3.org/1999/xlink" width="200" height="200"><path d="M511.872 84.032c33.216 0 64.256 14.592 91.264 40.96 23.872 23.36 44.672 55.808 61.888 95.488 13.568 31.36 24.704 66.752 33.28 105.088 38.4 8.512 73.856 19.712 105.216 33.28 39.68 17.28 72.128 38.016 95.424 61.888 26.432 27.008 41.088 58.048 41.088 91.264h-72.064c0-27.904-31.744-60.48-93.12-87.04a475.904 475.904 0 0 0-63.488-22.016c4.16 35.072 6.4 71.68 6.4 109.056 0 110.08-19.008 213.632-52.736 291.52-17.28 39.68-38.016 72.128-61.888 95.424-27.008 26.432-58.048 41.088-91.264 41.088v-72.064c27.904 0 60.48-31.744 87.04-93.12C628.544 706.624 645.76 612.736 645.76 512c0-43.328-3.2-85.376-9.216-124.736A832.96 832.96 0 0 0 512 378.112c-100.736 0-194.624 17.28-262.848 46.784-61.376 26.624-93.12 59.2-93.12 87.104H83.968c0-33.216 14.72-64.256 41.088-91.264 23.296-23.872 55.68-44.672 95.424-61.888 77.888-33.728 181.44-52.736 291.52-52.736 37.312 0 73.856 2.176 108.864 6.4a475.712 475.712 0 0 0-21.888-63.36c-26.624-61.376-59.2-93.12-87.104-93.12V83.968z" fill="#FFFFFF" fill-opacity=".6" p-id="1926"></path><path d="M511.872 84.032v72c-27.904 0-60.544 31.744-87.04 93.12C395.136 317.376 377.92 411.264 377.92 512c0 46.08 3.648 90.88 10.368 132.352l102.016-81.472a8 8 0 0 1 12.992 6.528l-2.752 76.544h4.224l3.584-0.064H512c100.736 0 194.624-17.28 262.848-46.784 61.376-26.624 93.184-59.2 93.184-87.104h71.936c0 33.216-14.592 64.256-40.96 91.264-23.36 23.872-55.808 44.672-95.488 61.888-77.056 33.408-179.392 52.352-288.192 52.736H503.04l-2.048 0.064h-3.008l-1.408 39.424a8 8 0 0 1-1.92 4.928l-0.256 0.256a8 8 0 0 1-11.328 0.32l-88-82.816c7.68 35.008 17.6 67.008 29.632 94.784 15.104 34.816 32.064 60.032 49.024 75.456l71.936-15.296a8 8 0 0 1 9.152 10.624l-40.192 107.136a8 8 0 0 1-9.984 4.8l-180.8-60.288a8 8 0 0 1 0.896-15.36l69.056-14.72a354.816 354.816 0 0 1-35.136-63.68 615.488 615.488 0 0 1-39.04-133.824l-87.936 91.072a8 8 0 0 1-13.76-5.568v-91.136c-32.64-14.4-60.416-31.36-81.92-50.368-33.28-29.376-52.032-64-52.032-101.696h72c0 23.04 21.504 48.832 61.952 71.68v-16.896a8 8 0 0 1 13.76-5.568l84.48 87.424A903.424 903.424 0 0 1 305.92 512c0-110.08 19.008-213.632 52.736-291.52 17.216-39.68 38.016-72.128 61.888-95.424 27.008-26.432 58.048-41.024 91.264-41.024z" fill="#19B172" p-id="1927"></path></svg>