<?xml version="1.0" standalone="no"?><!DOCTYPE svg PUBLIC "-//W3C//DTD SVG 1.1//EN" "http://www.w3.org/Graphics/SVG/1.1/DTD/svg11.dtd"><svg t="1724643962598" class="icon" viewBox="0 0 1024 1024" version="1.1" xmlns="http://www.w3.org/2000/svg" p-id="2084" xmlns:xlink="http://www.w3.org/1999/xlink" width="200" height="200"><path d="M511.872 88c33.216 0 64.256 14.656 91.264 41.024 23.872 23.296 44.672 55.744 61.888 95.488 13.568 31.296 24.704 66.688 33.28 105.088 38.4 8.512 73.856 19.648 105.216 33.28 39.68 17.216 72.128 38.016 95.424 61.824 26.432 27.072 41.088 58.112 41.088 91.264h-72.064c0-27.904-31.744-60.48-93.12-87.04a475.904 475.904 0 0 0-63.488-22.016c4.16 35.136 6.4 71.68 6.4 109.12 0 110.08-19.008 213.632-52.736 291.456-17.28 39.68-38.016 72.192-61.888 95.488C576.128 929.344 545.088 944 511.872 944v-72c27.904 0 60.48-31.808 87.04-93.12 29.632-68.224 46.848-162.176 46.848-262.848 0-43.392-3.2-85.44-9.216-124.8A832.96 832.96 0 0 0 512 382.208c-100.736 0-194.624 17.216-262.848 46.72-61.376 26.624-93.12 59.2-93.12 87.168H83.968c0-33.28 14.72-64.256 41.088-91.328 23.296-23.808 55.68-44.608 95.424-61.824 77.888-33.792 181.44-52.8 291.52-52.8 37.312 0 73.856 2.176 108.864 6.4a475.712 475.712 0 0 0-21.888-63.36C572.352 191.68 539.776 160 511.872 160V88z" fill="#FFFFFF" fill-opacity=".6" p-id="2085"></path><path d="M346.816 688.64a8 8 0 0 1 11.264-0.384l100.032 94.592a8 8 0 0 1-5.184 13.824l-25.856 0.96c8.64 16 18.048 29.888 28.16 41.28 19.52 22.272 39.296 33.088 56.64 33.088v72c-40.32 0-78.592-20.928-110.72-57.6a322.048 322.048 0 0 1-52.48-86.016l-82.432 2.944a8 8 0 0 1-6.4-13.184l86.72-101.248a8 8 0 0 1 0.256-0.32z m593.152-172.608c0 33.152-14.592 64.192-40.96 91.264-23.36 23.808-55.808 44.608-95.488 61.824-77.056 33.408-179.392 52.352-288.192 52.736h-7.808l-4.48 0.064h-2.048l-3.008 0.064-1.408 39.36a8 8 0 0 1-1.92 4.992l-0.256 0.256a8 8 0 0 1-11.328 0.32l-104.96-98.816a8 8 0 0 1 0.512-12.032l111.68-89.216a8 8 0 0 1 12.992 6.528l-2.752 76.608 4.224-0.064H512c100.736 0 194.624-17.28 262.848-46.848 61.376-26.56 93.184-59.136 93.184-87.04h71.936z m-784 0c0 23.04 21.568 48.832 62.08 71.68V570.88a8 8 0 0 1 13.696-5.568l90.944 94.208a8 8 0 0 1 0 11.072l-90.88 94.208a8 8 0 0 1-13.824-5.568v-91.136c-32.64-14.4-60.416-31.296-81.92-50.304-33.28-29.44-52.032-64-52.032-101.76h72zM511.808 88v72c-27.84 0-60.48 31.808-87.04 93.12-29.248 67.584-46.4 160.32-46.72 259.84v4.864l-0.064 3.456-0.128 9.152 76.48 7.616a8 8 0 0 1 4.096 14.272l-103.68 80.32a8 8 0 0 1-10.624-0.768l-96.96-100.224a8 8 0 0 1 6.528-13.44l52.224 5.12 0.064-3.264v-4.096c0-110.08 19.008-213.632 52.736-291.456 17.216-39.68 38.016-72.192 61.888-95.488C447.616 102.656 478.656 88 511.872 88z" fill="#19B172" p-id="2086"></path></svg>