<?xml version="1.0" standalone="no"?><!DOCTYPE svg PUBLIC "-//W3C//DTD SVG 1.1//EN" "http://www.w3.org/Graphics/SVG/1.1/DTD/svg11.dtd"><svg t="1724643944627" class="icon" viewBox="0 0 1024 1024" version="1.1" xmlns="http://www.w3.org/2000/svg" p-id="1279" xmlns:xlink="http://www.w3.org/1999/xlink" width="200" height="200"><path d="M511.867 84c33.197 0 64.23 14.654 91.265 41.043 23.853 23.282 44.665 55.728 61.88 95.457 13.556 31.282 24.73 66.722 33.248 105.069 38.413 8.522 73.912 19.71 105.24 33.285 39.729 17.216 72.175 38.027 95.457 61.88C925.346 447.77 940 478.803 940 512h-72c0-27.925-31.804-60.508-93.128-87.082-19.27-8.35-40.59-15.716-63.533-21.986 4.207 35.11 6.394 71.717 6.394 109.068 0 110.056-18.988 213.655-52.72 291.5-17.216 39.729-38.028 72.175-61.88 95.457C576.096 925.346 545.062 940 511.866 940v-72c27.924 0 60.508-31.804 87.082-93.128 29.568-68.235 46.784-162.167 46.784-262.872 0-43.328-3.187-85.403-9.173-124.717-39.269-5.971-81.29-9.15-124.56-9.15-100.705 0-194.637 17.217-262.872 46.785C187.804 451.492 156 484.075 156 512H84c0-33.197 14.654-64.23 41.043-91.266 23.282-23.853 55.728-44.664 95.457-61.88 77.845-33.733 181.444-52.72 291.5-52.72 37.29 0 73.837 2.18 108.893 6.374-6.262-22.885-13.613-44.153-21.944-63.38C572.375 187.804 539.79 156 511.867 156V84z" fill="#0A1B39" p-id="1280"></path><path d="M511.867 84v72c-27.925 0-60.508 31.804-87.082 93.128C395.216 317.363 378 411.295 378 512c0 46.136 3.613 90.85 10.372 132.323l102.017-81.455a8 8 0 0 1 12.987 6.538l-2.745 76.557 4.782-0.061c0.937-0.01 1.81-0.018 2.656-0.023l2.582-0.011 1.349-0.001c100.705 0 194.637-17.217 262.872-46.785C836.196 572.508 868 539.925 868 512h72c0 33.197-14.654 64.23-41.043 91.266-23.282 23.853-55.728 44.664-95.457 61.88-77.067 33.395-179.374 52.34-288.2 52.715l-7.219 0.02c-2.55 0.019-5.485 0.058-10.035 0.128l-1.413 39.36a8 8 0 0 1-13.479 5.538l-88.007-82.85c7.614 35.012 17.603 67.042 29.638 94.815 15.063 34.76 32.056 60.036 49.038 75.41l71.903-15.254a8 8 0 0 1 9.15 10.635l-40.17 107.119a8 8 0 0 1-10.02 4.78l-180.763-60.254a8 8 0 0 1 0.87-15.416l69.038-14.644c-12.94-18.3-24.684-39.689-35.11-63.748-16.882-38.958-30.07-84.367-39.035-133.807l-87.931 91.062A8 8 0 0 1 218 755.198v-91.143c-32.702-14.406-60.411-31.314-81.955-50.34C102.772 584.33 84 549.672 84 512h72c0 23.018 21.534 48.839 61.998 71.731l0.002-16.93a8 8 0 0 1 13.755-5.556l84.41 87.416C309.5 605.316 306 559.253 306 512c0-110.056 18.988-213.655 52.72-291.5 17.217-39.729 38.028-72.175 61.881-95.457C447.637 98.654 478.67 84 511.867 84z" fill="#19B172" p-id="1281"></path></svg>