<?xml version="1.0" standalone="no"?><!DOCTYPE svg PUBLIC "-//W3C//DTD SVG 1.1//EN" "http://www.w3.org/Graphics/SVG/1.1/DTD/svg11.dtd"><svg t="1724643951163" class="icon" viewBox="0 0 1024 1024" version="1.1" xmlns="http://www.w3.org/2000/svg" p-id="1601" xmlns:xlink="http://www.w3.org/1999/xlink" width="200" height="200"><path d="M156.01 512.84c0.629 27.736 32.407 59.934 93.118 86.242C317.363 628.65 411.295 645.867 512 645.867c43.27 0 85.291-3.179 124.56-9.15 5.986-39.314 9.173-81.389 9.173-124.717s-3.187-85.403-9.173-124.717c-39.269-5.971-81.29-9.15-124.56-9.15-100.705 0-194.637 17.217-262.872 46.785C187.804 451.492 156 484.075 156 512l0.01 0.84z m618.862-87.922c-19.27-8.35-40.59-15.716-63.534-21.986 4.208 35.11 6.395 71.717 6.395 109.068s-2.187 73.958-6.395 109.068c22.944-6.27 44.264-13.636 63.534-21.986C836.196 572.508 868 539.925 868 512c0-27.925-31.804-60.508-93.128-87.082zM940 512.995c-0.294 32.822-14.918 63.505-41.043 90.27-23.282 23.854-55.728 44.665-95.457 61.88-31.328 13.576-66.827 24.764-105.24 33.287-8.518 38.346-19.692 73.786-33.247 105.068-17.216 39.729-38.028 72.175-61.88 95.457C576.096 925.346 545.062 940 511.866 940v-72c27.924 0 60.508-31.804 87.082-93.128 8.331-19.227 15.682-40.495 21.944-63.38-35.056 4.195-71.604 6.375-108.893 6.375-110.056 0-213.655-18.988-291.5-52.721-39.729-17.216-72.175-38.027-95.457-61.88C98.654 576.23 84 545.197 84 512s14.654-64.23 41.043-91.266c23.282-23.853 55.728-44.664 95.457-61.88 77.845-33.733 181.444-52.72 291.5-52.72 37.29 0 73.837 2.18 108.893 6.374-6.262-22.885-13.613-44.153-21.944-63.38C572.375 187.804 539.79 156 511.867 156V84c33.197 0 64.23 14.654 91.265 41.043 23.853 23.282 44.665 55.728 61.88 95.457 13.556 31.282 24.73 66.722 33.248 105.069 38.413 8.522 73.912 19.71 105.24 33.285 39.729 17.216 72.175 38.027 95.457 61.88C925.346 447.77 940 478.803 940 512v0.995z" fill="#0A1B39" p-id="1602"></path><path d="M511.867 84v72c-27.925 0-60.508 31.804-87.082 93.128C395.216 317.363 378 411.295 378 512c0 100.705 17.216 194.637 46.785 262.872 15.063 34.76 32.056 60.036 49.038 75.41l71.903-15.254a8 8 0 0 1 9.15 10.635l-40.17 107.119a8 8 0 0 1-10.02 4.78l-180.763-60.254a8 8 0 0 1 0.87-15.416l69.038-14.644c-12.94-18.3-24.684-39.689-35.11-63.748C324.988 725.655 306 622.056 306 512c0-110.056 18.988-213.655 52.72-291.5 17.217-39.729 38.028-72.175 61.881-95.457C447.637 98.654 478.67 84 511.867 84z" fill="#19B172" p-id="1603"></path></svg>