<?xml version="1.0" standalone="no"?><!DOCTYPE svg PUBLIC "-//W3C//DTD SVG 1.1//EN" "http://www.w3.org/Graphics/SVG/1.1/DTD/svg11.dtd"><svg t="1724643955590" class="icon" viewBox="0 0 1024 1024" version="1.1" xmlns="http://www.w3.org/2000/svg" p-id="1766" xmlns:xlink="http://www.w3.org/1999/xlink" width="200" height="200"><path d="M156.032 512.832c0.64 27.712 32.384 59.968 93.12 86.272 68.224 29.568 162.112 46.72 262.848 46.72 43.264 0 85.312-3.136 124.544-9.088 6.016-39.36 9.216-81.408 9.216-124.736s-3.2-85.376-9.216-124.736A832.96 832.96 0 0 0 512 378.112c-100.736 0-194.624 17.28-262.848 46.784-61.376 26.624-93.12 59.2-93.12 87.104v0.832z m618.88-87.936a475.84 475.84 0 0 0-63.552-21.952c4.16 35.072 6.4 71.68 6.4 109.056 0 37.376-2.24 73.984-6.4 109.056 22.912-6.272 44.224-13.632 63.488-21.952 61.376-26.624 93.184-59.2 93.184-87.104 0-27.904-31.808-60.48-93.184-87.04z m165.12 88.128c-0.32 32.768-14.976 63.488-41.088 90.24-23.296 23.872-55.68 44.672-95.424 61.888a584.576 584.576 0 0 1-105.28 33.28 584.384 584.384 0 0 1-33.28 105.088c-17.152 39.68-37.952 72.128-61.824 95.424-27.008 26.432-58.048 41.088-91.264 41.088v-72.064c27.904 0 60.48-31.744 87.04-93.12 8.32-19.2 15.744-40.448 21.952-63.36-35.008 4.224-71.552 6.4-108.864 6.4-110.08 0-213.632-19.008-291.52-52.736-39.68-17.28-72.128-38.016-95.424-61.888C98.624 576.256 84.032 545.216 84.032 512c0-33.216 14.592-64.256 40.96-91.264 23.36-23.872 55.808-44.672 95.488-61.888 77.888-33.728 181.44-52.736 291.52-52.736 37.312 0 73.856 2.176 108.864 6.4a475.712 475.712 0 0 0-21.888-63.36c-26.624-61.376-59.2-93.12-87.104-93.12V83.968c33.216 0 64.256 14.72 91.264 41.088 23.872 23.296 44.672 55.68 61.888 95.424 13.568 31.36 24.704 66.752 33.28 105.088 38.4 8.512 73.856 19.712 105.216 33.28 39.68 17.28 72.128 38.016 95.424 61.888 26.432 27.008 41.088 58.048 41.088 91.264v1.024z" fill="#FFFFFF" fill-opacity=".6" p-id="1767"></path><path d="M511.872 84.032v72c-27.904 0-60.544 31.744-87.04 93.12C395.136 317.376 377.92 411.264 377.92 512c0 100.736 17.28 194.624 46.784 262.848 15.104 34.816 32.064 60.032 49.024 75.456l71.936-15.296a8 8 0 0 1 9.152 10.624l-40.192 107.136a8 8 0 0 1-9.984 4.8l-180.8-60.288a8 8 0 0 1 0.896-15.36l69.056-14.72a354.816 354.816 0 0 1-35.136-63.68c-33.664-77.888-52.672-181.44-52.672-291.52 0-110.08 19.008-213.632 52.736-291.52 17.216-39.68 38.016-72.128 61.888-95.424 27.008-26.432 58.048-41.024 91.264-41.024z" fill="#19B172" p-id="1768"></path></svg>