<?xml version="1.0" standalone="no"?><!DOCTYPE svg PUBLIC "-//W3C//DTD SVG 1.1//EN" "http://www.w3.org/Graphics/SVG/1.1/DTD/svg11.dtd"><svg t="1658236014066" class="icon" viewBox="0 0 1024 1024" version="1.1" xmlns="http://www.w3.org/2000/svg" p-id="32090" xmlns:xlink="http://www.w3.org/1999/xlink" width="200" height="200"><defs><style type="text/css">@font-face { font-family: feedback-iconfont; src: url("//at.alicdn.com/t/font_1031158_u69w8yhxdu.woff2?t=1630033759944") format("woff2"), url("//at.alicdn.com/t/font_1031158_u69w8yhxdu.woff?t=1630033759944") format("woff"), url("//at.alicdn.com/t/font_1031158_u69w8yhxdu.ttf?t=1630033759944") format("truetype"); }
</style></defs><path d="M504.76032 784l-253.42976-253.42976c-63.97952-63.97952-63.97952-167.72096 0-231.70048 63.98464-63.98464 167.72096-63.98464 231.7056 0L512 327.82848l28.96384-28.95872c63.98464-63.98464 167.72096-63.98464 231.7056 0 63.97952 63.97952 63.97952 167.72096 0 231.70048l-253.42976 253.42976a10.24 10.24 0 0 1-14.47936 0z" fill="#E52C3E" p-id="32091"></path><path d="M251.33056 298.86976c63.98464-63.98464 167.72096-63.98464 231.7056 0L512 327.82848 512 786.9952a10.20928 10.20928 0 0 1-7.23968-3.00032l-253.42976-253.42976c-63.97952-63.97952-63.97952-167.72096 0-231.70048z" fill="#CD070F" p-id="32092"></path><path d="M363.37664 460.8l60.97408-83.13856a5.12 5.12 0 0 1 7.81312-0.52736l136.41728 141.47584L626.39616 460.8H885.76a5.12 5.12 0 0 1 5.12 5.12v30.72a5.12 5.12 0 0 1-5.12 5.12h-242.40128l-71.61856 71.62368a5.12 5.12 0 0 1-7.30624-0.06656L432.21504 436.1984 384.13824 501.76H117.76a5.12 5.12 0 0 1-5.12-5.12v-30.72a5.12 5.12 0 0 1 5.12-5.12h245.61664z" fill="#FFC005" p-id="32093"></path></svg>