<?xml version="1.0" encoding="UTF-8"?>
<svg width="28px" height="28px" viewBox="0 0 28 28" version="1.1" xmlns="http://www.w3.org/2000/svg" xmlns:xlink="http://www.w3.org/1999/xlink">
    <defs>
        <linearGradient x1="0%" y1="0%" x2="100%" y2="100%" id="linearGradient-1">
            <stop stop-color="#2B6DE5" stop-opacity="0.9" offset="0%"></stop>
            <stop stop-color="#2B6DE5" offset="100%"></stop>
        </linearGradient>
        <linearGradient x1="0%" y1="0%" x2="50%" y2="50%" id="linearGradient-2">
            <stop stop-color="#FFFFFF" stop-opacity="0.15" offset="0%"></stop>
            <stop stop-color="#2B6DE5" stop-opacity="0.25" offset="100%"></stop>
        </linearGradient>
        <path d="M26,16 C26,21.5228475 21.5228475,26 16,26 C10.4771525,26 6,21.5228475 6,16 C6,10.4771525 10.4771525,6 16,6 C21.5228475,6 26,10.4771525 26,16 Z" id="path-3"></path>
        <filter x="-5.0%" y="-5.0%" width="110.0%" height="110.0%" filterUnits="objectBoundingBox" id="filter-4">
            <feGaussianBlur stdDeviation="0.5" in="SourceAlpha" result="shadowBlurInner1"></feGaussianBlur>
            <feOffset dx="1" dy="1" in="shadowBlurInner1" result="shadowOffsetInner1"></feOffset>
            <feComposite in="shadowOffsetInner1" in2="SourceAlpha" operator="arithmetic" k2="-1" k3="1" result="shadowInnerInner1"></feComposite>
            <feColorMatrix values="0 0 0 0 1   0 0 0 0 1   0 0 0 0 1  0 0 0 0.15 0" type="matrix" in="shadowInnerInner1"></feColorMatrix>
        </filter>
    </defs>
    <g stroke="none" stroke-width="1" fill="none" fill-rule="evenodd">
        <path d="M10,2 C14.418278,2 18,5.581722 18,10 C18,14.418278 14.418278,18 10,18 C5.581722,18 2,14.418278 2,10 C2,5.581722 5.581722,2 10,2 Z" id="矩形备份" fill="url(#linearGradient-1)"></path>
        <g>
            <use fill="url(#linearGradient-2)" fill-rule="evenodd" xlink:href="#path-3"></use>
            <use fill="black" fill-opacity="1" filter="url(#filter-4)" xlink:href="#path-3"></use>
        </g>
        <path d="M16.3739715,12.5603485 C16.4669313,12.637735 16.570336,12.7015267 16.6820967,12.7491089 C16.7938573,12.7972141 16.9144962,12.8217896 17.0367017,12.8207438 C17.158385,12.8212667 17.2795461,12.7972141 17.391829,12.7491089 C17.4968005,12.7051868 17.5928938,12.6419181 17.6748864,12.56244 C17.7552817,12.4809363 17.8192858,12.3847246 17.8634172,12.2790379 C17.9118592,12.1668381 17.9362342,12.0457054 17.9349649,11.923478 C17.9357021,11.8013016 17.9113489,11.6802773 17.8634172,11.5679182 C17.8158698,11.4567844 17.752355,11.3532049 17.6748864,11.2604635 C17.5935605,11.1797421 17.4974544,11.115475 17.391829,11.0711801 C17.2797549,11.0227687 17.1587519,10.9985386 17.0367017,11.0000682 C16.9151713,10.9993702 16.7947467,11.0231999 16.6826189,11.0701344 C16.5713805,11.1171938 16.4679758,11.1815083 16.3755383,11.2594177 C16.2977236,11.3519678 16.2345318,11.4554985 16.1864852,11.5668724 C16.1384386,11.679292 16.113893,11.8000778 16.1154597,11.9224323 C16.1145984,12.1609144 16.2076713,12.3901225 16.3744938,12.5603485 L16.3739715,12.5603485 Z M19.0896509,15.0414242 L17.8362604,15.0414242 C17.779808,15.0415513 17.727366,15.0122273 17.6978652,14.9640377 L16.7296211,13.387548 C16.6353841,13.2624984 16.5243099,13.151113 16.3995616,13.0565636 C16.3388994,13.0105372 16.2711689,12.9746881 16.1990191,12.9504185 C16.0844679,12.9129264 15.9623136,12.9050126 15.8438918,12.9274117 C15.8005454,12.9368236 15.757199,12.948327 15.714897,12.9624448 L13.2582517,13.7540884 C13.104473,13.8036079 13.000218,13.9468691 13.0002622,14.1086025 L13.0002622,16.0113706 C12.9946699,16.1753989 13.0788804,16.3294213 13.2199015,16.4130945 C13.3609226,16.4967677 13.5362982,16.4967677 13.6773193,16.4130945 C13.8183404,16.3294213 13.9025509,16.1753989 13.8969586,16.0113706 L13.8969586,14.7093941 C13.8969586,14.6398508 13.9413495,14.5786735 14.0071525,14.5567125 L14.9597293,14.2377544 L13.1423131,21.426861 C13.0766009,21.6629855 13.2109419,21.908498 13.445068,21.9801552 C13.6791941,22.0518124 13.9276802,21.9234689 14.0050635,21.6909165 L15.3613365,17.9245964 L16.4042618,19.3311494 C16.4773762,19.430497 16.5175892,19.5507599 16.5175892,19.6741601 L16.5175892,21.5371891 C16.5174506,21.6570061 16.5648569,21.7719707 16.6493792,21.8567921 C16.7339016,21.9416136 16.8486163,21.9893436 16.9682875,21.9894822 L16.9865661,21.9894822 C17.1062372,21.9894822 17.221007,21.9418851 17.3056272,21.8571618 C17.3902475,21.7724384 17.4377867,21.6575289 17.4377867,21.537712 L17.4377867,18.9274844 C17.4377867,18.8281367 17.4127189,18.7314036 17.3646722,18.645128 L16.1635064,16.5075858 L16.5170669,15.0414242 L16.9776879,15.7718906 C17.0434909,15.876467 17.1578628,15.9392129 17.2805906,15.9392129 L19.0901731,15.9392129 C19.3318355,15.9309538 19.5234783,15.7324163 19.5234783,15.4903186 C19.5234783,15.2482209 19.3318355,15.0496833 19.0901731,15.0414242 L19.0896509,15.0414242 Z" id="形状" fill="#FFFFFF" fill-rule="nonzero"></path>
    </g>
</svg>
