<?xml version="1.0" standalone="no"?><!DOCTYPE svg PUBLIC "-//W3C//DTD SVG 1.1//EN" "http://www.w3.org/Graphics/SVG/1.1/DTD/svg11.dtd"><svg t="1658235781855" class="icon" viewBox="0 0 1024 1024" version="1.1" xmlns="http://www.w3.org/2000/svg" p-id="28411" xmlns:xlink="http://www.w3.org/1999/xlink" width="200" height="200"><defs><style type="text/css">@font-face { font-family: feedback-iconfont; src: url("//at.alicdn.com/t/font_1031158_u69w8yhxdu.woff2?t=1630033759944") format("woff2"), url("//at.alicdn.com/t/font_1031158_u69w8yhxdu.woff?t=1630033759944") format("woff"), url("//at.alicdn.com/t/font_1031158_u69w8yhxdu.ttf?t=1630033759944") format("truetype"); }
</style></defs><path d="M194.583859 655.36h593.92V317.44H194.583859v337.92z m604.16 20.48H184.343859a10.24 10.24 0 0 1-10.24-10.24V307.2a10.24 10.24 0 0 1 10.24-10.24h614.4a10.24 10.24 0 0 1 10.24 10.24v358.4a10.24 10.24 0 0 1-10.24 10.24z" fill="#FFC005" p-id="28412"></path><path d="M798.733619 675.84c-1.75104 0-3.52256-0.45056-5.15072-1.39264l-614.4-358.4A10.25024 10.25024 0 0 1 189.504819 298.35264l614.4 358.4a10.24 10.24 0 0 1-5.1712 19.08736M593.933619 675.84c-1.75104 0-3.52256-0.45056-5.15072-1.39264l-409.6-238.92992a10.25024 10.25024 0 0 1 10.32192-17.69472l409.6 238.92992A10.24 10.24 0 0 1 593.933619 675.84M389.133619 675.84c-1.75104 0-3.52256-0.45056-5.15072-1.39264l-204.8-119.46496a10.25024 10.25024 0 0 1 10.32192-17.69472l204.8 119.46496A10.24 10.24 0 0 1 389.133619 675.84" fill="#FFC005" p-id="28413"></path><path d="M389.154099 675.84a10.24 10.24 0 0 1-5.1712-19.08736l409.6-238.92992a10.25024 10.25024 0 0 1 10.32192 17.69472l-409.6 238.92992a10.25536 10.25536 0 0 1-5.15072 1.39264M593.954099 675.84a10.24 10.24 0 0 1-5.1712-19.08736l204.8-119.46496a10.25024 10.25024 0 0 1 10.32192 17.69472l-204.8 119.46496a10.25536 10.25536 0 0 1-5.15072 1.39264M184.354099 556.96896a10.24 10.24 0 0 1-5.1712-19.08736l409.6-238.93504a10.25024 10.25024 0 0 1 10.32192 17.69472l-409.6 238.93504a10.25536 10.25536 0 0 1-5.15072 1.39264M184.354099 437.504a10.24 10.24 0 0 1-5.1712-19.08736l204.8-119.47008a10.25024 10.25024 0 0 1 10.32192 17.69472l-204.8 119.46496a10.25536 10.25536 0 0 1-5.15072 1.39264" fill="#FFC005" p-id="28414"></path><path d="M798.733619 556.96896c-1.75104 0-3.52256-0.45056-5.15072-1.39264l-409.6-238.93504A10.25024 10.25024 0 0 1 394.304819 298.94656l409.6 238.93504a10.24 10.24 0 0 1-5.1712 19.08736M798.733619 437.504c-1.75104 0-3.52256-0.45568-5.15072-1.39776l-204.8-119.46496A10.25024 10.25024 0 0 1 599.104819 298.94656l204.8 119.46496a10.24 10.24 0 0 1-5.1712 19.08736" fill="#FFC005" p-id="28415"></path><path d="M184.354099 675.84a10.24 10.24 0 0 1-5.1712-19.08736l614.4-358.4a10.25024 10.25024 0 0 1 10.32192 17.69472l-614.4 358.4A10.25536 10.25536 0 0 1 184.354099 675.84" fill="#FFC005" p-id="28416"></path><path d="M847.409459 624.10752c0 51.69664-41.91232 93.5936-93.60384 93.5936-51.69664 0-93.5936-41.89696-93.5936-93.5936 0-51.69664 41.89696-93.60384 93.5936-93.60384 51.69152 0 93.60384 41.9072 93.60384 93.60384" fill="#E52C3E" p-id="28417"></path><path d="M805.579059 634.34752H702.027059a10.24 10.24 0 0 1 0-20.48h103.552a10.24 10.24 0 0 1 0 20.48" fill="#FFFFFF" p-id="28418"></path></svg>