<?xml version="1.0" standalone="no"?><!DOCTYPE svg PUBLIC "-//W3C//DTD SVG 1.1//EN" "http://www.w3.org/Graphics/SVG/1.1/DTD/svg11.dtd"><svg t="1658234982723" class="icon" viewBox="0 0 1024 1024" version="1.1" xmlns="http://www.w3.org/2000/svg" p-id="26221" xmlns:xlink="http://www.w3.org/1999/xlink" width="200" height="200"><defs><style type="text/css">@font-face { font-family: feedback-iconfont; src: url("//at.alicdn.com/t/font_1031158_u69w8yhxdu.woff2?t=1630033759944") format("woff2"), url("//at.alicdn.com/t/font_1031158_u69w8yhxdu.woff?t=1630033759944") format("woff"), url("//at.alicdn.com/t/font_1031158_u69w8yhxdu.ttf?t=1630033759944") format("truetype"); }
</style></defs><path d="M453.07392 477.19424v39.97184c0 3.84512-3.11296 6.9632-6.95808 6.9632H307.33312a6.95296 6.95296 0 0 1-6.95808-6.9632v-39.97184c0-3.84 3.11296-6.95808 6.95808-6.95808h138.78272c3.84512 0 6.95808 3.11296 6.95808 6.9632m0 134.7328v39.96672c0 3.85024-3.11296 6.9632-6.95808 6.9632H307.33312a6.95808 6.95808 0 0 1-6.95808-6.9632v-39.96672c0-3.84 3.11296-6.95808 6.95808-6.95808h138.78272c3.84512 0 6.95808 3.11296 6.95808 6.9632m220.07296-26.95168v66.9184a6.9632 6.9632 0 0 1-6.9632 6.9632h-39.96672c-3.85024 0-6.9632-3.11808-6.9632-6.9632v-66.9184c0-3.84 3.11296-6.9632 6.9632-6.9632h39.96672c3.84512 0 6.9632 3.1232 6.9632 6.9632m-107.78624-181.4016v352.59904c0 5.7856 4.6848 10.4704 10.4704 10.4704h140.74368a10.4704 10.4704 0 0 0 10.46528-10.4704v-296.2944c0-4.28544-2.60608-8.13568-6.5792-9.72288l-140.7488-56.2944a10.46016 10.46016 0 0 0-14.35136 9.71264m-39.9616-157.51168L222.97088 321.6896A10.46528 10.46528 0 0 0 215.04 331.83744v424.3456c0 5.7856 4.68992 10.4704 10.4704 10.4704h302.42816a10.47552 10.47552 0 0 0 10.4704-10.4704V256.2304c0-6.8096-6.4-11.80672-13.00992-10.15808" fill="#2B6DE5" p-id="26222"></path><path d="M565.36064 403.58912v352.59904c0 5.77536 4.6848 10.46528 10.46528 10.46528h140.7488a10.46528 10.46528 0 0 0 10.46528-10.46528V459.88864c0-4.28032-2.60608-8.13568-6.5792-9.72288l-140.7488-56.29952a10.47552 10.47552 0 0 0-3.89632-0.75776c-5.5296 0-10.45504 4.46976-10.45504 10.48064m53.89312 248.30976v-66.91328c0-3.84512 3.11296-6.95808 6.96832-6.95808h39.9616c3.84512 0 6.9632 3.11296 6.9632 6.95808v66.91328a6.9632 6.9632 0 0 1-6.9632 6.96832h-39.9616a6.9632 6.9632 0 0 1-6.96832-6.96832" fill="#02134D" fill-opacity=".15" p-id="26223"></path><path d="M811.57632 693.5296C811.57632 745.22624 769.664 787.13344 717.9776 787.13344S624.384 745.22624 624.384 693.5296 666.27584 599.936 717.97248 599.936c51.69664 0 93.60384 41.89696 93.60384 93.5936" fill="#E52C3E" p-id="26224"></path><path d="M655.36 686.08m10.24 0l102.4 0q10.24 0 10.24 10.24l0 0q0 10.24-10.24 10.24l-102.4 0q-10.24 0-10.24-10.24l0 0q0-10.24 10.24-10.24Z" fill="#FFFFFF" p-id="26225"></path></svg>
