<?xml version="1.0" standalone="no"?><!DOCTYPE svg PUBLIC "-//W3C//DTD SVG 1.1//EN" "http://www.w3.org/Graphics/SVG/1.1/DTD/svg11.dtd"><svg t="1658234969638" class="icon" viewBox="0 0 1024 1024" version="1.1" xmlns="http://www.w3.org/2000/svg" p-id="26073" xmlns:xlink="http://www.w3.org/1999/xlink" width="200" height="200"><defs><style type="text/css">@font-face { font-family: feedback-iconfont; src: url("//at.alicdn.com/t/font_1031158_u69w8yhxdu.woff2?t=1630033759944") format("woff2"), url("//at.alicdn.com/t/font_1031158_u69w8yhxdu.woff?t=1630033759944") format("woff"), url("//at.alicdn.com/t/font_1031158_u69w8yhxdu.ttf?t=1630033759944") format("truetype"); }
</style></defs><path d="M509.60896 240.64a39.28576 39.28576 0 0 0-39.29088 39.28576v7.90528l-118.76864 48.82944a19.08736 19.08736 0 0 0-11.83232 17.65888v86.64576l-57.51808 23.64928a17.14176 17.14176 0 0 0-8.01792 24.94464l102.8352 164.5056 0.5888 0.41984a96.256 96.256 0 0 1 46.58688 25.82528l8.3968 8.3968a0.97792 0.97792 0 0 0 1.38752 0l6.55872-6.55872c17.36704-17.37216 40.28416-28.71808 64.80896-30.10048 28.01664-1.57184 54.60992 8.61696 74.25536 28.2624l8.66816 8.66816a0.98304 0.98304 0 0 0 1.3824 0.00512l9.43616-9.3184a96.22528 96.22528 0 0 1 41.98912-24.27392c0.19968-0.13824 0.36352-0.26624 0.55808-0.4096l103.40864-165.42208a17.14688 17.14688 0 0 0-8.01792-24.94464l-57.5232-23.64928V354.31936a19.11296 19.11296 0 0 0-11.8272-17.65888l-118.77376-48.82944v-7.90528A39.28576 39.28576 0 0 0 509.60896 240.64z" fill="#2B6DE5" p-id="26074"></path><path d="M377.9072 367.11936l131.70176-54.15936 131.70176 54.15936v58.14272l-125.184-51.47136a17.152 17.152 0 0 0-13.03552 0L377.9072 425.26208V367.11936z" fill="#FFFFFF" p-id="26075"></path><path d="M747.15136 710.55872c-27.15648-27.16672-71.53664-27.3152-98.8928-0.32768l-26.84416 26.496a24.71936 24.71936 0 0 1-34.72896-0.11776l-25.82528-25.8304a69.68832 69.68832 0 0 0-49.6128-20.54144c-18.7392 0-36.352 7.296-49.6128 20.54144l-25.6 25.61024a24.6528 24.6528 0 0 1-34.8416 0l-25.6-25.61024a69.69856 69.69856 0 0 0-49.6128-20.54144c-18.7392 0-36.36736 7.296-49.6128 20.54144l-39.30112 39.30624a22.76352 22.76352 0 1 0 32.19456 32.18944l39.296-39.30624a24.48896 24.48896 0 0 1 17.41824-7.21408 24.4736 24.4736 0 0 1 17.41824 7.2192l25.61024 25.61024c27.35616 27.34592 71.86432 27.35104 99.2256 0l25.6-25.61536a24.48896 24.48896 0 0 1 17.41824-7.21408c6.58432 0 12.76928 2.57024 17.42848 7.2192l25.82016 25.82528c27.17184 27.17696 71.54176 27.32544 98.89792 0.3328l26.83904-26.50112c9.60512-9.46176 25.18016-9.42592 34.69824 0.09216l39.7824 39.92576a22.70208 22.70208 0 0 0 16.128 6.7072 22.76352 22.76352 0 0 0 16.12288-38.83008l-39.81312-39.96672z" fill="#2B6DE5" p-id="26076"></path><path d="M793.6 690.08896c0 51.69664-41.9072 93.5936-93.59872 93.5936-51.70176 0-93.60384-41.89696-93.60384-93.5936C606.39744 638.39232 648.29952 596.48 700.00128 596.48 751.6928 596.48 793.6 638.39232 793.6 690.08896" fill="#E52C3E" p-id="26077"></path><path d="M640 680.96m10.24 0l102.4 0q10.24 0 10.24 10.24l0 0q0 10.24-10.24 10.24l-102.4 0q-10.24 0-10.24-10.24l0 0q0-10.24 10.24-10.24Z" fill="#FFFFFF" p-id="26078"></path></svg>