<?xml version="1.0" standalone="no"?><!DOCTYPE svg PUBLIC "-//W3C//DTD SVG 1.1//EN" "http://www.w3.org/Graphics/SVG/1.1/DTD/svg11.dtd"><svg t="1658235811267" class="icon" viewBox="0 0 1024 1024" version="1.1" xmlns="http://www.w3.org/2000/svg" p-id="28852" xmlns:xlink="http://www.w3.org/1999/xlink" width="200" height="200"><defs><style type="text/css">@font-face { font-family: feedback-iconfont; src: url("//at.alicdn.com/t/font_1031158_u69w8yhxdu.woff2?t=1630033759944") format("woff2"), url("//at.alicdn.com/t/font_1031158_u69w8yhxdu.woff?t=1630033759944") format("woff"), url("//at.alicdn.com/t/font_1031158_u69w8yhxdu.ttf?t=1630033759944") format("truetype"); }
</style></defs><path d="M804.21376 621.56288v-3.89632c-0.0512-133.376-88.89344-246.03136-210.9696-282.05056C588.78976 305.1264 562.8672 281.67168 531.15392 281.6h-42.0096c-31.71328 0.07168-57.63584 23.5264-62.09024 54.016C304.98304 371.6352 216.13056 484.29568 216.0896 617.66656v3.89632C191.68768 630.26176 174.13632 653.29152 174.08 680.68352a63.10912 63.10912 0 0 0 63.01184 63.01184H783.2064c34.80064-0.0768 62.92992-28.2112 63.01184-63.01184-0.06144-27.392-17.60768-50.42176-42.00448-59.12064" fill="#FFC005" p-id="28853"></path><path d="M489.14432 323.61472c-11.4176 0.01536-20.98688 9.58464-21.00736 21.00224v7.13728a21.05856 21.05856 0 0 1-16.15872 20.43904C340.75136 398.55616 258.05312 498.62656 258.0992 617.66656v21.01248a21.1456 21.1456 0 0 1-6.15424 14.848 21.0944 21.0944 0 0 1-14.85312 6.15424c-11.41248 0.01536-20.98176 9.58976-21.00736 21.00224 0.0256 11.4176 9.59488 20.98688 21.00736 21.00736h273.05472V323.61472h-21.00224z" fill="#FFB103" p-id="28854"></path><path d="M216.08448 680.68352c0.0256-11.4176 9.59488-20.992 21.00736-21.00224a21.0944 21.0944 0 0 0 14.85312-6.15424 21.1456 21.1456 0 0 0 6.15424-14.848v-21.01248c-0.04608-119.04 82.65216-219.1104 193.87904-245.47328a21.05856 21.05856 0 0 0 16.15872-20.43904v-7.1424c0.02048-11.4176 9.58976-20.98176 21.00736-20.99712h21.00224V281.6h-21.00224c-31.71328 0.07168-57.63584 23.5264-62.09024 54.016C304.98304 371.64032 216.13056 484.3008 216.08448 617.67168v3.8912C191.68768 630.26688 174.14144 653.29664 174.08 680.68864c0.0768 34.80064 28.21632 62.93504 63.01184 63.01696h273.05472v-42.0096H237.09184c-11.41248-0.02048-20.98176-9.58464-21.00736-21.00736" fill="#FFAD03" p-id="28855"></path><path d="M783.2064 659.68128a21.0944 21.0944 0 0 1-14.85312-6.15424 21.12512 21.12512 0 0 1-6.15424-14.848v-21.01248c0.04608-119.04-82.65728-219.1104-193.87904-245.47328a21.05856 21.05856 0 0 1-16.15872-20.43904v-7.1424c-0.02048-11.4176-9.59488-20.98176-21.00736-20.99712h-21.00736V281.6h21.00736c31.71328 0.07168 57.63584 23.5264 62.09024 54.016 122.07104 36.0192 210.92352 148.6848 210.9696 282.05056v3.8912c24.3968 8.704 41.94304 31.73376 42.00448 59.12576-0.0768 34.80064-28.21632 62.93504-63.01184 63.01696H510.14656v-42.0096h273.05984c11.41248-0.02048 20.98176-9.58464 21.00736-21.00736-0.0256-11.4176-9.59488-20.992-21.00736-21.00224z" fill="#FFB604" p-id="28856"></path><path d="M887.17824 656.45056c0 51.69664-41.91232 93.59872-93.60384 93.59872-51.69664 0-93.5936-41.90208-93.5936-93.5936 0-51.70176 41.89696-93.60896 93.5936-93.60896 51.69152 0 93.60384 41.9072 93.60384 93.60384" fill="#E52C3E" p-id="28857"></path><path d="M732.16 645.12m10.24 0l102.4 0q10.24 0 10.24 10.24l0 0q0 10.24-10.24 10.24l-102.4 0q-10.24 0-10.24-10.24l0 0q0-10.24 10.24-10.24Z" fill="#FFFFFF" p-id="28858"></path></svg>