<?xml version="1.0" standalone="no"?><!DOCTYPE svg PUBLIC "-//W3C//DTD SVG 1.1//EN" "http://www.w3.org/Graphics/SVG/1.1/DTD/svg11.dtd"><svg t="1658235826586" class="icon" viewBox="0 0 1024 1024" version="1.1" xmlns="http://www.w3.org/2000/svg" p-id="29146" xmlns:xlink="http://www.w3.org/1999/xlink" width="200" height="200"><defs><style type="text/css">@font-face { font-family: feedback-iconfont; src: url("//at.alicdn.com/t/font_1031158_u69w8yhxdu.woff2?t=1630033759944") format("woff2"), url("//at.alicdn.com/t/font_1031158_u69w8yhxdu.woff?t=1630033759944") format("woff"), url("//at.alicdn.com/t/font_1031158_u69w8yhxdu.ttf?t=1630033759944") format("truetype"); }
</style></defs><path d="M508.63616 883.52256c-167.80288 0-303.83616-45.34272-303.83616-101.27872C204.8 726.30784 340.83328 680.96 508.63616 680.96s303.83616 45.34784 303.83616 101.28384-136.03328 101.27872-303.83616 101.27872" fill="#DFE0E4" p-id="29147"></path><path d="M692.28032 782.68928c0 33.5616-81.6128 60.76416-182.2976 60.76416-100.68992 0-182.30272-27.20256-182.30272-60.76416C327.68 749.12768 409.2928 721.92 509.98272 721.92c100.6848 0 182.2976 27.20768 182.2976 60.76928" fill="#C3C3CB" p-id="29148"></path><path d="M319.26784 596.5056l189.81888 189.81888 189.81888-189.81888c104.83712-104.83712 104.83712-274.80576 0-379.63776-104.832-104.83712-274.80064-104.83712-379.63776 0-104.83712 104.832-104.83712 274.80064 0 379.63776" fill="#E52C3E" p-id="29149"></path><path d="M316.60544 406.8096c0 105.78944 85.76 191.54432 191.54432 191.54432s191.54432-85.75488 191.54432-191.54432c0-105.78432-85.76-191.5392-191.5392-191.5392-105.79456 0-191.54944 85.75488-191.54944 191.5392" fill="#E52C3E" p-id="29150"></path><path d="M316.60544 406.8096c0 105.78944 85.76 191.54432 191.54432 191.54432s191.54432-85.75488 191.54432-191.54432c0-105.78432-85.76-191.5392-191.5392-191.5392-105.79456 0-191.54944 85.75488-191.54944 191.5392" fill="#CD070F" p-id="29151"></path><path d="M508.63616 354.24256a41.38496 41.38496 0 0 0 41.38496-41.39008 41.38496 41.38496 0 1 0-82.76992 0 41.38496 41.38496 0 0 0 41.38496 41.39008M508.63616 374.12864a41.38496 41.38496 0 0 0-41.38496 41.38496c0 3.05664 0.34816 6.02112 0.97792 8.8832l12.04736 109.11232a6.92224 6.92224 0 0 0 6.8864 6.16448h42.94656c3.53792 0 6.5024-2.65728 6.89152-6.16448l12.04224-109.1072a41.38496 41.38496 0 0 0-40.40704-50.26816" fill="#FFFFFF" p-id="29152"></path></svg>