<?xml version="1.0" standalone="no"?><!DOCTYPE svg PUBLIC "-//W3C//DTD SVG 1.1//EN" "http://www.w3.org/Graphics/SVG/1.1/DTD/svg11.dtd"><svg t="1658235880125" class="icon" viewBox="0 0 1024 1024" version="1.1" xmlns="http://www.w3.org/2000/svg" p-id="30169" xmlns:xlink="http://www.w3.org/1999/xlink" width="200" height="200"><defs><style type="text/css">@font-face { font-family: feedback-iconfont; src: url("//at.alicdn.com/t/font_1031158_u69w8yhxdu.woff2?t=1630033759944") format("woff2"), url("//at.alicdn.com/t/font_1031158_u69w8yhxdu.woff?t=1630033759944") format("woff"), url("//at.alicdn.com/t/font_1031158_u69w8yhxdu.ttf?t=1630033759944") format("truetype"); }
</style></defs><path d="M817.59232 786.3296c0 55.92576-136.02816 101.2736-303.83616 101.2736C345.9584 887.6032 209.92 842.25024 209.92 786.3296c0-55.94112 136.0384-101.28384 303.84128-101.28384 167.808 0 303.83616 45.34272 303.83616 101.27872" fill="#DFE0E4" p-id="30170"></path><path d="M696.05888 786.3296c0 33.55648-81.61792 60.75904-182.2976 60.75904-100.68992 0-182.30784-27.20256-182.30784-60.76416 0-33.56672 81.6128-60.76928 182.30784-60.76928 100.67968 0 182.2976 27.20256 182.2976 60.7744" fill="#C3C3CB" p-id="30171"></path><path d="M323.9424 596.5056l189.81376 189.81888 189.81888-189.81888c104.832-104.83712 104.832-274.80576 0-379.63776-104.832-104.83712-274.80064-104.83712-379.63776 0-104.83712 104.832-104.83712 274.80064 0 379.63776" fill="#E52C3E" p-id="30172"></path><path d="M322.21184 406.8096c0 105.78432 85.76 191.54432 191.54432 191.54432s191.54432-85.76 191.54432-191.5392c0-105.78944-85.76-191.54944-191.5392-191.54944-105.79456 0-191.54944 85.76-191.54944 191.54432" fill="#CD070F" p-id="30173"></path><path d="M589.1328 445.40416a18.304 18.304 0 0 1-18.27328-18.25792 18.29376 18.29376 0 0 1 18.2784-18.26816 18.28352 18.28352 0 0 1 18.24768 18.26816c0 10.04544-8.192 18.25792-18.2528 18.25792m-150.19008 0a18.29888 18.29888 0 0 1-18.26816-18.25792c0-10.06592 8.192-18.26816 18.26816-18.26816a18.2784 18.2784 0 0 1 18.2528 18.26816 18.28864 18.28864 0 0 1-18.2528 18.25792m-2.45248-66.44224c0.9472-3.46112 7.296-30.60224 10.112-40.00768 1.15712-3.24608 8.6784-12.91776 17.44896-12.36992h99.4048c8.77056-0.55296 16.30208 9.1136 17.43872 12.36992 2.82112 9.40544 9.16992 36.54656 10.12736 40.00768 1.13664 4.10624-2.60096 3.74784-2.60096 3.74784H439.0912s-3.7376 0.3584-2.60096-3.74784m192.54784 15.80544c-2.01728-4.02432-7.56224-8.61184-7.56224-8.61184l-22.8608-61.21472c-4.74624-11.60192-18.72384-17.72032-24.81664-17.72032H453.71392c-6.10304 0-20.06528 6.1184-24.81152 17.72544L406.03136 386.1504s-5.5296 4.5824-7.56224 8.61184c-2.03776 4.02432-4.24448 7.61856-4.24448 34.74944 0 26.4704 5.30944 35.87584 11.65312 39.13728l5.0176 2.83648v24.58624c0 7.9616 1.8944 10.33216 9.472 10.33216h16.9728c7.56224 0 12.65664 0.0256 12.65664-7.936v-23.9104h127.50848v23.9104c0 7.9616 5.09952 7.936 12.65664 7.936h16.98816c7.56736 0 9.45664-2.37056 9.45664-10.33728v-24.576l5.0176-2.8416c6.3488-3.26656 11.65312-12.66176 11.66336-39.1424 0.00512-27.12576-2.21184-30.72-4.2496-34.7392" fill="#FFFFFF" p-id="30174"></path></svg>