<?xml version="1.0" encoding="UTF-8"?>
<svg width="48px" height="48px" viewBox="0 0 48 48" version="1.1" xmlns="http://www.w3.org/2000/svg" xmlns:xlink="http://www.w3.org/1999/xlink">
    <defs>
        <linearGradient x1="100%" y1="81.1663539%" x2="100%" y2="0%" id="loading-pro-left-pro">
            <stop stop-color="currentColor" stop-opacity="0.496609348" offset="0%"></stop>
            <stop stop-color="currentColor" offset="100%"></stop>
        </linearGradient>
        <linearGradient x1="0%" y1="62.4565186%" x2="0%" y2="0%" id="loading-pro-right-pro">
            <stop stop-color="currentColor" stop-opacity="0.5" offset="0%"></stop>
            <stop stop-color="currentColor" stop-opacity="0" offset="100%"></stop>
        </linearGradient>
    </defs>
    <g id="控件" stroke="none" stroke-width="1" fill="none" fill-rule="evenodd">
        <g id="info-circle备份">
            <rect id="矩形" fill="#000000" fill-rule="nonzero" opacity="0" x="0" y="0" width="48" height="48"></rect>
            <path d="M24,3 L24,10.875 C16.7530242,10.875 10.875,16.7530242 10.875,24 C10.875,31.2469758 16.7530242,37.125 24,37.125 L24,45 C12.403125,45 3,35.596875 3,24 C3,12.403125 12.403125,3 24,3 Z" fill="url(#loading-pro-left-pro)"></path>
            <path d="M45,24 C45,35.596875 35.596875,45 24,45 L24,37.125 C31.2469758,37.125 37.125,31.2469758 37.125,24 L45,24 Z" fill="url(#loading-pro-right-pro)"></path>
        </g>
    </g>
</svg>
