<?xml version="1.0" encoding="UTF-8"?>
<svg width="28px" height="28px" viewBox="0 0 28 28" version="1.1" xmlns="http://www.w3.org/2000/svg" xmlns:xlink="http://www.w3.org/1999/xlink">
    <defs>
        <linearGradient x1="0%" y1="21.875%" x2="100%" y2="78.125%" id="linearGradient-1">
            <stop stop-color="#2B6DE5" stop-opacity="0.9" offset="0%"></stop>
            <stop stop-color="#2B6DE5" offset="100%"></stop>
        </linearGradient>
        <linearGradient x1="0%" y1="18%" x2="50%" y2="50%" id="linearGradient-2">
            <stop stop-color="#FFFFFF" stop-opacity="0.15" offset="0%"></stop>
            <stop stop-color="#2B6DE5" stop-opacity="0.25" offset="100%"></stop>
        </linearGradient>
        <path d="M26,10 L26,22 C26,23.1045695 25.1045695,24 24,24 L8,24 C6.8954305,24 6,23.1045695 6,22 L6,10 C6,8.8954305 6.8954305,8 8,8 L24,8 C25.1045695,8 26,8.8954305 26,10 Z" id="path-3"></path>
        <filter x="-5.0%" y="-6.2%" width="110.0%" height="112.5%" filterUnits="objectBoundingBox" id="filter-4">
            <feGaussianBlur stdDeviation="0.5" in="SourceAlpha" result="shadowBlurInner1"></feGaussianBlur>
            <feOffset dx="1" dy="1" in="shadowBlurInner1" result="shadowOffsetInner1"></feOffset>
            <feComposite in="shadowOffsetInner1" in2="SourceAlpha" operator="arithmetic" k2="-1" k3="1" result="shadowInnerInner1"></feComposite>
            <feColorMatrix values="0 0 0 0 1   0 0 0 0 1   0 0 0 0 1  0 0 0 0.15 0" type="matrix" in="shadowInnerInner1"></feColorMatrix>
        </filter>
    </defs>
    <g stroke="none" stroke-width="1" fill="none" fill-rule="evenodd">
        <path d="M4,4 L16,4 C17.1045695,4 18,4.8954305 18,6 L18,14 C18,15.1045695 17.1045695,16 16,16 L4,16 C2.8954305,16 2,15.1045695 2,14 L2,6 C2,4.8954305 2.8954305,4 4,4 Z" id="矩形" fill="url(#linearGradient-1)"></path>
        <g>
            <use fill="url(#linearGradient-2)" fill-rule="evenodd" xlink:href="#path-3"></use>
            <use fill="black" fill-opacity="1" filter="url(#filter-4)" xlink:href="#path-3"></use>
        </g>
        <path d="M16.2236068,15.6708204 C16.3203705,15.7192022 16.3988317,15.7976635 16.4472136,15.8944272 L18.6381966,20.2763932 C18.7616912,20.5233825 18.6615791,20.823719 18.4145898,20.9472136 C18.3451621,20.9819275 18.2686056,21 18.190983,21 L13.809017,21 C13.5328746,21 13.309017,20.7761424 13.309017,20.5 C13.309017,20.4223775 13.3270895,20.3458209 13.3618034,20.2763932 L15.5527864,15.8944272 C15.676281,15.6474379 15.9766175,15.5473258 16.2236068,15.6708204 Z M13.4305536,11.6281931 L13.4616261,11.6560987 L13.6307705,11.8252431 C13.7454251,11.939882 13.7703952,12.1127285 13.7006871,12.252719 L13.6579201,12.3195547 C13.2462431,12.8331413 13,13.4850504 13,14.1944726 C13,14.8095254 13.1850884,15.3813484 13.5026049,15.8572814 L13.6277783,16.0311585 C13.7614575,16.2035645 13.7460247,16.4484902 13.5917409,16.6027318 L13.4243645,16.7701081 C13.2909535,16.9035208 13.0746502,16.9035208 12.9412383,16.7701089 L12.9198679,16.7466546 C12.345371,16.0540897 12,15.164614 12,14.1944726 C12,13.3242701 12.2778795,12.5189698 12.7497446,11.8624656 L12.8831816,11.6871712 C13.0180478,11.5197322 13.2631146,11.4933268 13.4305536,11.6281931 Z M19.0335433,11.5885602 L19.0502074,11.606638 C19.6426148,12.3042023 20,13.2076016 20,14.1944726 C20,15.066258 19.7211087,15.8729049 19.2476786,16.5300606 L19.1138014,16.7055152 C18.980085,16.8711209 18.7374365,16.8969723 18.5718307,16.7632558 L18.4444902,16.6389629 C18.2917425,16.4859656 18.2577994,16.2553482 18.3530088,16.06915 L18.4044807,15.9887859 C18.7785158,15.4883675 19,14.8672853 19,14.1944726 C19,13.5678999 18.8079132,12.9861915 18.4794148,12.5050224 L18.3499423,12.3294056 C18.2276107,12.1754765 18.2402201,11.9542654 18.3792446,11.815228 L18.6059298,11.5885428 C18.7240246,11.4704828 18.9154659,11.4704828 19.0335433,11.5885602 Z M17.5749761,12.9650189 L17.5972115,12.9905752 C17.8500622,13.3255046 18,13.7424787 18,14.1944726 C18,14.5747146 17.8938877,14.9301727 17.7096599,15.2328501 L17.611166,15.3796607 C17.5253356,15.4961448 17.3613274,15.5209946 17.2448433,15.4351643 L17.2150157,15.4094883 L16.8634857,15.0579583 C16.7973195,14.9917637 16.7758615,14.8955746 16.8031381,14.8098985 L16.8327963,14.7482454 C16.9384326,14.5897001 17,14.3992763 17,14.1944726 C17,14.0346788 16.9625203,13.8836389 16.8958723,13.7496641 L16.8405471,13.6525125 C16.7721763,13.546692 16.7869702,13.4074975 16.8760585,13.3184142 L17.2294322,12.9650405 C17.3248359,12.8695937 17.4795508,12.8695937 17.5749761,12.9650189 Z M14.7731248,12.9737571 L14.8119169,13.0063896 L15.0095773,13.2040499 C15.134067,13.3285449 15.1789508,13.5090565 15.1323482,13.6742595 L15.1013681,13.7552551 C15.036446,13.8878353 15,14.0368978 15,14.1944726 C15,14.3370248 15.0298279,14.4726102 15.083583,14.5953282 L15.1450953,14.7135385 C15.2196668,14.8360956 15.2007539,14.9937559 15.0992928,15.0951799 L14.8038492,15.3906234 C14.6926241,15.5017949 14.512336,15.5017949 14.4011376,15.3905966 L14.3706697,15.3546069 C14.1372907,15.0274297 14,14.6269842 14,14.1944726 C14,13.827834 14.0986557,13.4842376 14.2708689,13.1887818 L14.3629891,13.0451818 C14.4565215,12.9122026 14.6401455,12.8802247 14.7731248,12.9737571 Z" id="形状结合" fill="#FFFFFF" fill-rule="nonzero"></path>
    </g>
</svg>
