<?xml version="1.0" standalone="no"?><!DOCTYPE svg PUBLIC "-//W3C//DTD SVG 1.1//EN" "http://www.w3.org/Graphics/SVG/1.1/DTD/svg11.dtd"><svg t="1658233713940" class="icon" viewBox="0 0 1024 1024" version="1.1" xmlns="http://www.w3.org/2000/svg" p-id="24324" xmlns:xlink="http://www.w3.org/1999/xlink" width="200" height="200"><defs><style type="text/css">@font-face { font-family: feedback-iconfont; src: url("//at.alicdn.com/t/font_1031158_u69w8yhxdu.woff2?t=1630033759944") format("woff2"), url("//at.alicdn.com/t/font_1031158_u69w8yhxdu.woff?t=1630033759944") format("woff"), url("//at.alicdn.com/t/font_1031158_u69w8yhxdu.ttf?t=1630033759944") format("truetype"); }
</style></defs><path d="M514.26304 245.76c-148.4544 0-268.8 120.3456-268.8 268.8s120.3456 268.8 268.8 268.8 268.8-120.3456 268.8-268.8-120.3456-268.8-268.8-268.8" fill="#2B6DE5" p-id="24325"></path><path d="M514.25792 245.76c-148.4544 0-268.79488 120.3456-268.79488 268.8S365.80352 783.36 514.25792 783.36c148.45952 0 268.80512-120.3456 268.80512-268.8S662.71744 245.76 514.25792 245.76z" fill="#02134D" fill-opacity=".15" p-id="24326"></path><path d="M552.33536 492.3136a43.84256 43.84256 0 0 1 6.07744 22.2464 43.84256 43.84256 0 0 1-6.07744 22.2464 44.3648 44.3648 0 0 1-15.83104 15.82592 43.79648 43.79648 0 0 1-22.2464 6.08256 43.81184 43.81184 0 0 1-22.2464-6.08256 44.3904 44.3904 0 0 1-15.8208-15.8208 43.84768 43.84768 0 0 1-6.08768-22.25152c0-8.1152 2.2528-15.70816 6.08256-22.2464a44.40576 44.40576 0 0 1 15.82592-15.83104 43.8528 43.8528 0 0 1 22.2464-6.07232c8.1152 0 15.70816 2.23744 22.2464 6.07232a44.38016 44.38016 0 0 1 15.83104 15.83104m-15.83104 197.20704v-44.96384c54.94272-9.3696 98.38592-52.8128 107.76064-107.7504H689.21856c-10.05568 79.5136-73.20064 142.65344-152.71424 152.71424m-197.1968-152.71424h44.9536c9.37472 54.9376 52.8128 98.37568 107.7504 107.7504v44.96384c-79.50848-10.0608-142.65344-73.20576-152.704-152.71424m152.704-197.20704V384.55296c-54.9376 9.37472-98.37568 52.82304-107.7504 107.76064h-44.9536c10.05056-79.50848 73.19552-142.65856 152.704-152.71424m110.8992 174.96064c0 7.69536-1.09056 15.12448-2.944 22.2464a88.832 88.832 0 0 1-63.4624 63.4624c-7.1168 1.84832-14.55104 2.93888-22.2464 2.93888a88.3712 88.3712 0 0 1-22.2464-2.93888 88.832 88.832 0 0 1-63.4624-63.4624 88.34048 88.34048 0 0 1-2.93888-22.2464c0-7.69536 1.09056-15.11936 2.93888-22.2464A88.832 88.832 0 0 1 492.01152 428.8512a88.1408 88.1408 0 0 1 22.2464-2.93888c7.69536 0 15.1296 1.08544 22.2464 2.93888a88.832 88.832 0 0 1 63.4624 63.4624c1.85344 7.12704 2.93888 14.55104 2.93888 22.2464m86.31296-22.2464H644.26496c-9.3696-54.9376-52.81792-98.38592-107.76064-107.76064V339.59936c79.5136 10.05568 142.65856 73.20576 152.71424 152.71424m-174.96064-198.46656c-121.89184 0-220.70784 98.816-220.70784 220.71296 0 121.89184 98.816 220.71296 220.70784 220.71296 121.89696 0 220.71296-98.816 220.71296-220.71296 0-121.89696-98.816-220.71296-220.71296-220.71296" fill="#FFFFFF" p-id="24327"></path><path d="M779.56096 358.15936a5.92384 5.92384 0 0 1-0.18432-11.84256c4.0704-0.12288 8.0896-0.21504 12.032-0.25088h0.06144a5.9136 5.9136 0 0 1 0.06144 11.83744c-3.88608 0.03584-7.808 0.13312-11.78624 0.256h-0.18432z m53.59616 0.52224c-0.1024 0-0.22016 0-0.33792-0.01024-3.85024-0.22016-7.76704-0.384-11.776-0.52224a5.9392 5.9392 0 0 1-5.71904-6.12864c0.11776-3.26144 2.78528-5.36576 6.13376-5.7088 4.07552 0.13312 8.0896 0.31744 12.032 0.5376a5.91872 5.91872 0 0 1-0.3328 11.83232z m41.44128 4.43904a5.2736 5.2736 0 0 1-0.98304-0.08192 349.71136 349.71136 0 0 0-11.59168-1.72544 5.92896 5.92896 0 0 1 1.55136-11.74528c4.1216 0.54784 8.12032 1.14688 11.9808 1.792a5.92384 5.92384 0 0 1-0.95744 11.76064z m40.11008 10.94656a6.0928 6.0928 0 0 1-2.304-0.45568 124.94336 124.94336 0 0 0-10.67008-3.93728 5.92384 5.92384 0 0 1-3.84-7.44448 5.95456 5.95456 0 0 1 7.44448-3.84c4.15744 1.3312 8.04352 2.77504 11.6736 4.30592a5.9136 5.9136 0 0 1-2.304 11.37152z m31.09376 26.17344c-2.29376 0-4.46464-1.3312-5.43744-3.56864a30.89408 30.89408 0 0 0-5.4272-8.30976 5.90336 5.90336 0 0 1 0.44544-8.35584 5.89824 5.89824 0 0 1 8.35584 0.44544 42.69056 42.69056 0 0 1 7.49568 11.50976 5.92896 5.92896 0 0 1-5.4272 8.27904z m-6.0928 39.424c-1.06496 0-2.14528-0.28672-3.11296-0.87552a5.9392 5.9392 0 0 1-1.93024-8.15616c2.03264-3.2768 3.69152-6.528 4.92544-9.63072a5.9648 5.9648 0 0 1 7.69024-3.31776c3.04128 1.21344 4.52096 4.6592 3.31776 7.69024a75.53536 75.53536 0 0 1-5.84704 11.48416c-1.1264 1.8176-3.06688 2.80576-5.04832 2.80576z m-27.45344 31.20128a5.92384 5.92384 0 0 1-3.9424-10.3424 194.88256 194.88256 0 0 0 8.448-7.94112 5.9136 5.9136 0 1 1 8.36608 8.3712 218.25536 218.25536 0 0 1-8.92928 8.40704 5.9392 5.9392 0 0 1-3.9424 1.50528z m-32.95744 25.45664a5.92384 5.92384 0 0 1-3.34848-10.79808 407.10656 407.10656 0 0 0 9.60512-6.77376 5.9136 5.9136 0 1 1 6.9632 9.5744c-3.1744 2.30912-6.46144 4.62336-9.86112 6.95808a5.89824 5.89824 0 0 1-3.35872 1.03936zM205.9008 511.55456a5.91872 5.91872 0 0 1-2.79552-11.136c3.49184-1.87392 7.04-3.73248 10.6496-5.60128a5.98016 5.98016 0 0 1 7.97696 2.57024 5.9392 5.9392 0 0 1-2.56 7.98208c-3.56352 1.81248-7.04512 3.65056-10.4704 5.4784a5.80608 5.80608 0 0 1-2.80064 0.70656z m638.04416 6.88128a5.91872 5.91872 0 0 1-2.96448-11.04896 625.7664 625.7664 0 0 0 10.17856-5.99552 5.94432 5.94432 0 0 1 8.12544 2.0224 5.93408 5.93408 0 0 1-2.01728 8.12544c-3.3792 2.02752-6.82496 4.06016-10.36288 6.0928a5.8368 5.8368 0 0 1-2.95936 0.80384z m-674.19648 13.8752a5.92896 5.92896 0 0 1-3.1232-10.95168c3.34848-2.07872 6.784-4.16256 10.30144-6.2464a5.94944 5.94944 0 0 1 8.12032 2.08384c1.664 2.82112 0.72192 6.4512-2.08384 8.1152-3.44576 2.03776-6.8096 4.0704-10.09664 6.10816-0.9728 0.59904-2.048 0.89088-3.11808 0.89088z m637.48096 5.90848c-2.1504 0-4.22912-1.1776-5.26848-3.24096a5.90336 5.90336 0 0 1 2.59072-7.95648c3.56864-1.82272 7.07584-3.63008 10.52672-5.43232a5.92384 5.92384 0 1 1 5.48352 10.50112c-3.4816 1.82272-7.02976 3.65568-10.64448 5.4784a5.90848 5.90848 0 0 1-2.688 0.65024z m-671.93856 17.54112a5.9136 5.9136 0 0 1-3.57376-10.63936 420.864 420.864 0 0 1 9.74336-7.14752 5.92384 5.92384 0 0 1 6.87104 9.64608c-3.27168 2.32448-6.43072 4.6336-9.472 6.93248a5.888 5.888 0 0 1-3.56864 1.20832z m634.3168 0.42496c-2.2528 0-4.4032-1.29536-5.4016-3.4816a5.9392 5.9392 0 0 1 2.95936-7.83872c3.64032-1.6384 7.22432-3.28192 10.76736-4.93568a5.9136 5.9136 0 0 1 7.87456 2.85696c1.3824 2.95936 0.1024 6.48192-2.85696 7.87456-3.584 1.67424-7.21408 3.33824-10.9056 5.00224a5.82144 5.82144 0 0 1-2.43712 0.52224z m-38.28736 16.512c-2.32448 0-4.53632-1.37216-5.46816-3.6608a5.90848 5.90848 0 0 1 3.21536-7.72608l10.9568-4.57216a5.9136 5.9136 0 1 1 4.5824 10.91584l-11.02848 4.59264a5.7856 5.7856 0 0 1-2.2528 0.45056z m-627.16928 10.70592a5.9136 5.9136 0 0 1-4.36224-9.92768 191.70304 191.70304 0 0 1 8.63744-8.7552 5.92384 5.92384 0 1 1 8.1664 8.58112 175.06304 175.06304 0 0 0-8.07936 8.19712c-1.17248 1.25952-2.7648 1.90464-4.36224 1.90464z m588.32896 4.51072a5.92384 5.92384 0 0 1-2.06848-11.4688l11.10016-4.1984a5.91872 5.91872 0 0 1 4.23424 11.05408l-11.19744 4.24448c-0.67584 0.256-1.37216 0.36864-2.06848 0.36864z m-39.25504 14.06976a5.90848 5.90848 0 0 1-1.92-11.51488l11.21792-3.89632a5.888 5.888 0 0 1 7.54688 3.61984 5.91872 5.91872 0 0 1-3.61984 7.552l-11.30496 3.92192a5.85216 5.85216 0 0 1-1.92 0.31744z m-39.62368 12.98432a5.92896 5.92896 0 0 1-1.77152-11.5712l11.3152-3.584a5.89824 5.89824 0 0 1 7.43936 3.8144 5.90336 5.90336 0 0 1-3.8144 7.44448l-11.40224 3.63008c-0.5888 0.18944-1.1776 0.26624-1.7664 0.26624z m-530.87744 3.67104a5.9392 5.9392 0 0 1-5.76-7.3216c0.9728-3.97824 2.51392-8.13056 4.56704-12.3392a5.9904 5.9904 0 0 1 7.936-2.70336c2.92352 1.44384 4.13696 4.992 2.70336 7.93088a48.74752 48.74752 0 0 0-3.6864 9.9072c-0.66048 2.7136-3.08736 4.52608-5.76 4.52608z m490.92608 8.29952a5.9136 5.9136 0 0 1-1.62816-11.60704l11.40736-3.30752a5.89824 5.89824 0 0 1 7.3472 4.00896 5.9136 5.9136 0 0 1-4.01408 7.3472l-11.47904 3.328a5.87776 5.87776 0 0 1-1.63328 0.2304z m-40.21248 10.98752c-2.64192 0-5.04832-1.77152-5.7344-4.43392a5.9392 5.9392 0 0 1 4.23936-7.22432l11.48416-3.03104a5.9648 5.9648 0 0 1 7.24992 4.1984 5.93408 5.93408 0 0 1-4.1984 7.24992l-11.55072 3.05152a6.0672 6.0672 0 0 1-1.4848 0.18944z m-40.4736 10.01472a5.92384 5.92384 0 0 1-1.36192-11.68384l11.56096-2.7648a5.98016 5.98016 0 0 1 7.1424 4.37248 5.92384 5.92384 0 0 1-4.36736 7.14752l-11.61216 2.75968c-0.4608 0.11776-0.91136 0.16896-1.36192 0.16896z m-397.13792 7.6544c-1.3312 0-2.67264-0.44032-3.76832-1.3568a50.56512 50.56512 0 0 1-9.19552-9.7792 5.9136 5.9136 0 0 1 9.66656-6.82496 39.0912 39.0912 0 0 0 7.0656 7.47008 5.92384 5.92384 0 0 1-3.76832 10.49088z m356.41344 1.3056a5.92384 5.92384 0 0 1-1.1776-11.71456l11.60704-2.45248a6.016 6.016 0 0 1 7.02976 4.5568 5.91872 5.91872 0 0 1-4.5568 7.02976l-11.6992 2.44736a5.0688 5.0688 0 0 1-1.2032 0.13312z m-40.9344 7.92064a5.91872 5.91872 0 0 1-1.024-11.7504l11.66336-2.1248a5.85728 5.85728 0 0 1 6.90176 4.72576 5.90336 5.90336 0 0 1-4.73088 6.90176l-11.75552 2.15552a6.67136 6.67136 0 0 1-1.05472 0.09216z m-41.14944 6.71744a5.91872 5.91872 0 0 1-0.8448-11.78624c3.87584-0.55296 7.7824-1.152 11.70944-1.77664 3.12832-0.44032 6.272 1.6896 6.77888 4.92544a5.93408 5.93408 0 0 1-4.93056 6.77376c-3.97312 0.62464-7.92576 1.22368-11.84768 1.80224a7.09632 7.09632 0 0 1-0.86528 0.06144z m-236.83584 1.536c-0.512 0-1.03936-0.07168-1.56672-0.2048a170.3424 170.3424 0 0 1-11.77088-3.70176 5.91872 5.91872 0 0 1 3.97312-11.15136c3.43552 1.2288 7.08096 2.37056 10.94144 3.42528a5.92896 5.92896 0 1 1-1.57696 11.63264z m195.49696 3.90144a5.9392 5.9392 0 0 1-5.87776-5.26848 5.9392 5.9392 0 0 1 5.23264-6.54336c3.8912-0.4352 7.80288-0.90112 11.74528-1.39776a5.92384 5.92384 0 0 1 1.47968 11.74528c-4.00896 0.50176-7.97696 0.98816-11.90912 1.42848a7.35744 7.35744 0 0 1-0.6656 0.03584z m-154.49088 3.52256c-0.22016 0-0.43008-0.01024-0.65024-0.03584a333.95712 333.95712 0 0 1-12.032-1.51552 5.93408 5.93408 0 0 1-5.0176-6.70208c0.4608-3.2512 3.64032-5.4272 6.7072-5.02272 3.7632 0.54784 7.6288 1.03936 11.6224 1.46944a5.91872 5.91872 0 0 1-0.62976 11.80672z m112.98816 0.37888a5.92384 5.92384 0 0 1-0.42496-11.8272c3.89632-0.27648 7.8336-0.59392 11.80672-0.93696a5.95456 5.95456 0 0 1 6.40512 5.39136 5.90848 5.90848 0 0 1-5.39136 6.40512c-4.0192 0.34304-7.99744 0.66048-11.94496 0.95744-0.14848 0.01024-0.29696 0.01024-0.45056 0.01024z m-41.61536 2.09408a5.92384 5.92384 0 0 1-5.91872-5.76 5.9392 5.9392 0 0 1 5.76-6.07744c3.8912-0.10752 7.8336-0.23552 11.81696-0.39424 3.49184 0.12288 6.02624 2.41152 6.16448 5.67808a5.9392 5.9392 0 0 1-5.67296 6.15936c-4.06016 0.16896-8.05376 0.29184-11.9808 0.39424h-0.16896z m-29.79328 0.08192h-0.11264c-4.08576-0.08192-8.0896-0.20992-12.02688-0.3584a5.92384 5.92384 0 0 1-5.6832-6.14912c0.13312-3.26144 2.5856-5.39136 6.144-5.69344 3.8656 0.1536 7.7824 0.2816 11.79648 0.36352a5.92384 5.92384 0 0 1-0.11776 11.83744z" fill="#E52C3E" p-id="24328"></path></svg>