<?xml version="1.0" encoding="UTF-8"?>
<svg width="32px" height="32px" viewBox="0 0 32 32" version="1.1" xmlns="http://www.w3.org/2000/svg" xmlns:xlink="http://www.w3.org/1999/xlink">
    <title>夜起次数</title>
    <defs>
        <path d="M16.75,24.625 L16.75,25.75 C16.75,26.1642136 16.4142136,26.5 16,26.5 C15.5857864,26.5 15.25,26.1642136 15.25,25.75 L15.25,24.625 C15.25,24.2107864 15.5857864,23.875 16,23.875 C16.4142136,23.875 16.75,24.2107864 16.75,24.625 Z M22.6291261,21.5684659 L23.4246212,22.363961 C23.7175144,22.6568542 23.7175144,23.131728 23.4246212,23.4246212 C23.131728,23.7175144 22.6568542,23.7175144 22.363961,23.4246212 L21.5684659,22.6291261 C21.2755727,22.3362329 21.2755727,21.8613591 21.5684659,21.5684659 C21.8613591,21.2755727 22.3362329,21.2755727 22.6291261,21.5684659 Z M10.4315341,22.6291261 L9.63603897,23.4246212 C9.34314575,23.7175144 8.86827202,23.7175144 8.5753788,23.4246212 C8.28248558,23.131728 8.28248558,22.6568542 8.5753788,22.363961 L9.37087393,21.5684659 C9.66376715,21.2755727 10.1386409,21.2755727 10.4315341,21.5684659 C10.7244273,21.8613591 10.7244273,22.3362329 10.4315341,22.6291261 Z M16,9.71875 C16.0614199,9.71875 16.1112106,9.7685407 16.1112106,9.82996065 L16.1063567,9.86245766 C15.9153628,10.3777419 15.8125,10.9268585 15.8125,11.5 C15.8125,14.0888348 17.9111652,16.1875 20.5,16.1875 C20.9441232,16.1875 21.3738204,16.1257352 21.7809705,16.0103266 L22.0681474,15.9187255 C22.1508169,15.889021 22.2419142,15.9319576 22.2716188,16.0146271 L22.2779893,16.0376702 L22.2809855,16.0693707 C22.2436823,19.5064518 19.4458855,22.28125 16,22.28125 C12.5309614,22.28125 9.71875,19.4690386 9.71875,16 C9.71875,12.5656518 12.4749984,9.77505991 15.896128,9.71959151 L16,9.71875 Z M26.5,16 C26.5,16.4142136 26.1642136,16.75 25.75,16.75 L24.625,16.75 C24.2107864,16.75 23.875,16.4142136 23.875,16 C23.875,15.5857864 24.2107864,15.25 24.625,15.25 L25.75,15.25 C26.1642136,15.25 26.5,15.5857864 26.5,16 Z M8.125,16 C8.125,16.4142136 7.78921356,16.75 7.375,16.75 L6.25,16.75 C5.83578644,16.75 5.5,16.4142136 5.5,16 C5.5,15.5857864 5.83578644,15.25 6.25,15.25 L7.375,15.25 C7.78921356,15.25 8.125,15.5857864 8.125,16 Z M23.4246212,9.63603897 L22.6291261,10.4315341 C22.3362329,10.7244273 21.8613591,10.7244273 21.5684659,10.4315341 C21.2755727,10.1386409 21.2755727,9.66376715 21.5684659,9.37087393 L22.363961,8.5753788 C22.6568542,8.28248558 23.131728,8.28248558 23.4246212,8.5753788 C23.7175144,8.86827202 23.7175144,9.34314575 23.4246212,9.63603897 Z M9.63603897,8.5753788 L10.4315341,9.37087393 C10.7244273,9.66376715 10.7244273,10.1386409 10.4315341,10.4315341 C10.1386409,10.7244273 9.66376715,10.7244273 9.37087393,10.4315341 L8.5753788,9.63603897 C8.28248558,9.34314575 8.28248558,8.86827202 8.5753788,8.5753788 C8.86827202,8.28248558 9.34314575,8.28248558 9.63603897,8.5753788 Z M16.75,6.25 L16.75,7.375 C16.75,7.78921356 16.4142136,8.125 16,8.125 C15.5857864,8.125 15.25,7.78921356 15.25,7.375 L15.25,6.25 C15.25,5.83578644 15.5857864,5.5 16,5.5 C16.4142136,5.5 16.75,5.83578644 16.75,6.25 Z" id="path-1"></path>
        <filter x="-50.0%" y="-35.7%" width="200.0%" height="200.0%" filterUnits="objectBoundingBox" id="filter-2">
            <feOffset dx="0" dy="3" in="SourceAlpha" result="shadowOffsetOuter1"></feOffset>
            <feGaussianBlur stdDeviation="3" in="shadowOffsetOuter1" result="shadowBlurOuter1"></feGaussianBlur>
            <feComposite in="shadowBlurOuter1" in2="SourceAlpha" operator="out" result="shadowBlurOuter1"></feComposite>
            <feColorMatrix values="0 0 0 0 0.976470588   0 0 0 0 0.509803922   0 0 0 0 0.0235294118  0 0 0 0.25 0" type="matrix" in="shadowBlurOuter1"></feColorMatrix>
        </filter>
        <filter x="-61.9%" y="-47.6%" width="223.8%" height="223.8%" filterUnits="objectBoundingBox" id="filter-3">
            <feGaussianBlur stdDeviation="4" in="SourceAlpha" result="shadowBlurInner1"></feGaussianBlur>
            <feOffset dx="-6" dy="-6" in="shadowBlurInner1" result="shadowOffsetInner1"></feOffset>
            <feComposite in="shadowOffsetInner1" in2="SourceAlpha" operator="arithmetic" k2="-1" k3="1" result="shadowInnerInner1"></feComposite>
            <feColorMatrix values="0 0 0 0 0.976470588   0 0 0 0 0.509803922   0 0 0 0 0.0235294118  0 0 0 0.7 0" type="matrix" in="shadowInnerInner1" result="shadowMatrixInner1"></feColorMatrix>
            <feGaussianBlur stdDeviation="2" in="SourceAlpha" result="shadowBlurInner2"></feGaussianBlur>
            <feOffset dx="2" dy="2" in="shadowBlurInner2" result="shadowOffsetInner2"></feOffset>
            <feComposite in="shadowOffsetInner2" in2="SourceAlpha" operator="arithmetic" k2="-1" k3="1" result="shadowInnerInner2"></feComposite>
            <feColorMatrix values="0 0 0 0 1   0 0 0 0 1   0 0 0 0 1  0 0 0 0.15 0" type="matrix" in="shadowInnerInner2" result="shadowMatrixInner2"></feColorMatrix>
            <feGaussianBlur stdDeviation="1" in="SourceAlpha" result="shadowBlurInner3"></feGaussianBlur>
            <feOffset dx="-1" dy="-1" in="shadowBlurInner3" result="shadowOffsetInner3"></feOffset>
            <feComposite in="shadowOffsetInner3" in2="SourceAlpha" operator="arithmetic" k2="-1" k3="1" result="shadowInnerInner3"></feComposite>
            <feColorMatrix values="0 0 0 0 1   0 0 0 0 1   0 0 0 0 1  0 0 0 0.25 0" type="matrix" in="shadowInnerInner3" result="shadowMatrixInner3"></feColorMatrix>
            <feMerge>
                <feMergeNode in="shadowMatrixInner1"></feMergeNode>
                <feMergeNode in="shadowMatrixInner2"></feMergeNode>
                <feMergeNode in="shadowMatrixInner3"></feMergeNode>
            </feMerge>
        </filter>
    </defs>
    <g id="设计稿" stroke="none" stroke-width="1" fill="none" fill-rule="evenodd">
        <g id="01-老人管理-老人档案-空状态" transform="translate(-578.000000, -2025.000000)">
            <g id="编组-14" transform="translate(578.000000, 2025.000000)">
                <g id="形状" transform="translate(0.000000, 0.000000)">
                    <use fill="black" fill-opacity="1" filter="url(#filter-2)" xlink:href="#path-1"></use>
                    <use fill-opacity="0.6" fill="#F98206" fill-rule="evenodd" xlink:href="#path-1"></use>
                    <use fill="black" fill-opacity="1" filter="url(#filter-3)" xlink:href="#path-1"></use>
                </g>
            </g>
        </g>
    </g>
</svg>