<?xml version="1.0" encoding="utf-8"?>

<svg xmlns="http://www.w3.org/2000/svg" xmlns:xlink="http://www.w3.org/1999/xlink" viewBox="0 0 256 256">
  <defs>
    <linearGradient x1="100%" y1="50%" x2="0%" y2="50%" id="b">
      <stop stop-color="#2B6DE5" stop-opacity=".04" offset="0%"/>
      <stop stop-color="#2B6DE5" stop-opacity=".09" offset="100%"/>
    </linearGradient>
    <linearGradient x1="100%" y1="28.234%" x2="0%" y2="71.766%" id="d">
      <stop stop-color="#2B6DE5" stop-opacity=".15" offset="0%"/>
      <stop stop-color="#2B6DE5" stop-opacity=".45" offset="100%"/>
    </linearGradient>
    <linearGradient x1="0%" y1="28.234%" x2="100%" y2="71.766%" id="f">
      <stop stop-color="#2B6DE5" stop-opacity="0" offset="0%"/>
      <stop stop-color="#2B6DE5" stop-opacity=".25" offset="100%"/>
    </linearGradient>
    <linearGradient x1="100%" y1="50%" x2="0%" y2="50%" id="i">
      <stop stop-color="#2B6DE5" stop-opacity="0" offset="0%"/>
      <stop stop-color="#2B6DE5" stop-opacity=".25" offset="100%"/>
    </linearGradient>
    <linearGradient x1="0%" y1="50%" x2="100%" y2="50%" id="k">
      <stop stop-color="#2B6DE5" stop-opacity="0" offset="0%"/>
      <stop stop-color="#2B6DE5" stop-opacity=".45" offset="100%"/>
    </linearGradient>
    <linearGradient x1="100%" y1="50%" x2="0%" y2="50%" id="m">
      <stop stop-color="#2B6DE5" stop-opacity="0" offset="0%"/>
      <stop stop-color="#2B6DE5" stop-opacity=".25" offset="100%"/>
    </linearGradient>
    <linearGradient x1="0%" y1="50%" x2="100%" y2="50%" id="p">
      <stop stop-color="#2B6DE5" stop-opacity="0" offset="0%"/>
      <stop stop-color="#2B6DE5" stop-opacity=".45" offset="100%"/>
    </linearGradient>
    <linearGradient x1="100%" y1="50%" x2="0%" y2="50%" id="r">
      <stop stop-color="#2B6DE5" stop-opacity="0" offset="0%"/>
      <stop stop-color="#2B6DE5" stop-opacity=".25" offset="100%"/>
    </linearGradient>
    <linearGradient x1="50%" y1="100%" x2="50%" y2="0%" id="s">
      <stop stop-color="#2B6DE5" stop-opacity=".09" offset="0%"/>
      <stop stop-color="#2B6DE5" stop-opacity=".45" offset="100%"/>
    </linearGradient>
    <linearGradient x1="50%" y1="69.013%" x2="50%" y2="0%" id="t">
      <stop stop-color="#FFF" stop-opacity="0" offset="0%"/>
      <stop stop-color="#FFF" stop-opacity=".45" offset="100%"/>
    </linearGradient>
    <linearGradient x1="50%" y1="100%" x2="50%" y2="0%" id="v">
      <stop stop-color="#2B6DE5" stop-opacity=".65" offset="0%"/>
      <stop stop-color="#2B6DE5" stop-opacity=".15" offset="100%"/>
    </linearGradient>
    <linearGradient x1="50%" y1="17.572%" x2="50%" y2="100%" id="w">
      <stop stop-color="#2B6DE5" stop-opacity="0" offset="0%"/>
      <stop stop-color="#2B6DE5" stop-opacity=".15" offset="100%"/>
    </linearGradient>
    <linearGradient x1="0%" y1="52.206%" x2="100%" y2="48.333%" id="x">
      <stop stop-color="#2B6DE5" stop-opacity=".65" offset="0%"/>
      <stop stop-color="#2B6DE5" stop-opacity="0" offset="100%"/>
    </linearGradient>
    <linearGradient x1="30.23%" y1="100%" x2="54%" y2="53.762%" id="z">
      <stop stop-color="#2B6DE5" stop-opacity=".25" offset="0%"/>
      <stop stop-color="#2B6DE5" stop-opacity=".55" offset="100%"/>
    </linearGradient>
    <linearGradient x1="87.833%" y1="48.353%" x2="20.59%" y2="50.779%" id="B">
      <stop stop-color="#2B6DE5" stop-opacity=".25" offset="0%"/>
      <stop stop-color="#2B6DE5" stop-opacity=".45" offset="100%"/>
    </linearGradient>
    <linearGradient x1="30.78%" y1="0%" x2="69.22%" y2="100%" id="D">
      <stop stop-color="#2B6DE5" stop-opacity="0" offset="0%"/>
      <stop stop-color="#2B6DE5" stop-opacity=".25" offset="100%"/>
    </linearGradient>
    <linearGradient x1="40.376%" y1="0%" x2="11.96%" y2="100%" id="E">
      <stop stop-color="#2B6DE5" stop-opacity=".65" offset="0%"/>
      <stop stop-color="#2B6DE5" stop-opacity="0" offset="100%"/>
    </linearGradient>
    <linearGradient x1="100%" y1="51.991%" x2="4.728%" y2="45.181%" id="I">
      <stop stop-color="#2B6DE5" stop-opacity=".65" offset="0%"/>
      <stop stop-color="#2B6DE5" stop-opacity="0" offset="100%"/>
    </linearGradient>
    <linearGradient x1="69.77%" y1="100%" x2="42.367%" y2="9.356%" id="K">
      <stop stop-color="#2B6DE5" stop-opacity=".45" offset="0%"/>
      <stop stop-color="#2B6DE5" offset="100%"/>
    </linearGradient>
    <linearGradient x1="100%" y1="54.045%" x2="0%" y2="45.955%" id="M">
      <stop stop-color="#2B6DE5" stop-opacity=".45" offset="0%"/>
      <stop stop-color="#2B6DE5" stop-opacity=".65" offset="100%"/>
    </linearGradient>
    <linearGradient x1="69.22%" y1="100%" x2="30.78%" y2="0%" id="O">
      <stop stop-color="#2B6DE5" stop-opacity=".45" offset="0%"/>
      <stop stop-color="#2B6DE5" stop-opacity=".25" offset="100%"/>
    </linearGradient>
    <linearGradient x1="100%" y1="78.125%" x2="0%" y2="21.875%" id="R">
      <stop stop-color="#2B6DE5" stop-opacity=".45" offset="0%"/>
      <stop stop-color="#2B6DE5" offset="100%"/>
    </linearGradient>
    <path d="M176.679 74 194 84l-97 56L0 84l17.321-10L97 120l79.679-46Z" id="a"/>
    <path d="m194 64-97 56v-8l97-56v8Z" id="c"/>
    <path d="M97 112v8L0 64v-8l97 56Z" id="e"/>
    <path d="m97 0 97 56-97 56L0 56 97 0Z" id="h"/>
    <path d="M39 93.5c21.54 0 39-10.074 39-22.5 0-5-2-12-4-17S56.5 44 39 44 9 45 4 54c-2 6-4 12-4 17 0 12.426 17.46 22.5 39 22.5Z" id="j"/>
    <path d="M39 67c7.732 0 14-3.582 14-8V39H25v20c0 4.418 6.268 8 14 8Z" id="o"/>
    <path d="M4.421 1.504 14.211 0 24 12.782v9.774c0 2.346-1.268 5.017-3.53 6.275-.146.081-1.495.85-4.049 2.306l-8.084-8.58c-2.61-4.211-3.916-8.02-3.916-11.43V1.505Z" id="y"/>
    <path id="A" d="M4.421 1.504 14.211 0 9.789 2.526 0 4.042z"/>
    <path d="m0 4.03 9.79-1.504 9.789 12.782v9.775c-.1 3.208-1.506 5.413-4.217 6.616-2.711 1.203-4.568 2.005-5.573 2.406l-5.873-9.022C1.306 20.873 0 17.063 0 13.654V4.03Z" id="C"/>
    <path d="M4.421 1.504 14.211 0 24 12.782v9.774c0 2.346-1.268 5.017-3.53 6.275-.146.081-1.495.85-4.049 2.306l-8.084-8.58c-2.61-4.211-3.916-8.02-3.916-11.43V1.505Z" id="F"/>
    <path id="G" d="M4.421 1.504 14.211 0 9.789 2.526 0 4.042z"/>
    <path d="m0 4.03 9.79-1.504 9.789 12.782v9.775c-.1 3.208-1.506 5.413-4.217 6.616-2.711 1.203-4.568 2.005-5.573 2.406l-5.873-9.022C1.306 20.873 0 17.063 0 13.654V4.03Z" id="H"/>
    <path d="M4.421 1.504 14.211 0 24 12.782v9.774c0 2.346-1.268 5.017-3.53 6.275-.146.081-1.495.85-4.049 2.306l-8.084-8.58c-2.61-4.211-3.916-8.02-3.916-11.43V1.505Z" id="J"/>
    <path id="L" d="M4.421 1.504 14.211 0 9.789 2.526 0 4.042z"/>
    <path d="m0 4.03 9.79-1.504 9.789 12.782v9.775c-.1 3.208-1.506 5.413-4.217 6.616-2.711 1.203-4.568 2.005-5.573 2.406l-5.873-9.022C1.306 20.873 0 17.063 0 13.654V4.03Z" id="N"/>
    <path id="Q" d="m5.053 14.526 1.894 1.01 1.895 4.043 4.737-4.168 1.579 1.01-6.316 5.684z"/>
    <filter x="-.5%" y="-.8%" width="101%" height="101.6%" filterUnits="objectBoundingBox" id="g">
      <feOffset dx="-1" dy=".5" in="SourceAlpha" result="shadowOffsetInner1"/>
      <feComposite in="shadowOffsetInner1" in2="SourceAlpha" operator="arithmetic" k2="-1" k3="1" result="shadowInnerInner1"/>
      <feColorMatrix values="0 0 0 0 1 0 0 0 0 1 0 0 0 0 1 0 0 0 0.25 0" in="shadowInnerInner1"/>
    </filter>
    <filter x="-.7%" y="-1.2%" width="101.4%" height="102.4%" filterUnits="objectBoundingBox" id="n">
      <feOffset dx="1" dy="-.5" in="SourceAlpha" result="shadowOffsetInner1"/>
      <feComposite in="shadowOffsetInner1" in2="SourceAlpha" operator="arithmetic" k2="-1" k3="1" result="shadowInnerInner1"/>
      <feColorMatrix values="0 0 0 0 1 0 0 0 0 1 0 0 0 0 1 0 0 0 0.25 0" in="shadowInnerInner1"/>
    </filter>
    <filter x="-1.3%" y="-.8%" width="102.6%" height="101.6%" filterUnits="objectBoundingBox" id="P">
      <feOffset dx="-.5" dy=".5" in="SourceAlpha" result="shadowOffsetInner1"/>
      <feComposite in="shadowOffsetInner1" in2="SourceAlpha" operator="arithmetic" k2="-1" k3="1" result="shadowInnerInner1"/>
      <feColorMatrix values="0 0 0 0 1 0 0 0 0 1 0 0 0 0 1 0 0 0 0.25 0" in="shadowInnerInner1"/>
    </filter>
    <ellipse id="l" cx="39" cy="59" rx="36" ry="21"/>
    <ellipse id="q" cx="39" cy="39" rx="14" ry="8"/>
    <circle id="u" cx="39" cy="32" r="7"/>
  </defs>
  <g fill="none" fill-rule="evenodd">
    <g transform="translate(31 100)">
      <use fill="#FFF" xlink:href="#a"/>
      <use fill="url(#b)" xlink:href="#a"/>
    </g>
    <g transform="translate(31 100)">
      <use fill="#FFF" xlink:href="#c"/>
      <use fill="url(#d)" xlink:href="#c"/>
    </g>
    <g transform="translate(31 100)">
      <use fill="#FFF" xlink:href="#e"/>
      <use fill="url(#f)" xlink:href="#e"/>
      <use fill="#000" filter="url(#g)" xlink:href="#e"/>
    </g>
    <g transform="translate(31 100)">
      <use fill="#FFF" xlink:href="#h"/>
      <use fill="url(#i)" xlink:href="#h"/>
    </g>
    <g transform="translate(89 81)">
      <ellipse fill="red" opacity=".1" cx="39" cy="71" rx="39" ry="22.5"/>
      <use fill="#FFF" xlink:href="#j"/>
      <use fill="url(#k)" xlink:href="#j"/>
      <use fill="#FFF" xlink:href="#l"/>
      <use fill="url(#m)" xlink:href="#l"/>
      <use fill="#000" filter="url(#n)" xlink:href="#l"/>
      <use fill="#FFF" xlink:href="#o"/>
      <use fill="url(#p)" xlink:href="#o"/>
      <use fill="#FFF" xlink:href="#q"/>
      <use fill="url(#r)" xlink:href="#q"/>
      <path d="M39 78c18.225 0 33-8.507 33-19-1-15-3-31-7-47C62.958 3.831 48 0 39 0S16.064 3.56 13 11C9 25 7 44 6 59c0 10.493 14.775 19 33 19Z" fill="url(#s)"/>
      <path d="M56 15.03c-9.389-9.373-24.611-9.373-34 0L39 32l17-16.97Z" fill="url(#t)"/>
      <use fill="#FFF" xlink:href="#u"/>
      <use fill="url(#v)" xlink:href="#u"/>
    </g>
    <g transform="translate(31 72)" fill="url(#w)">
      <path d="M194 0v84l-97 56V0h97ZM97 0v140L0 84V0h97Z"/>
    </g>
    <path d="M129 55.5c11.473 0 22.608.984 32.842 2.862a1.5 1.5 0 0 1-.542 2.951C151.247 59.468 140.294 58.5 129 58.5c-31.95 0-60.27 7.828-72.027 19.392a1.5 1.5 0 0 1-2.104-2.139C67.3 63.527 96.34 55.5 129 55.5Z" fill="url(#x)" fill-rule="nonzero"/>
    <g transform="matrix(-1 0 0 1 171 44)">
      <use fill="#FFF" xlink:href="#y"/>
      <use fill="url(#z)" xlink:href="#y"/>
    </g>
    <g transform="matrix(-1 0 0 1 171 44)">
      <use fill="#FFF" xlink:href="#A"/>
      <use fill="url(#B)" xlink:href="#A"/>
    </g>
    <g transform="matrix(-1 0 0 1 171 44)">
      <use fill="#FFF" xlink:href="#C"/>
      <use fill="url(#D)" xlink:href="#C"/>
    </g>
    <path d="M159.72 59.502a1.5 1.5 0 0 1 1.743-1.209C190.345 63.521 209.5 75.253 209.5 89c0 7.434-5.572 14.296-15.412 19.878l-.854.475c-.432.236-.871.47-1.319.701l-.905.46a71.48 71.48 0 0 1-.926.452l-.945.446a83.65 83.65 0 0 1-4.499 1.92l-1.053.408c-.53.201-1.069.4-1.614.596l-1.1.389c-.185.064-.37.128-.557.191l-1.127.378a1.5 1.5 0 1 1-.936-2.85c.368-.121.733-.243 1.094-.367l1.075-.373c.177-.062.354-.125.53-.189l1.046-.383c.345-.129.687-.259 1.026-.39l1.007-.396a82.36 82.36 0 0 0 2.43-1.019l.936-.418.461-.211.906-.427a60.936 60.936 0 0 0 4.999-2.678l.758-.465C202.248 100.304 206.5 94.71 206.5 89c0-11.747-17.983-22.761-45.571-27.755a1.5 1.5 0 0 1-1.21-1.743Z" fill="url(#E)" fill-rule="nonzero"/>
    <g transform="translate(169 96)">
      <use fill="#FFF" xlink:href="#F"/>
      <use fill="url(#z)" xlink:href="#F"/>
    </g>
    <g transform="translate(169 96)">
      <use fill="#FFF" xlink:href="#G"/>
      <use fill="url(#B)" xlink:href="#G"/>
    </g>
    <g transform="translate(169 96)">
      <use fill="#FFF" xlink:href="#H"/>
      <use fill="url(#D)" xlink:href="#H"/>
    </g>
    <path d="M50 87.5a1.5 1.5 0 0 1 1.5 1.5c0 16.474 34.626 30.5 77.5 30.5 18.472 0 35.945-2.596 49.842-7.252a1.5 1.5 0 1 1 .953 2.845c-14.219 4.763-32.012 7.407-50.795 7.407-44.387 0-80.5-14.628-80.5-33.5a1.5 1.5 0 0 1 1.5-1.5Z" fill="url(#I)" fill-rule="nonzero"/>
    <g transform="translate(47 62)">
      <use fill="#FFF" xlink:href="#J"/>
      <use fill="url(#K)" xlink:href="#J"/>
    </g>
    <g transform="translate(47 62)">
      <use fill="#FFF" xlink:href="#L"/>
      <use fill="url(#M)" xlink:href="#L"/>
    </g>
    <g transform="translate(47 62)">
      <use fill="#FFF" xlink:href="#N"/>
      <use fill="url(#O)" xlink:href="#N"/>
      <use fill="#000" filter="url(#P)" xlink:href="#N"/>
    </g>
    <g transform="translate(47 62)">
      <use fill="#FFF" xlink:href="#Q"/>
      <use fill="url(#R)" xlink:href="#Q"/>
    </g>
  </g>
</svg>
