<svg viewBox="0 0 256 256" xmlns="http://www.w3.org/2000/svg" xmlns:xlink="http://www.w3.org/1999/xlink"><defs><path d="M176.679 74 194 84l-97 56L0 84l17.321-10L97 120l79.679-46Z" id="a"/><path d="m194 64-97 56v-8l97-56v8Z" id="c"/><path d="M97 112v8L0 64v-8l97 56Z" id="e"/><path d="m97 0 97 56-97 56L0 56 97 0Z" id="h"/><path d="m26 0 26 15-26 15L0 15 26 0Z" id="j"/><path d="M52 45 26 60V30l26-15.001v30Z" id="m"/><path d="M26 30v30L0 45V15l26 15Z" id="o"/><path d="m26 0 26 15-26 15L0 15 26 0Z" id="r"/><path d="M52 45 26 60V30l26-15.001v30Z" id="t"/><path d="M26 30v30L0 45V15l26 15Z" id="v"/><path d="m26 0 26 15-26 15L0 15 26 0Z" id="y"/><path d="M52 45 26 60V30l26-15.001v30Z" id="A"/><path d="M26 30v30L0 45V15l26 15Z" id="B"/><path d="m26 0 26 15-26 15L0 15 26 0Z" id="E"/><path d="M52 45 26 60V30l26-15.001v30Z" id="F"/><path d="M26 30v30L0 45V15l26 15Z" id="H"/><path d="m21 0 21 12-21 12L0 12 21 0Z" id="K"/><path d="m21 0 21 12v24L21 48V24l21-12L21 0Z" id="M"/><path d="M21 24v24L0 36V12l21 12Z" id="O"/><path d="m22 0 22 13-22 13L0 13 22 0Z" id="R"/><path d="m22 0 22 12.75v25.5L22 51V25.5l21.999-12.75L22 0Z" id="T"/><path d="M22 25.667V51L0 38.333V13l22 12.667Z" id="V"/><path d="m14 0 14 8-14 8L0 8l14-8Z" id="Y"/><path d="m28 24-14 8V16l14-8v16Z" id="aa"/><path d="M14 16v16L0 24V8l14 8Z" id="ac"/><path d="m26 0 26 15-26 15L0 15 26 0Z" id="af"/><path d="M52 45 26 60V30l26-15.001v30Z" id="ah"/><path d="M26 30v30L0 45V15l26 15Z" id="ai"/><linearGradient x1="100%" y1="50%" x2="0%" y2="50%" id="b"><stop stop-color="#2B6DE5" stop-opacity=".04" offset="0%"/><stop stop-color="#2B6DE5" stop-opacity=".09" offset="100%"/></linearGradient><linearGradient x1="100%" y1="28.234%" x2="0%" y2="71.766%" id="d"><stop stop-color="#2B6DE5" stop-opacity=".15" offset="0%"/><stop stop-color="#2B6DE5" stop-opacity=".45" offset="100%"/></linearGradient><linearGradient x1="0%" y1="28.234%" x2="100%" y2="71.766%" id="f"><stop stop-color="#2B6DE5" stop-opacity="0" offset="0%"/><stop stop-color="#2B6DE5" stop-opacity=".25" offset="100%"/></linearGradient><linearGradient x1="100%" y1="50%" x2="0%" y2="50%" id="i"><stop stop-color="#2B6DE5" stop-opacity="0" offset="0%"/><stop stop-color="#2B6DE5" stop-opacity=".25" offset="100%"/></linearGradient><linearGradient x1="100%" y1="50%" x2="0%" y2="50%" id="l"><stop stop-color="#2B6DE5" stop-opacity="0" offset="0%"/><stop stop-color="#2B6DE5" stop-opacity=".25" offset="100%"/></linearGradient><linearGradient x1="66.691%" y1="0%" x2="33.309%" y2="100%" id="n"><stop stop-color="#2B6DE5" stop-opacity=".15" offset="0%"/><stop stop-color="#2B6DE5" stop-opacity=".45" offset="100%"/></linearGradient><linearGradient x1="33.309%" y1="0%" x2="66.691%" y2="100%" id="p"><stop stop-color="#2B6DE5" stop-opacity="0" offset="0%"/><stop stop-color="#2B6DE5" stop-opacity=".25" offset="100%"/></linearGradient><linearGradient x1="100%" y1="50%" x2="0%" y2="50%" id="s"><stop stop-color="#2B6DE5" stop-opacity=".35" offset="0%"/><stop stop-color="#2B6DE5" stop-opacity=".25" offset="100%"/></linearGradient><linearGradient x1="66.691%" y1="0%" x2="33.309%" y2="33.459%" id="u"><stop stop-color="#2B6DE5" stop-opacity=".15" offset="0%"/><stop stop-color="#2B6DE5" stop-opacity=".45" offset="100%"/></linearGradient><linearGradient x1="66.691%" y1="70.631%" x2="33.309%" y2="28.802%" id="w"><stop stop-color="#2B6DE5" stop-opacity=".25" offset="0%"/><stop stop-color="#2B6DE5" stop-opacity=".45" offset="100%"/></linearGradient><linearGradient x1="100%" y1="50%" x2="0%" y2="50%" id="z"><stop stop-color="#2B6DE5" stop-opacity=".15" offset="0%"/><stop stop-color="#2B6DE5" stop-opacity=".25" offset="100%"/></linearGradient><linearGradient x1="33.309%" y1="66.556%" x2="66.691%" y2="100%" id="C"><stop stop-color="#2B6DE5" stop-opacity="0" offset="0%"/><stop stop-color="#2B6DE5" stop-opacity=".15" offset="100%"/></linearGradient><linearGradient x1="66.691%" y1="0%" x2="33.309%" y2="33.459%" id="G"><stop stop-color="#2B6DE5" stop-opacity=".35" offset="0%"/><stop stop-color="#2B6DE5" stop-opacity=".45" offset="100%"/></linearGradient><linearGradient x1="33.309%" y1="66.345%" x2="66.691%" y2="100%" id="I"><stop stop-color="#2B6DE5" stop-opacity=".09" offset="0%"/><stop stop-color="#2B6DE5" stop-opacity=".25" offset="100%"/></linearGradient><linearGradient x1="100%" y1="50%" x2="0%" y2="50%" id="L"><stop stop-color="#2B6DE5" stop-opacity=".09" offset="0%"/><stop stop-color="#2B6DE5" stop-opacity=".25" offset="100%"/></linearGradient><linearGradient x1="59.57%" y1="0%" x2="40.43%" y2="100%" id="N"><stop stop-color="#2B6DE5" stop-opacity=".15" offset="0%"/><stop stop-color="#2B6DE5" stop-opacity=".45" offset="100%"/></linearGradient><linearGradient x1="32.986%" y1="0%" x2="67.014%" y2="100%" id="P"><stop stop-color="#2B6DE5" stop-opacity="0" offset="0%"/><stop stop-color="#2B6DE5" stop-opacity=".25" offset="100%"/></linearGradient><linearGradient x1="100%" y1="50%" x2="0%" y2="50%" id="S"><stop stop-color="#2B6DE5" stop-opacity="0" offset="0%"/><stop stop-color="#2B6DE5" stop-opacity=".25" offset="100%"/></linearGradient><linearGradient x1="59.304%" y1="0%" x2="40.696%" y2="33.459%" id="U"><stop stop-color="#2B6DE5" stop-opacity=".15" offset="0%"/><stop stop-color="#2B6DE5" stop-opacity=".45" offset="100%"/></linearGradient><linearGradient x1="33.241%" y1="0%" x2="66.759%" y2="100%" id="W"><stop stop-color="#2B6DE5" stop-opacity="0" offset="0%"/><stop stop-color="#2B6DE5" stop-opacity=".25" offset="100%"/></linearGradient><linearGradient x1="100%" y1="66.327%" x2="0%" y2="33.673%" id="Z"><stop stop-color="#2B6DE5" stop-opacity=".45" offset="0%"/><stop stop-color="#2B6DE5" stop-opacity=".65" offset="100%"/></linearGradient><linearGradient x1="67.014%" y1="100%" x2="32.986%" y2="0%" id="ab"><stop stop-color="#2B6DE5" stop-opacity=".45" offset="0%"/><stop stop-color="#2B6DE5" offset="100%"/></linearGradient><linearGradient x1="67.014%" y1="100%" x2="32.986%" y2="0%" id="ad"><stop stop-color="#2B6DE5" stop-opacity=".45" offset="0%"/><stop stop-color="#2B6DE5" stop-opacity=".25" offset="100%"/></linearGradient><linearGradient x1="100%" y1="50%" x2="0%" y2="50%" id="ag"><stop stop-color="#2B6DE5" stop-opacity=".09" offset="0%"/><stop stop-color="#2B6DE5" stop-opacity=".25" offset="100%"/></linearGradient><linearGradient x1="50%" y1="17.572%" x2="50%" y2="100%" id="ak"><stop stop-color="#2B6DE5" stop-opacity="0" offset="0%"/><stop stop-color="#2B6DE5" stop-opacity=".15" offset="100%"/></linearGradient><filter x="-.5%" y="-.8%" width="101%" height="101.6%" filterUnits="objectBoundingBox" id="g"><feOffset dx="-1" dy=".5" in="SourceAlpha" result="shadowOffsetInner1"/><feComposite in="shadowOffsetInner1" in2="SourceAlpha" operator="arithmetic" k2="-1" k3="1" result="shadowInnerInner1"/><feColorMatrix values="0 0 0 0 1 0 0 0 0 1 0 0 0 0 1 0 0 0 0.25 0" in="shadowInnerInner1"/></filter><filter x="-1.9%" y="-1.1%" width="103.8%" height="102.2%" filterUnits="objectBoundingBox" id="q"><feOffset dx="-1" dy="-.5" in="SourceAlpha" result="shadowOffsetInner1"/><feComposite in="shadowOffsetInner1" in2="SourceAlpha" operator="arithmetic" k2="-1" k3="1" result="shadowInnerInner1"/><feColorMatrix values="0 0 0 0 1 0 0 0 0 1 0 0 0 0 1 0 0 0 0.25 0" in="shadowInnerInner1"/></filter><filter x="-1.9%" y="-1.1%" width="103.8%" height="102.2%" filterUnits="objectBoundingBox" id="x"><feOffset dx="-1" dy=".5" in="SourceAlpha" result="shadowOffsetInner1"/><feComposite in="shadowOffsetInner1" in2="SourceAlpha" operator="arithmetic" k2="-1" k3="1" result="shadowInnerInner1"/><feColorMatrix values="0 0 0 0 1 0 0 0 0 1 0 0 0 0 1 0 0 0 0.305698208 0" in="shadowInnerInner1"/></filter><filter x="-1.9%" y="-1.1%" width="103.8%" height="102.2%" filterUnits="objectBoundingBox" id="D"><feOffset dx="-1" dy="-.5" in="SourceAlpha" result="shadowOffsetInner1"/><feComposite in="shadowOffsetInner1" in2="SourceAlpha" operator="arithmetic" k2="-1" k3="1" result="shadowInnerInner1"/><feColorMatrix values="0 0 0 0 1 0 0 0 0 1 0 0 0 0 1 0 0 0 0.25 0" in="shadowInnerInner1"/></filter><filter x="-1.9%" y="-1.1%" width="103.8%" height="102.2%" filterUnits="objectBoundingBox" id="J"><feOffset dx="-1" dy=".5" in="SourceAlpha" result="shadowOffsetInner1"/><feComposite in="shadowOffsetInner1" in2="SourceAlpha" operator="arithmetic" k2="-1" k3="1" result="shadowInnerInner1"/><feColorMatrix values="0 0 0 0 1 0 0 0 0 1 0 0 0 0 1 0 0 0 0.25 0" in="shadowInnerInner1"/></filter><filter x="-2.4%" y="-1.4%" width="104.8%" height="102.8%" filterUnits="objectBoundingBox" id="Q"><feOffset dx="-1" dy="-.5" in="SourceAlpha" result="shadowOffsetInner1"/><feComposite in="shadowOffsetInner1" in2="SourceAlpha" operator="arithmetic" k2="-1" k3="1" result="shadowInnerInner1"/><feColorMatrix values="0 0 0 0 1 0 0 0 0 1 0 0 0 0 1 0 0 0 0.25 0" in="shadowInnerInner1"/></filter><filter x="-2.3%" y="-1.3%" width="104.5%" height="102.6%" filterUnits="objectBoundingBox" id="X"><feOffset dx="-1" dy=".5" in="SourceAlpha" result="shadowOffsetInner1"/><feComposite in="shadowOffsetInner1" in2="SourceAlpha" operator="arithmetic" k2="-1" k3="1" result="shadowInnerInner1"/><feColorMatrix values="0 0 0 0 1 0 0 0 0 1 0 0 0 0 1 0 0 0 0.25 0" in="shadowInnerInner1"/></filter><filter x="-3.6%" y="-2.1%" width="107.1%" height="104.2%" filterUnits="objectBoundingBox" id="ae"><feOffset dx="-1" dy=".5" in="SourceAlpha" result="shadowOffsetInner1"/><feComposite in="shadowOffsetInner1" in2="SourceAlpha" operator="arithmetic" k2="-1" k3="1" result="shadowInnerInner1"/><feColorMatrix values="0 0 0 0 1 0 0 0 0 1 0 0 0 0 1 0 0 0 0.25 0" in="shadowInnerInner1"/></filter><filter x="-1.9%" y="-1.1%" width="103.8%" height="102.2%" filterUnits="objectBoundingBox" id="aj"><feOffset dx="-1" dy=".5" in="SourceAlpha" result="shadowOffsetInner1"/><feComposite in="shadowOffsetInner1" in2="SourceAlpha" operator="arithmetic" k2="-1" k3="1" result="shadowInnerInner1"/><feColorMatrix values="0 0 0 0 1 0 0 0 0 1 0 0 0 0 1 0 0 0 0.25 0" in="shadowInnerInner1"/></filter><radialGradient cx="0%" cy="50%" fx="0%" fy="50%" r="173.333%" gradientTransform="scale(.57692 1)" id="k"><stop stop-color="#FFF" offset="0%"/><stop stop-color="#FFF" stop-opacity="0" offset="100%"/></radialGradient></defs><g fill="none" fill-rule="evenodd"><g transform="translate(31 100)"><use fill="#FFF" xlink:href="#a"/><use fill="url(#b)" xlink:href="#a"/></g><g transform="translate(31 100)"><use fill="#FFF" xlink:href="#c"/><use fill="url(#d)" xlink:href="#c"/></g><g transform="translate(31 100)"><use fill="#FFF" xlink:href="#e"/><use fill="url(#f)" xlink:href="#e"/><use fill="#000" filter="url(#g)" xlink:href="#e"/></g><g transform="translate(31 100)"><use fill="#FFF" xlink:href="#h"/><use fill="url(#i)" xlink:href="#h"/></g><g transform="translate(102 94)"><use fill="#FFF" xlink:href="#j"/><path stroke="url(#k)" d="M26 .577 51 15 26 29.423 1 15 26 .577Z" stroke-linejoin="square" fill="url(#l)"/></g><g transform="translate(102 94)"><use fill="#FFF" xlink:href="#m"/><use fill="url(#n)" xlink:href="#m"/></g><g transform="translate(102 94)"><use fill="#FFF" xlink:href="#o"/><use fill="url(#p)" xlink:href="#o"/><use fill="#000" filter="url(#q)" xlink:href="#o"/></g><g transform="translate(131 111)"><use fill="#FFF" xlink:href="#r"/><use fill="url(#s)" xlink:href="#r"/></g><g transform="translate(131 111)"><use fill="#FFF" xlink:href="#t"/><use fill="url(#u)" xlink:href="#t"/></g><g transform="translate(131 111)"><use fill="#FFF" xlink:href="#v"/><use fill="url(#w)" xlink:href="#v"/><use fill="#000" filter="url(#x)" xlink:href="#v"/></g><g transform="translate(73 111)"><use fill="#FFF" xlink:href="#y"/><use fill="url(#z)" xlink:href="#y"/></g><g transform="translate(73 111)"><use fill="#FFF" xlink:href="#A"/><use fill="url(#n)" xlink:href="#A"/></g><g transform="translate(73 111)"><use fill="#FFF" xlink:href="#B"/><use fill="url(#C)" xlink:href="#B"/><use fill="#000" filter="url(#D)" xlink:href="#B"/></g><g transform="translate(102 128)"><use fill="#FFF" xlink:href="#E"/><use fill="url(#s)" xlink:href="#E"/></g><g transform="translate(102 128)"><use fill="#FFF" xlink:href="#F"/><use fill="url(#G)" xlink:href="#F"/></g><g transform="translate(102 128)"><use fill="#FFF" xlink:href="#H"/><use fill="url(#I)" xlink:href="#H"/><use fill="#000" filter="url(#J)" xlink:href="#H"/></g><g transform="translate(107 44)"><use fill="#FFF" xlink:href="#K"/><use fill="url(#L)" xlink:href="#K"/></g><g transform="translate(107 44)"><use fill="#FFF" xlink:href="#M"/><use fill="url(#N)" xlink:href="#M"/></g><g transform="translate(107 44)"><use fill="#FFF" xlink:href="#O"/><use fill="url(#P)" xlink:href="#O"/><use fill="#000" filter="url(#Q)" xlink:href="#O"/></g><g transform="translate(147 76)"><use fill="#FFF" xlink:href="#R"/><use fill="url(#S)" xlink:href="#R"/></g><g transform="translate(147 76)"><use fill="#FFF" xlink:href="#T"/><use fill="url(#U)" xlink:href="#T"/></g><g transform="translate(147 76)"><use fill="#FFF" xlink:href="#V"/><use fill="url(#W)" xlink:href="#V"/><use fill="#000" filter="url(#X)" xlink:href="#V"/></g><g transform="translate(69 70)"><use fill="#FFF" xlink:href="#Y"/><use fill="url(#Z)" xlink:href="#Y"/></g><g transform="translate(69 70)"><use fill="#FFF" xlink:href="#aa"/><use fill="url(#ab)" xlink:href="#aa"/></g><g transform="translate(69 70)"><use fill="#FFF" xlink:href="#ac"/><use fill="url(#ad)" xlink:href="#ac"/><use fill="#000" filter="url(#ae)" xlink:href="#ac"/></g><g transform="translate(102 94)"><use fill="#FFF" xlink:href="#af"/><use fill="url(#ag)" xlink:href="#af"/></g><g transform="translate(102 94)"><use fill="#FFF" xlink:href="#ah"/><use fill="url(#G)" xlink:href="#ah"/></g><g transform="translate(102 94)"><use fill="#FFF" xlink:href="#ai"/><use fill="url(#I)" xlink:href="#ai"/><use fill="#000" filter="url(#aj)" xlink:href="#ai"/></g><g transform="translate(31 72)" fill="url(#ak)"><path d="M194 0v84l-97 56V0h97ZM97 0v140L0 84V0h97Z"/></g></g></svg>
