<?xml version="1.0" encoding="utf-8"?>

<svg xmlns="http://www.w3.org/2000/svg" xmlns:xlink="http://www.w3.org/1999/xlink" viewBox="0 0 256 256">
  <defs>
    <path d="M176.679 74 194 84l-97 56L0 84l17.321-10L97 120l79.679-46Z" id="no-app-a"/>
    <path d="m194 64-97 56v-8l97-56v8Z" id="no-app-c"/>
    <path d="M97 112v8L0 64v-8l97 56Z" id="no-app-e"/>
    <path d="m97 0 97 56-97 56L0 56 97 0Z" id="no-app-h"/>
    <path d="m26 0 26 15-26 15L0 15 26 0Z" id="no-app-j"/>
    <path d="M52 45 26 60V30l26-15.001v30Z" id="no-app-m"/>
    <path d="M26 30v30L0 45V15l26 15Z" id="no-app-o"/>
    <path d="m26 0 26 15-26 15L0 15 26 0Z" id="no-app-r"/>
    <path d="M52 45 26 60V30l26-15.001v30Z" id="no-app-t"/>
    <path d="M26 30v30L0 45V15l26 15Z" id="no-app-v"/>
    <path d="m26 0 26 15-26 15L0 15 26 0Z" id="no-app-y"/>
    <path d="M52 45 26 60V30l26-15.001v30Z" id="no-app-A"/>
    <path d="M26 30v30L0 45V15l26 15Z" id="no-app-B"/>
    <path d="m26 0 26 15-26 15L0 15 26 0Z" id="no-app-E"/>
    <path d="M52 45 26 60V30l26-15.001v30Z" id="no-app-F"/>
    <path d="M26 30v30L0 45V15l26 15Z" id="no-app-H"/>
    <path d="m21 0 21 12-21 12L0 12 21 0Z" id="no-app-K"/>
    <path d="m21 0 21 12v24L21 48V24l21-12L21 0Z" id="no-app-M"/>
    <path d="M21 24v24L0 36V12l21 12Z" id="no-app-O"/>
    <path d="m22 0 22 13-22 13L0 13 22 0Z" id="no-app-R"/>
    <path d="m22 0 22 12.75v25.5L22 51V25.5l21.999-12.75L22 0Z" id="no-app-T"/>
    <path d="M22 25.667V51L0 38.333V13l22 12.667Z" id="no-app-V"/>
    <path d="m14 0 14 8-14 8L0 8l14-8Z" id="no-app-Y"/>
    <path d="m28 24-14 8V16l14-8v16Z" id="no-app-aa"/>
    <path d="M14 16v16L0 24V8l14 8Z" id="no-app-ac"/>
    <path d="m26 0 26 15-26 15L0 15 26 0Z" id="no-app-af"/>
    <path d="M52 45 26 60V30l26-15.001v30Z" id="no-app-ah"/>
    <path d="M26 30v30L0 45V15l26 15Z" id="no-app-ai"/>
    <linearGradient x1="100%" y1="50%" x2="0%" y2="50%" id="no-app-b">
      <stop stop-color="#2B6DE5" stop-opacity=".04" offset="0%"/>
      <stop stop-color="#2B6DE5" stop-opacity=".09" offset="100%"/>
    </linearGradient>
    <linearGradient x1="100%" y1="28.234%" x2="0%" y2="71.766%" id="no-app-d">
      <stop stop-color="#2B6DE5" stop-opacity=".15" offset="0%"/>
      <stop stop-color="#2B6DE5" stop-opacity=".45" offset="100%"/>
    </linearGradient>
    <linearGradient x1="0%" y1="28.234%" x2="100%" y2="71.766%" id="no-app-f">
      <stop stop-color="#2B6DE5" stop-opacity="0" offset="0%"/>
      <stop stop-color="#2B6DE5" stop-opacity=".25" offset="100%"/>
    </linearGradient>
    <linearGradient x1="100%" y1="50%" x2="0%" y2="50%" id="no-app-i">
      <stop stop-color="#2B6DE5" stop-opacity="0" offset="0%"/>
      <stop stop-color="#2B6DE5" stop-opacity=".25" offset="100%"/>
    </linearGradient>
    <linearGradient x1="100%" y1="50%" x2="0%" y2="50%" id="no-app-l">
      <stop stop-color="#2B6DE5" stop-opacity="0" offset="0%"/>
      <stop stop-color="#2B6DE5" stop-opacity=".25" offset="100%"/>
    </linearGradient>
    <linearGradient x1="66.691%" y1="0%" x2="33.309%" y2="100%" id="no-app-n">
      <stop stop-color="#2B6DE5" stop-opacity=".15" offset="0%"/>
      <stop stop-color="#2B6DE5" stop-opacity=".45" offset="100%"/>
    </linearGradient>
    <linearGradient x1="33.309%" y1="0%" x2="66.691%" y2="100%" id="no-app-p">
      <stop stop-color="#2B6DE5" stop-opacity="0" offset="0%"/>
      <stop stop-color="#2B6DE5" stop-opacity=".25" offset="100%"/>
    </linearGradient>
    <linearGradient x1="100%" y1="50%" x2="0%" y2="50%" id="no-app-s">
      <stop stop-color="#2B6DE5" stop-opacity=".35" offset="0%"/>
      <stop stop-color="#2B6DE5" stop-opacity=".25" offset="100%"/>
    </linearGradient>
    <linearGradient x1="66.691%" y1="0%" x2="33.309%" y2="33.459%" id="no-app-u">
      <stop stop-color="#2B6DE5" stop-opacity=".15" offset="0%"/>
      <stop stop-color="#2B6DE5" stop-opacity=".45" offset="100%"/>
    </linearGradient>
    <linearGradient x1="66.691%" y1="70.631%" x2="33.309%" y2="28.802%" id="no-app-w">
      <stop stop-color="#2B6DE5" stop-opacity=".25" offset="0%"/>
      <stop stop-color="#2B6DE5" stop-opacity=".45" offset="100%"/>
    </linearGradient>
    <linearGradient x1="100%" y1="50%" x2="0%" y2="50%" id="no-app-z">
      <stop stop-color="#2B6DE5" stop-opacity=".15" offset="0%"/>
      <stop stop-color="#2B6DE5" stop-opacity=".25" offset="100%"/>
    </linearGradient>
    <linearGradient x1="33.309%" y1="66.556%" x2="66.691%" y2="100%" id="no-app-C">
      <stop stop-color="#2B6DE5" stop-opacity="0" offset="0%"/>
      <stop stop-color="#2B6DE5" stop-opacity=".15" offset="100%"/>
    </linearGradient>
    <linearGradient x1="66.691%" y1="0%" x2="33.309%" y2="33.459%" id="no-app-G">
      <stop stop-color="#2B6DE5" stop-opacity=".35" offset="0%"/>
      <stop stop-color="#2B6DE5" stop-opacity=".45" offset="100%"/>
    </linearGradient>
    <linearGradient x1="33.309%" y1="66.345%" x2="66.691%" y2="100%" id="no-app-I">
      <stop stop-color="#2B6DE5" stop-opacity=".09" offset="0%"/>
      <stop stop-color="#2B6DE5" stop-opacity=".25" offset="100%"/>
    </linearGradient>
    <linearGradient x1="100%" y1="50%" x2="0%" y2="50%" id="no-app-L">
      <stop stop-color="#2B6DE5" stop-opacity=".09" offset="0%"/>
      <stop stop-color="#2B6DE5" stop-opacity=".25" offset="100%"/>
    </linearGradient>
    <linearGradient x1="59.57%" y1="0%" x2="40.43%" y2="100%" id="no-app-N">
      <stop stop-color="#2B6DE5" stop-opacity=".15" offset="0%"/>
      <stop stop-color="#2B6DE5" stop-opacity=".45" offset="100%"/>
    </linearGradient>
    <linearGradient x1="32.986%" y1="0%" x2="67.014%" y2="100%" id="no-app-P">
      <stop stop-color="#2B6DE5" stop-opacity="0" offset="0%"/>
      <stop stop-color="#2B6DE5" stop-opacity=".25" offset="100%"/>
    </linearGradient>
    <linearGradient x1="100%" y1="50%" x2="0%" y2="50%" id="no-app-S">
      <stop stop-color="#2B6DE5" stop-opacity="0" offset="0%"/>
      <stop stop-color="#2B6DE5" stop-opacity=".25" offset="100%"/>
    </linearGradient>
    <linearGradient x1="59.304%" y1="0%" x2="40.696%" y2="33.459%" id="no-app-U">
      <stop stop-color="#2B6DE5" stop-opacity=".15" offset="0%"/>
      <stop stop-color="#2B6DE5" stop-opacity=".45" offset="100%"/>
    </linearGradient>
    <linearGradient x1="33.241%" y1="0%" x2="66.759%" y2="100%" id="no-app-W">
      <stop stop-color="#2B6DE5" stop-opacity="0" offset="0%"/>
      <stop stop-color="#2B6DE5" stop-opacity=".25" offset="100%"/>
    </linearGradient>
    <linearGradient x1="100%" y1="66.327%" x2="0%" y2="33.673%" id="no-app-Z">
      <stop stop-color="#2B6DE5" stop-opacity=".45" offset="0%"/>
      <stop stop-color="#2B6DE5" stop-opacity=".65" offset="100%"/>
    </linearGradient>
    <linearGradient x1="67.014%" y1="100%" x2="32.986%" y2="0%" id="no-app-ab">
      <stop stop-color="#2B6DE5" stop-opacity=".45" offset="0%"/>
      <stop stop-color="#2B6DE5" offset="100%"/>
    </linearGradient>
    <linearGradient x1="67.014%" y1="100%" x2="32.986%" y2="0%" id="no-app-ad">
      <stop stop-color="#2B6DE5" stop-opacity=".45" offset="0%"/>
      <stop stop-color="#2B6DE5" stop-opacity=".25" offset="100%"/>
    </linearGradient>
    <linearGradient x1="100%" y1="50%" x2="0%" y2="50%" id="no-app-ag">
      <stop stop-color="#2B6DE5" stop-opacity=".09" offset="0%"/>
      <stop stop-color="#2B6DE5" stop-opacity=".25" offset="100%"/>
    </linearGradient>
    <linearGradient x1="50%" y1="17.572%" x2="50%" y2="100%" id="no-app-ak">
      <stop stop-color="#2B6DE5" stop-opacity="0" offset="0%"/>
      <stop stop-color="#2B6DE5" stop-opacity=".15" offset="100%"/>
    </linearGradient>
    <filter x="-.5%" y="-.8%" width="101%" height="101.6%" filterUnits="objectBoundingBox" id="no-app-g">
      <feOffset dx="-1" dy=".5" in="SourceAlpha" result="shadowOffsetInner1"/>
      <feComposite in="shadowOffsetInner1" in2="SourceAlpha" operator="arithmetic" k2="-1" k3="1" result="shadowInnerInner1"/>
      <feColorMatrix values="0 0 0 0 1 0 0 0 0 1 0 0 0 0 1 0 0 0 0.25 0" in="shadowInnerInner1"/>
    </filter>
    <filter x="-1.9%" y="-1.1%" width="103.8%" height="102.2%" filterUnits="objectBoundingBox" id="no-app-q">
      <feOffset dx="-1" dy="-.5" in="SourceAlpha" result="shadowOffsetInner1"/>
      <feComposite in="shadowOffsetInner1" in2="SourceAlpha" operator="arithmetic" k2="-1" k3="1" result="shadowInnerInner1"/>
      <feColorMatrix values="0 0 0 0 1 0 0 0 0 1 0 0 0 0 1 0 0 0 0.25 0" in="shadowInnerInner1"/>
    </filter>
    <filter x="-1.9%" y="-1.1%" width="103.8%" height="102.2%" filterUnits="objectBoundingBox" id="no-app-x">
      <feOffset dx="-1" dy=".5" in="SourceAlpha" result="shadowOffsetInner1"/>
      <feComposite in="shadowOffsetInner1" in2="SourceAlpha" operator="arithmetic" k2="-1" k3="1" result="shadowInnerInner1"/>
      <feColorMatrix values="0 0 0 0 1 0 0 0 0 1 0 0 0 0 1 0 0 0 0.305698208 0" in="shadowInnerInner1"/>
    </filter>
    <filter x="-1.9%" y="-1.1%" width="103.8%" height="102.2%" filterUnits="objectBoundingBox" id="no-app-D">
      <feOffset dx="-1" dy="-.5" in="SourceAlpha" result="shadowOffsetInner1"/>
      <feComposite in="shadowOffsetInner1" in2="SourceAlpha" operator="arithmetic" k2="-1" k3="1" result="shadowInnerInner1"/>
      <feColorMatrix values="0 0 0 0 1 0 0 0 0 1 0 0 0 0 1 0 0 0 0.25 0" in="shadowInnerInner1"/>
    </filter>
    <filter x="-1.9%" y="-1.1%" width="103.8%" height="102.2%" filterUnits="objectBoundingBox" id="no-app-J">
      <feOffset dx="-1" dy=".5" in="SourceAlpha" result="shadowOffsetInner1"/>
      <feComposite in="shadowOffsetInner1" in2="SourceAlpha" operator="arithmetic" k2="-1" k3="1" result="shadowInnerInner1"/>
      <feColorMatrix values="0 0 0 0 1 0 0 0 0 1 0 0 0 0 1 0 0 0 0.25 0" in="shadowInnerInner1"/>
    </filter>
    <filter x="-2.4%" y="-1.4%" width="104.8%" height="102.8%" filterUnits="objectBoundingBox" id="no-app-Q">
      <feOffset dx="-1" dy="-.5" in="SourceAlpha" result="shadowOffsetInner1"/>
      <feComposite in="shadowOffsetInner1" in2="SourceAlpha" operator="arithmetic" k2="-1" k3="1" result="shadowInnerInner1"/>
      <feColorMatrix values="0 0 0 0 1 0 0 0 0 1 0 0 0 0 1 0 0 0 0.25 0" in="shadowInnerInner1"/>
    </filter>
    <filter x="-2.3%" y="-1.3%" width="104.5%" height="102.6%" filterUnits="objectBoundingBox" id="no-app-X">
      <feOffset dx="-1" dy=".5" in="SourceAlpha" result="shadowOffsetInner1"/>
      <feComposite in="shadowOffsetInner1" in2="SourceAlpha" operator="arithmetic" k2="-1" k3="1" result="shadowInnerInner1"/>
      <feColorMatrix values="0 0 0 0 1 0 0 0 0 1 0 0 0 0 1 0 0 0 0.25 0" in="shadowInnerInner1"/>
    </filter>
    <filter x="-3.6%" y="-2.1%" width="107.1%" height="104.2%" filterUnits="objectBoundingBox" id="no-app-ae">
      <feOffset dx="-1" dy=".5" in="SourceAlpha" result="shadowOffsetInner1"/>
      <feComposite in="shadowOffsetInner1" in2="SourceAlpha" operator="arithmetic" k2="-1" k3="1" result="shadowInnerInner1"/>
      <feColorMatrix values="0 0 0 0 1 0 0 0 0 1 0 0 0 0 1 0 0 0 0.25 0" in="shadowInnerInner1"/>
    </filter>
    <filter x="-1.9%" y="-1.1%" width="103.8%" height="102.2%" filterUnits="objectBoundingBox" id="no-app-aj">
      <feOffset dx="-1" dy=".5" in="SourceAlpha" result="shadowOffsetInner1"/>
      <feComposite in="shadowOffsetInner1" in2="SourceAlpha" operator="arithmetic" k2="-1" k3="1" result="shadowInnerInner1"/>
      <feColorMatrix values="0 0 0 0 1 0 0 0 0 1 0 0 0 0 1 0 0 0 0.25 0" in="shadowInnerInner1"/>
    </filter>
    <radialGradient cx="0%" cy="50%" fx="0%" fy="50%" r="173.333%" gradientTransform="scale(.57692 1)" id="no-app-k">
      <stop stop-color="#FFF" offset="0%"/>
      <stop stop-color="#FFF" stop-opacity="0" offset="100%"/>
    </radialGradient>
  </defs>
  <g fill="none" fill-rule="evenodd">
    <g transform="translate(31 100)">
      <use fill="#FFF" xlink:href="#no-app-a"/>
      <use fill="url(#no-app-b)" xlink:href="#no-app-a"/>
    </g>
    <g transform="translate(31 100)">
      <use fill="#FFF" xlink:href="#no-app-c"/>
      <use fill="url(#no-app-d)" xlink:href="#no-app-c"/>
    </g>
    <g transform="translate(31 100)">
      <use fill="#FFF" xlink:href="#no-app-e"/>
      <use fill="url(#no-app-f)" xlink:href="#no-app-e"/>
      <use fill="#000" filter="url(#no-app-g)" xlink:href="#no-app-e"/>
    </g>
    <g transform="translate(31 100)">
      <use fill="#FFF" xlink:href="#no-app-h"/>
      <use fill="url(#no-app-i)" xlink:href="#no-app-h"/>
    </g>
    <g transform="translate(102 94)">
      <use fill="#FFF" xlink:href="#no-app-j"/>
      <path stroke="url(#no-app-k)" d="M26 .577 51 15 26 29.423 1 15 26 .577Z" stroke-linejoin="square" fill="url(#no-app-l)"/>
    </g>
    <g transform="translate(102 94)">
      <use fill="#FFF" xlink:href="#no-app-m"/>
      <use fill="url(#no-app-n)" xlink:href="#no-app-m"/>
    </g>
    <g transform="translate(102 94)">
      <use fill="#FFF" xlink:href="#no-app-o"/>
      <use fill="url(#no-app-p)" xlink:href="#no-app-o"/>
      <use fill="#000" filter="url(#no-app-q)" xlink:href="#no-app-o"/>
    </g>
    <g transform="translate(131 111)">
      <use fill="#FFF" xlink:href="#no-app-r"/>
      <use fill="url(#no-app-s)" xlink:href="#no-app-r"/>
    </g>
    <g transform="translate(131 111)">
      <use fill="#FFF" xlink:href="#no-app-t"/>
      <use fill="url(#no-app-u)" xlink:href="#no-app-t"/>
    </g>
    <g transform="translate(131 111)">
      <use fill="#FFF" xlink:href="#no-app-v"/>
      <use fill="url(#no-app-w)" xlink:href="#no-app-v"/>
      <use fill="#000" filter="url(#no-app-x)" xlink:href="#no-app-v"/>
    </g>
    <g transform="translate(73 111)">
      <use fill="#FFF" xlink:href="#no-app-y"/>
      <use fill="url(#no-app-z)" xlink:href="#no-app-y"/>
    </g>
    <g transform="translate(73 111)">
      <use fill="#FFF" xlink:href="#no-app-A"/>
      <use fill="url(#no-app-n)" xlink:href="#no-app-A"/>
    </g>
    <g transform="translate(73 111)">
      <use fill="#FFF" xlink:href="#no-app-B"/>
      <use fill="url(#no-app-C)" xlink:href="#no-app-B"/>
      <use fill="#000" filter="url(#no-app-D)" xlink:href="#no-app-B"/>
    </g>
    <g transform="translate(102 128)">
      <use fill="#FFF" xlink:href="#no-app-E"/>
      <use fill="url(#no-app-s)" xlink:href="#no-app-E"/>
    </g>
    <g transform="translate(102 128)">
      <use fill="#FFF" xlink:href="#no-app-F"/>
      <use fill="url(#no-app-G)" xlink:href="#no-app-F"/>
    </g>
    <g transform="translate(102 128)">
      <use fill="#FFF" xlink:href="#no-app-H"/>
      <use fill="url(#no-app-I)" xlink:href="#no-app-H"/>
      <use fill="#000" filter="url(#no-app-J)" xlink:href="#no-app-H"/>
    </g>
    <g transform="translate(107 44)">
      <use fill="#FFF" xlink:href="#no-app-K"/>
      <use fill="url(#no-app-L)" xlink:href="#no-app-K"/>
    </g>
    <g transform="translate(107 44)">
      <use fill="#FFF" xlink:href="#no-app-M"/>
      <use fill="url(#no-app-N)" xlink:href="#no-app-M"/>
    </g>
    <g transform="translate(107 44)">
      <use fill="#FFF" xlink:href="#no-app-O"/>
      <use fill="url(#no-app-P)" xlink:href="#no-app-O"/>
      <use fill="#000" filter="url(#no-app-Q)" xlink:href="#no-app-O"/>
    </g>
    <g transform="translate(147 76)">
      <use fill="#FFF" xlink:href="#no-app-R"/>
      <use fill="url(#no-app-S)" xlink:href="#no-app-R"/>
    </g>
    <g transform="translate(147 76)">
      <use fill="#FFF" xlink:href="#no-app-T"/>
      <use fill="url(#no-app-U)" xlink:href="#no-app-T"/>
    </g>
    <g transform="translate(147 76)">
      <use fill="#FFF" xlink:href="#no-app-V"/>
      <use fill="url(#no-app-W)" xlink:href="#no-app-V"/>
      <use fill="#000" filter="url(#no-app-X)" xlink:href="#no-app-V"/>
    </g>
    <g transform="translate(69 70)">
      <use fill="#FFF" xlink:href="#no-app-Y"/>
      <use fill="url(#no-app-Z)" xlink:href="#no-app-Y"/>
    </g>
    <g transform="translate(69 70)">
      <use fill="#FFF" xlink:href="#no-app-aa"/>
      <use fill="url(#no-app-ab)" xlink:href="#no-app-aa"/>
    </g>
    <g transform="translate(69 70)">
      <use fill="#FFF" xlink:href="#no-app-ac"/>
      <use fill="url(#no-app-ad)" xlink:href="#no-app-ac"/>
      <use fill="#000" filter="url(#no-app-ae)" xlink:href="#no-app-ac"/>
    </g>
    <g transform="translate(102 94)">
      <use fill="#FFF" xlink:href="#no-app-af"/>
      <use fill="url(#no-app-ag)" xlink:href="#no-app-af"/>
    </g>
    <g transform="translate(102 94)">
      <use fill="#FFF" xlink:href="#no-app-ah"/>
      <use fill="url(#no-app-G)" xlink:href="#no-app-ah"/>
    </g>
    <g transform="translate(102 94)">
      <use fill="#FFF" xlink:href="#no-app-ai"/>
      <use fill="url(#no-app-I)" xlink:href="#no-app-ai"/>
      <use fill="#000" filter="url(#no-app-aj)" xlink:href="#no-app-ai"/>
    </g>
    <g transform="translate(31 72)" fill="url(#no-app-ak)">
      <path d="M194 0v84l-97 56V0h97ZM97 0v140L0 84V0h97Z"/>
    </g>
  </g>
</svg>
