<?xml version="1.0" encoding="utf-8"?>

<svg xmlns="http://www.w3.org/2000/svg" xmlns:xlink="http://www.w3.org/1999/xlink" viewBox="0 0 256 256">
  <defs>
    <linearGradient x1="100%" y1="50%" x2="0%" y2="50%" id="no-car-b">
      <stop stop-color="#2B6DE5" stop-opacity=".04" offset="0%"/>
      <stop stop-color="#2B6DE5" stop-opacity=".09" offset="100%"/>
    </linearGradient>
    <linearGradient x1="100%" y1="28.234%" x2="0%" y2="71.766%" id="no-car-d">
      <stop stop-color="#2B6DE5" stop-opacity=".15" offset="0%"/>
      <stop stop-color="#2B6DE5" stop-opacity=".45" offset="100%"/>
    </linearGradient>
    <linearGradient x1="0%" y1="28.234%" x2="100%" y2="71.766%" id="no-car-f">
      <stop stop-color="#2B6DE5" stop-opacity="0" offset="0%"/>
      <stop stop-color="#2B6DE5" stop-opacity=".25" offset="100%"/>
    </linearGradient>
    <linearGradient x1="100%" y1="50%" x2="0%" y2="50%" id="no-car-i">
      <stop stop-color="#2B6DE5" stop-opacity="0" offset="0%"/>
      <stop stop-color="#2B6DE5" stop-opacity=".25" offset="100%"/>
    </linearGradient>
    <linearGradient x1="50%" y1="17.572%" x2="50%" y2="100%" id="no-car-j">
      <stop stop-color="#2B6DE5" stop-opacity="0" offset="0%"/>
      <stop stop-color="#2B6DE5" stop-opacity=".15" offset="100%"/>
    </linearGradient>
    <linearGradient x1="100%" y1="50%" x2="0%" y2="50%" id="no-car-l">
      <stop stop-color="#2B6DE5" stop-opacity=".2" offset="0%"/>
      <stop stop-color="#2B6DE5" stop-opacity=".3" offset="100%"/>
    </linearGradient>
    <linearGradient x1="32.986%" y1="85.216%" x2="61.171%" y2="0%" id="no-car-o">
      <stop stop-color="#2B6DE5" stop-opacity=".55" offset="0%"/>
      <stop stop-color="#2B6DE5" offset="100%"/>
    </linearGradient>
    <linearGradient x1="136.118%" y1="9.523%" x2="82.067%" y2="72.74%" id="no-car-q">
      <stop stop-color="#2B6DE5" stop-opacity=".35" offset="0%"/>
      <stop stop-color="#2B6DE5" stop-opacity=".65" offset="100%"/>
    </linearGradient>
    <linearGradient x1="33.856%" y1="77.631%" x2="74.951%" y2="28.121%" id="no-car-u">
      <stop stop-color="#2B6DE5" stop-opacity=".04" offset="0%"/>
      <stop stop-color="#2B6DE5" stop-opacity=".15" offset="29.642%"/>
      <stop stop-color="#2B6DE5" stop-opacity=".15" offset="57.179%"/>
      <stop stop-color="#2B6DE5" stop-opacity=".45" offset="90.558%"/>
      <stop stop-color="#2B6DE5" stop-opacity=".25" offset="100%"/>
    </linearGradient>
    <linearGradient x1="0%" y1="78.599%" x2="60.117%" y2="52.152%" id="no-car-w">
      <stop stop-color="#2B6DE5" stop-opacity=".25" offset="0%"/>
      <stop stop-color="#2B6DE5" stop-opacity=".55" offset="100%"/>
    </linearGradient>
    <linearGradient x1="75.81%" y1="41.929%" x2="75.81%" y2="-54.532%" id="no-car-A">
      <stop stop-color="#2B6DE5" stop-opacity=".35" offset="0%"/>
      <stop stop-color="#2B6DE5" stop-opacity=".45" offset="100%"/>
    </linearGradient>
    <linearGradient x1="0%" y1="52.889%" x2="37.023%" y2="16.544%" id="no-car-C">
      <stop stop-color="#2B6DE5" stop-opacity="0" offset="0%"/>
      <stop stop-color="#2B6DE5" stop-opacity=".2" offset="99.913%"/>
    </linearGradient>
    <linearGradient x1="100%" y1="50.849%" x2="0%" y2="49.151%" id="no-car-E">
      <stop stop-color="#2B6DE5" stop-opacity=".45" offset="0%"/>
      <stop stop-color="#2B6DE5" stop-opacity=".65" offset="100%"/>
    </linearGradient>
    <linearGradient x1="100%" y1="81.841%" x2="0%" y2="18.159%" id="no-car-G">
      <stop stop-color="#2B6DE5" stop-opacity=".45" offset="0%"/>
      <stop stop-color="#2B6DE5" stop-opacity=".15" offset="100%"/>
    </linearGradient>
    <linearGradient x1="58.478%" y1="0%" x2="41.522%" y2="100%" id="no-car-I">
      <stop stop-color="#2B6DE5" stop-opacity=".25" offset="0%"/>
      <stop stop-color="#2B6DE5" stop-opacity=".6" offset="100%"/>
    </linearGradient>
    <linearGradient x1="34.929%" y1="0%" x2="64.968%" y2="99.659%" id="no-car-K">
      <stop stop-color="#2B6DE5" stop-opacity=".15" offset="0%"/>
      <stop stop-color="#2B6DE5" stop-opacity=".35" offset="100%"/>
    </linearGradient>
    <linearGradient x1="100%" y1="50%" x2="0%" y2="50%" id="no-car-M">
      <stop stop-color="#2B6DE5" stop-opacity=".2" offset="0%"/>
      <stop stop-color="#2B6DE5" stop-opacity=".3" offset="100%"/>
    </linearGradient>
    <linearGradient x1="65.432%" y1="100%" x2="34.568%" y2="0%" id="no-car-O">
      <stop stop-color="#2B6DE5" stop-opacity=".45" offset="0%"/>
      <stop stop-color="#2B6DE5" offset="100%"/>
    </linearGradient>
    <linearGradient x1="60.569%" y1="100%" x2="39.431%" y2="0%" id="no-car-Q">
      <stop stop-color="#2B6DE5" stop-opacity=".45" offset="0%"/>
      <stop stop-color="#2B6DE5" stop-opacity=".25" offset="100%"/>
    </linearGradient>
    <linearGradient x1="100%" y1="68%" x2="0%" y2="32%" id="no-car-T">
      <stop stop-color="#2B6DE5" stop-opacity=".45" offset="0%"/>
      <stop stop-color="#2B6DE5" stop-opacity=".65" offset="100%"/>
    </linearGradient>
    <linearGradient x1="64.222%" y1="0%" x2="35.778%" y2="100%" id="no-car-V">
      <stop stop-color="#2B6DE5" stop-opacity=".25" offset="0%"/>
      <stop stop-color="#2B6DE5" stop-opacity=".6" offset="100%"/>
    </linearGradient>
    <linearGradient x1="35.778%" y1="0%" x2="64.125%" y2="99.659%" id="no-car-X">
      <stop stop-color="#2B6DE5" stop-opacity=".15" offset="0%"/>
      <stop stop-color="#2B6DE5" stop-opacity=".35" offset="100%"/>
    </linearGradient>
    <linearGradient x1="100%" y1="50%" x2="0%" y2="50%" id="no-car-Z">
      <stop stop-color="#2B6DE5" stop-opacity=".2" offset="0%"/>
      <stop stop-color="#2B6DE5" stop-opacity=".3" offset="100%"/>
    </linearGradient>
    <linearGradient x1="50%" y1="17.572%" x2="50%" y2="100%" id="no-car-aa">
      <stop stop-color="#2B6DE5" stop-opacity="0" offset="0%"/>
      <stop stop-color="#2B6DE5" stop-opacity=".15" offset="100%"/>
    </linearGradient>
    <path d="M176.679 74 194 84l-97 56L0 84l17.321-10L97 120l79.679-46Z" id="no-car-a"/>
    <path d="m194 64-97 56v-8l97-56v8Z" id="no-car-c"/>
    <path d="M97 112v8L0 64v-8l97 56Z" id="no-car-e"/>
    <path d="m97 0 97 56-97 56L0 56 97 0Z" id="no-car-h"/>
    <path d="m128 118 65 38-65 38-65-38 65-38Z" id="no-car-k"/>
    <path id="no-car-m" d="M29.06 46.486 52.453 60.01l6.607-6.024-18-30z"/>
    <path d="M47.758 64.523c1.288 0-4.719-.07-18.022-.214l2.429-11.794 15.593.008c-1.933 0-3.5 2.687-3.5 6 0 3.314 1.567 6 3.5 6Z" id="no-car-p"/>
    <path id="no-car-r" d="M72.06 21.386 95.453 34.91l4.525-4.126-2.918-2.798z"/>
    <path d="M90.758 39.523c1.288 0-4.719-.07-18.022-.214l2.429-11.794 15.593.008c-1.933 0-3.5 2.687-3.5 6 0 3.314 1.567 6 3.5 6Z" id="no-car-s"/>
    <path d="M.06 53.486c-.607-7.828 3.393-15.328 12-22.5 6-5 15-23 29-29 10.424-4.468 13.714 0 17 0 3.286 0 4-2 9 1l.119.071.255.152c3.622 2.167 13.423 7.95 29.4 17.35-2.177-.693-4.315.427-6.774.427-3.286 0-6.576-4.468-17 0-14 6-23 24-29 29-8.607 7.172-12.607 14.505-12 22Z" id="no-car-t"/>
    <path d="M73.06 20.986c10.424-4.468 13.714 0 17 0 3.286 0 6-2 9 1 2 2 3 5 3 9l-6.61 3.87c-.059-1.706-.694-3.108-1.89-3.799-2.392-1.38-6.121.602-8.33 4.429-1.24 2.147-1.737 4.419-1.513 6.243L52.454 60.04c-.018-1.79-.655-3.267-1.894-3.983-2.392-1.38-6.121.602-8.33 4.429-1.28 2.215-1.768 4.562-1.49 6.414l-8.68 5.086c-.607-7.495 3.393-14.828 12-22 6-5 15-23 29-29Z" id="no-car-v"/>
    <path d="M53.06 43.986c3.333-2 14.667-8.667 34-20-4-3.334-9-3.334-15 0-9 5-15 13-19 20Z" id="no-car-z"/>
    <path d="m34.06 9.176 28 16.363c-6.416 5.447-11 12.447-17 20.447-12-7.334-21.333-13-28-17 5-7 11-15 17-19.81Z" id="no-car-B"/>
    <path id="no-car-D" d="m78.97 33.5.06 1-69 8-.06-1z"/>
    <path id="no-car-F" d="m49.405 9.707 30 24-.81.586-30-24z"/>
    <path d="m7 0 7 4.25v8.5L7 17V8.5l6.999-4.25L7 0Z" id="no-car-H"/>
    <path d="M7 8.5V17l-7-4.25v-8.5L7 8.5Z" id="no-car-J"/>
    <path d="m7 0 6.999 4.25L7 8.5 0 4.25 7 0Z" id="no-car-L"/>
    <path d="m20 18-10 6V12l10-6v12Z" id="no-car-N"/>
    <path d="M10 12v12L0 18V6l10 6Z" id="no-car-P"/>
    <path d="m10 0 10 6-10 6L0 6l10-6Z" id="no-car-S"/>
    <path d="m16 15-8 5V10l8-5v10Z" id="no-car-U"/>
    <path d="M8 10v10l-8-5V5l8 5Z" id="no-car-W"/>
    <path d="m8 0 8 5-8 5-8-5 8-5Z" id="no-car-Y"/>
    <filter x="-.5%" y="-.8%" width="101%" height="101.6%" filterUnits="objectBoundingBox" id="no-car-g">
      <feOffset dx="-1" dy=".5" in="SourceAlpha" result="shadowOffsetInner1"/>
      <feComposite in="shadowOffsetInner1" in2="SourceAlpha" operator="arithmetic" k2="-1" k3="1" result="shadowInnerInner1"/>
      <feColorMatrix values="0 0 0 0 1 0 0 0 0 1 0 0 0 0 1 0 0 0 0.25 0" in="shadowInnerInner1"/>
    </filter>
    <filter x="-.4%" y="-.5%" width="100.7%" height="100.9%" filterUnits="objectBoundingBox" id="no-car-x">
      <feOffset dx=".5" dy=".5" in="SourceAlpha" result="shadowOffsetInner1"/>
      <feComposite in="shadowOffsetInner1" in2="SourceAlpha" operator="arithmetic" k2="-1" k3="1" result="shadowInnerInner1"/>
      <feColorMatrix values="0 0 0 0 1 0 0 0 0 1 0 0 0 0 1 0 0 0 0.25 0" in="shadowInnerInner1"/>
    </filter>
    <filter x="-5%" y="14.9%" width="110%" height="87.4%" filterUnits="objectBoundingBox" id="no-car-R">
      <feOffset dx="-1" dy=".5" in="SourceAlpha" result="shadowOffsetInner1"/>
      <feComposite in="shadowOffsetInner1" in2="SourceAlpha" operator="arithmetic" k2="-1" k3="1" result="shadowInnerInner1"/>
      <feColorMatrix values="0 0 0 0 1 0 0 0 0 1 0 0 0 0 1 0 0 0 0.25 0" in="shadowInnerInner1"/>
    </filter>
    <ellipse id="no-car-n" cx="46.56" cy="62.986" rx="3.5" ry="6"/>
    <ellipse id="no-car-y" cx="89.56" cy="37.986" rx="3.5" ry="6"/>
  </defs>
  <g fill="none" fill-rule="evenodd">
    <g transform="translate(31 100)">
      <use fill="url(#no-car-b)" xlink:href="#no-car-a"/>
    </g>
    <g transform="translate(31 100)">
      <use fill="#FFF" xlink:href="#no-car-c"/>
      <use fill="url(#no-car-d)" xlink:href="#no-car-c"/>
    </g>
    <g transform="translate(31 100)">
      <use fill="#FFF" xlink:href="#no-car-e"/>
      <use fill="url(#no-car-f)" xlink:href="#no-car-e"/>
      <use fill="#000" filter="url(#no-car-g)" xlink:href="#no-car-e"/>
    </g>
    <g transform="translate(31 100)">
      <use fill="#FFF" xlink:href="#no-car-h"/>
      <use fill="url(#no-car-i)" xlink:href="#no-car-h"/>
    </g>
    <g transform="translate(31 72)" fill="url(#no-car-j)">
      <path d="M194 0v84l-97 56V0h97ZM97 0v140L0 84V0h97Z"/>
    </g>
    <use fill="#FFF" xlink:href="#no-car-k"/>
    <use fill="url(#no-car-l)" xlink:href="#no-car-k"/>
    <g transform="translate(79.94 96.014)">
      <use fill="#FFF" xlink:href="#no-car-m"/>
      <use fill-opacity=".645" fill="#2B6DE5" xlink:href="#no-car-m"/>
    </g>
    <g transform="rotate(30 -92.635 260.163)">
      <use fill="#FFF" xlink:href="#no-car-n"/>
      <use fill="url(#no-car-o)" xlink:href="#no-car-n"/>
    </g>
    <g transform="rotate(30 -100.363 255.697)">
      <use fill="#FFF" xlink:href="#no-car-p"/>
      <use fill="url(#no-car-q)" xlink:href="#no-car-p"/>
    </g>
    <g transform="translate(79.94 96.014)">
      <use fill="#FFF" xlink:href="#no-car-r"/>
      <use fill-opacity=".645" fill="#2B6DE5" xlink:href="#no-car-r"/>
    </g>
    <g transform="rotate(30 -57.363 230.697)">
      <use fill="#FFF" xlink:href="#no-car-s"/>
      <use fill="url(#no-car-q)" xlink:href="#no-car-s"/>
    </g>
    <g transform="translate(79.94 96.014)">
      <use fill="#FFF" xlink:href="#no-car-t"/>
      <use fill="url(#no-car-u)" xlink:href="#no-car-t"/>
    </g>
    <g transform="translate(79.94 96.014)">
      <use fill="#FFF" xlink:href="#no-car-v"/>
      <use fill="url(#no-car-w)" xlink:href="#no-car-v"/>
      <use fill="#000" filter="url(#no-car-x)" xlink:href="#no-car-v"/>
    </g>
    <g transform="rotate(30 -49.635 235.163)">
      <use fill="#FFF" xlink:href="#no-car-y"/>
      <use fill="url(#no-car-o)" xlink:href="#no-car-y"/>
    </g>
    <g transform="translate(79.94 96.014)">
      <use fill="#FFF" xlink:href="#no-car-z"/>
      <use fill="url(#no-car-A)" xlink:href="#no-car-z"/>
    </g>
    <g transform="translate(79.94 96.014)">
      <use fill="#FFF" xlink:href="#no-car-B"/>
      <use fill="url(#no-car-C)" xlink:href="#no-car-B"/>
    </g>
    <g transform="translate(84 36)">
      <use fill="#FFF" xlink:href="#no-car-D"/>
      <use fill="url(#no-car-E)" xlink:href="#no-car-D"/>
    </g>
    <g transform="translate(84 36)">
      <use fill="#FFF" xlink:href="#no-car-F"/>
      <use fill="url(#no-car-G)" xlink:href="#no-car-F"/>
    </g>
    <g transform="translate(156 61)">
      <use fill="#FFF" xlink:href="#no-car-H"/>
      <use fill="url(#no-car-I)" xlink:href="#no-car-H"/>
    </g>
    <g transform="translate(156 61)">
      <use fill="#FFF" xlink:href="#no-car-J"/>
      <use fill="url(#no-car-K)" xlink:href="#no-car-J"/>
    </g>
    <g transform="translate(156 61)">
      <use fill="#FFF" xlink:href="#no-car-L"/>
      <use fill="url(#no-car-M)" xlink:href="#no-car-L"/>
    </g>
    <g transform="translate(84 66)">
      <use fill="#FFF" xlink:href="#no-car-N"/>
      <use fill="url(#no-car-O)" xlink:href="#no-car-N"/>
    </g>
    <g transform="translate(84 66)">
      <use fill="#FFF" xlink:href="#no-car-P"/>
      <use fill="url(#no-car-Q)" xlink:href="#no-car-P"/>
      <use fill="#000" filter="url(#no-car-R)" xlink:href="#no-car-P"/>
    </g>
    <g transform="translate(84 66)">
      <use fill="#FFF" xlink:href="#no-car-S"/>
      <use fill="url(#no-car-T)" xlink:href="#no-car-S"/>
    </g>
    <g transform="translate(125 36)">
      <use fill="#FFF" xlink:href="#no-car-U"/>
      <use fill="url(#no-car-V)" xlink:href="#no-car-U"/>
    </g>
    <g transform="translate(125 36)">
      <use fill="#FFF" xlink:href="#no-car-W"/>
      <use fill="url(#no-car-X)" xlink:href="#no-car-W"/>
    </g>
    <g transform="translate(125 36)">
      <use fill="#FFF" xlink:href="#no-car-Y"/>
      <use fill="url(#no-car-Z)" xlink:href="#no-car-Y"/>
    </g>
    <path fill="url(#no-car-aa)" d="m128 42 65 38v76l-65 38-65-38V80z"/>
  </g>
</svg>
