<?xml version="1.0" encoding="utf-8"?>

<svg xmlns="http://www.w3.org/2000/svg" xmlns:xlink="http://www.w3.org/1999/xlink" viewBox="0 0 256 256">
  <defs>
    <path d="M176.679 74 194 84l-97 56L0 84l17.321-10L97 120l79.679-46Z" id="no-cars-a"/>
    <path d="m194 64-97 56v-8l97-56v8Z" id="no-cars-c"/>
    <path d="M97 112v8L0 64v-8l97 56Z" id="no-cars-e"/>
    <path d="m97 0 97 56-97 56L0 56 97 0Z" id="no-cars-h"/>
    <path d="m128 118 65 38-65 38-65-38 65-38Z" id="no-cars-k"/>
    <path id="no-cars-m" d="m20.032 32.282 16.125 9.392 4.554-4.184-12.408-20.833z"/>
    <path d="M32.942 44.826c.89.003-3.259-.06-12.446-.188l1.65-8.17 10.77.04c-1.335-.004-2.412 1.855-2.404 4.152.007 2.296 1.095 4.162 2.43 4.166Z" id="no-cars-p"/>
    <path id="no-cars-r" d="m49.672 14.851 16.126 9.392 3.119-2.865-2.012-1.944z"/>
    <path d="M62.583 27.465c.89.003-3.259-.06-12.446-.188l1.65-8.17 10.77.04c-1.336-.004-2.412 1.854-2.405 4.151.008 2.297 1.096 4.163 2.43 4.167Z" id="no-cars-s"/>
    <path d="M.041 37.143 22.1 49.99l5.514-11.806 39.636-23.61C55.532 7.628 48.524 3.461 46.226 2.073c-3.447-2.084-3.939-.695-6.204-.695-2.265 0-4.533-3.103-11.719 0-9.65 4.167-15.854 16.667-19.99 20.139C2.38 26.498-.377 31.707.041 37.143Z" id="no-cars-t"/>
    <path d="M50.362 14.573c7.185-3.102 9.453 0 11.718 0 .566 0 1.108-.086 1.634-.184l.392-.074c1.428-.27 2.756-.48 4.178.953 1.379 1.389 2.068 3.472 2.068 6.25l-4.556 2.688c-.04-1.185-.479-2.159-1.303-2.638-1.649-.96-4.22.418-5.742 3.075-.855 1.491-1.198 3.069-1.043 4.335l-21.55 12.716c-.013-1.243-.452-2.269-1.306-2.765-1.649-.96-4.22.418-5.742 3.075-.882 1.539-1.219 3.17-1.026 4.456L22.1 49.99c-.419-5.205 2.339-10.297 8.271-15.278 4.136-3.472 10.34-15.972 19.99-20.139Z" id="no-cars-v"/>
    <path d="M36.575 30.546c2.298-1.39 10.11-6.019 23.437-13.89-2.757-2.314-6.204-2.314-10.34 0-6.204 3.473-10.34 9.028-13.097 13.89Z" id="no-cars-y"/>
    <path d="M23.478 6.372 42.78 17.736c-4.422 3.782-7.582 8.643-11.718 14.198A2961.616 2961.616 0 0 0 11.76 20.13c3.446-4.861 7.583-10.417 11.718-13.757Z" id="no-cars-A"/>
    <path id="no-cars-C" d="m22.57 36.155 18.17 10.52 5.132-4.686-13.98-23.334z"/>
    <path d="M37.098 50.189c1.001 0-3.666-.058-14.002-.175l1.88-9.17 12.116.015c-1.501-.001-2.718 2.087-2.716 4.663.001 2.577 1.22 4.666 2.722 4.667Z" id="no-cars-F"/>
    <path id="no-cars-H" d="m55.969 16.633 18.17 10.52 3.514-3.21-2.267-2.176z"/>
    <path d="M70.496 30.744c1.001 0-3.666-.057-14.002-.175l1.881-9.169 12.115.014c-1.501 0-2.718 2.087-2.716 4.664.001 2.576 1.22 4.665 2.722 4.666Z" id="no-cars-I"/>
    <path d="M.047 41.6 24.9 55.989l6.213-13.222 44.66-26.445c-13.203-7.778-21.1-12.444-23.689-14-3.883-2.333-4.437-.778-6.99-.778-2.552 0-5.107-3.474-13.204 0C21.017 6.211 14.027 20.211 9.367 24.1 2.682 29.678-.425 35.512.047 41.6Z" id="no-cars-J"/>
    <path d="M56.746 16.322c8.096-3.475 10.65 0 13.203 0 2.553 0 4.66-1.555 6.99.778 1.554 1.555 2.33 3.889 2.33 7l-5.133 3.011c-.046-1.328-.539-2.418-1.468-2.955-1.858-1.074-4.754.468-6.47 3.444-.963 1.67-1.35 3.437-1.175 4.856L40.741 46.698c-.014-1.392-.509-2.541-1.471-3.098-1.858-1.074-4.754.468-6.47 3.444-.994 1.724-1.374 3.55-1.156 4.991L24.9 55.99c-.471-5.83 2.636-11.533 9.32-17.111 4.66-3.89 11.65-17.89 22.525-22.556Z" id="no-cars-L"/>
    <path d="M41.212 34.211c2.589-1.556 11.391-6.74 26.407-15.556-3.106-2.592-6.99-2.592-11.65 0-6.99 3.89-11.65 10.112-14.757 15.556Z" id="no-cars-O"/>
    <path d="m26.454 7.137 21.748 12.727c-4.983 4.236-8.544 9.68-13.204 15.903-9.32-5.704-16.57-10.112-21.748-13.223 3.884-5.444 8.545-11.666 13.204-15.407Z" id="no-cars-Q"/>
    <path id="no-cars-T" d="m78.97 33.5.06 1-69 8-.06-1z"/>
    <path id="no-cars-V" d="m49.405 9.707 30 24-.81.586-30-24z"/>
    <path d="m7 0 7 4.25v8.5L7 17V8.5l6.999-4.25L7 0Z" id="no-cars-X"/>
    <path d="M7 8.5V17l-7-4.25v-8.5L7 8.5Z" id="no-cars-Z"/>
    <path d="m7 0 6.999 4.25L7 8.5 0 4.25 7 0Z" id="no-cars-ab"/>
    <path d="m20 18-10 6V12l10-6v12Z" id="no-cars-ad"/>
    <path d="M10 12v12L0 18V6l10 6Z" id="no-cars-af"/>
    <path d="m10 0 10 6-10 6L0 6l10-6Z" id="no-cars-ai"/>
    <path d="m16 15-8 5V10l8-5v10Z" id="no-cars-ak"/>
    <path d="M8 10v10l-8-5V5l8 5Z" id="no-cars-am"/>
    <path d="m8 0 8 5-8 5-8-5 8-5Z" id="no-cars-ao"/>
    <linearGradient x1="100%" y1="50%" x2="0%" y2="50%" id="no-cars-b">
      <stop stop-color="#2B6DE5" stop-opacity=".04" offset="0%"/>
      <stop stop-color="#2B6DE5" stop-opacity=".09" offset="100%"/>
    </linearGradient>
    <linearGradient x1="100%" y1="28.234%" x2="0%" y2="71.766%" id="no-cars-d">
      <stop stop-color="#2B6DE5" stop-opacity=".15" offset="0%"/>
      <stop stop-color="#2B6DE5" stop-opacity=".45" offset="100%"/>
    </linearGradient>
    <linearGradient x1="0%" y1="28.234%" x2="100%" y2="71.766%" id="no-cars-f">
      <stop stop-color="#2B6DE5" stop-opacity="0" offset="0%"/>
      <stop stop-color="#2B6DE5" stop-opacity=".25" offset="100%"/>
    </linearGradient>
    <linearGradient x1="100%" y1="50%" x2="0%" y2="50%" id="no-cars-i">
      <stop stop-color="#2B6DE5" stop-opacity="0" offset="0%"/>
      <stop stop-color="#2B6DE5" stop-opacity=".25" offset="100%"/>
    </linearGradient>
    <linearGradient x1="50%" y1="17.572%" x2="50%" y2="100%" id="no-cars-j">
      <stop stop-color="#2B6DE5" stop-opacity="0" offset="0%"/>
      <stop stop-color="#2B6DE5" stop-opacity=".15" offset="100%"/>
    </linearGradient>
    <linearGradient x1="100%" y1="50%" x2="0%" y2="50%" id="no-cars-l">
      <stop stop-color="#2B6DE5" stop-opacity=".2" offset="0%"/>
      <stop stop-color="#2B6DE5" stop-opacity=".3" offset="100%"/>
    </linearGradient>
    <linearGradient x1="33.111%" y1="85.216%" x2="61.089%" y2="0%" id="no-cars-o">
      <stop stop-color="#2B6DE5" stop-opacity=".55" offset="0%"/>
      <stop stop-color="#2B6DE5" offset="100%"/>
    </linearGradient>
    <linearGradient x1="136.118%" y1="8.885%" x2="82.067%" y2="73.098%" id="no-cars-q">
      <stop stop-color="#2B6DE5" stop-opacity=".35" offset="0%"/>
      <stop stop-color="#2B6DE5" stop-opacity=".65" offset="100%"/>
    </linearGradient>
    <linearGradient x1="33.856%" y1="77.628%" x2="74.951%" y2="28.124%" id="no-cars-u">
      <stop stop-color="#2B6DE5" stop-opacity=".04" offset="0%"/>
      <stop stop-color="#2B6DE5" stop-opacity=".15" offset="29.642%"/>
      <stop stop-color="#2B6DE5" stop-opacity=".15" offset="57.179%"/>
      <stop stop-color="#2B6DE5" stop-opacity=".45" offset="90.558%"/>
      <stop stop-color="#2B6DE5" stop-opacity=".25" offset="100%"/>
    </linearGradient>
    <linearGradient x1="0%" y1="79.025%" x2="60.117%" y2="52.184%" id="no-cars-w">
      <stop stop-color="#2B6DE5" stop-opacity=".25" offset="0%"/>
      <stop stop-color="#2B6DE5" stop-opacity=".55" offset="100%"/>
    </linearGradient>
    <linearGradient x1="75.81%" y1="41.929%" x2="75.81%" y2="-54.532%" id="no-cars-z">
      <stop stop-color="#2B6DE5" stop-opacity=".35" offset="0%"/>
      <stop stop-color="#2B6DE5" stop-opacity=".45" offset="100%"/>
    </linearGradient>
    <linearGradient x1="0%" y1="52.932%" x2="37.023%" y2="16.045%" id="no-cars-B">
      <stop stop-color="#2B6DE5" stop-opacity="0" offset="0%"/>
      <stop stop-color="#2B6DE5" stop-opacity=".2" offset="99.913%"/>
    </linearGradient>
    <linearGradient x1="33.01%" y1="85.216%" x2="61.156%" y2="0%" id="no-cars-E">
      <stop stop-color="#2B6DE5" stop-opacity=".55" offset="0%"/>
      <stop stop-color="#2B6DE5" offset="100%"/>
    </linearGradient>
    <linearGradient x1="136.118%" y1="9.404%" x2="82.067%" y2="72.807%" id="no-cars-G">
      <stop stop-color="#2B6DE5" stop-opacity=".35" offset="0%"/>
      <stop stop-color="#2B6DE5" stop-opacity=".65" offset="100%"/>
    </linearGradient>
    <linearGradient x1="33.856%" y1="77.298%" x2="74.951%" y2="28.385%" id="no-cars-K">
      <stop stop-color="#2B6DE5" stop-opacity=".04" offset="0%"/>
      <stop stop-color="#2B6DE5" stop-opacity=".15" offset="29.642%"/>
      <stop stop-color="#2B6DE5" stop-opacity=".15" offset="57.179%"/>
      <stop stop-color="#2B6DE5" stop-opacity=".45" offset="90.558%"/>
      <stop stop-color="#2B6DE5" stop-opacity=".25" offset="100%"/>
    </linearGradient>
    <linearGradient x1="0%" y1="78.678%" x2="60.117%" y2="52.158%" id="no-cars-M">
      <stop stop-color="#2B6DE5" stop-opacity=".25" offset="0%"/>
      <stop stop-color="#2B6DE5" stop-opacity=".55" offset="100%"/>
    </linearGradient>
    <linearGradient x1="75.81%" y1="41.929%" x2="75.81%" y2="-54.532%" id="no-cars-P">
      <stop stop-color="#2B6DE5" stop-opacity=".35" offset="0%"/>
      <stop stop-color="#2B6DE5" stop-opacity=".45" offset="100%"/>
    </linearGradient>
    <linearGradient x1="0%" y1="52.897%" x2="37.023%" y2="16.451%" id="no-cars-R">
      <stop stop-color="#2B6DE5" stop-opacity="0" offset="0%"/>
      <stop stop-color="#2B6DE5" stop-opacity=".2" offset="99.913%"/>
    </linearGradient>
    <linearGradient x1="50%" y1="17.572%" x2="50%" y2="100%" id="no-cars-S">
      <stop stop-color="#2B6DE5" stop-opacity="0" offset="0%"/>
      <stop stop-color="#2B6DE5" stop-opacity=".15" offset="100%"/>
    </linearGradient>
    <linearGradient x1="100%" y1="50.849%" x2="0%" y2="49.151%" id="no-cars-U">
      <stop stop-color="#2B6DE5" stop-opacity=".45" offset="0%"/>
      <stop stop-color="#2B6DE5" stop-opacity=".65" offset="100%"/>
    </linearGradient>
    <linearGradient x1="100%" y1="81.841%" x2="0%" y2="18.159%" id="no-cars-W">
      <stop stop-color="#2B6DE5" stop-opacity=".45" offset="0%"/>
      <stop stop-color="#2B6DE5" stop-opacity=".15" offset="100%"/>
    </linearGradient>
    <linearGradient x1="58.478%" y1="0%" x2="41.522%" y2="100%" id="no-cars-Y">
      <stop stop-color="#2B6DE5" stop-opacity=".25" offset="0%"/>
      <stop stop-color="#2B6DE5" stop-opacity=".6" offset="100%"/>
    </linearGradient>
    <linearGradient x1="34.929%" y1="0%" x2="64.968%" y2="99.659%" id="no-cars-aa">
      <stop stop-color="#2B6DE5" stop-opacity=".15" offset="0%"/>
      <stop stop-color="#2B6DE5" stop-opacity=".35" offset="100%"/>
    </linearGradient>
    <linearGradient x1="100%" y1="50%" x2="0%" y2="50%" id="no-cars-ac">
      <stop stop-color="#2B6DE5" stop-opacity=".2" offset="0%"/>
      <stop stop-color="#2B6DE5" stop-opacity=".3" offset="100%"/>
    </linearGradient>
    <linearGradient x1="65.432%" y1="100%" x2="34.568%" y2="0%" id="no-cars-ae">
      <stop stop-color="#2B6DE5" stop-opacity=".45" offset="0%"/>
      <stop stop-color="#2B6DE5" offset="100%"/>
    </linearGradient>
    <linearGradient x1="60.569%" y1="100%" x2="39.431%" y2="0%" id="no-cars-ag">
      <stop stop-color="#2B6DE5" stop-opacity=".45" offset="0%"/>
      <stop stop-color="#2B6DE5" stop-opacity=".25" offset="100%"/>
    </linearGradient>
    <linearGradient x1="100%" y1="68%" x2="0%" y2="32%" id="no-cars-aj">
      <stop stop-color="#2B6DE5" stop-opacity=".45" offset="0%"/>
      <stop stop-color="#2B6DE5" stop-opacity=".65" offset="100%"/>
    </linearGradient>
    <linearGradient x1="64.222%" y1="0%" x2="35.778%" y2="100%" id="no-cars-al">
      <stop stop-color="#2B6DE5" stop-opacity=".25" offset="0%"/>
      <stop stop-color="#2B6DE5" stop-opacity=".6" offset="100%"/>
    </linearGradient>
    <linearGradient x1="35.778%" y1="0%" x2="64.125%" y2="99.659%" id="no-cars-an">
      <stop stop-color="#2B6DE5" stop-opacity=".15" offset="0%"/>
      <stop stop-color="#2B6DE5" stop-opacity=".35" offset="100%"/>
    </linearGradient>
    <linearGradient x1="100%" y1="50%" x2="0%" y2="50%" id="no-cars-ap">
      <stop stop-color="#2B6DE5" stop-opacity=".2" offset="0%"/>
      <stop stop-color="#2B6DE5" stop-opacity=".3" offset="100%"/>
    </linearGradient>
    <ellipse id="no-cars-n" cx="32.095" cy="43.74" rx="2.417" ry="4.159"/>
    <ellipse id="no-cars-x" cx="61.735" cy="26.379" rx="2.417" ry="4.159"/>
    <ellipse id="no-cars-D" cx="36.163" cy="48.989" rx="2.719" ry="4.665"/>
    <ellipse id="no-cars-N" cx="69.561" cy="29.544" rx="2.719" ry="4.665"/>
    <filter x="-.5%" y="-.8%" width="101%" height="101.6%" filterUnits="objectBoundingBox" id="no-cars-g">
      <feOffset dx="-1" dy=".5" in="SourceAlpha" result="shadowOffsetInner1"/>
      <feComposite in="shadowOffsetInner1" in2="SourceAlpha" operator="arithmetic" k2="-1" k3="1" result="shadowInnerInner1"/>
      <feColorMatrix values="0 0 0 0 1 0 0 0 0 1 0 0 0 0 1 0 0 0 0.25 0" in="shadowInnerInner1"/>
    </filter>
    <filter x="-5%" y="14.9%" width="110%" height="87.4%" filterUnits="objectBoundingBox" id="no-cars-ah">
      <feOffset dx="-1" dy=".5" in="SourceAlpha" result="shadowOffsetInner1"/>
      <feComposite in="shadowOffsetInner1" in2="SourceAlpha" operator="arithmetic" k2="-1" k3="1" result="shadowInnerInner1"/>
      <feColorMatrix values="0 0 0 0 1 0 0 0 0 1 0 0 0 0 1 0 0 0 0.25 0" in="shadowInnerInner1"/>
    </filter>
  </defs>
  <g fill="none" fill-rule="evenodd">
    <g transform="translate(31 100)">
      <use fill="url(#no-cars-b)" xlink:href="#no-cars-a"/>
    </g>
    <g transform="translate(31 100)">
      <use fill="#FFF" xlink:href="#no-cars-c"/>
      <use fill="url(#no-cars-d)" xlink:href="#no-cars-c"/>
    </g>
    <g transform="translate(31 100)">
      <use fill="#FFF" xlink:href="#no-cars-e"/>
      <use fill="url(#no-cars-f)" xlink:href="#no-cars-e"/>
      <use fill="#000" filter="url(#no-cars-g)" xlink:href="#no-cars-e"/>
    </g>
    <g transform="translate(31 100)">
      <use fill="#FFF" xlink:href="#no-cars-h"/>
      <use fill="url(#no-cars-i)" xlink:href="#no-cars-h"/>
    </g>
    <g transform="translate(31 72)" fill="url(#no-cars-j)">
      <path d="M194 0v84l-97 56V0h97ZM97 0v140L0 84V0h97Z"/>
    </g>
    <use fill="#FFF" xlink:href="#no-cars-k"/>
    <use fill="url(#no-cars-l)" xlink:href="#no-cars-k"/>
    <g transform="translate(73 95)">
      <use fill="#FFF" xlink:href="#no-cars-m"/>
      <use fill-opacity=".645" fill="#2B6DE5" xlink:href="#no-cars-m"/>
    </g>
    <g transform="rotate(30 -108.678 227.46)">
      <use fill="#FFF" xlink:href="#no-cars-n"/>
      <use fill="url(#no-cars-o)" xlink:href="#no-cars-n"/>
    </g>
    <g transform="rotate(30 -113.994 224.367)">
      <use fill="#FFF" xlink:href="#no-cars-p"/>
      <use fill="url(#no-cars-q)" xlink:href="#no-cars-p"/>
    </g>
    <g transform="translate(73 95)">
      <use fill="#FFF" xlink:href="#no-cars-r"/>
      <use fill-opacity=".645" fill="#2B6DE5" xlink:href="#no-cars-r"/>
    </g>
    <g transform="rotate(30 -84.354 207.006)">
      <use fill="#FFF" xlink:href="#no-cars-s"/>
      <use fill="url(#no-cars-q)" xlink:href="#no-cars-s"/>
    </g>
    <g transform="translate(73 95)">
      <use fill="#FFF" xlink:href="#no-cars-t"/>
      <use fill="url(#no-cars-u)" xlink:href="#no-cars-t"/>
    </g>
    <g transform="translate(73 95)">
      <use fill="#FFF" xlink:href="#no-cars-v"/>
      <use fill="url(#no-cars-w)" xlink:href="#no-cars-v"/>
    </g>
    <g transform="rotate(30 -79.037 210.099)">
      <use fill="#FFF" xlink:href="#no-cars-x"/>
      <use fill="url(#no-cars-o)" xlink:href="#no-cars-x"/>
    </g>
    <g transform="translate(73 95)">
      <use fill="#FFF" xlink:href="#no-cars-y"/>
      <use fill="url(#no-cars-z)" xlink:href="#no-cars-y"/>
    </g>
    <g transform="translate(73 95)">
      <use fill="#FFF" xlink:href="#no-cars-A"/>
      <use fill="url(#no-cars-B)" xlink:href="#no-cars-A"/>
    </g>
    <g transform="translate(101.94 127.014)">
      <use fill="#FFF" xlink:href="#no-cars-C"/>
      <use fill-opacity=".645" fill="#2B6DE5" xlink:href="#no-cars-C"/>
    </g>
    <g transform="rotate(30 -149.88 302.719)">
      <use fill="#FFF" xlink:href="#no-cars-D"/>
      <use fill="url(#no-cars-E)" xlink:href="#no-cars-D"/>
    </g>
    <g transform="rotate(30 -155.879 299.247)">
      <use fill="#FFF" xlink:href="#no-cars-F"/>
      <use fill="url(#no-cars-G)" xlink:href="#no-cars-F"/>
    </g>
    <g transform="translate(101.94 127.014)">
      <use fill="#FFF" xlink:href="#no-cars-H"/>
      <use fill-opacity=".645" fill="#2B6DE5" xlink:href="#no-cars-H"/>
    </g>
    <g transform="rotate(30 -122.48 279.802)">
      <use fill="#FFF" xlink:href="#no-cars-I"/>
      <use fill="url(#no-cars-G)" xlink:href="#no-cars-I"/>
    </g>
    <g transform="translate(101.94 127.014)">
      <use fill="#FFF" xlink:href="#no-cars-J"/>
      <use fill="url(#no-cars-K)" xlink:href="#no-cars-J"/>
    </g>
    <g transform="translate(101.94 127.014)">
      <use fill="#FFF" xlink:href="#no-cars-L"/>
      <use fill="url(#no-cars-M)" xlink:href="#no-cars-L"/>
    </g>
    <g transform="rotate(30 -116.481 283.274)">
      <use fill="#FFF" xlink:href="#no-cars-N"/>
      <use fill="url(#no-cars-E)" xlink:href="#no-cars-N"/>
    </g>
    <g transform="translate(101.94 127.014)">
      <use fill="#FFF" xlink:href="#no-cars-O"/>
      <use fill="url(#no-cars-P)" xlink:href="#no-cars-O"/>
    </g>
    <g transform="translate(101.94 127.014)">
      <use fill="#FFF" xlink:href="#no-cars-Q"/>
      <use fill="url(#no-cars-R)" xlink:href="#no-cars-Q"/>
    </g>
    <path fill="url(#no-cars-S)" d="m128 42 65 38v76l-65 38-65-38V80z"/>
    <g transform="translate(84 36)">
      <use fill="#FFF" xlink:href="#no-cars-T"/>
      <use fill="url(#no-cars-U)" xlink:href="#no-cars-T"/>
    </g>
    <g transform="translate(84 36)">
      <use fill="#FFF" xlink:href="#no-cars-V"/>
      <use fill="url(#no-cars-W)" xlink:href="#no-cars-V"/>
    </g>
    <g transform="translate(156 61)">
      <use fill="#FFF" xlink:href="#no-cars-X"/>
      <use fill="url(#no-cars-Y)" xlink:href="#no-cars-X"/>
    </g>
    <g transform="translate(156 61)">
      <use fill="#FFF" xlink:href="#no-cars-Z"/>
      <use fill="url(#no-cars-aa)" xlink:href="#no-cars-Z"/>
    </g>
    <g transform="translate(156 61)">
      <use fill="#FFF" xlink:href="#no-cars-ab"/>
      <use fill="url(#no-cars-ac)" xlink:href="#no-cars-ab"/>
    </g>
    <g transform="translate(84 66)">
      <use fill="#FFF" xlink:href="#no-cars-ad"/>
      <use fill="url(#no-cars-ae)" xlink:href="#no-cars-ad"/>
    </g>
    <g transform="translate(84 66)">
      <use fill="#FFF" xlink:href="#no-cars-af"/>
      <use fill="url(#no-cars-ag)" xlink:href="#no-cars-af"/>
      <use fill="#000" filter="url(#no-cars-ah)" xlink:href="#no-cars-af"/>
    </g>
    <g transform="translate(84 66)">
      <use fill="#FFF" xlink:href="#no-cars-ai"/>
      <use fill="url(#no-cars-aj)" xlink:href="#no-cars-ai"/>
    </g>
    <g transform="translate(125 36)">
      <use fill="#FFF" xlink:href="#no-cars-ak"/>
      <use fill="url(#no-cars-al)" xlink:href="#no-cars-ak"/>
    </g>
    <g transform="translate(125 36)">
      <use fill="#FFF" xlink:href="#no-cars-am"/>
      <use fill="url(#no-cars-an)" xlink:href="#no-cars-am"/>
    </g>
    <g transform="translate(125 36)">
      <use fill="#FFF" xlink:href="#no-cars-ao"/>
      <use fill="url(#no-cars-ap)" xlink:href="#no-cars-ao"/>
    </g>
  </g>
</svg>
