<?xml version="1.0" encoding="utf-8"?>

<svg xmlns="http://www.w3.org/2000/svg" xmlns:xlink="http://www.w3.org/1999/xlink" viewBox="0 0 256 256">
  <defs>
    <linearGradient x1="100%" y1="50%" x2="0%" y2="50%" id="b">
      <stop stop-color="#2B6DE5" stop-opacity=".04" offset="0%"/>
      <stop stop-color="#2B6DE5" stop-opacity=".09" offset="100%"/>
    </linearGradient>
    <linearGradient x1="100%" y1="28.234%" x2="0%" y2="71.766%" id="d">
      <stop stop-color="#2B6DE5" stop-opacity=".15" offset="0%"/>
      <stop stop-color="#2B6DE5" stop-opacity=".45" offset="100%"/>
    </linearGradient>
    <linearGradient x1="0%" y1="28.234%" x2="100%" y2="71.766%" id="f">
      <stop stop-color="#2B6DE5" stop-opacity="0" offset="0%"/>
      <stop stop-color="#2B6DE5" stop-opacity=".25" offset="100%"/>
    </linearGradient>
    <linearGradient x1="100%" y1="50%" x2="0%" y2="50%" id="i">
      <stop stop-color="#2B6DE5" stop-opacity="0" offset="0%"/>
      <stop stop-color="#2B6DE5" stop-opacity=".25" offset="100%"/>
    </linearGradient>
    <linearGradient x1="0%" y1="70.875%" x2="0%" y2="33.731%" id="k">
      <stop stop-color="#2B6DE5" stop-opacity=".25" offset="0%"/>
      <stop stop-color="#2B6DE5" stop-opacity=".45" offset="100%"/>
    </linearGradient>
    <linearGradient x1="0%" y1="35.777%" x2="100%" y2="60.105%" id="m">
      <stop stop-color="#2B6DE5" stop-opacity=".15" offset="0%"/>
      <stop stop-color="#2B6DE5" stop-opacity=".25" offset="100%"/>
    </linearGradient>
    <linearGradient x1="66.412%" y1="63.635%" x2="33.588%" y2="37.53%" id="o">
      <stop stop-color="#2B6DE5" stop-opacity=".25" offset="0%"/>
      <stop stop-color="#2B6DE5" stop-opacity=".45" offset="100%"/>
    </linearGradient>
    <linearGradient x1="0%" y1="70.875%" x2="0%" y2="33.731%" id="q">
      <stop stop-color="#2B6DE5" stop-opacity=".25" offset="0%"/>
      <stop stop-color="#2B6DE5" stop-opacity=".45" offset="100%"/>
    </linearGradient>
    <linearGradient x1="0%" y1="100%" x2="0%" y2="17.402%" id="r">
      <stop stop-color="#FFF" stop-opacity="0" offset="0%"/>
      <stop stop-color="#FFF" stop-opacity=".15" offset="100%"/>
    </linearGradient>
    <linearGradient x1="0%" y1="58.75%" x2="100%" y2="58.75%" id="t">
      <stop stop-color="#2B6DE5" stop-opacity=".15" offset="0%"/>
      <stop stop-color="#2B6DE5" stop-opacity=".25" offset="100%"/>
    </linearGradient>
    <linearGradient x1="100%" y1="36.833%" x2="0%" y2="59.395%" id="v">
      <stop stop-color="#2B6DE5" stop-opacity=".04" offset="0%"/>
      <stop stop-color="#2B6DE5" stop-opacity=".15" offset="100%"/>
    </linearGradient>
    <linearGradient x1="50%" y1="40.954%" x2="50%" y2="100%" id="w">
      <stop stop-color="#2B6DE5" stop-opacity="0" offset="0%"/>
      <stop stop-color="#2B6DE5" stop-opacity=".15" offset="100%"/>
    </linearGradient>
    <linearGradient x1="66.412%" y1="100%" x2="33.588%" y2="0%" id="y">
      <stop stop-color="#2B6DE5" stop-opacity=".21" offset="0%"/>
      <stop stop-color="#2B6DE5" stop-opacity=".45" offset="100%"/>
    </linearGradient>
    <linearGradient x1="0%" y1="45.256%" x2="100%" y2="53.991%" id="B">
      <stop stop-color="#2B6DE5" stop-opacity=".04" offset="0%"/>
      <stop stop-color="#2B6DE5" stop-opacity=".15" offset="100%"/>
    </linearGradient>
    <linearGradient x1="65.533%" y1="101.385%" x2="19.376%" y2="0%" id="D">
      <stop stop-color="#2B6DE5" stop-opacity=".25" offset="0%"/>
      <stop stop-color="#2B6DE5" stop-opacity=".35" offset="19.883%"/>
      <stop stop-color="#2B6DE5" stop-opacity=".45" offset="49.916%"/>
      <stop stop-color="#2B6DE5" stop-opacity=".45" offset="100%"/>
    </linearGradient>
    <linearGradient x1="24.044%" y1="0%" x2="50%" y2="79.854%" id="F">
      <stop stop-color="#2B6DE5" stop-opacity="0" offset="0%"/>
      <stop stop-color="#2B6DE5" stop-opacity=".25" offset="100%"/>
    </linearGradient>
    <linearGradient x1="61.538%" y1="100%" x2="38.462%" y2="0%" id="I">
      <stop stop-color="#2B6DE5" stop-opacity=".45" offset="0%"/>
      <stop stop-color="#2B6DE5" offset="100%"/>
    </linearGradient>
    <linearGradient x1="50%" y1="17.572%" x2="50%" y2="100%" id="L">
      <stop stop-color="#2B6DE5" stop-opacity="0" offset="0%"/>
      <stop stop-color="#2B6DE5" stop-opacity=".15" offset="100%"/>
    </linearGradient>
    <path d="M176.679 74 194 84l-97 56L0 84l17.321-10L97 120l79.679-46Z" id="a"/>
    <path d="m194 64-97 56v-8l97-56v8Z" id="c"/>
    <path d="M97 112v8L0 64v-8l97 56Z" id="e"/>
    <path d="m97 0 97 56-97 56L0 56 97 0Z" id="h"/>
    <path d="m128 60 55 32-.001 63.999L128 124V60Z" id="j"/>
    <path id="l" d="m128 60 55 32 19.999-8.001L148 52z"/>
    <path d="m183 156-55 32v-64l55-32v64Z" id="n"/>
    <path d="m128 124-55 32V92l55-32v64Z" id="p"/>
    <path id="s" d="m202 112-55 32-19-20 55-32z"/>
    <path id="u" d="M107 53 52 85l21 7 55-32z"/>
    <path d="M128 124v64l-55-32V92l55 32Z" id="x"/>
    <path id="A" d="m128 124-22 20-55-32 22-20z"/>
    <path d="M12.642.525 42.77 17.928c2 1.156 3.231 3.28 3.231 5.578v26.158a4 4 0 0 1-1.759 3.313l-3.563 2.41-3.178 2.2L7.818 34.842 1 5.588l3-1.961L9.375.525a3.27 3.27 0 0 1 3.267 0Z" id="C"/>
    <path d="M4.988 4.527 35.7 21.964c2.043 1.16 3.3 3.293 3.3 5.6v26.653a4 4 0 0 1-5.975 3.478l-26.05-14.79L0 47.218V7.327c0-1.79 1.486-3.24 3.32-3.24.586 0 1.161.152 1.668.44Z" id="E"/>
    <path d="m8 23.309 4 2.327v6l-4-2.327v-6Z" id="H"/>
    <path d="m17 28.545 4 2.327v6l-4-2.327v-6Z" id="J"/>
    <path d="m26 33.781 4 2.327v6l-4-2.327v-6Z" id="K"/>
    <filter x="-.5%" y="-.8%" width="101%" height="101.6%" filterUnits="objectBoundingBox" id="g">
      <feOffset dx="-1" dy=".5" in="SourceAlpha" result="shadowOffsetInner1"/>
      <feComposite in="shadowOffsetInner1" in2="SourceAlpha" operator="arithmetic" k2="-1" k3="1" result="shadowInnerInner1"/>
      <feColorMatrix values="0 0 0 0 1 0 0 0 0 1 0 0 0 0 1 0 0 0 0.25 0" in="shadowInnerInner1"/>
    </filter>
    <filter x="-.9%" y="-.5%" width="101.8%" height="101%" filterUnits="objectBoundingBox" id="z">
      <feOffset dx="-1" dy=".5" in="SourceAlpha" result="shadowOffsetInner1"/>
      <feComposite in="shadowOffsetInner1" in2="SourceAlpha" operator="arithmetic" k2="-1" k3="1" result="shadowInnerInner1"/>
      <feColorMatrix values="0 0 0 0 1 0 0 0 0 1 0 0 0 0 1 0 0 0 0.25 0" in="shadowInnerInner1"/>
    </filter>
    <filter x="-1.3%" y="-.9%" width="102.6%" height="101.8%" filterUnits="objectBoundingBox" id="G">
      <feOffset dx="-1" dy=".5" in="SourceAlpha" result="shadowOffsetInner1"/>
      <feComposite in="shadowOffsetInner1" in2="SourceAlpha" operator="arithmetic" k2="-1" k3="1" result="shadowInnerInner1"/>
      <feColorMatrix values="0 0 0 0 1 0 0 0 0 1 0 0 0 0 1 0 0 0 0.25 0" in="shadowInnerInner1"/>
    </filter>
  </defs>
  <g fill="none" fill-rule="evenodd">
    <g transform="translate(31 100)">
      <use fill="#FFF" xlink:href="#a"/>
      <use fill="url(#b)" xlink:href="#a"/>
    </g>
    <g transform="translate(31 100)">
      <use fill="#FFF" xlink:href="#c"/>
      <use fill="url(#d)" xlink:href="#c"/>
    </g>
    <g transform="translate(31 100)">
      <use fill="#FFF" xlink:href="#e"/>
      <use fill="url(#f)" xlink:href="#e"/>
      <use fill="#000" filter="url(#g)" xlink:href="#e"/>
    </g>
    <g transform="translate(31 100)">
      <use fill="#FFF" xlink:href="#h"/>
      <use fill="url(#i)" xlink:href="#h"/>
    </g>
    <use fill="#FFF" xlink:href="#j"/>
    <use fill="url(#k)" xlink:href="#j"/>
    <use fill="#FFF" xlink:href="#l"/>
    <use fill="url(#m)" xlink:href="#l"/>
    <use fill="#FFF" xlink:href="#n"/>
    <use fill="url(#o)" xlink:href="#n"/>
    <use fill="#FFF" xlink:href="#p"/>
    <use fill="url(#q)" xlink:href="#p"/>
    <path fill="url(#r)" d="M105 66h46v78h-46z"/>
    <use fill="#FFF" xlink:href="#s"/>
    <use fill="url(#t)" xlink:href="#s"/>
    <use fill="#FFF" xlink:href="#u"/>
    <use fill="url(#v)" xlink:href="#u"/>
    <path fill="url(#w)" d="m128-4 55 32v64l-55 32-55-32V28z"/>
    <use fill="#FFF" xlink:href="#x"/>
    <use fill="url(#y)" xlink:href="#x"/>
    <use fill="#000" filter="url(#z)" xlink:href="#x"/>
    <use fill="#FFF" xlink:href="#A"/>
    <use fill="url(#B)" xlink:href="#A"/>
    <g transform="translate(105 47.912)">
      <use fill="#FFF" xlink:href="#C"/>
      <use fill="url(#D)" xlink:href="#C"/>
    </g>
    <g transform="translate(105 47.912)">
      <use fill="#FFF" xlink:href="#E"/>
      <use fill="url(#F)" xlink:href="#E"/>
      <use fill="#000" filter="url(#G)" xlink:href="#E"/>
    </g>
    <g transform="translate(105 47)">
      <use fill="#FFF" xlink:href="#H"/>
      <use fill="url(#I)" xlink:href="#H"/>
    </g>
    <g transform="translate(105 47)">
      <use fill="#FFF" xlink:href="#J"/>
      <use fill="url(#I)" xlink:href="#J"/>
    </g>
    <g transform="translate(105 47)">
      <use fill="#FFF" xlink:href="#K"/>
      <use fill="url(#I)" xlink:href="#K"/>
    </g>
    <g transform="translate(31 72)" fill="url(#L)">
      <path d="M194 0v84l-97 56V0h97ZM97 0v140L0 84V0h97Z"/>
    </g>
  </g>
</svg>
