<?xml version="1.0" encoding="utf-8"?>

<svg xmlns="http://www.w3.org/2000/svg" xmlns:xlink="http://www.w3.org/1999/xlink" viewBox="0 0 256 256">
  <defs>
    <linearGradient x1="100%" y1="50%" x2="0%" y2="50%" id="no-img-b">
      <stop stop-color="#2B6DE5" stop-opacity=".04" offset="0%"/>
      <stop stop-color="#2B6DE5" stop-opacity=".09" offset="100%"/>
    </linearGradient>
    <linearGradient x1="100%" y1="28.234%" x2="0%" y2="71.766%" id="no-img-d">
      <stop stop-color="#2B6DE5" stop-opacity=".15" offset="0%"/>
      <stop stop-color="#2B6DE5" stop-opacity=".45" offset="100%"/>
    </linearGradient>
    <linearGradient x1="0%" y1="28.234%" x2="100%" y2="71.766%" id="no-img-f">
      <stop stop-color="#2B6DE5" stop-opacity="0" offset="0%"/>
      <stop stop-color="#2B6DE5" stop-opacity=".25" offset="100%"/>
    </linearGradient>
    <linearGradient x1="100%" y1="50%" x2="0%" y2="50%" id="no-img-i">
      <stop stop-color="#2B6DE5" stop-opacity="0" offset="0%"/>
      <stop stop-color="#2B6DE5" stop-opacity=".25" offset="100%"/>
    </linearGradient>
    <linearGradient x1="100%" y1="50%" x2="0%" y2="50%" id="no-img-k">
      <stop stop-color="#2B6DE5" stop-opacity=".2" offset="0%"/>
      <stop stop-color="#2B6DE5" stop-opacity=".3" offset="100%"/>
    </linearGradient>
    <linearGradient x1="32.529%" y1="0%" x2="67.471%" y2="100%" id="no-img-m">
      <stop stop-color="#2B6DE5" stop-opacity=".15" offset="0%"/>
      <stop stop-color="#2B6DE5" stop-opacity=".25" offset="100%"/>
    </linearGradient>
    <linearGradient x1="32.529%" y1="0%" x2="67.471%" y2="100%" id="no-img-o">
      <stop stop-color="#2B6DE5" stop-opacity=".09" offset="0%"/>
      <stop stop-color="#2B6DE5" stop-opacity=".2" offset="100%"/>
    </linearGradient>
    <linearGradient x1="32.529%" y1="0%" x2="67.471%" y2="100%" id="no-img-q">
      <stop stop-color="#2B6DE5" stop-opacity=".02" offset="0%"/>
      <stop stop-color="#2B6DE5" stop-opacity=".09" offset="100%"/>
    </linearGradient>
    <linearGradient x1="50%" y1="17.572%" x2="50%" y2="100%" id="no-img-r">
      <stop stop-color="#2B6DE5" stop-opacity="0" offset="0%"/>
      <stop stop-color="#2B6DE5" stop-opacity=".15" offset="100%"/>
    </linearGradient>
    <linearGradient x1="50%" y1="17.572%" x2="50%" y2="100%" id="no-img-s">
      <stop stop-color="#2B6DE5" stop-opacity="0" offset="0%"/>
      <stop stop-color="#2B6DE5" stop-opacity=".15" offset="100%"/>
    </linearGradient>
    <linearGradient x1="88.329%" y1="100%" x2="11.671%" y2="0%" id="no-img-u">
      <stop stop-color="#2B6DE5" stop-opacity=".45" offset="0%"/>
      <stop stop-color="#2B6DE5" offset="100%"/>
    </linearGradient>
    <path d="M176.679 74 194 84l-97 56L0 84l17.321-10L97 120l79.679-46Z" id="no-img-a"/>
    <path d="m194 64-97 56v-8l97-56v8Z" id="no-img-c"/>
    <path d="M97 112v8L0 64v-8l97 56Z" id="no-img-e"/>
    <path d="m97 0 97 56-97 56L0 56 97 0Z" id="no-img-h"/>
    <path d="m128 118 65 38-65 38-65-38 65-38Z" id="no-img-j"/>
    <path d="m131.006 45.749 49.011 28.516A6 6 0 0 1 183 79.45v57.07a2 2 0 0 1-3.007 1.73l-49.01-28.516A6 6 0 0 1 128 104.55V47.478a2 2 0 0 1 3.006-1.73Z" id="no-img-l"/>
    <path d="m104.006 61.749 49.011 28.516A6 6 0 0 1 156 95.45v57.07a2 2 0 0 1-3.007 1.73l-49.01-28.516A6 6 0 0 1 101 120.55V63.478a2 2 0 0 1 3.006-1.73Z" id="no-img-n"/>
    <path d="M128 111.45v57.072a2 2 0 0 1-3.006 1.73l-49.011-28.517A6 6 0 0 1 73 136.55V79.478a2 2 0 0 1 3.006-1.73l49.011 28.517A6 6 0 0 1 128 111.45Z" id="no-img-p"/>
    <path d="m92.5 119 4.5 9 7.5-5.5L116 144l-33-19 9.5-6Zm-3.304-12.44c1.171-.732 3.07.194 4.24 2.067 1.17 1.874 1.17 3.986 0 4.717-1.171.732-3.07-.194-4.24-2.067-1.171-1.874-1.17-3.985 0-4.717Z" id="no-img-t"/>
    <filter x="-.5%" y="-.8%" width="101%" height="101.6%" filterUnits="objectBoundingBox" id="no-img-g">
      <feOffset dx="-1" dy=".5" in="SourceAlpha" result="shadowOffsetInner1"/>
      <feComposite in="shadowOffsetInner1" in2="SourceAlpha" operator="arithmetic" k2="-1" k3="1" result="shadowInnerInner1"/>
      <feColorMatrix values="0 0 0 0 1 0 0 0 0 1 0 0 0 0 1 0 0 0 0.25 0" in="shadowInnerInner1"/>
    </filter>
  </defs>
  <g fill="none" fill-rule="evenodd">
    <g transform="translate(31 100)">
      <use fill="#FFF" xlink:href="#no-img-a"/>
      <use fill="url(#no-img-b)" xlink:href="#no-img-a"/>
    </g>
    <g transform="translate(31 100)">
      <use fill="#FFF" xlink:href="#no-img-c"/>
      <use fill="url(#no-img-d)" xlink:href="#no-img-c"/>
    </g>
    <g transform="translate(31 100)">
      <use fill="#FFF" xlink:href="#no-img-e"/>
      <use fill="url(#no-img-f)" xlink:href="#no-img-e"/>
      <use fill="#000" filter="url(#no-img-g)" xlink:href="#no-img-e"/>
    </g>
    <g transform="translate(31 100)">
      <use fill="#FFF" xlink:href="#no-img-h"/>
      <use fill="url(#no-img-i)" xlink:href="#no-img-h"/>
    </g>
    <use fill="#FFF" xlink:href="#no-img-j"/>
    <use fill="url(#no-img-k)" xlink:href="#no-img-j"/>
    <use fill="#FFF" xlink:href="#no-img-l"/>
    <use fill="url(#no-img-m)" xlink:href="#no-img-l"/>
    <use fill="#FFF" xlink:href="#no-img-n"/>
    <use fill="url(#no-img-o)" xlink:href="#no-img-n"/>
    <use fill="#FFF" xlink:href="#no-img-p"/>
    <use fill="url(#no-img-q)" xlink:href="#no-img-p"/>
    <path fill="url(#no-img-r)" d="m128 42 65 38v76l-65 38-65-38V80z"/>
    <g transform="translate(31 72)" fill="url(#no-img-s)">
      <path d="M194 0v84l-97 56V0h97ZM97 0v140L0 84V0h97Z"/>
    </g>
    <use fill="#FFF" xlink:href="#no-img-t"/>
    <use fill="url(#no-img-u)" xlink:href="#no-img-t"/>
  </g>
</svg>
