<?xml version="1.0" standalone="no"?><!DOCTYPE svg PUBLIC "-//W3C//DTD SVG 1.1//EN" "http://www.w3.org/Graphics/SVG/1.1/DTD/svg11.dtd"><svg t="1657628159915" class="icon" viewBox="0 0 1024 1024" version="1.1" xmlns="http://www.w3.org/2000/svg" p-id="22660" xmlns:xlink="http://www.w3.org/1999/xlink" width="200" height="200"><defs><style type="text/css">@font-face { font-family: feedback-iconfont; src: url("//at.alicdn.com/t/font_1031158_u69w8yhxdu.woff2?t=1630033759944") format("woff2"), url("//at.alicdn.com/t/font_1031158_u69w8yhxdu.woff?t=1630033759944") format("woff"), url("//at.alicdn.com/t/font_1031158_u69w8yhxdu.ttf?t=1630033759944") format("truetype"); }
</style></defs><path d="M472.832 177.88416l82.49344 55.9104a20.48 20.48 0 0 1 6.81984 26.13248L510.86336 357.16608l87.44448 108.3648c-19.3792-0.5632-38.88128 4.864-55.9104 16.2816l-1.95072 1.34656-1.1264 0.79872-1.24416 0.8448a43.0592 43.0592 0 0 1-47.5648 0.0512l-1.31072-0.896-2.78016-1.93536c-27.27936-18.44224-60.95872-21.4528-90.33216-9.0368l-20.59776-31.21664-97.6384-2.0224a20.48 20.48 0 0 1-19.88608-17.85344l-14.08-108.89216a19.62496 19.62496 0 0 1 15.47776-21.7344 19.27168 19.27168 0 0 1 22.528 13.88032l20.6336 76.99968 64.6912 1.152 107.46368-75.008 24.16128-48.9984-53.2736-48.0256a21.1456 21.1456 0 0 1-2.2016-29.09696 22.07744 22.07744 0 0 1 29.4656-4.28544zM403.18464 255.34464a45.45536 45.45536 0 1 1-45.46048 78.73024 45.45536 45.45536 0 0 1 45.46048-78.73024z" fill="#FFC005" p-id="22661"></path><path d="M323.7888 748.42624l1.64864 1.14176 1.1264 0.7936c14.76608 10.42432 33.87904 10.7008 48.88064 0.8448l1.23904-0.8448 1.1264-0.7936c32.83968-23.17312 75.45344-23.552 108.61056-1.14176l1.65376 1.14176 1.1264 0.7936c14.76096 10.42432 33.87904 10.7008 48.87552 0.8448l1.24416-0.8448 1.1264-0.7936c22.1696-15.64672 48.7936-20.89984 73.96352-15.7696a122.29632 122.29632 0 0 0 21.504 67.84512l-0.11776-0.0512a97.8432 97.8432 0 0 1-12.38528-7.1168l-2.77504-1.94048c-14.76608-10.4192-33.87904-10.7008-48.88064-0.8448l-1.23904 0.8448-1.1264 0.79872c-32.83968 23.17312-75.45344 23.552-108.61056 1.13664l-2.78016-1.93536c-14.76608-10.4192-33.87904-10.7008-48.87552-0.8448l-1.24416 0.8448-1.1264 0.79872c-32.83456 23.17312-75.45344 23.552-108.61056 1.13664l-1.64864-1.13664-1.1264-0.79872c-14.76608-10.4192-33.87904-10.7008-48.88064-0.8448l-1.23904 0.8448-40.448 28.544v-64.19456l10.37312-7.31648c32.83968-23.17312 75.45344-23.552 108.61568-1.14176z m0-109.99296l1.64864 1.14176 1.1264 0.7936c14.76608 10.4192 33.87904 10.7008 48.88064 0.8448l1.23904-0.8448 1.1264-0.7936c32.83968-23.17824 75.45344-23.552 108.61056-1.14176l1.65376 1.14176 1.1264 0.7936c14.76096 10.4192 33.87904 10.7008 48.87552 0.8448l1.24416-0.8448 1.1264-0.7936c32.83456-23.17824 75.45344-23.552 108.61056-1.14176l1.64864 1.14176 1.1264 0.7936c0.7168 0.50688 1.43872 0.98304 2.17088 1.43872a123.01824 123.01824 0 0 0-30.1312 42.96704 10.66496 10.66496 0 0 1-0.4608-0.29696l-1.64864-1.14176-1.1264-0.7936c-14.76608-10.4192-33.87904-10.7008-48.88064-0.8448l-1.23904 0.8448-1.1264 0.7936c-32.83968 23.17312-75.45344 23.552-108.61056 1.14176l-1.65376-1.14176-1.1264-0.7936c-14.76608-10.4192-33.87904-10.7008-48.87552-0.8448l-1.24416 0.8448-1.1264 0.7936c-32.83456 23.17312-75.45344 23.552-108.61056 1.14176l-1.64864-1.14176-1.1264-0.7936c-14.76608-10.4192-33.87904-10.7008-48.88064-0.8448l-1.23904 0.8448-40.448 28.544v-64.19456l10.37312-7.3216c32.83968-23.17312 75.45344-23.552 108.61568-1.13664z m0-105.216l1.64864 1.14176 1.1264 0.79872c14.76608 10.4192 33.87904 10.7008 48.88064 0.8448l1.23904-0.8448 1.1264-0.79872c32.83968-23.17312 75.45344-23.552 108.61056-1.13664l2.78016 1.93536c14.76096 10.4192 33.87904 10.7008 48.87552 0.8448l1.24416-0.8448 1.1264-0.79872c32.83456-23.17312 75.45344-23.552 108.61056-1.13664l2.77504 1.93536c14.76608 10.4192 33.87904 10.7008 48.88064 0.8448l1.23904-0.8448 1.1264-0.79872c32.83968-23.17312 75.45856-23.552 108.61568-1.13664l1.64864 1.13664 5.85728 4.13696v64.18432l-35.92704-25.34912c-14.76608-10.42432-33.87904-10.7008-48.88064-0.8448l-1.23904 0.8448-1.1264 0.7936c-32.83968 23.17312-75.45344 23.552-108.61568 1.14176l-1.64864-1.14176-1.1264-0.7936c-14.76608-10.42432-33.87904-10.7008-48.88064-0.8448l-1.23904 0.8448-1.1264 0.7936c-32.83968 23.17312-75.45344 23.552-108.61056 1.14176l-1.65376-1.14176-1.1264-0.7936c-14.76608-10.42432-33.87904-10.7008-48.87552-0.8448l-1.24416 0.8448-1.1264 0.7936c-32.83456 23.17312-75.45344 23.552-108.61056 1.14176l-1.64864-1.14176-1.1264-0.7936c-14.76608-10.42432-33.87904-10.7008-48.88064-0.8448l-1.23904 0.8448-40.448 28.544v-64.19456l10.37312-7.3216c32.83968-23.17312 75.45344-23.552 108.61568-1.13664z m487.90528-105.20576l1.64864 1.13664 5.85728 4.13184v64.18944l-35.92704-25.35424c-14.76608-10.4192-33.87904-10.7008-48.88064-0.8448l-1.23904 0.8448-1.1264 0.79872c-20.95104 14.78144-45.8752 20.29056-69.79072 16.52224l-1.9968-0.33792-60.81024-77.5424c17.29536 0.71168 34.45248 6.1952 49.62816 16.45568l2.77504 1.93536c14.76608 10.4192 33.87904 10.7008 48.88064 0.8448l1.23904-0.8448 1.1264-0.79872c32.83968-23.17312 75.45856-23.552 108.61568-1.13664z" fill="#2B6DE5" p-id="22662"></path><path d="M737.28 609.28c67.8656 0 122.88 55.0144 122.88 122.88s-55.0144 122.88-122.88 122.88-122.88-55.0144-122.88-122.88 55.0144-122.88 122.88-122.88z m-81.92 122.88c0 45.24544 36.67456 81.92 81.92 81.92 15.19104 0 29.41952-4.13696 41.61536-11.3408l-112.19456-112.19456A81.54112 81.54112 0 0 0 655.36 732.16z m81.92-81.92c-15.19104 0-29.41952 4.13696-41.61536 11.3408l112.19456 112.19456A81.54112 81.54112 0 0 0 819.2 732.16c0-45.24544-36.67456-81.92-81.92-81.92z" fill="#E52C3E" p-id="22663"></path></svg>