<?xml version="1.0" encoding="UTF-8"?>
<svg width="28px" height="28px" viewBox="0 0 28 28" version="1.1" xmlns="http://www.w3.org/2000/svg" xmlns:xlink="http://www.w3.org/1999/xlink">
    <defs>
        <linearGradient x1="0%" y1="0%" x2="100%" y2="100%" id="linearGradient-1">
            <stop stop-color="#2B6DE5" stop-opacity="0.9" offset="0%"></stop>
            <stop stop-color="#2B6DE5" offset="100%"></stop>
        </linearGradient>
        <linearGradient x1="0%" y1="0%" x2="50%" y2="50%" id="linearGradient-2">
            <stop stop-color="#FFFFFF" stop-opacity="0.15" offset="0%"></stop>
            <stop stop-color="#2B6DE5" stop-opacity="0.25" offset="100%"></stop>
        </linearGradient>
        <path d="M26,16 C26,21.5228475 21.5228475,26 16,26 C10.4771525,26 6,21.5228475 6,16 C6,10.4771525 10.4771525,6 16,6 C21.5228475,6 26,10.4771525 26,16 Z" id="path-3"></path>
        <filter x="-5.0%" y="-5.0%" width="110.0%" height="110.0%" filterUnits="objectBoundingBox" id="filter-4">
            <feGaussianBlur stdDeviation="0.5" in="SourceAlpha" result="shadowBlurInner1"></feGaussianBlur>
            <feOffset dx="1" dy="1" in="shadowBlurInner1" result="shadowOffsetInner1"></feOffset>
            <feComposite in="shadowOffsetInner1" in2="SourceAlpha" operator="arithmetic" k2="-1" k3="1" result="shadowInnerInner1"></feComposite>
            <feColorMatrix values="0 0 0 0 1   0 0 0 0 1   0 0 0 0 1  0 0 0 0.15 0" type="matrix" in="shadowInnerInner1"></feColorMatrix>
        </filter>
    </defs>
    <g stroke="none" stroke-width="1" fill="none" fill-rule="evenodd">
        <path d="M10,2 C14.418278,2 18,5.581722 18,10 C18,14.418278 14.418278,18 10,18 C5.581722,18 2,14.418278 2,10 C2,5.581722 5.581722,2 10,2 Z" id="矩形" fill="url(#linearGradient-1)"></path>
        <g>
            <use fill="url(#linearGradient-2)" fill-rule="evenodd" xlink:href="#path-3"></use>
            <use fill="black" fill-opacity="1" filter="url(#filter-4)" xlink:href="#path-3"></use>
        </g>
        <path d="M18,14 C20.209139,14 22,15.790861 22,18 C22,20.209139 20.209139,22 18,22 C15.790861,22 14,20.209139 14,18 C14,15.790861 15.790861,14 18,14 Z M18,15.5 C16.6192881,15.5 15.5,16.6192881 15.5,18 C15.5,19.3807119 16.6192881,20.5 18,20.5 C19.3807119,20.5 20.5,19.3807119 20.5,18 C20.5,16.6192881 19.3807119,15.5 18,15.5 Z" id="椭圆形" fill="#FFFFFF" fill-rule="nonzero"></path>
        <path d="M16.299024,11.65798 L18.539185,17.3127715 C18.6808544,17.7020049 18.480164,18.1323867 18.0909306,18.2740561 C17.7016972,18.4157255 17.2713154,18.2150351 17.129646,17.8258017 L15.008,12.5 L12.9,12.5 C12.6238576,12.5 12.4,12.2761424 12.4,12 L12.4,11.5 C12.4,11.2238576 12.6238576,11 12.9,11 L15.3593314,11 C15.7797298,11 16.1552393,11.2629347 16.299024,11.65798 Z" id="路径" fill="#FFFFFF" fill-rule="nonzero"></path>
    </g>
</svg>
