<?xml version="1.0" encoding="UTF-8"?>
<svg width="28px" height="28px" viewBox="0 0 28 28" version="1.1" xmlns="http://www.w3.org/2000/svg" xmlns:xlink="http://www.w3.org/1999/xlink">
    <defs>
        <linearGradient x1="9.65695882%" y1="0%" x2="90.3430412%" y2="100%" id="linearGradient-1">
            <stop stop-color="#2B6DE5" stop-opacity="0.9" offset="0%"></stop>
            <stop stop-color="#2B6DE5" offset="100%"></stop>
        </linearGradient>
        <linearGradient x1="10.1860298%" y1="0%" x2="50%" y2="50%" id="linearGradient-2">
            <stop stop-color="#FFFFFF" stop-opacity="0.15" offset="0%"></stop>
            <stop stop-color="#2B6DE5" stop-opacity="0.25" offset="100%"></stop>
        </linearGradient>
        <path d="M18.4142136,4.41421356 L25.4142136,11.4142136 C25.7892863,11.7892863 26,12.2979941 26,12.8284271 L26,23 C26,23.5522847 25.5522847,24 25,24 L9,24 C8.44771525,24 8,23.5522847 8,23 L8,12.8284271 C8,12.2979941 8.21071368,11.7892863 8.58578644,11.4142136 L15.5857864,4.41421356 C16.366835,3.63316498 17.633165,3.63316498 18.4142136,4.41421356 Z" id="path-3"></path>
        <filter x="-5.6%" y="-5.0%" width="111.1%" height="109.9%" filterUnits="objectBoundingBox" id="filter-4">
            <feGaussianBlur stdDeviation="0.5" in="SourceAlpha" result="shadowBlurInner1"></feGaussianBlur>
            <feOffset dx="1" dy="1" in="shadowBlurInner1" result="shadowOffsetInner1"></feOffset>
            <feComposite in="shadowOffsetInner1" in2="SourceAlpha" operator="arithmetic" k2="-1" k3="1" result="shadowInnerInner1"></feComposite>
            <feColorMatrix values="0 0 0 0 1   0 0 0 0 1   0 0 0 0 1  0 0 0 0.15 0" type="matrix" in="shadowInnerInner1"></feColorMatrix>
        </filter>
    </defs>
    <g stroke="none" stroke-width="1" fill="none" fill-rule="evenodd">
        <path d="M10.7071068,3.70710678 L16.4142136,9.41421356 C16.7892863,9.78928632 17,10.2979941 17,10.8284271 L17,18 C17,18.5522847 16.5522847,19 16,19 L4,19 C3.44771525,19 3,18.5522847 3,18 L3,10.8284271 C3,10.2979941 3.21071368,9.78928632 3.58578644,9.41421356 L9.29289322,3.70710678 C9.68341751,3.31658249 10.3165825,3.31658249 10.7071068,3.70710678 Z" id="矩形" fill="url(#linearGradient-1)"></path>
        <g>
            <use fill="url(#linearGradient-2)" fill-rule="evenodd" xlink:href="#path-3"></use>
            <use fill="black" fill-opacity="1" filter="url(#filter-4)" xlink:href="#path-3"></use>
        </g>
        <path d="M21,14 L22,14 C22.2761424,14 22.5,14.2238576 22.5,14.5 L22.5,15.5 C22.5,15.7761424 22.2761424,16 22,16 L21,16 C20.7238576,16 20.5,15.7761424 20.5,15.5 L20.5,14.5 C20.5,14.2238576 20.7238576,14 21,14 Z M16.5,14 L17.5,14 C17.7761424,14 18,14.2238576 18,14.5 L18,15.5 C18,15.7761424 17.7761424,16 17.5,16 L16.5,16 C16.2238576,16 16,15.7761424 16,15.5 L16,14.5 C16,14.2238576 16.2238576,14 16.5,14 Z M21,18.5 L22,18.5 C22.2761424,18.5 22.5,18.7238576 22.5,19 L22.5,20 C22.5,20.2761424 22.2761424,20.5 22,20.5 L21,20.5 C20.7238576,20.5 20.5,20.2761424 20.5,20 L20.5,19 C20.5,18.7238576 20.7238576,18.5 21,18.5 Z M16.5,18.5 L17.5,18.5 C17.7761424,18.5 18,18.7238576 18,19 L18,20 C18,20.2761424 17.7761424,20.5 17.5,20.5 L16.5,20.5 C16.2238576,20.5 16,20.2761424 16,20 L16,19 C16,18.7238576 16.2238576,18.5 16.5,18.5 Z M12,18.5 L13,18.5 C13.2761424,18.5 13.5,18.7238576 13.5,19 L13.5,20 C13.5,20.2761424 13.2761424,20.5 13,20.5 L12,20.5 C11.7238576,20.5 11.5,20.2761424 11.5,20 L11.5,19 C11.5,18.7238576 11.7238576,18.5 12,18.5 Z" id="形状" fill="#FFFFFF" fill-rule="nonzero"></path>
    </g>
</svg>
