<?xml version="1.0" encoding="UTF-8"?>
<svg width="28px" height="28px" viewBox="0 0 28 28" version="1.1" xmlns="http://www.w3.org/2000/svg" xmlns:xlink="http://www.w3.org/1999/xlink">
    <defs>
        <linearGradient x1="0%" y1="0%" x2="100%" y2="100%" id="linearGradient-1">
            <stop stop-color="#2B6DE5" stop-opacity="0.9" offset="0%"></stop>
            <stop stop-color="#2B6DE5" offset="100%"></stop>
        </linearGradient>
        <linearGradient x1="0%" y1="18%" x2="50%" y2="50%" id="linearGradient-2">
            <stop stop-color="#FFFFFF" stop-opacity="0.15" offset="0%"></stop>
            <stop stop-color="#2B6DE5" stop-opacity="0.25" offset="100%"></stop>
        </linearGradient>
        <path d="M26,9.77777778 L26,22.2222222 C26,23.2040618 25.1859723,24 24.1818182,24 L7.81818182,24 C6.81402773,24 6,23.2040618 6,22.2222222 L6,9.77777778 C6,8.79593822 6.81402773,8 7.81818182,8 L24.1818182,8 C25.1859723,8 26,8.79593822 26,9.77777778 Z" id="path-3"></path>
        <filter x="-5.0%" y="-6.2%" width="110.0%" height="112.5%" filterUnits="objectBoundingBox" id="filter-4">
            <feGaussianBlur stdDeviation="0.5" in="SourceAlpha" result="shadowBlurInner1"></feGaussianBlur>
            <feOffset dx="1" dy="1" in="shadowBlurInner1" result="shadowOffsetInner1"></feOffset>
            <feComposite in="shadowOffsetInner1" in2="SourceAlpha" operator="arithmetic" k2="-1" k3="1" result="shadowInnerInner1"></feComposite>
            <feColorMatrix values="0 0 0 0 1   0 0 0 0 1   0 0 0 0 1  0 0 0 0.15 0" type="matrix" in="shadowInnerInner1"></feColorMatrix>
        </filter>
    </defs>
    <g stroke="none" stroke-width="1" fill="none" fill-rule="evenodd">
        <path d="M18,10 C18,14.418278 14.418278,18 10,18 C5.581722,18 2,14.418278 2,10 C2,5.581722 5.581722,2 10,2 C14.418278,2 18,5.581722 18,10 Z" id="路径" fill="url(#linearGradient-1)"></path>
        <g>
            <use fill="url(#linearGradient-2)" fill-rule="evenodd" xlink:href="#path-3"></use>
            <use fill="black" fill-opacity="1" filter="url(#filter-4)" xlink:href="#path-3"></use>
        </g>
        <path d="M22,13.5 C22,13.9142136 21.6642136,14.25 21.25,14.25 L16.75,14.25 C16.3357864,14.25 16,13.9142136 16,13.5 C16,13.0857864 16.3357864,12.75 16.75,12.75 L21.25,12.75 C21.6642136,12.75 22,13.0857864 22,13.5 Z M22,18.5 C22,18.9142136 21.6642136,19.25 21.25,19.25 L16.75,19.25 C16.3357864,19.25 16,18.9142136 16,18.5 C16,18.0857864 16.3357864,17.75 16.75,17.75 L21.25,17.75 C21.6642136,17.75 22,18.0857864 22,18.5 Z" id="形状" fill="#FFFFFF" fill-rule="nonzero"></path>
    </g>
</svg>
