<?xml version="1.0" standalone="no"?><!DOCTYPE svg PUBLIC "-//W3C//DTD SVG 1.1//EN" "http://www.w3.org/Graphics/SVG/1.1/DTD/svg11.dtd"><svg t="1658235978040" class="icon" viewBox="0 0 1024 1024" version="1.1" xmlns="http://www.w3.org/2000/svg" p-id="31498" xmlns:xlink="http://www.w3.org/1999/xlink" width="200" height="200"><defs><style type="text/css">@font-face { font-family: feedback-iconfont; src: url("//at.alicdn.com/t/font_1031158_u69w8yhxdu.woff2?t=1630033759944") format("woff2"), url("//at.alicdn.com/t/font_1031158_u69w8yhxdu.woff?t=1630033759944") format("woff"), url("//at.alicdn.com/t/font_1031158_u69w8yhxdu.ttf?t=1630033759944") format("truetype"); }
</style></defs><path d="M757.76 419.84V245.6064a61.44 61.44 0 0 0-17.9968-43.4432l-24.08448-24.08448a20.48 20.48 0 0 0-28.71808-0.24576L547.84 312.32l209.92 107.52zM266.24 419.84V245.6064a61.44 61.44 0 0 1 17.9968-43.4432l24.08448-24.08448a20.48 20.48 0 0 1 28.71808-0.24576L476.16 312.32 266.24 419.84z" fill="#FFB604" p-id="31499"></path><path d="M622.2848 291.84L757.76 447.7952v131.31776a253.11232 253.11232 0 0 1-67.7376 172.34944A228.33152 228.33152 0 0 1 522.79296 824.32h-21.58592a228.33152 228.33152 0 0 1-167.22944-72.8576A253.11232 253.11232 0 0 1 266.24 579.11296V447.80032L401.7152 291.84h220.5696z" fill="#2B6DE5" p-id="31500"></path><path d="M512 865.28m-40.96 0a40.96 40.96 0 1 0 81.92 0 40.96 40.96 0 1 0-81.92 0Z" fill="#FFC005" p-id="31501"></path><path d="M622.2848 261.12L757.76 417.0752v123.55584a204.8 204.8 0 0 1-50.19136 134.30784l-17.54624 20.20352c-43.0336 49.53088-105.4208 72.8576-171.0336 72.8576h-13.9776c-65.6128 0-128-23.32672-171.0336-72.8576l-17.54624-20.20352A204.8 204.8 0 0 1 266.24 540.63104V417.0752L401.7152 261.12h220.5696z" fill="#FFC005" p-id="31502"></path><path d="M495.616 648.87296l-26.624-35.49696A15.36 15.36 0 0 1 481.28 588.8h61.44a15.36 15.36 0 0 1 12.288 24.576l-26.624 35.49696a20.48 20.48 0 0 1-32.768 0z" fill="#000000" p-id="31503"></path><path d="M414.72 455.68m-25.6 0a25.6 25.6 0 1 0 51.2 0 25.6 25.6 0 1 0-51.2 0Z" fill="#000000" p-id="31504"></path><path d="M609.28 455.68m-25.6 0a25.6 25.6 0 1 0 51.2 0 25.6 25.6 0 1 0-51.2 0Z" fill="#000000" p-id="31505"></path></svg>