<?xml version="1.0" standalone="no"?><!DOCTYPE svg PUBLIC "-//W3C//DTD SVG 1.1//EN" "http://www.w3.org/Graphics/SVG/1.1/DTD/svg11.dtd"><svg t="1658232866983" class="icon" viewBox="0 0 1024 1024" version="1.1" xmlns="http://www.w3.org/2000/svg" p-id="23595" xmlns:xlink="http://www.w3.org/1999/xlink" width="200" height="200"><defs><style type="text/css">@font-face { font-family: feedback-iconfont; src: url("//at.alicdn.com/t/font_1031158_u69w8yhxdu.woff2?t=1630033759944") format("woff2"), url("//at.alicdn.com/t/font_1031158_u69w8yhxdu.woff?t=1630033759944") format("woff"), url("//at.alicdn.com/t/font_1031158_u69w8yhxdu.ttf?t=1630033759944") format("truetype"); }
</style></defs><path d="M791.17312 248.30464C628.99712 294.21568 514.0992 209.92 514.0992 209.92s-114.90816 84.29568-277.07904 38.38464c0 0-38.63552 406.91712 277.07904 565.39136 315.70944-158.47424 277.07904-565.39136 277.07904-565.39136" fill="#2B6DE5" p-id="23596"></path><path d="M514.0992 209.92s-114.90816 84.29568-277.08416 38.38464c0 0-1.46432 15.41632-1.49504 41.40032v1.59744c0.12288 108.79488 25.54368 395.38688 278.5792 522.3936V209.92z" fill="#02134D" fill-opacity=".3" p-id="23597"></path><path d="M476.91264 417.04448a37.18144 37.18144 0 0 0 37.18656 37.18144 37.17632 37.17632 0 1 0 0-74.35776 37.18144 37.18144 0 0 0-37.18656 37.17632M476.91264 509.27616c0 2.74432 0.31744 5.41184 0.88064 7.97696l10.81856 98.01728a6.2208 6.2208 0 0 0 6.18496 5.54496h38.59456c3.16928 0 5.83168-2.38592 6.18496-5.54496l10.81856-98.01728c0.5632-2.56512 0.88064-5.23264 0.88064-7.97696a37.18144 37.18144 0 1 0-74.36288 0" fill="#02134D" fill-opacity=".1" p-id="23598"></path><path d="M514.0992 442.20416a37.18144 37.18144 0 1 0-0.00512-74.36288 37.18144 37.18144 0 0 0 0 74.36288M514.0992 460.07296a37.18144 37.18144 0 0 0-37.18656 37.17632c0 2.74944 0.31744 5.40672 0.88064 7.9872l10.81856 98.01216a6.2208 6.2208 0 0 0 6.18496 5.54496h38.59456c3.1744 0 5.8368-2.38592 6.18496-5.53984l10.81856-98.01728a37.60128 37.60128 0 0 0 0.88064-7.9872 37.18144 37.18144 0 0 0-37.18144-37.17632" fill="#FFFFFF" p-id="23599"></path></svg>
