<?xml version="1.0" encoding="UTF-8"?>
<svg width="28px" height="28px" viewBox="0 0 28 28" version="1.1" xmlns="http://www.w3.org/2000/svg" xmlns:xlink="http://www.w3.org/1999/xlink">
    <defs>
        <linearGradient x1="9.65695882%" y1="0%" x2="90.3430412%" y2="100%" id="linearGradient-1">
            <stop stop-color="#2B6DE5" stop-opacity="0.9" offset="0%"></stop>
            <stop stop-color="#2B6DE5" offset="100%"></stop>
        </linearGradient>
        <linearGradient x1="5.92426888%" y1="0%" x2="50%" y2="50%" id="linearGradient-2">
            <stop stop-color="#FFFFFF" stop-opacity="0.15" offset="0%"></stop>
            <stop stop-color="#2B6DE5" stop-opacity="0.25" offset="100%"></stop>
        </linearGradient>
        <path d="M18.4142136,5.41421356 L25.4142136,12.4142136 C25.7892863,12.7892863 26,13.2979941 26,13.8284271 L26,23 C26,23.5522847 25.5522847,24 25,24 L9,24 C8.44771525,24 8,23.5522847 8,23 L8,13.8284271 C8,13.2979941 8.21071368,12.7892863 8.58578644,12.4142136 L15.5857864,5.41421356 C16.366835,4.63316498 17.633165,4.63316498 18.4142136,5.41421356 Z" id="path-3"></path>
        <filter x="-5.6%" y="-5.2%" width="111.1%" height="110.4%" filterUnits="objectBoundingBox" id="filter-4">
            <feGaussianBlur stdDeviation="0.5" in="SourceAlpha" result="shadowBlurInner1"></feGaussianBlur>
            <feOffset dx="1" dy="1" in="shadowBlurInner1" result="shadowOffsetInner1"></feOffset>
            <feComposite in="shadowOffsetInner1" in2="SourceAlpha" operator="arithmetic" k2="-1" k3="1" result="shadowInnerInner1"></feComposite>
            <feColorMatrix values="0 0 0 0 1   0 0 0 0 1   0 0 0 0 1  0 0 0 0.15 0" type="matrix" in="shadowInnerInner1"></feColorMatrix>
        </filter>
    </defs>
    <g stroke="none" stroke-width="1" fill="none" fill-rule="evenodd">
        <path d="M10.7071068,3.70710678 L16.4142136,9.41421356 C16.7892863,9.78928632 17,10.2979941 17,10.8284271 L17,18 C17,18.5522847 16.5522847,19 16,19 L4,19 C3.44771525,19 3,18.5522847 3,18 L3,10.8284271 C3,10.2979941 3.21071368,9.78928632 3.58578644,9.41421356 L9.29289322,3.70710678 C9.68341751,3.31658249 10.3165825,3.31658249 10.7071068,3.70710678 Z" id="矩形" fill="url(#linearGradient-1)"></path>
        <g>
            <use fill="url(#linearGradient-2)" fill-rule="evenodd" xlink:href="#path-3"></use>
            <use fill="black" fill-opacity="1" filter="url(#filter-4)" xlink:href="#path-3"></use>
        </g>
        <path d="M17.3302427,12.4216925 L16.8663165,11.7505447 C16.7081702,11.5241726 16.3964564,11.4688646 16.1700842,11.627011 C16.1110996,11.6682184 16.0617036,11.721671 16.02527,11.7837181 L15.7109353,12.3158689 C15.3296726,12.9379725 14.0769162,14.5907384 13.8964728,14.8811468 C13.4646988,15.5760509 13.25,16.2283156 13.25,17 C13.25,19.0710678 14.9289322,20.75 17,20.75 C19.0710678,20.75 20.75,19.0710678 20.75,17 C20.75,16.2344597 20.5048695,15.5510711 19.8061892,14.1712064 L19.2902494,13.1728626 C19.1628587,12.9278601 18.8609744,12.8325169 18.6159719,12.9599076 C18.5107557,13.0146155 18.4284096,13.1049398 18.3836371,13.2147526 L18.165,13.751 L18.0545401,13.564548 C17.8123195,13.1612812 17.5709077,12.7803394 17.3302427,12.4216925 L17.3302427,12.4216925 Z M16.476,13.862 L16.5422901,13.9664595 C16.8475651,14.4572814 17.1556205,14.9880342 17.4663098,15.5586464 L18.0322168,16.5979916 L18.803,15.54 L18.8235262,15.5826209 C19.1318001,16.2555474 19.25,16.6596614 19.25,17 C19.25,18.2426407 18.2426407,19.25 17,19.25 C15.7573593,19.25 14.75,18.2426407 14.75,17 C14.75,16.5314596 14.877263,16.1448288 15.1705598,15.6727922 L15.232955,15.5809127 L16.3952654,13.9770733 L16.476,13.862 Z" id="形状" fill="#FFFFFF" fill-rule="nonzero"></path>
    </g>
</svg>
