<?xml version="1.0" standalone="no"?><!DOCTYPE svg PUBLIC "-//W3C//DTD SVG 1.1//EN" "http://www.w3.org/Graphics/SVG/1.1/DTD/svg11.dtd"><svg t="1658235658189" class="icon" viewBox="0 0 1024 1024" version="1.1" xmlns="http://www.w3.org/2000/svg" p-id="26657" xmlns:xlink="http://www.w3.org/1999/xlink" width="200" height="200"><defs><style type="text/css">@font-face { font-family: feedback-iconfont; src: url("//at.alicdn.com/t/font_1031158_u69w8yhxdu.woff2?t=1630033759944") format("woff2"), url("//at.alicdn.com/t/font_1031158_u69w8yhxdu.woff?t=1630033759944") format("woff"), url("//at.alicdn.com/t/font_1031158_u69w8yhxdu.ttf?t=1630033759944") format("truetype"); }
</style></defs><path d="M944 911.95392H71.68l295.90016-650.24h280.51456z" fill="#FFC005" fill-opacity=".3" p-id="26658"></path><path d="M455.86432 860.41088h103.95136a2.56 2.56 0 0 1 2.46272 1.85856l13.08672 45.824a2.56 2.56 0 0 1-2.46784 3.26656H442.7776a2.56 2.56 0 0 1-2.46784-3.26656l13.08672-45.824a2.56 2.56 0 0 1 2.46784-1.85856" fill="#2B6DE5" p-id="26659"></path><path d="M487.3728 860.41088h40.93952V495.65184H487.3728z" fill="#2B6DE5" p-id="26660"></path><path d="M487.3728 860.41088h40.93952V495.65184H487.3728z" fill="#02134D" fill-opacity=".2" p-id="26661"></path><path d="M590.44352 493.04064l51.08736-231.32672H374.14912l51.08224 231.3216c0.33792 1.53088 1.69472 2.6112 3.25632 2.6112h158.69952a3.328 3.328 0 0 0 3.25632-2.6112" fill="#2B6DE5" p-id="26662"></path><path d="M374.14912 261.71392l51.08224 231.32672c0.33792 1.52576 1.69472 2.6112 3.26144 2.6112h158.69952a3.328 3.328 0 0 0 3.2512-2.6112l51.08736-231.32672H374.14912z" fill="#02134D" fill-opacity=".1" p-id="26663"></path><path d="M507.84256 261.71392v230.6048c0 1.83808 1.4848 3.328 3.328 3.328h76.02176a3.328 3.328 0 0 0 3.2512-2.6112l51.08736-231.3216H507.84256z" fill="#02134D" fill-opacity=".2" p-id="26664"></path><path d="M505.53344 119.65952L340.8896 255.28832c-2.63168 2.16064-1.1008 6.4256 2.304 6.4256h329.2928c3.4048 0 4.93568-4.26496 2.31424-6.43072l-164.6592-135.62368a3.61984 3.61984 0 0 0-4.608 0" fill="#2B6DE5" p-id="26665"></path><path d="M507.84256 118.8352v142.87872h164.64384c3.4048 0 4.93568-4.26496 2.30912-6.4256l-164.21376-135.2704-2.7392-1.18784z" fill="#02134D" fill-opacity=".1" p-id="26666"></path><path d="M453.99552 464.7168h107.68384a3.328 3.328 0 0 0 3.25632-2.61632l36.5312-165.39136a3.33312 3.33312 0 0 0-3.25632-4.04992H417.46944a3.33312 3.33312 0 0 0-3.25632 4.0448l36.52608 165.39648c0.34304 1.52576 1.6896 2.6112 3.25632 2.6112" fill="#FFC005" p-id="26667"></path><path d="M507.84256 464.7168H453.99552a3.33824 3.33824 0 0 1-3.25632-2.61632L414.21312 296.704a3.33312 3.33312 0 0 1 3.25632-4.04992h90.37312v172.06272z" fill="#FFFFFF" fill-opacity=".3" p-id="26668"></path></svg>