<?xml version="1.0" standalone="no"?><!DOCTYPE svg PUBLIC "-//W3C//DTD SVG 1.1//EN" "http://www.w3.org/Graphics/SVG/1.1/DTD/svg11.dtd"><svg t="1658232274963" class="icon" viewBox="0 0 1024 1024" version="1.1" xmlns="http://www.w3.org/2000/svg" p-id="23010" xmlns:xlink="http://www.w3.org/1999/xlink" width="200" height="200"><defs><style type="text/css">@font-face { font-family: feedback-iconfont; src: url("//at.alicdn.com/t/font_1031158_u69w8yhxdu.woff2?t=1630033759944") format("woff2"), url("//at.alicdn.com/t/font_1031158_u69w8yhxdu.woff?t=1630033759944") format("woff"), url("//at.alicdn.com/t/font_1031158_u69w8yhxdu.ttf?t=1630033759944") format("truetype"); }
</style></defs><path d="M812.74368 418.944H205.87008c-3.04128 0-5.50912 2.46272-5.50912 5.51424v38.62016c0 3.0464 2.46784 5.51936 5.51936 5.51936h27.57632v119.6544a45.9008 45.9008 0 0 0 45.9008 45.89568h459.904a45.89056 45.89056 0 0 0 45.89568-45.89568v-119.6544h27.58656c3.05152 0 5.51936-2.47296 5.51936-5.51936v-38.62016c0-3.0464-2.46784-5.51424-5.51936-5.51424" fill="#2B6DE5" p-id="23011"></path><path d="M233.45664 468.59776v119.6544a45.9008 45.9008 0 0 0 45.9008 45.89568h459.904a45.89056 45.89056 0 0 0 45.89568-45.89056v-119.6544H233.45664z" fill="#02134D" fill-opacity=".15" p-id="23012"></path><path d="M525.03552 535.81824h-31.45728c-2.8928 0-5.23776 2.3552-5.23776 5.24288v20.61824c0 2.89792 2.34496 5.24288 5.23776 5.24288h31.45728c2.88768 0 5.23776-2.34496 5.23776-5.24288v-20.61824c0-2.8928-2.35008-5.24288-5.23776-5.24288m106.71104 0h-31.45728c-2.88768 0-5.23776 2.3552-5.23776 5.24288v20.61824c0 2.89792 2.3552 5.24288 5.23776 5.24288h31.45728c2.8928 0 5.23776-2.34496 5.23776-5.24288v-20.61824c0-2.8928-2.34496-5.24288-5.23776-5.24288m-213.4272 0h-31.44704c-2.89792 0-5.24288 2.3552-5.24288 5.24288v20.61824c0 2.89792 2.34496 5.24288 5.24288 5.24288h31.44704c2.89792 0 5.248-2.34496 5.248-5.24288v-20.61824c0-2.8928-2.35008-5.24288-5.248-5.24288" fill="#FFFFFF" p-id="23013"></path><path d="M790.36416 360.07424a5.92384 5.92384 0 0 1-0.07168-11.8528l8.8832-0.06144 3.08736 0.01024a5.92896 5.92896 0 0 1 5.8624 6.00064c-0.03584 3.26144-2.44224 5.37088-5.99552 5.85728l-2.95424-0.01024-8.74496 0.05632h-0.06656z m-41.3184 1.65888a5.93408 5.93408 0 0 1-0.38912-11.84768c4.02432-0.256 7.98208-0.4864 11.88864-0.68096 3.6864-0.59392 6.0416 2.35008 6.21568 5.61664a5.91872 5.91872 0 0 1-5.61664 6.21568c-3.85536 0.19968-7.77216 0.42496-11.7248 0.68096-0.12288 0.01536-0.26112 0.01536-0.37376 0.01536z m94.47936 0.03072c-0.16896 0-0.34816-0.01024-0.52224-0.02048a444.4672 444.4672 0 0 0-11.6224-0.83456 5.91872 5.91872 0 0 1-5.5808-6.25664c0.19456-3.24608 2.70848-5.87776 6.2464-5.57568 4.09088 0.22528 8.07936 0.51712 11.97568 0.85504a5.91872 5.91872 0 0 1-0.49664 11.83232z m-135.69536 3.50208a5.92384 5.92384 0 0 1-5.888-5.30432 5.91872 5.91872 0 0 1 5.2736-6.52288l11.82208-1.18784c3.2256-0.17408 6.15936 2.06848 6.4768 5.33504a5.92896 5.92896 0 0 1-5.34016 6.47168l-11.70432 1.17248a5.48352 5.48352 0 0 1-0.64 0.03584z m176.58368 2.52416c-0.42496 0-0.8704-0.04608-1.29536-0.14336a247.27552 247.27552 0 0 0-11.32544-2.26816 5.9136 5.9136 0 0 1-4.80256-6.86592c0.55296-3.23584 3.69664-5.48864 6.8608-4.80256 4.11136 0.71168 8.07424 1.51552 11.86304 2.36032a5.9392 5.9392 0 0 1-1.30048 11.71968z m-217.6512 2.56a5.92384 5.92384 0 0 1-0.8192-11.8016c3.95264-0.55808 7.8848-1.1008 11.79136-1.59744a5.96992 5.96992 0 0 1 6.63552 5.13024 5.92896 5.92896 0 0 1-5.13024 6.6304c-3.85536 0.50176-7.7312 1.024-11.62752 1.57696a6.84032 6.84032 0 0 1-0.8448 0.06144z m-40.86272 6.36416a5.9392 5.9392 0 0 1-0.99328-11.776c3.92192-0.67072 7.8336-1.32096 11.71968-1.9456 3.15904-0.59904 6.28224 1.65888 6.79424 4.89984a5.90848 5.90848 0 0 1-4.89472 6.79424c-3.86048 0.62976-7.7312 1.28-11.60704 1.9456a5.77536 5.77536 0 0 1-1.024 0.08192z m297.04704 5.53984c-1.08032 0-2.16576-0.29184-3.14368-0.90624-2.8672-1.792-6.14912-3.5072-9.728-5.12-2.98496-1.32608-4.33152-4.8384-2.98496-7.82336 1.3312-2.99008 4.8384-4.35712 7.82848-2.99008 4.07552 1.8176 7.82336 3.79904 11.1616 5.88288 2.78016 1.73568 3.62496 5.39648 1.88928 8.16128-1.1264 1.81248-3.05664 2.79552-5.02272 2.79552z m-337.72544 2.01728a5.92384 5.92384 0 0 1-5.80096-4.77696 5.90848 5.90848 0 0 1 4.65408-6.96832l11.63264-2.28352a5.9136 5.9136 0 0 1 6.95296 4.70016 5.94944 5.94944 0 0 1-4.70016 6.95296l-11.5712 2.2528a5.25824 5.25824 0 0 1-1.16736 0.12288z m-40.448 8.62208a5.92384 5.92384 0 0 1-1.29536-11.70944l11.5712-2.58048a5.89824 5.89824 0 0 1 7.0656 4.51584 5.9392 5.9392 0 0 1-4.51584 7.0656l-11.52 2.56a5.632 5.632 0 0 1-1.30048 0.14848z m398.52544 22.8608c-0.1024 0-0.2048 0-0.3072-0.01024a5.91872 5.91872 0 0 1-5.6064-6.23616l0.04608-1.61792c0-2.304-0.29184-4.55168-0.85504-6.67136l-0.37376-1.21344a5.94944 5.94944 0 0 1 3.79904-7.48032 5.91872 5.91872 0 0 1 7.4752 3.79904l0.5376 1.79712a37.62688 37.62688 0 0 1 1.2032 12.01664 5.92384 5.92384 0 0 1-5.91872 5.61664z m-17.66912 36.50048a5.91872 5.91872 0 0 1-4.54144-9.73824 105.4208 105.4208 0 0 0 6.76864-8.9088 5.92896 5.92896 0 1 1 9.83552 6.62528c-2.2016 3.25632-4.7104 6.55872-7.5264 9.90208a5.9136 5.9136 0 0 1-4.53632 2.11968z m-30.09536 28.2624a5.888 5.888 0 0 1-4.6592-2.26816 5.888 5.888 0 0 1 0.9984-8.30976 275.58912 275.58912 0 0 0 8.92928-7.3472 5.92384 5.92384 0 1 1 7.73632 8.9856c-2.9696 2.54976-6.0672 5.10976-9.344 7.66976a5.88288 5.88288 0 0 1-3.6608 1.26976z m-33.84832 23.7312c-1.9712 0-3.8912-0.98304-5.0176-2.76992a5.91872 5.91872 0 0 1 1.85856-8.17664 464.82432 464.82432 0 0 0 9.7792-6.35392 5.92896 5.92896 0 0 1 6.5792 9.86624c-3.24096 2.16576-6.58944 4.35712-10.04032 6.51776a5.8112 5.8112 0 0 1-3.15904 0.91648z m-35.71712 20.9152a5.9392 5.9392 0 0 1-5.20704-3.09248 5.94432 5.94432 0 0 1 2.37056-8.04864c3.4816-1.88928 6.90176-3.7888 10.26048-5.6832a5.92384 5.92384 0 1 1 5.8368 10.32704c-3.4048 1.92512-6.89152 3.84512-10.4192 5.78048-0.90624 0.48128-1.87392 0.7168-2.8416 0.7168zM170.0864 530.95424a5.93408 5.93408 0 0 1-3.03616-11.02336c3.3536-1.99168 6.784-3.99872 10.30144-6.01088a5.9904 5.9904 0 0 1 8.09984 2.20672 5.94944 5.94944 0 0 1-2.21184 8.09984c-3.456 1.96608-6.8352 3.92192-10.12736 5.89312-0.9472 0.5632-1.98656 0.83456-3.02592 0.83456z m619.07456 13.06112a5.92896 5.92896 0 0 1-2.57024-11.264c3.55328-1.7152 7.07584-3.44064 10.53184-5.16608a5.92384 5.92384 0 0 1 5.28384 10.60352c-3.51232 1.75104-7.07584 3.50208-10.6752 5.23776a5.8368 5.8368 0 0 1-2.57024 0.5888z m-653.75232 9.48224c-1.8432 0-3.6608-0.85504-4.8128-2.46272a5.9392 5.9392 0 0 1 1.35168-8.27904c3.16928-2.28352 6.4512-4.56704 9.856-6.84544a5.90336 5.90336 0 0 1 8.22272 1.59744c1.83808 2.7136 1.12128 6.38976-1.59744 8.22272-3.29216 2.23232-6.4768 4.44416-9.55392 6.66112a5.9648 5.9648 0 0 1-3.46624 1.10592z m616.12544 7.76192a5.93408 5.93408 0 0 1-2.37568-11.36128l10.77248-4.75648a5.89824 5.89824 0 0 1 7.82848 2.98496c1.34144 2.99008 0 6.49728-2.99008 7.82848l-10.85952 4.80256c-0.768 0.33792-1.57696 0.50176-2.37568 0.50176z m-38.22592 15.86688a5.9392 5.9392 0 0 1-5.51424-3.74272 5.9392 5.9392 0 0 1 3.32288-7.70048l10.94656-4.38784a5.888 5.888 0 0 1 7.71072 3.25632 5.90336 5.90336 0 0 1-3.25632 7.71584l-11.02336 4.43904c-0.7168 0.27648-1.45408 0.41984-2.18624 0.41984z m-609.792 2.64704a5.92896 5.92896 0 0 1-4.1472-10.1632 216.19712 216.19712 0 0 1 8.92928-8.24832 5.9392 5.9392 0 0 1 7.808 8.94464 196.32128 196.32128 0 0 0-8.448 7.77728c-1.152 1.1264-2.64192 1.6896-4.13696 1.6896z m571.11552 12.02176a5.92384 5.92384 0 0 1-2.02752-11.49952l11.04384-4.06528a5.92384 5.92384 0 0 1 7.6288 3.48672 5.94944 5.94944 0 0 1-3.4816 7.63392l-11.14112 4.08576c-0.67072 0.24064-1.3568 0.3584-2.0224 0.3584z m-39.08608 13.5936a5.92384 5.92384 0 0 1-1.86368-11.55584l11.15136-3.7632a5.92896 5.92896 0 1 1 3.81952 11.23328l-11.24352 3.78368a5.61664 5.61664 0 0 1-1.86368 0.30208z m-556.544 7.36768a5.9136 5.9136 0 0 1-5.45792-8.24832c1.57184-3.68128 3.59424-7.48032 6.0416-11.27936a5.9136 5.9136 0 0 1 8.18176-1.792c2.75968 1.77152 3.56864 5.43232 1.792 8.18688a65.2288 65.2288 0 0 0-5.09952 9.51808 5.92896 5.92896 0 0 1-5.4528 3.61472z m517.11488 5.1712a5.9392 5.9392 0 0 1-5.67296-4.18816 5.9392 5.9392 0 0 1 3.93728-7.40864l11.25376-3.47648a5.9392 5.9392 0 0 1 3.54304 11.32544l-11.32544 3.49696a6.03136 6.03136 0 0 1-1.7408 0.25088z m-39.72096 11.60704a5.92896 5.92896 0 0 1-1.6128-11.63776l11.36128-3.21024c3.0976-0.9472 6.43072 0.94208 7.3216 4.07552a5.91872 5.91872 0 0 1-4.07552 7.3216l-11.38688 3.23072c-0.52736 0.14848-1.0752 0.22016-1.60768 0.22016z m-39.9872 10.62912a5.9392 5.9392 0 0 1-5.74464-4.48c-0.80896-3.1744 1.1264-6.39488 4.3008-7.18848l11.40224-2.92864a5.88288 5.88288 0 0 1 7.22944 4.23424 5.90848 5.90848 0 0 1-4.2496 7.22944l-11.48928 2.94912a5.6832 5.6832 0 0 1-1.44896 0.18432z m-40.20224 9.68192a5.92896 5.92896 0 0 1-1.3312-11.70432l11.48416-2.66752c3.24608-0.8448 6.37952 1.2288 7.1168 4.41344a5.91872 5.91872 0 0 1-4.40832 7.12192l-11.53536 2.68288c-0.44544 0.10752-0.896 0.1536-1.3312 0.1536z m-392.29952 1.49504c-1.6384 0-3.2768-0.67072-4.43904-1.99168a41.088 41.088 0 0 1-7.34208-11.60704 5.92896 5.92896 0 0 1 10.97728-4.49024 29.05088 29.05088 0 0 0 5.23776 8.22272 5.92896 5.92896 0 0 1-4.43392 9.86624z m351.83616 7.17824a5.93408 5.93408 0 0 1-1.15712-11.74016l11.53536-2.36544a5.85216 5.85216 0 0 1 7.0144 4.58752 5.91872 5.91872 0 0 1-4.58752 7.01952l-11.6224 2.38592a6.20544 6.20544 0 0 1-1.18272 0.11264z m-40.65792 7.61856a5.92384 5.92384 0 0 1-1.00352-11.76576l11.5968-2.05824c3.1744-0.47616 6.2976 1.55136 6.89152 4.78208a5.9392 5.9392 0 0 1-4.78208 6.8864l-11.6736 2.06848a5.78048 5.78048 0 0 1-1.02912 0.08704z m-275.6608 5.38624c-0.58368 0-1.18272-0.08704-1.792-0.2816a133.248 133.248 0 0 1-11.58656-4.224 5.90848 5.90848 0 0 1-3.1744-7.7568c1.26464-3.0208 4.72064-4.44928 7.7568-3.1744 3.3024 1.37728 6.83008 2.6624 10.5984 3.85536a5.93408 5.93408 0 0 1-1.79712 11.58144z m234.8032 1.06496a5.9392 5.9392 0 0 1-0.83456-11.8016l11.66848-1.69984c3.2256-0.41984 6.2464 1.73568 6.73792 4.98176a5.91872 5.91872 0 0 1-4.98176 6.7328l-11.73504 1.73056c-0.2816 0.03072-0.5632 0.05632-0.85504 0.05632z m-41.0368 5.16608a5.9392 5.9392 0 0 1-0.63488-11.8272l11.69408-1.32608c3.36896-0.29184 6.20544 1.95072 6.58944 5.1968a5.95968 5.95968 0 0 1-5.20192 6.58944l-11.78624 1.3312a5.7088 5.7088 0 0 1-0.6656 0.03584z m-153.30304 2.15552c-0.256 0-0.50176-0.01024-0.74752-0.04608a331.33568 331.33568 0 0 1-11.9296-1.7408 5.92384 5.92384 0 0 1-4.87424-6.81984 5.888 5.888 0 0 1 6.81984-4.87424c3.6864 0.6144 7.5264 1.16736 11.46368 1.66912a5.92896 5.92896 0 0 1-0.73216 11.81184z m112.08704 1.47968a5.93408 5.93408 0 0 1-0.38912-11.84768c3.8656-0.26112 7.77728-0.55296 11.7248-0.85504 3.00544-0.26624 6.1184 2.176 6.3744 5.44256a5.9136 5.9136 0 0 1-5.44768 6.36928c-3.9936 0.32256-7.936 0.6144-11.84256 0.88064-0.13824 0.01024-0.2816 0.01024-0.41984 0.01024z m-70.8608 1.5872h-0.18432c-4.06016-0.128-8.04352-0.30208-11.95008-0.50688a5.9136 5.9136 0 0 1-5.59104-6.2464c0.16896-3.26656 2.60608-5.80096 6.24128-5.59104 3.80928 0.2048 7.70048 0.36352 11.6736 0.4864a5.92896 5.92896 0 0 1-0.18944 11.85792z m41.1648-11.97056c3.40992 0.17408 6.016 2.47296 6.1184 5.74464a5.92896 5.92896 0 0 1-5.74464 6.10816 1228.8 1228.8 0 0 1-11.8784 0.3072h-0.128a5.92896 5.92896 0 0 1-0.128-11.86304c3.8656-0.08192 7.79776-0.17408 11.76576-0.29696z m-24.92928-171.76576a5.9392 5.9392 0 0 1-2.58048 7.9872l-5.248 2.69312a5.92896 5.92896 0 0 1-5.48864-10.51648l5.34016-2.74432a5.95456 5.95456 0 0 1 7.97696 2.58048z m304.41984-106.92608a5.93408 5.93408 0 0 1-4.33152 7.18336l-5.76512 1.42336a5.9392 5.9392 0 0 1-7.17824-4.33152 5.92896 5.92896 0 0 1 4.33152-7.17824l5.77024-1.4336a5.9136 5.9136 0 0 1 7.168 4.33664z" fill="#E52C3E" p-id="23014"></path></svg>