<?xml version="1.0" standalone="no"?><!DOCTYPE svg PUBLIC "-//W3C//DTD SVG 1.1//EN" "http://www.w3.org/Graphics/SVG/1.1/DTD/svg11.dtd"><svg t="1658234258009" class="icon" viewBox="0 0 1024 1024" version="1.1" xmlns="http://www.w3.org/2000/svg" p-id="25636" xmlns:xlink="http://www.w3.org/1999/xlink" width="200" height="200"><defs><style type="text/css">@font-face { font-family: feedback-iconfont; src: url("//at.alicdn.com/t/font_1031158_u69w8yhxdu.woff2?t=1630033759944") format("woff2"), url("//at.alicdn.com/t/font_1031158_u69w8yhxdu.woff?t=1630033759944") format("woff"), url("//at.alicdn.com/t/font_1031158_u69w8yhxdu.ttf?t=1630033759944") format("truetype"); }
</style></defs><path d="M853.48864 604.31872c-15.40608-9.90208-31.88224 6.56896-21.97504 21.97504 0.6912 1.0752 1.6384 2.0224 2.7136 2.7136 15.4112 9.9072 31.87712-6.56896 21.97504-21.97504a9.20064 9.20064 0 0 0-2.7136-2.7136m3.9168 32.768c-22.74304 12.88704-46.12608-9.74336-34.75456-32.49152a20.33664 20.33664 0 0 1 9.13408-9.1392c22.75328-11.3664 45.38368 12.01152 32.49664 34.7648a18.33984 18.33984 0 0 1-6.87616 6.86592M774.41024 461.58848a14.98624 14.98624 0 1 1-29.9776-0.01536 14.98624 14.98624 0 0 1 29.9776 0.01536M888.3712 291.4304h-19.9168v-19.90656a5.2736 5.2736 0 1 0-10.55744 0v19.90656h-19.9168a5.28384 5.28384 0 1 0 0 10.56768h19.9168v19.9168a5.2736 5.2736 0 1 0 10.56256 0v-19.9168h19.9168a5.27872 5.27872 0 1 0 0-10.56768" fill="#E52C3E" p-id="25637"></path><path d="M730.02496 542.18752c0-120.4224-97.60768-218.03008-218.02496-218.03008s-218.02496 97.6128-218.02496 218.03008c0 120.41216 97.60768 218.02496 218.02496 218.02496s218.02496-97.6128 218.02496-218.02496" fill="#2B6DE5" p-id="25638"></path><path d="M436.59776 511.44704a15.96416 15.96416 0 1 1-31.92832 0 15.96416 15.96416 0 0 1 31.92832 0" fill="#FFFFFF" p-id="25639"></path><path d="M760.40704 395.74528a5.54496 5.54496 0 0 1-0.17408-11.0848c3.80928-0.11776 7.56736-0.2048 11.264-0.24064h0.06144c3.03616 0 5.50912 2.44736 5.54496 5.48864a5.5552 5.5552 0 0 1-5.49376 5.59616c-3.6352 0.03584-7.30624 0.12288-11.0336 0.24064h-0.16896z m50.176 0.4864c-0.1024 0-0.2048 0-0.31232-0.01024-3.60448-0.2048-7.27552-0.3584-11.02848-0.4864a5.5552 5.5552 0 0 1-5.3504-5.7344c0.11264-3.05664 2.6112-5.02784 5.7344-5.35552 3.82464 0.128 7.5776 0.3072 11.27424 0.512a5.53984 5.53984 0 0 1-0.31232 11.07456z m38.80448 4.15744c-0.3072 0-0.6144-0.0256-0.9216-0.07168a299.52512 299.52512 0 0 0-10.84416-1.61792 5.5552 5.5552 0 0 1-4.77696-6.22592 5.56032 5.56032 0 0 1 6.22592-4.77184c3.85536 0.512 7.6032 1.0752 11.2128 1.67936a5.53984 5.53984 0 0 1-0.896 11.008z m37.56032 10.25024a5.5808 5.5808 0 0 1-2.15552-0.43008 118.87616 118.87616 0 0 0-9.99424-3.68128 5.55008 5.55008 0 0 1-3.59424-6.97344 5.57056 5.57056 0 0 1 6.97344-3.59424c3.88608 1.24416 7.5264 2.60096 10.92608 4.02944a5.55008 5.55008 0 1 1-2.15552 10.6496z m29.1072 24.4992c-2.1504 0-4.17792-1.24416-5.08928-3.328a29.00992 29.00992 0 0 0-5.08416-7.7824 5.53472 5.53472 0 0 1 0.41984-7.8336 5.5296 5.5296 0 0 1 7.82848 0.42496 40.31488 40.31488 0 0 1 7.0144 10.77248 5.5552 5.5552 0 0 1-5.08928 7.74656z m-5.70368 36.92032a5.53472 5.53472 0 0 1-4.72064-8.448c1.90464-3.08224 3.456-6.1184 4.608-9.02656a5.5808 5.5808 0 0 1 7.20384-3.10272c2.85184 1.13152 4.23424 4.35712 3.10784 7.19872a69.93408 69.93408 0 0 1-5.4784 10.752 5.53984 5.53984 0 0 1-4.72064 2.62656z m-25.7024 29.2096c-1.52576 0-3.04128-0.62976-4.13696-1.8432a5.55008 5.55008 0 0 1 0.44544-7.8336c2.816-2.50368 5.44256-4.98176 7.90528-7.43424a5.53984 5.53984 0 1 1 7.8336 7.8336 210.688 210.688 0 0 1-8.35584 7.87456 5.53984 5.53984 0 0 1-3.6864 1.40288zM258.14528 521.8304a5.53472 5.53472 0 0 1-2.37568-10.5472c3.34336-1.5872 6.7328-3.18464 10.1632-4.7616a5.54496 5.54496 0 0 1 4.6336 10.07104c-3.38944 1.55648-6.7328 3.12832-10.0352 4.70016-0.768 0.36352-1.57696 0.5376-2.38592 0.5376z m595.65568 3.28192a5.53984 5.53984 0 0 1-3.13856-10.112 428.92288 428.92288 0 0 0 8.99584-6.34368 5.53984 5.53984 0 1 1 6.51264 8.96512c-2.97472 2.16576-6.04672 4.3264-9.23136 6.51264a5.53472 5.53472 0 0 1-3.13856 0.97792zM223.2832 539.37152a5.5296 5.5296 0 0 1-4.87936-2.92864 5.5296 5.5296 0 0 1 2.2528-7.5008c3.2768-1.75104 6.59968-3.49696 9.97376-5.24288a5.61152 5.61152 0 0 1 7.4752 2.4064 5.56032 5.56032 0 0 1-2.4064 7.4752c-3.33312 1.69472-6.59456 3.41504-9.79968 5.13024a5.41184 5.41184 0 0 1-2.61632 0.6656z m597.4016 6.44096a5.5296 5.5296 0 0 1-4.79232-2.7648 5.5296 5.5296 0 0 1 2.0224-7.5776c3.24608-1.88416 6.43072-3.7376 9.5232-5.62176a5.5808 5.5808 0 0 1 7.61344 1.8944 5.56032 5.56032 0 0 1-1.8944 7.61344c-3.15904 1.8944-6.38464 3.80416-9.7024 5.7088-0.8704 0.512-1.82784 0.74752-2.76992 0.74752zM189.42464 558.80192a5.5296 5.5296 0 0 1-2.9184-10.25024 504.8832 504.8832 0 0 1 9.64608-5.84704 5.54496 5.54496 0 0 1 5.64736 9.54368 500.0192 500.0192 0 0 0-9.4464 5.72416 5.57056 5.57056 0 0 1-2.92864 0.82944z m596.8896 5.53472c-2.01728 0-3.96288-1.10592-4.93568-3.03104a5.5296 5.5296 0 0 1 2.42176-7.4496c3.34848-1.71008 6.62528-3.39968 9.86112-5.08928a5.57568 5.57568 0 0 1 7.48544 2.3552 5.55008 5.55008 0 0 1-2.3552 7.4752c-3.25632 1.71008-6.5792 3.42016-9.96352 5.13536-0.80384 0.4096-1.66912 0.60416-2.51392 0.60416z m-629.1456 16.42496a5.54496 5.54496 0 0 1-3.34848-9.96352 401.00864 401.00864 0 0 1 9.12896-6.69184 5.53472 5.53472 0 1 1 6.4256 9.02656c-3.06176 2.176-6.016 4.34176-8.86272 6.5024a5.54496 5.54496 0 0 1-3.34336 1.1264z m593.91488 0.39936c-2.10944 0-4.12672-1.21344-5.05856-3.26144a5.56032 5.56032 0 0 1 2.7648-7.33696c3.42016-1.536 6.77888-3.072 10.0864-4.62848a5.55008 5.55008 0 0 1 4.70016 10.05056c-3.3536 1.57184-6.7584 3.1232-10.20928 4.6848a5.49376 5.49376 0 0 1-2.28352 0.49152z m-35.84512 15.4624a5.5296 5.5296 0 0 1-5.12-3.4304 5.5296 5.5296 0 0 1 3.01056-7.23968l10.2656-4.2752a5.56544 5.56544 0 0 1 7.24992 2.9696 5.54496 5.54496 0 0 1-2.9696 7.25504l-10.32704 4.29056a5.31968 5.31968 0 0 1-2.10944 0.42496zM128.01024 606.63808a5.53984 5.53984 0 0 1-4.08576-9.29792 180.87936 180.87936 0 0 1 8.0896-8.192 5.54496 5.54496 0 0 1 7.64928 8.02816 165.74464 165.74464 0 0 0-7.5776 7.68c-1.09056 1.1776-2.5856 1.78176-4.07552 1.78176z m550.8608 4.224a5.55008 5.55008 0 0 1-1.9456-10.74176l10.40384-3.93216a5.54496 5.54496 0 0 1 3.95776 10.35264l-10.48064 3.97312a5.4272 5.4272 0 0 1-1.93536 0.34816z m-36.7616 13.17376a5.5296 5.5296 0 0 1-5.23264-3.74784 5.5296 5.5296 0 0 1 3.44064-7.03488l10.50624-3.64544a5.51424 5.51424 0 0 1 7.0656 3.38944c1.01888 2.88768-0.512 6.04672-3.38944 7.0656l-10.58816 3.67104c-0.59392 0.2048-1.19808 0.3072-1.79712 0.3072z m-37.09952 12.16c-2.36032 0-4.54144-1.51552-5.29408-3.88608a5.5552 5.5552 0 0 1 3.6352-6.94784l10.5984-3.36384a5.5296 5.5296 0 0 1 6.9632 3.584 5.53472 5.53472 0 0 1-3.56352 6.9632l-10.6752 3.39968a5.51424 5.51424 0 0 1-1.664 0.256z m-497.06496 3.4304A5.5552 5.5552 0 0 1 102.5536 632.7808c0.90624-3.72736 2.35008-7.60832 4.2752-11.55584 1.36192-2.73408 4.68992-3.84 7.424-2.52928 2.74432 1.35168 3.88096 4.67456 2.5344 7.424a45.34784 45.34784 0 0 0-3.45088 9.28256 5.5552 5.5552 0 0 1-5.39648 4.22912z m459.66336 7.77216a5.53984 5.53984 0 0 1-1.52576-10.86976l10.68544-3.09248a5.53984 5.53984 0 1 1 3.11808 10.62912l-10.752 3.1232c-0.512 0.1536-1.02912 0.20992-1.52576 0.20992z m-37.6576 10.2912c-2.46272 0-4.72064-1.65888-5.376-4.1472-0.75776-2.9696 1.024-5.9904 3.98336-6.76864l10.74688-2.83648a5.58592 5.58592 0 0 1 6.79424 3.92704 5.5552 5.5552 0 0 1-3.93216 6.78912l-10.81344 2.85696a5.7856 5.7856 0 0 1-1.40288 0.17408z m-37.888 9.3696a5.55008 5.55008 0 0 1-1.28-10.93632l10.8288-2.58048a5.60128 5.60128 0 0 1 6.69184 4.08576 5.5552 5.5552 0 0 1-4.096 6.69184l-10.86976 2.59072a5.2224 5.2224 0 0 1-1.28 0.1536zM120.2176 674.23744c-1.24416 0-2.5088-0.4096-3.5328-1.26976a47.3856 47.3856 0 0 1-8.60672-9.15968 5.52448 5.52448 0 0 1 1.3312-7.71584 5.51424 5.51424 0 0 1 7.72096 1.3312c1.73056 2.44224 3.95264 4.79232 6.61504 6.99392a5.53984 5.53984 0 0 1-3.5328 9.82016z m333.71648 1.21856a5.53472 5.53472 0 0 1-1.10592-10.96704l10.86976-2.29376a5.632 5.632 0 0 1 6.5792 4.26496 5.53984 5.53984 0 0 1-4.26496 6.58432l-10.9568 2.29376a4.9408 4.9408 0 0 1-1.1264 0.11776z m-38.33344 7.424a5.54496 5.54496 0 0 1-0.95744-11.00288l10.92608-1.9968a5.48864 5.48864 0 0 1 6.4512 4.4288 5.5296 5.5296 0 0 1-4.41856 6.46656l-11.008 2.01216a6.5024 6.5024 0 0 1-0.99328 0.08704z m-38.528 6.28736c-2.70336 0-5.07392-1.98656-5.4784-4.74624a5.56032 5.56032 0 0 1 4.68992-6.29248 715.0592 715.0592 0 0 0 10.96704-1.664c2.9184-0.4096 5.86752 1.5872 6.33856 4.61312a5.55008 5.55008 0 0 1-4.608 6.3488c-3.72224 0.57856-7.424 1.14176-11.09504 1.6896a7.33184 7.33184 0 0 1-0.8192 0.0512z m-221.7472 1.43872c-0.4864 0-0.9728-0.06656-1.47456-0.19456a160.28672 160.28672 0 0 1-11.01824-3.46624 5.53472 5.53472 0 0 1-3.3536-7.08096c1.03936-2.88768 4.1984-4.37248 7.07584-3.35872 3.21536 1.152 6.62528 2.22208 10.24 3.20512a5.55008 5.55008 0 0 1-1.46944 10.89536z m183.04 3.64544a5.55008 5.55008 0 0 1-0.60416-11.04896 913.8688 913.8688 0 0 0 11.00288-1.31072 5.54496 5.54496 0 1 1 1.3824 10.99776c-3.75296 0.46592-7.4752 0.9216-11.15136 1.3312-0.2048 0.02048-0.42496 0.03072-0.62976 0.03072z m-144.65024 3.3024a4.78208 4.78208 0 0 1-0.60416-0.03584 307.84 307.84 0 0 1-11.27424-1.41312 5.5552 5.5552 0 0 1-4.69504-6.27712c0.43008-3.0464 3.40992-5.08416 6.28224-4.70016 3.52768 0.512 7.1424 0.9728 10.88 1.37216a5.55008 5.55008 0 1 1-0.5888 11.05408z m105.79456 0.3584a5.54496 5.54496 0 0 1-0.39936-11.07456c3.65056-0.256 7.33184-0.55296 11.05408-0.8704a5.5552 5.5552 0 0 1 5.9904 5.03808 5.5296 5.5296 0 0 1-5.03808 5.99552c-3.7632 0.32256-7.49056 0.61952-11.1872 0.90112-0.13824 0.01024-0.27648 0.01024-0.41984 0.01024z m-38.9632 1.95584a5.53472 5.53472 0 0 1-5.53984-5.38624 5.55008 5.55008 0 0 1 5.39136-5.69856c3.6352-0.09728 7.3216-0.21504 11.0592-0.36864 3.2768 0.12288 5.64224 2.26816 5.77536 5.31456a5.56544 5.56544 0 0 1-5.31456 5.77536c-3.79904 0.1536-7.53664 0.27136-11.22304 0.36352h-0.1536zM221.71136 688.53248c3.61472 0.13824 7.28576 0.256 11.04384 0.3328a5.55008 5.55008 0 0 1 5.43744 5.65248 5.5552 5.5552 0 0 1-5.54496 5.43232h-0.10752c-3.82464-0.0768-7.5776-0.19456-11.264-0.3328a5.56032 5.56032 0 0 1-5.3248-5.76c0.13312-3.05152 2.42688-5.04832 5.76-5.3248zM738.07872 391.21408a5.55008 5.55008 0 0 1-5.1712 5.888l-12.16512 0.1792c-0.13312 0.01536-0.28672 0.01536-0.43008 0.01536a5.55008 5.55008 0 0 1-0.4096-11.07456l12.288-0.18432c2.69312-0.27136 5.6832 2.10944 5.888 5.17632z" fill="#E52C3E" p-id="25640"></path></svg>