<?xml version="1.0" standalone="no"?><!DOCTYPE svg PUBLIC "-//W3C//DTD SVG 1.1//EN" "http://www.w3.org/Graphics/SVG/1.1/DTD/svg11.dtd"><svg t="1658228275830" class="icon" viewBox="0 0 1024 1024" version="1.1" xmlns="http://www.w3.org/2000/svg" p-id="22718" xmlns:xlink="http://www.w3.org/1999/xlink" width="200" height="200"><defs><style type="text/css">@font-face { font-family: feedback-iconfont; src: url("//at.alicdn.com/t/font_1031158_u69w8yhxdu.woff2?t=1630033759944") format("woff2"), url("//at.alicdn.com/t/font_1031158_u69w8yhxdu.woff?t=1630033759944") format("woff"), url("//at.alicdn.com/t/font_1031158_u69w8yhxdu.ttf?t=1630033759944") format("truetype"); }
</style></defs><path d="M512 46.545455c205.661091 0 372.363636 166.702545 372.363636 372.363636 0 177.570909-124.322909 326.120727-290.676363 363.380364L512 884.363636l-81.687273-102.074181C263.959273 745.053091 139.636364 596.48 139.636364 418.909091 139.636364 213.248 306.338909 46.545455 512 46.545455z" fill="#1DCCBB" p-id="22719"></path><path d="M413.277091 553.495273c8.378182 5.236364 17.128727 9.821091 26.298182 13.661091 22.900364 9.774545 47.243636 14.661818 72.424727 14.661818a184.878545 184.878545 0 0 0 98.769455-28.299637 11.636364 11.636364 0 0 1 12.357818 19.712A208.593455 208.593455 0 0 1 512 605.090909a208.290909 208.290909 0 0 1-111.127273-31.883636 11.636364 11.636364 0 1 1 12.404364-19.712zM512 232.727273a162.909091 162.909091 0 1 1 0 325.818182 162.909091 162.909091 0 0 1 0-325.818182z m0 81.454545a81.454545 81.454545 0 1 0 0 162.909091 81.454545 81.454545 0 0 0 0-162.909091z m0 23.272727c15.522909 0 30.138182 6.050909 41.122909 17.05891 11.031273 10.984727 17.058909 25.6 17.058909 41.122909 0 15.522909-6.050909 30.138182-17.058909 41.122909-10.984727 11.031273-25.6 17.058909-41.122909 17.058909-15.522909 0-30.138182-6.050909-41.122909-17.058909A57.669818 57.669818 0 0 1 453.818182 395.636364c0-15.522909 6.050909-30.138182 17.058909-41.122909A57.669818 57.669818 0 0 1 512 337.454545z m0-64a17.454545 17.454545 0 1 0 0 34.909091 17.454545 17.454545 0 0 0 0-34.909091z" fill="#FFFFFF" p-id="22720"></path></svg>