<?xml version="1.0" standalone="no"?><!DOCTYPE svg PUBLIC "-//W3C//DTD SVG 1.1//EN" "http://www.w3.org/Graphics/SVG/1.1/DTD/svg11.dtd"><svg t="1658235896524" class="icon" viewBox="0 0 1024 1024" version="1.1" xmlns="http://www.w3.org/2000/svg" p-id="30317" xmlns:xlink="http://www.w3.org/1999/xlink" width="200" height="200"><defs><style type="text/css">@font-face { font-family: feedback-iconfont; src: url("//at.alicdn.com/t/font_1031158_u69w8yhxdu.woff2?t=1630033759944") format("woff2"), url("//at.alicdn.com/t/font_1031158_u69w8yhxdu.woff?t=1630033759944") format("woff"), url("//at.alicdn.com/t/font_1031158_u69w8yhxdu.ttf?t=1630033759944") format("truetype"); }
</style></defs><path d="M757.65248 833.536a79.1552 79.1552 0 0 1-56.17152-23.27552l-243.97824-243.97312c-31.03232-31.0272-31.03232-81.32608 0-112.34304 31.00672-31.03232 81.33632-31.03232 112.34304 0l243.97824 243.97312c31.03232 31.02208 31.03232 81.32608 0 112.34304a79.17056 79.17056 0 0 1-56.17152 23.27552" fill="#FFB103" p-id="30318"></path><path d="M427.98592 195.63008c-42.8288-4.1984-83.42528 4.1984-118.60992 21.8624-2.77504 1.39264-3.328 5.1712-1.1264 7.38304l106.17856 106.17856c23.12192 23.12192 24.25856 62.1568 0.18432 84.28032a56.82176 56.82176 0 0 1-38.53312 15.0016 56.8064 56.8064 0 0 1-40.30464-16.70144L225.41312 303.26784c-2.12992-2.12992-5.77536-1.69472-7.2704 0.9216-22.21056 38.74816-33.0496 84.7872-27.0848 133.7856 12.1856 100.0704 94.11584 179.9424 194.48832 189.31712 136.31488 12.73344 250.112-101.5808 236.48256-238.05952-10.1376-101.58592-92.43648-183.64416-194.04288-193.60256" fill="#FFC005" p-id="30319"></path><path d="M607.69792 491.73504a215.296 215.296 0 0 1-3.64032 8.576 218.15296 218.15296 0 0 1-105.2928 107.17184l8.15616 8.15616a218.05056 218.05056 0 0 0 104.12032-120.56064l-3.34336-3.34336zM216.73984 306.816l112.45056 112.45056a56.8064 56.8064 0 0 0 40.30976 16.70144c13.81888 0 27.64288-5.00736 38.528-14.99648 0.68096-0.62464 1.29024-1.17248 1.9968-1.83296-8.22272 6.02112-20.1216 11.19232-33.94048 11.19232-14.58688 0-29.184-5.56544-40.30976-16.6912L225.41312 303.26784c-2.12992-2.1248-5.85728-1.7408-7.27552 0.9216l-1.39776 2.62656z" fill="#FFAD03" p-id="30320"></path></svg>