<?xml version="1.0" standalone="no"?><!DOCTYPE svg PUBLIC "-//W3C//DTD SVG 1.1//EN" "http://www.w3.org/Graphics/SVG/1.1/DTD/svg11.dtd"><svg t="1658236034821" class="icon" viewBox="0 0 1024 1024" version="1.1" xmlns="http://www.w3.org/2000/svg" p-id="32380" xmlns:xlink="http://www.w3.org/1999/xlink" width="200" height="200"><defs><style type="text/css">@font-face { font-family: feedback-iconfont; src: url("//at.alicdn.com/t/font_1031158_u69w8yhxdu.woff2?t=1630033759944") format("woff2"), url("//at.alicdn.com/t/font_1031158_u69w8yhxdu.woff?t=1630033759944") format("woff"), url("//at.alicdn.com/t/font_1031158_u69w8yhxdu.ttf?t=1630033759944") format("truetype"); }
</style></defs><path d="M417.28 430.10048c39.88992 0 72.22272-32.3328 72.22272-72.2176 0-39.88992-32.3328-72.22272-72.22272-72.22272-39.8848 0-72.2176 32.3328-72.2176 72.22272 0 39.8848 32.3328 72.2176 72.2176 72.2176M345.0624 526.78656c0 5.32992 0.61952 10.51136 1.71008 15.5136l21.01248 169.9072a12.09344 12.09344 0 0 0 12.02176 10.76736H454.7584a12.09344 12.09344 0 0 0 12.02176-10.76736l21.00736-169.91232a72.2944 72.2944 0 0 0 1.7152-15.50848c0-39.8848-32.3328-72.2176-72.22272-72.2176-39.8848 0-72.2176 32.3328-72.2176 72.2176z" fill="#2B6DE5" p-id="32381"></path><path d="M661.21216 595.93216a40.96 40.96 0 1 1-75.6736 6.2464l-30.72-32.52224A40.8064 40.8064 0 0 1 537.6 573.44a40.7808 40.7808 0 0 1-24.77056-8.33536l-27.5456 27.55584a40.96 40.96 0 1 1-19.78368-16.4096l32.66048-32.67584a40.96 40.96 0 1 1 75.3664 8.6016l27.29472 28.89728A40.77568 40.77568 0 0 1 624.64 573.44c6.64576 0 12.91776 1.58208 18.46784 4.38784l36.70016-36.70016A50.96448 50.96448 0 0 1 670.72 512c0-28.27776 22.92224-51.2 51.2-51.2s51.2 22.92224 51.2 51.2-22.92224 51.2-51.2 51.2a50.99008 50.99008 0 0 1-22.68672-5.28896z" fill="#FFC005" p-id="32382"></path><path d="M789.20704 803.83488H655.49312v-39.50592h113.96608V650.36288H808.96v133.71904A19.75296 19.75296 0 0 1 789.20704 803.83488" fill="#E52C3E" p-id="32383"></path><path d="M373.63712 803.83488H239.91808a19.7632 19.7632 0 0 1-19.7632-19.75296V650.36288h39.51104v113.9712h113.9712V803.83488z" fill="#E52C3E" p-id="32384"></path><path d="M808.96 368.50688h-39.50592V254.54592H655.488V215.03488h133.71904A19.75808 19.75808 0 0 1 808.96 234.79296v133.71392z" fill="#E52C3E" p-id="32385"></path><path d="M259.66592 368.50688H220.16V234.79296A19.7632 19.7632 0 0 1 239.91808 215.03488h133.71904v39.50592H259.66592v113.96096z" fill="#E52C3E" p-id="32386"></path></svg>