<?xml version="1.0" standalone="no"?><!DOCTYPE svg PUBLIC "-//W3C//DTD SVG 1.1//EN" "http://www.w3.org/Graphics/SVG/1.1/DTD/svg11.dtd"><svg t="1658235697496" class="icon" viewBox="0 0 1024 1024" version="1.1" xmlns="http://www.w3.org/2000/svg" p-id="27246" xmlns:xlink="http://www.w3.org/1999/xlink" width="200" height="200"><defs><style type="text/css">@font-face { font-family: feedback-iconfont; src: url("//at.alicdn.com/t/font_1031158_u69w8yhxdu.woff2?t=1630033759944") format("woff2"), url("//at.alicdn.com/t/font_1031158_u69w8yhxdu.woff?t=1630033759944") format("woff"), url("//at.alicdn.com/t/font_1031158_u69w8yhxdu.ttf?t=1630033759944") format("truetype"); }
</style></defs><path d="M653.3888 773.12H213.71904A14.03904 14.03904 0 0 1 199.68 759.0912V223.95904A14.03904 14.03904 0 0 1 213.71904 209.92h439.66976a14.03904 14.03904 0 0 1 14.03904 14.0288V759.0912a14.03904 14.03904 0 0 1-14.03904 14.03904" fill="#FFC005" p-id="27247"></path><path d="M597.4528 470.35904H345.18016a6.2464 6.2464 0 0 0-6.32832 6.32832v30.84288c0 3.5584 2.7648 6.3232 6.32832 6.3232h252.27264a6.2464 6.2464 0 0 0 6.3232-6.3232v-30.84288c-0.38912-3.5584-3.15904-6.32832-6.3232-6.32832M338.85184 358.46144v30.83776c0 3.5584 2.7648 6.32832 6.32832 6.32832h249.10848a6.2464 6.2464 0 0 0 6.32832-6.32832v-30.83776a6.2464 6.2464 0 0 0-6.32832-6.32832H345.18016c-3.56352 0.38912-6.32832 3.15904-6.32832 6.32832M266.09664 491.71456a24.8064 24.8064 0 0 0 24.9088 24.9088 24.8064 24.8064 0 0 0 24.9088-24.9088 24.8064 24.8064 0 0 0-24.9088-24.91392c-13.83936 0-24.9088 11.4688-24.9088 24.91392m0-117.8368a24.8064 24.8064 0 0 0 24.9088 24.91392 24.8064 24.8064 0 0 0 24.9088-24.91392 24.80128 24.80128 0 0 0-24.9088-24.9088c-13.83936 0-24.9088 11.4688-24.9088 24.9088" fill="#FFFFFF" p-id="27248"></path><path d="M557.27616 791.85408a21.8112 21.8112 0 0 1-21.79072-21.79072v-26.4704c0-35.67104 33.664-65.44384 82.42688-77.5936-20.4288-15.232-33.67424-39.5776-33.67424-66.95424 0-46.0288 37.44256-83.46624 83.46624-83.46624 46.0288 0 83.46624 37.44256 83.46624 83.46624 0 27.43808-13.312 51.82976-33.81248 67.05152 48.5376 12.21632 82.01216 41.92768 82.01216 77.49632v26.4704a21.8112 21.8112 0 0 1-21.79072 21.79072h-220.30336z" fill="#2B6DE5" p-id="27249"></path><path d="M667.6992 497.65888c-55.90016 0-101.38624 45.48096-101.38624 101.38624 0 21.90848 6.99392 42.21952 18.85184 58.81856-41.2928 17.65888-67.59936 48.7936-67.59936 85.72928v26.4704c0 21.89312 17.81248 39.71072 39.71072 39.71072h220.30336c21.89312 0 39.71584-17.8176 39.71584-39.71072v-26.4704c0-36.8128-26.1376-67.85536-67.17952-85.5552a100.84864 100.84864 0 0 0 18.97984-58.99264c0-55.9104-45.48608-101.38624-101.39136-101.38624m-0.27648 180.38784c62.976 0 114.0224 29.34784 114.0224 65.54624v26.4704a3.87072 3.87072 0 0 1-3.87072 3.87072h-220.30336a3.8656 3.8656 0 0 1-3.87072-3.87072v-26.4704c0-36.1984 51.0464-65.54624 114.0224-65.54624m0.27648-144.54784c36.1984 0 65.55136 29.3376 65.55136 65.54624 0 36.1984-29.35296 65.54624-65.55136 65.54624-36.1984 0-65.55136-29.34784-65.55136-65.54624 0-36.20352 29.35296-65.54624 65.55136-65.54624" fill="#FFFFFF" p-id="27250"></path></svg>