<?xml version="1.0" standalone="no"?><!DOCTYPE svg PUBLIC "-//W3C//DTD SVG 1.1//EN" "http://www.w3.org/Graphics/SVG/1.1/DTD/svg11.dtd"><svg t="1658235721753" class="icon" viewBox="0 0 1024 1024" version="1.1" xmlns="http://www.w3.org/2000/svg" p-id="27537" xmlns:xlink="http://www.w3.org/1999/xlink" width="200" height="200"><defs><style type="text/css">@font-face { font-family: feedback-iconfont; src: url("//at.alicdn.com/t/font_1031158_u69w8yhxdu.woff2?t=1630033759944") format("woff2"), url("//at.alicdn.com/t/font_1031158_u69w8yhxdu.woff?t=1630033759944") format("woff"), url("//at.alicdn.com/t/font_1031158_u69w8yhxdu.ttf?t=1630033759944") format("truetype"); }
</style></defs><path d="M602.7776 280.22272C602.7776 230.08768 562.14016 189.44 512 189.44c-50.13504 0-90.7776 40.64768-90.7776 90.78272 0 50.13504 40.64256 90.7776 90.7776 90.7776 50.14016 0 90.7776-40.64256 90.7776-90.7776zM421.2224 505.41056a91.136 91.136 0 0 0 2.14528 19.49184l26.4192 239.32416a15.20128 15.20128 0 0 0 15.10912 13.52704h94.21312a15.20128 15.20128 0 0 0 15.104-13.53216l26.4192-239.32416a91.136 91.136 0 0 0 2.14528-19.49184c0-50.13504-40.63744-90.7776-90.7776-90.7776-50.13504 0-90.7776 40.64256-90.7776 90.7776z" fill="#2B6DE5" p-id="27538"></path><path d="M326.06208 497.52576c-38.69696 0-70.06208 31.36512-70.06208 70.05696 0 5.16608 0.60416 10.1888 1.664 15.03744l20.3776 184.69376a11.7248 11.7248 0 0 0 11.66336 10.43968h72.71424a11.7248 11.7248 0 0 0 11.65312-10.4448l20.3776-184.68864c1.07008-4.84864 1.66912-9.87136 1.66912-15.03744 0-38.69184-31.36512-70.05696-70.05696-70.05696M326.06208 463.85152c38.69184 0 70.05696-31.36512 70.05696-70.05696 0-38.69184-31.36512-70.05696-70.05696-70.05696C287.36512 323.7376 256 355.10272 256 393.79456c0 38.69184 31.36512 70.05696 70.06208 70.05696" fill="#2B6DE5" p-id="27539"></path><path d="M697.93792 497.52576c-38.69184 0-70.05696 31.36512-70.05696 70.05696 0 5.16608 0.59904 10.1888 1.664 15.03744l20.38272 184.69376a11.7248 11.7248 0 0 0 11.65824 10.43968h72.70912a11.7248 11.7248 0 0 0 11.65824-10.4448l20.38272-184.68864c1.05984-4.84864 1.664-9.87136 1.664-15.03744 0-38.69184-31.36512-70.05696-70.06208-70.05696M697.93792 463.85152c38.69696 0 70.06208-31.36512 70.06208-70.05696 0-38.69184-31.36512-70.05696-70.06208-70.05696-38.69184 0-70.05696 31.36512-70.05696 70.05696 0 38.69184 31.36512 70.05696 70.05696 70.05696" fill="#2B6DE5" p-id="27540"></path><path d="M665.2928 836.55168h-113.13152c-8.69888 0-15.22688-6.52288-15.22688-15.22688v-165.34016c0-8.704 6.528-15.22688 15.22688-15.22688h113.13152c8.704 0 15.22688 6.52288 15.22688 15.22688v165.34016c0 8.704-6.528 15.22688-15.22688 15.22688" fill="#E52C3E" p-id="27541"></path><path d="M650.06592 777.81504H567.3984c-6.53312 0-10.88-4.35712-10.88-10.88v-95.7184c0-6.53312 4.34688-10.88 10.88-10.88h84.8384c6.528 0 10.88 4.34688 10.88 10.88v95.7184c-2.176 6.52288-6.528 10.88-13.056 10.88M595.67616 808.2688a13.05088 13.05088 0 1 0 26.09664 0.00512 13.05088 13.05088 0 0 0-26.09664 0" fill="#FFFFFF" p-id="27542"></path></svg>