<?xml version="1.0" standalone="no"?><!DOCTYPE svg PUBLIC "-//W3C//DTD SVG 1.1//EN" "http://www.w3.org/Graphics/SVG/1.1/DTD/svg11.dtd"><svg t="1658235737644" class="icon" viewBox="0 0 1024 1024" version="1.1" xmlns="http://www.w3.org/2000/svg" p-id="27685" xmlns:xlink="http://www.w3.org/1999/xlink" width="200" height="200"><defs><style type="text/css">@font-face { font-family: feedback-iconfont; src: url("//at.alicdn.com/t/font_1031158_u69w8yhxdu.woff2?t=1630033759944") format("woff2"), url("//at.alicdn.com/t/font_1031158_u69w8yhxdu.woff?t=1630033759944") format("woff"), url("//at.alicdn.com/t/font_1031158_u69w8yhxdu.ttf?t=1630033759944") format("truetype"); }
</style></defs><path d="M865.6384 720.78336C865.6384 785.85344 707.38944 838.59968 512.1792 838.59968 316.96896 838.59968 158.72 785.85344 158.72 720.78336 158.72 655.70816 316.96896 602.96192 512.1792 602.96192c195.21024 0 353.4592 52.75136 353.4592 117.82144" fill="#DFE0E4" p-id="27686"></path><path d="M724.25472 720.78336c0 39.04-94.9504 70.69184-212.07552 70.69184-117.12512 0-212.07552-31.65184-212.07552-70.69184 0-39.04512 94.9504-70.69696 212.0704-70.69696 117.13024 0 212.08064 31.65184 212.08064 70.69696" fill="#C3C3CB" p-id="27687"></path><path d="M599.85408 341.80608c42.07616 0 76.18048-34.11456 76.18048-76.1856 0-42.07616-34.10432-76.1856-76.1856-76.1856C557.78304 189.43488 523.66848 223.54432 523.66848 265.62048c0 42.07104 34.11456 76.1856 76.1856 76.1856" fill="#E52C3E" p-id="27688"></path><path d="M599.85408 378.4192c-42.07616 0-76.1856 34.0992-76.1856 76.18048 0 5.62176 0.65536 11.07968 1.81248 16.35328l22.16448 200.832a12.7488 12.7488 0 0 0 12.67712 11.35616h79.06304a12.7488 12.7488 0 0 0 12.67712-11.35616l22.16448-200.832c1.15712-5.2736 1.80736-10.73152 1.80736-16.35328 0-42.07616-34.10432-76.1856-76.1856-76.1856M424.4992 403.25632c42.08128 0 76.1856-34.10944 76.1856-76.18048 0-42.07616-34.10432-76.1856-76.1856-76.1856-42.06592 0-76.17536 34.10944-76.17536 76.1856 0 42.07104 34.10944 76.1856 76.18048 76.1856M424.4992 439.86944c-42.06592 0-76.17536 34.10432-76.17536 76.1856 0 5.61664 0.65024 11.07456 1.80736 16.34816l22.1696 200.83712a12.74368 12.74368 0 0 0 12.672 11.35104h79.06816a12.7488 12.7488 0 0 0 12.672-11.35104l22.16448-200.83712c1.15712-5.2736 1.81248-10.73152 1.81248-16.35328 0-42.07104-34.10944-76.17536-76.1856-76.17536" fill="#E52C3E" p-id="27689"></path></svg>