<?xml version="1.0" standalone="no"?><!DOCTYPE svg PUBLIC "-//W3C//DTD SVG 1.1//EN" "http://www.w3.org/Graphics/SVG/1.1/DTD/svg11.dtd"><svg t="1658235762918" class="icon" viewBox="0 0 1024 1024" version="1.1" xmlns="http://www.w3.org/2000/svg" p-id="28120" xmlns:xlink="http://www.w3.org/1999/xlink" width="200" height="200"><defs><style type="text/css">@font-face { font-family: feedback-iconfont; src: url("//at.alicdn.com/t/font_1031158_u69w8yhxdu.woff2?t=1630033759944") format("woff2"), url("//at.alicdn.com/t/font_1031158_u69w8yhxdu.woff?t=1630033759944") format("woff"), url("//at.alicdn.com/t/font_1031158_u69w8yhxdu.ttf?t=1630033759944") format("truetype"); }
</style></defs><path d="M838.75328 773.41184c0 60.24192-146.49856 109.07648-327.2192 109.07648-180.7104 0-327.20896-48.83456-327.20896-109.07648 0-60.2368 146.49856-109.07136 327.21408-109.07136s327.21408 48.83456 327.21408 109.07136" fill="#DFE0E4" p-id="28121"></path><path d="M707.8656 773.41184c0 36.1472-87.90016 65.44384-196.33152 65.44384-108.42624 0-196.3264-29.29664-196.3264-65.44384s87.90016-65.43872 196.3264-65.43872c108.43136 0 196.33152 29.29664 196.33152 65.4336" fill="#C3C3CB" p-id="28122"></path><path d="M511.5392 333.824c53.77024 0 97.36704-43.5968 97.36704-97.37216s-43.5968-97.36704-97.37216-97.36704-97.37216 43.59168-97.37216 97.36704S457.75872 333.824 511.5392 333.824M511.5392 380.6208c-53.78048 0-97.37728 43.60192-97.37728 97.37728 0 7.18336 0.83456 14.16192 2.30912 20.90496l28.33408 256.6912a16.29696 16.29696 0 0 0 16.2048 14.5152h101.05344a16.29184 16.29184 0 0 0 16.19968-14.5152l28.33408-256.6912c1.47456-6.74304 2.30912-13.7216 2.30912-20.90496 0-53.77536-43.5968-97.37216-97.37216-97.37216" fill="#E52C3E" fill-opacity=".08" p-id="28123"></path><path d="M535.22944 148.77184c-0.53248 0-1.0752-0.06656-1.62304-0.19456a86.48704 86.48704 0 0 0-12.2624-2.18624 6.64576 6.64576 0 1 1 1.3824-13.2352c4.71552 0.49664 9.472 1.32608 14.1312 2.49344 3.56352 0.896 5.7344 4.52608 4.83328 8.0896-0.768 3.01568-3.47136 5.03296-6.46144 5.03296M475.904 152.576a6.64576 6.64576 0 0 1-6.18496-4.21376 6.64064 6.64064 0 0 1 3.74784-8.63232 102.08768 102.08768 0 0 1 13.68576-4.31616c3.59936-0.9216 7.168 1.36192 8.02304 4.92544a6.656 6.656 0 0 1-4.93056 8.02304c-4.03968 0.9728-8.0384 2.23232-11.89376 3.7376a6.4512 6.4512 0 0 1-2.44736 0.47616m100.43392 17.99168c-1.58208 0-3.1744-0.5632-4.43392-1.6896a87.98208 87.98208 0 0 0-9.86624-7.6544 6.6816 6.6816 0 0 1-1.83296-9.24672 6.69184 6.69184 0 0 1 9.24672-1.83296c3.92192 2.6368 7.7312 5.5808 11.32544 8.80128a6.66112 6.66112 0 0 1-4.43904 11.6224M437.91872 179.5072a6.64576 6.64576 0 0 1-5.0176-11.02336 105.088 105.088 0 0 1 10.09664-10.15808 6.65088 6.65088 0 1 1 8.76544 10.0096 95.14496 95.14496 0 0 0-8.82688 8.8832 6.6304 6.6304 0 0 1-5.0176 2.28864m164.7616 29.42976a6.64064 6.64064 0 0 1-6.23104-4.31616 92.2112 92.2112 0 0 0-5.21216-11.37152A6.656 6.656 0 0 1 593.92 184.2176a6.69696 6.69696 0 0 1 9.02656 2.67776c2.28864 4.224 4.3008 8.6016 5.9648 13.04064a6.64576 6.64576 0 0 1-6.22592 8.99584m-185.92768 11.97568a6.67648 6.67648 0 0 1-6.48704-8.17664c1.09056-4.61312 2.5088-9.23648 4.224-13.69088a6.66624 6.66624 0 0 1 12.43136 4.78208 89.32352 89.32352 0 0 0-3.68128 11.95008 6.67136 6.67136 0 0 1-6.48704 5.13536m191.4112 34.2528a6.64064 6.64064 0 0 1-6.61504-7.46496c0.44032-3.65056 0.67584-7.36256 0.67584-11.14624-0.1024-3.6864 2.79552-7.3728 6.4768-7.46496 3.6864-0.14336 6.71744 2.1504 6.82496 5.8368l0.01536 1.62816c0 4.3264-0.256 8.59136-0.78336 12.76928a6.656 6.656 0 0 1-6.59456 5.84704m-190.95552 12.27264a6.656 6.656 0 0 1-6.4512-5.0176 105.32864 105.32864 0 0 1-2.5856-14.09536 6.66624 6.66624 0 0 1 5.87776-7.35744c3.3792-0.41472 6.94272 2.19648 7.35744 5.87776 0.45056 4.096 1.2288 8.22784 2.2528 12.29824a6.65088 6.65088 0 0 1-6.4512 8.2944m174.3872 31.17568a6.64576 6.64576 0 0 1-5.4784-10.43456c2.39104-3.46112 4.53632-7.0656 6.38464-10.73152a6.65088 6.65088 0 0 1 8.94464-2.93376c3.2768 1.64864 4.58752 5.65248 2.93888 8.94464-2.11968 4.1984-4.5824 8.33024-7.3216 12.28288a6.64576 6.64576 0 0 1-5.47328 2.8672m-152.33024 9.82528c-1.82784 0-3.63008-0.74752-4.94592-2.2016A105.216 105.216 0 0 1 425.472 294.9632a6.64576 6.64576 0 1 1 10.99264-7.49056c2.34496 3.4304 4.94592 6.74816 7.74144 9.84064a6.65088 6.65088 0 0 1-4.9408 11.12064m117.45792 21.03296c-2.39104 0-4.68992-1.29024-5.888-3.56352a6.64064 6.64064 0 0 1 2.79552-8.98048 93.52704 93.52704 0 0 0 10.6496-6.5792 6.7072 6.7072 0 0 1 9.2928 1.536 6.67136 6.67136 0 0 1-1.536 9.30304 107.37664 107.37664 0 0 1-12.21632 7.51616c-0.99328 0.512-2.04288 0.768-3.0976 0.768m-78.98112 5.05344c-0.76288 0-1.536-0.128-2.31424-0.41472a103.9616 103.9616 0 0 1-13.04576-5.888 6.656 6.656 0 0 1-2.70848-9.02144 6.70208 6.70208 0 0 1 9.02144-2.70336c3.64032 1.96096 7.46496 3.6864 11.3664 5.13536a6.66112 6.66112 0 0 1-2.31936 12.89216m33.792 6.03648c-3.68128 0-7.12704-2.99008-7.12704-6.66112 0-3.67616 2.51392-6.66624 6.1952-6.66624l1.20832 0.01024c3.8912 0 8.0896-0.2816 12.20608-0.8448a6.70208 6.70208 0 0 1 7.48544 5.69856 6.63552 6.63552 0 0 1-5.69344 7.49056c-4.70528 0.64512-9.50272 0.9728-14.27456 0.9728M498.40128 388.2496c-3.2768 0-6.12352-2.42176-6.5792-5.76512a6.64576 6.64576 0 0 1 5.69344-7.48544c4.61824-0.64 9.3184-0.9472 14.01344-0.9472 3.68128 0 6.98368 2.97472 6.98368 6.656 0 3.67616-2.65216 6.656-6.33344 6.656h-0.65024c-4.1472 0-8.21248 0.27136-12.21632 0.8192a4.9664 4.9664 0 0 1-0.91136 0.06144m58.01984 10.06592c-1.03936 0-2.08896-0.25088-3.08224-0.75776a91.19744 91.19744 0 0 0-11.20256-4.89984 6.66112 6.66112 0 0 1-4.00384-8.52992 6.73792 6.73792 0 0 1 8.52992-4.00384c4.4288 1.60256 8.75008 3.50208 12.84608 5.632a6.656 6.656 0 0 1-3.08736 12.55936M455.936 404.7872c-2.10944 0-4.1728-1.00352-5.4784-2.85696a6.67136 6.67136 0 0 1 1.67936-9.2672 107.6736 107.6736 0 0 1 12.032-7.2192 6.656 6.656 0 1 1 6.06208 11.85792c-3.65056 1.85856-7.1424 3.97824-10.50112 6.30272a6.70208 6.70208 0 0 1-3.79392 1.18272m134.8864 23.4496c-2.07872 0-4.12672-0.98304-5.4272-2.80064a93.14816 93.14816 0 0 0-7.74656-9.46688 6.6304 6.6304 0 0 1 0.29696-9.40032 6.6304 6.6304 0 0 1 9.40032 0.3072 102.4256 102.4256 0 0 1 8.89344 10.83392 6.66112 6.66112 0 0 1-5.41696 10.5216m-165.1712 10.60864a6.66112 6.66112 0 0 1-5.87776-9.78944c2.2016-4.11136 4.70016-8.1152 7.44448-11.89888a6.656 6.656 0 0 1 10.78784 7.80288 89.09312 89.09312 0 0 0-6.4768 10.35776c-1.19296 2.2528-3.49184 3.5328-5.87264 3.5328m182.17984 31.66208c-3.2512 0-6.0928-2.37568-6.57408-5.69344a88.28416 88.28416 0 0 0-2.57536-11.96032c-1.01376-3.52256 1.024-7.2192 4.5568-8.22784 3.50208-1.05472 7.2192 1.024 8.23296 4.5568 1.30048 4.5056 2.28864 9.11872 2.96448 13.70624a6.67648 6.67648 0 0 1-6.6048 7.61856m-193.65888 12.45696h-0.13312a6.66624 6.66624 0 0 1-6.528-6.78912c0.09728-4.68992 0.49664-9.38496 1.19808-13.96224 0.54784-3.63008 4.05504-6.16448 7.5776-5.5808a6.656 6.656 0 0 1 5.5808 7.58272 92.27776 92.27776 0 0 0-1.03936 12.22144 6.66112 6.66112 0 0 1-6.656 6.528m191.24224 33.28a6.656 6.656 0 0 1-6.63552-7.38304l1.7408-13.56288c0.69632-3.61472 4.096-5.98016 7.79264-5.28896a6.656 6.656 0 0 1 5.29408 7.78752l-0.52224 2.54976-1.0752 9.96864a6.65088 6.65088 0 0 1-6.59456 5.92896m-186.3936 12.43136a6.656 6.656 0 0 1-6.6048-5.92896l-1.44384-13.06624a6.656 6.656 0 0 1 5.888-7.3472 6.69696 6.69696 0 0 1 7.3472 5.89312l1.44384 13.06112a6.66624 6.66624 0 0 1-6.6304 7.38816m181.33504 33.32096a6.656 6.656 0 0 1-6.6304-7.38816l1.44384-13.07648c0.39936-3.66592 3.78368-6.3744 7.3472-5.888a6.656 6.656 0 0 1 5.888 7.3472l-1.44384 13.07648a6.66112 6.66112 0 0 1-6.6048 5.92896m-176.29696 12.42624a6.656 6.656 0 0 1-6.6048-5.92896l-1.43872-13.07648a6.66112 6.66112 0 0 1 5.888-7.3472c3.49696-0.42496 6.94272 2.23744 7.3472 5.888l1.44384 13.0816a6.66112 6.66112 0 0 1-6.63552 7.38304m171.25376 33.31072a6.656 6.656 0 0 1-6.6304-7.38304l1.44384-13.06624c0.39936-3.67104 3.73248-6.23104 7.3472-5.888a6.656 6.656 0 0 1 5.888 7.34208l-1.44384 13.06624a6.66624 6.66624 0 0 1-6.6048 5.92896m-166.20544 12.42624a6.656 6.656 0 0 1-6.6048-5.92384l-1.44384-13.06624a6.66624 6.66624 0 0 1 5.888-7.35232c3.55328-0.47616 6.94272 2.2272 7.3472 5.89312l1.44384 13.07136a6.66112 6.66112 0 0 1-6.6304 7.37792m161.15712 33.3312a6.66624 6.66624 0 0 1-6.6304-7.38816l1.44896-13.06624a6.66112 6.66112 0 0 1 13.2352 1.45408l-1.44896 13.06624a6.656 6.656 0 0 1-6.6048 5.92896m-156.11392 12.42624a6.66624 6.66624 0 0 1-6.6048-5.92896l-1.43872-13.06624a6.656 6.656 0 0 1 5.888-7.34208 6.72768 6.72768 0 0 1 7.3472 5.888l1.4336 13.06624a6.656 6.656 0 0 1-6.62528 7.38304m151.06048 33.32096a6.656 6.656 0 0 1-6.6304-7.38304l1.4336-13.0816a6.61504 6.61504 0 0 1 7.35744-5.888 6.656 6.656 0 0 1 5.88288 7.34208l-1.43872 13.0816a6.66624 6.66624 0 0 1-6.6048 5.92896m-146.00192 12.43136a6.66112 6.66112 0 0 1-6.6048-5.92896l-1.44384-13.0816a6.66112 6.66112 0 0 1 5.888-7.34208 6.68672 6.68672 0 0 1 7.3472 5.888l1.44384 13.0816a6.656 6.656 0 0 1-6.6304 7.38304m140.9536 33.3056a6.656 6.656 0 0 1-6.6304-7.38304l1.44896-13.06624c0.39936-3.66592 3.75296-6.3488 7.3472-5.888a6.67136 6.67136 0 0 1 5.888 7.34208l-1.44384 13.07136a6.66624 6.66624 0 0 1-6.6048 5.92384M444.2624 757.4016a6.656 6.656 0 0 1-6.6048-5.93408l-1.44896-13.056a6.66112 6.66112 0 0 1 5.888-7.35232 6.7328 6.7328 0 0 1 7.3472 5.888l1.44896 13.06624a6.66624 6.66624 0 0 1-6.6304 7.38816m34.0736 19.36896h-13.1584c-3.6864 0-6.656-2.9696-6.656-6.656 0-3.68128 2.9696-6.656 6.656-6.656h13.1584c3.68128 0 6.656 2.97472 6.656 6.656 0 3.6864-2.97472 6.656-6.656 6.656m46.01856 0h-13.1584c-3.67616 0-6.656-2.9696-6.656-6.656 0-3.68128 2.97984-6.656 6.656-6.656h13.1584a6.656 6.656 0 1 1 0 13.312m37.69344 0h-4.82304a6.656 6.656 0 1 1 0-13.312h4.82304c1.67936 0 3.26144-0.4096 4.72064-1.2288a6.68672 6.68672 0 0 1 9.0624 2.56c1.792 3.19488 0.65024 7.24992-2.56512 9.0624a22.9888 22.9888 0 0 1-11.21792 2.9184" fill="#E52C3E" p-id="28124"></path></svg>