<?xml version="1.0" encoding="UTF-8"?>
<svg width="28px" height="28px" viewBox="0 0 28 28" version="1.1" xmlns="http://www.w3.org/2000/svg" xmlns:xlink="http://www.w3.org/1999/xlink">
    <defs>
        <linearGradient x1="0%" y1="16.9921875%" x2="100%" y2="83.0078125%" id="linearGradient-1">
            <stop stop-color="#2B6DE5" stop-opacity="0.9" offset="0%"></stop>
            <stop stop-color="#2B6DE5" offset="100%"></stop>
        </linearGradient>
        <linearGradient x1="0%" y1="0%" x2="50%" y2="50%" id="linearGradient-2">
            <stop stop-color="#FFFFFF" stop-opacity="0.15" offset="0%"></stop>
            <stop stop-color="#2B6DE5" stop-opacity="0.25" offset="100%"></stop>
        </linearGradient>
        <path d="M17,6 C22.5228475,6 27,10.4771525 27,16 C27,21.5228475 22.5228475,26 17,26 C11.4771525,26 7,21.5228475 7,16 C7,10.4771525 11.4771525,6 17,6 Z" id="path-3"></path>
        <filter x="-5.0%" y="-5.0%" width="110.0%" height="110.0%" filterUnits="objectBoundingBox" id="filter-4">
            <feGaussianBlur stdDeviation="0.5" in="SourceAlpha" result="shadowBlurInner1"></feGaussianBlur>
            <feOffset dx="1" dy="1" in="shadowBlurInner1" result="shadowOffsetInner1"></feOffset>
            <feComposite in="shadowOffsetInner1" in2="SourceAlpha" operator="arithmetic" k2="-1" k3="1" result="shadowInnerInner1"></feComposite>
            <feColorMatrix values="0 0 0 0 1   0 0 0 0 1   0 0 0 0 1  0 0 0 0.15 0" type="matrix" in="shadowInnerInner1"></feColorMatrix>
        </filter>
    </defs>
    <g stroke="none" stroke-width="1" fill="none" fill-rule="evenodd">
        <path d="M18,9.54069828 L18,15 C18,15.5522847 17.5522847,16 17,16 L16,16 C15.4871642,16 15.0644928,15.6139598 15.0067277,15.1166211 L15,15 L5,15 C5,15.5522847 4.55228475,16 4,16 L3,16 C2.44771525,16 2,15.5522847 2,15 L2,9.54069828 C2,9.18658901 2.0940168,8.83882835 2.2724422,8.53295623 L4.92118286,3.99225795 C5.27960352,3.37782254 5.93740654,3 6.64874066,3 L13.3512593,3 C14.0625935,3 14.7203965,3.37782254 15.0788171,3.99225795 L17.7275578,8.53295623 C17.9059832,8.83882835 18,9.18658901 18,9.54069828 Z" id="路径" fill="url(#linearGradient-1)"></path>
        <g>
            <use fill="url(#linearGradient-2)" fill-rule="evenodd" xlink:href="#path-3"></use>
            <use fill="black" fill-opacity="1" filter="url(#filter-4)" xlink:href="#path-3"></use>
        </g>
        <path d="M18.8169873,12.3528857 L19.6830127,12.8528857 C19.922159,12.9909569 20.0040966,13.2967521 19.8660254,13.5358984 L16.6602532,19.0884586 C16.6209073,19.1566078 16.5660316,19.2145079 16.5000892,19.2574499 L15.5748889,19.8599436 C15.3434865,20.0106337 15.0337393,19.9452035 14.8830491,19.713801 C14.8251938,19.6249573 14.7970767,19.5200228 14.802759,19.4141542 L14.8619338,18.3116604 C14.8661514,18.2330816 14.8888565,18.1566078 14.9282024,18.0884586 L18.1339746,12.5358984 C18.2720458,12.2967521 18.577841,12.2148145 18.8169873,12.3528857 Z" id="矩形" fill="#FFFFFF" fill-rule="nonzero"></path>
    </g>
</svg>
