<?xml version="1.0" standalone="no"?><!DOCTYPE svg PUBLIC "-//W3C//DTD SVG 1.1//EN" "http://www.w3.org/Graphics/SVG/1.1/DTD/svg11.dtd"><svg t="1658234189792" class="icon" viewBox="0 0 1024 1024" version="1.1" xmlns="http://www.w3.org/2000/svg" p-id="24906" xmlns:xlink="http://www.w3.org/1999/xlink" width="200" height="200"><defs><style type="text/css">@font-face { font-family: feedback-iconfont; src: url("//at.alicdn.com/t/font_1031158_u69w8yhxdu.woff2?t=1630033759944") format("woff2"), url("//at.alicdn.com/t/font_1031158_u69w8yhxdu.woff?t=1630033759944") format("woff"), url("//at.alicdn.com/t/font_1031158_u69w8yhxdu.ttf?t=1630033759944") format("truetype"); }
</style></defs><path d="M440.94464 645.28896a49.78688 49.78688 0 1 0 38.10816-92.0064 49.792 49.792 0 1 0-38.10816 92.00128M509.80864 449.98144a24.8832 24.8832 0 0 0-24.86784 24.86272 24.84736 24.84736 0 0 0 24.86784 24.86784 24.84736 24.84736 0 0 0 24.8576-24.86784 24.8832 24.8832 0 0 0-24.8576-24.86272" fill="#2B6DE5" p-id="24907"></path><path d="M649.30816 625.73568c-24.68864-5.14048-50.2528 2.62656-68.06016 20.48512a74.68544 74.68544 0 0 0-20.0192 68.1728 147.5584 147.5584 0 0 1-158.3616-36.7104c-57.9584-60.24192-56.4992-153.5744 3.74272-232.192 0 0 77.62944-102.272 102.26176-132.67968v-0.23552c30.35136 37.0688 104.48384 133.20704 104.48384 133.20704 38.05184 49.55136 57.43616 119.88992 35.95264 179.95264m43.5456 26.78784c32.16384-75.58656 14.8224-166.99392-39.6288-237.1584-38.81984-49.73056-89.07776-114.99008-121.94304-153.8048A29.16352 29.16352 0 0 0 509.39392 250.88l-0.52224 0.23552c-8.576 0-16.6912 3.85024-22.1184 10.4448-33.3312 39.5776-82.36544 105.07264-119.42912 153.8048-72.20736 94.5664-78.62272 215.2704 0 296.87296a197.25824 197.25824 0 0 0 220.81536 45.29152c29.76768 23.46496 72.37632 20.89984 99.10784-5.888 26.73664-26.79808 29.1328-69.40672 5.6064-99.11808" fill="#2B6DE5" p-id="24908"></path><path d="M584.46336 549.504a24.8832 24.8832 0 0 0-24.86784 24.86272 24.85248 24.85248 0 0 0 24.86784 24.87296 24.84736 24.84736 0 0 0 24.8576-24.87296 24.84224 24.84224 0 0 0-24.8576-24.86272" fill="#2B6DE5" p-id="24909"></path><path d="M760.10496 411.99104a5.58592 5.58592 0 0 1-0.17408-11.16672 506.3936 506.3936 0 0 1 11.35104-0.24064h0.0512a5.59104 5.59104 0 0 1 0.05632 11.16672c-3.66592 0.03584-7.35744 0.12288-11.11552 0.24064h-0.16896z m50.54464 0.49152c-0.09216 0-0.2048 0-0.31232-0.01024a494.10048 494.10048 0 0 0-11.11552-0.49152 5.59104 5.59104 0 0 1-5.38624-5.78048c0.10752-3.072 2.62656-5.05856 5.78048-5.39136 3.85024 0.13824 7.63392 0.31232 11.35104 0.51712a5.5808 5.5808 0 0 1-0.31744 11.1616z m39.08608 4.18816c-0.3072 0-0.61952-0.0256-0.92672-0.0768a316.288 316.288 0 0 0-10.92608-1.62304 5.59104 5.59104 0 0 1 1.46432-11.07968c3.87584 0.512 7.6544 1.0752 11.29472 1.6896a5.5808 5.5808 0 0 1-0.90624 11.08992z m37.8368 10.32704c-0.73216 0-1.46432-0.14336-2.17088-0.4352-3.14368-1.3312-6.5024-2.56-10.06592-3.70688a5.59616 5.59616 0 0 1-3.62496-7.02464 5.61152 5.61152 0 0 1 7.02464-3.61984c3.9168 1.2544 7.5776 2.61632 11.00288 4.05504a5.5808 5.5808 0 0 1-2.16576 10.73152z m29.32224 24.6784a5.5808 5.5808 0 0 1-5.12512-3.3536 29.29152 29.29152 0 0 0-5.12512-7.84896 5.5808 5.5808 0 0 1 0.42496-7.8848 5.57056 5.57056 0 0 1 7.8848 0.42496 40.4224 40.4224 0 0 1 7.0656 10.85952 5.6064 5.6064 0 0 1-2.89792 7.3472c-0.72192 0.3072-1.4848 0.4608-2.2272 0.4608z m-5.74976 37.19168a5.59616 5.59616 0 0 1-4.75648-8.51456c1.92-3.10272 3.4816-6.1696 4.64896-9.088 1.13664-2.8672 4.38272-4.21888 7.25504-3.1232 2.8672 1.13664 4.26496 4.38784 3.12832 7.2448-1.408 3.5328-3.27168 7.18848-5.51936 10.8288a5.59104 5.59104 0 0 1-4.75648 2.65216z m-25.89184 29.42464a5.5808 5.5808 0 0 1-3.712-9.7536 184.37632 184.37632 0 0 0 7.95648-7.49056 5.5808 5.5808 0 1 1 7.89504 7.90016 206.5408 206.5408 0 0 1-8.41728 7.92064 5.58592 5.58592 0 0 1-3.72224 1.42336z m-631.08608 20.7104a5.58592 5.58592 0 0 1-2.40128-10.62912c3.36896-1.59744 6.77888-3.20512 10.24-4.79232a5.5808 5.5808 0 1 1 4.66432 10.1376c-3.40992 1.57184-6.77888 3.15392-10.112 4.736a5.5296 5.5296 0 0 1-2.39104 0.54784z m600.00768 3.3024a5.5808 5.5808 0 0 1-3.15904-10.18368 421.4784 421.4784 0 0 0 9.05728-6.39488 5.58592 5.58592 0 0 1 6.56896 9.03168c-3.00032 2.18112-6.09792 4.36224-9.30304 6.56384-0.96768 0.6656-2.0736 0.98304-3.16416 0.98304z m-635.13088 14.3616c-1.98144 0-3.91168-1.06496-4.9152-2.944a5.56544 5.56544 0 0 1 2.2784-7.55712c3.29216-1.77152 6.64064-3.52256 10.04544-5.2736a5.632 5.632 0 0 1 7.52128 2.41152 5.59104 5.59104 0 0 1-2.41664 7.5264c-3.36384 1.7152-6.64064 3.45088-9.87136 5.1712-0.83968 0.4608-1.74592 0.6656-2.64192 0.6656z m601.7792 6.48704c-1.92 0-3.80416-1.00352-4.82816-2.7904a5.56544 5.56544 0 0 1 2.03776-7.62368c3.27168-1.8944 6.4768-3.77344 9.59488-5.6576a5.62176 5.62176 0 0 1 7.67488 1.90976 5.60128 5.60128 0 0 1-1.91488 7.66464c-3.18464 1.90976-6.43072 3.82976-9.76896 5.74976-0.88576 0.512-1.8432 0.74752-2.79552 0.74752z m-635.8784 13.08672a5.58592 5.58592 0 0 1-2.944-10.32704c3.15904-1.96096 6.4-3.92192 9.71264-5.888a5.59616 5.59616 0 0 1 5.69856 9.62048c-3.2512 1.92-6.4256 3.84-9.5232 5.75488a5.54496 5.54496 0 0 1-2.944 0.83968z m601.25696 5.5808c-2.03264 0-3.9936-1.11616-4.97664-3.06176a5.56544 5.56544 0 0 1 2.44736-7.5008c3.36896-1.72032 6.67136-3.42528 9.9328-5.12a5.58592 5.58592 0 0 1 5.1712 9.90208c-3.28704 1.72032-6.6304 3.44064-10.04544 5.1712a5.5296 5.5296 0 0 1-2.52928 0.60416z m-633.75872 16.5376a5.58592 5.58592 0 0 1-3.36896-10.0352 395.65312 395.65312 0 0 1 9.19552-6.73792 5.5808 5.5808 0 1 1 6.4768 9.09312c-3.08736 2.2016-6.06208 4.3776-8.92928 6.5536a5.58592 5.58592 0 0 1-3.37408 1.1264z m598.272 0.4096c-2.12992 0-4.15744-1.2288-5.0944-3.28704a5.60128 5.60128 0 0 1 2.7904-7.39328c3.43552-1.55136 6.81984-3.0976 10.15296-4.6592a5.57056 5.57056 0 0 1 7.424 2.69824 5.5808 5.5808 0 0 1-2.688 7.424c-3.38432 1.5872-6.80448 3.1488-10.28608 4.72064a5.5808 5.5808 0 0 1-2.29888 0.49152z m-36.11136 15.56992a5.5808 5.5808 0 0 1-2.12992-10.74176l10.3424-4.31104a5.61664 5.61664 0 0 1 7.31136 2.99008 5.59104 5.59104 0 0 1-2.99008 7.30624l-10.40896 4.33152a5.44768 5.44768 0 0 1-2.1248 0.42496zM123.07456 624.4352a5.58592 5.58592 0 0 1-4.11136-9.3696 185.94304 185.94304 0 0 1 8.14592-8.25344 5.59104 5.59104 0 0 1 7.70048 8.09472 170.6496 170.6496 0 0 0-7.62368 7.7312 5.60128 5.60128 0 0 1-4.11136 1.79712z m554.89536 4.25472a5.59104 5.59104 0 0 1-1.95072-10.81856l10.4704-3.95776a5.5808 5.5808 0 1 1 3.98848 10.42432l-10.55232 4.00384a5.5552 5.5552 0 0 1-1.95584 0.34816z m-37.02272 13.27104a5.57568 5.57568 0 0 1-1.81248-10.8544l10.57792-3.68128c2.9696-1.03936 6.09792 0.512 7.12192 3.40992 1.024 2.9184-0.512 6.10304-3.40992 7.12704l-10.67008 3.69152a5.5808 5.5808 0 0 1-1.80736 0.3072z m-37.376 12.24704a5.58592 5.58592 0 0 1-1.664-10.91584l10.66496-3.3792a5.56544 5.56544 0 0 1 7.02464 3.59936 5.57568 5.57568 0 0 1-3.59936 7.01952l-10.75712 3.4304a5.52448 5.52448 0 0 1-1.66912 0.24576z m-500.70016 3.456a5.59616 5.59616 0 0 1-5.43744-6.90176c0.9216-3.75296 2.37056-7.66464 4.31104-11.63776a5.64224 5.64224 0 0 1 7.48032-2.54976c2.75968 1.36192 3.90656 4.7104 2.55488 7.48032a45.50656 45.50656 0 0 0-3.4816 9.344 5.60128 5.60128 0 0 1-5.4272 4.26496z m463.02208 7.8336a5.5808 5.5808 0 0 1-1.536-10.95168l10.76224-3.11808a5.56032 5.56032 0 0 1 6.92736 3.7888 5.57056 5.57056 0 0 1-3.7888 6.91712l-10.8288 3.14368c-0.50688 0.1536-1.03424 0.22016-1.536 0.22016z m-37.92896 10.35776a5.59104 5.59104 0 0 1-1.408-10.99264l10.8288-2.85696a5.62176 5.62176 0 0 1 6.84032 3.95776 5.59104 5.59104 0 0 1-3.96288 6.8352l-10.89024 2.88256a5.85728 5.85728 0 0 1-1.408 0.17408z m-38.1696 9.4464a5.58592 5.58592 0 0 1-1.29024-11.01824l10.9056-2.60096a5.632 5.632 0 0 1 6.73792 4.11648 5.59104 5.59104 0 0 1-4.11648 6.74304l-10.95168 2.6112c-0.4352 0.1024-0.86016 0.1536-1.28512 0.1536z m-374.56896 7.2192c-1.2544 0-2.51904-0.4096-3.55328-1.27488a47.49824 47.49824 0 0 1-8.67328-9.23136 5.57568 5.57568 0 0 1 1.34144-7.77216 5.5552 5.5552 0 0 1 7.77216 1.34144c1.74592 2.46272 3.98336 4.83328 6.66624 7.04512a5.59104 5.59104 0 0 1-3.55328 9.89184z m336.15872 1.2288c-2.5856 0-4.92032-1.8176-5.4528-4.4544a5.56032 5.56032 0 0 1 4.33664-6.58944l10.95168-2.31424a5.6832 5.6832 0 0 1 6.6304 4.3008 5.5808 5.5808 0 0 1-4.29568 6.6304l-11.03872 2.30912a4.99712 4.99712 0 0 1-1.13152 0.11776z m-38.60992 7.4752a5.5808 5.5808 0 0 1-0.96768-11.0848l11.00288-1.9968a5.5296 5.5296 0 0 1 6.51264 4.4544 5.5808 5.5808 0 0 1-4.46464 6.50752l-11.08992 2.03264c-0.32768 0.0512-0.66048 0.08192-0.99328 0.08192z m-38.8096 6.33856a5.5808 5.5808 0 0 1-0.79872-11.1104c3.65568-0.53248 7.33696-1.09568 11.04896-1.6896 2.944-0.4096 5.90848 1.59744 6.38976 4.64896a5.59616 5.59616 0 0 1-4.64384 6.4c-3.75296 0.57856-7.48032 1.14688-11.18208 1.69472a7.24992 7.24992 0 0 1-0.81408 0.05632z m-223.37536 1.44896a5.9392 5.9392 0 0 1-1.47968-0.19456 161.9456 161.9456 0 0 1-11.10528-3.49184 5.59104 5.59104 0 0 1 3.75296-10.51648 139.7248 139.7248 0 0 0 10.3168 3.23072c2.96448 0.8192 4.72064 3.8912 3.90656 6.87104a5.6064 5.6064 0 0 1-5.39136 4.10112z m184.38656 3.67104a5.5808 5.5808 0 0 1-0.60928-11.13088 853.0432 853.0432 0 0 0 11.07968-1.32096 5.57568 5.57568 0 0 1 6.23104 4.8384 5.5808 5.5808 0 0 1-4.8384 6.2464c-3.78368 0.46592-7.5264 0.9216-11.23328 1.33632-0.2048 0.0256-0.42496 0.03072-0.62976 0.03072z m-145.71008 3.328c-0.20992 0-0.40448-0.01024-0.6144-0.03072a336.27136 336.27136 0 0 1-11.35104-1.42848 5.6064 5.6064 0 0 1-4.736-6.32832c0.44032-3.06176 3.43552-5.11488 6.3232-4.73088 3.5584 0.512 7.20384 0.97792 10.96192 1.3824a5.5808 5.5808 0 1 1-0.58368 11.136z m106.56768 0.3584a5.59104 5.59104 0 0 1-5.56544-5.1712 5.59616 5.59616 0 0 1 5.16096-5.98016c3.67616-0.26624 7.38816-0.5632 11.136-0.88576a5.6064 5.6064 0 0 1 6.0416 5.07904 5.58592 5.58592 0 0 1-5.08416 6.04672c-3.79392 0.32256-7.54176 0.61952-11.264 0.90112-0.13824 0.01024-0.2816 0.01024-0.42496 0.01024z m-39.24992 1.97632a5.59104 5.59104 0 0 1-0.1536-11.17184c3.66592-0.09216 7.38304-0.21504 11.14624-0.36864 3.29216 0.11776 5.6832 2.2784 5.8112 5.35552a5.6064 5.6064 0 0 1-5.3504 5.81632c-3.82976 0.1536-7.59296 0.26624-11.29984 0.36864h-0.1536z m-28.10368 0.0768h-0.10752a563.5584 563.5584 0 0 1-11.3408-0.34304 5.58592 5.58592 0 0 1-5.36576-5.80096c0.128-3.072 2.43712-5.07904 5.80096-5.36064 3.64544 0.13824 7.33696 0.256 11.12064 0.33792a5.59104 5.59104 0 0 1-0.10752 11.16672zM726.4512 413.75744a5.59104 5.59104 0 0 1-0.41472-11.1616l5.64224-0.384c2.72384-0.27648 5.7344 2.1248 5.9392 5.21216 0.19456 3.072-2.13504 5.7344-5.2224 5.93408l-5.50912 0.38912c-0.14336 0.01024-0.29696 0.01024-0.4352 0.01024" fill="#E52C3E" p-id="24910"></path></svg>