<?xml version="1.0" standalone="no"?><!DOCTYPE svg PUBLIC "-//W3C//DTD SVG 1.1//EN" "http://www.w3.org/Graphics/SVG/1.1/DTD/svg11.dtd"><svg t="1658235791334" class="icon" viewBox="0 0 1024 1024" version="1.1" xmlns="http://www.w3.org/2000/svg" p-id="28561" xmlns:xlink="http://www.w3.org/1999/xlink" width="200" height="200"><defs><style type="text/css">@font-face { font-family: feedback-iconfont; src: url("//at.alicdn.com/t/font_1031158_u69w8yhxdu.woff2?t=1630033759944") format("woff2"), url("//at.alicdn.com/t/font_1031158_u69w8yhxdu.woff?t=1630033759944") format("woff"), url("//at.alicdn.com/t/font_1031158_u69w8yhxdu.ttf?t=1630033759944") format("truetype"); }
</style></defs><path d="M787.7376 635.51488h27.74528c3.0464 0 5.5296 2.4832 5.5296 5.5808v41.58976a5.5808 5.5808 0 0 1-5.5808 5.5296h-27.6992c-92.4672 37.0176-184.92416 55.48544-277.38624 55.48544-92.4672 0-184.92416-18.5088-277.39136-55.48544h-27.7504a5.5808 5.5808 0 0 1-5.5296-5.5808v-41.58976c0-3.0464 2.49344-5.58592 5.5808-5.58592h27.6992V369.1776l0.65536-0.1536-27.84256-27.89376a5.5808 5.5808 0 0 1 0-7.808l29.41952-29.42464a5.5808 5.5808 0 0 1 7.8592 0l47.07328 47.02208 213.4784-68.27008a22.3232 22.3232 0 0 1 13.49632 0L730.624 350.91968l47.01184-47.02208a5.59104 5.59104 0 0 1 7.86432 0l29.41952 29.42464a5.5808 5.5808 0 0 1 0 7.8592l-27.904 27.84256 0.7168 0.2048v266.28608z" fill="#2B6DE5" p-id="28562"></path><path d="M290.11456 350.91968l-47.06816-47.02208a5.5808 5.5808 0 0 0-7.86432 0L205.76768 333.312a5.5808 5.5808 0 0 0 0 7.808l27.84768 27.89888-0.66048 0.1536v266.28608H205.2608c-3.09248 0-5.5808 2.5344-5.5808 5.5808v41.58976a5.5808 5.5808 0 0 0 5.5296 5.5808h27.74528c92.46208 36.97664 184.92416 55.48544 277.38624 55.48544L510.34624 281.6c-2.2784 0-4.55168 0.34304-6.74816 1.04448L290.11456 350.91968z" fill="#02134D" fill-opacity=".3" p-id="28563"></path><path d="M867.96288 650.09664c0 51.69664-41.91232 93.59872-93.60384 93.59872-51.69664 0-93.59872-41.90208-93.59872-93.5936 0-51.70176 41.90208-93.60896 93.5936-93.60896 51.69664 0 93.60896 41.9072 93.60896 93.60384" fill="#E52C3E" p-id="28564"></path><path d="M711.68 640m10.24 0l102.4 0q10.24 0 10.24 10.24l0 0q0 10.24-10.24 10.24l-102.4 0q-10.24 0-10.24-10.24l0 0q0-10.24 10.24-10.24Z" fill="#FFFFFF" p-id="28565"></path></svg>