<?xml version="1.0" standalone="no"?><!DOCTYPE svg PUBLIC "-//W3C//DTD SVG 1.1//EN" "http://www.w3.org/Graphics/SVG/1.1/DTD/svg11.dtd"><svg t="1706282496681" class="icon" viewBox="0 0 1024 1024" version="1.1" xmlns="http://www.w3.org/2000/svg" p-id="2695" xmlns:xlink="http://www.w3.org/1999/xlink" width="200" height="200"><path d="M515.328 144.128l442.56 174.72a8 8 0 0 1-0.128 14.912L793.92 395.2l0.064 381.76a36.032 36.032 0 0 1-9.6 24.448l-4.992 4.48c-84.48 62.4-180.416 94.08-267.2 94.08-85.888 0-181.12-31.04-264.96-92.16l-2.56-1.92a35.968 35.968 0 0 1-14.72-28.928V394.88l-39.04-14.72 0.064 235.84a32 32 0 0 1-64 0V356.16l-59.904-22.4a8 8 0 0 1-0.128-14.912l442.496-174.72a8 8 0 0 1 5.888 0zM302.08 421.888V758.4l0.64 0.448c66.944 45.888 142.656 68.672 207.424 69.12h2.112c65.472 0 141.696-22.72 209.152-69.12l0.64-0.448v-336l-206.592 77.568a8 8 0 0 1-5.632 0l-207.808-78.08z m210.368-201.472l-264.384 104.32 264.576 99.392 264.256-99.2L512.384 220.48z" p-id="2696"></path></svg>