<?xml version="1.0" standalone="no"?><!DOCTYPE svg PUBLIC "-//W3C//DTD SVG 1.1//EN" "http://www.w3.org/Graphics/SVG/1.1/DTD/svg11.dtd"><svg t="1678011312084" class="icon" viewBox="0 0 1024 1024" version="1.1" xmlns="http://www.w3.org/2000/svg" p-id="3638" xmlns:xlink="http://www.w3.org/1999/xlink" width="200" height="200"><path d="M512 64a448 448 0 1 1 0 896 448 448 0 0 1 0-896z m0 76.032a371.968 371.968 0 1 0 0 743.936 371.968 371.968 0 0 0 0-743.936z m-2.304 362.944H512c77.888 0 151.808 16.64 221.696 49.728 13.44 6.4 22.144 19.904 22.272 34.816v110.464H268.032V587.968a39.04 39.04 0 0 1 22.336-35.2 511.104 511.104 0 0 1 217.088-49.792h2.304zM332.416 603.84l-0.448 0.192v29.952h360V604.16l-0.448-0.256a446.656 446.656 0 0 0-177.472-36.864h-2.304a447.168 447.168 0 0 0-179.264 36.864zM512 248a104.96 104.96 0 0 1 90.88 52.736c18.816 32.64 18.816 72.896 0 105.536a104.96 104.96 0 0 1-89.728 52.736H512c-57.984 0-104.96-47.232-104.96-105.536 0-57.6 46.08-104.512 103.232-105.472H512z m0 64c-22.592 0-40.96 18.56-40.96 41.472 0 23.04 18.368 41.536 40.96 41.536a40.96 40.96 0 0 0 35.456-20.672 41.92 41.92 0 0 0 0-41.728A40.96 40.96 0 0 0 512 312z" p-id="3639"></path></svg>