<?xml version="1.0" standalone="no"?><!DOCTYPE svg PUBLIC "-//W3C//DTD SVG 1.1//EN" "http://www.w3.org/Graphics/SVG/1.1/DTD/svg11.dtd"><svg t="1719473745358" class="icon" viewBox="0 0 1024 1024" version="1.1" xmlns="http://www.w3.org/2000/svg" p-id="1101" xmlns:xlink="http://www.w3.org/1999/xlink" width="200" height="200"><path d="M762 96c59.647 0 108 48.353 108 108s-48.353 108-108 108c-6.827 0-13.507-0.634-19.983-1.845l-75.183 130.223C677.792 460.996 684 484.523 684 509.5c0 29.942-8.922 57.801-24.252 81.062l71.905 124.547c6.9-1.383 14.04-2.109 21.347-2.109 59.647 0 108 48.353 108 108s-48.353 108-108 108-108-48.353-108-108c0-26.204 9.332-50.228 24.854-68.93l-64.666-112.006C584.674 650.88 561.302 657 536.5 657c-61.674 0-114.507-37.852-136.536-91.592H273.71C258.769 607.14 218.87 637 172 637c-59.647 0-108-48.353-108-108s48.353-108 108-108c47.176 0 87.287 30.247 101.997 72.406l115.871-0.001C397.887 419.515 460.477 362 536.5 362c29.13 0 56.287 8.444 79.158 23.018l64.095-111.02C663.693 255.149 654 230.707 654 204c0-59.647 48.353-108 108-108zM263.972 693.934l1.002 1.473c7.784 11.427 14.086 20.105 18.908 26.036C345.671 797.443 439.915 846 545.5 846l0.942-0.003c4.812-0.027 11.196-0.26 19.152-0.696a11.999 11.999 0 0 1 11.972 7.99l16.473 46.691c2.206 6.25-1.072 13.104-7.322 15.31-0.96 0.339-1.959 0.554-2.973 0.641l-3.813 0.318C565.565 917.417 554.088 918 545.5 918c-126.57 0-239.71-57.492-314.733-147.786l-0.793-0.961c-8.792-10.725-19.904-26.606-33.334-47.644-3.566-5.586-1.928-13.005 3.658-16.57a11.996 11.996 0 0 1 2.944-1.36l47.29-14.48a11.998 11.998 0 0 1 13.44 4.735zM753 785c-19.882 0-36 16.118-36 36s16.118 36 36 36 36-16.118 36-36-16.118-36-36-36z m157.123-460.178c0.657 0.766 1.215 1.61 1.66 2.516l1.532 3.122c4.856 9.953 8.551 18.038 11.084 24.253 19.407 47.61 30.101 99.7 30.101 154.287 0 56.884-11.613 111.056-32.597 160.274l-0.43 1c-3.441 7.946-8.592 18.424-15.451 31.435-3.094 5.86-10.353 8.106-16.215 5.013-0.89-0.47-1.719-1.05-2.464-1.728l-36.728-33.317a11.995 11.995 0 0 1-2.758-14.075l1.038-2.172c4.641-9.742 8.058-17.38 10.25-22.912l0.157-0.4C874.277 593.98 882.5 552.45 882.5 509c0-37.49-6.122-73.552-17.421-107.238l-0.45-1.322c-2.548-7.369-6.66-17.56-12.336-30.574a11.997 11.997 0 0 1 3.175-13.894l37.733-32.43c5.027-4.32 12.603-3.747 16.922 1.28zM537 437c-39.765 0-72 32.235-72 72s32.235 72 72 72 72-32.235 72-72-32.235-72-72-72z m-365 56c-19.882 0-36 16.118-36 36s16.118 36 36 36 36-16.118 36-36-16.118-36-36-36z m423.9-389.506c6.589 0.718 11.348 6.64 10.63 13.23a12.023 12.023 0 0 1-0.756 3.08L587.71 165.91a11.995 11.995 0 0 1-12.101 7.591l-2.536-0.193C561.418 172.436 552.227 172 545.5 172c-116.455 0-219.113 59.07-279.648 148.88l-0.57 0.852c-5.087 7.654-11.573 18.816-19.458 33.484a12 12 0 0 1-12.83 6.103l-48.694-9.351c-6.509-1.25-10.771-7.54-9.521-14.048 0.2-1.047 0.54-2.062 1.01-3.02l1.398-2.838c9.087-18.393 16.71-32.434 22.867-42.123C272.604 175.763 400.204 100 545.5 100c12.166 0 28.966 1.165 50.4 3.494zM762 168c-19.882 0-36 16.118-36 36s16.118 36 36 36 36-16.118 36-36-16.118-36-36-36z" p-id="1102"></path></svg>