<?xml version="1.0" standalone="no"?><!DOCTYPE svg PUBLIC "-//W3C//DTD SVG 1.1//EN" "http://www.w3.org/Graphics/SVG/1.1/DTD/svg11.dtd"><svg t="1658228533231" class="icon" viewBox="0 0 1024 1024" version="1.1" xmlns="http://www.w3.org/2000/svg" p-id="23003" xmlns:xlink="http://www.w3.org/1999/xlink" width="200" height="200"><defs><style type="text/css">@font-face { font-family: feedback-iconfont; src: url("//at.alicdn.com/t/font_1031158_u69w8yhxdu.woff2?t=1630033759944") format("woff2"), url("//at.alicdn.com/t/font_1031158_u69w8yhxdu.woff?t=1630033759944") format("woff"), url("//at.alicdn.com/t/font_1031158_u69w8yhxdu.ttf?t=1630033759944") format("truetype"); }
</style></defs><path d="M512.768 128c25.856 0 49.728 13.76 62.72 36.096l88.32 152 133.952 0.064A98.368 98.368 0 0 1 896 414.4v383.36c0 54.208-44.032 98.176-98.24 98.24h-571.52A98.368 98.368 0 0 1 128 797.76v-383.36A98.368 98.368 0 0 1 226.24 316.16l135.424-0.064 88.32-152c12.992-22.4 36.928-36.096 62.72-36.096z m284.992 241.728h-571.52a44.672 44.672 0 0 0-44.672 44.672v383.36c0 24.64 20.032 44.608 44.672 44.672h571.52a44.672 44.672 0 0 0 44.672-44.672v-383.36a44.672 44.672 0 0 0-44.672-44.672z m-60.288 296.192a26.816 26.816 0 0 1 0 53.568H322.24a26.816 26.816 0 1 1 0-53.568h415.232zM469.568 492.672a26.816 26.816 0 1 1 0 53.568H322.24a26.816 26.816 0 0 1 0-53.568h147.328z m43.2-311.04a19.072 19.072 0 0 0-16.448 9.344l-72.32 124.608h177.408L529.28 190.976a19.072 19.072 0 0 0-16.448-9.408z" p-id="23004"></path></svg>