<?xml version="1.0" standalone="no"?><!DOCTYPE svg PUBLIC "-//W3C//DTD SVG 1.1//EN" "http://www.w3.org/Graphics/SVG/1.1/DTD/svg11.dtd"><svg t="1658232139730" class="icon" viewBox="0 0 1024 1024" version="1.1" xmlns="http://www.w3.org/2000/svg" p-id="22720" xmlns:xlink="http://www.w3.org/1999/xlink" width="200" height="200"><defs><style type="text/css">@font-face { font-family: feedback-iconfont; src: url("//at.alicdn.com/t/font_1031158_u69w8yhxdu.woff2?t=1630033759944") format("woff2"), url("//at.alicdn.com/t/font_1031158_u69w8yhxdu.woff?t=1630033759944") format("woff"), url("//at.alicdn.com/t/font_1031158_u69w8yhxdu.ttf?t=1630033759944") format("truetype"); }
</style></defs><path d="M532.025 122.888a32 32 0 0 1 4.994 4.926c23.148 28.481 38.417 48.92 45.809 61.318l0.442 0.75 85.718 116.474 203.126 0.053c17.674 0.005 31.997 14.335 31.992 32.008 0 0.14 0 0.28-0.003 0.42-0.295 22.08-0.016 45.832 0.836 71.255l0.044 1.748 0.017 1.771v457.925c0 17.673-14.327 32-32 32h-0.218c-22.72-0.155-47.137-0.006-73.25 0.448l-1.772 0.016h-646.3c-17.674 0-32-14.327-32-32a32 32 0 0 1 0-0.227c0.16-22.705 0.013-47.104-0.443-73.195l-0.017-1.772V338.434c0.005-17.67 14.329-31.997 32-32.005l75.236-0.011 130.247-0.062 85.716-116.468c7.181-12.376 22.14-32.953 44.879-61.73 10.957-13.868 31.08-16.227 44.947-5.27z m301.407 255.067H190.568v454.508h642.864V377.955zM738 649.11a8 8 0 0 1 8 8v55.969a8 8 0 0 1-8 8H286a8 8 0 0 1-8-8v-55.97a8 8 0 0 1 8-8h452zM550 489.179a8 8 0 0 1 8 8v55.969a8 8 0 0 1-8 8H286a8 8 0 0 1-8-8v-55.97a8 8 0 0 1 8-8h264z m-37.253-268.253c-3.456-0.007-6.667 1.756-8.477 4.591l-0.166 0.27-64.475 80.054h146.169l-64.277-80.012a10.073 10.073 0 0 0-7.401-4.885l-0.138-0.016-1.235-0.002z" p-id="22721"></path></svg>