<?xml version="1.0" standalone="no"?><!DOCTYPE svg PUBLIC "-//W3C//DTD SVG 1.1//EN" "http://www.w3.org/Graphics/SVG/1.1/DTD/svg11.dtd"><svg t="1755849475148" class="icon" viewBox="0 0 1024 1024" version="1.1" xmlns="http://www.w3.org/2000/svg" p-id="1345" xmlns:xlink="http://www.w3.org/1999/xlink" width="256" height="256"><path d="M752 240a32 32 0 0 1 32 32v608a32 32 0 0 1-32 32H144a32 32 0 0 1-32-32V272a32 32 0 0 1 32-32h608z m-40 72H184v528h528V312z m168-200a32 32 0 0 1 32 32v616a8 8 0 0 1-8 8h-56a8 8 0 0 1-8-8V184H264a8 8 0 0 1-8-8v-56c0-4.416 3.584-8 8-8h616zM401.792 410.624c3.328 0 6.336 2.112 7.488 5.248L524.096 730.24a8 8 0 0 1-7.552 10.752h-50.048a8 8 0 0 1-7.68-5.44l-17.6-52.992H323.84l-18.112 52.992a8 8 0 0 1-7.552 5.44H248a8 8 0 0 1-7.488-10.752L354.88 415.872a8 8 0 0 1 7.488-5.248h39.424z m223.552 0c4.416 0 8 3.584 8 8v314.368a8 8 0 0 1-8 8h-48.64a8 8 0 0 1-7.936-8V418.624c0-4.416 3.584-8 8-8h48.576z m-241.6 97.536l-41.792 120.128h82.112l-40.32-120.128z" p-id="1346"></path></svg>