<?xml version="1.0" standalone="no"?><!DOCTYPE svg PUBLIC "-//W3C//DTD SVG 1.1//EN" "http://www.w3.org/Graphics/SVG/1.1/DTD/svg11.dtd"><svg t="1754304389816" class="icon" viewBox="0 0 1024 1024" version="1.1" xmlns="http://www.w3.org/2000/svg" p-id="1258" xmlns:xlink="http://www.w3.org/1999/xlink" width="256" height="256"><path d="M484.032 64a419.968 419.968 0 0 1 322.752 688.768L941.056 887.04c2.624 3.136 2.688 8.064 0.128 10.752l-43.2 43.2c-2.56 2.752-7.616 2.752-10.752 0.192l-0.192-0.128L752.768 806.72A419.968 419.968 0 1 1 483.968 64z m0 76.032a344 344 0 1 0 0 688 344 344 0 0 0 0-688z m-46.528 174.592c3.328 0 6.336 2.112 7.488 5.248L559.808 634.24a8 8 0 0 1-7.552 10.752h-50.048a8 8 0 0 1-7.616-5.44l-17.664-52.992H359.552l-18.112 52.992a8 8 0 0 1-7.552 5.44h-50.176a8 8 0 0 1-7.488-10.752l114.368-314.368a8 8 0 0 1 7.488-5.248h39.424z m223.552 0c4.416 0 8 3.584 8 8v314.368a8 8 0 0 1-8 8H612.48a8 8 0 0 1-8-8V322.624c0-4.416 3.584-8 8-8h48.512zM419.392 412.16l-41.728 120.128h82.112l-40.32-120.128z" p-id="1259"></path></svg>