<?xml version="1.0" standalone="no"?><!DOCTYPE svg PUBLIC "-//W3C//DTD SVG 1.1//EN" "http://www.w3.org/Graphics/SVG/1.1/DTD/svg11.dtd"><svg t="1747828141925" class="icon" viewBox="0 0 1024 1024" version="1.1" xmlns="http://www.w3.org/2000/svg" p-id="913" xmlns:xlink="http://www.w3.org/1999/xlink" width="200" height="200"><path d="M156.786 401c61.173 0.009 110.758 49.604 110.754 110.778-0.004 50.741-34.124 93.512-80.711 106.624 0.398-0.112 0.795-0.226 1.192-0.343l-0.001 80.99L512 886.099l323.979-187.05-0.001-20.049a8 8 0 0 1 7.75-7.996l0.25-0.004h48.001a8 8 0 0 1 8 8v38.525a32 32 0 0 1-16 27.713L528 950.762a32 32 0 0 1-32 0L140.02 745.238a32.001 32.001 0 0 1-16-27.713v-99.92l0.213 0.063-0.476-0.144C79.188 603.61 46.71 562.316 46.01 513.332l-0.01-1.586C46.013 450.573 95.612 400.991 156.786 401z m304.401-49c5.401 0 10.225 3.38 12.07 8.455l110.119 302.93A6.421 6.421 0 0 1 577.34 672h-32.83a12.843 12.843 0 0 1-12.135-8.637l-21.807-62.913H389.196l-21.603 62.88a12.843 12.843 0 0 1-12.146 8.67h-33.024a6.421 6.421 0 0 1-6.035-8.615l110.119-302.93a12.843 12.843 0 0 1 12.07-8.455h22.61z m201.643 0a6.421 6.421 0 0 1 6.42 6.421V665.58a6.421 6.421 0 0 1-6.42 6.421h-35.663a6.421 6.421 0 0 1-6.42-6.421V358.42a6.421 6.421 0 0 1 6.42-6.421h35.663zM528 73.238l355.98 205.524a32 32 0 0 1 16 27.713v99.28l-0.35-0.105c45.65 13.686 78.91 56.024 78.91 106.128 0 61.173-49.597 110.762-110.838 110.762-60.51-0.065-109.658-48.618-110.686-108.895l-0.016-1.899c0.01-49.64 32.673-91.647 77.675-105.718l1.303-0.398 0.001-80.68L512 137.9 188.02 324.95V345a8 8 0 0 1-8 8h-48.002a8 8 0 0 1-8-8v-38.525a32.002 32.002 0 0 1 16.003-27.713L496 73.238a32 32 0 0 1 32 0zM156.777 465c-25.83-0.004-46.771 20.93-46.777 46.76 0.022 25.823 20.947 46.752 46.77 46.78 25.83 0 46.768-20.938 46.77-46.767 0.002-25.829-20.934-46.77-46.763-46.773z m711 0c-25.83-0.004-46.771 20.93-46.777 46.76 0.022 25.823 20.947 46.752 46.77 46.78 25.83 0 46.768-20.938 46.77-46.767 0.002-25.829-20.934-46.77-46.763-46.773zM450.43 417.624h-0.878l-46.31 139.808h93.498l-46.31-139.808z" p-id="914"></path></svg>