<?xml version="1.0" standalone="no"?><!DOCTYPE svg PUBLIC "-//W3C//DTD SVG 1.1//EN" "http://www.w3.org/Graphics/SVG/1.1/DTD/svg11.dtd"><svg t="1658806650465" class="icon" viewBox="0 0 1024 1024" version="1.1" xmlns="http://www.w3.org/2000/svg" p-id="24009" xmlns:xlink="http://www.w3.org/1999/xlink" width="200" height="200"><defs><style type="text/css">@font-face { font-family: feedback-iconfont; src: url("//at.alicdn.com/t/font_1031158_u69w8yhxdu.woff2?t=1630033759944") format("woff2"), url("//at.alicdn.com/t/font_1031158_u69w8yhxdu.woff?t=1630033759944") format("woff"), url("//at.alicdn.com/t/font_1031158_u69w8yhxdu.ttf?t=1630033759944") format("truetype"); }
</style></defs><path d="M143 807a8 8 0 0 0-8 8v56a8 8 0 0 0 8 8h738a8 8 0 0 0 8-8v-56a8 8 0 0 0-8-8H143z m98-605a8 8 0 0 0-8 8v352.999L167 563l-0.249 0.004A8 8 0 0 0 159 571c0 1.867 0.653 3.675 1.846 5.111l130.157 156.712a3.413 3.413 0 0 0 5.953-2.277l0.002-98.714c0.028-0.274 0.042-0.551 0.042-0.832V210a8 8 0 0 0-8-8h-48z m492-2a8 8 0 0 0-8 8v421c0 0.281 0.015 0.558 0.043 0.832l0.001 103.647a7.98 7.98 0 0 0 5.952-2.656l0.202-0.233 129.956-156.479a8 8 0 0 0-5.905-13.107L855 561l-66-0.001V208a8 8 0 0 0-8-8h-48z m-201-87h0.25a8.006 8.006 0 0 1 7.75 8v480h97.957l0.329 0.007a8.003 8.003 0 0 1 4.782 1.839l0.209 0.18a8 8 0 0 1 0.834 11.085L514.155 770.59l-0.243 0.279a8.137 8.137 0 0 1-0.8 0.764l-0.215 0.172a8.004 8.004 0 0 1-11.052-1.215L371.889 614.111l-0.205-0.257a7.998 7.998 0 0 1-1.641-4.854l0.004-0.25a8 8 0 0 1 7.996-7.75H476V121l0.004-0.25A8 8 0 0 1 484 113h48z" p-id="24010"></path></svg>