<?xml version="1.0" standalone="no"?><!DOCTYPE svg PUBLIC "-//W3C//DTD SVG 1.1//EN" "http://www.w3.org/Graphics/SVG/1.1/DTD/svg11.dtd"><svg t="1648455748977" class="icon" viewBox="0 0 1024 1024" version="1.1" xmlns="http://www.w3.org/2000/svg" p-id="74344" xmlns:xlink="http://www.w3.org/1999/xlink" width="200" height="200"><defs><style type="text/css">@font-face { font-family: feedback-iconfont; src: url("//at.alicdn.com/t/font_1031158_u69w8yhxdu.woff2?t=1630033759944") format("woff2"), url("//at.alicdn.com/t/font_1031158_u69w8yhxdu.woff?t=1630033759944") format("woff"), url("//at.alicdn.com/t/font_1031158_u69w8yhxdu.ttf?t=1630033759944") format("truetype"); }
</style></defs><path d="M856 212h-64V96a32 32 0 0 0-32-32H264a32 32 0 0 0-32 32v116h-64a32 32 0 0 0-32 32v536a32 32 0 0 0 32 32h64v116a32 32 0 0 0 32 32h496a32 32 0 0 0 32-32V812h64a32 32 0 0 0 32-32V244a32 32 0 0 0-32-32z m-552-76h416v76H304z m416 752H304v-76h416z m96-148H208V284h608z" p-id="74345"></path><path d="M280 684h464a16 16 0 0 0 16-16V532a16 16 0 0 0-16-16h-92v-32a8 8 0 0 0-8-8H380a8 8 0 0 0-8 8v32h-92a16 16 0 0 0-16 16v136a16 16 0 0 0 16 16z m40-112h384v56H320z" p-id="74346"></path></svg>