<?xml version="1.0" standalone="no"?><!DOCTYPE svg PUBLIC "-//W3C//DTD SVG 1.1//EN" "http://www.w3.org/Graphics/SVG/1.1/DTD/svg11.dtd"><svg t="1679050505149" class="icon" viewBox="0 0 1024 1024" version="1.1" xmlns="http://www.w3.org/2000/svg" p-id="3354" xmlns:xlink="http://www.w3.org/1999/xlink" width="200" height="200"><path d="M512 208a368 368 0 1 0 0 736 368 368 0 0 0 0-736z m0 76.032a292.032 292.032 0 1 1 0 584 292.032 292.032 0 0 1 0-584.064zM480 392v190.208a16 16 0 0 0 4.224 10.88l86.784 94.656c3.008 3.2 8.064 3.456 11.328 0.448l35.328-32.384a8 8 0 0 0 2.24-8.448l-1.728-2.88L544 563.584V392a8 8 0 0 0-8-8h-48a8 8 0 0 0-8 8z m245.184-234.24a8 8 0 0 0 0 11.328L855.296 299.2a8 8 0 0 0 11.328 0l39.616-39.552a8 8 0 0 0 0-11.328L776.128 118.208a8 8 0 0 0-11.328 0l-39.616 39.616z m-465.536-39.552a8 8 0 0 0-11.328 0L118.208 248.32a8 8 0 0 0 0 11.328l39.616 39.552a8 8 0 0 0 11.264 0L299.2 169.088a8 8 0 0 0 0-11.264l-39.552-39.68z" p-id="3355"></path></svg>