<?xml version="1.0" standalone="no"?><!DOCTYPE svg PUBLIC "-//W3C//DTD SVG 1.1//EN" "http://www.w3.org/Graphics/SVG/1.1/DTD/svg11.dtd"><svg t="1668673898751" class="icon" viewBox="0 0 1088 1024" version="1.1" xmlns="http://www.w3.org/2000/svg" p-id="1423" xmlns:xlink="http://www.w3.org/1999/xlink" width="212.5" height="200"><path d="M544 208a368 368 0 1 1 0 736 368 368 0 0 1 0-736z m0 76.032a292.032 292.032 0 1 0 0 584 292.032 292.032 0 0 0 0-584.064zM576 384v204.416l-96.384 105.216-47.232-43.264L512 563.52V384h64zM291.2 118.208l39.616 39.616a8 8 0 0 1 0 11.264L200.704 299.2a8 8 0 0 1-11.328 0l-39.616-39.552a8 8 0 0 1 0-11.328l130.112-130.112a8 8 0 0 1 11.328 0z m505.152 0a8 8 0 0 1 11.136-0.192l0.192 0.192 130.112 130.112a8 8 0 0 1 0.192 11.072l-0.192 0.256-39.616 39.552a8 8 0 0 1-11.072 0.192l-0.192-0.192-130.112-130.112a8 8 0 0 1-0.192-11.072l0.192-0.192 39.552-39.68z" p-id="1424"></path></svg>