<?xml version="1.0" standalone="no"?><!DOCTYPE svg PUBLIC "-//W3C//DTD SVG 1.1//EN" "http://www.w3.org/Graphics/SVG/1.1/DTD/svg11.dtd"><svg t="1648463136292" class="icon" viewBox="0 0 1024 1024" version="1.1" xmlns="http://www.w3.org/2000/svg" p-id="110760" xmlns:xlink="http://www.w3.org/1999/xlink" width="200" height="200"><defs><style type="text/css">@font-face { font-family: feedback-iconfont; src: url("//at.alicdn.com/t/font_1031158_u69w8yhxdu.woff2?t=1630033759944") format("woff2"), url("//at.alicdn.com/t/font_1031158_u69w8yhxdu.woff?t=1630033759944") format("woff"), url("//at.alicdn.com/t/font_1031158_u69w8yhxdu.ttf?t=1630033759944") format("truetype"); }
</style></defs><path d="M559.5 64h-414c-17.6 0-31.8 14.3-31.8 33.1v828c0 16.3 14.3 30.6 31.8 30.6h414c17.6 0 31.8-14.3 31.8-30.6v-828c0.1-18.9-14.2-33.1-31.8-33.1z m-39.8 71.6v313.2H185.3V135.6h334.4zM185.3 884V512.6h334.4V884H185.3z m0 0M687.3 377.6l-39.5 39.5c-3 3-3.1 7.8-0.3 10.9 41.2 46.7 41.2 116.8 0 163.6-2.8 3.1-2.7 8 0.3 10.9l39.5 39.5c1.5 1.5 3.6 2.4 5.8 2.3 2.2 0 4.2-1 5.7-2.6 68.4-74.4 68.4-189.5 0-263.9-1.5-1.6-3.5-2.5-5.7-2.6-2.2 0.1-4.3 0.9-5.8 2.4z m0 0" p-id="110761"></path><path d="M883.7 375.1c-16.8-41.5-41.4-79.5-72.4-111.8-1.5-1.5-3.5-2.4-5.7-2.4-2.1 0-4.2 0.8-5.7 2.3l-39.4 39.4c-3.1 3.1-3.1 8-0.1 11.1 103.6 109.5 103.6 280.9 0 390.4-3 3.1-2.9 8.1 0.1 11.1l39.4 39.5c1.5 1.5 3.6 2.4 5.7 2.3 2.1 0 4.2-0.9 5.7-2.4 96.6-101.3 124.9-249.7 72.4-379.5z m0 0M305.2 725.2c0 26.4 21.4 47.8 47.8 47.8s47.8-21.4 47.8-47.8-21.4-47.8-47.8-47.8-47.8 21.4-47.8 47.8z m0 0" p-id="110762"></path></svg>