<?xml version="1.0" standalone="no"?><!DOCTYPE svg PUBLIC "-//W3C//DTD SVG 1.1//EN" "http://www.w3.org/Graphics/SVG/1.1/DTD/svg11.dtd"><svg t="1677643169519" class="icon" viewBox="0 0 1024 1024" version="1.1" xmlns="http://www.w3.org/2000/svg" p-id="1312" xmlns:xlink="http://www.w3.org/1999/xlink" width="200" height="200"><path d="M484.992 840v72H167.04a8 8 0 0 1-8-7.744V872a32 32 0 0 1 31.488-32h294.528z m351.552-263.296a32 32 0 0 1 32 31.424v80.384l66.944-51.328A15.232 15.232 0 0 1 960 648.896v190.976a15.296 15.296 0 0 1-24.192 12.352l-0.32-0.256-66.944-51.328V880a32 32 0 0 1-31.424 32H565.312a32 32 0 0 1-32-31.488V720.256l-0.256-111.808a32 32 0 0 1 31.488-31.424H584l108.288-0.32h144.256z m-32 64H597.312V848h207.232V640.704zM488.96 244.928a298.88 298.88 0 0 1 298.56 284.096h-72.128a226.88 226.88 0 0 0-222.72-212.096h-3.712a226.88 226.88 0 0 0-226.88 223.104v3.776l-0.064 176.256H328V563.008c0-4.48 3.584-8 8-8h48c4.416 0 8 3.584 8 8v157.056h92.992v72H221.44a32 32 0 0 1-31.424-31.488V543.808a298.88 298.88 0 0 1 298.88-298.88z m311.808-49.664l0.192 0.192 39.616 39.552c3.072 3.072 3.264 7.808 0.576 10.752l-0.192 0.192-63.04 63.04c-2.816 2.816-7.552 2.688-10.688-0.256l-0.192-0.192-39.616-39.552c-3.008-3.072-3.264-7.808-0.576-10.752l0.192-0.192 63.04-63.04c2.816-2.816 7.552-2.688 10.688 0.256z m-612.992-0.448l0.192 0.192 62.976 63.04c2.88 2.88 2.752 7.616-0.192 10.752l-0.192 0.192-39.616 39.552c-3.008 3.072-7.744 3.328-10.688 0.64l-0.192-0.192-63.04-63.04c-2.816-2.88-2.752-7.616 0.192-10.752l0.192-0.192 39.68-39.552c3.008-3.072 7.744-3.328 10.688-0.64zM516.992 88c4.352 0 7.872 3.2 8 7.168v89.408c0 4.032-3.456 7.296-7.68 7.424h-56.32c-4.288 0-7.872-3.2-8-7.168V95.36c0-4.032 3.456-7.296 7.744-7.424h56.256z" p-id="1313"></path></svg>