<?xml version="1.0" standalone="no"?><!DOCTYPE svg PUBLIC "-//W3C//DTD SVG 1.1//EN" "http://www.w3.org/Graphics/SVG/1.1/DTD/svg11.dtd"><svg t="1648463723313" class="icon" viewBox="0 0 1024 1024" version="1.1" xmlns="http://www.w3.org/2000/svg" p-id="111868" xmlns:xlink="http://www.w3.org/1999/xlink" width="200" height="200"><defs><style type="text/css">@font-face { font-family: feedback-iconfont; src: url("//at.alicdn.com/t/font_1031158_u69w8yhxdu.woff2?t=1630033759944") format("woff2"), url("//at.alicdn.com/t/font_1031158_u69w8yhxdu.woff?t=1630033759944") format("woff"), url("//at.alicdn.com/t/font_1031158_u69w8yhxdu.ttf?t=1630033759944") format("truetype"); }
</style></defs><path d="M536.333 838v72H146.227c-3.913 0-7.1-3.443-7.223-7.741L139 902v-32c0-17.496 12.685-31.713 28.431-31.996l0.478-0.004h368.424zM457 194c157.953 0 286 128.047 286 286v107.522h-72.127V480c0-116.938-93.848-211.957-210.336-213.845l-3.537-0.029c-116.938 0-211.957 93.85-213.845 210.337l-0.029 3.537v253.874l293.207-0.001V806H203.056C185.352 806 171 791.648 171 773.944V480c0-157.953 128.047-286 286-286z m-296.409-16.478a7.98 7.98 0 0 1 5.442 2.145l0.218 0.211 55.86 56.11a8.054 8.054 0 0 1 2.347 5.686 8.056 8.056 0 0 1-2.137 5.467l-0.21 0.219-39.6 39.777a7.974 7.974 0 0 1-11.108 0.196l-0.202-0.196-55.86-56.12c-3.055-3.071-3.12-8.008-0.195-11.158l0.195-0.203 39.59-39.778a7.982 7.982 0 0 1 5.66-2.356z m592.1 0a7.98 7.98 0 0 1 5.442 2.145l0.218 0.211 39.59 39.778c3.056 3.071 3.12 8.007 0.195 11.158l-0.195 0.203-55.86 56.12a7.974 7.974 0 0 1-11.108 0.196l-0.202-0.196-39.6-39.777a8.054 8.054 0 0 1-2.346-5.686c0-2.031 0.766-3.983 2.136-5.466l0.21-0.22 55.86-56.11a7.982 7.982 0 0 1 5.66-2.356zM484.641 66c5.334 0 8 2.695 8 8.084v79.832c0 5.39-2.666 8.084-8 8.084h-56c-5.333 0-8-2.695-8-8.084V74.084c0-5.39 2.667-8.084 8-8.084h56z" p-id="111869"></path><path d="M924.664 669.08c-2.913 0.003-5.742 0.98-8.038 2.777l-56.334 44.886v-77.766c0-11.033-8.922-19.977-19.929-19.977H587.93C576.923 619 568 627.944 568 638.977v253.046c0 11.033 8.923 19.977 19.929 19.977h252.434c11.007 0 19.93-8.944 19.93-19.977v-77.346l56.333 44.878a13.058 13.058 0 0 0 8.03 2.777c6.88 0 13.344-5.444 13.344-13.344V682.424c0.008-7.9-6.456-13.343-13.336-13.343zM811 864H616V667h195v197z" p-id="111870"></path></svg>