<?xml version="1.0" standalone="no"?><!DOCTYPE svg PUBLIC "-//W3C//DTD SVG 1.1//EN" "http://www.w3.org/Graphics/SVG/1.1/DTD/svg11.dtd"><svg t="1678011366915" class="icon" viewBox="0 0 1024 1024" version="1.1" xmlns="http://www.w3.org/2000/svg" p-id="5648" xmlns:xlink="http://www.w3.org/1999/xlink" width="200" height="200"><path d="M828.032 812.032a84.032 84.032 0 0 1-32-161.728V334.912L669.056 208l-397.248 0.064a84.032 84.032 0 1 1 0-72.064h420.416a16 16 0 0 1 11.328 4.672l159.68 159.744a16 16 0 0 1 4.736 11.328v342.4a83.968 83.968 0 0 1-40 157.824zM195.968 199.936a27.968 27.968 0 1 0 0-56 27.968 27.968 0 0 0 0 56zM287.744 912a16 16 0 0 1-11.328-4.672L164.672 795.52A16 16 0 0 1 160 784.192l-0.064-208.384a84.032 84.032 0 1 1 72.064 0v185.216l78.912 78.912h295.04V540.928l-73.728-73.792a84.032 84.032 0 1 1 50.944-50.944l90.24 90.24a16 16 0 0 1 4.672 11.264V896a16 16 0 0 1-16 16H287.744zM504 416a27.968 27.968 0 1 0 0-56 27.968 27.968 0 0 0 0 56zM195.968 528a27.968 27.968 0 1 0 0-56 27.968 27.968 0 0 0 0 56z m632 228.032a27.968 27.968 0 1 0 0-56 27.968 27.968 0 0 0 0 55.936z" p-id="5649"></path></svg>