<?xml version="1.0" standalone="no"?><!DOCTYPE svg PUBLIC "-//W3C//DTD SVG 1.1//EN" "http://www.w3.org/Graphics/SVG/1.1/DTD/svg11.dtd"><svg t="1706282532781" class="icon" viewBox="0 0 1024 1024" version="1.1" xmlns="http://www.w3.org/2000/svg" p-id="3943" xmlns:xlink="http://www.w3.org/1999/xlink" width="200" height="200"><path d="M512 88.64a16 16 0 0 1 11.328 4.672l409.344 409.344a16 16 0 0 1-11.328 27.328H864V896a16 16 0 0 1-16 16H176a16 16 0 0 1-16-16V529.984h-57.344a16 16 0 0 1-11.328-27.328L500.672 93.312A16 16 0 0 1 512 88.64z m0 95.168l-280 280V840h560V463.808l-280-280z m6.464 320c32.256 0 69.056 12.288 101.12 32.768 33.92 21.568 59.904 50.368 70.912 81.984 6.4 18.496 7.552 40.768 1.984 61.76-6.912 26.24-23.552 48.64-49.664 63.68a88.448 88.448 0 0 1-50.56 11.648h-0.832l-1.536-0.128-1.024-0.064-1.024-0.128-1.28-0.064-1.28-0.128-0.96-0.128-0.96-0.128-1.024-0.128-0.96-0.128-1.024-0.128-0.96-0.192-1.024-0.128-1.024-0.192-0.96-0.192-1.088-0.192-1.024-0.192-1.088-0.192-1.6-0.384-0.576-0.064-1.664-0.384-1.152-0.256-1.216-0.32-1.152-0.256-1.92-0.448-2.56-0.64-2.112-0.576-2.112-0.512-3.776-1.024-5.952-1.6-2.56-0.704-2.56-0.64-1.664-0.448-1.664-0.384-1.088-0.256-1.024-0.256-1.536-0.384-0.96-0.192-1.408-0.32-1.28-0.256-1.28-0.256-0.896-0.128-1.216-0.256-0.768-0.064-0.768-0.128-0.704-0.128-0.768-0.064-0.704-0.128h-0.704l-0.704-0.128h-0.64l-0.704-0.064-0.64-0.064h-1.728l-0.64-0.064h-2.944l-1.216 0.064-1.28 0.064-0.96 0.064-1.088 0.128-1.088 0.064-1.472 0.192-1.536 0.128-1.28 0.192-2.112 0.256-1.472 0.192-2.432 0.384-2.56 0.384-3.392 0.512-5.376 0.832-8.704 1.472-5.76 0.896-3.2 0.512-3.072 0.448-2.048 0.32-1.92 0.256-1.024 0.128-1.92 0.256-1.92 0.256-0.96 0.064-1.92 0.256-0.96 0.064-1.792 0.192-1.92 0.192-1.28 0.128-1.344 0.128-1.792 0.128-3.904 0.256-1.28 0.064-1.728 0.064c-14.08 0.64-26.24-0.64-38.208-4.096-27.072-7.936-46.72-27.328-56.32-57.152-8.192-25.6-6.464-51.84 3.904-76.544 8.96-21.248 24-40.832 43.52-57.728 35.84-31.232 84.736-51.648 125.44-51.648z m0 64h-0.704c-24.32 0.32-58.24 14.528-82.752 35.904-25.216 21.952-35.2 45.568-28.48 66.496 3.136 9.728 6.784 13.312 13.376 15.232 1.28 0.384 2.688 0.64 4.16 0.96l0.64 0.064 0.832 0.128h0.448l0.384 0.128h0.896l0.448 0.128h0.448l1.152 0.064h0.192l0.96 0.064 0.96 0.064h6.336l1.152-0.064h0.576l1.152-0.128h0.64l1.536-0.128 1.536-0.128 1.28-0.128h0.64l1.408-0.192 1.28-0.128 1.472-0.192 1.408-0.128 1.408-0.192 2.24-0.32 1.536-0.192 2.688-0.384 3.52-0.512 3.904-0.64 11.84-1.92 5.76-0.96 3.968-0.64 2.688-0.384 1.472-0.192 2.432-0.32 2.24-0.32 1.792-0.256 0.832-0.064 2.048-0.256 1.536-0.128 1.536-0.128 1.152-0.128 1.088-0.064 1.088-0.064 1.088-0.064 1.088-0.064 1.088-0.064h1.472l1.792-0.128h6.528l1.28 0.064 2.432 0.128 1.28 0.064 1.216 0.064 1.216 0.128 1.216 0.128 1.28 0.128 1.152 0.128 0.64 0.064 1.28 0.128 0.64 0.128 1.216 0.192 1.28 0.192 1.28 0.192 1.28 0.192 1.6 0.32 1.664 0.32 1.728 0.384 2.112 0.448 1.728 0.384 1.472 0.32 1.536 0.384 1.536 0.32 1.536 0.448 1.6 0.384 2.496 0.64 2.56 0.64 2.624 0.704 3.136 0.832 3.008 0.832 1.472 0.384 2.176 0.576 1.28 0.32 1.408 0.32 1.28 0.32 1.92 0.448 1.152 0.32 1.152 0.256 1.152 0.256 1.088 0.192 1.088 0.256 1.024 0.192 1.024 0.192 1.024 0.128 0.96 0.192 0.896 0.128 1.152 0.192h0.192l0.896 0.128h0.384l0.832 0.128h0.448l0.384 0.064h0.768l0.768 0.128h0.768a26.624 26.624 0 0 0 7.68-0.768l0.512-0.128 0.512-0.192 0.576-0.192 0.256-0.064 0.512-0.192 0.256-0.128 0.512-0.192 0.256-0.128 0.512-0.256 0.256-0.128 0.512-0.256 0.512-0.256A39.488 39.488 0 0 0 630.656 664a44.288 44.288 0 0 0-0.64-24.448c-11.968-34.56-68.736-71.04-110.272-71.68H518.4zM344 471.04a40 40 0 1 1 0 80 40 40 0 0 1 0-80z m336 0a40 40 0 1 1 0 80 40 40 0 0 1 0-80z m-232-80a48 48 0 1 1 0 96 48 48 0 0 1 0-96z m128 0a48 48 0 1 1 0 96 48 48 0 0 1 0-96z" p-id="3944"></path></svg>