<?xml version="1.0" standalone="no"?><!DOCTYPE svg PUBLIC "-//W3C//DTD SVG 1.1//EN" "http://www.w3.org/Graphics/SVG/1.1/DTD/svg11.dtd"><svg t="1677839663603" class="icon" viewBox="0 0 1024 1024" version="1.1" xmlns="http://www.w3.org/2000/svg" p-id="3093" xmlns:xlink="http://www.w3.org/1999/xlink" width="200" height="200"><path d="M512 64a448 448 0 1 1 0 896 448 448 0 0 1 0-896zM299.968 699.072v118.656a372.864 372.864 0 0 0 301.568 55.424l-301.504-174.08z m569.6-84.032L568 789.12l102.784 59.392A372.992 372.992 0 0 0 869.568 615.04z m-625.6-193.088l-102.72 59.328a370.752 370.752 0 0 0 102.72 288.704V421.952zM512 267.2L299.968 389.632v244.736L512 756.8l212.032-122.432V389.632L512 267.2z m136 206.784c4.288 0 7.872 3.456 8 7.744v60.288a8 8 0 0 1-7.744 8H376a8 8 0 0 1-8-7.744V481.92c0-4.288 3.456-7.872 7.744-8H648z m132.032-219.968v348.032l102.72-59.328A370.752 370.752 0 0 0 781.952 256l-1.92-1.984z m-625.6 154.944L456 234.88l-102.784-59.392A372.992 372.992 0 0 0 154.432 408.96zM512 140.032c-30.848 0-60.8 3.712-89.536 10.816l301.568 174.08V206.272A370.304 370.304 0 0 0 512 140.032z" p-id="3094"></path></svg>