<?xml version="1.0" standalone="no"?><!DOCTYPE svg PUBLIC "-//W3C//DTD SVG 1.1//EN" "http://www.w3.org/Graphics/SVG/1.1/DTD/svg11.dtd"><svg t="1750908027000" class="icon" viewBox="0 0 1024 1024" version="1.1" xmlns="http://www.w3.org/2000/svg" p-id="1080" xmlns:xlink="http://www.w3.org/1999/xlink" width="200" height="200"><path d="M917.76 148.8l-42.432-42.432a8.32 8.32 0 0 0-11.392 0l-76.16 76.16a199.296 199.296 0 0 0-112.064-34.304c-51.2 0-102.4 19.456-141.504 58.56L432.32 308.672a8 8 0 0 0 0 11.328L704 591.68a7.872 7.872 0 0 0 5.76 2.304 8.448 8.448 0 0 0 5.632-2.304L817.28 489.792a200.192 200.192 0 0 0 24.32-253.44l76.16-76.16a8.128 8.128 0 0 0 0-11.392zM769.088 441.728l-59.392 59.392L522.88 314.24l59.392-59.328c24.96-24.96 58.112-38.72 93.44-38.72 35.264 0 68.416 13.696 93.44 38.72 24.832 24.896 38.656 58.112 38.656 93.44 0 35.2-13.824 68.352-38.72 93.376zM578.88 546.688a8 8 0 0 0-11.264 0l-66.56 66.56-90.368-90.24 66.752-66.688a8 8 0 0 0 0-11.328l-36.352-36.416a8 8 0 0 0-11.328 0l-66.752 66.752L320 432.32a7.872 7.872 0 0 0-5.76-2.304 8.448 8.448 0 0 0-5.632 2.304l-101.76 101.888a200.192 200.192 0 0 0-24.32 253.44l-76.16 76.16a8 8 0 0 0 0 11.264l42.432 42.432a8.32 8.32 0 0 0 11.392 0l76.16-76.16c33.664 22.976 72.832 34.368 112 34.368 51.2 0 102.4-19.52 141.568-58.624L591.808 715.2a8 8 0 0 0 0-11.328L548.8 660.928l66.688-66.752a8 8 0 0 0 0-11.264l-36.608-36.224z m-137.152 222.4c-24.96 24.96-58.112 38.72-93.44 38.72a131.072 131.072 0 0 1-93.44-38.72 131.328 131.328 0 0 1-38.656-93.44c0-35.2 13.696-68.352 38.72-93.376l59.392-59.392L501.12 709.76l-59.392 59.328z" p-id="1081"></path></svg>