<?xml version="1.0" standalone="no"?><!DOCTYPE svg PUBLIC "-//W3C//DTD SVG 1.1//EN" "http://www.w3.org/Graphics/SVG/1.1/DTD/svg11.dtd"><svg t="1672995933626" class="icon" viewBox="0 0 1024 1024" version="1.1" xmlns="http://www.w3.org/2000/svg" p-id="2973" xmlns:xlink="http://www.w3.org/1999/xlink" width="200" height="200"><path d="M512 64a448 448 0 1 1 0 896A448 448 0 0 1 512 64z m0 72a376 376 0 1 0 0 752 376 376 0 0 0 0-752z m105.984 132.032c78.016 0 142.016 60.352 142.016 136 0 72.128-58.368 130.496-131.52 135.616l-2.304 0.128a7.808 7.808 0 0 1-8.192-7.36v-56.704c0-4.096 3.008-7.552 7.04-8.064h0.832a35.84 35.84 0 0 0 0.256-0.064c35.2-3.712 61.888-31.168 61.888-63.616 0-34.816-30.912-64-70.016-64-38.72 0-69.376 28.608-69.952 62.976V624h-0.064c-2.24 73.728-65.408 132.032-141.952 132.032-78.016 0-142.016-60.416-142.016-136.064 0-72.832 59.456-131.584 133.568-135.68l0.256-0.064a7.808 7.808 0 0 1 8.192 7.36v56.448a8 8 0 0 1-7.36 8.32h-0.64l-1.152 0.192c-34.688 4.096-60.864 31.36-60.864 63.488 0 34.816 30.912 64 70.016 64 38.72 0 69.376-28.608 69.952-62.976V400h0.064c2.24-73.728 65.408-132.032 141.952-132.032z" p-id="2974"></path></svg>