<?xml version="1.0" standalone="no"?><!DOCTYPE svg PUBLIC "-//W3C//DTD SVG 1.1//EN" "http://www.w3.org/Graphics/SVG/1.1/DTD/svg11.dtd"><svg t="1659949666826" class="icon" viewBox="0 0 1024 1024" version="1.1" xmlns="http://www.w3.org/2000/svg" p-id="34046" xmlns:xlink="http://www.w3.org/1999/xlink" width="200" height="200"><defs><style type="text/css">@font-face { font-family: feedback-iconfont; src: url("//at.alicdn.com/t/font_1031158_u69w8yhxdu.woff2?t=1630033759944") format("woff2"), url("//at.alicdn.com/t/font_1031158_u69w8yhxdu.woff?t=1630033759944") format("woff"), url("//at.alicdn.com/t/font_1031158_u69w8yhxdu.ttf?t=1630033759944") format("truetype"); }
</style></defs><path d="M512 64c247.424 0 448 200.576 448 448S759.424 960 512 960 64 759.424 64 512 264.576 64 512 64z m0 72c-207.66 0-376 168.34-376 376s168.34 376 376 376 376-168.34 376-376-168.34-376-376-376z m106 132c77.97 0 142 60.405 142 136 0 74.839-62.755 134.79-139.665 135.982L618 540v-72c39.114 0 70-29.138 70-64 0-34.862-30.886-64-70-64-38.723 0-69.381 28.558-69.99 62.956L548 404v220l-0.06 0.001C545.728 697.715 482.59 756 406 756c-77.97 0-142-60.405-142-136 0-74.839 62.755-134.79 139.665-135.982L406 484v72c-39.114 0-70 29.138-70 64 0 34.862 30.886 64 70 64 38.723 0 69.381-28.558 69.99-62.956L476 620V400h0.06c2.211-73.714 65.35-132 141.94-132z" p-id="34047"></path></svg>