<?xml version="1.0" standalone="no"?><!DOCTYPE svg PUBLIC "-//W3C//DTD SVG 1.1//EN" "http://www.w3.org/Graphics/SVG/1.1/DTD/svg11.dtd"><svg t="1677637990048" class="icon" viewBox="0 0 1024 1024" version="1.1" xmlns="http://www.w3.org/2000/svg" p-id="2882" xmlns:xlink="http://www.w3.org/1999/xlink" width="200" height="200"><path d="M832 64a32 32 0 0 1 32 32v832a32 32 0 0 1-32 32H192a32 32 0 0 1-32-32V96a32 32 0 0 1 32-32z m-40 72H232v752h560V136zM453.248 521.28a8 8 0 0 1 11.264 1.088l140.736 169.216 42.24-41.472a8 8 0 0 1 5.632-2.304H728c4.416 0 8 3.584 8 8v48a8 8 0 0 1-8 8h-52.032l-69.248 67.968a8 8 0 0 1-11.776-0.64l-138.88-166.912-90.24 97.024a8 8 0 0 1-5.888 2.56H295.68a8 8 0 0 1-8-8v-48c0-4.48 3.584-8 8-8h39.68l117.12-125.824a8 8 0 0 1 0.64-0.64zM720.256 192a16 16 0 0 1 16 16v192a16 16 0 0 1-16 16H303.744a16 16 0 0 1-16-16V208a16 16 0 0 1 16-16z m-40 56H343.68v112h336.512V248z" p-id="2883"></path></svg>