<?xml version="1.0" standalone="no"?><!DOCTYPE svg PUBLIC "-//W3C//DTD SVG 1.1//EN" "http://www.w3.org/Graphics/SVG/1.1/DTD/svg11.dtd"><svg t="1656332325292" class="icon" viewBox="0 0 1024 1024" version="1.1" xmlns="http://www.w3.org/2000/svg" p-id="22834" xmlns:xlink="http://www.w3.org/1999/xlink" width="200" height="200"><defs><style type="text/css">@font-face { font-family: feedback-iconfont; src: url("//at.alicdn.com/t/font_1031158_u69w8yhxdu.woff2?t=1630033759944") format("woff2"), url("//at.alicdn.com/t/font_1031158_u69w8yhxdu.woff?t=1630033759944") format("woff"), url("//at.alicdn.com/t/font_1031158_u69w8yhxdu.ttf?t=1630033759944") format("truetype"); }
</style></defs><path d="M287.68 126.912l499.328 38.336a16 16 0 0 1 13.696 10.048l153.344 387.776a16 16 0 0 1-3.712 17.344l-382.848 370.432a16 16 0 0 1-20.288 1.664l-461.696-321.28a16 16 0 0 1-5.76-19.072l191.872-475.328a16 16 0 0 1 16.064-9.92z m551.616 341.76L485.76 822.08l64.64 44.992 322.88-312.32-34.048-86.08z m-56.704-143.36l-414.72 414.72 77.952 54.208 374.208-374.208-37.44-94.72zM678.784 229.12l-428.8 428.864 77.888 54.208 435.52-435.52-16.768-42.304-67.84-5.248z m-185.728-14.272L199.168 508.8 163.2 597.696l46.656 32.448L615.68 224.32l-122.688-9.472z m-169.984-13.056L245.056 395.072l184.96-184.96-106.944-8.192z" p-id="22835"></path></svg>