<?xml version="1.0" standalone="no"?><!DOCTYPE svg PUBLIC "-//W3C//DTD SVG 1.1//EN" "http://www.w3.org/Graphics/SVG/1.1/DTD/svg11.dtd"><svg t="1665396597630" class="icon" viewBox="0 0 1024 1024" version="1.1" xmlns="http://www.w3.org/2000/svg" p-id="1057" xmlns:xlink="http://www.w3.org/1999/xlink" width="200" height="200"><path d="M287.68 110.912l499.328 38.336a16 16 0 0 1 13.696 10.048l141.696 358.208a243.328 243.328 0 0 0-159.168-76.8l36.8-36.672-37.44-94.72-414.72 414.72 77.952 54.208 74.88-75.008c1.536 19.584 5.376 38.464 11.264 56.512l-46.208 46.336 64.64 44.992 19.584-19.072c14.72 19.2 32.128 36.16 51.776 50.304l-54.272 52.544a16 16 0 0 1-20.288 1.664l-461.696-321.28a16 16 0 0 1-5.76-19.072l191.872-475.328a16 16 0 0 1 16.064-9.92z m476.288 377.088a195.968 195.968 0 1 1 0 392 195.968 195.968 0 0 1 0-392z m0 64c-35.2 0-68.416 13.696-93.312 38.656a131.2 131.2 0 0 0-38.656 93.376c0 35.2 13.696 68.416 38.656 93.312 24.96 24.96 58.112 38.656 93.376 38.656 35.2 0 68.416-13.696 93.312-38.656 24.96-24.96 38.656-58.112 38.656-93.376 0-35.2-13.696-68.416-38.656-93.312a131.2 131.2 0 0 0-93.376-38.656z m24.064 52.032v55.872l55.936 0.128v48l-55.936-0.128v56.128h-48v-56.128l-56.064 0.128v-48l56.064-0.128v-55.872h48zM678.72 213.12l-428.8 428.864 77.888 54.208 435.52-435.52-16.768-42.304-67.84-5.248z m-185.792-14.336L199.168 492.8 163.2 581.696l46.656 32.448L615.68 208.32l-122.688-9.536z m-169.92-12.992l-78.016 193.28 184.96-184.96-106.944-8.192v-0.128z" p-id="1058"></path></svg>