<?xml version="1.0" standalone="no"?><!DOCTYPE svg PUBLIC "-//W3C//DTD SVG 1.1//EN" "http://www.w3.org/Graphics/SVG/1.1/DTD/svg11.dtd"><svg t="1679049599624" class="icon" viewBox="0 0 1024 1024" version="1.1" xmlns="http://www.w3.org/2000/svg" p-id="1740" xmlns:xlink="http://www.w3.org/1999/xlink" width="200" height="200"><path d="M273.664 86.912l499.328 38.336a16 16 0 0 1 13.696 10.048l117.76 297.6a8.064 8.064 0 0 1-3.2 10.88 8 8 0 0 1-8.192-0.256l-0.512-0.384a250.496 250.496 0 0 0-90.24-35.84l-1.728-0.384-1.408-0.256-1.6-0.256a8 8 0 0 1-3.84-14.08l12.288-12.288-37.44-94.72-414.72 414.72 77.952 54.208 63.104-63.232a8 8 0 0 1 13.44 3.968l7.168 32.832a16 16 0 0 1-4.288 14.72l-39.488 39.552 64.64 44.992 12.352-11.968a8.128 8.128 0 0 1 12.608-0.128l1.088 1.28 0.64 0.896 0.704 0.768 0.96 1.152 1.088 1.28 0.256 0.32c8 9.152 16.64 17.728 25.856 25.6l0.96 0.832 1.472 1.216 1.152 0.96 1.28 1.024 1.408 1.088 1.472 1.216 0.512 0.384a8 8 0 0 1 1.344 11.2c-0.512 0.704-1.216 1.28-1.856 1.92l-46.208 44.736a16 16 0 0 1-20.288 1.664L71.488 591.232a16 16 0 0 1-5.76-19.072L257.6 96.832a16 16 0 0 1 16.064-9.92z m482.368 364.096a204.032 204.032 0 1 1 0 408 204.032 204.032 0 0 1 0-408z m0 64a139.968 139.968 0 1 0 0 280 139.968 139.968 0 0 0 0-280z m15.872 40c4.48 0 8.064 3.584 8.064 8v67.904H848c4.416 0 8 3.584 8 8v32a8 8 0 0 1-8 8h-68.032v68.096a8 8 0 0 1-8 8h-32a8 8 0 0 1-8-8v-68.096H664a8 8 0 0 1-8-8v-32c0-4.416 3.584-8 8-8h67.968v-67.904c0-4.48 3.52-8 8-8h32z m-107.2-365.888l-428.8 428.864 77.888 54.208 435.52-435.52-16.768-42.304-67.84-5.248z m-185.728-14.336L185.216 468.8l-36.032 88.896 46.72 32.448L601.6 184.32l-122.688-9.536z m-169.984-12.992l-77.952 193.28L416 170.112l-106.88-8.192v-0.128z" p-id="1741"></path></svg>