<?xml version="1.0" standalone="no"?><!DOCTYPE svg PUBLIC "-//W3C//DTD SVG 1.1//EN" "http://www.w3.org/Graphics/SVG/1.1/DTD/svg11.dtd"><svg t="1703830365314" class="icon" viewBox="0 0 1024 1024" version="1.1" xmlns="http://www.w3.org/2000/svg" p-id="1380" xmlns:xlink="http://www.w3.org/1999/xlink" width="200" height="200"><path d="M482.048 112a8 8 0 0 0-8 8l-0.128 650.368-189.056-149.12a8.064 8.064 0 0 0-13.056 6.272v64.832c0 9.792 4.48 19.072 12.224 25.088l208 163.968c5.76 4.544 12.864 7.04 20.224 6.912a31.616 31.616 0 0 0 20.16-6.912l208-163.968a31.808 31.808 0 0 0 12.224-25.088V627.52a8 8 0 0 0-12.992-6.272L550.4 770.368 550.528 120a8 8 0 0 0-8-8h-60.544 0.064z" p-id="1381"></path></svg>