<?xml version="1.0" standalone="no"?><!DOCTYPE svg PUBLIC "-//W3C//DTD SVG 1.1//EN" "http://www.w3.org/Graphics/SVG/1.1/DTD/svg11.dtd"><svg t="1703830383746" class="icon" viewBox="0 0 1024 1024" version="1.1" xmlns="http://www.w3.org/2000/svg" p-id="2154" xmlns:xlink="http://www.w3.org/1999/xlink" width="200" height="200"><path d="M482.048 912a8 8 0 0 1-8-8l-0.128-650.368-189.056 149.12a8.064 8.064 0 0 1-13.056-6.272v-64.832c0-9.792 4.48-19.072 12.224-25.088l208-163.968a31.616 31.616 0 0 1 20.224-6.912 31.616 31.616 0 0 1 20.16 6.912l208 163.968c7.68 6.016 12.224 15.296 12.224 25.088v64.832a8 8 0 0 1-12.992 6.272L550.4 253.632 550.528 904a8 8 0 0 1-8 8h-60.544 0.064z" p-id="2155"></path></svg>