<?xml version="1.0" standalone="no"?><!DOCTYPE svg PUBLIC "-//W3C//DTD SVG 1.1//EN" "http://www.w3.org/Graphics/SVG/1.1/DTD/svg11.dtd"><svg t="1703830391579" class="icon" viewBox="0 0 1024 1024" version="1.1" xmlns="http://www.w3.org/2000/svg" p-id="2462" xmlns:xlink="http://www.w3.org/1999/xlink" width="200" height="200"><path d="M112 541.952c0 4.416 3.584 8 8 8l650.368 0.128-149.12 189.056a8.064 8.064 0 0 0 6.272 13.056h64.832c9.792 0 19.072-4.48 25.088-12.224l163.968-208a31.616 31.616 0 0 0 6.912-20.224 31.616 31.616 0 0 0-6.912-20.16l-163.968-208a31.808 31.808 0 0 0-25.088-12.224H627.52a8 8 0 0 0-6.272 12.992L770.368 473.6 120 473.472a8 8 0 0 0-8 8v60.544-0.064z" p-id="2463"></path></svg>