<?xml version="1.0" standalone="no"?><!DOCTYPE svg PUBLIC "-//W3C//DTD SVG 1.1//EN" "http://www.w3.org/Graphics/SVG/1.1/DTD/svg11.dtd"><svg t="1678346258974" class="icon" viewBox="0 0 1024 1024" version="1.1" xmlns="http://www.w3.org/2000/svg" p-id="1760" xmlns:xlink="http://www.w3.org/1999/xlink" width="200" height="200"><path d="M138.688 542.08c0 4.416 3.584 8 7.936 8h610.048l-149.12 189.056a8.064 8.064 0 0 0 6.272 13.056h64.896a32 32 0 0 0 25.088-12.224l163.968-208a31.616 31.616 0 0 0 6.912-20.224 31.616 31.616 0 0 0-6.912-20.16l-163.968-208a31.808 31.808 0 0 0-25.152-12.224h-64.832a8.064 8.064 0 0 0-6.272 12.992l149.12 189.184H146.624a8 8 0 0 0-7.936 8v60.544z" p-id="1761"></path></svg>