<?xml version="1.0" standalone="no"?><!DOCTYPE svg PUBLIC "-//W3C//DTD SVG 1.1//EN" "http://www.w3.org/Graphics/SVG/1.1/DTD/svg11.dtd"><svg t="1678346255989" class="icon" viewBox="0 0 1024 1024" version="1.1" xmlns="http://www.w3.org/2000/svg" p-id="1606" xmlns:xlink="http://www.w3.org/1999/xlink" width="200" height="200"><path d="M874.688 542.08a8 8 0 0 1-8 8H256.64l149.12 189.056a8.064 8.064 0 0 1-6.272 13.056h-64.832a31.808 31.808 0 0 1-25.088-12.224l-163.968-208a31.616 31.616 0 0 1-6.912-20.224 31.616 31.616 0 0 1 6.912-20.16l163.968-208a31.808 31.808 0 0 1 25.088-12.224h64.832c6.72 0 10.432 7.808 6.272 12.992L256.64 473.6h610.048c4.416 0 8 3.584 8 8v60.544z" p-id="1607"></path></svg>