<?xml version="1.0" encoding="UTF-8"?>
<svg width="24px" height="24px" viewBox="0 0 24 24" version="1.1" xmlns="http://www.w3.org/2000/svg" xmlns:xlink="http://www.w3.org/1999/xlink">
    <title>down</title>
    <g id="down" stroke="none" stroke-width="1" fill="none" fill-rule="evenodd">
        <g id="swap-left备份" fill="#000000" fill-rule="nonzero">
            <rect id="矩形" opacity="0" x="0" y="0" width="24" height="24"></rect>
            <path d="M20.6294679,12.7045101 C20.6294679,12.8076351 20.5450929,12.8920101 20.4419679,12.8920101 L6.14427381,12.8920101 L9.63962419,17.3239819 C9.73571794,17.4458569 9.64899919,17.6286694 9.49196794,17.6286694 L7.97321794,17.6286694 C7.74353044,17.6286694 7.52556169,17.5232007 7.38493669,17.3427319 L3.54118669,12.4677319 C3.42660336,12.3218986 3.37662908,12.1559006 3.37931445,11.9944904 C3.37649191,11.8332249 3.42644596,11.6669712 3.54118669,11.5209375 L3.54118669,11.5209375 L7.38493669,6.6459375 C7.52556169,6.46546875 7.74353044,6.36 7.97321794,6.36 L7.97321794,6.36 L9.49196794,6.36 C9.64899919,6.36 9.73571794,6.5428125 9.63962419,6.6646875 L9.63962419,6.6646875 L6.14427381,11.0985466 L20.4419679,11.0985466 C20.5450929,11.0985466 20.6294679,11.1829216 20.6294679,11.2860466 L20.6294679,11.2860466 L20.6294679,12.7045101 Z" id="形状结合" transform="translate(12.004335, 11.994335) scale(1, -1) rotate(90.000000) translate(-12.004335, -11.994335) "></path>
        </g>
    </g>
</svg>