<?xml version="1.0" standalone="no"?><!DOCTYPE svg PUBLIC "-//W3C//DTD SVG 1.1//EN" "http://www.w3.org/Graphics/SVG/1.1/DTD/svg11.dtd"><svg t="1678346262165" class="icon" viewBox="0 0 1024 1024" version="1.1" xmlns="http://www.w3.org/2000/svg" p-id="1914" xmlns:xlink="http://www.w3.org/1999/xlink" width="200" height="200"><path d="M481.92 879.808a8 8 0 0 1-8-8.064V261.76L284.8 410.88a8.064 8.064 0 0 1-12.992-6.336V339.84c0-9.856 4.48-19.072 12.16-25.088l208-164.096c5.76-4.544 12.8-7.04 20.16-6.912a31.616 31.616 0 0 1 20.224 6.912l208 164.032c7.68 5.952 12.16 15.36 12.16 25.088v64.832a8.064 8.064 0 0 1-12.992 6.272L550.4 261.76v610.048a8 8 0 0 1-8 8h-60.48z" p-id="1915"></path></svg>