<?xml version="1.0" standalone="no"?><!DOCTYPE svg PUBLIC "-//W3C//DTD SVG 1.1//EN" "http://www.w3.org/Graphics/SVG/1.1/DTD/svg11.dtd"><svg t="1678346252107" class="icon" viewBox="0 0 1024 1024" version="1.1" xmlns="http://www.w3.org/2000/svg" p-id="1452" xmlns:xlink="http://www.w3.org/1999/xlink" width="200" height="200"><path d="M481.92 143.808a8 8 0 0 0-8 7.936v610.048L284.8 612.672a8.064 8.064 0 0 0-12.992 6.336v64.768c0 9.792 4.48 19.136 12.16 25.152l208 163.968c5.76 4.544 12.864 7.04 20.224 6.912a31.616 31.616 0 0 0 20.224-6.912l208-163.968a31.808 31.808 0 0 0 12.16-25.152v-64.768a8.064 8.064 0 0 0-12.992-6.336L550.4 761.792V151.68a8 8 0 0 0-8-8h-60.48z" p-id="1453"></path></svg>