<?xml version="1.0" standalone="no"?><!DOCTYPE svg PUBLIC "-//W3C//DTD SVG 1.1//EN" "http://www.w3.org/Graphics/SVG/1.1/DTD/svg11.dtd"><svg t="1725361343984" class="icon" viewBox="0 0 1024 1024" version="1.1" xmlns="http://www.w3.org/2000/svg" p-id="1130" xmlns:xlink="http://www.w3.org/1999/xlink" width="200" height="200"><path d="M512 64c220.928 0 400 76.992 400 172.032v551.936C912 883.008 732.928 960 512 960s-400-76.992-400-172.032V233.152a75.52 75.52 0 0 1 0.384-4.864l0.064-0.768a76.16 76.16 0 0 1 6.336-23.232 91.392 91.392 0 0 1 9.664-17.28 117.12 117.12 0 0 1 13.568-16.512 155.904 155.904 0 0 1 17.088-15.552 208 208 0 0 1 6.016-4.608l1.472-1.152a231.488 231.488 0 0 1 4.8-3.392l1.536-1.088a251.712 251.712 0 0 1 5.12-3.392l0.768-0.512 0.704-0.448 1.92-1.28 1.6-0.96 1.92-1.152 1.664-1.024 1.92-1.088 0.832-0.512 0.832-0.512a306.88 306.88 0 0 1 5.632-3.2l1.92-1.024 0.896-0.512 0.96-0.512a336.832 336.832 0 0 1 5.76-3.072l2.048-1.024 1.92-0.96 2.112-1.024 1.92-0.96 2.048-0.96 2.112-1.024 2.112-0.96 1.984-0.896 1.088-0.512 1.152-0.512 2.112-0.896 2.048-0.896a426.88 426.88 0 0 1 4.416-1.92l1.088-0.448 1.024-0.384 2.304-0.96 2.24-0.896 1.088-0.448 1.088-0.448 2.304-0.896 2.24-0.896 2.304-0.832 2.304-0.896 2.304-0.832 2.368-0.896 1.152-0.384 1.088-0.384 2.56-0.896 2.24-0.768 1.28-0.448 1.216-0.448a536.32 536.32 0 0 1 2.368-0.768l2.368-0.768 2.432-0.832 1.28-0.384 2.432-0.768 1.088-0.384 2.816-0.832 2.24-0.64 2.624-0.832 2.56-0.768 2.496-0.704 2.496-0.768 2.688-0.704 2.496-0.704 2.688-0.768 1.216-0.32 2.624-0.64 1.472-0.448 2.368-0.64 1.472-0.32 2.688-0.64 1.152-0.32a664.576 664.576 0 0 1 5.504-1.344l2.496-0.64 2.944-0.64 2.56-0.64 2.752-0.576 1.472-0.32 1.472-0.32 2.56-0.576 2.88-0.576 2.688-0.576 1.408-0.256 1.408-0.256 2.944-0.64 2.56-0.512 2.944-0.512 2.944-0.576 2.816-0.512 2.752-0.512 1.536-0.256 1.472-0.256 2.56-0.448 1.664-0.256 1.664-0.256 2.304-0.384 1.728-0.32 3.136-0.448 1.344-0.256 2.944-0.448 1.664-0.192 1.6-0.256 2.688-0.384 3.2-0.448 2.816-0.384 2.816-0.384 3.264-0.448 2.56-0.32 3.456-0.384 3.072-0.384 2.88-0.32 1.6-0.192 3.072-0.32 3.2-0.32 3.008-0.32 1.28-0.128 3.712-0.384 2.56-0.256 1.664-0.128 3.136-0.256 3.008-0.256 1.472-0.128 3.264-0.256 1.92-0.128 3.008-0.256 3.2-0.192 3.2-0.192 3.2-0.256 1.92-0.064a910.72 910.72 0 0 1 6.4-0.384l2.496-0.128 1.664-0.064 1.664-0.064a922.304 922.304 0 0 1 7.872-0.32l3.584-0.128 3.328-0.128h1.28l3.008-0.128h1.728l3.776-0.064A942.592 942.592 0 0 1 512 64z m0 712c-138.24 0-260.16-30.144-332.032-76.032v88.064c0 1.28 0.384 2.88 1.408 5.056l0.128 0.384a53.76 53.76 0 0 0 10.432 13.824c13.248 13.44 35.2 27.392 64.064 39.872 65.536 28.16 157.248 44.8 256 44.8 98.752 0 190.464-16.64 256-44.8 28.928-12.48 50.816-26.368 64.064-39.872a53.76 53.76 0 0 0 10.432-13.824 12.672 12.672 0 0 0 1.536-5.44v-88.064C772.16 745.856 650.304 776 512 776z m264-24a32 32 0 1 1 0 64 32 32 0 0 1 0-64zM512 592c-138.24 0-260.16-30.144-332.032-76.032v112.128l3.392 3.584c14.528 14.72 37.632 29.44 67.904 42.496C318.4 702.976 411.712 720 512 720c100.288 0 193.6-16.96 260.736-45.824 30.272-12.992 53.376-27.776 67.904-42.496l3.392-3.584V515.968C772.16 561.856 650.24 592 512 592z m264-20.032a32 32 0 1 1 0 64 32 32 0 0 1 0-64zM512 408.064c-138.24 0-260.16-30.144-332.032-76.032V444.16l3.392 3.584c14.528 14.72 37.632 29.44 67.904 42.496C318.4 519.04 411.712 536.064 512 536.064c100.288 0 193.6-16.96 260.736-45.824 30.272-12.992 53.376-27.776 67.904-42.496l3.392-3.584V331.968C772.16 377.856 650.24 408 512 408z m264-16a32 32 0 1 1 0 64 32 32 0 0 1 0-64zM512 131.968a874.048 874.048 0 0 0-20.928 0.256l-2.496 0.064-2.24 0.064h-1.216l-6.784 0.32-2.368 0.064-1.984 0.064-3.008 0.192-2.688 0.128h-1.6l-3.008 0.192-1.088 0.064-2.944 0.192-2.944 0.192-3.392 0.256-2.176 0.128-2.816 0.192-2.944 0.256-3.712 0.256-1.92 0.192-2.88 0.256-2.56 0.192-3.776 0.384-3.2 0.32-2.624 0.256-2.752 0.256-2.624 0.32-1.664 0.192-2.752 0.32-3.712 0.448-2.752 0.32-3.008 0.384-2.24 0.256-3.008 0.448-2.56 0.32-2.56 0.384-1.92 0.256-2.56 0.384-2.88 0.448-2.752 0.448-3.392 0.512-1.728 0.32-2.56 0.384-3.712 0.64-2.688 0.512-2.816 0.448-2.56 0.512-2.432 0.448-2.432 0.448-2.88 0.576-2.56 0.512-3.264 0.64-2.368 0.512-3.136 0.64-2.176 0.512-2.304 0.512-2.304 0.512-2.56 0.64-1.152 0.256-2.432 0.576-2.56 0.64-2.752 0.64-2.432 0.64-7.296 1.92-2.368 0.64-2.368 0.64-2.304 0.64a533.312 533.312 0 0 0-4.608 1.28l-2.24 0.64c-8.32 2.56-16.448 5.12-24.192 7.872l-2.112 0.768c-4.224 1.536-8.384 3.072-12.416 4.672l-2.624 1.088 0.64-0.256a384.512 384.512 0 0 0-4.096 1.664l-1.856 0.768-0.96 0.448-2.048 0.832a349.568 349.568 0 0 0-2.432 1.088l-1.6 0.704-1.152 0.512-1.92 0.896-1.472 0.64-1.536 0.768-3.84 1.856-1.216 0.64-3.84 1.92-1.472 0.768-1.792 0.896-1.344 0.704-0.832 0.512-0.832 0.448-1.536 0.832-1.6 0.896-0.896 0.512-1.152 0.64-1.664 0.96-2.048 1.28-1.536 0.896-1.088 0.64-0.64 0.448c-9.6 6.016-17.6 12.16-23.936 18.368l-0.896 0.832a53.76 53.76 0 0 0-11.2 14.592 13.824 13.824 0 0 0-1.472 4.928v0.832c0 1.28 0.448 2.944 1.472 5.12A53.76 53.76 0 0 0 192 255.36c13.248 13.44 35.2 27.392 64.064 39.872 65.536 28.16 157.248 44.8 256 44.8 98.752 0 190.464-16.64 256-44.8 28.928-12.48 50.816-26.368 64.064-39.872a53.76 53.76 0 0 0 10.432-13.824 12.672 12.672 0 0 0 1.536-5.504 12.672 12.672 0 0 0-1.536-5.44 53.76 53.76 0 0 0-10.432-13.824c-13.248-13.44-35.2-27.392-64.064-39.872-65.536-28.16-157.248-44.8-256-44.8z" p-id="1131"></path></svg>