<?xml version="1.0" standalone="no"?><!DOCTYPE svg PUBLIC "-//W3C//DTD SVG 1.1//EN" "http://www.w3.org/Graphics/SVG/1.1/DTD/svg11.dtd"><svg t="1677671908475" class="icon" viewBox="0 0 1024 1024" version="1.1" xmlns="http://www.w3.org/2000/svg" p-id="3570" xmlns:xlink="http://www.w3.org/1999/xlink" width="200" height="200"><path d="M512 64a448 448 0 1 0 0 896 448 448 0 0 0 0-896z m262.592 711.424a371.968 371.968 0 1 1-525.248-526.72 371.968 371.968 0 0 1 525.248 526.72zM512 228.032a283.968 283.968 0 1 0 0 567.936 283.968 283.968 0 0 0 0-567.936zM667.52 667.52a219.968 219.968 0 1 1-311.04-311.04 219.968 219.968 0 0 1 311.04 311.04zM488.064 366.272h48c5.312 0 8 2.624 8 8v144c0 5.312-2.688 8-8 8h-48c-5.312 0-8-2.688-8-8v-144c0-5.376 2.688-8 8-8zM464 609.728a48 48 0 1 0 96 0 48 48 0 0 0-96 0z" p-id="3571"></path></svg>