<?xml version="1.0" standalone="no"?><!DOCTYPE svg PUBLIC "-//W3C//DTD SVG 1.1//EN" "http://www.w3.org/Graphics/SVG/1.1/DTD/svg11.dtd"><svg t="1677671898222" class="icon" viewBox="0 0 1024 1024" version="1.1" xmlns="http://www.w3.org/2000/svg" p-id="3260" xmlns:xlink="http://www.w3.org/1999/xlink" width="200" height="200"><path d="M866.944 238.656a448 448 0 0 1-628.288 628.288l54.272-54.272a371.968 371.968 0 0 0 519.68-519.68l54.4-54.4zM512 64c99.84 0 192 32.64 266.432 87.808l41.024-41.024a8 8 0 0 1 11.328 0l42.432 42.432a8 8 0 0 1 0 11.328L164.544 873.216a8 8 0 0 1-11.328 0l-42.432-42.432a8 8 0 0 1 0-11.328l41.024-40.96A448 448 0 0 1 512 64z m237.44 292.16a283.968 283.968 0 0 1-393.28 393.28l46.528-46.528a219.968 219.968 0 0 0 300.224-300.16l46.528-46.592z m-545.856-52.096a372.096 372.096 0 0 0 2.688 419.968l63.552-63.616a283.968 283.968 0 0 1 390.592-390.592l63.552-63.488a371.968 371.968 0 0 0-520.32 97.728z m333.312 264.64a48 48 0 1 1-65.92 65.92l65.92-65.92z m-228.16-140.8c-25.536 61.696-21.12 129.408 8.064 185.6l163.2-163.2v-76.096c0-5.376 2.688-8 8-8h48c5.312 0 8 2.624 8 8v11.968l69.504-69.376A219.968 219.968 0 0 0 308.8 427.84z" p-id="3261"></path></svg>