<?xml version="1.0" standalone="no"?><!DOCTYPE svg PUBLIC "-//W3C//DTD SVG 1.1//EN" "http://www.w3.org/Graphics/SVG/1.1/DTD/svg11.dtd"><svg t="1648464137799" class="icon" viewBox="0 0 1024 1024" version="1.1" xmlns="http://www.w3.org/2000/svg" p-id="112479" xmlns:xlink="http://www.w3.org/1999/xlink" width="200" height="200"><defs><style type="text/css">@font-face { font-family: feedback-iconfont; src: url("//at.alicdn.com/t/font_1031158_u69w8yhxdu.woff2?t=1630033759944") format("woff2"), url("//at.alicdn.com/t/font_1031158_u69w8yhxdu.woff?t=1630033759944") format("woff"), url("//at.alicdn.com/t/font_1031158_u69w8yhxdu.ttf?t=1630033759944") format("truetype"); }
</style></defs><path d="M584 40a32 32 0 0 1 32 32v880a32 32 0 0 1-32 32h-416a32 32 0 0 1-32-32V72a32 32 0 0 1 32-32h416zM544 608H208v304H544V608z m-168 128a48 48 0 1 1 0 96 48 48 0 0 1 0-96z m349.248-65.152l145.472 83.968c3.84 2.24 5.12 7.104 2.944 10.88l-27.968 48.576a8 8 0 0 1-10.944 2.88l-145.472-83.968a8 8 0 0 1-2.944-10.88l27.968-48.576a8 8 0 0 1 10.944-2.88zM928 476.032c4.416 0 8 3.52 8 8v56a8 8 0 0 1-8 7.936h-168a8 8 0 0 1-8-7.936v-56.064c0-4.416 3.584-8 8-8H928z m-384-364.032H208V544H544V112z m301.696 97.728l27.968 48.512a8 8 0 0 1-2.944 10.88l-145.472 84.032a8 8 0 0 1-10.88-2.88l-28.032-48.512a8 8 0 0 1 2.944-10.88l145.472-84.032a8 8 0 0 1 10.88 2.88z" p-id="112480"></path></svg>