<?xml version="1.0" standalone="no"?><!DOCTYPE svg PUBLIC "-//W3C//DTD SVG 1.1//EN" "http://www.w3.org/Graphics/SVG/1.1/DTD/svg11.dtd"><svg t="1648460665950" class="icon" viewBox="0 0 1024 1024" version="1.1" xmlns="http://www.w3.org/2000/svg" p-id="105763" xmlns:xlink="http://www.w3.org/1999/xlink" width="200" height="200"><defs><style type="text/css">@font-face { font-family: feedback-iconfont; src: url("//at.alicdn.com/t/font_1031158_u69w8yhxdu.woff2?t=1630033759944") format("woff2"), url("//at.alicdn.com/t/font_1031158_u69w8yhxdu.woff?t=1630033759944") format("woff"), url("//at.alicdn.com/t/font_1031158_u69w8yhxdu.ttf?t=1630033759944") format("truetype"); }
</style></defs><path d="M476 212h-64V96a32 32 0 0 0-32-32H144a32 32 0 0 0-32 32v832a32 32 0 0 0 32 32h236a32 32 0 0 0 32-32V812h64a160 160 0 0 0 160-160V372a160 160 0 0 0-160-160zM340 888H184V136h156z m224-236a88.1 88.1 0 0 1-88 88h-64V284h64a88.1 88.1 0 0 1 88 88zM800 476h104q8 0 8 8v56q0 8-8 8H800q-8 0-8-8v-56q0-8 8-8zM729.79 333.81a8 8 0 0 0 11.31 0l73.54-73.54a8 8 0 0 0 0-11.31L775 209.36a8 8 0 0 0-11.31 0l-73.5 73.54a8 8 0 0 0 0 11.31z m11.31 356.38a8 8 0 0 0-11.31 0l-39.6 39.6a8 8 0 0 0 0 11.31l73.54 73.54a8 8 0 0 0 11.31 0l39.6-39.6a8 8 0 0 0 0-11.31z" p-id="105764"></path></svg>