<?xml version="1.0" standalone="no"?><!DOCTYPE svg PUBLIC "-//W3C//DTD SVG 1.1//EN" "http://www.w3.org/Graphics/SVG/1.1/DTD/svg11.dtd"><svg t="1653042288666" class="icon" viewBox="0 0 1024 1024" version="1.1" xmlns="http://www.w3.org/2000/svg" p-id="2510" xmlns:xlink="http://www.w3.org/1999/xlink" width="200" height="200"><defs><style type="text/css">@font-face { font-family: feedback-iconfont; src: url("//at.alicdn.com/t/font_1031158_u69w8yhxdu.woff2?t=1630033759944") format("woff2"), url("//at.alicdn.com/t/font_1031158_u69w8yhxdu.woff?t=1630033759944") format("woff"), url("//at.alicdn.com/t/font_1031158_u69w8yhxdu.ttf?t=1630033759944") format("truetype"); }
</style></defs><path d="M642.56 719.530667a16.042667 16.042667 0 0 1 13.482667 24.661333l-130.56 202.496a16.042667 16.042667 0 0 1-26.965334 0L367.957333 744.106667a15.957333 15.957333 0 0 1 13.397334-24.746667h261.290666z m-87.978667 64H469.333333L512 849.493333l42.581333-65.962666zM734.72 366.08c3.072 0 6.144 0.853333 8.704 2.56l202.496 130.645333a15.957333 15.957333 0 0 1 0 26.88L743.424 656.810667a15.957333 15.957333 0 0 1-24.746667-13.397334V382.122667c0-8.874667 7.253333-16.042667 16.042667-16.042667z m-432.042667 7.338667c1.706667 2.56 2.56 5.632 2.56 8.704V643.413333a16.042667 16.042667 0 0 1-24.746666 13.397334L78.165333 526.250667a15.957333 15.957333 0 0 1 0-26.965334l202.496-130.56a15.957333 15.957333 0 0 1 22.186667 4.693334z m313.344 12.544c8.789333 0 15.957333 7.168 15.957334 16.042666v207.957334a16.042667 16.042667 0 0 1-15.957334 16.042666H407.893333a16.042667 16.042667 0 0 1-15.957333-16.042666V402.005333c0-8.874667 7.168-16.042667 15.957333-16.042666H616.106667z m-48.042666 64H456.021333v112.042666h111.957334V449.962667z m-326.741334 20.224l-65.962666 42.581333 65.962666 42.496V470.186667z m541.525334 0v85.077333l65.962666-42.496-65.962666-42.581333zM520.704 74.069333a16.042667 16.042667 0 0 1 4.778667 4.778667l130.56 202.496a15.957333 15.957333 0 0 1-13.397334 24.661333H381.354667a16.042667 16.042667 0 0 1-13.397334-24.746666L498.517333 78.933333a15.957333 15.957333 0 0 1 22.186667-4.778666zM512 176.042667l-42.581333 65.962666H554.666667L512 176.042667z" p-id="2511"></path></svg>