<?xml version="1.0" standalone="no"?><!DOCTYPE svg PUBLIC "-//W3C//DTD SVG 1.1//EN" "http://www.w3.org/Graphics/SVG/1.1/DTD/svg11.dtd"><svg t="1688017189551" class="icon" viewBox="0 0 1024 1024" version="1.1" xmlns="http://www.w3.org/2000/svg" p-id="1061" xmlns:xlink="http://www.w3.org/1999/xlink" width="200" height="200"><path d="M547.968 787.968V864h-376.96a8 8 0 0 1-7.616-5.44l-0.384-2.56v-59.968c0-4.416 3.584-8 8-8l376.96-0.064zM349.12 161.728a8 8 0 0 1 12.864 6.272v74.048l185.984-0.064v76.032H361.984v73.984c0 6.72-7.68 10.432-12.864 6.336l-142.08-112a8 8 0 0 1 0-12.608z m202.88 80.256a308.992 308.992 0 0 1 308.928 303.936l0.064 5.12v3.968A308.992 308.992 0 0 1 557.12 864H547.968v-75.968h4.032a232.96 232.96 0 0 0 232.96-229.12V551.04a232.96 232.96 0 0 0-229.12-232.96l-3.84-0.064h-4.032V241.984h4.032z" p-id="1062"></path></svg>