<?xml version="1.0" standalone="no"?><!DOCTYPE svg PUBLIC "-//W3C//DTD SVG 1.1//EN" "http://www.w3.org/Graphics/SVG/1.1/DTD/svg11.dtd"><svg t="1678006155214" class="icon" viewBox="0 0 1024 1024" version="1.1" xmlns="http://www.w3.org/2000/svg" p-id="3558" xmlns:xlink="http://www.w3.org/1999/xlink" width="200" height="200"><path d="M880 305.024H624V192a32 32 0 0 0-32-32H184v-40a8 8 0 0 0-8-8h-56a8 8 0 0 0-8 8v784c0 4.416 3.584 8 8 8h56a8 8 0 0 0 8-8V640h248v113.024a32 32 0 0 0 32 32h416a32 32 0 0 0 32-32v-416a32 32 0 0 0-32-32zM184 568V232h368v336H184z m656 145.024H504V640h112a8 8 0 0 0 8-8V377.024h216v336z" p-id="3559"></path></svg>