<?xml version="1.0" standalone="no"?><!DOCTYPE svg PUBLIC "-//W3C//DTD SVG 1.1//EN" "http://www.w3.org/Graphics/SVG/1.1/DTD/svg11.dtd"><svg t="1740723548270" class="icon" viewBox="0 0 1024 1024" version="1.1" xmlns="http://www.w3.org/2000/svg" p-id="834" xmlns:xlink="http://www.w3.org/1999/xlink" width="200" height="200"><path d="M72 160h120c4.416 0 8 3.584 8 8v688a8 8 0 0 1-8 8H72a8 8 0 0 1-8-8V168c0-4.416 3.584-8 8-8z m328 0h104c4.416 0 8 3.584 8 8v688a8 8 0 0 1-8 8H400a8 8 0 0 1-8-8V168c0-4.416 3.584-8 8-8z m-128 0h48c4.416 0 8 3.584 8 8v688a8 8 0 0 1-8 8h-48a8 8 0 0 1-8-8V168c0-4.416 3.584-8 8-8z m312 0h48c4.416 0 8 3.584 8 8v688a8 8 0 0 1-8 8h-48a8 8 0 0 1-8-8V168c0-4.416 3.584-8 8-8z m320 0h48c4.416 0 8 3.584 8 8v688a8 8 0 0 1-8 8h-48a8 8 0 0 1-8-8V168c0-4.416 3.584-8 8-8z m-192 0h120c4.416 0 8 3.584 8 8v688a8 8 0 0 1-8 8H712a8 8 0 0 1-8-8V168c0-4.416 3.584-8 8-8z" p-id="835"></path></svg>