<?xml version="1.0" standalone="no"?><!DOCTYPE svg PUBLIC "-//W3C//DTD SVG 1.1//EN" "http://www.w3.org/Graphics/SVG/1.1/DTD/svg11.dtd"><svg t="1677985914993" class="icon" viewBox="0 0 1024 1024" version="1.1" xmlns="http://www.w3.org/2000/svg" p-id="2398" xmlns:xlink="http://www.w3.org/1999/xlink" width="200" height="200"><path d="M142.976 807.04a8 8 0 0 0-8 7.936v56c0 4.48 3.584 8 8 8h738.048a8 8 0 0 0 8-8v-56a8 8 0 0 0-8-8H142.976zM540.032 112c4.288 0 7.808 4.352 7.936 7.808V120l-0.128 472h79.808a8 8 0 0 1 6.464 12.672l-0.128 0.192-115.84 150.848a8 8 0 0 1-12.48 0.256l-0.192-0.256-115.776-150.848a8 8 0 0 1 6.144-12.8l0.192-0.064h79.808l0.192-472c0-3.392 3.456-7.808 7.808-8h56.192z m256 88c4.288 0 7.808 4.352 7.936 7.808V208l-0.192 360.96h51.776a8 8 0 0 1 6.528 12.672l-0.192 0.256-107.136 139.584-1.472 1.984a7.36 7.36 0 0 1-13.248-4.16V208c0-4.416 3.52-8 7.936-8h48z m-520 0c4.416 0 8 3.584 8 8v508.288a8.192 8.192 0 0 1-6.656 9.28 8 8 0 0 1-7.68-2.944l-1.92-2.432-106.112-138.304a8 8 0 0 1 6.08-12.864h52.032L219.968 208c0-3.392 3.456-7.808 7.808-8h48.256z" p-id="2399"></path></svg>