<?xml version="1.0" standalone="no"?><!DOCTYPE svg PUBLIC "-//W3C//DTD SVG 1.1//EN" "http://www.w3.org/Graphics/SVG/1.1/DTD/svg11.dtd"><svg t="1677638344253" class="icon" viewBox="0 0 1024 1024" version="1.1" xmlns="http://www.w3.org/2000/svg" p-id="4588" xmlns:xlink="http://www.w3.org/1999/xlink" width="200" height="200"><path d="M793.984 64H230.016a8 8 0 0 0-8 8v832c0 4.416 3.584 8 8 8h13.12v40c0 4.416 3.584 8 8 8h521.728a8 8 0 0 0 8-8v-40h13.12a8 8 0 0 0 8-8V72a8 8 0 0 0-8-8z m-64 776H294.016V136h147.328l42.688 29.44v423.04c0 4.48 3.52 8 8 8h40a8 8 0 0 0 7.936-8V165.44L582.656 136h147.328v704z" p-id="4589"></path></svg>