<?xml version="1.0" encoding="UTF-8"?>
<svg width="1024px" height="1024px" viewBox="0 0 1024 1024" version="1.1" xmlns="http://www.w3.org/2000/svg" xmlns:xlink="http://www.w3.org/1999/xlink">
    <title>基站与通信网络_线性</title>
    <g id="页面1" stroke="none" stroke-width="1" fill="none" fill-rule="evenodd">
        <g id="基站与通信网络_线性" fill="#000000" fill-rule="nonzero">
            <path d="M512,64 C759.423568,64 960,264.576432 960,512 C960,759.423568 759.423568,960 512,960 C264.576432,960 64,759.423568 64,512 C64,264.576432 264.576432,64 512,64 Z M512,140 C306.550073,140 140,306.550073 140,512 C140,717.449927 306.550073,884 512,884 C717.449927,884 884,717.449927 884,512 C884,306.550073 717.449927,140 512,140 Z M511.5,407 C546.570082,407 575,435.429918 575,470.5 C575,495.871417 560.120391,517.767515 538.611596,527.937872 L614.631,755.999336 L564.034,755.999336 L550.701,715.999336 L473.298,715.999336 L459.965,755.999336 L409.369,755.999336 L485.254716,528.339524 C463.280177,518.352436 448,496.210656 448,470.5 C448,435.429918 476.429918,407 511.5,407 Z M326.290073,272 L360,308.003595 C317.04485,348.557634 290.2211,406.134085 290.2211,469.999588 C290.2211,533.865091 317.04485,591.441542 360,631.995581 L326.290946,668 C273.786924,618.433668 241,548.060212 241,469.999588 C241,391.939396 273.78656,321.566288 326.290073,272 Z M512,599.894 L489.298,667.999336 L534.701,667.999336 L512,599.894 Z M709.932024,283 C755.8511,331.668477 784,397.295875 784,469.5 C784,541.704125 755.8511,607.331523 709.932024,656 L674,622.094799 C711.572323,582.274743 734.604741,528.578026 734.604741,469.5 C734.604741,410.421974 711.572323,356.725257 674,316.905201 L709.932024,283 Z M393.897802,344 L428,380.005651 C403.863683,402.536478 388.792581,434.521438 388.792581,469.999588 C388.792581,505.47817 403.864051,537.463478 428,559.994349 L393.898685,596 C360.103512,564.456365 339,519.67367 339,469.999588 C339,420.325939 360.103144,375.54359 393.897802,344 Z M637.900528,351 C667.100063,381.922302 685,423.621573 685,469.5 C685,515.378427 667.100063,557.077698 637.900528,588 L602,554.148608 C622.860022,532.060669 635.64791,502.273149 635.64791,469.5 C635.64791,436.726851 622.860022,406.939331 602,384.851392 L637.900528,351 Z" id="形状"></path>
        </g>
    </g>
</svg>