<?xml version="1.0" standalone="no"?><!DOCTYPE svg PUBLIC "-//W3C//DTD SVG 1.1//EN" "http://www.w3.org/Graphics/SVG/1.1/DTD/svg11.dtd"><svg t="1677575704881" class="icon" viewBox="0 0 1024 1024" version="1.1" xmlns="http://www.w3.org/2000/svg" p-id="2090" xmlns:xlink="http://www.w3.org/1999/xlink" width="200" height="200"><path d="M880 328a32 32 0 0 1 32 32v520a32 32 0 0 1-32 32H144a32 32 0 0 1-32-32V360a32 32 0 0 1 32-32h736z m-40 72H184v440h656V400z m-16-192c4.416 0 8 3.584 8 8v48a8 8 0 0 1-8 8H200a8 8 0 0 1-8-8v-48c0-4.416 3.584-8 8-8h624zM744 88c4.416 0 8 3.584 8 8v48a8 8 0 0 1-8 8H280a8 8 0 0 1-8-8V96c0-4.416 3.584-8 8-8h464z m-49.472 392.704L481.92 773.44a16.128 16.128 0 0 1-26.048 0l-126.4-174.08A8 8 0 0 1 336 586.752h55.168c5.12 0 10.048 2.496 13.056 6.592l64.64 88.96L619.776 474.56a16.128 16.128 0 0 1 13.056-6.656H688c6.528 0.128 10.24 7.488 6.528 12.8z" p-id="2091"></path></svg>