<?xml version="1.0" standalone="no"?><!DOCTYPE svg PUBLIC "-//W3C//DTD SVG 1.1//EN" "http://www.w3.org/Graphics/SVG/1.1/DTD/svg11.dtd"><svg t="1678083255222" class="icon" viewBox="0 0 1024 1024" version="1.1" xmlns="http://www.w3.org/2000/svg" p-id="920" xmlns:xlink="http://www.w3.org/1999/xlink" width="200" height="200"><path d="M886.016 276.992a32 32 0 0 1 32 31.488v107.328H928a32 32 0 0 1 32 31.488v128.896a32 32 0 0 1-31.488 32h-10.496v106.816a32 32 0 0 1-31.488 32H96a32 32 0 0 1-32-31.488V308.992a32 32 0 0 1 31.488-32h790.528z m-40 72H136v326.016h710.016V348.992z m-575.04 62.976c4.48 0 8 3.584 8 8v184a8 8 0 0 1-8 8.064h-48a8 8 0 0 1-8-8.064V420.032c0-4.48 3.584-8 8-8h48z m122.048 0c4.416 0 8 3.584 8 8v184a8 8 0 0 1-8 8.064h-48a8 8 0 0 1-8-8.064V420.032c0-4.48 3.584-8 8-8h48z m121.984 0c4.416 0 8 3.584 8 8v184a8 8 0 0 1-8 8.064h-48a8 8 0 0 1-8-8.064V420.032c0-4.48 3.584-8 8-8h48z m121.984 0c4.48 0 8 3.584 8 8v184a8 8 0 0 1-8 8.064h-48a8 8 0 0 1-8-8.064V420.032c0-4.48 3.584-8 8-8h48z m121.984 0c4.48 0 8 3.584 8 8v184a8 8 0 0 1-8 8.064h-48a8 8 0 0 1-8-8.064V420.032c0-4.48 3.584-8 8-8h48z" p-id="921"></path></svg>