<?xml version="1.0" standalone="no"?><!DOCTYPE svg PUBLIC "-//W3C//DTD SVG 1.1//EN" "http://www.w3.org/Graphics/SVG/1.1/DTD/svg11.dtd"><svg t="1750919524135" class="icon" viewBox="0 0 1024 1024" version="1.1" xmlns="http://www.w3.org/2000/svg" p-id="1231" xmlns:xlink="http://www.w3.org/1999/xlink" width="200" height="200"><path d="M181.759 102.478l235.143 59.754a15.387 15.387 0 0 1 11.52 13.373l9.67 96.195h326.135c16.995 0 30.773 13.778 30.773 30.774 0 0.906-0.04 1.813-0.12 2.716l-52.245 589.497c-1.408 15.88-14.71 28.057-30.653 28.057H342.3c-15.943 0-29.246-12.176-30.653-28.057L259.402 305.29c-1.5-16.929 11.007-31.869 27.936-33.37 0.903-0.08 1.81-0.12 2.717-0.12h86.18l-5.818-57.88L166.6 162.128c-8.136-2.067-13.094-10.263-11.197-18.4l0.074-0.302 7.579-29.825c2.093-8.236 10.466-13.216 18.702-11.123zM716.543 492.02H337.736l32.73 369.278h313.35l32.727-369.278zM382.422 333.346h-58.747l7.925 89.435h59.811l-8.99-89.435z m348.184 0H444.278l8.99 89.435H722.68l7.927-89.435z" p-id="1232"></path></svg>