<?xml version="1.0" standalone="no"?><!DOCTYPE svg PUBLIC "-//W3C//DTD SVG 1.1//EN" "http://www.w3.org/Graphics/SVG/1.1/DTD/svg11.dtd"><svg t="1678011353209" class="icon" viewBox="0 0 1024 1024" version="1.1" xmlns="http://www.w3.org/2000/svg" p-id="5186" xmlns:xlink="http://www.w3.org/1999/xlink" width="200" height="200"><path d="M784 816c4.416 0 8.064 3.648 8.064 8v48a8.03 8.03 0 0 1-8.064 8.064H240a8.064 8.064 0 0 1-8.064-8.064v-48c0-4.352 3.648-8 8.064-8h544.064z m175.104-670.528a16 16 0 0 1 0.896 5.376v634.368a16 16 0 0 1-21.312 15.104C796.48 750.208 654.208 725.184 512 725.184c-142.272 0-284.544 25.024-426.688 75.136A16 16 0 0 1 64 785.28V150.848a16 16 0 0 1 21.312-15.168C227.52 185.792 369.792 210.816 512 210.816c142.272 0 284.544-25.024 426.688-75.136a16 16 0 0 1 20.48 9.792z m-71.04 82.24l-1.92 0.512C764.672 264.128 638.656 282.56 512 282.816a1328.64 1328.64 0 0 1-374.144-54.592l-1.92-0.512v480.512l1.92-0.448a1329.6 1329.6 0 0 1 369.6-54.592H512c124.928 0 249.728 18.24 374.144 54.592l1.92 0.512v-480.64z m-460.16 192.384v131.84a8 8 0 0 1-7.936 8.064h-39.936a8 8 0 0 1-8-8V427.968c0-4.416 3.584-8 8-8h48l-0.064 0.128zM532.096 560h-40.064a8 8 0 0 1-8-8V380.032c0-4.48 3.584-8 8-8h40.064c4.416 0 8 3.584 8 8V552a8 8 0 0 1-8 8z m119.936-88v80a8 8 0 0 1-8 8h-40a8 8 0 0 1-8-8v-80c0-4.416 3.584-8 8-8h40c4.48 0 8 3.584 8 8z" p-id="5187"></path></svg>