<?xml version="1.0" standalone="no"?><!DOCTYPE svg PUBLIC "-//W3C//DTD SVG 1.1//EN" "http://www.w3.org/Graphics/SVG/1.1/DTD/svg11.dtd"><svg t="1677985931222" class="icon" viewBox="0 0 1024 1024" version="1.1" xmlns="http://www.w3.org/2000/svg" p-id="3018" xmlns:xlink="http://www.w3.org/1999/xlink" width="200" height="200"><path d="M276.032 784c4.416 0 8 3.584 8 8v27.2l23.552-13.568a8 8 0 0 1 10.88 2.88l4.032 6.976a8 8 0 0 1-2.944 10.88L296 840l23.552 13.632c3.84 2.176 5.12 7.04 2.944 10.88l-3.968 6.976a8 8 0 0 1-10.944 2.88L283.968 860.8V888a8 8 0 0 1-8 8h-8a8 8 0 0 1-8-8v-27.2l-23.552 13.568a8 8 0 0 1-10.88-2.88l-4.032-6.976a8 8 0 0 1 2.944-10.88L248 840l-23.552-13.632a8 8 0 0 1-2.944-10.88l3.968-6.976a8 8 0 0 1 10.944-2.88l23.552 13.568V792c0-4.416 3.584-8 8-8h8z m480 0c4.416 0 7.936 3.584 7.936 8v27.2l23.616-13.568a8 8 0 0 1 10.88 2.88l4.032 6.976a8 8 0 0 1-2.944 10.88L776 840l23.552 13.632c3.84 2.176 5.12 7.04 2.944 10.88l-3.968 6.976a8 8 0 0 1-10.944 2.88L764.032 860.8V888a8 8 0 0 1-8.064 8h-7.936a8 8 0 0 1-8.064-8v-27.2l-23.552 13.568a8 8 0 0 1-10.88-2.88l-4.032-6.976a8 8 0 0 1 2.944-10.88L728 840l-23.552-13.632a8 8 0 0 1-2.944-10.88l3.968-6.976a8 8 0 0 1 10.944-2.88l23.552 13.568V792c0-4.416 3.584-8 8.064-8h7.936z m-160 0c4.416 0 7.936 3.584 7.936 8v27.2l23.616-13.568a8 8 0 0 1 10.88 2.88l4.032 6.976a8 8 0 0 1-2.944 10.88L616 840l23.552 13.632c3.84 2.176 5.12 7.04 2.944 10.88l-3.968 6.976a8 8 0 0 1-10.944 2.88L604.032 860.8V888a8 8 0 0 1-8.064 8h-7.936a8 8 0 0 1-8.064-8v-27.2l-23.552 13.568a8 8 0 0 1-10.88-2.88l-4.032-6.976a8 8 0 0 1 2.944-10.88L568 840l-23.552-13.632a8 8 0 0 1-2.944-10.88l3.968-6.976a8 8 0 0 1 10.944-2.88l23.552 13.568V792c0-4.416 3.584-8 8.064-8h7.936z m-160 0c4.416 0 8 3.584 8 8v27.2l23.552-13.568a8 8 0 0 1 10.88 2.88l4.032 6.976a8 8 0 0 1-2.944 10.88L456 840l23.552 13.632c3.84 2.176 5.12 7.04 2.944 10.88l-3.968 6.976a8 8 0 0 1-10.944 2.88L443.968 860.8V888a8 8 0 0 1-8 8h-8a8 8 0 0 1-8-8v-27.2l-23.552 13.568a8 8 0 0 1-10.88-2.88l-4.032-6.976a8 8 0 0 1 2.944-10.88L408 840l-23.552-13.632a8 8 0 0 1-2.944-10.88l3.968-6.976a8 8 0 0 1 10.944-2.88l23.552 13.568V792c0-4.416 3.584-8 8-8h8z m0-160c4.416 0 8 3.584 8 8v27.2l23.552-13.568a8 8 0 0 1 10.88 2.88l4.032 6.976a8 8 0 0 1-2.944 10.88L456 680l23.552 13.632c3.84 2.176 5.12 7.04 2.944 10.88l-3.968 6.976a8 8 0 0 1-10.944 2.88L443.968 700.8V728a8 8 0 0 1-8 8h-8a8 8 0 0 1-8-8v-27.2l-23.552 13.568a8 8 0 0 1-10.88-2.88l-4.032-6.976a8 8 0 0 1 2.944-10.88L408 680l-23.552-13.632a8 8 0 0 1-2.944-10.88l3.968-6.976a8 8 0 0 1 10.944-2.88l23.552 13.568V632c0-4.416 3.584-8 8-8h8z m320 0c4.416 0 7.936 3.584 7.936 8v27.2l23.616-13.568a8 8 0 0 1 10.88 2.88l4.032 6.976a8 8 0 0 1-2.944 10.88L776 680l23.552 13.632c3.84 2.176 5.12 7.04 2.944 10.88l-3.968 6.976a8 8 0 0 1-10.944 2.88L764.032 700.8V728a8 8 0 0 1-8.064 8h-7.936a8 8 0 0 1-8.064-8v-27.2l-23.552 13.568a8 8 0 0 1-10.88-2.88l-4.032-6.976a8 8 0 0 1 2.944-10.88L728 680l-23.552-13.632a8 8 0 0 1-2.944-10.88l3.968-6.976a8 8 0 0 1 10.944-2.88l23.552 13.568V632c0-4.416 3.584-8 8.064-8h7.936z m-160 0c4.416 0 7.936 3.584 7.936 8v27.2l23.616-13.568a8 8 0 0 1 10.88 2.88l4.032 6.976a8 8 0 0 1-2.944 10.88L616 680l23.552 13.632c3.84 2.176 5.12 7.04 2.944 10.88l-3.968 6.976a8 8 0 0 1-10.944 2.88L604.032 700.8V728a8 8 0 0 1-8.064 8h-7.936a8 8 0 0 1-8.064-8v-27.2l-23.552 13.568a8 8 0 0 1-10.88-2.88l-4.032-6.976a8 8 0 0 1 2.944-10.88L568 680l-23.552-13.632a8 8 0 0 1-2.944-10.88l3.968-6.976a8 8 0 0 1 10.944-2.88l23.552 13.568V632c0-4.416 3.584-8 8.064-8h7.936z m-320 0c4.416 0 8 3.584 8 8v27.2l23.552-13.568a8 8 0 0 1 10.88 2.88l4.032 6.976a8 8 0 0 1-2.944 10.88L296 680l23.552 13.632c3.84 2.176 5.12 7.04 2.944 10.88l-3.968 6.976a8 8 0 0 1-10.944 2.88L283.968 700.8V728a8 8 0 0 1-8 8h-8a8 8 0 0 1-8-8v-27.2l-23.552 13.568a8 8 0 0 1-10.88-2.88l-4.032-6.976a8 8 0 0 1 2.944-10.88L248 680l-23.552-13.632a8 8 0 0 1-2.944-10.88l3.968-6.976a8 8 0 0 1 10.944-2.88l23.552 13.568V632c0-4.416 3.584-8 8-8h8z m328-536a200.064 200.064 0 0 1 194.432 152.96A172.032 172.032 0 0 1 782.848 584H220.032a148.032 148.032 0 0 1 0-296h12.8a140.032 140.032 0 0 1 197.12-98.56A199.936 199.936 0 0 1 604.032 88z m0 72c-46.208 0-88 24.576-110.784 63.808l-0.64 1.152-33.088 58.24-60.416-28.736a68.032 68.032 0 0 0-95.488 46.912l-0.256 0.96-11.712 57.6-71.68 0.064a75.968 75.968 0 0 0-1.28 152h564.608a100.032 100.032 0 0 0 96.64-98.368l0.064-1.664c0-50.688-37.952-93.184-87.68-99.2l-1.536-0.192-50.432-5.376-11.904-49.344c-13.568-56.384-64-97.024-122.688-97.856h-1.728z" p-id="3019"></path></svg>