<?xml version="1.0" standalone="no"?><!DOCTYPE svg PUBLIC "-//W3C//DTD SVG 1.1//EN" "http://www.w3.org/Graphics/SVG/1.1/DTD/svg11.dtd"><svg t="1678011307419" class="icon" viewBox="0 0 1024 1024" version="1.1" xmlns="http://www.w3.org/2000/svg" p-id="3482" xmlns:xlink="http://www.w3.org/1999/xlink" width="200" height="200"><path d="M592 112a96 96 0 0 1 96 96v489.984a96 96 0 0 1-96 96H432V800a96 96 0 0 0 94.4 96H712a96 96 0 0 0 96-94.4V595.712a120.064 120.064 0 1 1 64 0V800a160 160 0 0 1-157.376 160H528a160 160 0 0 1-160-157.376v-8.64H208a96 96 0 0 1-96-96V208a96 96 0 0 1 96-96h384z m0.384 72H208a24 24 0 0 0-24 23.616v490.368c0 13.12 10.56 23.808 23.616 24H592a24 24 0 0 0 24-23.616V208a24 24 0 0 0-23.616-24zM400 524.032a80 80 0 1 1 0 160 80 80 0 0 1 0-160z m0 55.936a24 24 0 1 0 0 48 24 24 0 0 0 0-48zM840 424a56 56 0 1 0 0 112 56 56 0 0 0 0-112zM552 240c4.416 0 8 3.584 8 8v224a8 8 0 0 1-8 8H248a8 8 0 0 1-8-8V248c0-4.416 3.584-8 8-8h304z m-48 56H296v128h208V296z" p-id="3483"></path></svg>