<?xml version="1.0" standalone="no"?><!DOCTYPE svg PUBLIC "-//W3C//DTD SVG 1.1//EN" "http://www.w3.org/Graphics/SVG/1.1/DTD/svg11.dtd"><svg t="1679050472154" class="icon" viewBox="0 0 1024 1024" version="1.1" xmlns="http://www.w3.org/2000/svg" p-id="1800" xmlns:xlink="http://www.w3.org/1999/xlink" width="200" height="200"><path d="M896.32 596.096c9.152 8.192 15.68 21.12 15.68 39.424 0 14.464-4.288 31.488-11.136 43.52l-0.384 0.64-47.552 80.96H904c4.352 0 7.872 3.456 8 7.808v19.584a8 8 0 0 1-7.744 7.936h-85.888a8 8 0 0 1-8-7.68v-21.632a16 16 0 0 1 1.92-7.488l0.192-0.448 52.16-91.2c4.352-7.68 7.744-19.84 7.744-33.472 0-9.728-4.992-14.72-12.096-14.72-7.04 0-12.544 4.608-12.672 14.08v4.992a8 8 0 0 1-7.744 8H816a8 8 0 0 1-8-7.68v-3.52c0-17.792 4.8-28.288 13.824-36.992l0.64-0.64c9.472-9.152 23.68-13.568 37.824-13.568 14.208 0 26.304 3.2 36.032 12.096zM437.824 76.032l0.32 0.448 3.52 5.056 3.52 4.992 5.248 7.488 3.456 4.928 3.456 4.992 3.456 4.928 3.392 4.928 3.392 4.864 3.328 4.928 3.328 4.864 4.928 7.232 3.264 4.864 4.096 6.016 4.032 5.952 3.2 4.8 3.136 4.736L500.8 168l3.904 5.888 4.608 7.04 3.072 4.672 3.008 4.672 3.776 5.76 3.712 5.824 2.944 4.608 1.472 2.304 2.88 4.544 3.648 5.76 3.584 5.632 4.224 6.784 2.816 4.48 4.096 6.784 4.48 7.296a8 8 0 0 1-1.792 10.368l-1.92 1.536-1.216 1.024-1.792 1.472-1.152 0.96-1.088 0.96-1.088 0.96-1.088 0.896-1.024 0.896-1.472 1.28-0.96 0.896-0.896 0.832-0.896 0.832-0.896 0.832-0.832 0.768-0.768 0.832-0.768 0.704a114.176 114.176 0 0 0-0.384 0.384l-0.768 0.768-0.64 0.704a87.296 87.296 0 0 0-0.64 0.704l-0.64 0.64-0.832 0.896-2.048 2.432-0.704 0.832-0.768 0.896-0.704 0.896a120.96 120.96 0 0 0-0.384 0.512l-0.768 0.96-0.704 1.024-0.768 1.024a158.464 158.464 0 0 0-0.384 0.512l-0.832 1.088-0.768 1.152-0.832 1.152a203.2 203.2 0 0 0-0.384 0.64l-0.832 1.152-0.832 1.28-0.832 1.28-0.832 1.28a273.344 273.344 0 0 0-0.448 0.64l-0.832 1.28-0.896 1.408-0.896 1.472-0.896 1.408-0.896 1.472a7.68 7.68 0 0 1-12.992 0.256l-0.192-0.32-2.688-4.48a2228.288 2228.288 0 0 0-2.752-4.48l-2.752-4.608a2302.72 2302.72 0 0 0-2.752-4.48l-2.816-4.608-2.88-4.608a2408.512 2408.512 0 0 0-1.408-2.304l-2.88-4.608-2.88-4.672-2.944-4.672-2.944-4.672-2.944-4.672-1.536-2.368-3.008-4.736a2691.2 2691.2 0 0 0-1.536-2.368l-3.008-4.736a2775.552 2775.552 0 0 0-4.672-7.168l-3.136-4.8-3.136-4.864-3.2-4.8-1.536-2.432-4.032-6.08-4.032-6.144-3.328-4.928-1.6-2.432-4.16-6.208-4.224-6.208-4.224-6.208-3.008-4.48-0.128 0.064C340.928 276.288 286.72 368.384 249.28 448.128c-41.344 88.064-61.312 159.232-61.312 211.84A224 224 0 0 0 557.76 830.144l0.768-0.704 1.28-1.088 1.28-1.28 1.216-1.024a8 8 0 0 1 9.152-1.088l1.792 0.96 1.216 0.64 1.088 0.576 0.64 0.32 0.64 0.32c17.024 8.256 35.904 13.44 56.64 15.36l1.216 0.128a7.36 7.36 0 0 1 5.056 12.032l-0.32 0.32A299.968 299.968 0 0 1 112 659.968c0-131.008 91.264-325.504 273.92-583.488a32 32 0 0 1 51.84-0.448z m214.144 200c40.64 0 68.48 14.976 87.68 36.416 28.928 31.936 34.88 77.056 36.032 163.84l0.128 5.312v5.76l0.064 5.76v6.784l0.064 6.912v10.624l0.064 11.008v36.736l-0.064 6.912v6.784l-0.128 5.76v5.76l-0.128 5.312-0.064 7.68-0.128 5.056c-1.6 78.528-8.32 120.768-35.84 151.104-19.2 21.44-47.04 36.48-87.68 36.48-40.576 0-67.648-15.04-86.912-36.48-28.672-31.68-35.2-76.352-36.672-161.728l-0.064-5.376v-2.688l-0.128-5.632v-5.952L528 572.16v-24.832l-0.064-7.488v-29.312l0.064-6.912v-3.2l0.064-6.144 0.064-6.016c0.96-94.656 6.656-142.464 36.864-175.808 19.2-21.44 46.336-36.48 86.912-36.48z m0 64c-19.008 0-29.76 4.736-38.976 14.784l-0.512 0.576c-9.024 10.048-14.592 26.112-17.536 61.568l-0.256 2.688-0.064 1.408-0.192 2.816-0.128 1.408-0.192 2.944c-0.32 4.928-0.64 10.176-0.832 15.808l-0.128 3.392-0.128 3.904-0.128 3.008-0.064 3.136-0.192 5.248-0.128 5.44v2.24l-0.128 5.184-0.064 4.672v3.2l-0.128 3.2v8.32l-0.128 5.888v16.896L592 529.792v35.072l0.064 6.848 0.064 5.76 0.064 5.696 0.064 5.44v2.688l0.128 5.312 0.128 5.12 0.064 4.352 0.128 4.288 0.128 4.096 0.128 4.096 0.128 3.584 0.128 3.52 0.128 3.456 0.128 3.392 0.896 15.552 0.256 2.88c2.816 37.76 8.32 54.784 17.472 65.216l0.64 0.64c9.216 10.304 19.968 15.232 39.296 15.232 19.264 0 30.72-4.992 39.68-14.848l0.512-0.576c7.616-8.384 12.608-21.312 15.68-47.168l0.256-1.984 0.128-1.024 0.192-2.112 0.448-4.352 0.192-2.24 0.192-2.304 0.064-1.216 0.192-2.368 0.192-2.432 0.064-1.28 0.192-2.56v-1.28l0.256-3.2 0.128-2.56 0.128-2.56 0.128-3.456 0.192-3.648 0.064-2.752 0.128-2.816 0.128-3.84 0.128-3.968v-1.984l0.128-4.096 0.128-4.8v-2.432l0.128-5.056v-2.56l0.128-5.184V584l0.064-5.568v-6.72l0.128-13.696v-50.944l-0.064-6.912v-6.592l-0.064-2.752v-5.44L711.68 480l-0.064-5.12-0.064-5.056-0.064-2.432-0.128-4.8-0.064-4.096-0.128-3.968-0.128-3.84v-1.792l-0.192-3.456v-1.728l-0.192-3.328-0.128-3.328-0.192-3.2-0.128-3.072-0.192-3.008-0.192-3.008-0.064-1.408-0.256-2.816a515.84 515.84 0 0 0-0.064-1.408l-0.192-2.752-0.256-2.56a387.84 387.84 0 0 0-0.64-6.4l-0.192-2.304c-3.008-27.136-8-40.64-15.616-49.344l-0.576-0.64c-9.024-10.112-20.48-15.168-40.064-15.168z" p-id="1801"></path></svg>