<?xml version="1.0" standalone="no"?><!DOCTYPE svg PUBLIC "-//W3C//DTD SVG 1.1//EN" "http://www.w3.org/Graphics/SVG/1.1/DTD/svg11.dtd"><svg t="1678011282052" class="icon" viewBox="0 0 1024 1024" version="1.1" xmlns="http://www.w3.org/2000/svg" p-id="2550" xmlns:xlink="http://www.w3.org/1999/xlink" width="200" height="200"><path d="M896.32 596.096c9.152 8.192 15.68 21.12 15.68 39.424 0 14.464-4.288 31.488-11.136 43.52l-0.384 0.64-47.552 80.96H904c4.352 0 7.872 3.456 8 7.808v19.584a8 8 0 0 1-7.744 7.936h-85.888a8 8 0 0 1-8-7.68v-21.632a16 16 0 0 1 1.92-7.488l0.192-0.448 52.16-91.2c4.352-7.68 7.744-19.84 7.744-33.472 0-9.728-4.992-14.72-12.096-14.72-7.04 0-12.544 4.608-12.672 14.08v4.992a8 8 0 0 1-7.744 8H816a8 8 0 0 1-8-7.68v-3.52c0-17.792 4.8-28.288 13.824-36.992l0.64-0.64c9.472-9.152 23.68-13.568 37.824-13.568 14.208 0 26.304 3.2 36.032 12.096zM437.824 76.032l0.32 0.448 3.52 5.056 3.52 4.992 3.52 4.992 1.728 2.496 3.456 4.928 3.456 4.992 3.456 4.928 3.392 4.928 3.392 4.864 3.328 4.928 3.328 4.864 3.328 4.864 1.6 2.368 3.264 4.864 3.264 4.8 1.6 2.432 3.2 4.736 3.2 4.8 3.2 4.736 3.2 4.736c0.448 0.832 0.96 1.6 1.536 2.368l3.072 4.736 3.072 4.736 1.536 2.304 3.072 4.672 3.008 4.672 3.008 4.672 1.536 2.304 2.944 4.608 2.944 4.608 1.472 2.304 2.88 4.544 2.944 4.608 1.408 2.24 2.88 4.544 4.224 6.784 2.816 4.48 2.752 4.48 1.344 2.304 2.752 4.48L556.8 256c-9.6 6.656-18.368 14.4-26.496 23.296l-0.768 0.832a153.344 153.344 0 0 0-24.768 36.928 2110.72 2110.72 0 0 0-3.968-6.72l-2.688-4.48-2.688-4.48a2228.288 2228.288 0 0 0-2.752-4.48l-2.752-4.608a2302.72 2302.72 0 0 0-2.752-4.48l-2.816-4.608-2.88-4.608a2408.512 2408.512 0 0 0-1.408-2.304l-2.88-4.608-2.88-4.672-2.944-4.672-2.944-4.672-2.944-4.672a2626.56 2626.56 0 0 0-1.536-2.368l-3.008-4.736a2691.2 2691.2 0 0 0-1.536-2.368l-3.008-4.736a2775.552 2775.552 0 0 0-4.672-7.168l-3.136-4.8-3.136-4.864-3.2-4.8a2951.616 2951.616 0 0 0-1.536-2.432l-3.2-4.864a3019.392 3019.392 0 0 0-1.664-2.432l-3.2-4.928-3.328-4.928a3134.976 3134.976 0 0 0-1.6-2.432l-3.328-4.928a3204.416 3204.416 0 0 0-1.664-2.56l-3.392-4.928-3.328-4.992a3317.632 3317.632 0 0 0-1.728-2.496l-2.176-3.2-0.128 0.064C340.928 276.288 286.72 368.384 249.28 448.128c-41.344 88.064-61.312 159.232-61.312 211.84a224 224 0 0 0 378.496 162.24c23.552 13.824 51.072 21.312 82.56 21.76a299.968 299.968 0 0 1-536.96-184C112 528.96 203.264 334.464 385.856 76.48a32 32 0 0 1 51.968-0.448z m214.144 200c40.64 0 68.48 14.976 87.68 36.416 28.928 31.936 34.88 77.056 36.032 163.84l0.128 5.312v5.76l0.064 5.76v6.784l0.064 6.912v10.624l0.064 11.008v36.736l-0.064 6.912v6.784l-0.128 5.76v5.76l-0.128 5.312c-1.152 86.784-7.104 131.904-36.032 163.84-19.2 21.44-47.04 36.48-87.68 36.48-40.576 0-67.648-15.04-86.912-36.48-29.568-32.64-35.648-79.104-36.8-169.792v-5.632l-0.128-5.952v-6.016l-0.064-8.64v-16.192L528 539.84v-29.312l0.064-6.912v-3.2l0.064-6.144 0.064-6.016c0.96-94.656 6.656-142.464 36.864-175.808 19.2-21.44 46.336-36.48 86.912-36.48z m0 64c-19.008 0-29.76 4.736-38.976 14.784l-0.512 0.576c-11.328 12.544-17.088 34.56-19.328 92.032l-0.128 3.904-0.192 6.144-0.128 4.16-0.064 2.176-0.128 4.352v2.24l-0.128 5.184-0.064 4.672v3.2l-0.128 3.2v8.32l-0.128 5.888v16.896L592 529.792v35.072l0.064 6.848 0.064 5.76 0.064 5.696 0.064 5.44v2.688l0.128 5.312 0.128 5.12 0.064 4.352 0.128 4.288c0 1.344 0 2.752 0.128 4.096l0.128 4.096c1.984 61.12 7.68 84.48 19.136 97.6l0.64 0.64c9.216 10.304 19.968 15.232 39.296 15.232 19.264 0 30.72-4.992 39.68-14.848l0.512-0.576c9.728-10.752 15.232-28.928 17.856-72.32l0.192-3.2 0.256-5.12 0.128-3.456 0.192-3.648 0.192-5.568 0.128-3.84 0.128-3.968v-1.984l0.128-4.096 0.128-4.8v-2.432l0.128-5.056v-2.56l0.128-5.184V584l0.064-5.568v-6.72l0.128-13.696v-50.944l-0.064-6.912v-6.592l-0.064-2.752v-5.44L711.68 480l-0.064-5.12-0.064-5.056-0.064-2.432-0.128-4.8-0.064-4.096-0.128-3.968-0.128-3.84c-1.92-59.648-7.424-82.304-18.496-94.912l-0.576-0.64c-9.024-10.112-20.48-15.168-40.064-15.168z" p-id="2551"></path></svg>