<?xml version="1.0" standalone="no"?><!DOCTYPE svg PUBLIC "-//W3C//DTD SVG 1.1//EN" "http://www.w3.org/Graphics/SVG/1.1/DTD/svg11.dtd"><svg t="1678011336383" class="icon" viewBox="0 0 1024 1024" version="1.1" xmlns="http://www.w3.org/2000/svg" p-id="4570" xmlns:xlink="http://www.w3.org/1999/xlink" width="200" height="200"><path d="M744 136v54.016H571.968a32 32 0 0 0-32 32v256H384V344a16 16 0 0 0-16-16H104a16 16 0 0 0-16 16v336c0 8.832 7.232 16 16 16h264a16 16 0 0 0 16-16V545.984h156.032v256a32 32 0 0 0 32 32H744V888c0 4.416 3.584 8 8 8h176a8 8 0 0 0 8-8V712a8 8 0 0 0-8-8H752a8 8 0 0 0-8 8v54.016H608V545.92h136v54.016c0 4.416 3.584 8 8 8h176a8 8 0 0 0 8-8v-176a8 8 0 0 0-8-7.936H752a8 8 0 0 0-8 8v54.016H608V257.92h136v54.016c0 4.416 3.584 8 8 8h176a8 8 0 0 0 8-8v-176a8 8 0 0 0-8-7.936H752a8 8 0 0 0-8 8z m128 634.688v58.688a2.688 2.688 0 0 1-2.688 2.752h-58.688a2.688 2.688 0 0 1-2.752-2.752v-58.688c0-1.472 1.28-2.688 2.752-2.688h58.688a2.704 2.704 0 0 1 2.688 2.688zM869.312 480a2.704 2.704 0 0 1 2.688 2.688v58.688a2.688 2.688 0 0 1-2.688 2.752h-58.688a2.688 2.688 0 0 1-2.752-2.752v-58.688c0-1.472 1.28-2.688 2.752-2.688h58.688zM320 632H152V392h168v240z m552-437.312v58.688a2.688 2.688 0 0 1-2.688 2.752h-58.688a2.688 2.688 0 0 1-2.752-2.752v-58.688c0-1.472 1.28-2.688 2.752-2.688h58.688a2.704 2.704 0 0 1 2.688 2.688z" p-id="4571"></path></svg>