<?xml version="1.0" standalone="no"?><!DOCTYPE svg PUBLIC "-//W3C//DTD SVG 1.1//EN" "http://www.w3.org/Graphics/SVG/1.1/DTD/svg11.dtd"><svg t="1658228675255" class="icon" viewBox="0 0 1024 1024" version="1.1" xmlns="http://www.w3.org/2000/svg" p-id="23296" xmlns:xlink="http://www.w3.org/1999/xlink" width="200" height="200"><defs><style type="text/css">@font-face { font-family: feedback-iconfont; src: url("//at.alicdn.com/t/font_1031158_u69w8yhxdu.woff2?t=1630033759944") format("woff2"), url("//at.alicdn.com/t/font_1031158_u69w8yhxdu.woff?t=1630033759944") format("woff"), url("//at.alicdn.com/t/font_1031158_u69w8yhxdu.ttf?t=1630033759944") format("truetype"); }
</style></defs><path d="M928 160c17.673 0 32 14.327 32 32v640c0 17.673-14.327 32-32 32H96c-17.673 0-32-14.327-32-32V192c0-17.673 14.327-32 32-32z m-40 72H136v560h752V232zM352.88 362c82.843 0 150 67.157 150 150s-67.157 150-150 150-150-67.157-150-150 67.157-150 150-150z m460.24 186c5.333 0 8 2.667 8 8v56c0 5.333-2.667 8-8 8H574.54c-5.333 0-8-2.667-8-8v-56c0-5.333 2.667-8 8-8h238.58zM352.88 434c-43.058 0.05-77.95 34.942-78 78 0 43.078 34.922 78 78 78s78-34.922 78-78-34.922-78-78-78z m373.71-30c5.333 0 8 2.667 8 8v56c0 5.333-2.667 8-8 8H574.54c-5.333 0-8-2.667-8-8v-56c0-5.333 2.667-8 8-8h152.05z" p-id="23297"></path></svg>