<?xml version="1.0" standalone="no"?><!DOCTYPE svg PUBLIC "-//W3C//DTD SVG 1.1//EN" "http://www.w3.org/Graphics/SVG/1.1/DTD/svg11.dtd"><svg t="1712580510046" class="icon" viewBox="0 0 1024 1024" version="1.1" xmlns="http://www.w3.org/2000/svg" p-id="834" xmlns:xlink="http://www.w3.org/1999/xlink" width="200" height="200"><path d="M184 112c4.416 0 8 3.584 8 8v127.552A411.136 411.136 0 0 0 512 400a411.072 411.072 0 0 0 320-152.448V120c0-4.416 3.584-8 8-8h64c4.416 0 8 3.584 8 8v792a8 8 0 0 1-8 8h-64a8 8 0 0 1-8-8v-48.64l-58.752-58.688-53.056 53.12a48 48 0 0 1-67.328 0.448l-0.576-0.512-53.056-53.12-53.056 53.12a48 48 0 0 1-67.2 0.512l-0.64-0.512-53.056-53.12-53.12 53.12a48 48 0 0 1-67.2 0.512l-0.64-0.512-53.056-53.12-58.752 58.752a8.128 8.128 0 0 1-0.512 0.512V912a8 8 0 0 1-8 8h-64a8 8 0 0 1-8-8V120c0-4.416 3.584-8 8-8h64z m648 583.232H192v78.208l25.344-25.344a48 48 0 0 1 66.688-1.088l0.64 0.512 0.64 0.64 52.928 52.992 53.12-53.12a48 48 0 0 1 67.264-0.512l53.632 53.632 53.12-53.12a48 48 0 0 1 67.264-0.512l53.632 53.632 53.12-53.12a48 48 0 0 1 67.264-0.512l0.512 0.64L832 772.864v-77.632zM192 351.168v272.064h105.984v-200.96A483.456 483.456 0 0 1 192 351.104z m177.984 99.648v172.416h106.048V470.656a483.328 483.328 0 0 1-106.048-19.84z m178.048 19.84v152.576h105.984V450.816a483.328 483.328 0 0 1-105.984 19.84z m177.92-48.384v200.96H832V351.168a483.392 483.392 0 0 1-105.984 71.04z" p-id="835"></path></svg>