<?xml version="1.0" standalone="no"?><!DOCTYPE svg PUBLIC "-//W3C//DTD SVG 1.1//EN" "http://www.w3.org/Graphics/SVG/1.1/DTD/svg11.dtd"><svg t="1655115489283" class="icon" viewBox="0 0 1024 1024" version="1.1" xmlns="http://www.w3.org/2000/svg" p-id="55760" xmlns:xlink="http://www.w3.org/1999/xlink" width="200" height="200"><defs><style type="text/css">@font-face { font-family: feedback-iconfont; src: url("//at.alicdn.com/t/font_1031158_u69w8yhxdu.woff2?t=1630033759944") format("woff2"), url("//at.alicdn.com/t/font_1031158_u69w8yhxdu.woff?t=1630033759944") format("woff"), url("//at.alicdn.com/t/font_1031158_u69w8yhxdu.ttf?t=1630033759944") format("truetype"); }
</style></defs><path d="M600.064 112.128c17.92 0 31.744 14.336 31.744 31.744v159.744h247.808c17.92 0 31.744 14.336 31.744 31.744v567.808c0 4.608-3.584 8.192-8.192 8.192h-783.36c-4.608 0-8.192-3.584-8.192-8.192V143.872c0-17.92 14.336-31.744 31.744-31.744h456.704z m-44.032 75.776H187.904v647.68h368.128V187.904z m280.064 192h-204.288v456.192h203.776l0.512-456.192z m-61.952 275.968c4.608 0 8.192 3.584 8.192 8.192v79.872c0 4.608-3.584 8.192-8.192 8.192h-79.872c-4.608 0-8.192-3.584-8.192-8.192v-79.872c0-4.608 3.584-8.192 8.192-8.192h79.872z m-448 0c4.608 0 8.192 3.584 8.192 8.192v79.872c0 4.608-3.584 8.192-8.192 8.192H245.76c-4.608 0-8.192-3.584-8.192-8.192v-79.872c0-4.608 3.584-8.192 8.192-8.192h80.384z m172.032 0c4.608 0 8.192 3.584 8.192 8.192v79.872c0 4.608-3.584 8.192-8.192 8.192H417.792c-4.608 0-8.192-3.584-8.192-8.192v-79.872c0-4.608 3.584-8.192 8.192-8.192h80.384z m275.968-192c4.608 0 8.192 3.584 8.192 8.192v79.872c0 4.608-3.584 8.192-8.192 8.192h-79.872c-4.608 0-8.192-3.584-8.192-8.192V472.064c0-4.608 3.584-8.192 8.192-8.192h79.872z m-448 0c4.608 0 8.192 3.584 8.192 8.192v79.872c0 4.608-3.584 8.192-8.192 8.192H245.76c-4.608 0-8.192-3.584-8.192-8.192V472.064c0-4.608 3.584-8.192 8.192-8.192h80.384z m172.032 0c4.608 0 8.192 3.584 8.192 8.192v79.872c0 4.608-3.584 8.192-8.192 8.192H417.792c-4.608 0-8.192-3.584-8.192-8.192V472.064c0-4.608 3.584-8.192 8.192-8.192h80.384zM326.144 271.872c4.608 0 8.192 3.584 8.192 8.192v79.872c0 4.608-3.584 8.192-8.192 8.192H245.76c-4.608 0-8.192-3.584-8.192-8.192V280.064c0-4.608 3.584-8.192 8.192-8.192h80.384z m172.032 0c4.608 0 8.192 3.584 8.192 8.192v79.872c0 4.608-3.584 8.192-8.192 8.192H417.792c-4.608 0-8.192-3.584-8.192-8.192V280.064c0-4.608 3.584-8.192 8.192-8.192h80.384z" p-id="55761"></path></svg>