<?xml version="1.0" standalone="no"?><!DOCTYPE svg PUBLIC "-//W3C//DTD SVG 1.1//EN" "http://www.w3.org/Graphics/SVG/1.1/DTD/svg11.dtd"><svg t="1665396601254" class="icon" viewBox="0 0 1024 1024" version="1.1" xmlns="http://www.w3.org/2000/svg" p-id="1209" xmlns:xlink="http://www.w3.org/1999/xlink" width="200" height="200"><path d="M764.032 504a195.968 195.968 0 1 1 0 392 195.968 195.968 0 0 1 0-392zM501.952 144a32 32 0 0 1 32 32v64h240a32 32 0 0 1 32 32v187.584a245.568 245.568 0 0 0-72-1.728V316.16H534.016v483.84h7.36c12.16 26.944 28.992 51.328 49.536 72H96a8 8 0 0 1-8-8V176a32 32 0 0 1 32-32h382.016z m261.952 424c-35.2 0-68.416 13.696-93.312 38.656a131.2 131.2 0 0 0-38.656 93.376c0 35.2 13.696 68.416 38.656 93.312 24.96 24.96 58.112 38.656 93.376 38.656 35.2 0 68.416-13.696 93.312-38.656 24.96-24.96 38.656-58.112 38.656-93.376 0-35.2-13.696-68.416-38.656-93.312a131.2 131.2 0 0 0-93.376-38.656z m-301.952-352H160V800h302.016V216z m325.952 404.032v55.936h56.064v48h-56.064v56.064h-48v-56.064h-55.936v-48h55.936v-55.936h48z m-507.648 16c3.712 0 6.72 2.944 6.72 6.656v66.624a6.656 6.656 0 0 1-6.72 6.656H213.76a6.656 6.656 0 0 1-6.656-6.656v-66.624c0-3.712 2.944-6.656 6.656-6.656h66.56z m128 0c3.776 0 6.72 2.944 6.72 6.656v66.624a6.656 6.656 0 0 1-6.72 6.656H341.76a6.656 6.656 0 0 1-6.656-6.656v-66.624c0-3.712 2.944-6.656 6.656-6.656H408.32z m-128-168.064c3.712 0 6.72 3.008 6.72 6.72v66.624a6.656 6.656 0 0 1-6.72 6.656H213.76a6.656 6.656 0 0 1-6.656-6.656V474.688c0-3.712 2.944-6.656 6.656-6.656H280.32z m128 0c3.776 0 6.72 3.008 6.72 6.72v66.624a6.656 6.656 0 0 1-6.72 6.656H341.76a6.656 6.656 0 0 1-6.656-6.656V474.688c0-3.712 2.944-6.656 6.656-6.656H408.32z m-128-168c3.712 0 6.72 3.008 6.72 6.72v66.624a6.656 6.656 0 0 1-6.72 6.656H213.76a6.656 6.656 0 0 1-6.656-6.656V306.688c0-3.712 2.944-6.656 6.656-6.656H280.32z m128 0c3.776 0 6.72 3.008 6.72 6.72v66.624a6.656 6.656 0 0 1-6.72 6.656H341.76a6.656 6.656 0 0 1-6.656-6.656V306.688c0-3.712 2.944-6.656 6.656-6.656H408.32z" p-id="1210"></path></svg>