<?xml version="1.0" standalone="no"?><!DOCTYPE svg PUBLIC "-//W3C//DTD SVG 1.1//EN" "http://www.w3.org/Graphics/SVG/1.1/DTD/svg11.dtd"><svg t="1679049602784" class="icon" viewBox="0 0 1024 1024" version="1.1" xmlns="http://www.w3.org/2000/svg" p-id="1896" xmlns:xlink="http://www.w3.org/1999/xlink" width="200" height="200"><path d="M471.936 136a32 32 0 0 1 32 32v64l292.096-0.064a32 32 0 0 1 32 31.424V376a8 8 0 0 1-7.808 8h-56.256a8 8 0 0 1-7.936-8v-67.904L504 308.16V832a8 8 0 0 1-8 8H72a8 8 0 0 1-8-8V168a32 32 0 0 1 32-32h375.936z m284.096 296a204.032 204.032 0 1 1 0 408 204.032 204.032 0 0 1 0-408z m0 64a139.968 139.968 0 1 0 0 280 139.968 139.968 0 0 0 0-280zM432 208H136v560h296V208z m339.968 328c4.416 0 8 3.584 8 8v67.968H848c4.416 0 8 3.52 8 8v32a8 8 0 0 1-8 8h-68.032V728a8 8 0 0 1-8 8h-32a8 8 0 0 1-8-8v-68.032H664a8 8 0 0 1-8-8v-32c0-4.48 3.584-8 8-8h67.968V544c0-4.416 3.52-8 8-8h32z m-522.88 68.032c3.328 0 6.016 2.56 6.016 5.952v60.032a6.016 6.016 0 0 1-6.08 6.016H189.12a6.016 6.016 0 0 1-6.016-6.016V609.92c0-3.328 2.624-6.016 6.016-6.016h59.904z m135.936 0c3.456 0 6.08 2.56 6.08 5.952v60.032a6.016 6.016 0 0 1-6.08 6.016H325.12a6.016 6.016 0 0 1-6.016-6.016V609.92c0-3.328 2.624-6.016 6.016-6.016h59.904z m-136-152.064a6.077 6.077 0 0 1 6.08 6.08v59.968a6.016 6.016 0 0 1-6.08 6.016H189.12a6.016 6.016 0 0 1-6.016-6.016v-59.968c0-3.328 2.624-6.016 6.016-6.016h59.968z m136 0c3.456 0 6.08 2.752 6.08 6.08v59.968a6.016 6.016 0 0 1-6.08 6.016H325.12a6.016 6.016 0 0 1-6.016-6.016v-59.968c0-3.328 2.624-6.016 6.016-6.016h59.968z m-136-151.936a6.077 6.077 0 0 1 6.08 6.08v59.968a6.016 6.016 0 0 1-6.08 6.016H189.12a6.016 6.016 0 0 1-6.016-6.016v-59.968c0-3.328 2.624-6.016 6.016-6.016h59.968z m136 0c3.456 0 6.08 2.752 6.08 6.08v59.968a6.016 6.016 0 0 1-6.08 6.016H325.12a6.016 6.016 0 0 1-6.016-6.016v-59.968c0-3.328 2.624-6.016 6.016-6.016h59.968z" p-id="1897"></path></svg>