<?xml version="1.0" standalone="no"?><!DOCTYPE svg PUBLIC "-//W3C//DTD SVG 1.1//EN" "http://www.w3.org/Graphics/SVG/1.1/DTD/svg11.dtd"><svg t="1703839553724" class="icon" viewBox="0 0 1024 1024" version="1.1" xmlns="http://www.w3.org/2000/svg" p-id="1134" xmlns:xlink="http://www.w3.org/1999/xlink" width="200" height="200"><path d="M832 64a32 32 0 0 1 32 32v832a32 32 0 0 1-32 32H192a32 32 0 0 1-32-32V96a32 32 0 0 1 32-32h640z m-40 72H232v752h560V136z m-63.168 521.92a8 8 0 0 1 9.792 5.632l10.368 38.656A8 8 0 0 1 743.36 712l-123.264 32.96 123.264 33.024a8 8 0 0 1 5.632 9.792l-10.368 38.656a8 8 0 0 1-9.792 5.632L512 773.952l-216.832 58.112a8 8 0 0 1-8.768-3.264l-1.024-2.368-10.368-38.656a8 8 0 0 1 5.632-9.792l123.2-33.024L280.64 712a8 8 0 0 1-5.632-9.792l10.368-38.656a8 8 0 0 1 9.792-5.632l216.768 58.048zM475.2 200c1.472 0.064 2.816 0.64 3.968 1.408l14.208 10.432c53.632 40.896 91.904 85.76 114.752 134.72l2.88-4.288 3.072-4.48 3.648-5.248 3.776-5.568 4.48-6.464 0.704-1.152a7.68 7.68 0 0 1 12.48-0.128l0.704 0.96c33.408 44.8 59.456 101.12 59.456 184.768 0 88.96-96.576 168.128-186.112 169.024h-1.536c-89.92 0-187.712-70.912-187.712-169.088 0-51.2 20.672-87.36 46.4-120.96l1.664-2.176 1.6-2.048 1.664-2.24 0.896-1.088 1.728-2.24 1.856-2.304 1.92-2.368 2.816-3.52 4.096-4.864 7.36-9.024 4.864-5.952 1.792-2.176 2.56-3.2 1.728-2.176 1.792-2.112 2.56-3.328 5.952-7.68 1.664-2.24 1.216-1.728 1.28-1.792 1.92-2.56 0.64-0.896 1.28-1.728 1.152-1.856 0.64-0.832 1.28-1.792 4.224-6.336 1.088-1.792 0.64-0.96 1.152-1.792c14.08-22.72 25.28-48 30.336-78.656l0.32-1.792 0.384-4.16 0.64-7.552a7.68 7.68 0 0 1 7.936-6.976h0.192z m37.952 322.944l-1.024 1.024c-4.48 4.032-8.512 8.192-12.16 12.608-12.032 14.464-18.432 29.824-18.432 46.976 0 11.776 4.928 20.8 13.248 25.792l-1.28-0.832c5.824 0.96 11.648 1.408 17.28 1.472h2.56a103.04 103.04 0 0 0 17.92-1.92 28.928 28.928 0 0 0 11.2-24.512c0-8.32-2.368-16.576-6.848-23.68l-0.512-0.832-0.384-0.64-0.64-1.024-0.384-0.64-0.832-1.344-0.448-0.832-0.512-0.704-0.384-0.768-0.64-1.024-1.28-1.92-3.84-5.76-0.768-1.152-1.024-1.536-0.704-1.216-0.512-0.64-0.448-0.832-0.896-1.472-0.512-0.64-0.64-1.024-0.64-1.024-0.32-0.704-0.448-0.64-0.384-0.704-0.448-0.64-0.384-0.768-0.64-1.216-0.64-1.024-0.32-0.64-0.384-0.64-0.32-0.64-0.32-0.64-0.64-1.28-0.576-0.896-0.448-1.088-0.192-0.32z m-8.96-215.744l-0.192 0.32a314.496 314.496 0 0 1-13.44 24.192l-0.896 1.408-1.728 2.752-0.192 0.256-1.088 1.792-0.768 1.152-3.84 5.76-1.152 1.6-1.472 2.176-0.32 0.448-1.664 2.496-1.28 1.664-0.192 0.32-3.008 4.16-2.432 3.392-2.368 3.072-6.4 8.32-3.2 4.096-2.048 2.496-1.28 1.536-2.88 3.712-2.112 2.56-4.928 5.952-7.36 8.96-3.84 4.672-2.752 3.456-1.728 2.112-1.28 1.664-2.304 2.88-0.576 0.64-1.024 1.408-0.384 0.512c-26.112 33.472-36.096 55.872-36.096 85.76 0 26.688 13.184 52.096 37.312 72.448l8.32 6.272c0-28.608 10.304-54.656 29.568-77.76a170.24 170.24 0 0 1 18.048-18.56l40.32-36.032a7.104 7.104 0 0 1 11.2 2.24l23.616 48.512v0.128l0.32 0.64 0.384 0.768 0.448 0.832 0.384 0.832 0.32 0.512 0.512 0.896 1.024 1.856 0.64 1.024 0.32 0.512 0.576 0.832 0.704 1.28 0.768 1.216 0.832 1.216 0.64 1.024 0.384 0.64 1.28 1.92 3.648 5.568 1.28 1.792 0.896 1.536 0.64 0.96 0.64 0.96 0.64 1.088 0.896 1.344 0.704 1.28 0.512 0.896 0.768 1.344 1.408 2.304c8.576 15.36 12.544 29.568 12.544 46.4l-0.192-3.072a151.04 151.04 0 0 0 6.592-5.376l0.768-0.64c24.32-21.376 37.696-46.976 37.696-69.504 0-26.176-2.88-49.152-8.64-70.208l-0.192-0.704-28.352 42.24-48-102.656a256.576 256.576 0 0 0-44.288-64.64l-1.024-1.152-0.64-0.704z" p-id="1135"></path></svg>