<?xml version="1.0" standalone="no"?><!DOCTYPE svg PUBLIC "-//W3C//DTD SVG 1.1//EN" "http://www.w3.org/Graphics/SVG/1.1/DTD/svg11.dtd"><svg t="1705634136680" class="icon" viewBox="0 0 1024 1024" version="1.1" xmlns="http://www.w3.org/2000/svg" p-id="1371" xmlns:xlink="http://www.w3.org/1999/xlink" width="200" height="200"><path d="M836.032 233.984a64 64 0 0 1 64 64v76.032h29.888c16.64 0 30.08 13.44 30.08 29.952v40c0 16.64-13.44 30.08-30.08 30.08h-29.888v291.968a32 32 0 0 1-32 32h-28.096V832a32 32 0 0 1-32 32h-27.968a32 32 0 0 1-32-32v-33.984H478.08V832a32 32 0 0 1-32 32h-27.968a32 32 0 0 1-32-32v-33.984h-28.16a32 32 0 0 1-32-32V473.92H296a29.952 29.952 0 0 1-30.08-29.504v-40.512a30.016 30.016 0 0 1 29.632-29.888h30.464v-76.032a64 64 0 0 1 64-64h445.952zM247.936 112a32 32 0 0 1 32 32v102.016a32 32 0 0 1-32 32h-44.032V848a16 16 0 0 1-16 16h-32a16 16 0 0 1-16-16V278.016H96a32 32 0 0 1-32-32V144a32 32 0 0 1 32-32h152z m580.032 193.984h-430.08v420.032h430.08V305.92z m-104.064 280a56 56 0 1 1 0 112 56 56 0 0 1 0-112z m-221.248-0.64a56 56 0 1 1-0.64 112 56 56 0 0 1 0.64-112z m269.248-231.36c4.48 0 8.064 3.584 8.064 8v188.032a8 8 0 0 1-8.064 8H454.08a8 8 0 0 1-8-8V361.984c0-4.416 3.584-8 8-8h317.952z m-55.936 64h-206.08v76.096h206.08v-76.16z m181.888-44.032a7.936 7.936 0 0 0-7.936 7.744v84.288c0 4.352 3.456 7.872 7.68 8h2.432v-99.968h-2.048z m-568.96 0l-0.448 0.064v97.024l0.448-97.088zM224 168H120v54.016h104V168z" p-id="1372"></path></svg>