<?xml version="1.0" standalone="no"?><!DOCTYPE svg PUBLIC "-//W3C//DTD SVG 1.1//EN" "http://www.w3.org/Graphics/SVG/1.1/DTD/svg11.dtd"><svg t="1704365357877" class="icon" viewBox="0 0 1024 1024" version="1.1" xmlns="http://www.w3.org/2000/svg" p-id="2101" xmlns:xlink="http://www.w3.org/1999/xlink" width="200" height="200"><path d="M800 112a64 64 0 0 1 64 64v608a32 32 0 0 1-32 32h-28.032v64a32 32 0 0 1-32 32h-48a32 32 0 0 1-32-32v-64H332.096v64a32 32 0 0 1-32 32h-48a32 32 0 0 1-32-32v-64H192a32 32 0 0 1-32-32V176a64 64 0 0 1 64-64h576z m-8 72H232v560h560V184zM287.808 591.488a56 56 0 1 1 96.384 57.024 56 56 0 0 1-96.384-57.024zM688 563.968a56 56 0 1 1 0 112 56 56 0 0 1 0-112zM736 232c4.416 0 8 3.584 8 8v248a8 8 0 0 1-8 8H288a8 8 0 0 1-8-8V240c0-4.416 3.584-8 8-8h448z m-56 64H344v136h336V296z m228.032-43.968h21.952c16.64 0 30.016 13.44 30.016 29.952v80c0 16.64-13.44 30.016-30.016 30.016h-22.016a8 8 0 0 1-7.936-8V259.968c0-4.416 3.52-8 7.936-8l0.064 0.064z m-792.064 0H94.08A30.016 30.016 0 0 0 64 281.92v80c0 16.64 13.44 30.016 30.016 30.016h21.952a8 8 0 0 0 8.064-7.936V259.968a8 8 0 0 0-8-8l-0.064 0.064z" p-id="2102"></path></svg>