<?xml version="1.0" standalone="no"?><!DOCTYPE svg PUBLIC "-//W3C//DTD SVG 1.1//EN" "http://www.w3.org/Graphics/SVG/1.1/DTD/svg11.dtd"><svg t="1704281541915" class="icon" viewBox="0 0 1024 1024" version="1.1" xmlns="http://www.w3.org/2000/svg" p-id="953" xmlns:xlink="http://www.w3.org/1999/xlink" width="200" height="200"><path d="M912 880a32 32 0 0 1-31.488 32H619.904a8 8 0 0 1-3.584-0.832 7.936 7.936 0 0 1-3.264 0.832h-60.352a8 8 0 0 1-8-7.744V848c0-4.352 3.456-7.872 7.68-8h21.056l-136-233.856a8 8 0 0 1 2.688-10.752l0.256-0.128 399.616-232V296c0-4.352 3.456-7.872 7.744-8H904c4.352 0 7.872 3.456 8 7.744V880z m-423.296-40c4.288 0 7.872 3.456 8 7.744V904a8 8 0 0 1-7.744 8h-60.288a8 8 0 0 1-8-7.744V848c0-4.352 3.456-7.872 7.744-8h60.288z m-124.032 0c4.352 0 7.872 3.456 8 7.744V904a8 8 0 0 1-7.744 8h-60.224a8 8 0 0 1-8-7.744V848c0-4.352 3.456-7.872 7.68-8h60.352zM175.68 784c4.352 0 7.872 3.456 8 7.744V840h56.96c4.352 0 7.936 3.456 8.064 7.744V904a8 8 0 0 1-7.744 8H144a32 32 0 0 1-32-31.488V792c0-4.352 3.456-7.872 7.744-8h55.936zM840 446.528L531.904 625.28l124.8 214.656H840V446.528zM278.72 689.792a8 8 0 0 1 10.752 2.752l0.128 0.192 28.032 48.512a8 8 0 0 1-2.688 10.816l-0.256 0.128-51.968 30.016a8 8 0 0 1-10.816-2.752l-0.128-0.192-27.968-48.512a8 8 0 0 1 2.688-10.816l0.256-0.128 51.968-30.016zM176 659.968c4.352 0 7.872 3.456 8 7.808V728a8 8 0 0 1-7.744 8H120a8 8 0 0 1-8-7.744v-60.288c0-4.288 3.456-7.808 7.744-7.936H176z m210.048-32.128a8 8 0 0 1 10.88 2.688l0.064 0.192 28.032 48.512a8 8 0 0 1-2.752 10.816l-0.192 0.128-51.968 30.016a8 8 0 0 1-10.816-2.688l-0.128-0.256-27.968-48.512a8 8 0 0 1 2.688-10.752l0.256-0.192 51.904-29.952zM176 536c4.352 0 7.872 3.456 8 7.744v60.288a8 8 0 0 1-7.744 7.936H120a8 8 0 0 1-8-7.68V544c0-4.352 3.456-7.872 7.744-8H176z m247.552-81.984a8 8 0 0 1 10.752 2.752l0.128 0.256L464 509.248A8 8 0 0 1 461.184 520l-0.256 0.128-48.704 27.584a8 8 0 0 1-10.816-2.816l-0.128-0.192-29.504-52.224a8 8 0 0 1 2.752-10.752l0.256-0.128 48.768-27.584zM176 411.968c4.352 0 7.872 3.456 8 7.808V480a8 8 0 0 1-7.744 8H120a8 8 0 0 1-8-7.744v-60.288c0-4.288 3.456-7.808 7.744-7.936H176z m186.496-65.92a8 8 0 0 1 10.752 2.816l0.128 0.256 29.568 52.224a8 8 0 0 1-2.816 10.752l-0.256 0.128-48.704 27.52a8 8 0 0 1-10.752-2.752l-0.192-0.192-29.504-52.224a8 8 0 0 1 2.816-10.816l0.192-0.128 48.768-27.52z m274.048-17.472a8 8 0 0 1 10.816 2.688l0.128 0.192 30.08 51.904a8 8 0 0 1-2.688 10.816l-0.256 0.128-48.448 28.096a8 8 0 0 1-10.752-2.688l-0.192-0.256-30.08-51.84a8 8 0 0 1 2.688-10.88l0.256-0.128 48.448-28.032zM176 288c4.352 0 7.872 3.456 8 7.744v60.288a8 8 0 0 1-7.744 7.936H120a8 8 0 0 1-8-7.68v-60.352c0-4.352 3.456-7.872 7.744-8H176z m125.44-49.856a8 8 0 0 1 10.752 2.816l0.128 0.192 29.568 52.224a8 8 0 0 1-2.816 10.752l-0.256 0.192-48.704 27.52a8 8 0 0 1-10.752-2.752l-0.192-0.256-29.504-52.224a8 8 0 0 1 2.816-10.752l0.192-0.128 48.768-27.584z m272.96-16.896a8 8 0 0 1 10.816 2.688l0.128 0.256 30.08 51.84a8 8 0 0 1-2.688 10.88l-0.256 0.128-48.448 28.032a8 8 0 0 1-10.816-2.688l-0.128-0.192-30.08-51.904a8 8 0 0 1 2.688-10.88l0.256-0.064 48.448-28.096zM240 112l10.048 19.072 0.128 0.192 30.656 54.208a8 8 0 0 1-2.816 10.752l-0.256 0.128-48.704 27.584a8 8 0 0 1-10.752-2.816l-0.128-0.192L197.248 184H184v48a8 8 0 0 1-7.744 8H120a8 8 0 0 1-8-7.744V144a32 32 0 0 1 31.488-32H240z m640 0a32 32 0 0 1 32 31.488V232a8 8 0 0 1-7.744 8H848a8 8 0 0 1-8-7.744V184h-47.552a8 8 0 0 1-8-7.744V120c0-4.352 3.456-7.872 7.744-8H880z m-523.52 0c4.288 0 7.808 3.456 7.936 7.744V176a8 8 0 0 1-7.68 8h-60.288a8 8 0 0 1-8-7.744V120c0-4.352 3.456-7.872 7.744-8h60.288z m123.968 0c4.352 0 7.872 3.456 8 7.744V176a8 8 0 0 1-7.744 8H420.48a8 8 0 0 1-8-7.744V120c0-4.352 3.392-7.872 7.68-8h60.352z m124.032 0c4.288 0 7.808 3.456 7.936 7.744V176a8 8 0 0 1-7.68 8h-60.288a8 8 0 0 1-8-7.744V120c0-4.352 3.456-7.872 7.744-8h60.288z m123.968 0c4.352 0 7.872 3.456 8 7.744V176a8 8 0 0 1-7.744 8H668.48a8 8 0 0 1-8-7.744V120c0-4.352 3.392-7.872 7.68-8h60.352z" p-id="954"></path></svg>