<?xml version="1.0" standalone="no"?><!DOCTYPE svg PUBLIC "-//W3C//DTD SVG 1.1//EN" "http://www.w3.org/Graphics/SVG/1.1/DTD/svg11.dtd"><svg t="1678006144261" class="icon" viewBox="0 0 1024 1024" version="1.1" xmlns="http://www.w3.org/2000/svg" p-id="3096" xmlns:xlink="http://www.w3.org/1999/xlink" width="200" height="200"><path d="M316.032 236.992c0-4.416 3.52-8 8-8h56c4.416 0 8 3.584 8 8v177.984h88v-177.92c0-4.48 3.52-8.064 8-8.064h56c4.416 0 7.936 3.584 7.936 8v177.984h88.064v-177.92c0-4.48 3.52-8.064 7.936-8.064h56.064c4.416 0 7.936 3.584 7.936 8v177.984H832a32 32 0 0 1 32 32v412.032h64a32 32 0 0 1 31.36 25.792l0.64 6.208v32a8 8 0 0 1-8 8H72a8 8 0 0 1-8-8v-32a32 32 0 0 1 32-32h64V446.976a32 32 0 0 1 32-32h124.032v-177.92zM792 486.976H232v372.032h560V486.976zM387.968 129.024a36.032 36.032 0 1 1-72 0 36.032 36.032 0 0 1 72 0z m160 0a36.032 36.032 0 1 1-72 0 36.032 36.032 0 0 1 72 0z m160 0a35.968 35.968 0 1 1-71.936 0 35.968 35.968 0 0 1 71.936 0z" p-id="3097"></path></svg>