<?xml version="1.0" standalone="no"?><!DOCTYPE svg PUBLIC "-//W3C//DTD SVG 1.1//EN" "http://www.w3.org/Graphics/SVG/1.1/DTD/svg11.dtd"><svg t="1649138234604" class="icon" viewBox="0 0 1024 1024" version="1.1" xmlns="http://www.w3.org/2000/svg" p-id="32318" xmlns:xlink="http://www.w3.org/1999/xlink" width="200" height="200"><defs><style type="text/css">@font-face { font-family: feedback-iconfont; src: url("//at.alicdn.com/t/font_1031158_u69w8yhxdu.woff2?t=1630033759944") format("woff2"), url("//at.alicdn.com/t/font_1031158_u69w8yhxdu.woff?t=1630033759944") format("woff"), url("//at.alicdn.com/t/font_1031158_u69w8yhxdu.ttf?t=1630033759944") format("truetype"); }
</style></defs><path d="M520.32 867.84h-428.8a37.76 37.76 0 0 1-38.4-38.4V204.16a38.4 38.4 0 0 1 38.4-38.4h755.2a38.4 38.4 0 0 1 38.4 38.4v268.16h-76.8V242.56H128v549.12h390.4z" p-id="32319"></path><path d="M91.52 380.16h755.2v76.8H91.52zM255.36 81.28h76.8v228.48h-76.8zM612.48 81.28h76.8v228.48h-76.8zM771.84 512a215.68 215.68 0 1 0 215.68 215.68A215.68 215.68 0 0 0 771.84 512zM896 787.2h-146.56a25.6 25.6 0 0 1-25.6-25.6V615.68h51.2v120.32H896z" p-id="32320"></path></svg>