<?xml version="1.0" standalone="no"?><!DOCTYPE svg PUBLIC "-//W3C//DTD SVG 1.1//EN" "http://www.w3.org/Graphics/SVG/1.1/DTD/svg11.dtd"><svg t="1649136675319" class="icon" viewBox="0 0 1024 1024" version="1.1" xmlns="http://www.w3.org/2000/svg" p-id="23339" xmlns:xlink="http://www.w3.org/1999/xlink" width="200" height="200"><defs><style type="text/css">@font-face { font-family: feedback-iconfont; src: url("//at.alicdn.com/t/font_1031158_u69w8yhxdu.woff2?t=1630033759944") format("woff2"), url("//at.alicdn.com/t/font_1031158_u69w8yhxdu.woff?t=1630033759944") format("woff"), url("//at.alicdn.com/t/font_1031158_u69w8yhxdu.ttf?t=1630033759944") format("truetype"); }
</style></defs><path d="M376 112c3.52 0 6.528 2.304 7.616 5.504L384 120v64h256v-64c0-3.52 2.304-6.528 5.504-7.616l2.496-0.384H704c3.52 0 6.528 2.304 7.616 5.504l0.384 2.496v64h168a32 32 0 0 1 31.488 26.24l0.512 5.76V880a32 32 0 0 1-26.24 31.488l-5.76 0.512H144a32 32 0 0 1-31.488-26.24l-0.512-5.76V216a32 32 0 0 1 26.24-31.488l5.76-0.512h168v-64c0-3.52 2.304-6.528 5.504-7.616L320 112h56z m464 348.032H184v379.968h656V459.968z m-168.128 68.096c5.44 0 8.96 5.12 7.808 9.92l-1.28 2.752-164.992 228.672a15.936 15.936 0 0 1-22.72 3.2l-3.072-3.2-114.112-158.144a8.064 8.064 0 0 1 3.52-12.16l2.944-0.576h54.912c3.84 0 7.488 1.344 10.368 3.84l2.56 2.752 52.8 73.088L604.16 534.592a15.936 15.936 0 0 1 9.088-6.08l3.712-0.384h54.848zM312 256h-128v136h656V256h-128v48a8 8 0 0 1-5.504 7.616L704 312h-56a8 8 0 0 1-7.616-5.504L640 304V256H384v48a8 8 0 0 1-5.504 7.616l-2.496 0.384H320a8 8 0 0 1-7.616-5.504l-0.384-2.496V256z" p-id="23340"></path></svg>