<?xml version="1.0" standalone="no"?><!DOCTYPE svg PUBLIC "-//W3C//DTD SVG 1.1//EN" "http://www.w3.org/Graphics/SVG/1.1/DTD/svg11.dtd"><svg t="1752648347865" class="icon" viewBox="0 0 1024 1024" version="1.1" xmlns="http://www.w3.org/2000/svg" p-id="1006" xmlns:xlink="http://www.w3.org/1999/xlink" width="256" height="256"><path d="M245.376 132.032c17.024 0.128 33.088 6.784 45.248 18.816l109.44 109.184a65.536 65.536 0 0 1 0.448 92.48l-85.632 85.696a384 384 0 0 0 66.624 104.704l15.424 16.192a385.92 385.92 0 0 0 120.832 82.304l85.12-85.248a65.344 65.344 0 0 1 92.288-0.512l109.44 109.248a65.536 65.536 0 0 1 0 92.928L703.552 858.88a113.793 113.793 0 0 1-86.4 32.96l-11.776-1.28c-125.888-20.736-250.624-87.744-351.424-188.416C153.344 601.28 86.4 476.48 65.536 350.592a113.28 113.28 0 0 1 31.616-98.176L198.4 151.296c10.112-10.176 23.104-16.64 37.12-18.624l9.856-0.64z m-0.64 74.752l-96.64 96.448a41.28 41.28 0 0 0-11.584 35.2l0.64 3.648c18.752 108.48 77.12 217.344 165.12 306.56l5.312 5.312c83.584 82.56 184.448 139.008 285.952 161.088l24.064 4.608c12.8 1.728 25.6-2.432 34.816-11.392l96.896-96.832-99.968-99.84-115.2 115.264-44.8-19.328a457.92 457.92 0 0 1-125.376-80.448l-19.072-18.176a456.128 456.128 0 0 1-96.128-142.336l-19.2-44.8L344.64 306.432l-99.968-99.712z m405.12-6.016a7.987 7.987 0 0 1 4.608 6.912v74.176L952 281.6c4.288 0 7.872 3.456 8 7.744v60.288a8 8 0 0 1-7.68 8l-297.984 0.192 0.128 74.112a8 8 0 0 1-12.8 6.4L499.84 326.4a8 8 0 0 1-0.128-12.544l141.952-112.128a8 8 0 0 1 8.32-0.896z" p-id="1007"></path></svg>