<?xml version="1.0" standalone="no"?><!DOCTYPE svg PUBLIC "-//W3C//DTD SVG 1.1//EN" "http://www.w3.org/Graphics/SVG/1.1/DTD/svg11.dtd"><svg t="1704792341578" class="icon" viewBox="0 0 1088 1024" version="1.1" xmlns="http://www.w3.org/2000/svg" p-id="22244" xmlns:xlink="http://www.w3.org/1999/xlink" width="212.5" height="200"><path d="M735.552 172.032a48 48 0 0 1 48 48v583.936a48 48 0 0 1-48 48h-576a48 48 0 0 1-48-48V220.032a48 48 0 0 1 48-48h576z m-24 71.936h-528v536.064h528V243.968zM997.888 305.28a32 32 0 0 1 32 31.424V687.488a32 32 0 0 1-51.072 25.664l-0.384-0.32-148.608-114.048a16 16 0 0 1-6.272-12.672V438.656a16 16 0 0 1 6.272-12.736l148.608-114.048a32 32 0 0 1 18.944-6.592h0.512z m-40 113.088l-62.336 47.872v92.224l62.336 47.872V418.368z" fill="#0A1B39" p-id="22245"></path></svg>