<?xml version="1.0" standalone="no"?><!DOCTYPE svg PUBLIC "-//W3C//DTD SVG 1.1//EN" "http://www.w3.org/Graphics/SVG/1.1/DTD/svg11.dtd"><svg t="1655896953213" class="icon" viewBox="0 0 1024 1024" version="1.1" xmlns="http://www.w3.org/2000/svg" p-id="30770" xmlns:xlink="http://www.w3.org/1999/xlink" width="200" height="200"><defs><style type="text/css">@font-face { font-family: feedback-iconfont; src: url("//at.alicdn.com/t/font_1031158_u69w8yhxdu.woff2?t=1630033759944") format("woff2"), url("//at.alicdn.com/t/font_1031158_u69w8yhxdu.woff?t=1630033759944") format("woff"), url("//at.alicdn.com/t/font_1031158_u69w8yhxdu.ttf?t=1630033759944") format("truetype"); }
</style></defs><path d="M859.008 270.506667l-37.632-80.768a32 32 0 0 0-42.581333-15.445334l-721.962667 336.64 0.512 1.066667a119.936 119.936 0 0 0 159.36 57.984l642.304-299.52v0.042667z m105.173333 225.578666L869.12 292.266667 198.656 605.013333l94.976 203.776a32 32 0 0 0 42.581333 15.488l262.314667-122.368c13.866667 20.906667 40.96 28.501333 63.658667 17.92l37.461333-17.493333v78.72c0 26.496 21.504 47.914667 48 47.914667h158.08v15.786666c0 4.48 3.498667 7.978667 7.936 7.978667h32a7.978667 7.978667 0 0 0 8.021333-8.021333v-104.96a7.978667 7.978667 0 0 0-8.021333-7.978667h-32a8.021333 8.021333 0 0 0-8.021333 7.936v17.28h-133.930667v-88.192l60.544-28.288a50.773333 50.773333 0 0 0 27.264-60.288l89.173333-41.6a32 32 0 0 0 15.488-42.496v-0.085333z" p-id="30771"></path></svg>