<?xml version="1.0" standalone="no"?><!DOCTYPE svg PUBLIC "-//W3C//DTD SVG 1.1//EN" "http://www.w3.org/Graphics/SVG/1.1/DTD/svg11.dtd"><svg t="1700814737914" class="icon" viewBox="0 0 1024 1024" version="1.1" xmlns="http://www.w3.org/2000/svg" p-id="982" xmlns:xlink="http://www.w3.org/1999/xlink" width="200" height="200"><path d="M864 248H728l-32.384-90.816A32.064 32.064 0 0 0 665.408 136H358.592a32 32 0 0 0-30.08 21.184L296 248H160c-44.16 0-80 35.84-80 80v456c0 44.16 35.84 80 80 80h704c44.16 0 80-35.84 80-80V328c0-44.16-35.84-80-80-80z m8 536a8 8 0 0 1-8 8H160a8 8 0 0 1-8-8V328c0-4.416 3.584-8 8-8h186.688l17.088-47.808L386.688 208h250.496l22.912 64.192L677.184 320H864c4.416 0 8 3.584 8 8v456z" p-id="983"></path><path d="M691.773 548c4.418 0 7.997 3.585 7.997 8.003v0.152l-0.054 1.335-0.076 1.665-0.08 1.532-0.087 1.4-0.06 0.858-0.063 0.8C691.352 660.207 610.527 736 512 736c-46.065 0-89.302-16.712-122.793-45.618l-22.371 18.771a8 8 0 0 1-13.135-5.772l-4.081-91.666a8 8 0 0 1 9.73-8.165l89.565 19.937a8 8 0 0 1 3.404 13.937l-19.41 16.287C455.283 670.471 482.821 680 512 680c66.99 0 122.325-49.903 130.858-114.562l0.108-0.878 0.106-0.98 0.103-1.082 0.067-0.778 0.1-1.251 0.064-0.891 0.126-1.917 0.122-2.098a7.999 7.999 0 0 1 7.985-7.563h40.134zM512 360c46.044 0 89.33 16.688 122.899 45.714l22.998-19.298a8 8 0 0 1 13.134 5.773l4.082 91.666a8 8 0 0 1-9.73 8.164l-89.565-19.937a8 8 0 0 1-3.404-13.937l18.791-15.769C568.775 425.53 541.195 416 512 416c-67.084 0-122.48 50.043-130.894 114.835l-0.072 0.584-0.071 0.632-0.105 1.037-0.102 1.145-0.132 1.693-0.128 1.884-0.093 1.538-0.06 1.085a8 8 0 0 1-7.989 7.567h-40.059a8 8 0 0 1-8.001-7.999c0-0.12 0-0.238 0.008-0.358l0.094-1.996 0.1-1.893 0.105-1.79 0.073-1.136 0.076-1.09 0.078-1.044 0.121-1.48 0.085-0.93 0.086-0.884 0.09-0.837c0.014-0.136 0.03-0.27 0.045-0.402C336.076 432.62 415.557 360 512 360z" p-id="984"></path></svg>