<?xml version="1.0" standalone="no"?><!DOCTYPE svg PUBLIC "-//W3C//DTD SVG 1.1//EN" "http://www.w3.org/Graphics/SVG/1.1/DTD/svg11.dtd"><svg t="1740451860636" class="icon" viewBox="0 0 1024 1024" version="1.1" xmlns="http://www.w3.org/2000/svg" p-id="866" xmlns:xlink="http://www.w3.org/1999/xlink" width="200" height="200"><path d="M751.636 135.765a16 16 0 0 1 14.592 9.438l104.087 231.458 29.269-29.269a8.021 8.021 0 0 1 11.307 0l39.552 39.595h-0.043a8.021 8.021 0 0 1 0 11.349l-42.538 42.535c-31.814-25.179-69.566-43.183-110.815-51.571l-81.57-181.513H308.565l-0.042 0.042-0.043-0.085-88.96 198.016 419.515-0.007c-34.23 14.873-64.693 36.789-89.558 63.919l-358.757 0.003-6.699 14.933v257.664h86.955v-64c0-17.673 14.327-32 32-32h177.189l-0.014 1.728c0 18.596 1.922 36.743 5.58 54.253l-158.776-0.002v39.936l170.492 0.003c10.045 26.298 24.175 50.578 41.613 72.064l-307.124-0.003v41.984c0 17.673-14.327 32-32 32h-56.021c-17.664 0-32-14.294-32-32V472.679a16 16 0 0 1 1.406-6.56l8.663-19.271-48.512-48.512a7.979 7.979 0 0 1 0-11.35l39.552-39.594a7.979 7.979 0 0 1 11.307 0l29.269 29.27 104.17-231.463a16 16 0 0 1 14.59-9.434h479.276zM744.15 432c119.3 0 216 96.7 216 216s-96.7 216-216 216-216-96.7-216-216 96.7-216 216-216z m0 64c-40.6 0-78.8 15.8-107.5 44.5-28.7 28.7-44.5 66.9-44.5 107.5 0 40.6 15.8 78.8 44.5 107.5 28.7 28.7 66.9 44.5 107.5 44.5 40.6 0 78.8-15.8 107.5-44.5 28.7-28.7 44.5-66.9 44.5-107.5 0-40.6-15.8-78.8-44.5-107.5-28.7-28.7-66.9-44.5-107.5-44.5z m4.208 79.32a8 8 0 0 1 1.642 4.855L749.999 620h78.56c4.11 0 7.441 3.582 7.441 8v40c0 4.418-3.332 8-7.442 8H750l0.001 39.825a8 8 0 0 1-12.855 6.358l-88.819-67.825a8 8 0 0 1-1.503-11.213l1.503-1.503 88.819-67.825a8 8 0 0 1 11.213 1.503z m-480.412-69.592c26.51 0 48 21.49 48 48s-21.49 48-48 48-48-21.49-48-48 21.49-48 48-48z" p-id="867"></path></svg>