<?xml version="1.0" standalone="no"?><!DOCTYPE svg PUBLIC "-//W3C//DTD SVG 1.1//EN" "http://www.w3.org/Graphics/SVG/1.1/DTD/svg11.dtd"><svg t="1705634142977" class="icon" viewBox="0 0 1024 1024" version="1.1" xmlns="http://www.w3.org/2000/svg" p-id="1681" xmlns:xlink="http://www.w3.org/1999/xlink" width="200" height="200"><path d="M512 64a448 448 0 1 1 0 896 448 448 0 0 1 0-896z m0 76.032a371.968 371.968 0 1 0 0 743.936 371.968 371.968 0 0 0 0-743.936z m43.712 165.952h1.28a126.72 126.72 0 0 1 87.552 36.928l1.216 1.152c23.552 23.68 36.736 55.68 36.864 89.088v1.664a126.912 126.912 0 0 1-36.864 89.088l-0.704 0.704-0.512 0.512-0.64 0.64-0.896 0.832a126.656 126.656 0 0 1-83.968 35.328h-0.96l-1.28 0.064H441.984v188.032a8 8 0 0 1-8 8h-48a8 8 0 0 1-8-8V313.984c0-4.416 3.584-8 8-8h169.728z m-0.128 64h-113.6v128h114.624a62.656 62.656 0 0 0 41.856-17.408l0.512-0.448 0.512-0.512 0.448-0.448 0.512-0.448 0.448-0.512a62.912 62.912 0 0 0 17.728-43.392v-1.536a62.912 62.912 0 0 0-18.176-43.904l-1.152-1.152a62.72 62.72 0 0 0-43.712-18.176z" p-id="1682"></path></svg>