<?xml version="1.0" standalone="no"?><!DOCTYPE svg PUBLIC "-//W3C//DTD SVG 1.1//EN" "http://www.w3.org/Graphics/SVG/1.1/DTD/svg11.dtd"><svg t="1655177149235" class="icon" viewBox="0 0 1024 1024" version="1.1" xmlns="http://www.w3.org/2000/svg" p-id="22979" xmlns:xlink="http://www.w3.org/1999/xlink" width="200" height="200"><defs><style type="text/css">@font-face { font-family: feedback-iconfont; src: url("//at.alicdn.com/t/font_1031158_u69w8yhxdu.woff2?t=1630033759944") format("woff2"), url("//at.alicdn.com/t/font_1031158_u69w8yhxdu.woff?t=1630033759944") format("woff"), url("//at.alicdn.com/t/font_1031158_u69w8yhxdu.ttf?t=1630033759944") format("truetype"); }
</style></defs><path d="M714.53 198c27.878-0.013 52.062 19.15 58.482 46.21l0.19 0.823 35.663 160.224h35.019c10.994 0 19.928 8.822 20.116 19.775v47.296c0 10.997-8.82 19.933-19.77 20.118l-0.346 0.003h-6.705l18.75 52.575A139.658 139.658 0 0 1 864 590.703V608.556h-71.59l2.772-5.742a8.185 8.185 0 0 0-0.304-7.702l-0.158-0.26a8.335 8.335 0 0 0-6.748-3.847l-0.295-0.005H685.65c-9.088 0-16.475 7.218-16.646 16.187l-0.003 0.317v1.052h-35l-0.001 137.68H232.02v49.716A30.052 30.052 0 0 1 202.444 826H143.04c-16.425 0-29.77-13.185-30.04-29.55V591.788c0-15.573 2.609-31.033 7.712-45.74l0.36-1.025 18.75-52.567h-6.706c-10.994 0-19.928-8.822-20.116-19.774V425.386c0-10.996 8.82-19.933 19.77-20.118l0.346-0.003h35.019l35.63-160.232c6.06-27.219 30.026-46.654 57.829-47.033h452.935z m182.702 427c7.604 0 13.768 6.136 13.768 13.705v173.59c0 7.57-6.164 13.705-13.768 13.705H722.84c-7.603 0-13.768-6.136-13.768-13.705v-53.059l-40.305 30.79a9.08 9.08 0 0 1-5.547 1.904c-4.753 0-9.219-3.737-9.219-9.156V668.512c0-5.42 4.466-9.156 9.219-9.156a9.062 9.062 0 0 1 5.547 1.904l40.305 30.792v-53.347c0-7.57 6.165-13.705 13.768-13.705h174.393z m-27.536 38.83H834.13a2.29 2.29 0 0 0-2.294 2.284v13.704a2.29 2.29 0 0 0 2.294 2.284h35.567a2.29 2.29 0 0 0 2.295-2.284v-13.704a2.29 2.29 0 0 0-2.295-2.284zM291.351 591H189.323a8.338 8.338 0 0 0-7.043 3.853 8.186 8.186 0 0 0-0.59 7.685l0.128 0.276 21.632 44.813c2.714 5.624 8.389 9.24 14.655 9.37l0.356 0.003h72.882a16.715 16.715 0 0 0 11.772-4.829 16.427 16.427 0 0 0 4.871-11.257l0.006-0.41 0.008-33c0-9.115-7.454-16.504-16.649-16.504z m296.95 0H389.7c-3.621 0-6.571 2.858-6.695 6.431l-0.004 0.234v52.67c0 3.603 2.873 6.538 6.464 6.661l0.235 0.004h198.594c3.62 0 6.57-2.858 6.695-6.431l0.004-0.234 0.008-52.67c0-3.681-3-6.665-6.699-6.665z m101.442-332H286.25c-14.372 0-26.707 10.183-29.467 24.25l-0.08 0.427-24.22 133.638a30.033 30.033 0 0 0 12.182 29.858l0.367 0.257 35.354 24.3a30.038 30.038 0 0 0 16.447 5.265l0.551 0.005h381.217a30.039 30.039 0 0 0 16.54-4.963l0.458-0.307 35.354-24.3a30.033 30.033 0 0 0 12.643-29.673l-0.077-0.442-24.228-133.638C716.699 269.389 704.261 259 689.743 259z" p-id="22980"></path></svg>