<?xml version="1.0" standalone="no"?><!DOCTYPE svg PUBLIC "-//W3C//DTD SVG 1.1//EN" "http://www.w3.org/Graphics/SVG/1.1/DTD/svg11.dtd"><svg t="1719473754930" class="icon" viewBox="0 0 1024 1024" version="1.1" xmlns="http://www.w3.org/2000/svg" p-id="1591" xmlns:xlink="http://www.w3.org/1999/xlink" width="200" height="200"><path d="M862.45 484.383l90.51 90.51c6.249 6.248 6.249 16.378 0 22.627L691.775 858.706a16 16 0 0 1-11.314 4.686h-98.51a8 8 0 0 1-8-8v-98.51a16 16 0 0 1 4.687-11.313l261.185-261.186c6.249-6.249 16.38-6.249 22.628 0zM707.137 160a14.954 14.954 0 0 1 13.639 8.82l97.28 216.324 27.355-27.355a7.497 7.497 0 0 1 10.568 0l36.966 37.005h-0.04a7.497 7.497 0 0 1 0 10.607l-32.17 32.17c-18.173-7.667-39.959-4.105-54.777 10.686l-23.864 23.818H182.898l-6.26 13.957v240.816h81.268v-59.815c0-16.518 13.39-29.908 29.908-29.908h328.921l-52.416 52.318H310.225v37.325h218.702a56 56 0 0 0-8.588 29.39l-0.279 37.961H221.42v39.24c0 16.517-13.39 29.907-29.908 29.907h-52.358c-16.51 0-29.908-13.358-29.908-29.907V474.883c0-2.114 0.448-4.203 1.315-6.131l8.096-18.01-45.34-45.34a7.457 7.457 0 0 1 0-10.608l36.966-37.005a7.457 7.457 0 0 1 10.567 0l27.356 27.355 97.358-216.327A14.954 14.954 0 0 1 259.201 160h447.935z m144 403.578L637.951 776.763v22.629h22.627l213.186-213.187-22.628-22.627zM268 504c25.405 0 46 20.595 46 46s-20.595 46-46 46-46-20.595-46-46 20.595-46 46-46z m431 0c13.439 0 25.531 5.763 33.942 14.952l-64.99 64.99C658.762 575.532 653 563.439 653 550c0-25.405 20.595-46 46-46zM292.958 227.272L209.815 412.34h546.67l-83.143-185.028H293.038l-0.04 0.04-0.04-0.08z" p-id="1592"></path></svg>