<?xml version="1.0" standalone="no"?><!DOCTYPE svg PUBLIC "-//W3C//DTD SVG 1.1//EN" "http://www.w3.org/Graphics/SVG/1.1/DTD/svg11.dtd"><svg t="1655876090540" class="icon" viewBox="0 0 1024 1024" version="1.1" xmlns="http://www.w3.org/2000/svg" p-id="25577" xmlns:xlink="http://www.w3.org/1999/xlink" width="200" height="200"><defs><style type="text/css">@font-face { font-family: feedback-iconfont; src: url("//at.alicdn.com/t/font_1031158_u69w8yhxdu.woff2?t=1630033759944") format("woff2"), url("//at.alicdn.com/t/font_1031158_u69w8yhxdu.woff?t=1630033759944") format("woff"), url("//at.alicdn.com/t/font_1031158_u69w8yhxdu.ttf?t=1630033759944") format("truetype"); }
</style></defs><path d="M950.49 387l-39.6-39.6a8 8 0 0 0-11.32 0l-29.23 29.23L762 135.75H262L153.66 376.63l-29.23-29.23a8 8 0 0 0-11.32 0L73.51 387a8 8 0 0 0 0 11.31l48.56 48.55L112 469.24v387a32 32 0 0 0 32 32h56a32 32 0 0 0 32-32v-42h560v42a32 32 0 0 0 32 32h56a32 32 0 0 0 32-32v-387l-10.07-22.38 48.56-48.55a8 8 0 0 0 0-11.31zM308.56 207.75h406.88l89 198h-585zM697 742.22H327V702.3h370z m56 0V678.3a32 32 0 0 0-32-32H303a32 32 0 0 0-32 32v63.92h-87V484.69l6.72-14.94h642.56l6.72 14.94v257.53z" p-id="25578"></path><path d="M219.95 553.75a48 48 0 1 0 96 0 48 48 0 1 0-96 0zM708 553.75a48 48 0 1 0 96 0 48 48 0 1 0-96 0z" p-id="25579"></path></svg>