<?xml version="1.0" standalone="no"?><!DOCTYPE svg PUBLIC "-//W3C//DTD SVG 1.1//EN" "http://www.w3.org/Graphics/SVG/1.1/DTD/svg11.dtd"><svg t="1655177611383" class="icon" viewBox="0 0 1024 1024" version="1.1" xmlns="http://www.w3.org/2000/svg" p-id="46341" xmlns:xlink="http://www.w3.org/1999/xlink" width="200" height="200"><defs><style type="text/css">@font-face { font-family: feedback-iconfont; src: url("//at.alicdn.com/t/font_1031158_u69w8yhxdu.woff2?t=1630033759944") format("woff2"), url("//at.alicdn.com/t/font_1031158_u69w8yhxdu.woff?t=1630033759944") format("woff"), url("//at.alicdn.com/t/font_1031158_u69w8yhxdu.ttf?t=1630033759944") format("truetype"); }
</style></defs><path d="M960 464.68v-56a24 24 0 0 0-24-24h-41.78l-42.55-191.11a71.68 71.68 0 0 0-70-56.1H242.29a71.68 71.68 0 0 0-70 56.1l-42.51 191.12H88a24 24 0 0 0-24 24v56a24 24 0 0 0 24 24h8l-22.37 62.7A166.44 166.44 0 0 0 64 607.17v243.52a35.84 35.84 0 0 0 35.84 35.84h70.28A35.84 35.84 0 0 0 206 850.69v-59.3h612v59.3a35.84 35.84 0 0 0 35.84 35.84h70.28A35.84 35.84 0 0 0 960 850.69V607.17a166.44 166.44 0 0 0-9.63-55.78L928 488.68h8a24 24 0 0 0 24-24z m-753-66.14l28.91-159.49a35.85 35.85 0 0 1 35.27-29.45h481.63a35.85 35.85 0 0 1 35.27 29.45L817 398.54a35.84 35.84 0 0 1-15 35.94l-42.2 29a35.85 35.85 0 0 1-20.29 6.29H284.47a35.85 35.85 0 0 1-20.29-6.29l-42.2-29A35.84 35.84 0 0 1 207 398.54z m89.13 266.6a19.8 19.8 0 0 1-19.81 19.8H189.6a19.79 19.79 0 0 1-17.86-11.25L146 619.9a9.9 9.9 0 0 1 8.93-14.18h121.4a19.81 19.81 0 0 1 19.81 19.81z m342.45 11.8a8 8 0 0 1-8 8H393.41a8 8 0 0 1-8-8v-63.22a8 8 0 0 1 8-8h237.18a8 8 0 0 1 8 8zM878 619.9l-25.74 53.79a19.79 19.79 0 0 1-17.86 11.25h-86.73a19.8 19.8 0 0 1-19.81-19.8v-39.61a19.81 19.81 0 0 1 19.81-19.81h121.4A9.9 9.9 0 0 1 878 619.9z" p-id="46342"></path></svg>