<?xml version="1.0" standalone="no"?><!DOCTYPE svg PUBLIC "-//W3C//DTD SVG 1.1//EN" "http://www.w3.org/Graphics/SVG/1.1/DTD/svg11.dtd"><svg t="1648446757117" class="icon" viewBox="0 0 1024 1024" version="1.1" xmlns="http://www.w3.org/2000/svg" p-id="66491" xmlns:xlink="http://www.w3.org/1999/xlink" width="200" height="200"><defs><style type="text/css">@font-face { font-family: feedback-iconfont; src: url("//at.alicdn.com/t/font_1031158_u69w8yhxdu.woff2?t=1630033759944") format("woff2"), url("//at.alicdn.com/t/font_1031158_u69w8yhxdu.woff?t=1630033759944") format("woff"), url("//at.alicdn.com/t/font_1031158_u69w8yhxdu.ttf?t=1630033759944") format("truetype"); }
</style></defs><path d="M950.272 387.072l-39.424-39.424c-3.072-3.072-8.192-3.072-11.264 0l-29.184 29.184-108.544-241.152H262.144L153.6 376.832l-29.184-29.184c-3.072-3.072-8.192-3.072-11.264 0l-39.424 39.424c-3.072 3.072-3.072 8.192 0 11.264l48.64 48.64-10.24 22.528v387.072c0 17.92 14.336 31.744 31.744 31.744H199.68c17.92 0 31.744-14.336 31.744-31.744V814.08h560.128v41.984c0 17.92 14.336 31.744 31.744 31.744h55.808c17.92 0 31.744-14.336 31.744-31.744V468.992l-10.24-22.528 48.64-48.64c4.096-2.56 4.096-7.68 1.024-10.752z m-641.536-179.2h407.04l89.088 198.144H219.648l89.088-198.144zM696.832 742.4H327.168v-39.936h370.176v39.936z m56.32 0v-64c0-17.92-14.336-31.744-31.744-31.744H303.104c-17.92 0-31.744 14.336-31.744 31.744V742.4H184.32V484.864l6.656-14.848h642.56l6.656 14.848V742.4h-87.04z" p-id="66492"></path><path d="M220.16 553.984c0 26.624 21.504 48.128 48.128 48.128s48.128-21.504 48.128-48.128-21.504-48.128-48.128-48.128-48.128 21.504-48.128 48.128z m487.936 0c0 26.624 21.504 48.128 48.128 48.128s48.128-21.504 48.128-48.128-21.504-48.128-48.128-48.128-48.128 21.504-48.128 48.128z" p-id="66493"></path></svg>