<?xml version="1.0" standalone="no"?><!DOCTYPE svg PUBLIC "-//W3C//DTD SVG 1.1//EN" "http://www.w3.org/Graphics/SVG/1.1/DTD/svg11.dtd"><svg t="1677638123916" class="icon" viewBox="0 0 1024 1024" version="1.1" xmlns="http://www.w3.org/2000/svg" p-id="3038" xmlns:xlink="http://www.w3.org/1999/xlink" width="200" height="200"><path d="M195.2 198.592c2.176 0 4.224 0.832 5.76 2.368l42.432 42.432a8 8 0 0 1 0.064 11.136 371.968 371.968 0 0 0 0 514.944 8 8 0 0 1-0.064 11.2L200.96 823.04a8 8 0 0 1-11.52-0.064 447.68 447.68 0 0 1 0-621.952 8 8 0 0 1 5.76-2.432z m633.6 0c2.176 0 4.224 0.896 5.696 2.432a447.616 447.616 0 0 1 0 621.952 8 8 0 0 1-11.456 0.064l-42.368-42.368a8 8 0 0 1-0.128-11.2 372.032 372.032 0 0 0 0-514.944 8 8 0 0 1 0.128-11.136l42.368-42.432a8 8 0 0 1 5.76-2.368zM721.28 306.048c2.176 0 4.224 0.896 5.76 2.432a296 296 0 0 1 0 406.912 8 8 0 0 1-11.52 0.192l-42.368-42.432a8 8 0 0 1-0.256-11.136 220.032 220.032 0 0 0 0-300.096 8 8 0 0 1 0.256-11.072l42.432-42.432a8 8 0 0 1 5.76-2.368z m-418.56 0c2.112 0 4.16 0.832 5.76 2.368l42.368 42.432c3.072 3.072 3.2 8 0.256 11.136a220.032 220.032 0 0 0 0 300.096 8 8 0 0 1-0.192 11.072l-42.496 42.432a8 8 0 0 1-11.392-0.128 296 296 0 0 1 0-406.912 8 8 0 0 1 5.696-2.432z m201.408 99.136L618.88 519.872c3.84 3.712 3.84 7.488 0 11.264L531.2 618.88c-3.776 3.84-7.552 3.84-11.328 0L405.184 504.128c-3.84-3.712-3.84-7.488 0-11.264L492.8 405.12c3.776-3.84 7.552-3.84 11.264 0z" p-id="3039"></path></svg>