<?xml version="1.0" standalone="no"?><!DOCTYPE svg PUBLIC "-//W3C//DTD SVG 1.1//EN" "http://www.w3.org/Graphics/SVG/1.1/DTD/svg11.dtd"><svg t="1695037131204" class="icon" viewBox="0 0 1024 1024" version="1.1" xmlns="http://www.w3.org/2000/svg" p-id="1090" xmlns:xlink="http://www.w3.org/1999/xlink" width="200" height="200"><path d="M512 112c247.424 0 448 127.552 448 257.984 0 53.568-33.792 108.672-90.752 155.008l-1.28 0.96v139.264a16 16 0 0 1-13.632 15.808l-13.824 1.92-6.272 0.96C777.984 811.648 669.568 912.128 512 912.128s-265.984-100.48-322.24-228.224l2.56 0.32a2416.96 2416.96 0 0 1-22.656-3.2 16 16 0 0 1-13.632-15.808V525.952l-1.28-0.96C97.792 478.656 64 423.552 64 369.92 64 239.552 264.576 112 512 112z m255.168 580.096l-3.008 0.32a2360.832 2360.832 0 0 1-504.128 0l-3.2-0.256C309.952 782.592 389.12 856 512 856c121.664 0 200.384-72 253.568-161.216l1.6-2.688z m36.8-77.056h-584v9.152l3.456 0.384a2387.455 2387.455 0 0 0 284.672 17.408H512c96 0 192-5.76 288.128-17.28l3.84-0.512v-9.152z m-288.576-83.008H512c-51.264 0-102.592 2.496-153.856 7.424l-2.688 0.256-3.904 0.448c-43.84 4.416-87.68 10.688-131.584 18.752v8.128h584v-8.128a1608.768 1608.768 0 0 0-288.576-26.88zM512 184c-105.984 0-206.4 26.24-280 69.952-32.896 19.584-58.496 41.6-75.136 63.808C142.592 336.832 136 354.432 136 369.92c0 27.904 21.12 63.808 62.912 98.176l0.256 0.192 22.784 17.152a1677.568 1677.568 0 0 1 286.336-25.408h3.776c95.424 0 190.912 8.256 286.272 24.704l3.712 0.64 22.784-17.088 0.256-0.192c41.408-34.048 62.464-69.504 62.912-97.28v-0.832c0-15.488-6.592-33.152-20.864-52.224-16.64-22.208-42.24-44.224-75.136-63.808C718.4 210.24 617.984 184 512 184z m4.48 24.96l68.352 27.008a6.4 6.4 0 0 1 4.032 6.016v55.232c-0.128 21.12-5.312 37.632-14.08 50.88h47.104a7.04 7.04 0 0 1 3.264 0.512 6.4 6.4 0 0 1 3.392 8.448l-0.128 0.256-0.256 0.64-0.64 1.344a128.512 128.512 0 0 1-232.96-3.2l-0.128-0.192a5.76 5.76 0 0 1 5.312-7.808h48.96l-0.32-0.512a90.432 90.432 0 0 1-13.76-50.368V241.92a6.4 6.4 0 0 1 4.032-6.016l68.352-27.072a12.8 12.8 0 0 1 9.472 0zM512 256a32 32 0 1 0 0 64 32 32 0 0 0 0-64z" p-id="1091"></path></svg>