<?xml version="1.0" standalone="no"?><!DOCTYPE svg PUBLIC "-//W3C//DTD SVG 1.1//EN" "http://www.w3.org/Graphics/SVG/1.1/DTD/svg11.dtd"><svg t="1706282471741" class="icon" viewBox="0 0 1024 1024" version="1.1" xmlns="http://www.w3.org/2000/svg" p-id="1921" xmlns:xlink="http://www.w3.org/1999/xlink" width="200" height="200"><path d="M312 112c4.416 0 8 3.584 8 8v288a184 184 0 0 1 178.944 201.92l-0.192 1.6-15.36 144A184 184 0 0 1 303.232 920h-11.648a184 184 0 0 1-182.656-161.664l-0.32-2.816-15.36-144A184 184 0 0 1 248 410.24V120c0-4.416 3.584-8 8-8h56z m3.84 376h-39.68a104 104 0 0 0-103.552 113.28l0.192 1.792 15.36 144c5.632 52.288 49.408 92.16 101.824 92.928h10.432c52.608 0 96.896-39.296 103.232-91.392l0.192-1.536 15.36-144A104 104 0 0 0 317.504 488h-1.728z m262.08-376c4.352 0 7.872 3.456 8 7.744v312c0.832 51.2 38.72 93.44 88 101.056V120c0-4.416 3.584-8 8-8h64c4.48 0 8 3.584 8 8v412.8a104 104 0 0 0 88-101.248V120c0-4.352 3.456-7.872 7.744-8h64.256c4.352 0 7.872 3.456 8 7.744v313.28a184 184 0 0 1-171.968 180.608V904a8 8 0 0 1-8 8h-56a8 8 0 0 1-8-8V613.632a184 184 0 0 1-171.968-180.736V120c0-4.352 3.392-7.872 7.68-8h64.256z" p-id="1922"></path></svg>