<?xml version="1.0" standalone="no"?><!DOCTYPE svg PUBLIC "-//W3C//DTD SVG 1.1//EN" "http://www.w3.org/Graphics/SVG/1.1/DTD/svg11.dtd"><svg t="1678331270706" class="icon" viewBox="0 0 1024 1024" version="1.1" xmlns="http://www.w3.org/2000/svg" p-id="1948" xmlns:xlink="http://www.w3.org/1999/xlink" width="200" height="200"><path d="M232.064 112c89.6 0 163.52 70.208 168 159.744a8 8 0 0 1-7.68 8.384h-60.416a8 8 0 0 1-7.936-7.232v-0.256c-4.032-54.656-49.664-84.864-92.544-84.608-42.368 0.192-90.56 35.072-91.52 91.52v464.32c0 56 44.416 89.92 88.32 91.904 43.52 1.984 90.624-27.968 95.488-82.752l0.192-1.664a8 8 0 0 1 7.68-7.488H392a8 8 0 0 1 8 8.384A168.128 168.128 0 0 1 233.344 912c-92.224 0.64-167.872-74.88-169.408-166.848V281.728C64 188.672 139.008 112 232.064 112z m617.152 434.88a8 8 0 0 1 5.76-1.024l0.32 0.064 38.784 9.728a8 8 0 0 1 5.888 9.344v0.32l-42.88 171.712h26.88v-80.256c0-4.288 3.456-7.808 7.808-7.936h40.192c4.352 0 7.872 3.392 8 7.68v80.576H952c4.352 0 7.872 3.392 8 7.68v40.32a8 8 0 0 1-7.744 8h-12.288v110.976a8 8 0 0 1-7.68 8h-40.256a8 8 0 0 1-8-7.744V792.96h-57.664a32 32 0 0 1-31.168-39.232l0.128-0.512 50.24-201.408a8 8 0 0 1 3.648-4.928zM492.992 112c4.48 0 8 3.584 8 8v360h192V120c0-4.416 3.584-8 8-8h56c4.48 0 8 3.584 8 8v784a8 8 0 0 1-8 8h-56a8 8 0 0 1-8-8V544h-192v360a8 8 0 0 1-8 8h-56a8 8 0 0 1-8-8V120c0-4.416 3.584-8 8-8h56z" p-id="1949"></path></svg>