<?xml version="1.0" standalone="no"?><!DOCTYPE svg PUBLIC "-//W3C//DTD SVG 1.1//EN" "http://www.w3.org/Graphics/SVG/1.1/DTD/svg11.dtd"><svg t="1648459750662" class="icon" viewBox="0 0 1024 1024" version="1.1" xmlns="http://www.w3.org/2000/svg" p-id="104849" xmlns:xlink="http://www.w3.org/1999/xlink" width="200" height="200"><defs><style type="text/css">@font-face { font-family: feedback-iconfont; src: url("//at.alicdn.com/t/font_1031158_u69w8yhxdu.woff2?t=1630033759944") format("woff2"), url("//at.alicdn.com/t/font_1031158_u69w8yhxdu.woff?t=1630033759944") format("woff"), url("//at.alicdn.com/t/font_1031158_u69w8yhxdu.ttf?t=1630033759944") format("truetype"); }
</style></defs><path d="M231.55 176A104.27 104.27 0 0 1 336 272.67a8 8 0 0 0 8 7.47h48.08a8 8 0 0 0 8-8.41A168.14 168.14 0 0 0 232.05 112C139 112 64 188.66 64 281.74v460.61c0 93.2 76.25 170.35 169.44 169.65a168.12 168.12 0 0 0 166.63-159.74 8 8 0 0 0-8-8.4H344a8 8 0 0 0-8 7.49 104.14 104.14 0 0 1-208-7.49V281.28c0-57.47 46.08-104.96 103.55-105.28zM757.37 112h-48a8 8 0 0 0-8 8v360H493.09V120a8 8 0 0 0-8-8h-48a8 8 0 0 0-8 8v784a8 8 0 0 0 8 8h48a8 8 0 0 0 8-8V544h208.28v360a8 8 0 0 0 8 8h48a8 8 0 0 0 8-8V120a8 8 0 0 0-8-8zM952 737h-12v-80.2a8 8 0 0 0-8-8h-40a8 8 0 0 0-8 8V737h-26.89l42.81-171.67a8 8 0 0 0-5.83-9.7l-38.81-9.68a8 8 0 0 0-9.7 5.83l-50.24 201.45a32 32 0 0 0 31 39.75H884V904a8 8 0 0 0 8 8h40a8 8 0 0 0 8-8V793h12a8 8 0 0 0 8-8v-40a8 8 0 0 0-8-8z" p-id="104850"></path></svg>