<?xml version="1.0" standalone="no"?><!DOCTYPE svg PUBLIC "-//W3C//DTD SVG 1.1//EN" "http://www.w3.org/Graphics/SVG/1.1/DTD/svg11.dtd"><svg t="1725519787906" class="icon" viewBox="0 0 1024 1024" version="1.1" xmlns="http://www.w3.org/2000/svg" p-id="950" xmlns:xlink="http://www.w3.org/1999/xlink" width="200" height="200"><path d="M576.704 64c17.473 0.28 31.49 14.525 31.488 32v9.984H715.52c17.473 0.28 31.488 14.525 31.488 32v790.528c-0.28 17.473-14.525 31.488-32 31.488H308.48c-17.473-0.28-31.488-14.525-31.488-32V137.472c0.28-17.473 14.525-31.49 32-31.488h106.816V95.488c0.28-17.473 14.525-31.488 32-31.488h128.896z m98.304 113.984H348.992V888h326.016V177.984zM613.41 356l0.32 0.007a6.915 6.915 0 0 1 5.724 10.268l-1.01 1.826-66.183 120.96h68.67a7.776 7.776 0 0 1 6.307 12.325l-112.1 155.376c-36.104 50.017-61.97 85.814-77.6 107.392l-0.154 0.205a6.092 6.092 0 0 1-10.818-4.574l0.124-0.9c0.015-0.105 0.028-0.187 0.039-0.247l18.07-104.867c3.26-18.952 6.903-40.132 10.927-63.54H400l-0.314-0.006a6.856 6.856 0 0 1-5.969-9.593l0.733-1.696c0.2-0.466 0.352-0.834 0.46-1.103l16.992-42.373c18.018-44.867 41.438-103.018 70.26-174.453A8 8 0 0 1 489.58 356h123.83z" p-id="951"></path></svg>