<?xml version="1.0" standalone="no"?><!DOCTYPE svg PUBLIC "-//W3C//DTD SVG 1.1//EN" "http://www.w3.org/Graphics/SVG/1.1/DTD/svg11.dtd"><svg t="1722593249664" class="icon" viewBox="0 0 1024 1024" version="1.1" xmlns="http://www.w3.org/2000/svg" p-id="832" xmlns:xlink="http://www.w3.org/1999/xlink" width="200" height="200"><path d="M512 114c88.852 0 162.995 62.979 180.224 146.732C712.367 253.147 734.199 249 757 249c101.62 0 184 82.38 184 184 0 86.812-60.12 159.583-140.997 178.948L800 878c0 17.673-14.327 32-32 32H258c-17.673 0-32-14.327-32-32V612.415C144.114 593.78 83 520.527 83 433c0-101.62 82.38-184 184-184 22.801 0 44.633 4.147 64.784 11.729C349.005 176.979 423.148 114 512 114z m0 64c-57.204 0-106.166 40.367-117.528 95.62l-15.092 73.396-70.133-26.387C295.897 315.606 281.677 313 267 313c-66.274 0-120 53.726-120 120 0 56.293 39.105 104.7 93.2 117.01l49.8 11.334V846h446l0.003-284.538 49.097-11.755C838.567 536.905 877 488.803 877 433c0-66.274-53.726-120-120-120-14.676 0-28.89 2.606-42.225 7.627l-70.138 26.408-15.1-73.408C618.168 218.368 569.204 178 512 178zM404 521c6.627 0 12 5.373 12 12v236c0 6.627-5.373 12-12 12h-40c-6.627 0-12-5.373-12-12V533c0-6.627 5.373-12 12-12h40z m128 0c6.627 0 12 5.373 12 12v236c0 6.627-5.373 12-12 12h-40c-6.627 0-12-5.373-12-12V533c0-6.627 5.373-12 12-12h40z m128 0c6.627 0 12 5.373 12 12v236c0 6.627-5.373 12-12 12h-40c-6.627 0-12-5.373-12-12V533c0-6.627 5.373-12 12-12h40z" p-id="833"></path></svg>