<?xml version="1.0" standalone="no"?><!DOCTYPE svg PUBLIC "-//W3C//DTD SVG 1.1//EN" "http://www.w3.org/Graphics/SVG/1.1/DTD/svg11.dtd"><svg t="1706282547007" class="icon" viewBox="0 0 1024 1024" version="1.1" xmlns="http://www.w3.org/2000/svg" p-id="4411" xmlns:xlink="http://www.w3.org/1999/xlink" width="200" height="200"><path d="M627.328 382.528l0.256 0.192 277.952 208.128a16 16 0 0 1 6.4 12.416V880a32 32 0 0 1-31.488 32h-0.512l-736.512 0.128a32 32 0 0 1-31.488-31.488V389.248a8 8 0 0 1 12.608-6.592l0.256 0.192 238.336 180.8V389.376a8 8 0 0 1 12.544-6.592l0.256 0.192 238.848 183.168V389.12a8 8 0 0 1 12.544-6.592z m59.456 134.464v195.072l-251.648-192.96v189.504l-251.2-190.528v322.048l656-0.128V631.68L686.784 516.992zM297.344 112c4.288 0 7.808 3.392 8 7.68l13.568 334.08a8 8 0 0 1-12.864 6.72l-100.8-77.312a16 16 0 0 1-6.272-13.248l9.088-250.24a8 8 0 0 1 8-7.744h81.28z m503.424 0c4.224 0 7.744 3.2 8.064 7.424v0.256l13.44 334.08a8 8 0 0 1-12.608 6.912l-0.256-0.192-100.864-77.248a16 16 0 0 1-6.272-12.928v-0.384l9.088-250.24a8 8 0 0 1 7.744-7.68h81.664z m-244.096 0l13.76 341.76a8 8 0 0 1-12.544 6.912l-0.256-0.192-100.864-77.248a16 16 0 0 1-6.272-12.928v-0.384l9.088-250.24a8 8 0 0 1 7.744-7.68h89.344z" p-id="4412"></path></svg>