<?xml version="1.0" standalone="no"?><!DOCTYPE svg PUBLIC "-//W3C//DTD SVG 1.1//EN" "http://www.w3.org/Graphics/SVG/1.1/DTD/svg11.dtd"><svg t="1677638181429" class="icon" viewBox="0 0 1024 1024" version="1.1" xmlns="http://www.w3.org/2000/svg" p-id="3348" xmlns:xlink="http://www.w3.org/1999/xlink" width="200" height="200"><path d="M824 168a32 32 0 0 1 32 32v172.032h72c4.416 0 8 3.52 8 8v40a8 8 0 0 1-8 8h-72v56h72c4.416 0 8 3.52 8 8v40a8 8 0 0 1-8 7.936h-72v56.064h72c4.416 0 8 3.52 8 7.936v40.064a8 8 0 0 1-8 7.936h-72V824a32 32 0 0 1-32 32H651.968v72a8 8 0 0 1-7.936 8h-40.064a8 8 0 0 1-7.936-8v-72h-56.064v72a8 8 0 0 1-7.936 8h-40.064a8 8 0 0 1-8-8v-72h-56v72a8 8 0 0 1-8 8h-40a8 8 0 0 1-8-8v-72H200.064a32 32 0 0 1-32-32V651.968H96a8 8 0 0 1-8-7.936v-40.064c0-4.416 3.584-7.936 8-7.936h72v-56.064H96a8 8 0 0 1-8-7.936v-40.064c0-4.416 3.584-8 8-8h72v-56H96a8 8 0 0 1-8-8v-40c0-4.416 3.584-8 8-8h72V200.064a32 32 0 0 1 32-32h172.032V96c0-4.416 3.52-8 8-8h40c4.416 0 8 3.584 8 8v72h56V96c0-4.416 3.52-8 8-8h40c4.416 0 7.936 3.584 7.936 8v72h56.064V96c0-4.416 3.52-8 7.936-8h40.064c4.416 0 7.936 3.584 7.936 8v72H824z m-40 72H240v544h544V240z m-88 72a16 16 0 0 1 16 16v368a16 16 0 0 1-16 16H328a16 16 0 0 1-16-16V328a16 16 0 0 1 16-16h368z m-40 56H368v288h288V368z" p-id="3349"></path></svg>