<?xml version="1.0" standalone="no"?><!DOCTYPE svg PUBLIC "-//W3C//DTD SVG 1.1//EN" "http://www.w3.org/Graphics/SVG/1.1/DTD/svg11.dtd"><svg t="1677575700597" class="icon" viewBox="0 0 1024 1024" version="1.1" xmlns="http://www.w3.org/2000/svg" p-id="1936" xmlns:xlink="http://www.w3.org/1999/xlink" width="200" height="200"><path d="M899.072 869.632l-52.992-305.6H864a25.92 25.92 0 0 0 25.984-26.048v-192A25.92 25.92 0 0 0 864 320H617.984V137.984A25.92 25.92 0 0 0 592 112H432a25.92 25.92 0 0 0-25.984 25.984V320H160a25.92 25.92 0 0 0-25.984 25.984v192A25.921 25.921 0 0 0 160 563.968h17.92l-52.992 305.664a25.92 25.92 0 0 0 25.6 30.4h722.944a25.856 25.856 0 0 0 25.6-30.4z m-695.04-479.616h272v-208h72v208h272v104H203.968v-104z m467.968 440V673.92a8 8 0 0 0-8-8h-48a8 8 0 0 0-8 8v156.032H416V673.92a8 8 0 0 0-8-8h-48a8 8 0 0 0-8 8v156.032H202.816l45.056-260.032H776l45.12 260.032H672z" p-id="1937"></path></svg>