<?xml version="1.0" standalone="no"?><!DOCTYPE svg PUBLIC "-//W3C//DTD SVG 1.1//EN" "http://www.w3.org/Graphics/SVG/1.1/DTD/svg11.dtd"><svg t="1699413282160" class="icon" viewBox="0 0 1024 1024" version="1.1" xmlns="http://www.w3.org/2000/svg" p-id="812" xmlns:xlink="http://www.w3.org/1999/xlink" width="200" height="200"><path d="M744 480c119.25 0 216 96.75 216 216s-96.75 216-216 216-216-96.75-216-216 96.75-216 216-216z m0 64c-83.817 0-152 68.183-152 152s68.183 152 152 152c84.251 0 152-68.183 152-152s-68.183-152-152-152zM282 768l208.438 0.001a262.708 262.708 0 0 0 32.76 72.004L282 840a8 8 0 0 1-8-8v-56a8 8 0 0 1 8-8z m550.532-157.851a5.333 5.333 0 0 1 0 4.371l-33.077 73.626a56.52 56.52 0 0 1 0.547 7.855c0 30.928-25.073 56-56.001 56-2.666 0-5.289-0.185-7.855-0.546l-73.626 33.077a5.333 5.333 0 0 1-7.05-7.051l33.076-73.625a56.487 56.487 0 0 1-0.546-7.855C688 665.072 713.072 640 744 640c2.667 0 5.29 0.186 7.856 0.546l73.625-33.076a5.333 5.333 0 0 1 7.05 2.679zM744.5 678l-0.306 0.002-0.436 0.013-0.261 0.012-0.12 0.007a18.51 18.51 0 0 0-5.825 1.315l-0.35 0.146-0.346 0.153a18.5 18.5 0 0 0-3.832 2.341l-0.317 0.256a18.607 18.607 0 0 0-2.174 2.124l-0.23 0.269a18.5 18.5 0 0 0-2.849 4.66A18.507 18.507 0 0 0 726 696.5l0.002 0.306 0.007 0.262a18.52 18.52 0 0 0 1.346 6.394l0.099 0.239a18.52 18.52 0 0 0 3.965 5.88l0.211 0.209 0.323 0.305a18.508 18.508 0 0 0 5.76 3.62 18.509 18.509 0 0 0 4.935 1.193l0.463 0.04 0.422 0.027 0.158 0.008c0.268 0.011 0.538 0.017 0.809 0.017l0.306-0.002 0.282-0.007 0.411-0.018 0.385-0.024a18.51 18.51 0 0 0 5.31-1.197l0.24-0.095a18.5 18.5 0 0 0 5.213-3.203l0.304-0.271 0.096-0.088c0.18-0.167 0.359-0.338 0.534-0.514l0.209-0.211 0.305-0.323a18.506 18.506 0 0 0 3.657-5.854 18.535 18.535 0 0 0 1.24-6.125l0.006-0.262 0.002-0.306a18.526 18.526 0 0 0-1.285-6.786 18.492 18.492 0 0 0-3.295-5.4l-0.264-0.295-0.06-0.066a18.823 18.823 0 0 0-0.94-0.947 18.522 18.522 0 0 0-5.455-3.552l-0.24-0.1a18.501 18.501 0 0 0-5.425-1.29l-0.415-0.03-0.377-0.02-0.37-0.01-0.374-0.004zM906 136c17.673 0 32.006 14.327 32.006 32v348.411c-20.579-22.163-44.919-40.785-72.005-54.852L866 208H160v416h330.438c-6.474 22.888-9.938 47.04-9.938 72H120c-17.673 0-32-14.327-32-32V168c0-17.673 14.327-32 32-32h786z" p-id="813"></path></svg>