<?xml version="1.0" standalone="no"?><!DOCTYPE svg PUBLIC "-//W3C//DTD SVG 1.1//EN" "http://www.w3.org/Graphics/SVG/1.1/DTD/svg11.dtd"><svg t="1724641998481" class="icon" viewBox="0 0 1024 1024" version="1.1" xmlns="http://www.w3.org/2000/svg" p-id="1963" xmlns:xlink="http://www.w3.org/1999/xlink" width="200" height="200"><path d="M524.713 101.564l330.07 428.581c5.39 7.001 4.086 17.048-2.915 22.44a16 16 0 0 1-9.762 3.323H654.38v364.308c0 8.731-6.994 15.83-15.685 16H385.692c-8.836 0-16-7.163-16-16V555.908H181.967c-8.836 0-16-7.163-16-16a16 16 0 0 1 3.324-9.763l330.07-428.581c5.39-7.001 15.437-8.306 22.438-2.914a16 16 0 0 1 2.914 2.914z m-12.676 114.652l-200 259.692h137.655v380.308h124.689V475.908h137.656l-200-259.692z" p-id="1964"></path></svg>