<?xml version="1.0" standalone="no"?><!DOCTYPE svg PUBLIC "-//W3C//DTD SVG 1.1//EN" "http://www.w3.org/Graphics/SVG/1.1/DTD/svg11.dtd"><svg t="1648563725510" class="icon" viewBox="0 0 1024 1024" version="1.1" xmlns="http://www.w3.org/2000/svg" p-id="22843" xmlns:xlink="http://www.w3.org/1999/xlink" width="200" height="200"><defs><style type="text/css">@font-face { font-family: feedback-iconfont; src: url("//at.alicdn.com/t/font_1031158_u69w8yhxdu.woff2?t=1630033759944") format("woff2"), url("//at.alicdn.com/t/font_1031158_u69w8yhxdu.woff?t=1630033759944") format("woff"), url("//at.alicdn.com/t/font_1031158_u69w8yhxdu.ttf?t=1630033759944") format("truetype"); }
</style></defs><path d="M512 64C264.58 64 64 264.58 64 512s200.58 448 448 448 448-200.58 448-448S759.42 64 512 64z m263 711a370.52 370.52 0 1 1 79.8-118.22A370.77 370.77 0 0 1 775 775z" p-id="22844"></path><path d="M548 497.09V296a8 8 0 0 0-8-8h-56a8 8 0 0 0-8 8v217.66a32 32 0 0 0 9.37 22.62l153.91 153.91a8 8 0 0 0 11.31 0l39.6-39.6a8 8 0 0 0 0-11.31z" p-id="22845"></path></svg>