<?xml version="1.0" standalone="no"?><!DOCTYPE svg PUBLIC "-//W3C//DTD SVG 1.1//EN" "http://www.w3.org/Graphics/SVG/1.1/DTD/svg11.dtd"><svg t="1733911071147" class="icon" viewBox="0 0 1024 1024" version="1.1" xmlns="http://www.w3.org/2000/svg" p-id="1040" xmlns:xlink="http://www.w3.org/1999/xlink" width="200" height="200"><path d="M542.08 160h-60.16a8 8 0 0 0-8 8v688c0 4.416 3.584 8 8 8h60.032a8 8 0 0 0 7.936-8V168a8 8 0 0 0-7.936-7.936V160zM297.728 403.52a7.232 7.232 0 0 0-11.712 5.696v66.688H40.064a8 8 0 0 0-8 8v56.064c-0.064 4.352 3.392 7.872 7.68 8h246.208v62.784c0 6.016 7.04 9.408 11.712 5.696l127.488-100.8a7.232 7.232 0 0 0 0.192-11.392L297.792 403.584v-0.064z m428.416 0a7.232 7.232 0 0 1 11.712 5.696v66.688h246.08c4.416 0 8 3.584 8 8v56.064a8 8 0 0 1-7.68 8H737.984v62.784c0 6.016-7.04 9.408-11.712 5.696l-127.424-100.8a7.232 7.232 0 0 1-0.192-11.392l127.552-100.672v-0.064z" p-id="1041"></path></svg>