<?xml version="1.0" standalone="no"?><!DOCTYPE svg PUBLIC "-//W3C//DTD SVG 1.1//EN" "http://www.w3.org/Graphics/SVG/1.1/DTD/svg11.dtd"><svg t="1689303149541" class="icon" viewBox="0 0 1024 1024" version="1.1" xmlns="http://www.w3.org/2000/svg" p-id="1182" xmlns:xlink="http://www.w3.org/1999/xlink" width="200" height="200"><path d="M811.392 418.688a320.128 320.128 0 0 0-299.2-206.72 320 320 0 0 0-299.2 206.656 200 200 0 0 0 50.88 393.344h496.256a199.936 199.936 0 0 0 51.264-393.28z m36.288 280.96A123.072 123.072 0 0 1 760.128 736H263.872a123.072 123.072 0 0 1-87.552-36.288 123.328 123.328 0 0 1-36.288-87.68c0-28.032 9.088-54.336 26.176-76.352 16.64-21.248 40.192-36.8 66.112-43.648l37.888-9.92 13.888-36.608a245.632 245.632 0 0 1 88.128-113.28A242.112 242.112 0 0 1 512.192 288c50.56 0 98.88 15.36 140.032 44.16a245.76 245.76 0 0 1 88.064 113.28l13.824 36.544 37.76 10.048a124.224 124.224 0 0 1 55.808 207.68z" p-id="1183"></path></svg>