<?xml version="1.0" standalone="no"?><!DOCTYPE svg PUBLIC "-//W3C//DTD SVG 1.1//EN" "http://www.w3.org/Graphics/SVG/1.1/DTD/svg11.dtd"><svg t="1648460453529" class="icon" viewBox="0 0 1024 1024" version="1.1" xmlns="http://www.w3.org/2000/svg" p-id="105501" xmlns:xlink="http://www.w3.org/1999/xlink" width="200" height="200"><defs><style type="text/css">@font-face { font-family: feedback-iconfont; src: url("//at.alicdn.com/t/font_1031158_u69w8yhxdu.woff2?t=1630033759944") format("woff2"), url("//at.alicdn.com/t/font_1031158_u69w8yhxdu.woff?t=1630033759944") format("woff"), url("//at.alicdn.com/t/font_1031158_u69w8yhxdu.ttf?t=1630033759944") format("truetype"); }
</style></defs><path d="M385.44 805.44A118 118 0 0 1 184 722V303.29c0-31.29 11.86-61.61 33.78-83.94a118 118 0 0 1 202 75.13 8 8 0 0 0 8 7.52h56.08a8 8 0 0 0 8-8.36c-4.41-100.93-87.52-181.45-189.5-181.64C197.66 111.8 112 198.92 112 303.62V720.3c0 105.31 86.16 192.48 191.46 191.7a190 190 0 0 0 188.36-181.67 8 8 0 0 0-8-8.33h-56.08a8 8 0 0 0-8 7.51 117.11 117.11 0 0 1-34.3 75.93zM722 184a118 118 0 0 1 118 118v420a118 118 0 1 1-236 0V302a118 118 0 0 1 118-118m0-72c-104.93 0-190 85.07-190 190v420c0 104.93 85.07 190 190 190s190-85.07 190-190V302c0-104.93-85.07-190-190-190z" p-id="105502"></path></svg>