<?xml version="1.0" standalone="no"?><!DOCTYPE svg PUBLIC "-//W3C//DTD SVG 1.1//EN" "http://www.w3.org/Graphics/SVG/1.1/DTD/svg11.dtd"><svg t="1678331262249" class="icon" viewBox="0 0 1024 1024" version="1.1" xmlns="http://www.w3.org/2000/svg" p-id="1638" xmlns:xlink="http://www.w3.org/1999/xlink" width="200" height="200"><path d="M385.408 805.44A118.016 118.016 0 0 1 184 721.984V303.36a118.016 118.016 0 0 1 235.776-8.96 8 8 0 0 0 8 7.552h56.064a8 8 0 0 0 8-8.32A190.08 190.08 0 0 0 302.4 111.936c-104.832-0.128-190.4 86.976-190.4 191.68v416.64C112 825.6 198.144 912.768 303.488 912A190.016 190.016 0 0 0 491.84 730.304a8 8 0 0 0-8-8.32h-56.128a8 8 0 0 0-8 7.552 117.12 117.12 0 0 1-34.24 75.904zM722.048 184C787.2 184 840 236.8 840 302.016v419.968a118.016 118.016 0 0 1-236.032 0V302.08c0-65.216 52.864-118.016 118.016-118.016m0-72A190.016 190.016 0 0 0 531.968 302.08v419.968a190.016 190.016 0 0 0 380.032 0V302.08c0-104.96-85.12-190.016-190.016-190.016z" p-id="1639"></path></svg>