<?xml version="1.0" standalone="no"?><!DOCTYPE svg PUBLIC "-//W3C//DTD SVG 1.1//EN" "http://www.w3.org/Graphics/SVG/1.1/DTD/svg11.dtd"><svg t="1678331285483" class="icon" viewBox="0 0 1024 1024" version="1.1" xmlns="http://www.w3.org/2000/svg" p-id="2414" xmlns:xlink="http://www.w3.org/1999/xlink" width="200" height="200"><path d="M231.36 840a96.64 96.64 0 0 1-94.848-97.024V281.024A96.64 96.64 0 0 1 231.36 184a96 96 0 0 1 96.512 88.32c0.256 4.224 3.776 7.488 8 7.488H392a8 8 0 0 0 8-8.384A167.808 167.808 0 0 0 232.256 112c-92.928 0-167.744 76.48-167.744 169.408v461.248c0 92.992 76.16 169.984 169.152 169.344A167.872 167.872 0 0 0 400 752.576a8 8 0 0 0-8-8.384h-56.128c-4.16 0-7.68 3.2-8 7.424A96 96 0 0 1 231.36 840z m365.824-656c52.928 0.064 95.744 42.88 95.808 95.808v464.384a95.808 95.808 0 1 1-191.68 0V279.808c0.064-52.864 42.944-95.744 95.872-95.808m0-72A167.808 167.808 0 0 0 429.44 279.808v464.384a167.808 167.808 0 1 0 335.616 0V279.808A167.808 167.808 0 0 0 597.184 112zM952 912H822.272a32 32 0 0 1-29.248-44.992L901.44 643.456a28.608 28.608 0 0 0 2.56-11.392 30.08 30.08 0 0 0-25.6-29.44 29.12 29.12 0 0 0-31.872 22.656 8 8 0 0 1-7.808 6.208h-40.512a8 8 0 0 1-7.936-8.832A85.12 85.12 0 0 1 960 631.488a85.6 85.6 0 0 1-7.488 35.008L859.264 856H952c4.416 0 8 3.584 8 8v40a8 8 0 0 1-8 8z" p-id="2415"></path></svg>