<?xml version="1.0" standalone="no"?><!DOCTYPE svg PUBLIC "-//W3C//DTD SVG 1.1//EN" "http://www.w3.org/Graphics/SVG/1.1/DTD/svg11.dtd"><svg t="1648459593655" class="icon" viewBox="0 0 1024 1024" version="1.1" xmlns="http://www.w3.org/2000/svg" p-id="104589" xmlns:xlink="http://www.w3.org/1999/xlink" width="200" height="200"><defs><style type="text/css">@font-face { font-family: feedback-iconfont; src: url("//at.alicdn.com/t/font_1031158_u69w8yhxdu.woff2?t=1630033759944") format("woff2"), url("//at.alicdn.com/t/font_1031158_u69w8yhxdu.woff?t=1630033759944") format("woff"), url("//at.alicdn.com/t/font_1031158_u69w8yhxdu.ttf?t=1630033759944") format("truetype"); }
</style></defs><path d="M231.38 840c-52.75-0.51-94.88-44.29-94.88-97V281.05c0-52.76 42.13-96.54 94.88-97.05a96 96 0 0 1 96.49 88.36 8 8 0 0 0 8 7.47H392a8 8 0 0 0 8-8.41A167.83 167.83 0 0 0 232.24 112C139.32 112 64.5 188.51 64.5 281.43v461.24c0 93 76.12 170 169.16 169.32A167.84 167.84 0 0 0 400 752.57a8 8 0 0 0-8-8.4h-56.1a8 8 0 0 0-8 7.46A96 96 0 0 1 231.38 840zM597.19 184A95.93 95.93 0 0 1 693 279.82v464.35a95.83 95.83 0 1 1-191.66 0V279.82A95.93 95.93 0 0 1 597.19 184m0-72a167.82 167.82 0 0 0-167.83 167.82v464.35A167.83 167.83 0 0 0 597.19 912 167.83 167.83 0 0 0 765 744.17V279.82A167.82 167.82 0 0 0 597.19 112zM952 912H822.27A32 32 0 0 1 793 867l108.45-223.56a28.62 28.62 0 0 0 2.55-11.36c0.27-14.28-11.47-27.85-25.66-29.48a29.14 29.14 0 0 0-31.84 22.65 8 8 0 0 1-7.79 6.25h-40.47a8 8 0 0 1-8-8.82A85.09 85.09 0 0 1 960 631.5a84.3 84.3 0 0 1-7.5 35L859.25 856H952a8 8 0 0 1 8 8v40a8 8 0 0 1-8 8z" p-id="104590"></path></svg>