<?xml version="1.0" standalone="no"?><!DOCTYPE svg PUBLIC "-//W3C//DTD SVG 1.1//EN" "http://www.w3.org/Graphics/SVG/1.1/DTD/svg11.dtd"><svg t="1703830369770" class="icon" viewBox="0 0 1024 1024" version="1.1" xmlns="http://www.w3.org/2000/svg" p-id="1534" xmlns:xlink="http://www.w3.org/1999/xlink" width="200" height="200"><path d="M727.744 488a17.92 17.92 0 0 1 8.192 8.192l64.384 130.432 144 20.928a17.92 17.92 0 0 1 9.92 30.656L850.048 779.776l24.64 143.36a17.92 17.92 0 0 1-26.112 18.944l-128.768-67.712L591.04 942.08a17.92 17.92 0 0 1-26.048-18.944l24.576-143.36-104.192-101.568a17.92 17.92 0 0 1 9.984-30.656l144-20.928 64.32-130.432A17.92 17.92 0 0 1 727.744 488z m-302.72 328c3.84 0 6.976 3.584 6.976 8v56c0 4.416-3.136 8-6.976 8H142.976c-3.84 0-6.976-3.584-6.976-8v-56c0-4.416 3.136-8 6.976-8H424.96z m294.784-207.872l-38.016 76.992-84.928 12.352 61.44 59.968-14.464 84.608 75.968-40 76.032 40-14.528-84.608 61.44-59.968-84.928-12.352-38.016-76.992z m-294.784-19.136c3.84 0 6.976 3.584 6.976 8v56c0 4.48-3.136 8-6.976 8H142.976c-3.84 0-6.976-3.584-6.976-8v-56c0-4.416 3.136-8 6.976-8H424.96zM880 363.008c4.416 0 8 3.584 8 8v56a8 8 0 0 1-8 8H144a8 8 0 0 1-8-8v-56c0-4.48 3.584-8 8-8h736zM880 136c4.416 0 8 3.584 8 8v56a8 8 0 0 1-8 8H144a8 8 0 0 1-8-8v-56c0-4.416 3.584-8 8-8h736z" p-id="1535"></path></svg>