<?xml version="1.0" encoding="UTF-8"?>
<svg width="24px" height="24px" viewBox="0 0 24 24" version="1.1" xmlns="http://www.w3.org/2000/svg" xmlns:xlink="http://www.w3.org/1999/xlink">
    <title>icon/收藏</title>
    <g id="icon/收藏" stroke="none" stroke-width="1" fill="none" fill-rule="evenodd">
        <g id="我的收藏" fill="#0A1B39">
            <rect id="矩形" fill-opacity="0" x="0" y="0" width="24" height="24"></rect>
            <path d="M16.4945233,9.56282385 C16.5775399,9.603795 16.644735,9.67099018 16.6857062,9.75400679 L18.1948645,12.8118955 L21.5694451,13.3022508 C21.7995131,13.3356816 21.9589189,13.5492896 21.9254881,13.7793576 C21.9121758,13.8709718 21.8690338,13.9556427 21.8027411,14.0202621 L19.3608717,16.4004965 L19.9373188,19.7614415 C19.9766191,19.9905798 19.822725,20.2081923 19.5935867,20.2474926 C19.5023426,20.2631422 19.4084842,20.2482765 19.3265419,20.2051969 L16.3082253,18.6183739 L13.2899087,20.2051969 C13.0841296,20.3133813 12.8296119,20.2342653 12.7214275,20.0284863 C12.6783479,19.946544 12.6634822,19.8526856 12.6791318,19.7614415 L13.255579,16.4004965 L10.8137095,14.0202621 C10.6472308,13.8579854 10.6438243,13.5914765 10.806101,13.4249978 C10.8707204,13.3587051 10.9553913,13.3155631 11.0470055,13.3022508 L14.4215861,12.8118955 L15.9307444,9.75400679 C16.0336339,9.54552985 16.2860463,9.45993434 16.4945233,9.56282385 Z M9.96195652,18.5625 C10.0520029,18.5625 10.125,18.6464466 10.125,18.75 L10.125,20.0625 C10.125,20.1660534 10.0520029,20.25 9.96195652,20.25 L2.78804348,20.25 C2.69799705,20.25 2.625,20.1660534 2.625,20.0625 L2.625,18.75 C2.625,18.6464466 2.69799705,18.5625 2.78804348,18.5625 L9.96195652,18.5625 Z M16.3082109,12.3784687 L15.4176844,14.1829072 L13.4263594,14.4722344 L14.8672998,15.8768167 L14.5271484,17.8600547 L16.3082253,16.9237103 L18.0892969,17.8600547 L17.7491508,15.8768167 L19.1900625,14.4722344 L17.1987662,14.1829072 L16.3082109,12.3784687 Z M9.96195652,10.96875 C10.0520029,10.96875 10.125,11.0526966 10.125,11.15625 L10.125,12.46875 C10.125,12.5723034 10.0520029,12.65625 9.96195652,12.65625 L2.78804348,12.65625 C2.69799705,12.65625 2.625,12.5723034 2.625,12.46875 L2.625,11.15625 C2.625,11.0526966 2.69799705,10.96875 2.78804348,10.96875 L9.96195652,10.96875 Z M21.1875,3.75 C21.2910534,3.75 21.375,3.83394661 21.375,3.9375 L21.375,5.25 C21.375,5.35355339 21.2910534,5.4375 21.1875,5.4375 L2.8125,5.4375 C2.70894661,5.4375 2.625,5.35355339 2.625,5.25 L2.625,3.9375 C2.625,3.83394661 2.70894661,3.75 2.8125,3.75 L21.1875,3.75 Z" id="形状结合"></path>
        </g>
    </g>
</svg>
