<?xml version="1.0" standalone="no"?><!DOCTYPE svg PUBLIC "-//W3C//DTD SVG 1.1//EN" "http://www.w3.org/Graphics/SVG/1.1/DTD/svg11.dtd"><svg t="1694413916022" class="icon" viewBox="0 0 1024 1024" version="1.1" xmlns="http://www.w3.org/2000/svg" p-id="1334" xmlns:xlink="http://www.w3.org/1999/xlink" width="200" height="200"><path d="M512 64a240 240 0 0 1 227.52 316.672A240 240 0 1 1 512 774.72a240 240 0 1 1-227.52-394.048A240 240 0 0 1 512 64z m191.744 384.384l-0.256 0.32a239.808 239.808 0 0 1-162.304 93.568 168 168 0 1 0 162.56-93.888z m-383.488 0l-1.344 0.064a168 168 0 1 0 152.32 261.376 240 240 0 0 1-6.592-170.496 240 240 0 0 1-144.384-90.944zM512 136a168 168 0 1 0 0 336 168 168 0 0 0 0-336z" p-id="1335"></path></svg>