<?xml version="1.0" standalone="no"?><!DOCTYPE svg PUBLIC "-//W3C//DTD SVG 1.1//EN" "http://www.w3.org/Graphics/SVG/1.1/DTD/svg11.dtd"><svg t="1677999497841" class="icon" viewBox="0 0 1024 1024" version="1.1" xmlns="http://www.w3.org/2000/svg" p-id="3665" xmlns:xlink="http://www.w3.org/1999/xlink" width="200" height="200"><path d="M232 72v112h600a32 32 0 0 1 32 32v712a32 32 0 0 1-32 32H192a32 32 0 0 1-32-32V72c0-4.416 3.584-8 8-8h56c4.416 0 8 3.584 8 8z m560 184H232v632h560V256z m-72 440c4.416 0 8 3.584 8 8v48a8 8 0 0 1-8 8h-64a8 8 0 0 1-8-8v-48c0-4.416 3.584-8 8-8h64z m-384 0a32 32 0 1 1 0 64 32 32 0 0 1 0-64z m104 0a32 32 0 1 1 0 64 32 32 0 0 1 0-64z m104 0a32 32 0 1 1 0 64 32 32 0 0 1 0-64z m168-366.016c4.416 0 8 3.584 8 8v224a8 8 0 0 1-8 8H312a8 8 0 0 1-8-8v-224c0-4.416 3.584-8 8-8h400z m-56 64H368v112h288v-112z" p-id="3666"></path></svg>