<?xml version="1.0" standalone="no"?><!DOCTYPE svg PUBLIC "-//W3C//DTD SVG 1.1//EN" "http://www.w3.org/Graphics/SVG/1.1/DTD/svg11.dtd"><svg t="1670925976783" class="icon" viewBox="0 0 1024 1024" version="1.1" xmlns="http://www.w3.org/2000/svg" p-id="932" xmlns:xlink="http://www.w3.org/1999/xlink" width="200" height="200"><path d="M512 64C264.618667 64 64 264.618667 64 512S264.618667 960 512 960 960 759.381333 960 512 759.381333 64 512 64z m0 820.010667A372.053333 372.053333 0 0 1 139.989333 512 372.053333 372.053333 0 0 1 512 139.989333 372.053333 372.053333 0 0 1 884.010667 512 372.053333 372.053333 0 0 1 512 884.010667z m198.4-588.117334a32 32 0 0 0-24.490667 0.512l-271.018666 118.613334-118.485334 270.976a31.914667 31.914667 0 0 0 17.706667 42.666666 31.573333 31.573333 0 0 0 24.490667-0.426666l270.976-118.613334 118.528-271.018666a31.914667 31.914667 0 0 0-17.706667-42.666667z m-133.589333 238.506667l26.197333 26.197333-42.410667 42.410667-26.197333-26.197333-154.410667 67.584 67.498667-154.410667-25.472-25.6 42.368-42.368 25.514667 25.472 154.496-67.498667-67.584 154.410667z m-112.426667-112.384l-42.368 42.368 25.472 25.6 86.912 86.826667 26.197333 26.197333 42.410667-42.410667-26.197333-26.197333-86.826667-86.912-25.6-25.472z" p-id="933"></path></svg>