<?xml version="1.0" standalone="no"?><!DOCTYPE svg PUBLIC "-//W3C//DTD SVG 1.1//EN" "http://www.w3.org/Graphics/SVG/1.1/DTD/svg11.dtd"><svg t="1690963721625" class="icon" viewBox="0 0 1024 1024" version="1.1" xmlns="http://www.w3.org/2000/svg" p-id="945" xmlns:xlink="http://www.w3.org/1999/xlink" width="200" height="200"><path d="M544 112c4.416 0 8 3.584 8 8v784a8 8 0 0 1-8 8h-64a8 8 0 0 1-8-8V120c0-4.416 3.584-8 8-8h64z m-136 84.032c4.416 0 8 3.52 8 7.936v56.064a8 8 0 0 1-8 8H136v488h272c4.416 0 8 3.52 8 7.936v56.064a8 8 0 0 1-8 7.936H96a32 32 0 0 1-32-32V228.032a32 32 0 0 1 32-32h312z m544 519.936c4.416 0 8 3.584 8 8.064v71.936a32 32 0 0 1-32 32h-72a8 8 0 0 1-8-7.936v-56.064c0-4.416 3.584-7.936 8-7.936h32v-32c0-4.48 3.584-8.064 8-8.064h56z m-160 40.064c4.416 0 8 3.52 8 7.936v56.064a8 8 0 0 1-8 7.936h-56a8 8 0 0 1-8-7.936v-56.064c0-4.416 3.584-7.936 8-7.936h56z m-120 0c4.416 0 8 3.52 8 7.936v56.064a8 8 0 0 1-8 7.936h-56a8 8 0 0 1-8-7.936v-56.064c0-4.416 3.584-7.936 8-7.936h56z m280-160c4.416 0 8 3.52 8 7.936v56.064a8 8 0 0 1-8 7.936h-56a8 8 0 0 1-8-7.936v-56.064c0-4.416 3.584-7.936 8-7.936h56z m0-120.064c4.416 0 8 3.584 8 8v56a8 8 0 0 1-8 8.064h-56a8 8 0 0 1-8-8.064v-55.936c0-4.48 3.584-8 8-8h56z m0-120c4.416 0 8 3.584 8 8v56a8 8 0 0 1-8 8h-56a8 8 0 0 1-8-8v-56c0-4.416 3.584-8 8-8h56z m-24-160a32 32 0 0 1 32 32v72.064a8 8 0 0 1-8 8h-56a8 8 0 0 1-8-8v-32h-32a8 8 0 0 1-8-8v-56c0-4.48 3.584-8.064 8-8.064h72z m-256 0c4.416 0 8 3.584 8 8.064v55.936a8 8 0 0 1-8 8h-56a8 8 0 0 1-8-8v-56c0-4.416 3.584-7.936 8-7.936h56z m120 0c4.416 0 8 3.584 8 8.064v55.936a8 8 0 0 1-8 8h-56a8 8 0 0 1-8-8v-56c0-4.416 3.584-7.936 8-7.936h56z" p-id="946"></path></svg>