<?xml version="1.0" standalone="no"?><!DOCTYPE svg PUBLIC "-//W3C//DTD SVG 1.1//EN" "http://www.w3.org/Graphics/SVG/1.1/DTD/svg11.dtd"><svg t="1728528285079" class="icon" viewBox="0 0 1024 1024" version="1.1" xmlns="http://www.w3.org/2000/svg" p-id="905" xmlns:xlink="http://www.w3.org/1999/xlink" width="200" height="200"><path d="M928 140.032H96a32 32 0 0 0-32 32v496a32 32 0 0 0 32 32h380.032v112H304a16 16 0 0 0-16 16v48c0 4.352 3.584 7.936 8 7.936h432a8 8 0 0 0 8-7.936v-48a16 16 0 0 0-16-16H547.968v-112H928a32 32 0 0 0 32-32v-496a32 32 0 0 0-32-32z m-40 487.936H136v-416h752v416z" p-id="906"></path></svg>