<?xml version="1.0" standalone="no"?><!DOCTYPE svg PUBLIC "-//W3C//DTD SVG 1.1//EN" "http://www.w3.org/Graphics/SVG/1.1/DTD/svg11.dtd"><svg t="1677638303855" class="icon" viewBox="0 0 1024 1024" version="1.1" xmlns="http://www.w3.org/2000/svg" p-id="3814" xmlns:xlink="http://www.w3.org/1999/xlink" width="200" height="200"><path d="M512 64a448 448 0 1 0 0 896 448 448 0 0 0 0-896z m263.04 711.04a372.288 372.288 0 0 1-605.824-118.272l-0.32-0.768h176.512a64 64 0 0 0 117.184-48.576L583.04 487.04a8 8 0 0 0 0-11.264l-33.92-33.92a8 8 0 0 0-11.328 0l-120.448 120.32a64 64 0 0 0-72 29.888H148.608a372.16 372.16 0 0 1 706.176-224.768 373.44 373.44 0 0 1 20.608 224.768H631.168a8 8 0 0 0-7.936 8v48c0 4.416 3.52 8 8 8h223.872l-0.32 0.768a370.752 370.752 0 0 1-79.808 118.208z" p-id="3815"></path></svg>