<?xml version="1.0" standalone="no"?><!DOCTYPE svg PUBLIC "-//W3C//DTD SVG 1.1//EN" "http://www.w3.org/Graphics/SVG/1.1/DTD/svg11.dtd"><svg t="1648464960778" class="icon" viewBox="0 0 1024 1024" version="1.1" xmlns="http://www.w3.org/2000/svg" p-id="113854" xmlns:xlink="http://www.w3.org/1999/xlink" width="200" height="200"><defs><style type="text/css">@font-face { font-family: feedback-iconfont; src: url("//at.alicdn.com/t/font_1031158_u69w8yhxdu.woff2?t=1630033759944") format("woff2"), url("//at.alicdn.com/t/font_1031158_u69w8yhxdu.woff?t=1630033759944") format("woff"), url("//at.alicdn.com/t/font_1031158_u69w8yhxdu.ttf?t=1630033759944") format("truetype"); }
</style></defs><path d="M888 680h-54V540H546v-92h238c8.8 0 16-7.2 16-16V168c0-8.8-7.2-16-16-16H240c-8.8 0-16 7.2-16 16v264c0 8.8 7.2 16 16 16h238v92H190v140h-54c-4.4 0-8 3.6-8 8v176c0 4.4 3.6 8 8 8h176c4.4 0 8-3.6 8-8V688c0-4.4-3.6-8-8-8h-54v-72h220v72h-54c-4.4 0-8 3.6-8 8v176c0 4.4 3.6 8 8 8h176c4.4 0 8-3.6 8-8V688c0-4.4-3.6-8-8-8h-54v-72h220v72h-54c-4.4 0-8 3.6-8 8v176c0 4.4 3.6 8 8 8h176c4.4 0 8-3.6 8-8V688c0-4.4-3.6-8-8-8zM256 805.3c0 1.5-1.2 2.7-2.7 2.7h-58.7c-1.5 0-2.7-1.2-2.7-2.7v-58.7c0-1.5 1.2-2.7 2.7-2.7h58.7c1.5 0 2.7 1.2 2.7 2.7v58.7z m288 0c0 1.5-1.2 2.7-2.7 2.7h-58.7c-1.5 0-2.7-1.2-2.7-2.7v-58.7c0-1.5 1.2-2.7 2.7-2.7h58.7c1.5 0 2.7 1.2 2.7 2.7v58.7zM288 384V216h448v168H288z m544 421.3c0 1.5-1.2 2.7-2.7 2.7h-58.7c-1.5 0-2.7-1.2-2.7-2.7v-58.7c0-1.5 1.2-2.7 2.7-2.7h58.7c1.5 0 2.7 1.2 2.7 2.7v58.7zM360 260h72v72h-72v-72z m116 0h72v72h-72v-72z m116 0h72v72h-72v-72z" p-id="113855"></path></svg>