<?xml version="1.0" standalone="no"?><!DOCTYPE svg PUBLIC "-//W3C//DTD SVG 1.1//EN" "http://www.w3.org/Graphics/SVG/1.1/DTD/svg11.dtd"><svg t="1694413919683" class="icon" viewBox="0 0 1024 1024" version="1.1" xmlns="http://www.w3.org/2000/svg" p-id="1484" xmlns:xlink="http://www.w3.org/1999/xlink" width="200" height="200"><path d="M256.128 64c4.416 0 7.872 3.584 7.872 8v115.968h536a32 32 0 0 1 32 32v544h120c4.416 0 8 3.584 8 8.064v55.936a8.064 8.064 0 0 1-8 8.064H832L831.936 952a8 8 0 0 1-7.936 8h-56.064a8 8 0 0 1-7.936-8V835.968H224a32 32 0 0 1-32-32v-544H72a8 8 0 0 1-8-7.936v-55.936c0-4.48 3.584-8.064 8-8.064h120V71.872c0-4.288 3.712-7.872 8.192-7.872h56zM264 763.968l496 0.064V259.968H264.064v504z" p-id="1485"></path></svg>