<?xml version="1.0" standalone="no"?><!DOCTYPE svg PUBLIC "-//W3C//DTD SVG 1.1//EN" "http://www.w3.org/Graphics/SVG/1.1/DTD/svg11.dtd"><svg t="1711091946865" class="icon" viewBox="0 0 1024 1024" version="1.1" xmlns="http://www.w3.org/2000/svg" p-id="2072" xmlns:xlink="http://www.w3.org/1999/xlink" width="200" height="200"><path d="M673.024 112a32 32 0 0 1 32 32v72h102.912a32 32 0 0 1 32 32v608H880a32 32 0 0 1 32 32v40a8 8 0 0 1-8 8H120a8 8 0 0 1-8-8v-40a32 32 0 0 1 32-32h40.064V248a32 32 0 0 1 32-32h102.912v-72a32 32 0 0 1 32-32h322.048z m95.104 176H256v568h80V523.968C336 451.84 393.92 393.152 465.792 392h90.24C628.16 392 686.848 449.92 688 521.792V856h80.128V288zM480 456h-12.032c-37.12 0-67.328 29.824-67.968 66.88V856h80V456z m76.032 0H544v400h80V523.968c0-37.12-29.824-67.328-66.88-67.968h-1.152z m84.992-280H382.976v40h258.048v-40z" p-id="2073"></path></svg>