<?xml version="1.0" standalone="no"?><!DOCTYPE svg PUBLIC "-//W3C//DTD SVG 1.1//EN" "http://www.w3.org/Graphics/SVG/1.1/DTD/svg11.dtd"><svg t="1678006167071" class="icon" viewBox="0 0 1024 1024" version="1.1" xmlns="http://www.w3.org/2000/svg" p-id="4022" xmlns:xlink="http://www.w3.org/1999/xlink" width="200" height="200"><path d="M45.568 424.384a16 16 0 0 1 9.216-20.416l0.32-0.064 849.792-309.76a16.192 16.192 0 0 1 20.352 10.176 16.576 16.576 0 0 1 0.064 9.728l-290.24 867.328a16 16 0 0 1-30.656-0.896l-0.064-0.32-108.416-436.672L56.704 434.432a16 16 0 0 1-11.136-10.048zM813.632 208.32L265.664 408l293.056 72.768 69.76 280.96L813.696 208.32z" p-id="4023"></path></svg>