<?xml version="1.0" standalone="no"?><!DOCTYPE svg PUBLIC "-//W3C//DTD SVG 1.1//EN" "http://www.w3.org/Graphics/SVG/1.1/DTD/svg11.dtd"><svg t="1666365823931" class="icon" viewBox="0 0 1024 1024" version="1.1" xmlns="http://www.w3.org/2000/svg" p-id="752" xmlns:xlink="http://www.w3.org/1999/xlink" width="200" height="200"><path d="M627.712 715.712c4.416 0 8 3.584 8 8v96a8 8 0 0 1-8 8H299.712v84.672a8 8 0 0 1-13.696 5.632l-188.672-188.672a8 8 0 0 1 5.632-13.632h524.736z m200-320c4.416 0 8 3.584 8 8v312h84.672a8 8 0 0 1 5.632 13.632l-188.672 188.672a8 8 0 0 1-13.632-5.632V403.712c0-4.48 3.584-8 8-8h96zM297.344 105.344a8 8 0 0 1 2.368 5.632v508.736a8 8 0 0 1-8 8h-96a8 8 0 0 1-8-8V307.712H102.976a8 8 0 0 1-5.632-13.696l188.672-188.672a8 8 0 0 1 11.328 0z m418.368-1.344c2.112 0 4.16 0.832 5.632 2.368l188.672 188.672a8 8 0 0 1-5.632 13.632H395.712a8 8 0 0 1-8-8v-96c0-4.416 3.584-8 8-8h312V112c0-4.416 3.584-8 8-8z" p-id="753"></path></svg>