<?xml version="1.0" standalone="no"?><!DOCTYPE svg PUBLIC "-//W3C//DTD SVG 1.1//EN" "http://www.w3.org/Graphics/SVG/1.1/DTD/svg11.dtd"><svg t="1677989550848" class="icon" viewBox="0 0 1024 1024" version="1.1" xmlns="http://www.w3.org/2000/svg" p-id="2168" xmlns:xlink="http://www.w3.org/1999/xlink" width="200" height="200"><path d="M284.352 792.128l0.64 0.576 52.992 53.056 53.12-53.12a48 48 0 0 1 67.264-0.512l0.576 0.576L512 845.76l53.056-53.12a48 48 0 0 1 67.328-0.512l0.576 0.576 53.056 53.056 53.056-53.12a48 48 0 0 1 67.328-0.512l0.512 0.576 70.08 70.016a8 8 0 0 1 0 11.328l-33.92 33.92a8 8 0 0 1-11.328 0l-58.752-58.688-53.056 53.056a48 48 0 0 1-67.328 0.512l-0.576-0.512-53.056-53.12-53.056 53.12a48 48 0 0 1-67.264 0.512l-0.64-0.512-52.992-53.12-53.12 53.12a48 48 0 0 1-67.264 0.512l-0.64-0.512-52.992-53.12-58.752 58.752a8 8 0 0 1-11.264 0l-33.92-33.92a8 8 0 0 1 0-11.328l70.016-70.016a48 48 0 0 1 67.264-0.576z m0-151.04l0.64 0.64 52.992 52.992 53.12-53.056a48 48 0 0 1 67.264-0.512l0.576 0.512L512 694.784l53.056-53.12a48 48 0 0 1 67.328-0.512l0.576 0.512 53.056 53.12 53.056-53.12a48 48 0 0 1 67.328-0.512l0.512 0.512 70.08 70.08a8 8 0 0 1 0 11.264l-33.92 33.92a8 8 0 0 1-11.328 0l-58.752-58.688-53.056 53.12a48 48 0 0 1-67.328 0.512l-0.576-0.576-53.056-53.056-53.056 53.12a48 48 0 0 1-67.264 0.512l-0.64-0.576-52.992-53.056-53.12 53.12a48 48 0 0 1-67.264 0.512l-0.64-0.576-52.992-53.056-58.752 58.752a8 8 0 0 1-11.264 0l-33.92-33.92a8 8 0 0 1 0-11.328l70.016-70.08a48 48 0 0 1 67.264-0.512zM416 367.04c4.416 0 8 3.584 8 8v202.048a8 8 0 0 1-8 8h-48a8 8 0 0 1-8-8V374.976c0-4.416 3.584-8 8-8h48z m120 0c4.416 0 8 3.584 8 8v202.048a8 8 0 0 1-8 8h-48a8 8 0 0 1-8-8V374.976c0-4.416 3.584-8 8-8h48z m120 0c4.416 0 8 3.584 8 8v202.048a8 8 0 0 1-8 8h-48a8 8 0 0 1-8-8V374.976c0-4.416 3.584-8 8-8h48z m4.032-134.976V176H363.904v56h296zM299.904 128a16 16 0 0 1 16-16h392a16 16 0 0 1 16 16v104h84.032a16 16 0 0 1 16 16v328a8 8 0 0 1-8 8h-56a8 8 0 0 1-7.936-8V304H272v272a8 8 0 0 1-8 8h-56a8 8 0 0 1-8-8V248a16 16 0 0 1 16-16h84.032V128z" p-id="2169"></path></svg>