<?xml version="1.0" standalone="no"?><!DOCTYPE svg PUBLIC "-//W3C//DTD SVG 1.1//EN" "http://www.w3.org/Graphics/SVG/1.1/DTD/svg11.dtd"><svg t="1672996536416" class="icon" viewBox="0 0 1024 1024" version="1.1" xmlns="http://www.w3.org/2000/svg" p-id="3597" xmlns:xlink="http://www.w3.org/1999/xlink" width="200" height="200"><path d="M880 112a32 32 0 0 1 32 32v736a32 32 0 0 1-32 32H144a32 32 0 0 1-32-32V144a32 32 0 0 1 32-32h736z m-40 552H184v176h656v-176z m-64 68.032v39.936a8 8 0 0 1-8 8.064h-104a8 8 0 0 1-8-8.064v-39.936c0-4.48 3.584-8.064 8-8.064H768c4.416 0 8 3.584 8 8.064z m64-308.032H184v176h656v-176z m-64 68.032v40a8 8 0 0 1-8 7.936h-104a8 8 0 0 1-8-7.936v-40.064c0-4.416 3.584-8 8-8H768c4.416 0 8 3.584 8 8z m64-308.032H184v176h656v-176z m-64 68.032v39.936a8 8 0 0 1-8 8h-104a8 8 0 0 1-8-8v-40c0-4.416 3.584-7.936 8-7.936H768c4.416 0 8 3.52 8 7.936z" p-id="3598"></path></svg>