<?xml version="1.0" standalone="no"?><!DOCTYPE svg PUBLIC "-//W3C//DTD SVG 1.1//EN" "http://www.w3.org/Graphics/SVG/1.1/DTD/svg11.dtd"><svg t="1678011348389" class="icon" viewBox="0 0 1024 1024" version="1.1" xmlns="http://www.w3.org/2000/svg" p-id="5032" xmlns:xlink="http://www.w3.org/1999/xlink" width="200" height="200"><path d="M927.872 160a32 32 0 0 1 32 31.488v640.128a32 32 0 0 1-31.488 32H96a32 32 0 0 1-32-31.488V192a32 32 0 0 1 31.488-32h832.384z m-40 72H136v559.616h751.872V232z m-587.84 332.032h0.192a8 8 0 0 1 7.744 7.68v156.352a8 8 0 0 1-7.68 8h-56.512a8 8 0 0 1-7.744-7.744V571.968c0-4.288 3.392-7.808 7.68-7.936h56.32z m160-196.032h0.192a8 8 0 0 1 7.744 7.744V728a8 8 0 0 1-7.68 8h-56.512a8 8 0 0 1-7.744-7.744V376c0-4.352 3.392-7.872 7.68-8h56.32z m160 100.032h0.192a8 8 0 0 1 7.744 7.68v252.352a8 8 0 0 1-7.68 8h-56.512a8 8 0 0 1-7.744-7.744V475.968c0-4.288 3.392-7.808 7.68-7.936h56.32zM780.224 296a8 8 0 0 1 7.744 7.744V728a8 8 0 0 1-7.68 8h-56.512a8 8 0 0 1-7.744-7.744V304c0-4.352 3.392-7.872 7.68-8h56.512z" p-id="5033"></path></svg>