<?xml version="1.0" standalone="no"?><!DOCTYPE svg PUBLIC "-//W3C//DTD SVG 1.1//EN" "http://www.w3.org/Graphics/SVG/1.1/DTD/svg11.dtd"><svg t="1655108339727" class="icon" viewBox="0 0 1024 1024" version="1.1" xmlns="http://www.w3.org/2000/svg" p-id="62138" xmlns:xlink="http://www.w3.org/1999/xlink" width="200" height="200"><defs><style type="text/css">@font-face { font-family: feedback-iconfont; src: url("//at.alicdn.com/t/font_1031158_u69w8yhxdu.woff2?t=1630033759944") format("woff2"), url("//at.alicdn.com/t/font_1031158_u69w8yhxdu.woff?t=1630033759944") format("woff"), url("//at.alicdn.com/t/font_1031158_u69w8yhxdu.ttf?t=1630033759944") format("truetype"); }
</style></defs><path d="M880.128 112.128c17.92 0 31.744 14.336 31.744 31.744v736.256c0 17.92-14.336 31.744-31.744 31.744H143.872c-17.92 0-31.744-14.336-31.744-31.744V143.872c0-17.92 14.336-31.744 31.744-31.744h736.256z m-39.936 551.936H183.808v176.128H839.68v-176.128z m-66.048 59.904c1.024 0 2.048 1.024 2.048 2.048V778.24c0 1.024-1.024 2.048-2.048 2.048h-116.224c-1.024 0-2.048-1.024-2.048-2.048v-52.224c0-1.024 1.024-2.048 2.048-2.048h116.224z m66.048-300.032H183.808v176.128H839.68V423.936z m-66.048 59.904c1.024 0 2.048 1.024 2.048 2.048v52.224c0 1.024-1.024 2.048-2.048 2.048h-116.224c-1.024 0-2.048-1.024-2.048-2.048V485.888c0-1.024 1.024-2.048 2.048-2.048h116.224z m66.048-300.032H183.808v176.128H839.68V183.808z m-66.048 60.416c1.024 0 2.048 1.024 2.048 2.048v52.224c0 1.024-1.024 2.048-2.048 2.048h-116.224c-1.024 0-2.048-1.024-2.048-2.048V245.76c0-1.024 1.024-2.048 2.048-2.048h116.224z" p-id="62139"></path></svg>