<?xml version="1.0" standalone="no"?><!DOCTYPE svg PUBLIC "-//W3C//DTD SVG 1.1//EN" "http://www.w3.org/Graphics/SVG/1.1/DTD/svg11.dtd"><svg t="1672996709611" class="icon" viewBox="0 0 1024 1024" version="1.1" xmlns="http://www.w3.org/2000/svg" p-id="3751" xmlns:xlink="http://www.w3.org/1999/xlink" width="200" height="200"><path d="M928 140.032a32 32 0 0 1 32 32v496a32 32 0 0 1-32 32H547.968v112h172.032a16 16 0 0 1 16 16v48a8 8 0 0 1-8 7.936h-432a8 8 0 0 1-8-7.936v-48a16 16 0 0 1 16-16h172.032v-112H96a32 32 0 0 1-32-32v-496a32 32 0 0 1 32-32h832z m-40 71.936H136v416h752v-416z m-512 132.032c4.416 0 8 3.584 8 8v200a8 8 0 0 1-8 8h-64a8 8 0 0 1-8-8V352c0-4.416 3.584-8 8-8h64z m168-64c4.416 0 8 3.584 8 8v264a8 8 0 0 1-8 8h-64a8 8 0 0 1-8-8V288c0-4.416 3.584-8 8-8h64z m168 128c4.416 0 8 3.584 8 8v136a8 8 0 0 1-8 8h-64A8 8 0 0 1 640 552V416c0-4.416 3.584-8 8-8h64z" p-id="3752"></path></svg>