<?xml version="1.0" standalone="no"?><!DOCTYPE svg PUBLIC "-//W3C//DTD SVG 1.1//EN" "http://www.w3.org/Graphics/SVG/1.1/DTD/svg11.dtd"><svg t="1741344448086" class="icon" viewBox="0 0 1024 1024" version="1.1" xmlns="http://www.w3.org/2000/svg" p-id="958" xmlns:xlink="http://www.w3.org/1999/xlink" width="200" height="200"><path d="M875.52 147.904c66.944 66.944 37.312 211.84-62.144 363.456 99.456 151.68 129.088 296.512 62.208 363.456-66.944 66.944-211.84 37.312-363.52-62.208-151.552 99.52-296.512 129.152-363.392 62.208-66.944-66.944-37.312-211.84 62.208-363.456-99.52-151.616-129.152-296.512-62.208-363.456 66.88-66.944 211.84-37.312 363.456 62.208 151.616-99.52 296.512-129.152 363.456-62.208z m-619.392 426.56v0.128a612.992 612.992 0 0 0-50.56 102.016l-0.832 2.368-0.896 2.368c-13.696 37.952-19.968 71.424-19.008 97.856 0.832 21.888 6.208 36.096 14.784 44.672 8.576 8.64 22.848 14.08 44.736 14.848 27.52 1.024 62.72-5.824 102.592-20.8a613.12 613.12 0 0 0 102.08-50.56c-34.56-26.88-68.928-57.152-102.336-90.56a1102.464 1102.464 0 0 1-90.56-102.336z m512 0l-3.008 3.968c-26.112 33.28-55.36 66.304-87.488 98.368-33.408 33.408-67.776 63.68-102.336 90.56a613.632 613.632 0 0 0 102.144 50.56l2.368 0.896 2.304 0.832c37.952 13.76 71.488 20.032 97.92 19.072 21.824-0.832 36.096-6.208 44.672-14.848 8.576-8.576 14.016-22.784 14.848-44.672 0.96-27.52-5.888-62.72-20.8-102.592a613.12 613.12 0 0 0-50.56-102.144z m-256-276.608l-2.24 1.664c-38.08 28.288-75.968 60.992-112.256 97.28a1018.88 1018.88 0 0 0-99.008 114.56c28.672 38.848 61.952 77.504 99.008 114.56a1018.88 1018.88 0 0 0 114.56 98.944 1018.88 1018.88 0 0 0 114.56-98.944 1018.88 1018.88 0 0 0 98.944-114.56 1018.88 1018.88 0 0 0-99.008-114.56 1018.88 1018.88 0 0 0-114.56-98.944zM512 424a88 88 0 1 1 0 176 88 88 0 0 1 0-176zM244.288 184c-21.888 0.832-36.16 6.208-44.736 14.848-8.576 8.576-13.952 22.784-14.784 44.672-1.024 27.52 5.824 62.72 20.8 102.592a613.12 613.12 0 0 0 50.56 102.144c26.88-34.56 57.152-68.992 90.496-102.4 33.408-33.344 67.84-63.616 102.4-90.496A613.696 613.696 0 0 0 346.88 204.8l-2.368-0.896c-38.912-14.336-73.28-20.864-100.224-19.84z m433.088 20.8a613.12 613.12 0 0 0-102.144 50.56c34.56 26.88 68.928 57.152 102.4 90.56 33.28 33.344 63.616 67.776 90.496 102.336a613.696 613.696 0 0 0 50.56-102.144l0.896-2.368 0.832-2.368c13.76-37.952 20.032-71.424 19.072-97.856-0.832-21.888-6.272-36.096-14.848-44.672-8.576-8.64-22.848-14.08-44.672-14.848-27.52-1.024-62.72 5.888-102.592 20.8z" p-id="959"></path></svg>