<?xml version="1.0" standalone="no"?><!DOCTYPE svg PUBLIC "-//W3C//DTD SVG 1.1//EN" "http://www.w3.org/Graphics/SVG/1.1/DTD/svg11.dtd"><svg t="1679309447205" class="icon" viewBox="0 0 1024 1024" version="1.1" xmlns="http://www.w3.org/2000/svg" p-id="3718" xmlns:xlink="http://www.w3.org/1999/xlink" width="200" height="200"><path d="M720 528a216.064 216.064 0 1 1-0.128 432.128A216.064 216.064 0 0 1 720 528zM456 848v56a8 8 0 0 1-8 8H144a8 8 0 0 1-8-7.744V872a32 32 0 0 1 31.488-32H448c4.416 0 8 3.584 8 8z m264-256a152.192 152.192 0 0 0-152 152 152.192 152.192 0 0 0 152 152 151.872 151.872 0 0 0 152-152 152.192 152.192 0 0 0-152-152z m20.032 48c4.416 0 7.936 3.584 7.936 8v84.416l52.16 52.16a8 8 0 0 1 0.192 11.072l-0.192 0.192-28.288 28.288a8 8 0 0 1-11.264 0l-63.872-63.872a16 16 0 0 1-4.672-11.264V648c0-4.416 3.52-8 7.936-8h40.064zM465.92 244.928a299.008 299.008 0 0 1 289.024 222.208l1.024 4.032a7.104 7.104 0 0 1-6.592 8.832h-59.2a8.064 8.064 0 0 1-8.128-5.568l-0.512-1.536-0.32-0.96A227.008 227.008 0 0 0 469.76 316.928h-3.84a226.88 226.88 0 0 0-226.88 223.104v180.032h65.92V563.008c0-4.48 3.648-8 8.064-8h48c4.416 0 8 3.584 8 8v157.056H448c4.416 0 8 3.584 8 8v56a8 8 0 0 1-8 8H198.464a32 32 0 0 1-31.488-31.488V543.808a298.88 298.88 0 0 1 298.944-298.88z m311.872-49.664l0.192 0.192 39.616 39.552c3.008 3.072 3.264 7.808 0.576 10.752l-0.192 0.192-63.04 63.04c-2.816 2.816-7.552 2.688-10.688-0.256l-0.256-0.192-39.552-39.552c-3.072-3.072-3.328-7.808-0.64-10.752l0.192-0.192 63.04-63.04c2.88-2.816 7.616-2.688 10.752 0.256z m-613.056-0.448l0.192 0.192 63.04 63.04c2.816 2.88 2.752 7.616-0.192 10.752l-0.192 0.192-39.616 39.552c-3.008 3.072-7.808 3.328-10.688 0.64l-0.192-0.192-63.04-63.04c-2.88-2.88-2.752-7.616 0.192-10.752l0.192-0.192 39.616-39.552c3.008-3.072 7.808-3.328 10.688-0.64zM494.08 88c4.288 0 7.872 3.2 8 7.168v89.408c0 4.032-3.456 7.296-7.744 7.424H438.08c-4.288 0-7.872-3.2-8-7.168V95.36c0-4.032 3.456-7.296 7.68-7.424h56.32z" p-id="3719"></path></svg>