<?xml version="1.0" standalone="no"?><!DOCTYPE svg PUBLIC "-//W3C//DTD SVG 1.1//EN" "http://www.w3.org/Graphics/SVG/1.1/DTD/svg11.dtd"><svg t="1677671965022" class="icon" viewBox="0 0 1024 1024" version="1.1" xmlns="http://www.w3.org/2000/svg" p-id="5588" xmlns:xlink="http://www.w3.org/1999/xlink" width="200" height="200"><path d="M904.832 709.056a110.72 110.72 0 0 0-131.264 14.848l-46.72-27.136v-192.96a32 32 0 0 0-16-27.712L544 379.712v-54.528a110.72 110.72 0 1 0-64 0v53.888l-167.936 96.896a32 32 0 0 0-16 27.712v193.728l-45.632 26.496a110.72 110.72 0 1 0 32.128 55.36l45.888-26.624 167.04 96.448a32 32 0 0 0 32 0l167.488-96.768 46.4 26.88a110.72 110.72 0 1 0 163.456-70.144z m-439.616-489.92a46.72 46.72 0 1 1 93.568 0 46.72 46.72 0 0 1-93.568 0zM198.208 845.312a46.976 46.976 0 0 1-68.672-52.48 46.72 46.72 0 1 1 68.736 52.48z m456.64-152.96l-143.36 82.816-143.36-82.752V526.848l143.36-82.816 143.36 82.816v165.568z m234.816 136a46.976 46.976 0 0 1-64 16.96 46.784 46.784 0 1 1 64-16.96z" p-id="5589"></path></svg>