<?xml version="1.0" standalone="no"?><!DOCTYPE svg PUBLIC "-//W3C//DTD SVG 1.1//EN" "http://www.w3.org/Graphics/SVG/1.1/DTD/svg11.dtd"><svg t="1698217620518" class="icon" viewBox="0 0 1024 1024" version="1.1" xmlns="http://www.w3.org/2000/svg" p-id="1767" xmlns:xlink="http://www.w3.org/1999/xlink" width="200" height="200"><path d="M512 64c247.424 0 448 200.576 448 448S759.424 960 512 960 64 759.424 64 512 264.576 64 512 64z m0 76c-205.45 0-372 166.55-372 372s166.55 372 372 372 372-166.55 372-372-166.55-372-372-372z m-74.54 170.55a16 16 0 0 1 9.704 8.543l123.498 267.192a8 8 0 0 0 14.707-0.428l31.563-80.235a8 8 0 0 1 7.445-5.072H738a8 8 0 0 1 8 8v48a8 8 0 0 1-7.75 7.997l-0.25 0.003h-70.026a8 8 0 0 0-7.445 5.071l-63.57 161.604c-3.235 8.224-12.523 12.268-20.746 9.033a16 16 0 0 1-8.667-8.177L449.738 477.204a8 8 0 0 0-14.89 0.946l-25.53 80.81a8 8 0 0 1-7.627 5.59H266.406a8 8 0 0 1-8-8v-48a8 8 0 0 1 8-8h88.385a8 8 0 0 0 7.628-5.59l54.964-173.974c2.662-8.426 11.651-13.099 20.077-10.437z" p-id="1768"></path></svg>