<?xml version="1.0" standalone="no"?><!DOCTYPE svg PUBLIC "-//W3C//DTD SVG 1.1//EN" "http://www.w3.org/Graphics/SVG/1.1/DTD/svg11.dtd"><svg t="1648662344006" class="icon" viewBox="0 0 1024 1024" version="1.1" xmlns="http://www.w3.org/2000/svg" p-id="23272" xmlns:xlink="http://www.w3.org/1999/xlink" width="200" height="200"><defs><style type="text/css">@font-face { font-family: feedback-iconfont; src: url("//at.alicdn.com/t/font_1031158_u69w8yhxdu.woff2?t=1630033759944") format("woff2"), url("//at.alicdn.com/t/font_1031158_u69w8yhxdu.woff?t=1630033759944") format("woff"), url("//at.alicdn.com/t/font_1031158_u69w8yhxdu.ttf?t=1630033759944") format("truetype"); }
</style></defs><path d="M730 184a110 110 0 0 1 0 220H294a110 110 0 0 1 0-220h436m0-72H294a182 182 0 0 0 0 364h436a182 182 0 0 0 0-364z" p-id="23273"></path><path d="M294 230a64 64 0 1 0 64 64 64 64 0 0 0-64-64z m436 390a110 110 0 0 1 0 220H294a110 110 0 0 1 0-220h436m0-72H294a182 182 0 0 0 0 364h436a182 182 0 0 0 0-364z" p-id="23274"></path><path d="M730 666a64 64 0 1 0 64 64 64 64 0 0 0-64-64z" p-id="23275"></path></svg>