<?xml version="1.0" standalone="no"?><!DOCTYPE svg PUBLIC "-//W3C//DTD SVG 1.1//EN" "http://www.w3.org/Graphics/SVG/1.1/DTD/svg11.dtd"><svg t="1678332326635" class="icon" viewBox="0 0 1024 1024" version="1.1" xmlns="http://www.w3.org/2000/svg" p-id="1840" xmlns:xlink="http://www.w3.org/1999/xlink" width="200" height="200"><path d="M649.088 100.288a28.416 28.416 0 0 1 5.632 5.632l1.792 2.368C826.816 334.976 912 497.536 912 595.968 912 750.656 786.624 912 632 912h-2.56l-3.52-0.064-1.792-0.064c-15.68-0.576-24.128-13.44-24.128-29.184V611.584l-185.728-181.76a16.064 16.064 0 0 1-3.712-19.264l1.92-3.84 1.728-3.264 0.192-0.448c42.048-80.768 105.28-177.536 189.76-290.304l5.12-6.784a28.416 28.416 0 0 1 39.808-5.632zM272 592a160 160 0 1 1 0 320 160 160 0 0 1 0-320z m0 72a88 88 0 1 0 0 176 88 88 0 0 0 0-176z m557.44-125.824L664 699.584v136.064c38.784-9.408 80.064-33.728 111.104-70.272 40.768-48 64.896-110.784 64.896-169.344 0-10.88-1.664-23.424-5.12-37.76l-0.448-2.048a305.024 305.024 0 0 0-4.352-15.872l-0.64-2.176zM664 241.664v378.752L807.424 480.96c-3.072-6.848-6.4-13.952-9.92-21.248l-1.664-3.392-1.664-3.392-1.728-3.456c-3.2-6.336-6.464-12.8-9.984-19.392l-1.92-3.648a1093.12 1093.12 0 0 0-14.912-27.072l-2.24-3.968a1716.54 1716.54 0 0 0-38.144-63.104l-2.816-4.416-2.88-4.416-1.408-2.24-2.88-4.48-2.944-4.48-2.944-4.48a2185.92 2185.92 0 0 0-3.008-4.608l-3.008-4.544a2294.976 2294.976 0 0 0-4.608-6.976l-3.072-4.608a2408.96 2408.96 0 0 0-3.2-4.672l-3.136-4.672-3.2-4.736-1.6-2.368-3.264-4.8-3.328-4.736-3.264-4.8c-2.24-3.2-8.448-11.392-10.688-14.592z m-64 279.04v-279.04c-2.176 3.136-8.448 11.328-10.688 14.592l-3.264 4.8-1.664 2.368-3.264 4.8-3.2 4.736-3.264 4.736-3.2 4.672-3.136 4.672-3.072 4.608a2307.84 2307.84 0 0 0-3.072 4.672l-3.072 4.544-4.48 6.848-2.944 4.544-2.944 4.48-2.88 4.48-1.408 2.24-2.88 4.48-2.816 4.352a1716.54 1716.54 0 0 0-38.144 63.104l-2.24 3.968c-2.944 5.12-5.76 10.24-8.512 15.232L600 520.704z m-368-359.68a120 120 0 1 1 0 240 120 120 0 0 1 0-240z m0 64a56 56 0 1 0 0 112 56 56 0 0 0 0-112z" p-id="1841"></path></svg>