<?xml version="1.0" standalone="no"?><!DOCTYPE svg PUBLIC "-//W3C//DTD SVG 1.1//EN" "http://www.w3.org/Graphics/SVG/1.1/DTD/svg11.dtd"><svg t="1658805867566" class="icon" viewBox="0 0 1024 1024" version="1.1" xmlns="http://www.w3.org/2000/svg" p-id="23408" xmlns:xlink="http://www.w3.org/1999/xlink" width="200" height="200"><defs><style type="text/css">@font-face { font-family: feedback-iconfont; src: url("//at.alicdn.com/t/font_1031158_u69w8yhxdu.woff2?t=1630033759944") format("woff2"), url("//at.alicdn.com/t/font_1031158_u69w8yhxdu.woff?t=1630033759944") format("woff"), url("//at.alicdn.com/t/font_1031158_u69w8yhxdu.ttf?t=1630033759944") format("truetype"); }
</style></defs><path d="M842.873 683.785A274.217 274.217 0 0 1 677.319 843.08V668.39l169.758-121.75c10.198 50.908 8.88 96.88-4.204 137.145zM489.36 440.187a8.002 8.002 0 0 1-1.748-10.435 3882.083 3882.083 0 0 1 132.816-199.148v316.152L489.36 440.187z m341.71 48.02l-2.989 2.148-150.763 107.849V222.966c75.053 96.746 126.536 185.939 153.75 265.241zM670.491 122.838a27.305 27.305 0 0 0-31.29-7.964c-7.902 2.839-13.91 8.925-16.84 16.384a3452.032 3452.032 0 0 0-199.916 296.517c-7.023 12.158-4.122 27.621 6.828 36.41l191.153 157.589v261.13a28.446 28.446 0 0 0 10.81 22.188 27.925 27.925 0 0 0 17.637 6.258h6.258c7.964 0 187.74-45.514 242.925-210.497 47.22-149.624-29.015-344.192-227.565-578.016zM276.233 237.186c-0.315 29.533-24.51 53.22-54.043 52.906-29.533-0.315-53.22-24.511-52.907-54.045 0.315-29.533 24.51-53.22 54.044-52.905v-0.57h0.007c29.533 0.317 53.218 24.516 52.902 54.048 0 0.189 0 0.377-0.003 0.566m-54.041-110.933c-60.954 0.314-110.113 49.98-109.801 110.935 0.315 60.955 49.981 110.116 110.936 109.803h0.003c60.954-0.317 110.112-49.985 109.8-110.94-0.318-60.953-49.986-110.11-110.938-109.798M395.163 763.333c-0.578 46.76-38.952 84.198-85.712 83.62-46.76-0.577-84.2-38.951-83.622-85.711 0.578-46.76 38.952-84.198 85.713-83.622h0.002c46.475 0.29 83.915 38.199 83.627 84.674 0 0.346-0.004 0.692-0.008 1.039m64.383-2.172c-0.63-82.319-67.87-148.541-150.188-147.913-82.318 0.63-148.541 67.87-147.913 150.188 0.628 82.32 67.87 148.541 150.188 147.913h0.002c82.006-0.315 148.23-67.049 147.917-149.054 0-0.38-0.003-0.757-0.006-1.134" p-id="23409"></path></svg>