<?xml version="1.0" standalone="no"?><!DOCTYPE svg PUBLIC "-//W3C//DTD SVG 1.1//EN" "http://www.w3.org/Graphics/SVG/1.1/DTD/svg11.dtd"><svg t="1678352835157" class="icon" viewBox="0 0 1024 1024" version="1.1" xmlns="http://www.w3.org/2000/svg" p-id="1152" xmlns:xlink="http://www.w3.org/1999/xlink" width="200" height="200"><path d="M912 880a32 32 0 0 1-32 32H144a32 32 0 0 1-32-32V144a32 32 0 0 1 32-32h736a32 32 0 0 1 32 32v736z m-720-40h108.032a8 8 0 0 0 8-8v-80a8 8 0 0 0-8-8H192a8 8 0 0 0-8 8v80c0 4.416 3.584 8 8 8z m284.032-96h-104a8 8 0 0 0-8 8v80c0 4.416 3.52 8 8 8h104a8 8 0 0 0 8-8v-80a8 8 0 0 0-8-8z m176 0H547.968a8 8 0 0 0-7.936 8v80c0 4.416 3.52 8 7.936 8h104.064a8 8 0 0 0 7.936-8v-80a8 8 0 0 0-7.936-8zM832 744H723.968a8 8 0 0 0-7.936 8v80c0 4.416 3.52 8 7.936 8H832a8 8 0 0 0 8-8v-80a8 8 0 0 0-8-8z m0-400H192a8 8 0 0 0-8 8v320c0 4.416 3.584 8 8 8h640a8 8 0 0 0 8-8V352a8 8 0 0 0-8-8z m-372.032 63.232c1.536 0 2.944 0.384 4.224 1.216l156.8 96.768a8 8 0 0 1 0 13.568l-156.8 96.768a8 8 0 0 1-12.16-6.784V415.232c0-4.48 3.52-8 8-8zM184 192v80c0 4.416 3.584 8 8 8h108.032a8 8 0 0 0 8-8v-80a8 8 0 0 0-8-8H192a8 8 0 0 0-8 8z m540.032 88H832a8 8 0 0 0 8-8v-80a8 8 0 0 0-8-8H723.968a8 8 0 0 0-7.936 8v80c0 4.416 3.52 8 7.936 8z m-184.064-88v80c0 4.416 3.584 8 8.064 8h103.936a8 8 0 0 0 8.064-8v-80a8 8 0 0 0-8.064-8H548.032a8 8 0 0 0-8.064 8z m-176 0v80c0 4.416 3.584 8 8 8h104a8 8 0 0 0 8-8v-80a8 8 0 0 0-8-8H372.032a8 8 0 0 0-8 8z" p-id="1153"></path></svg>