<?xml version="1.0" encoding="UTF-8"?>
<svg width="1024px" height="1024px" viewBox="0 0 1024 1024" version="1.1" xmlns="http://www.w3.org/2000/svg" xmlns:xlink="http://www.w3.org/1999/xlink">
    <title>数字媒体_线性</title>
    <g id="页面1" stroke="none" stroke-width="1" fill="none" fill-rule="evenodd">
        <g id="数字媒体_线性" fill="#000000" fill-rule="nonzero">
            <path d="M880.5,111.5 C897.996381,111.5 912.213128,125.541783 912.495713,142.970821 L912.5,143.5 L912.500412,260.677555 C912.811348,261.030063 913,261.493001 913,262 L913,322 C913,322.506999 912.811348,322.969937 912.500412,323.322445 L912.500412,700.677555 C912.811348,701.030063 913,701.493001 913,702 L913,762 C913,762.506999 912.811348,762.969937 912.500412,763.322445 L912.5,879.5 C912.5,896.996381 898.458217,911.213128 881.029179,911.5 L880.5,911.5 L144.5,911.5 C127.003619,911.5 112.786872,897.458217 112.5,880.029179 L112.5,879.5 L112.5,143.5 C112.5,126.003619 126.541783,111.786872 143.970821,111.5 L144.5,111.5 L880.5,111.5 Z M276,764 L184.5,764 L184.5,839.5 L276,839.5 L276,764 Z M417,764 L324,764 L324,839.5 L417,839.5 L417,764 Z M559,764 L465,764 L465,839.5 L559,839.5 L559,764 Z M700,764 L607,764 L607,839.5 L700,839.5 L700,764 Z M840.5,764 L748,764 L748,839.5 L840.5,839.5 L840.5,764 Z M840.5,324 L184.5,324 L184.5,700 L840.5,700 L840.5,324 Z M466.635493,385.253496 C470.69176,383.254505 475.512335,383.673267 479.157785,386.317747 L479.42896,386.520254 L630.331667,502.34947 C633.330647,504.652455 635.088535,508.218783 635.088535,512.000003 C635.088535,515.66306 633.438799,519.124446 630.60917,521.430963 L630.331667,521.650537 L479.42896,637.479753 C475.750581,640.306813 470.78469,640.796173 466.625242,638.741487 C462.560327,636.733498 459.956977,632.637306 459.849895,628.122079 L459.846487,627.806405 L459.846487,396.170787 C459.846487,391.535649 462.47782,387.302462 466.635493,385.253496 Z M276,183.5 L184.5,183.5 L184.5,260 L276,260 L276,183.5 Z M417,183.5 L324,183.5 L324,260 L417,260 L417,183.5 Z M559,183.5 L465,183.5 L465,260 L559,260 L559,183.5 Z M700,183.5 L607,183.5 L607,260 L700,260 L700,183.5 Z M840.5,183.5 L748,183.5 L748,260 L840.5,260 L840.5,183.5 Z" id="形状"></path>
        </g>
    </g>
</svg>