<?xml version="1.0" standalone="no"?><!DOCTYPE svg PUBLIC "-//W3C//DTD SVG 1.1//EN" "http://www.w3.org/Graphics/SVG/1.1/DTD/svg11.dtd"><svg t="1724641982278" class="icon" viewBox="0 0 1024 1024" version="1.1" xmlns="http://www.w3.org/2000/svg" p-id="1151" xmlns:xlink="http://www.w3.org/1999/xlink" width="200" height="200"><path d="M176.053 104c39.764 0 72 32.235 72 72 0 6.45-0.848 12.701-2.439 18.65l254.227 254.28L917.57 588.173c8.383 2.795 12.913 11.856 10.119 20.239a16 16 0 0 1-8.452 9.457l-215.502 99.867-99.866 215.501c-3.715 8.018-13.227 11.505-21.244 7.79a16 16 0 0 1-8.452-9.457L420.931 471.84l-226.23-226.28a72.027 72.027 0 0 1-17.458 2.43l-1.19 0.009c-39.765 0-71.994-32.235-71.994-72s32.23-72 71.994-72z m352.914 438.967l70.112 210.338 44.406-95.82 95.82-44.405-210.338-70.113z" p-id="1152"></path></svg>