<?xml version="1.0" standalone="no"?><!DOCTYPE svg PUBLIC "-//W3C//DTD SVG 1.1//EN" "http://www.w3.org/Graphics/SVG/1.1/DTD/svg11.dtd"><svg t="1755849482090" class="icon" viewBox="0 0 1024 1024" version="1.1" xmlns="http://www.w3.org/2000/svg" p-id="1673" xmlns:xlink="http://www.w3.org/1999/xlink" width="256" height="256"><path d="M138.112 502.272A128.64 128.64 0 0 0 112 579.968c0 44.928 25.088 87.424 65.472 111.104a67.561 67.561 0 0 0 34.304 9.344h239.808l-6.016 122.88c-1.344 29.696 9.152 57.92 29.504 79.36 20.48 21.568 48.128 33.472 77.952 33.472 51.968 0 97.92-35.008 111.744-85.12l85.952-311.04H880a32 32 0 0 0 32-32V144a32 32 0 0 0-32-32H278.72c-9.216 0-18.24 1.792-26.496 5.376A128.64 128.64 0 0 0 179.2 272.768a128.64 128.64 0 0 0-20.672 114.752 128.64 128.64 0 0 0-20.48 114.752zM840 184v283.968h-81.024V184H840zM203.584 537.024l21.888-19.008-13.888-25.408a57.088 57.088 0 0 1 12.672-70.272l21.952-19.008-13.888-25.408a57.088 57.088 0 0 1 12.672-70.272l21.888-19.072-13.888-25.408a56.832 56.832 0 0 1 26.688-79.104h415.36v287.104L595.52 831.68A44.16 44.16 0 0 1 553.28 864a35.52 35.52 0 0 1-35.712-37.184l9.6-198.4H212.8a57.856 57.856 0 0 1-28.8-48.448c0-16.448 7.168-32.064 19.584-42.944z" p-id="1674"></path></svg>