<?xml version="1.0" encoding="UTF-8"?>
<svg width="16px" height="16px" viewBox="0 0 16 16" version="1.1" xmlns="http://www.w3.org/2000/svg" xmlns:xlink="http://www.w3.org/1999/xlink">
    <title>Line/调度</title>
    <g id="Line/调度" stroke="none" stroke-width="1" fill="none" fill-rule="evenodd">
        <rect id="矩形" fill="#000000" fill-rule="nonzero" opacity="0" x="0" y="0" width="16" height="16"></rect>
        <path d="M8.4220109,1.83337617 L10.3454484,4.27556367 C10.4173234,4.36775117 10.3516984,4.50056367 10.2360734,4.50056367 L8.875,4.50054805 L8.875,8.93748555 L12.25,8.93748555 L12.25,7.5751359 C12.25,7.46081006 12.3813723,7.39689452 12.4719289,7.46495201 L12.475,7.4673234 L14.9171875,9.3923234 C14.9875,9.4485734 14.9875,9.5548234 14.9171875,9.6095109 L12.475,11.5329484 C12.3828125,11.6048234 12.25,11.5391984 12.25,11.4235734 L12.25,10.0624855 L8.875,10.0624855 L8.875,14.125 C8.875,14.1940356 8.81903559,14.25 8.75,14.25 L7.875,14.25 C7.80596441,14.25 7.75,14.1940356 7.75,14.125 L7.75,10.0624855 L5.875,10.0624855 L5.875,14.125 C5.875,14.1940356 5.81903559,14.25 5.75,14.25 L4.875,14.25 C4.80596441,14.25 4.75,14.1940356 4.75,14.125 L4.75,10.0624855 L3.4375,10.0625 C2.09130592,10.0625 1,8.97119408 1,7.625 C1,6.27880592 2.09130592,5.1875 3.4375,5.1875 C4.78369408,5.1875 5.875,6.27880592 5.875,7.625 L5.875,8.93748555 L7.75,8.93748555 L7.75,4.50054805 L6.3876359,4.50056367 C6.27331006,4.50056367 6.20939452,4.36919137 6.27745201,4.27863476 L6.2798234,4.27556367 L8.2048234,1.83337617 C8.2610734,1.76306367 8.3673234,1.76306367 8.4220109,1.83337617 Z M3.4375,6.3125 C2.71262627,6.3125 2.125,6.90012627 2.125,7.625 C2.125,8.342625 2.7009325,8.92573375 3.41579541,8.93732416 L3.4375,8.9375 L4.75,8.9375 L4.75,7.625 C4.75,6.90012627 4.16237373,6.3125 3.4375,6.3125 Z" id="形状" fill="#0A1B39"></path>
    </g>
</svg>