<?xml version="1.0" standalone="no"?>
<svg xmlns="http://www.w3.org/2000/svg" class="icon" viewBox="0 0 1024 1024">
  <path d="M180.010667 176H119.978667a8.021333 8.021333 0 0 0-7.978667 8.021333v656c0 4.394667 3.584 7.978667 8.021333 7.978667h59.989334a8.021333 8.021333 0 0 0 7.978666-8.021333V184.021333a8.021333 8.021333 0 0 0-7.978666-7.978666z m723.968 0h-59.989334a8.021333 8.021333 0 0 0-7.978666 8.021333v656c0 4.394667 3.584 7.978667 7.978666 7.978667h60.032a8.021333 8.021333 0 0 0 7.978667-8.021333V184.021333a8.021333 8.021333 0 0 0-8.021333-7.978666z m-118.698667 328.32l-127.573333-100.693333a7.253333 7.253333 0 0 0-11.690667 5.674666v66.688H377.984V413.184a7.253333 7.253333 0 0 0-11.690667-5.674667l-127.573333 100.778667a7.125333 7.125333 0 0 0 0 11.306667l127.488 100.821333a7.253333 7.253333 0 0 0 11.690667-5.717333v-66.688h267.989333v62.805333c0 5.973333 6.997333 9.386667 11.690667 5.674667l127.530666-100.778667a7.253333 7.253333 0 0 0 0.170667-11.392z" />
</svg>
