<?xml version="1.0" standalone="no"?><!DOCTYPE svg PUBLIC "-//W3C//DTD SVG 1.1//EN" "http://www.w3.org/Graphics/SVG/1.1/DTD/svg11.dtd"><svg t="1648464367481" class="icon" viewBox="0 0 1024 1024" version="1.1" xmlns="http://www.w3.org/2000/svg" p-id="113099" xmlns:xlink="http://www.w3.org/1999/xlink" width="200" height="200"><defs><style type="text/css">@font-face { font-family: feedback-iconfont; src: url("//at.alicdn.com/t/font_1031158_u69w8yhxdu.woff2?t=1630033759944") format("woff2"), url("//at.alicdn.com/t/font_1031158_u69w8yhxdu.woff?t=1630033759944") format("woff"), url("//at.alicdn.com/t/font_1031158_u69w8yhxdu.ttf?t=1630033759944") format("truetype"); }
</style></defs><path d="M369.8 303.3c26.4 0 47.8-21.4 47.8-47.8s-21.4-47.8-47.8-47.8-47.8 21.4-47.8 47.8 21.4 47.8 47.8 47.8z" p-id="113100"></path><path d="M797.2 63.9H226.8c-19 0-34.4 15.4-34.4 34.4v543.4c0 176.5 143.1 319.6 319.6 319.6 176.5 0 319.6-143.1 319.6-319.6V98.3c0-19-15.4-34.4-34.4-34.4z m-37.6 577.9c0 33.5-6.5 65.9-19.4 96.4-12.5 29.5-30.3 56-53.1 78.7-22.8 22.8-49.2 40.6-78.7 53.1-30.5 12.9-62.9 19.4-96.4 19.4-33.5 0-65.9-6.5-96.4-19.4-29.5-12.5-56-30.3-78.7-53.1-22.8-22.8-40.6-49.2-53.1-78.7-12.9-30.5-19.4-62.9-19.4-96.4V135.9h495.2v505.9z" p-id="113101"></path><path d="M512 523.5c-69.9 0-126.5 56.6-126.5 126.5S442.1 776.5 512 776.5 638.5 719.9 638.5 650 581.9 523.5 512 523.5z m0 189c-34.5 0-62.5-28-62.5-62.5s28-62.5 62.5-62.5 62.5 28 62.5 62.5c0 34.4-28 62.5-62.5 62.5zM320.1 392h384.1v64H320.1z m191.2-169h192.8v64H511.3z" p-id="113102"></path></svg>