<?xml version="1.0" standalone="no"?><!DOCTYPE svg PUBLIC "-//W3C//DTD SVG 1.1//EN" "http://www.w3.org/Graphics/SVG/1.1/DTD/svg11.dtd"><svg t="1677671794586" class="icon" viewBox="0 0 1024 1024" version="1.1" xmlns="http://www.w3.org/2000/svg" p-id="2796" xmlns:xlink="http://www.w3.org/1999/xlink" width="200" height="200"><path d="M744 507.072l1.28 0.192 1.28 0.256a15.488 15.488 0 0 1 12.416 12.032l0.064 0.384 7.616 40.96c17.088 6.4 32.896 15.552 47.168 27.072l0.896 0.768 39.232-13.952a15.488 15.488 0 0 1 16.64 4.288l0.256 0.256 0.896 1.024c16.512 19.456 29.312 41.408 38.016 65.28l0.448 1.28 0.448 1.28a15.424 15.424 0 0 1-4.224 16.704l-0.32 0.256-31.552 27.008a173.44 173.44 0 0 1 0.192 54.272l-0.192 1.472 31.552 27.008a15.36 15.36 0 0 1 4.608 16.576l-0.512 1.6a215.104 215.104 0 0 1-37.632 65.472l-0.832 1.024-0.896 1.024a15.424 15.424 0 0 1-16.576 4.672l-0.32-0.064-39.232-13.952a168.832 168.832 0 0 1-46.976 27.328l-1.088 0.448L759.04 920a15.488 15.488 0 0 1-12.096 12.352l-0.32 0.064-1.28 0.256a216.384 216.384 0 0 1-75.264 0.256l-1.472-0.256-1.28-0.256a15.488 15.488 0 0 1-12.416-12.032l-0.064-0.32-7.68-41.216c-16.896-6.4-32.64-15.488-46.72-26.944l-0.96-0.768-39.552 14.08a15.488 15.488 0 0 1-16.64-4.352l-0.256-0.256-0.896-1.024a214.592 214.592 0 0 1-38.016-65.28l-0.832-2.496a15.424 15.424 0 0 1 4.224-16.768l0.256-0.192 32-27.328a168.896 168.896 0 0 1-0.256-53.568l0.256-1.536-32-27.264a15.488 15.488 0 0 1-4.608-16.64l0.512-1.6c8.64-23.936 21.248-45.952 37.632-65.536l0.832-1.024 0.896-1.024a15.424 15.424 0 0 1 16.64-4.672l0.256 0.128 39.552 14.08c14.08-11.648 29.696-20.8 46.592-27.328l1.152-0.448 7.616-41.152a15.488 15.488 0 0 1 12.16-12.352l0.32-0.064 1.28-0.256c24.704-4.48 50.624-4.48 75.392-0.192zM808 64a32 32 0 0 1 32 32v360a8 8 0 0 1-7.744 8h-56.32a8 8 0 0 1-7.936-7.744V136H208v704h246.016c4.416 0 8 3.584 8 8v56a8 8 0 0 1-8 8H168a32 32 0 0 1-32-32V96a32 32 0 0 1 32-32h640zM707.008 612.032c-28.8 0-55.936 11.136-76.352 31.616-20.352 20.48-31.68 47.488-31.68 76.352 0 28.8 11.328 55.936 31.68 76.352 20.416 20.352 47.488 31.68 76.352 31.68 28.8 0 55.936-11.328 76.352-31.68 20.352-20.48 31.616-47.488 31.616-76.352 0-28.8-11.264-55.936-31.616-76.352a107.2 107.2 0 0 0-76.352-31.68z m0 59.968a47.808 47.808 0 0 1 33.92 81.92 47.808 47.808 0 0 1-67.84 0 47.808 47.808 0 0 1 0-67.84 47.68 47.68 0 0 1 33.92-14.08zM324.992 427.968a4.015 4.015 0 0 1 4.032 4.032v112a3.968 3.968 0 0 1-4.032 4.032h-48a3.968 3.968 0 0 1-3.968-4.032V432c0-2.24 1.792-4.032 3.968-4.032h48z" p-id="2797"></path></svg>