<?xml version="1.0" standalone="no"?><!DOCTYPE svg PUBLIC "-//W3C//DTD SVG 1.1//EN" "http://www.w3.org/Graphics/SVG/1.1/DTD/svg11.dtd"><svg t="1648463095814" class="icon" viewBox="0 0 1024 1024" version="1.1" xmlns="http://www.w3.org/2000/svg" p-id="110583" xmlns:xlink="http://www.w3.org/1999/xlink" width="200" height="200"><defs><style type="text/css">@font-face { font-family: feedback-iconfont; src: url("//at.alicdn.com/t/font_1031158_u69w8yhxdu.woff2?t=1630033759944") format("woff2"), url("//at.alicdn.com/t/font_1031158_u69w8yhxdu.woff?t=1630033759944") format("woff"), url("//at.alicdn.com/t/font_1031158_u69w8yhxdu.ttf?t=1630033759944") format("truetype"); }
</style></defs><path d="M856 260H700V96a32 32 0 0 0-32-32H192a32 32 0 0 0-32 32v832a32 32 0 0 0 32 32h476a32 32 0 0 0 32-32V332h156a8 8 0 0 0 8-8v-56a8 8 0 0 0-8-8zM628 888H232V136h396v124H482.92a64 64 0 1 0 0 72H628z" p-id="110584"></path><path d="M406 632h48q8 0 8 8v144q0 8-8 8h-48q-8 0-8-8V640q0-8 8-8z" p-id="110585"></path></svg>