<?xml version="1.0" standalone="no"?><!DOCTYPE svg PUBLIC "-//W3C//DTD SVG 1.1//EN" "http://www.w3.org/Graphics/SVG/1.1/DTD/svg11.dtd"><svg t="1648636124007" class="icon" viewBox="0 0 1024 1024" version="1.1" xmlns="http://www.w3.org/2000/svg" p-id="45136" xmlns:xlink="http://www.w3.org/1999/xlink" width="200" height="200"><defs><style type="text/css">@font-face { font-family: feedback-iconfont; src: url("//at.alicdn.com/t/font_1031158_u69w8yhxdu.woff2?t=1630033759944") format("woff2"), url("//at.alicdn.com/t/font_1031158_u69w8yhxdu.woff?t=1630033759944") format("woff"), url("//at.alicdn.com/t/font_1031158_u69w8yhxdu.ttf?t=1630033759944") format("truetype"); }
</style></defs><path d="M784 112c17.673 0 32.003 14.327 32.003 32v300.473A262.291 262.291 0 0 0 780 442c-12.216 0-24.235 0.842-36.002 2.472L744 184H208v656l351.608 0.004a261.4 261.4 0 0 0 67.067 71.998H168c-17.673 0-32-14.329-32-32.002V144c0-17.673 14.327-32 32-32h616z m14.736 399.04l14.72 2.176a13.823 13.823 0 0 1 10.048 7.808l0.96 3.2 6.784 36.48a147.376 147.376 0 0 1 32.832 17.216l9.984 7.488 34.88-12.416a13.824 13.824 0 0 1 12.608 1.856l2.432 2.24 0.768 0.896c11.968 14.08 21.76 29.632 29.12 46.4l5.504 13.888a13.824 13.824 0 0 1-1.728 12.672l-2.304 2.432-28.096 24.064a152.761 152.761 0 0 1 2.048 24.768l-0.512 12.48-1.536 12.288 28.16 24.064a13.888 13.888 0 0 1 4.736 11.776l-0.64 3.2-0.448 1.152a192.273 192.273 0 0 1-25.6 48.32l-9.344 11.776a13.696 13.696 0 0 1-11.84 4.8l-3.2-0.704-34.944-12.416a151.36 151.36 0 0 1-31.36 19.84l-11.456 4.864-6.72 36.48a13.76 13.76 0 0 1-7.872 10.048l-3.2 0.96-1.216 0.256a192.256 192.256 0 0 1-56.96 1.664l-12.416-1.92a13.824 13.824 0 0 1-10.048-7.808l-1.024-3.2-6.784-36.672a147.136 147.136 0 0 1-32.64-17.152l-9.856-7.488-35.2 12.544a13.824 13.824 0 0 1-12.544-1.856l-2.496-2.24-0.768-0.896a189.888 189.888 0 0 1-29.12-46.4l-5.504-13.888a13.824 13.824 0 0 1 1.728-12.672l2.304-2.496 28.352-24.256a149.504 149.504 0 0 1-1.92-24.512l0.448-12.224 1.472-12.224-28.416-24.32a13.824 13.824 0 0 1-4.8-11.84l1.152-4.352a193.249 193.249 0 0 1 25.6-48.32l9.408-11.776c2.9-3.436 7.3-5.23 11.776-4.8l3.264 0.704 35.2 12.544c9.6-7.872 19.968-14.528 31.104-19.84l11.392-4.8 6.784-36.672a13.76 13.76 0 0 1 7.872-10.048l3.2-0.96 1.152-0.256c17.92-3.2 36.48-3.84 54.72-1.92zM733.5 679.407a47.872 47.872 0 0 0 10.293 52.085l0.415 0.412a47.872 47.872 0 0 0 67.538 0.428l0.43-0.428a47.872 47.872 0 0 0 0.428-67.538l-0.428-0.43a47.68 47.68 0 0 0-33.314-14.077l-0.67-0.003a47.872 47.872 0 0 0-44.692 29.55zM325 452a4 4 0 0 1 4 4v112a4 4 0 0 1-4 4h-48a4 4 0 0 1-4-4V456a4 4 0 0 1 4-4h48z" p-id="45137"></path></svg>