<?xml version="1.0" standalone="no"?><!DOCTYPE svg PUBLIC "-//W3C//DTD SVG 1.1//EN" "http://www.w3.org/Graphics/SVG/1.1/DTD/svg11.dtd"><svg t="1677671924613" class="icon" viewBox="0 0 1024 1024" version="1.1" xmlns="http://www.w3.org/2000/svg" p-id="4190" xmlns:xlink="http://www.w3.org/1999/xlink" width="200" height="200"><path d="M577.984 553.6C626.368 583.04 683.2 600 744 600c53.76 0 104.32-13.248 148.736-36.608l1.344-0.64 1.472-0.832 0.512-0.32a8 8 0 0 1 11.776 8.128l-0.32 2.368-0.32 2.112-0.256 1.408a400.064 400.064 0 0 1-618.88 267.904l55.04-55.04A324.224 324.224 0 0 0 791.04 676.864l2.24-3.904-1.344 0.192a399.168 399.168 0 0 1-45.76 2.816H744a394.176 394.176 0 0 1-220.992-67.328l55.04-55.04z m288.832-452.8l42.368 42.432a8 8 0 0 1 0 11.264L168.512 895.232a8 8 0 0 1-11.328 0L114.816 852.8a8 8 0 0 1 0-11.328l82.496-82.56a400.064 400.064 0 0 1 254.976-642.56l1.92-0.192a8 8 0 0 1 8.192 11.712l-0.64 1.088-0.128 0.32A318.592 318.592 0 0 0 424 280c0 71.04 23.168 136.768 62.4 189.888L756.288 200H593.92a8 8 0 0 1-7.936-8v-48c0-4.416 3.584-8 8-8h226.304l35.2-35.2a8 8 0 0 1 11.328 0zM351.04 230.72l-3.968 2.304a324.224 324.224 0 0 0-95.552 471.68L432.128 524.16a394.304 394.304 0 0 1-81.28-292.032l0.192-1.408zM755.648 376h94.336c4.48 0 8 3.584 8 8v48a8 8 0 0 1-8 8H691.648l64-64z" p-id="4191"></path></svg>