<?xml version="1.0" standalone="no"?><!DOCTYPE svg PUBLIC "-//W3C//DTD SVG 1.1//EN" "http://www.w3.org/Graphics/SVG/1.1/DTD/svg11.dtd"><svg t="1677575692058" class="icon" viewBox="0 0 1024 1024" version="1.1" xmlns="http://www.w3.org/2000/svg" p-id="1626" xmlns:xlink="http://www.w3.org/1999/xlink" width="200" height="200"><path d="M909.312 506.24L781.696 405.632a7.232 7.232 0 0 0-11.712 5.696v64.64H547.968V254.08H612.8c6.016 0 9.408-7.04 5.76-11.712l-100.928-127.68a7.168 7.168 0 0 0-11.328 0L405.632 242.304a7.232 7.232 0 0 0 5.696 11.712h64.64v222.016H254.08V411.2a7.232 7.232 0 0 0-11.712-5.76l-127.68 100.928a7.168 7.168 0 0 0 0 11.328l127.488 100.8a7.232 7.232 0 0 0 11.712-5.76v-64.64h222.016v221.952h-64.832a7.232 7.232 0 0 0-5.696 11.712l100.8 127.488a7.168 7.168 0 0 0 11.328 0l100.8-127.488a7.232 7.232 0 0 0-5.76-11.712h-64.448v-222.08h221.952V612.8c0 6.016 7.04 9.408 11.712 5.76l127.488-100.864a7.296 7.296 0 0 0 0.128-11.392l-0.064-0.064z" p-id="1627"></path></svg>