<?xml version="1.0" standalone="no"?><!DOCTYPE svg PUBLIC "-//W3C//DTD SVG 1.1//EN" "http://www.w3.org/Graphics/SVG/1.1/DTD/svg11.dtd"><svg t="1657273582228" class="icon" viewBox="0 0 1024 1024" version="1.1" xmlns="http://www.w3.org/2000/svg" p-id="23058" xmlns:xlink="http://www.w3.org/1999/xlink" width="200" height="200"><defs><style type="text/css">@font-face { font-family: feedback-iconfont; src: url("//at.alicdn.com/t/font_1031158_u69w8yhxdu.woff2?t=1630033759944") format("woff2"), url("//at.alicdn.com/t/font_1031158_u69w8yhxdu.woff?t=1630033759944") format("woff"), url("//at.alicdn.com/t/font_1031158_u69w8yhxdu.ttf?t=1630033759944") format("truetype"); }
</style></defs><path d="M960 448h-36.91C895.41 268.73 753.75 128.35 576 100.89V64H448v36.91C268.73 128.59 128.35 270.25 100.89 448H64v128h36.91C128.59 755.27 270.25 895.65 448 923.11V960h128v-36.91C755.27 895.41 895.65 753.75 923.11 576H960zM576 858.18V832H448v26.2C305.47 832 192.2 719.67 165.82 576H192V448h-26.2C192 305.47 304.33 192.2 448 165.82V192h128v-26.2C718.53 192 831.8 304.33 858.18 448H832v128h26.2C832 718.53 719.67 831.8 576 858.18z" p-id="23059"></path></svg>