<?xml version="1.0" standalone="no"?><!DOCTYPE svg PUBLIC "-//W3C//DTD SVG 1.1//EN" "http://www.w3.org/Graphics/SVG/1.1/DTD/svg11.dtd"><svg t="1677997633368" class="icon" viewBox="0 0 1024 1024" version="1.1" xmlns="http://www.w3.org/2000/svg" p-id="1206" xmlns:xlink="http://www.w3.org/1999/xlink" width="200" height="200"><path d="M519.488 541.696h0.256l354.56 47.36a8 8 0 0 1 4.864 13.376l-0.192 0.192-83.008 82.944 124.48 124.48a8 8 0 0 1 0.192 11.072l-0.192 0.192-130.112 130.112a8 8 0 0 1-11.136 0.192l-0.192-0.192-124.416-124.416-82.944 82.944a8 8 0 0 1-13.568-4.352v-0.256l-47.36-354.56a8 8 0 0 1 8.768-9.088z m-72.128 271.36v71.936h-76.032v-72h76.032z m-112.384 0v71.936H227.584a32 32 0 0 1-31.36-25.664l-0.128-0.448-6.08-32.896 72-12.992h72.96z m248.896-198.208l22.592 169.728 48.128-48.064 130.112 130.112 50.88-50.944-130.112-130.112 48.128-48.064-169.728-22.656z m-342.848 94.144l12.992 64-72 14.016-11.008-65.024 70.016-12.992z m-20.096-110.08l13.184 70.72-70.784 13.184-13.184-70.784 70.784-13.184z m-20.48-110.144l13.12 70.784-70.784 13.184-13.184-70.784 70.784-13.184zM901.952 416v72.96h-72V416h72zM179.84 378.624l13.248 70.784-70.784 13.184-13.248-70.72 70.784-13.248zM902.016 304v72h-72v-72h72zM159.36 268.544l13.184 70.784-70.784 13.184-13.184-70.784 70.784-13.184z m307.584-64.448l70.08 16.512-16.576 70.08-70.08-16.512 16.576-70.08z m176-14.912l23.936 67.968-67.904 23.872-23.936-67.84 67.904-24z m-284.992-10.88l70.08 16.64-16.576 70.016-70.08-16.576 16.576-70.08z m512-66.304a32 32 0 0 1 32 31.488v109.504H830.08v-55.04l-20.032 9.024-24-65.92 72.896-27.072A32 32 0 0 1 870.08 112z m-121.344 40l23.936 67.904-67.968 23.936-23.872-67.904L748.544 152zM103.36 117.376l0.512 0.128 106.112 25.472-16 70.016-46.976-11.008L152 228.992l-71.04 12.992-16.064-87.616a32 32 0 0 1 38.4-36.992z m145.6 35.2l70.08 16.576-16.64 70.08-70.016-16.576 16.576-70.08z" p-id="1207"></path></svg>