<?xml version="1.0" standalone="no"?><!DOCTYPE svg PUBLIC "-//W3C//DTD SVG 1.1//EN" "http://www.w3.org/Graphics/SVG/1.1/DTD/svg11.dtd"><svg t="1679050485113" class="icon" viewBox="0 0 1024 1024" version="1.1" xmlns="http://www.w3.org/2000/svg" p-id="2424" xmlns:xlink="http://www.w3.org/1999/xlink" width="200" height="200"><path d="M520.768 527.616a8 8 0 0 1 8.704-6.912h0.256l354.624 47.36a8 8 0 0 1 4.8 13.376l-0.192 0.192-82.944 82.944 124.416 124.48a8 8 0 0 1 0.192 11.072l-0.192 0.192L800.32 930.432a8 8 0 0 1-11.072 0.192l-0.192-0.192-124.48-124.416-82.944 82.944a8 8 0 0 1-13.568-4.352v-0.256l-47.36-354.56a8 8 0 0 1 0-2.176zM184 760v32h32c4.416 0 8 3.584 8 8v56a8 8 0 0 1-8 8h-72a32 32 0 0 1-32-32v-72c0-4.416 3.584-8 8-8h56c4.416 0 8 3.584 8 8z m161.984 40v56a8 8 0 0 1-8 8H272a8 8 0 0 1-8-8v-56c0-4.352 3.456-7.872 7.744-8h66.24c4.48 0 8 3.584 8 8z m121.984 0v56a8 8 0 0 1-8 8h-65.92a8 8 0 0 1-8.064-8v-56c0-4.416 3.584-8 8-8h65.984c4.48 0 8 3.584 8 8zM593.92 593.92l22.656 169.6 48.064-48 130.112 130.048 50.88-50.88L715.52 664.576l48.128-48.064-169.728-22.656z m-409.856 44.096V704a8 8 0 0 1-8 8h-56a8 8 0 0 1-8.064-8v-65.984c0-4.48 3.584-8 8-8h56c4.416 0 8 3.584 8 8z m0-122.048v66.048a8 8 0 0 1-8 8h-56a8 8 0 0 1-8-8v-66.048c0-4.416 3.584-8 8-8h56c4.416 0 8 3.584 8 8zM864 393.984v66.048a8 8 0 0 1-8 8h-56a8 8 0 0 1-8-8V393.92c0-4.416 3.584-8 8-8h56c4.416 0 8 3.584 8 8z m-680 0v65.984a8 8 0 0 1-8 8h-56a8 8 0 0 1-8-8v-65.92c0-4.48 3.584-8.064 8-8.064h56c4.416 0 8 3.584 8 8zM864 272v65.984a8 8 0 0 1-8 8h-56a8 8 0 0 1-8-8V272c0-4.416 3.584-8 8-8h56c4.416 0 8 3.584 8 8z m-680 0v65.984a8 8 0 0 1-8 8h-56a8 8 0 0 1-8-8V272c0-4.48 3.584-8 8-8h56c4.416 0 8 3.584 8 8z m648-160a32 32 0 0 1 32 32v72a8 8 0 0 1-8 8h-56a8 8 0 0 1-8-7.744V184h-32a8 8 0 0 1-8-8v-56c0-4.416 3.584-8 8-8h72z m-608 8v56a8 8 0 0 1-8 8h-32v32a8 8 0 0 1-8 8h-56a8 8 0 0 1-8-8v-72a32 32 0 0 1 32-32h72c4.416 0 8 3.584 8 8z m121.984 0v56a8 8 0 0 1-8 8H272a8 8 0 0 1-8-7.744V120c0-4.416 3.584-8 8-8h65.984c4.48 0 8 3.584 8 8z m121.984 0v56a8 8 0 0 1-8 8h-65.92a8 8 0 0 1-8.064-8v-56c0-4.416 3.584-8 8-8h65.984c4.48 0 8 3.584 8 8z m122.048 0v56a8 8 0 0 1-8 8h-66.048a8 8 0 0 1-8-8v-56c0-4.416 3.584-8 8-8h66.048c4.416 0 8 3.584 8 8zM712 120v56a8 8 0 0 1-8 8h-65.984a8 8 0 0 1-8-8v-56c0-4.416 3.584-8 8-8H704c4.416 0 8 3.584 8 8z" p-id="2425"></path></svg>