<?xml version="1.0" standalone="no"?><!DOCTYPE svg PUBLIC "-//W3C//DTD SVG 1.1//EN" "http://www.w3.org/Graphics/SVG/1.1/DTD/svg11.dtd"><svg t="1677989522847" class="icon" viewBox="0 0 1024 1024" version="1.1" xmlns="http://www.w3.org/2000/svg" p-id="1082" xmlns:xlink="http://www.w3.org/1999/xlink" width="200" height="200"><path d="M605.248 879.68l14.656 58.048a8 8 0 0 1-6.592 9.92l-68.8 10.432a8 8 0 0 1-9.216-7.488l-3.2-59.84a8 8 0 0 1 6.784-8.32l57.408-8.704c4.032-0.64 7.936 1.92 8.96 5.952z m-181.44-6.848l57.216 9.28c4.096 0.64 6.976 4.288 6.72 8.384l-3.84 59.84a8 8 0 0 1-9.216 7.36l-68.8-11.136a8 8 0 0 1-6.4-9.92l15.296-57.984a8 8 0 0 1 8.96-5.824z m-106.496-44.544l51.52 26.496c3.648 1.92 5.312 6.208 3.776 10.048l-22.016 55.68a8 8 0 0 1-11.136 4.224l-61.952-31.872a8 8 0 0 1-3.072-11.456l32.448-50.368a8 8 0 0 1 10.432-2.752z m172.16-347.52h0.256L844.352 528a8 8 0 0 1 4.8 13.44l-0.192 0.192-82.944 82.944 124.416 124.48a8 8 0 0 1 0.192 11.072l-0.192 0.192L760.32 890.432a8 8 0 0 1-11.072 0.192l-0.192-0.192-124.48-124.416-82.944 82.944a8 8 0 0 1-13.568-4.352v-0.256l-47.36-354.56a8 8 0 0 1 8.768-9.088zM229.504 753.152l40.96 40.96c2.944 2.944 3.2 7.552 0.576 10.752l-38.08 46.272a8 8 0 0 1-11.84 0.64l-49.28-49.28a8 8 0 0 1 0.64-11.84l46.272-38.08a8 8 0 0 1 10.752 0.576z m324.352-199.296l22.656 169.728 48.064-48.128 130.112 130.112 50.88-50.88-130.112-130.112 48.128-48.064-169.728-22.656zM169.088 654.784l26.368 51.584c1.856 3.648 0.64 8.128-2.816 10.368l-50.432 32.384a8 8 0 0 1-11.456-3.136l-31.68-62.08a8 8 0 0 1 4.16-11.072l55.808-21.888a8 8 0 0 1 10.048 3.84z m-27.2-112.32l9.216 57.28a8 8 0 0 1-5.824 8.96L87.296 624a8 8 0 0 1-9.92-6.464l-11.072-68.8a8 8 0 0 1 7.36-9.216l59.84-3.84a8 8 0 0 1 8.32 6.784z m749.184-17.216l59.84 2.112a8 8 0 0 1 7.68 8.96l-9.152 69.12a8 8 0 0 1-9.728 6.72l-58.368-13.632a8 8 0 0 1-6.144-8.832l7.68-57.472a8 8 0 0 1 8.192-6.976zM85.568 403.392l0.768 0.192 58.048 14.72a8 8 0 0 1 5.952 8.96l-8.704 57.344a8 8 0 0 1-8.32 6.784l-59.84-3.2a8 8 0 0 1-7.488-9.216l10.432-68.864a8 8 0 0 1 9.152-6.72z m858.752-6.08a8 8 0 0 1 0.192 0.768l12.416 68.544a8 8 0 0 1-7.232 9.408l-59.712 4.928a8 8 0 0 1-8.512-6.592l-10.368-57.088a8 8 0 0 1 5.76-9.088l57.6-16.384a8 8 0 0 1 9.856 5.504z m-804.736-119.68a8 8 0 0 1 0.704 0.384l50.688 32a8 8 0 0 1 2.88 10.304l-25.984 51.84a8 8 0 0 1-10.048 3.84l-55.936-21.44a8 8 0 0 1-4.288-11.072l31.296-62.272a8 8 0 0 1 10.688-3.584z m748.672-7.68a8 8 0 0 1 0.384 0.704l32.896 61.44a8 8 0 0 1-3.968 11.2l-55.36 22.976a8 8 0 0 1-10.112-3.648l-27.328-51.072a8 8 0 0 1 2.56-10.432l49.792-33.28a8 8 0 0 1 11.136 2.176z m-658.752-95.296a8 8 0 0 1 0.576 0.64l38.528 45.824a8 8 0 0 1-0.448 10.752l-40.64 41.472a8 8 0 0 1-10.688 0.64l-46.656-37.696a8 8 0 0 1-0.64-11.84l48.64-49.664a8 8 0 0 1 11.328-0.128z m566.208-8.32a8 8 0 0 1 0.64 0.512L846.4 215.04a8 8 0 0 1-0.32 11.84l-45.504 38.976a8 8 0 0 1-10.752-0.32l-41.792-40.192a8 8 0 0 1-0.768-10.752l37.248-46.976a8 8 0 0 1 11.2-1.28zM346.88 104.128a8 8 0 0 1 0.32 0.704l22.4 55.552a8 8 0 0 1-3.648 10.112l-51.392 26.88a8 8 0 0 1-10.368-2.752l-32.832-50.112a8 8 0 0 1 2.944-11.52l61.76-32.256a8 8 0 0 1 10.816 3.392z m328.896-8.448a8 8 0 0 1 0.704 0.32l62.592 30.656a8 8 0 0 1 3.328 11.392l-31.488 50.944A8 8 0 0 1 700.544 192l-52.032-25.472a8 8 0 0 1-3.968-9.984l20.928-56.128a8 8 0 0 1 10.304-4.736zM480.128 73.216l0.128 0.768 4.352 59.776a8 8 0 0 1-6.656 8.448L420.8 152a8 8 0 0 1-9.088-5.76l-15.808-57.856a8 8 0 0 1 6.4-9.984l68.608-11.712a8 8 0 0 1 9.216 6.528z m59.776-7.68l0.768 0.128 68.992 9.792a8 8 0 0 1 6.656 9.856l-14.208 58.24a8 8 0 0 1-8.896 6.016l-57.408-8.192a8 8 0 0 1-6.848-8.32l2.56-59.84a8 8 0 0 1 8.384-7.68z" p-id="1083"></path></svg>