<?xml version="1.0" standalone="no"?><!DOCTYPE svg PUBLIC "-//W3C//DTD SVG 1.1//EN" "http://www.w3.org/Graphics/SVG/1.1/DTD/svg11.dtd"><svg t="1679050469200" class="icon" viewBox="0 0 1024 1024" version="1.1" xmlns="http://www.w3.org/2000/svg" p-id="1644" xmlns:xlink="http://www.w3.org/1999/xlink" width="200" height="200"><path d="M519.488 541.696h0.256l354.56 47.36a8 8 0 0 1 4.864 13.376l-0.192 0.192-83.008 82.944 124.48 124.48a8 8 0 0 1 0.192 11.072l-0.192 0.192-130.112 130.112a8 8 0 0 1-11.136 0.192l-0.192-0.192-124.416-124.416-82.944 82.944a8 8 0 0 1-13.568-4.352v-0.256l-47.36-354.56a8 8 0 0 1 8.768-9.088zM447.36 820.992v56a8 8 0 0 1-8 8h-60.032a8 8 0 0 1-8-8v-56c0-4.416 3.584-8 8-8h60.032c4.416 0 8 3.584 8 8z m-112.384 0v56a8 8 0 0 1-8 8h-99.392a32 32 0 0 1-31.36-25.664l-0.128-0.448-4.608-24.96a8 8 0 0 1 6.144-9.28l0.256-0.064 63.36-11.456a8 8 0 0 1 1.472-0.128h64.256c4.48 0 8 3.584 8 8z m248.896-206.08l22.592 169.6 48.128-48 130.112 130.112 50.88-50.944-130.112-130.112 48.128-48.064-169.728-22.656zM242.56 716.672l9.856 48.448a8 8 0 0 1-6.016 9.344l-0.32 0.064-56.064 10.88a8 8 0 0 1-9.344-6.272v-0.192l-8.32-49.152a8 8 0 0 1 6.4-9.216l54.528-10.112a8 8 0 0 1 9.28 6.272zM222.4 606.72l10.24 55.04a8 8 0 0 1-6.144 9.28l-0.256 0.064-55.04 10.24a8 8 0 0 1-9.344-6.4l-10.24-55.04a8 8 0 0 1 6.144-9.28h0.256l55.04-10.24a8 8 0 0 1 9.344 6.4z m-20.544-110.08l10.24 55.04a8 8 0 0 1-6.144 9.28h-0.256l-55.04 10.304a8 8 0 0 1-9.344-6.4l-10.24-55.04a8 8 0 0 1 6.144-9.28l0.256-0.064 55.04-10.24a8 8 0 0 1 9.344 6.4zM902.016 424v56.96a8 8 0 0 1-8 8.064h-56a8 8 0 0 1-8-8V424c0-4.416 3.584-8 8-8h56c4.416 0 8 3.584 8 8z m-720.64-37.504l10.24 55.04a8 8 0 0 1-6.144 9.344h-0.256l-55.04 10.24a8 8 0 0 1-9.344-6.4l-10.24-55.04a8 8 0 0 1 6.4-9.28l55.04-10.24a8 8 0 0 1 9.28 6.4zM902.016 312v56a8 8 0 0 1-8 8h-56a8 8 0 0 1-8-8v-56c0-4.416 3.584-8 8-8h56c4.416 0 8 3.584 8 8z m-741.184-35.584l10.24 55.04a8 8 0 0 1-6.144 9.28h-0.256l-55.04 10.304a8 8 0 0 1-9.344-6.4l-10.24-55.04a8 8 0 0 1 6.144-9.28h0.256l55.04-10.304a8 8 0 0 1 9.344 6.4z m313.92-70.464l54.464 12.8a8 8 0 0 1 5.952 9.664l-12.864 54.528a8 8 0 0 1-9.408 5.952h-0.256l-54.464-12.928a8 8 0 0 1-5.952-9.6l12.864-54.528a8 8 0 0 1 9.408-5.952h0.256z m170.88-9.216l18.56 52.864a8 8 0 0 1-4.608 10.112l-0.256 0.064-52.8 18.56a8 8 0 0 1-10.24-4.864l-18.56-52.8a8 8 0 0 1 4.864-10.24l52.8-18.56a8 8 0 0 1 10.24 4.864zM365.696 180.16l54.528 12.864a8 8 0 0 1 5.952 9.6l-12.864 54.528a8 8 0 0 1-9.408 6.016h-0.256l-54.464-12.928a8 8 0 0 1-5.952-9.6l12.864-54.528a8 8 0 0 1 9.408-6.016l0.192 0.064zM870.016 112a32 32 0 0 1 32 31.488v101.504a8 8 0 0 1-8 8h-56a8 8 0 0 1-8-8v-46.976l-12.16 5.44a8 8 0 0 1-10.816-4.544l-18.304-50.432a8 8 0 0 1 4.736-10.24l65.408-24.256A32 32 0 0 1 870.016 112z m-118.784 47.552l18.624 52.8a8 8 0 0 1-4.672 10.112l-0.192 0.128-52.864 18.56a8 8 0 0 1-10.24-4.864l-18.56-52.8A8 8 0 0 1 688 173.376l0.256-0.128 52.8-18.56a8 8 0 0 1 10.24 4.864zM103.36 117.376l0.512 0.128 98.432 23.68a8 8 0 0 1 5.952 9.536l-12.48 54.4a8 8 0 0 1-9.344 6.08h-0.192l-39.168-9.216 3.52 19.136a8 8 0 0 1-6.144 9.28h-0.256L88.96 240.576a8 8 0 0 1-9.344-6.4L64.96 154.368a32 32 0 0 1 38.4-36.992z m153.344 37.056l54.528 12.864a8 8 0 0 1 5.952 9.6l-12.864 54.528a8 8 0 0 1-9.408 6.016l-0.256-0.064-54.464-12.864a8 8 0 0 1-5.952-9.6l12.8-54.528a8 8 0 0 1 9.472-6.016h0.192z" p-id="1645"></path></svg>