<?xml version="1.0" standalone="no"?><!DOCTYPE svg PUBLIC "-//W3C//DTD SVG 1.1//EN" "http://www.w3.org/Graphics/SVG/1.1/DTD/svg11.dtd"><svg t="1705634130310" class="icon" viewBox="0 0 1024 1024" version="1.1" xmlns="http://www.w3.org/2000/svg" p-id="1063" xmlns:xlink="http://www.w3.org/1999/xlink" width="200" height="200"><path d="M561.472 520a8.04 8.04 0 0 1 8 7.168l11.52 109.568 16.32 12.288 34.176-25.6a32 32 0 0 1 38.016-0.32l0.384 0.32 34.112 25.6 34.112-25.6a32 32 0 0 1 38.016-0.32l0.384 0.32 34.176 25.6 16.32-12.288 11.52-109.568a8 8 0 0 1 8-7.168h48.256a8 8 0 0 1 7.936 8.832l-44.032 417.856a16 16 0 0 1-15.872 14.336H565.12a16 16 0 0 1-15.872-14.336l-44.032-417.856a8 8 0 0 1 7.936-8.832h48.256z m195.84 158.976l-34.112 25.6a32 32 0 0 1-38.016 0.32l-0.384-0.32-34.112-25.6-34.176 25.6a32 32 0 0 1-27.84 5.248l19.712 187.2h191.232l19.712-187.2a32 32 0 0 1-27.52-4.928l-0.32-0.32-34.176-25.6zM704 459.008a5.76 5.76 0 0 1 5.12 3.008l0.128 0.384 22.4 50.048 12.416 27.84a43.84 43.84 0 0 1-3.2 42.112 42.816 42.816 0 0 1-35.52 20.224h-2.176a42.816 42.816 0 0 1-36.096-20.224 43.776 43.776 0 0 1-3.328-41.6l12.608-28.352 22.4-50.048a5.76 5.76 0 0 1 5.248-3.392zM512.192 64c4.416 0 8 3.584 8 8v48a8 8 0 0 1-8 8h-72.064l0.384 94.016h230.464a128 128 0 0 1 128 125.888v106.112a8 8 0 0 1-8 8h-48a8 8 0 0 1-8-8v-104a64 64 0 0 0-62.912-64H384.832a8 8 0 0 1-8-8L376.192 128h-57.856l1.472 149.952a8 8 0 0 1-7.68 8.064H200v53.952h404.992a64 64 0 0 1 64 62.976v51.072a8 8 0 0 1-8 8h-48a8 8 0 0 1-8-8v-50.048H144a8 8 0 0 1-8-8V230.08c0-4.48 3.584-8 8-8h111.168l-0.896-94.08H184a8 8 0 0 1-8-8V72c0-4.416 3.584-8 8-8h328.192z" p-id="1064"></path></svg>