<?xml version="1.0" standalone="no"?><!DOCTYPE svg PUBLIC "-//W3C//DTD SVG 1.1//EN" "http://www.w3.org/Graphics/SVG/1.1/DTD/svg11.dtd"><svg t="1670430465970" class="icon" viewBox="0 0 1024 1024" version="1.1" xmlns="http://www.w3.org/2000/svg" p-id="1154" xmlns:xlink="http://www.w3.org/1999/xlink" width="200" height="200"><path d="M620 88c17.673 0 32 14.327 32 32v128c0 17.673-14.327 32-32 32h-68v72h328c17.673 0 32 14.327 32 32v472c0 17.673-14.327 32-32 32H144c-17.673 0-32-14.327-32-32V384c0-17.673 14.327-32 32-32h328v-72h-68c-17.673 0-32-14.327-32-32V120c0-17.673 14.327-32 32-32h216z m220 336H184v392h656V424z m-224 36c88.366 0 160 71.634 160 160s-71.634 160-160 160-160-71.634-160-160 71.634-160 160-160z m0 64c-53.02 0-96 42.98-96 96s42.98 96 96 96 96-42.98 96-96-42.98-96-96-96z m0 56c22.091 0 40 17.909 40 40s-17.909 40-40 40-40-17.909-40-40 17.909-40 40-40zM384 472a8 8 0 0 1 8 8v48a8 8 0 0 1-8 8H256a8 8 0 0 1-8-8v-48a8 8 0 0 1 8-8h128z m204-320H436v64h152v-64z" p-id="1155"></path></svg>