<?xml version="1.0" standalone="no"?><!DOCTYPE svg PUBLIC "-//W3C//DTD SVG 1.1//EN" "http://www.w3.org/Graphics/SVG/1.1/DTD/svg11.dtd"><svg t="1684918052294" class="icon" viewBox="0 0 1024 1024" version="1.1" xmlns="http://www.w3.org/2000/svg" p-id="932" xmlns:xlink="http://www.w3.org/1999/xlink" width="200" height="200"><path d="M888 832a32 32 0 0 1-32 32h-40v64a8 8 0 0 1-8 8h-72a8 8 0 0 1-8-8v-64H296v64a8 8 0 0 1-8 8h-72a8 8 0 0 1-8-8v-64h-40a32 32 0 0 1-32-32V221.248a32 32 0 0 1 9.344-22.592L246.656 97.28a32 32 0 0 1 22.592-9.344h485.504a32 32 0 0 1 22.592 9.344l101.312 101.312A32 32 0 0 1 888 221.184V832z m-72-324.032H208V792h608V507.968z m0-270.144L738.176 160H544v284.032h272V237.824zM480 160H285.824L208 237.824v206.144h272V160z" p-id="933"></path></svg>