<?xml version="1.0" standalone="no"?><!DOCTYPE svg PUBLIC "-//W3C//DTD SVG 1.1//EN" "http://www.w3.org/Graphics/SVG/1.1/DTD/svg11.dtd"><svg t="1733911074541" class="icon" viewBox="0 0 1024 1024" version="1.1" xmlns="http://www.w3.org/2000/svg" p-id="1198" xmlns:xlink="http://www.w3.org/1999/xlink" width="200" height="200"><path d="M840 856a32 32 0 0 1-32 32h-40v64a8 8 0 0 1-8 8h-72a8 8 0 0 1-8-8v-64H344v64a8 8 0 0 1-8 8h-72a8 8 0 0 1-8-8v-64h-40a32 32 0 0 1-32-32V499.968c0-4.416 3.584-8 8-8h640c4.416 0 8 3.584 8 8V856z m-72-300.032H256V816h512V555.968zM32 436.032v-238.72a32 32 0 0 1 9.344-22.656L142.72 73.344A32 32 0 0 1 165.248 64H400c4.416 0 8 3.584 8 8v364.032a8 8 0 0 1-8 8H40a8 8 0 0 1-8-8zM336 136H181.824L104 213.824v166.144h232V136.064z m656 300.032v-238.72a32 32 0 0 0-9.344-22.656L881.28 73.344A32 32 0 0 0 858.752 64H624a8 8 0 0 0-8 8v364.032c0 4.416 3.584 8 8 8h360a8 8 0 0 0 8-8zM688 136h154.176L920 213.824v166.144H688V136.064z" p-id="1199"></path></svg>