<?xml version="1.0" standalone="no"?><!DOCTYPE svg PUBLIC "-//W3C//DTD SVG 1.1//EN" "http://www.w3.org/Graphics/SVG/1.1/DTD/svg11.dtd"><svg t="1648458301740" class="icon" viewBox="0 0 1024 1024" version="1.1" xmlns="http://www.w3.org/2000/svg" p-id="103806" xmlns:xlink="http://www.w3.org/1999/xlink" width="200" height="200"><defs><style type="text/css">@font-face { font-family: feedback-iconfont; src: url("//at.alicdn.com/t/font_1031158_u69w8yhxdu.woff2?t=1630033759944") format("woff2"), url("//at.alicdn.com/t/font_1031158_u69w8yhxdu.woff?t=1630033759944") format("woff"), url("//at.alicdn.com/t/font_1031158_u69w8yhxdu.ttf?t=1630033759944") format("truetype"); }
</style></defs><path d="M336 160a8 8 0 0 1 8 8v32a8 8 0 0 1-8 8H220v60.352c11.778 6.813 19.76 19.458 19.995 33.987L240 303h132v-11c0-48.601 39.399-88 88-88h104c48.601 0 88 39.399 88 88v11h132c0-14.806 8.044-27.733 20-34.649V208H688a8 8 0 0 1-8-8v-32a8 8 0 0 1 8-8h264a8 8 0 0 1 8 8v32a8 8 0 0 1-8 8H844v60.352c11.778 6.813 19.76 19.458 19.995 33.987L864 303h40c17.673 0 32 14.327 32 32v98.877c0 16.509-12.559 30.308-28.994 31.858l-201.285 18.99 166.045 255.186c16.712 25.683-20.15 52.011-39.023 27.871L630.669 509.316c-19.31 30.77-50.256 53.496-86.669 62.01l0.001 32.243C608.128 618.12 656 675.469 656 744c0 79.529-64.471 144-144 144s-144-64.471-144-144c0-68.53 47.872-125.88 112-140.432v-32.242c-36.51-8.537-67.525-31.362-86.825-62.259L190.907 767.782c-18.684 23.899-55-1.666-39.509-27.1l0.486-0.771 166.064-255.217-200.954-18.959C100.56 464.185 88 450.385 88 433.877V335c0-17.673 14.327-32 32-32h40c0-14.806 8.044-27.733 20-34.649V208H72a8 8 0 0 1-8-8v-32a8 8 0 0 1 8-8h264z m176 496c-48.601 0-88 39.399-88 88s39.399 88 88 88 88-39.399 88-88-39.399-88-88-88z m0 44c24.3 0 44 19.7 44 44s-19.7 44-44 44-44-19.7-44-44 19.7-44 44-44z m52-432H460c-13.122 0-23.785 10.531-23.997 23.603L436 292v75H152v37.753l275.188 25.964 15.082 34.6C454.267 492.84 481.46 511 512 511c30.235 0 57.189-17.799 69.366-44.86l0.364-0.824 15.082-34.599L872 404.753V367H588v-75c0-13.122-10.531-23.785-23.603-23.997L564 268z" p-id="103807"></path></svg>