<?xml version="1.0" standalone="no"?><!DOCTYPE svg PUBLIC "-//W3C//DTD SVG 1.1//EN" "http://www.w3.org/Graphics/SVG/1.1/DTD/svg11.dtd"><svg t="1677985944433" class="icon" viewBox="0 0 1024 1024" version="1.1" xmlns="http://www.w3.org/2000/svg" p-id="3486" xmlns:xlink="http://www.w3.org/1999/xlink" width="200" height="200"><path d="M239.36 93.952L392.128 336.64a16 16 0 0 1 0.768 15.168L264.512 613.76a16 16 0 0 0 0.896 15.36l132.864 203.264a15.936 15.936 0 0 1 2.432 7.616h130.048L395.968 633.728a16 16 0 0 1-0.896-15.36l128.64-262.592a16 16 0 0 0-0.832-15.168l-133.568-211.2a16 16 0 0 1 5.056-21.888l0.256-0.128 30.72-18.752a16 16 0 0 1 22.016 5.312L600.128 336.64a16 16 0 0 1 0.768 15.168L472.512 613.76a16 16 0 0 0 0.896 15.36l132.864 203.264a15.936 15.936 0 0 1 2.432 7.616h130.048L603.968 633.728a16 16 0 0 1-0.896-15.36l128.64-262.592a16 16 0 0 0-0.832-15.168l-133.568-211.2a16 16 0 0 1 5.056-21.888l0.256-0.128 30.72-18.752a16 16 0 0 1 22.016 5.312L808.128 336.64a16 16 0 0 1 0.768 15.168L680.512 613.76a16 16 0 0 0 0.896 15.36l132.864 203.264a15.936 15.936 0 0 1 2.432 7.616H880c4.416 0 8 3.584 8 8v56a8 8 0 0 1-8 8H144a8 8 0 0 1-8-8v-56c0-4.416 3.584-8 8-8h178.752L187.968 633.728a16 16 0 0 1-0.896-15.36l128.64-262.592a16 16 0 0 0-0.832-15.168l-133.568-211.2a16 16 0 0 1 5.056-21.888l0.256-0.128 30.72-18.752a16 16 0 0 1 22.016 5.312z" p-id="3487"></path></svg>