<?xml version="1.0" standalone="no"?><!DOCTYPE svg PUBLIC "-//W3C//DTD SVG 1.1//EN" "http://www.w3.org/Graphics/SVG/1.1/DTD/svg11.dtd"><svg t="1668673774281" class="icon" viewBox="0 0 1088 1024" version="1.1" xmlns="http://www.w3.org/2000/svg" p-id="1271" xmlns:xlink="http://www.w3.org/1999/xlink" width="212.5" height="200"><path d="M488 208a352 352 0 1 1 0 704 352 352 0 0 1 0-704z m0 76.032a276.032 276.032 0 1 0 0 552 276.032 276.032 0 0 0 0-552.064z m-77.44 191.424l34.816 33.088c-29.44 31.04-60.672 47.488-93.376 47.488-32.384 0-63.296-16.128-92.544-46.592l-0.832-0.896 34.752-33.088c21.184 22.272 40.64 32.512 58.624 32.512 17.792 0 37.056-9.984 57.984-31.808l0.64-0.64z m272 0l34.816 33.088c-29.44 31.04-60.672 47.488-93.376 47.488-32.384 0-63.296-16.128-92.544-46.592l-0.832-0.896 34.752-33.088c21.184 22.272 40.64 32.512 58.624 32.512 17.792 0 37.056-9.984 57.984-31.808l0.64-0.64zM969.152 64a8 8 0 0 1 6.016 13.248L846.72 224h110.272c4.48 0 8 3.584 8 8v40a8 8 0 0 1-8 8h-216.064a8 8 0 0 1-6.016-13.248l128.384-146.752h-110.272a8 8 0 0 1-8-8v-40c0-4.416 3.584-8 8-8h216.064z" p-id="1272"></path></svg>