<?xml version="1.0" standalone="no"?><!DOCTYPE svg PUBLIC "-//W3C//DTD SVG 1.1//EN" "http://www.w3.org/Graphics/SVG/1.1/DTD/svg11.dtd"><svg t="1710495707162" class="icon" viewBox="0 0 1024 1024" version="1.1" xmlns="http://www.w3.org/2000/svg" p-id="1032" xmlns:xlink="http://www.w3.org/1999/xlink" width="200" height="200"><path d="M120 813.952h192.96c40 0 73.856-8.832 101.44-26.368 27.84-16.384 49.536-37.12 65.152-62.272 5.888-9.536 10.88-18.688 15.04-27.52 3.84-8.96 6.848-19.2 8.768-30.72 0.768-4.096 1.472-9.664 2.048-16.512l0.192-2.304 0.128-1.152 0.192-2.496 0.192-2.496 0.064-1.28 0.192-2.624 0.192-2.688 0.192-2.816 0.128-2.816 0.064-1.472 0.192-2.944 0.128-3.008 0.192-3.072 0.192-4.672 0.128-3.2 0.128-3.2 0.128-3.264 0.128-3.328 0.128-3.392 0.128-3.392 0.128-5.12 0.128-5.248 0.128-3.52 0.128-5.312 0.128-5.312 0.064-5.376 0.064-3.648 0.128-5.376 0.064-5.376 0.064-5.44v-5.376l0.128-5.312v-37.504l-0.064-8.512-0.064-5.12-0.064-6.848-0.064-6.848-0.128-6.848-0.064-5.12-0.064-3.392-0.128-4.992-0.128-6.592v-3.264l-0.192-4.864-0.128-6.336-0.128-4.608-0.128-4.48-0.192-4.48-0.128-4.224-0.128-2.816-0.128-4.032-0.128-2.56-0.128-2.56-0.192-3.712-0.128-2.368-0.128-2.304-0.128-2.176-0.128-2.112-0.128-1.984-0.064-1.024-0.128-1.92-0.192-1.728-0.128-1.664a153.856 153.856 0 0 0-0.448-4.48 160.704 160.704 0 0 0-24.576-62.976c-36.096-59.52-90.304-89.6-162.56-90.048H120a8 8 0 0 0-8 8v577.92c0 4.416 3.584 8 8 8z m72.576-514.048h116.736c40.96-0.96 72.704 14.08 95.168 45.056 11.008 12.48 17.92 28.736 20.864 48.704l0.128 1.28 0.128 1.28 0.064 0.768 0.128 1.472 0.128 1.536 0.128 1.664 0.128 1.728 0.128 1.792 0.064 1.92 0.128 1.92 0.192 3.072 0.128 3.2 0.128 3.392 0.128 3.52 0.192 3.584 0.128 5.056 0.192 5.12 0.128 6.784 0.192 5.568 0.128 5.632v4.352l0.192 5.76v4.48l0.128 5.952 0.064 7.424 0.128 8.96v8.896l0.064 5.888v37.696l-0.064 5.952-0.064 6.016-0.064 6.016-0.128 7.424-0.064 7.36-0.128 5.76-0.128 5.76-0.064 4.16-0.192 5.44-0.128 5.248-0.128 3.84v2.56l-0.192 3.648-0.064 2.368-0.192 4.544-0.128 3.264-0.128 2.112-0.064 2.048-0.128 1.92-0.128 1.92-0.064 1.792-0.128 1.664-0.128 1.664-0.128 1.536-0.128 1.472v0.704l-0.192 1.28v0.64l-0.192 1.28c0 0.32 0 0.64-0.128 1.024a88.768 88.768 0 0 1-17.152 43.584c-20.48 31.04-53.504 46.528-98.88 46.528H192.576V299.904z m511.04 514.048h64a8 8 0 0 0 8-8V299.904h158.72a8 8 0 0 0 7.936-8v-63.872a8 8 0 0 0-8-8.064H536.768a8 8 0 0 0-8 8.064v63.872c0 4.48 3.584 8 8 8h158.848v506.048c0 4.416 3.584 8 8 8z" p-id="1033"></path></svg>