<?xml version="1.0" standalone="no"?><!DOCTYPE svg PUBLIC "-//W3C//DTD SVG 1.1//EN" "http://www.w3.org/Graphics/SVG/1.1/DTD/svg11.dtd"><svg t="1678011344293" class="icon" viewBox="0 0 1024 1024" version="1.1" xmlns="http://www.w3.org/2000/svg" p-id="4878" xmlns:xlink="http://www.w3.org/1999/xlink" width="200" height="200"><path d="M450.88 378.88l0.896 0.832A7214.528 7214.528 0 0 1 704.64 639.936C718.912 629.888 736.256 624 755.008 624c48.256 0 87.232 39.168 88 87.424V904a8 8 0 0 1-8 8h-56a8 8 0 0 1-8-8V712.896A16.512 16.512 0 0 0 755.904 696l0.064 0.064-118.08 118.08a8 8 0 0 1-11.2 0.128L600 788.288v117.76a8 8 0 0 1-8 7.936H145.024a8 8 0 0 1-8-8V880c0-133.888 22.528-243.328 68.288-328.128 46.4-85.952 116.416-145.92 208.64-178.944l2.816-1.024 1.152-0.384a32 32 0 0 1 32.96 7.296z m-31.04 64.64l-3.328 1.408c-133.312 57.344-203.84 188.288-210.88 399.168v1.92h326.4V722.24L439.04 632a8 8 0 0 1-0.32-11.136l0.192-0.192 36.224-37.312a8 8 0 0 1 11.264-0.192l145.28 141.12 30.272-30.336-4.288-4.608a7107.008 7107.008 0 0 0-234.24-242.112l-3.584-3.712z m145.728-317.632c34.56-9.28 72-16.96 112.192-23.04a16 16 0 0 1 15.36 6.464l59.84 82.304 72.96 32a8 8 0 0 1-1.152 14.976l-81.152 21.76 0.512 1.088a139.968 139.968 0 1 1-265.6 69.952l-81.088 21.76a8 8 0 0 1-8.512-12.48l47.168-64.192 10.752-101.184a16 16 0 0 1 10.048-13.184 1018.112 1018.112 0 0 1 108.672-36.224z m113.792 151.68l-136.512 36.608-0.128 0.832a75.968 75.968 0 1 0 136.64-37.44z m-96.256-86.016a890.88 890.88 0 0 0-68.288 21.44l-3.84 1.28-4.096 39.04L680 206.976l-23.104-31.744-1.408 0.256c-24.832 4.48-48.256 9.6-70.4 15.552l-1.984 0.512z" p-id="4879"></path></svg>