<?xml version="1.0" standalone="no"?><!DOCTYPE svg PUBLIC "-//W3C//DTD SVG 1.1//EN" "http://www.w3.org/Graphics/SVG/1.1/DTD/svg11.dtd"><svg t="1679048045208" class="icon" viewBox="0 0 1024 1024" version="1.1" xmlns="http://www.w3.org/2000/svg" p-id="2726" xmlns:xlink="http://www.w3.org/1999/xlink" width="200" height="200"><path d="M832 64a32 32 0 0 1 32 31.488V928a32 32 0 0 1-31.488 32H192a32 32 0 0 1-32-31.488V96a32 32 0 0 1 31.488-32H832z m-40 72H232v752h560V136zM661.696 595.52a160 160 0 0 1-203.84 207.104l-0.896-0.384a8 8 0 0 1-2.88-13.12l29.696-29.696a16 16 0 0 1 13.696-4.48l1.024 0.128 1.024 0.128 0.896 0.128 0.896 0.128 0.832 0.064 0.768 0.064 0.704 0.064a103.808 103.808 0 0 0 111.936-113.28l-0.064-0.704a62.72 62.72 0 0 0 0-0.384l-0.128-0.896-0.064-0.384-0.128-0.896-0.128-1.024-0.128-0.512a16 16 0 0 1 4.48-13.76l30.784-30.72a7.04 7.04 0 0 1 11.52 2.432z m-33.728-93.44l33.92 33.92a8 8 0 0 1 0 11.328L407.36 801.92a8 8 0 0 1-11.328 0L362.112 768a8 8 0 0 1 0-11.328L616.64 502.08a8 8 0 0 1 11.328 0z m-56.448 11.264l-31.232 31.168a16 16 0 0 1-13.76 4.48l-0.832-0.064-0.832-0.128h-0.32l-0.704-0.128a103.808 103.808 0 0 0-115.2 115.2l0.128 0.704 0.064 0.768 0.128 0.768 0.064 0.448a16 16 0 0 1-4.48 13.696L374.72 710.08a7.872 7.872 0 0 1-12.8-2.56l-0.128-0.256a160 160 0 0 1 205.696-205.44l1.728 0.704a6.592 6.592 0 0 1 2.304 10.816zM720.256 192a16 16 0 0 1 16 15.68V400a16 16 0 0 1-15.68 16H303.744a16 16 0 0 1-16-15.68V208a16 16 0 0 1 15.68-16h416.832z m-40 56H343.68v112h336.512V248z" p-id="2727"></path></svg>