<?xml version="1.0" standalone="no"?><!DOCTYPE svg PUBLIC "-//W3C//DTD SVG 1.1//EN" "http://www.w3.org/Graphics/SVG/1.1/DTD/svg11.dtd"><svg t="1721976039873" class="icon" viewBox="0 0 1024 1024" version="1.1" xmlns="http://www.w3.org/2000/svg" p-id="1885" xmlns:xlink="http://www.w3.org/1999/xlink" width="200" height="200"><path d="M511 64c66.679 0 123.263 43.219 143.268 103.172l53.126-47.98a32 32 0 0 1 20.931-8.248l0.517-0.004h127a8 8 0 0 1 8 8v48a8 8 0 0 1-8 8H741.154l-57.014 51.492 34.74 15.274a32 32 0 0 1 18.94 25.908l0.046 0.462 50 545c1.515 16.51-9.83 31.442-26.142 34.408L623 872.703v70.396c0 8.731-6.994 15.829-15.685 16H417c-8.837 0-16-7.164-16-16v-70.786l-138.638-24.814c-16.352-2.927-27.746-17.88-26.228-34.423l50-545a32 32 0 0 1 19.197-26.461l34.642-14.936-57.285-51.74H168a8 8 0 0 1-8-8v-48a8 8 0 0 1 8-8h127a32 32 0 0 1 21.448 8.253l51.715 46.707C388.54 106.61 444.794 64 511 64z m48 583h-94v248.098h94V647z m88.27-366.867C622.95 330.923 571.07 366 511 366c-59.66 0-111.24-34.6-135.766-84.827l-27.105 11.684-45.58 496.818L401 807.296V599c0-8.731 6.994-15.83 15.685-15.997L417 583h190c8.837 0 16 7.163 16 16v208.654l98.457-17.899-45.601-497.053-28.587-12.57z m-221.915-80.511l-0.171 0.993-0.18 1.121-0.118 0.801-0.162 1.184-0.159 1.311-0.116 1.083-0.065 0.661-0.092 1.043-0.06 0.783-0.064 0.951-0.063 1.141-0.034 0.767-0.033 0.956-0.026 1.137L424 215l0.002 0.617 0.015 1.12 0.027 1.061 0.034 0.91c0.026 0.627 0.059 1.253 0.098 1.878l0.114 1.569 0.079 0.91c0.065 0.707 0.138 1.413 0.22 2.117l0.168 1.344 0.157 1.132c0.088 0.603 0.182 1.205 0.283 1.804l0.165 0.958 0.192 1.037a86.5 86.5 0 0 0 0.69 3.263l0.257 1.077c0.14 0.573 0.287 1.143 0.439 1.71l0.231 0.851 0.441 1.532 0.242 0.795 0.331 1.048 0.284 0.867 0.21 0.623 0.322 0.918 0.323 0.895 0.315 0.842c0.242 0.637 0.49 1.27 0.747 1.9l0.426 1.028 0.433 1.006 0.151 0.345c0.228 0.516 0.461 1.03 0.7 1.54l0.36 0.764 0.688 1.408 0.528 1.038 0.396 0.756C448.666 283.223 477.64 302 511 302c34.198 0 63.787-19.731 78.005-48.43l0.435-0.894 0.39-0.82 0.392-0.848 0.41-0.915 0.463-1.068 0.394-0.941c0.259-0.63 0.51-1.263 0.755-1.9l0.502-1.338 0.217-0.603 0.291-0.833 0.411-1.221 0.237-0.729 0.164-0.52 0.334-1.095 0.396-1.37 0.19-0.689 0.183-0.69a86.38 86.38 0 0 0 0.723-2.977l0.199-0.914 0.17-0.814 0.177-0.894 0.21-1.138 0.117-0.67 0.122-0.735 0.143-0.926 0.073-0.49 0.165-1.208 0.167-1.372 0.093-0.837 0.09-0.919 0.091-1.047 0.072-0.938c0.05-0.71 0.092-1.422 0.125-2.137l0.05-1.317 0.027-1.104 0.008-0.393L598 215l-0.002-0.627-0.01-0.795-0.016-0.81a88.24 88.24 0 0 0-0.178-3.807l-0.069-0.926a87.46 87.46 0 0 0-0.173-1.92l-0.118-1.083-0.092-0.787a87.015 87.015 0 0 0-0.117-0.91l-0.127-0.909c-0.09-0.626-0.188-1.25-0.292-1.872l-0.188-1.08-0.263-1.395-0.286-1.394 0.037 0.175a86.436 86.436 0 0 0-1.062-4.427l-0.288-1.048-0.242-0.842-0.201-0.678-0.364-1.18-0.378-1.162-0.313-0.926C581.485 152.495 549.103 128 511 128c-38.936 0-71.897 25.577-83 60.846l-0.386 1.259-0.327 1.126-0.096 0.34-0.281 1.034a82.58 82.58 0 0 0-0.456 1.794l-0.214 0.902c-0.142 0.614-0.278 1.23-0.407 1.849l-0.2 0.987-0.192 1.01-0.086 0.475z" p-id="1886"></path></svg>