<?xml version="1.0" standalone="no"?><!DOCTYPE svg PUBLIC "-//W3C//DTD SVG 1.1//EN" "http://www.w3.org/Graphics/SVG/1.1/DTD/svg11.dtd"><svg t="1648459162457" class="icon" viewBox="0 0 1024 1024" version="1.1" xmlns="http://www.w3.org/2000/svg" p-id="104328" xmlns:xlink="http://www.w3.org/1999/xlink" width="200" height="200"><defs><style type="text/css">@font-face { font-family: feedback-iconfont; src: url("//at.alicdn.com/t/font_1031158_u69w8yhxdu.woff2?t=1630033759944") format("woff2"), url("//at.alicdn.com/t/font_1031158_u69w8yhxdu.woff?t=1630033759944") format("woff"), url("//at.alicdn.com/t/font_1031158_u69w8yhxdu.ttf?t=1630033759944") format("truetype"); }
</style></defs><path d="M832 64H192a32 32 0 0 0-32 32v832a32 32 0 0 0 32 32h640a32 32 0 0 0 32-32V96a32 32 0 0 0-32-32z m-40 824H232V136h560z" p-id="104329"></path><path d="M303.75 416h416.5a16 16 0 0 0 16-16V208a16 16 0 0 0-16-16h-416.5a16 16 0 0 0-16 16v192a16 16 0 0 0 16 16z m40-168h336.5v112h-336.5zM612.88 497.21H487.77l-96.43 167.42h81.78l-29.63 140.61 189.17-209.69h-98.67l78.89-98.34z" p-id="104330"></path></svg>