<?xml version="1.0" standalone="no"?><!DOCTYPE svg PUBLIC "-//W3C//DTD SVG 1.1//EN" "http://www.w3.org/Graphics/SVG/1.1/DTD/svg11.dtd"><svg t="1677638329665" class="icon" viewBox="0 0 1024 1024" version="1.1" xmlns="http://www.w3.org/2000/svg" p-id="4276" xmlns:xlink="http://www.w3.org/1999/xlink" width="200" height="200"><path d="M832 64a32 32 0 0 1 32 31.488V928a32 32 0 0 1-31.488 32H192a32 32 0 0 1-32-31.488V96a32 32 0 0 1 31.488-32H832z m-40 72H232v752h560V136zM657.6 585.6a160.064 160.064 0 0 1-212.032 212.032L489.6 753.6a103.936 103.936 0 0 0 123.968-123.968L657.6 585.6z m-29.632-83.52l33.92 33.92a8 8 0 0 1 0 11.328L407.36 801.92a8 8 0 0 1-11.328 0L362.112 768a8 8 0 0 1 0-11.328L616.64 502.08a8 8 0 0 1 11.328 0z m-49.536 4.288L534.4 550.4a103.936 103.936 0 0 0-123.968 123.968L366.4 718.4a160.064 160.064 0 0 1 212.032-212.032zM720.256 192a16 16 0 0 1 16 15.68V400a16 16 0 0 1-15.68 16H303.744a16 16 0 0 1-16-15.68V208a16 16 0 0 1 15.68-16h416.832z m-40 56H343.68v112h336.512V248z" p-id="4277"></path></svg>