<?xml version="1.0" standalone="no"?><!DOCTYPE svg PUBLIC "-//W3C//DTD SVG 1.1//EN" "http://www.w3.org/Graphics/SVG/1.1/DTD/svg11.dtd"><svg t="1661338743849" class="icon" viewBox="0 0 1024 1024" version="1.1" xmlns="http://www.w3.org/2000/svg" p-id="1540" xmlns:xlink="http://www.w3.org/1999/xlink" width="200" height="200"><defs><style type="text/css">@font-face { font-family: feedback-iconfont; src: url("//at.alicdn.com/t/font_1031158_u69w8yhxdu.woff2?t=1630033759944") format("woff2"), url("//at.alicdn.com/t/font_1031158_u69w8yhxdu.woff?t=1630033759944") format("woff"), url("//at.alicdn.com/t/font_1031158_u69w8yhxdu.ttf?t=1630033759944") format("truetype"); }
</style></defs><path d="M168 64h64c4.416 0 8 3.584 8 8v880a8 8 0 0 1-8 8h-64a8 8 0 0 1-8-8V72c0-4.416 3.584-8 8-8z m624 0h64c4.416 0 8 3.584 8 8v880a8 8 0 0 1-8 8h-64a8 8 0 0 1-8-8V72c0-4.416 3.584-8 8-8z m-84.032 148.032a32 32 0 0 1 32 32v535.936a32 32 0 0 1-32 32H316.096a32 32 0 0 1-32-32V244.032a32 32 0 0 1 32-32h392z m-219.968 64H347.968v472h140.032v-60.032h48v60.032h140.032V275.904H535.936v60.032h-48v-60.032z m48 307.968v64h-48v-64h48z m0-104v64h-48v-64h48z m0-104v64h-48v-64h48z m-67.84-233.984a8 8 0 0 1-6.336-12.864l43.52-56.832a8 8 0 0 1 12.8 0l43.52 56.832a8 8 0 0 1-6.4 12.8h-87.04zM555.328 881.92a8 8 0 0 1 6.4 12.864l-43.52 56.832a8 8 0 0 1-12.8 0l-43.52-56.832a8 8 0 0 1 6.4-12.8h87.04z" p-id="1541"></path></svg>