<?xml version="1.0" standalone="no"?><!DOCTYPE svg PUBLIC "-//W3C//DTD SVG 1.1//EN" "http://www.w3.org/Graphics/SVG/1.1/DTD/svg11.dtd"><svg t="1678006172100" class="icon" viewBox="0 0 1024 1024" version="1.1" xmlns="http://www.w3.org/2000/svg" p-id="4176" xmlns:xlink="http://www.w3.org/1999/xlink" width="200" height="200"><path d="M512 64a448 448 0 1 1 0 896 448 448 0 0 1 0-896z m0 75.968a372.032 372.032 0 1 0 0 744.064 372.032 372.032 0 0 0 0-744.064zM512 464a48 48 0 1 1 4.032 96A48 48 0 0 1 512 464z m200 0a48 48 0 1 1 4.096 96A48 48 0 0 1 712 464z m-400 0a48 48 0 1 1 4.032 96A48 48 0 0 1 312 464z" p-id="4177"></path></svg>