<?xml version="1.0" standalone="no"?><!DOCTYPE svg PUBLIC "-//W3C//DTD SVG 1.1//EN" "http://www.w3.org/Graphics/SVG/1.1/DTD/svg11.dtd"><svg t="1711091944178" class="icon" viewBox="0 0 1024 1024" version="1.1" xmlns="http://www.w3.org/2000/svg" p-id="1908" xmlns:xlink="http://www.w3.org/1999/xlink" width="200" height="200"><path d="M822.4 832c4.416 0 8 3.584 8 8v64a8 8 0 0 1-8 8h-624a8 8 0 0 1-8-8v-64c0-4.416 3.52-8 8-8h624z m-312-598.016c72.128 0 130.816 57.92 131.968 129.856v468.032h-80v-465.92a51.968 51.968 0 0 0-104-0.832v466.752h-80v-465.92c0-72.832 59.072-131.968 132.032-131.968z m332.224 434.88a48 48 0 0 1 41.984-0.256l0.576 0.256 68.48 33.792c3.84 1.92 5.504 6.592 3.776 10.496l-0.128 0.256-24.832 50.176-0.064 0.256a8 8 0 0 1-10.368 3.52l-0.256-0.128-57.92-28.608-59.712 29.504a48 48 0 0 1-41.984 0.32l-0.512-0.32-68.48-33.792a8 8 0 0 1-3.84-10.496l0.192-0.256 24.768-50.176a8 8 0 0 1 10.496-3.776l0.192 0.128 57.92 28.608 59.712-29.504zM179.84 658.496l58.56 29.248 56.704-28.352a8 8 0 0 1 10.752 3.584l25.024 50.048a8 8 0 0 1-3.584 10.752l-67.456 33.728a48 48 0 0 1-42.88 0l-58.56-29.248-56.768 28.352a8 8 0 0 1-10.624-3.328l-0.128-0.256-25.024-50.048a8 8 0 0 1 3.584-10.752l67.456-33.728a48 48 0 0 1 42.88 0z m662.784-168.64a48 48 0 0 1 41.984-0.256l0.576 0.256 68.48 33.792c3.84 1.92 5.504 6.592 3.776 10.496l-0.128 0.256-24.832 50.176-0.064 0.256a8 8 0 0 1-10.368 3.52l-0.256-0.128-57.92-28.544-59.712 29.44a48 48 0 0 1-41.984 0.32l-0.512-0.256-68.48-33.92a8 8 0 0 1-3.84-10.432l0.192-0.256 24.768-50.176a8 8 0 0 1 10.496-3.776l0.192 0.128 57.92 28.608 59.712-29.504z m-662.784-0.384l58.56 29.248 56.704-28.352a8 8 0 0 1 10.752 3.584l25.024 50.112a8 8 0 0 1-3.584 10.688l-67.456 33.792a48 48 0 0 1-42.88 0l-58.56-29.312-56.768 28.416a8 8 0 0 1-10.624-3.392l-0.128-0.192-25.024-50.112A8 8 0 0 1 69.44 523.2l67.456-33.728a48 48 0 0 1 42.88 0z m0-168.96l58.56 29.248 56.704-28.352a8 8 0 0 1 10.752 3.52l25.024 50.112a8 8 0 0 1-3.584 10.752L259.84 419.52a48 48 0 0 1-42.88 0l-58.56-29.248-56.768 28.352a8 8 0 0 1-10.624-3.328l-0.128-0.256-25.024-50.112a8 8 0 0 1 3.584-10.688l67.456-33.728a48 48 0 0 1 42.88 0zM754.368 112c4.416 0 8 3.584 8 8v241.024a8 8 0 0 1-8 8h-56a8 8 0 0 1-8-8V184h-360v20.032a8 8 0 0 1-8 7.936h-56a8 8 0 0 1-8-7.936V120c0-4.416 3.584-8 8-8h488z" p-id="1909"></path></svg>