<?xml version="1.0" standalone="no"?><!DOCTYPE svg PUBLIC "-//W3C//DTD SVG 1.1//EN" "http://www.w3.org/Graphics/SVG/1.1/DTD/svg11.dtd"><svg t="1657091774241" class="icon" viewBox="0 0 1024 1024" version="1.1" xmlns="http://www.w3.org/2000/svg" p-id="22505" xmlns:xlink="http://www.w3.org/1999/xlink" width="200" height="200"><defs><style type="text/css">@font-face { font-family: feedback-iconfont; src: url("//at.alicdn.com/t/font_1031158_u69w8yhxdu.woff2?t=1630033759944") format("woff2"), url("//at.alicdn.com/t/font_1031158_u69w8yhxdu.woff?t=1630033759944") format("woff"), url("//at.alicdn.com/t/font_1031158_u69w8yhxdu.ttf?t=1630033759944") format("truetype"); }
</style></defs><path d="M832 65c17.673 0 32 14.327 32 32v854a8 8 0 0 1-8 8H580a8 8 0 0 1-8-8V807a8 8 0 0 0-8-8H460a8 8 0 0 0-8 8v144a8 8 0 0 1-8 8H168a8 8 0 0 1-8-8V97c0-17.673 14.327-32 32-32h640z m-40 72H232v750h148l0.18-144.02c0.012-8.829 7.172-15.98 16-15.98h231.811c8.836 0 16 7.164 16 16L644 887h148V137zM392 552c4.416 0 8 3.584 8 8v80a8 8 0 0 1-8 8h-80a8 8 0 0 1-8-8v-80c0-4.416 3.584-8 8-8h80z m160 0c4.48 0 8 3.584 8 8v80a8 8 0 0 1-8 8h-80a8 8 0 0 1-8-8v-80c0-4.416 3.584-8 8-8h80z m160 0c4.48 0 8 3.584 8 8v80a8 8 0 0 1-8 8h-80a8 8 0 0 1-8-8v-80c0-4.416 3.584-8 8-8h80zM392 384c4.416 0 8 3.584 8 8v80a8 8 0 0 1-8 8h-80a8 8 0 0 1-8-8v-80c0-4.416 3.584-8 8-8h80z m160 0c4.48 0 8 3.584 8 8v80a8 8 0 0 1-8 8h-80a8 8 0 0 1-8-8v-80c0-4.416 3.584-8 8-8h80z m160 0c4.48 0 8 3.584 8 8v80a8 8 0 0 1-8 8h-80a8 8 0 0 1-8-8v-80c0-4.416 3.584-8 8-8h80zM392 216c4.416 0 8 3.584 8 8v80a8 8 0 0 1-8 8h-80a8 8 0 0 1-8-8v-80c0-4.416 3.584-8 8-8h80z m160 0c4.48 0 8 3.584 8 8v80a8 8 0 0 1-8 8h-80a8 8 0 0 1-8-8v-80c0-4.416 3.584-8 8-8h80z m160 0c4.48 0 8 3.584 8 8v80a8 8 0 0 1-8 8h-80a8 8 0 0 1-8-8v-80c0-4.416 3.584-8 8-8h80z" p-id="22506"></path></svg>