<?xml version="1.0" standalone="no"?><!DOCTYPE svg PUBLIC "-//W3C//DTD SVG 1.1//EN" "http://www.w3.org/Graphics/SVG/1.1/DTD/svg11.dtd"><svg t="1678011290516" class="icon" viewBox="0 0 1024 1024" version="1.1" xmlns="http://www.w3.org/2000/svg" p-id="2862" xmlns:xlink="http://www.w3.org/1999/xlink" width="200" height="200"><path d="M528 73.216l355.968 205.568a32 32 0 0 1 16 27.712v411.008a32 32 0 0 1-16 27.712L528 950.784a32 32 0 0 1-32 0L140.032 745.216a32 32 0 0 1-16-27.712V306.56a32 32 0 0 1 16-27.712L496 73.216a32 32 0 0 1 32 0zM512 147.2L196.032 329.6v364.864L512 876.864l315.968-182.4V329.6L512 147.136z m88 208.256c4.416 0 8 3.584 8 8v379.328a8 8 0 0 1-4.032 6.976l-48 27.456A8 8 0 0 1 544 770.24V363.392c0-4.48 3.584-8 8-8h48z m-128-80c4.352 0 7.872 3.392 8 7.68V770.24a8 8 0 0 1-11.712 7.04l-0.256-0.064-48-27.52a8 8 0 0 1-4.032-6.592V283.392c0-4.352 3.456-7.872 7.744-8H472zM344 491.968c4.352 0 7.872 3.456 8 7.744V697.28a8 8 0 0 1-11.776 7.04l-0.192-0.128-48-27.52a8 8 0 0 1-4.032-6.656V499.904c0-4.288 3.456-7.872 7.744-8H344zM728 432c4.416 0 8 3.584 8 8v229.76a8 8 0 0 1-4.032 6.912l-48 27.52A8 8 0 0 1 672 697.28V440c0-4.48 3.584-8 8-8h48z" p-id="2863"></path></svg>