<?xml version="1.0" standalone="no"?><!DOCTYPE svg PUBLIC "-//W3C//DTD SVG 1.1//EN" "http://www.w3.org/Graphics/SVG/1.1/DTD/svg11.dtd"><svg t="1677643965930" class="icon" viewBox="0 0 1024 1024" version="1.1" xmlns="http://www.w3.org/2000/svg" p-id="2246" xmlns:xlink="http://www.w3.org/1999/xlink" width="200" height="200"><path d="M509.44 64c246.784 0 446.976 200.704 447.488 447.488A447.296 447.296 0 0 1 509.44 958.976 447.296 447.296 0 0 1 61.952 511.488 447.296 447.296 0 0 1 509.44 64z m0 75.776a371.712 371.712 0 1 0 0 743.424c204.8 0 371.2-166.4 371.712-371.712 0-205.312-166.4-371.712-371.712-371.712z m22.528 618.496c4.608 0 8.192 3.584 8.192 8.192v72.192a8.064 8.064 0 0 1-8.192 8.192h-39.936a8.064 8.064 0 0 1-8.192-8.192v-72.192c0-4.608 3.584-8.192 8.192-8.192h39.936z m-9.728-399.36l120.832 92.16a18.176 18.176 0 0 1 7.168 14.848l1.024 156.672a10.816 10.816 0 0 1-10.752 10.752h-87.04v-71.168a20.736 20.736 0 0 0-20.992-20.992h-41.984a20.736 20.736 0 0 0-20.992 20.992v71.168h-87.04a10.816 10.816 0 0 1-10.752-10.752V465.408a17.28 17.28 0 0 1 7.168-14.336l120.832-92.16a18.432 18.432 0 0 1 22.528 0zM257.024 483.84c4.608 0 8.192 3.584 8.192 8.192v39.936a8.064 8.064 0 0 1-8.192 8.192h-72.192a8.064 8.064 0 0 1-8.192-8.192v-39.936c0-4.608 3.584-8.192 8.192-8.192h72.192z m582.144-0.512c4.608 0 8.192 3.584 8.192 8.192v39.936a8.064 8.064 0 0 1-8.192 8.192h-72.192a8.064 8.064 0 0 1-8.192-8.192V491.52c0-4.608 3.584-8.192 8.192-8.192h72.192z m-307.2-306.688c4.608 0 8.192 3.584 8.192 8.192v72.192a8.064 8.064 0 0 1-8.192 8.192h-39.936a8.064 8.064 0 0 1-8.192-8.192v-72.192c0-4.608 3.584-8.192 8.192-8.192h39.936z" p-id="2247"></path></svg>