<?xml version="1.0" standalone="no"?><!DOCTYPE svg PUBLIC "-//W3C//DTD SVG 1.1//EN" "http://www.w3.org/Graphics/SVG/1.1/DTD/svg11.dtd"><svg t="1679309455564" class="icon" viewBox="0 0 1024 1024" version="1.1" xmlns="http://www.w3.org/2000/svg" p-id="4030" xmlns:xlink="http://www.w3.org/1999/xlink" width="200" height="200"><path d="M766.08 456.064h0.64a25.6 25.6 0 0 1 7.296 0.896l0.576 0.192 177.28 60.416a12.428 12.428 0 0 1 7.808 10.752v251.968a19.392 19.392 0 0 1-6.272 13.248l-0.32 0.256-179.84 140.16a10.752 10.752 0 0 1-6.592 2.112 10.88 10.88 0 0 1-6.208-1.92l-0.32-0.192-179.84-140.16a19.648 19.648 0 0 1-6.528-13.184V528.576a12.544 12.544 0 0 1 7.552-10.88l0.256-0.128 177.28-60.416a25.6 25.6 0 0 1 7.296-1.088z m0.64 66.048L637.76 566.08v191.36l128.96 100.48 128.96-100.48V566.08l-128.96-43.968zM508.992 64c4.48 0 8 3.584 8 8v57.088a358.4 358.4 0 0 1 200.384 80.64l57.984-58.048a8 8 0 0 1 11.328 0l39.616 39.68a8 8 0 0 1 0 11.264l-58.112 58.112a358.976 358.976 0 0 1 69.76 138.368l0.64 2.368a5.44 5.44 0 0 1-5.312 6.72h-65.728a8 8 0 0 1-7.68-5.568l-0.64-2.048-0.512-1.792-0.576-1.6-0.448-1.344A284.16 284.16 0 0 0 204.992 488a283.968 283.968 0 0 0 309.12 282.88l2.176-0.192h0.64a8 8 0 0 1 8.832 7.808v59.712a8.064 8.064 0 0 1-7.36 8.576l-1.088 0.128h-0.32a359.936 359.936 0 0 1-56 0 358.336 358.336 0 0 1-199.296-79.744l-59.072 59.136a8 8 0 0 1-11.328 0l-39.616-39.616a8 8 0 0 1 0-11.328l59.008-59.008a358.4 358.4 0 0 1-80.512-199.36H72a8 8 0 0 1-8-8v-40c0-4.416 3.584-8 8-8h57.984a358.336 358.336 0 0 1 79.808-200.32l-58.112-58.048a8 8 0 0 1 0-11.328l39.68-39.616a8 8 0 0 1 11.264 0l57.984 58.048a358.4 358.4 0 0 1 200.384-80.64V72c0-4.416 3.584-8 8-8h40z m355.392 536a8 8 0 0 1 6.4 12.672L752.256 776.064a8 8 0 0 1-12.928 0l-75.776-104.32a8 8 0 0 1 6.4-12.8h35.52A16 16 0 0 1 718.4 665.6l27.392 37.696 70.144-96.64A16 16 0 0 1 828.928 600h35.456zM396.992 408a128 128 0 1 1 0 256 128 128 0 0 1 0-256z m0 64a64 64 0 1 0 0 128 64 64 0 0 0 0-128z m188.032-176a80 80 0 1 1 0 160 80 80 0 0 1 0-160z m0 48a32 32 0 1 0 0 64 32 32 0 0 0 0-64z" p-id="4031"></path></svg>