<?xml version="1.0" standalone="no"?><!DOCTYPE svg PUBLIC "-//W3C//DTD SVG 1.1//EN" "http://www.w3.org/Graphics/SVG/1.1/DTD/svg11.dtd"><svg t="1703827765046" class="icon" viewBox="0 0 1024 1024" version="1.1" xmlns="http://www.w3.org/2000/svg" p-id="5398" xmlns:xlink="http://www.w3.org/1999/xlink" width="200" height="200"><path d="M168 888h688c4.416 0 8 3.584 8 8v56a8 8 0 0 1-8 8H168a8 8 0 0 1-8-8v-56c0-4.416 3.584-8 8-8zM585.536 72.96l305.472 305.472a32 32 0 0 1 0 45.312L483.712 831.04a32 32 0 0 1-45.248 0L132.992 525.568a32 32 0 0 1 0-45.312L540.288 72.96a32 32 0 0 1 45.248 0z m-22.656 84.864L217.856 502.912l243.2 243.2 345.088-345.024-243.2-243.2z" p-id="5399"></path></svg>