<?xml version="1.0" standalone="no"?><!DOCTYPE svg PUBLIC "-//W3C//DTD SVG 1.1//EN" "http://www.w3.org/Graphics/SVG/1.1/DTD/svg11.dtd"><svg t="1704281592933" class="icon" viewBox="0 0 1024 1024" version="1.1" xmlns="http://www.w3.org/2000/svg" p-id="1731" xmlns:xlink="http://www.w3.org/1999/xlink" width="200" height="200"><path d="M881.28 274.88A30.656 30.656 0 0 1 912 305.6v575.68A30.656 30.656 0 0 1 881.28 912H142.72A30.656 30.656 0 0 1 112 881.28V305.728a30.646 30.646 0 0 1 30.72-30.72h180.16a7.68 7.68 0 0 1 7.68 7.68v53.76c0 4.224-3.456 7.68-7.68 7.68H181.12v498.816h661.76V344.128H701.12a7.744 7.744 0 0 1-7.68-7.68V282.56a7.68 7.68 0 0 1 7.68-7.68h180.16zM512 114.048c2.496 0 4.8 1.088 6.336 3.072l112 141.888A8 8 0 0 1 624 272h-75.968v314.048a8 8 0 0 1-8.064 7.936h-55.936a8.064 8.064 0 0 1-8.064-8V272H400a8.064 8.064 0 0 1-6.336-12.992l112-141.888a8 8 0 0 1 6.336-3.072z" p-id="1732"></path></svg>