<?xml version="1.0" standalone="no"?><!DOCTYPE svg PUBLIC "-//W3C//DTD SVG 1.1//EN" "http://www.w3.org/Graphics/SVG/1.1/DTD/svg11.dtd"><svg t="1648463699801" class="icon" viewBox="0 0 1024 1024" version="1.1" xmlns="http://www.w3.org/2000/svg" p-id="111692" xmlns:xlink="http://www.w3.org/1999/xlink" width="200" height="200"><defs><style type="text/css">@font-face { font-family: feedback-iconfont; src: url("//at.alicdn.com/t/font_1031158_u69w8yhxdu.woff2?t=1630033759944") format("woff2"), url("//at.alicdn.com/t/font_1031158_u69w8yhxdu.woff?t=1630033759944") format("woff"), url("//at.alicdn.com/t/font_1031158_u69w8yhxdu.ttf?t=1630033759944") format("truetype"); }
</style></defs><path d="M176.051 680.102a8.04 8.04 0 0 1 7.987 7.99V840.05h151.924v0.05a8.04 8.04 0 0 1 8.038 8.04v55.974c0 4.404-3.635 7.988-8.038 7.988H144c-17.673 0-32-14.326-32-32v-192.01a8.04 8.04 0 0 1 7.987-7.99zM840.363 619c11.007 0 19.93 8.944 19.93 19.977v77.766l56.333-44.886a13.058 13.058 0 0 1 8.038-2.776c6.88 0 13.344 5.443 13.336 13.343v166.564c0 7.9-6.464 13.344-13.344 13.344a13.058 13.058 0 0 1-8.03-2.777l-56.334-44.878v77.346c0 11.033-8.922 19.977-19.929 19.977H587.93C576.923 912 568 903.056 568 892.023V638.977c0-11.033 8.923-19.977 19.929-19.977zM811 667H616v197h195V667zM512.278 248c46.651 0 80.621 15.945 101.213 47.406 16.367 25.004 23.707 58.357 23.707 104.092 0 40.423-19.826 87.008-48.828 114.422l-1.306 1.219-3.492 3.214a145.378 145.378 0 0 1-4.253 3.722l-0.497 0.413-0.293 0.24 0.055 2.937L688.427 587H570.663l-26.93-15.348c-14.313-8.031-23.426-22.933-24.104-39.357l-0.02-0.53-0.012-0.537-0.246-13.363a47.353 47.353 0 0 1 18.483-38.404l0.432-0.328 0.613-0.454 0.454-0.345a47.683 47.683 0 0 0 2.401-2.011l0.628-0.561 0.835-0.759 3.323-3.09c15.78-15.027 25.935-43.896 25.935-66.282l-0.005-1.88c-0.172-30.53-4.55-52.064-12.95-64.96C551.138 325.954 537.1 320 512.26 320c-21.534 0-35.369 6.362-44.775 19.836-9.963 14.272-15.419 37.104-15.419 65.795 0 22.412 10.173 51.266 25.937 66.278l1.817 1.697 2.027 1.867 0.604 0.544a52.885 52.885 0 0 0 2.653 2.25l0.383 0.295 0.79 0.587a47.302 47.302 0 0 1 18.888 37.622l-0.002 0.548-0.007 0.549-0.24 13.33c-0.295 16.477-9.115 31.6-23.269 39.948l-0.458 0.267-0.467 0.264-127.229 72.281-1.489 0.676c-5.873 2.669-13.735 8.44-13.99 14.845l-0.01 0.356-0.004 0.362V700h198v64H306.1c-19.517 0-35.454-15.483-36.081-34.905l-0.019-0.59v-58.892c0.01-30.295 17.409-57.865 44.699-70.973l0.866-0.411 130.394-72.578 0.053-2.938-0.389-0.32c-0.568-0.473-1.146-0.963-1.741-1.478l-0.601-0.522-0.614-0.54-0.611-0.543-1.117-1.005-1.096-1-1.151-1.06-2.498-2.322c-29.03-27.44-48.836-74.033-48.836-114.425 0-42.943 9.153-78.547 27.427-104.597C436.375 264.122 469.718 248 512.278 248zM335.962 112c4.42 0 8.01 3.567 8.038 7.986v56.052c0 4.403-3.635 7.986-8.038 7.986H184.038v151.94c0 4.453-3.635 8.036-7.987 8.036h-56.013v-0.051c-4.454 0-8.038-3.635-8.038-8.037V144c0-17.673 14.327-32 32-32z m544.14 0c17.674 0 32 14.327 32 32v191.962c0 4.454-3.636 8.038-8.04 8.038H848.09c-4.456 0-8.04-3.635-8.04-8.038V184.038H688.09c-4.404 0-7.989-3.635-7.989-7.987v-56.013a8.04 8.04 0 0 1 7.99-8.038z" p-id="111693"></path></svg>