<?xml version="1.0" standalone="no"?><!DOCTYPE svg PUBLIC "-//W3C//DTD SVG 1.1//EN" "http://www.w3.org/Graphics/SVG/1.1/DTD/svg11.dtd"><svg t="1679048057779" class="icon" viewBox="0 0 1024 1024" version="1.1" xmlns="http://www.w3.org/2000/svg" p-id="3038" xmlns:xlink="http://www.w3.org/1999/xlink" width="200" height="200"><path d="M177.024 688c4.416 0 8 3.584 8 8v120h120c4.416 0 8 3.584 8 8v56a8 8 0 0 1-8 8h-160a32 32 0 0 1-32-32V696c0-4.48 3.584-8 8-8h56zM836.48 552.704a32 32 0 0 1 32 31.424v80.384l66.944-51.328a15.232 15.232 0 0 1 24.512 11.712v190.976a15.296 15.296 0 0 1-24.192 12.352l-0.32-0.256-66.944-51.328V856a32 32 0 0 1-31.424 32H565.312a32 32 0 0 1-32-31.488V696.32l-0.256-111.808a32 32 0 0 1 31.488-31.424H584l108.288-0.32h144.256z m-32 64H597.312V824h207.232V616.704z m-319.552-96.64v48.064a8 8 0 0 1-7.808 8l-5.056 0.128-2.688 0.064h-0.576a480.192 480.192 0 0 0-175.04 40.32l-0.832 0.32V656h184c4.48 0 8 3.584 8 8v48a8 8 0 0 1-8 8H234.24a5.184 5.184 0 0 1-5.12-5.056v-112.32a41.6 41.6 0 0 1 23.68-37.568 544.192 544.192 0 0 1 215.68-52.736l2.56-0.064 3.008-0.064 2.88-0.064a8 8 0 0 1 8.128 7.616v0.384zM488.96 248a112 112 0 0 1 1.152 224h-1.152a112 112 0 0 1-1.92-224h1.92z m0.064 64h-1.6a48 48 0 0 0-46.4 47.232V360c0 26.24 21.056 47.552 47.168 48h1.856a48 48 0 0 0 40.256-23.552l0.256-0.448a48 48 0 0 0-41.024-72h-0.448zM832.96 136a32 32 0 0 1 32 32v160a8 8 0 0 1-8 8h-56a8 8 0 0 1-8-7.744V208h-120a8 8 0 0 1-8-8v-56c0-4.416 3.584-8 8-8h160z m-528 0c4.416 0 8 3.584 8 8v56a8 8 0 0 1-8 8h-120v120a8 8 0 0 1-8 8h-56a8 8 0 0 1-8-8V168a32 32 0 0 1 32-32h160z" p-id="3039"></path></svg>