<?xml version="1.0" standalone="no"?><!DOCTYPE svg PUBLIC "-//W3C//DTD SVG 1.1//EN" "http://www.w3.org/Graphics/SVG/1.1/DTD/svg11.dtd"><svg t="1677839630995" class="icon" viewBox="0 0 1024 1024" version="1.1" xmlns="http://www.w3.org/2000/svg" p-id="2159" xmlns:xlink="http://www.w3.org/1999/xlink" width="200" height="200"><path d="M522.24 102.4c128-0.128 248.96 58.24 328.576 158.464l2.304 2.944 56.384-44.16a8.064 8.064 0 0 1 12.992 6.016v0.256l-0.768 180.864a8.064 8.064 0 0 1-9.728 7.808l-0.192-0.064-175.616-43.008a8 8 0 0 1-3.2-13.952l0.192-0.192 60.16-46.976a344.704 344.704 0 0 0-27.776-31.36 341.504 341.504 0 0 0-243.072-100.864A341.76 341.76 0 0 0 279.424 279.04a342.208 342.208 0 0 0-100.736 243.328A342.208 342.208 0 0 0 278.4 764.544l1.024 1.024a341.504 341.504 0 0 0 243.072 100.864 341.76 341.76 0 0 0 243.072-100.864 341.952 341.952 0 0 0 73.152-108.032l0.64-1.344a308.48 308.48 0 0 0 5.824-14.848 8 8 0 0 1 9.856-4.928l0.256 0.128L912 656c4.224 1.408 6.4 6.144 4.864 10.304A419.84 419.84 0 0 1 102.4 521.92 419.712 419.712 0 0 1 522.24 102.4zM398.464 368.384c53.504 0 92.16 35.712 92.16 86.656 0 32.64-14.848 51.392-34.816 61.952 21.632 11.52 39.04 32.256 39.04 68.864 0 60.288-44.16 89.984-96 89.984-48.704 0-94.592-25.344-96.32-87.296v-1.856h55.168c0.832 27.136 19.52 39.488 41.152 39.488 23.808 0 40.768-14.848 40.768-42.048 0-24.832-14.976-41.28-41.6-41.6h-8.96v-48h8.128c26.688 0 38.208-16.576 38.208-37.76 0-25.536-16.96-38.656-36.928-38.656-20.672 0-35.84 13.312-37.376 35.84v0.64h-55.232c1.28-53.888 41.6-86.208 92.608-86.208z m232.32 0c48.704 0 90.88 31.616 91.648 88.32v129.152c0 57.728-42.432 89.984-91.712 89.984-48.768 0-91.264-31.616-92.16-88.32V458.496c0-57.728 42.88-90.048 92.16-90.048z m0 49.664c-21.504 0-36.672 15.488-36.992 40.448v126.912c0 25.472 15.296 40.768 36.928 40.768 21.504 0 36.224-14.976 36.48-40V459.264c0-25.472-14.784-41.152-36.48-41.152v-0.064z" p-id="2160"></path></svg>