<?xml version="1.0" standalone="no"?><!DOCTYPE svg PUBLIC "-//W3C//DTD SVG 1.1//EN" "http://www.w3.org/Graphics/SVG/1.1/DTD/svg11.dtd"><svg t="1672997150728" class="icon" viewBox="0 0 1024 1024" version="1.1" xmlns="http://www.w3.org/2000/svg" p-id="3905" xmlns:xlink="http://www.w3.org/1999/xlink" width="200" height="200"><path d="M642.048 468.48a245.824 245.824 0 0 1 0 491.52 245.824 245.824 0 0 1 0-491.52zM807.936 64c15.936 0 29.056 11.328 31.744 26.432l0.512 5.824V440.32a8.064 8.064 0 0 1-5.568 7.808L832 448.512h-55.808a8.064 8.064 0 0 1-7.808-5.568L768 440.32V136.192H207.872v702.976H409.6c3.712 0 6.72 2.304 7.808 5.568l0.384 2.624v55.808a8.064 8.064 0 0 1-5.568 7.808l-2.624 0.384H167.936a31.552 31.552 0 0 1-31.232-25.92l-0.512-5.824V95.744c0-15.488 10.88-28.544 25.92-31.232L167.936 64h640z m-165.888 471.04a179.392 179.392 0 0 0-179.2 179.2c0 98.816 80.384 179.2 179.2 179.2 99.328 0 179.2-80.384 179.2-179.2 0-98.816-80.384-179.2-179.2-179.2z m19.968 48.96c4.416 0 8 3.584 8 8v116.416l68.16 68.16a8 8 0 0 1 0.192 11.136l-28.48 28.48a8 8 0 0 1-11.328 0l-79.872-79.936a16 16 0 0 1-4.672-11.264V592c0-4.416 3.584-8 8-8h40z m-181.76-234.816c3.264 0 6.208 2.304 7.552 5.568l0.64 2.624v48.128a8.064 8.064 0 0 1-5.568 7.808l-2.624 0.384H280.064a8.064 8.064 0 0 1-7.808-5.568l-0.384-2.624v-48.128c0-3.712 2.304-6.72 5.568-7.808l2.624-0.384h200.192z m215.552-138.752c3.712 0 6.72 2.304 7.808 5.568l0.384 2.624v48.128a8.064 8.064 0 0 1-5.568 7.808l-2.624 0.384H280.064a8.064 8.064 0 0 1-7.808-5.568l-0.384-2.624v-48.128c0-3.712 2.304-6.72 5.568-7.808l2.624-0.384h415.744z" p-id="3906"></path></svg>