<?xml version="1.0" standalone="no"?><!DOCTYPE svg PUBLIC "-//W3C//DTD SVG 1.1//EN" "http://www.w3.org/Graphics/SVG/1.1/DTD/svg11.dtd"><svg t="1679040795522" class="icon" viewBox="0 0 1024 1024" version="1.1" xmlns="http://www.w3.org/2000/svg" p-id="1328" xmlns:xlink="http://www.w3.org/1999/xlink" width="200" height="200"><path d="M696 528a216.064 216.064 0 1 0 0.128 432.128A216.064 216.064 0 0 0 696 528z m0 368a152.192 152.192 0 0 1-152-152 152.192 152.192 0 0 1 152-152 152.192 152.192 0 0 1 152 152 151.872 151.872 0 0 1-152 152zM807.936 80c17.728 0 32 14.08 32.256 31.744v360.064c0 4.48-3.456 8.064-7.936 8.192h-56.064a8.064 8.064 0 0 1-8.192-7.936V152.192H207.872v702.976l215.936-0.192c4.48 0 8.064 3.456 8.192 7.936v56.064c0 4.544-3.456 8.064-7.936 8.192h-0.256l-255.872 0.192a31.552 31.552 0 0 1-31.744-31.232V111.744c0-17.28 13.568-31.488 31.232-31.744h640.512z m-91.968 560c4.48 0 8.064 3.584 8.064 8v84.416l52.096 52.16a8 8 0 0 1 0.192 11.072l-0.192 0.192-28.288 28.288a8 8 0 0 1-11.264 0l-63.872-63.872a16 16 0 0 1-4.672-11.264V648c0-4.416 3.52-8 7.936-8h40.064zM480.32 365.184c4.032 0 7.552 3.456 8.128 7.936l0.064 0.256v48.128c0 4.48-3.456 8.064-7.936 8.192H280.064a8.064 8.064 0 0 1-8.192-7.936v-48.384c0-4.48 3.456-8.064 7.936-8.192h200.448z m215.552-138.752c4.48 0 8.064 3.456 8.192 7.936v48.384c0 4.48-3.456 8.064-7.936 8.192h-416a8.064 8.064 0 0 1-8.192-7.936v-48.384c0-4.48 3.456-8.064 7.936-8.192h416z" p-id="1329"></path></svg>