<?xml version="1.0" standalone="no"?><!DOCTYPE svg PUBLIC "-//W3C//DTD SVG 1.1//EN" "http://www.w3.org/Graphics/SVG/1.1/DTD/svg11.dtd"><svg t="1677582135463" class="icon" viewBox="0 0 1024 1024" version="1.1" xmlns="http://www.w3.org/2000/svg" p-id="922" xmlns:xlink="http://www.w3.org/1999/xlink" width="200" height="200"><path d="M854.592 288.64L639.424 73.344A32 32 0 0 0 616.768 64H192a32 32 0 0 0-32 32v832a32 32 0 0 0 32 32h640a32 32 0 0 0 32-32V311.296a32.256 32.256 0 0 0-9.408-22.72z m-64.384 37.376h-188.16v-188.16l188.16 188.16zM792 887.936H232V136.064h302.016V352c0 23.232 18.752 41.984 41.984 41.984h216v494.08V888zM504 617.984H320a8 8 0 0 0-8 8v48c0 4.416 3.584 8 8 8h184a8 8 0 0 0 8-8v-48a8 8 0 0 0-8-8z m-192-128v48c0 4.48 3.584 8 8 8h384c4.48 0 8-3.584 8-8v-48a8 8 0 0 0-8-8H320a8 8 0 0 0-8 8z" p-id="923"></path></svg>