<?xml version="1.0" standalone="no"?><!DOCTYPE svg PUBLIC "-//W3C//DTD SVG 1.1//EN" "http://www.w3.org/Graphics/SVG/1.1/DTD/svg11.dtd"><svg t="1672994630826" class="icon" viewBox="0 0 1024 1024" version="1.1" xmlns="http://www.w3.org/2000/svg" p-id="1735" xmlns:xlink="http://www.w3.org/1999/xlink" width="200" height="200"><path d="M803.456 486.528l125.824 125.824a22.208 22.208 0 0 1 0 31.424l-285.696 285.696a22.208 22.208 0 0 1-15.744 6.528H490.88a11.136 11.136 0 0 1-11.072-11.136v-136.96c0-5.824 2.368-11.52 6.528-15.68l285.696-285.696a22.208 22.208 0 0 1 31.424 0zM807.744 64c17.92 0 32.256 14.336 32.256 32.256V424.32a8.064 8.064 0 0 1-8.192 8.192h-55.808a8.064 8.064 0 0 1-8.192-8.192V136.192H207.68v702.976h215.68c4.672 0 8.256 3.584 8.256 8.192v55.808a8.064 8.064 0 0 1-8.192 8.192H167.68a31.552 31.552 0 0 1-31.744-31.744V95.744c0-17.408 13.824-31.744 31.744-31.744z m-19.968 497.28l-243.968 243.968v66.752H610.56l243.968-243.968-66.752-66.752zM479.808 352c4.096 0 7.68 3.584 8.192 8.128v47.744a8.064 8.064 0 0 1-8.192 8.128h-199.68a8.064 8.064 0 0 1-8.128-8.128v-47.744c0-4.544 3.584-8.128 8.192-8.128z m216-136c4.608 0 8.192 3.584 8.192 8.128v47.744a8.064 8.064 0 0 1-8.192 8.128H280.192a8.064 8.064 0 0 1-8.192-8.128v-47.744c0-4.544 3.584-8.128 8.192-8.128z" p-id="1736"></path></svg>