<?xml version="1.0" standalone="no"?><!DOCTYPE svg PUBLIC "-//W3C//DTD SVG 1.1//EN" "http://www.w3.org/Graphics/SVG/1.1/DTD/svg11.dtd"><svg t="1660104119722" class="icon" viewBox="0 0 1024 1024" version="1.1" xmlns="http://www.w3.org/2000/svg" p-id="961" xmlns:xlink="http://www.w3.org/1999/xlink" width="200" height="200"><defs><style type="text/css">@font-face { font-family: feedback-iconfont; src: url("//at.alicdn.com/t/font_1031158_u69w8yhxdu.woff2?t=1630033759944") format("woff2"), url("//at.alicdn.com/t/font_1031158_u69w8yhxdu.woff?t=1630033759944") format("woff"), url("//at.alicdn.com/t/font_1031158_u69w8yhxdu.ttf?t=1630033759944") format("truetype"); }
</style></defs><path d="M832 88a32 32 0 0 1 32 32v784a32 32 0 0 1-32 32H192a32 32 0 0 1-32-32V120a32 32 0 0 1 32-32h640z m-40 72.064h-560v704h560v-704zM704 624c4.352 0 7.872 3.456 8 7.744v48.256a8 8 0 0 1-7.744 8H320a8 8 0 0 1-8-7.744v-48.256c0-4.352 3.456-7.872 7.744-8H704z m0-144c4.352 0 7.872 3.456 8 7.744v48.256a8 8 0 0 1-7.744 8H320a8 8 0 0 1-8-7.744v-48.256c0-4.352 3.456-7.872 7.744-8H704z m0-144c4.352 0 7.872 3.456 8 7.744v48.256a8 8 0 0 1-7.744 8H320a8 8 0 0 1-8-7.744v-48.256c0-4.352 3.456-7.872 7.744-8H704z" p-id="962"></path></svg>