<?xml version="1.0" standalone="no"?><!DOCTYPE svg PUBLIC "-//W3C//DTD SVG 1.1//EN" "http://www.w3.org/Graphics/SVG/1.1/DTD/svg11.dtd"><svg t="1655107983109" class="icon" viewBox="0 0 1024 1024" version="1.1" xmlns="http://www.w3.org/2000/svg" p-id="60550" xmlns:xlink="http://www.w3.org/1999/xlink" width="200" height="200"><defs><style type="text/css">@font-face { font-family: feedback-iconfont; src: url("//at.alicdn.com/t/font_1031158_u69w8yhxdu.woff2?t=1630033759944") format("woff2"), url("//at.alicdn.com/t/font_1031158_u69w8yhxdu.woff?t=1630033759944") format("woff"), url("//at.alicdn.com/t/font_1031158_u69w8yhxdu.ttf?t=1630033759944") format("truetype"); }
</style></defs><path d="M696.021333 487.253333c6.229333 0 12.544 3.072 16.213334 9.130667l0.213333 0.384 247.04 427.52a19.029333 19.029333 0 0 1-16 28.501333h-494.506667a18.986667 18.986667 0 0 1-16.64-28.16l0.170667-0.426666 246.954667-427.52a18.688 18.688 0 0 1 16.469333-9.472h0.085333z m112-411.306666a32 32 0 0 1 32 32v352a7.978667 7.978667 0 0 1-8.021333 8.021333h-56.021333a8.021333 8.021333 0 0 1-7.978667-7.936V148.010667H208v704H352c4.437333 0 8.021333 3.669333 8.021333 8.106666v55.893334a8.021333 8.021333 0 0 1-8.021333 8.106666H167.978667a32 32 0 0 1-32-32V108.032a32 32 0 0 1 32-32l640-0.085333z m-112 520.277333l-169.045333 292.48h338.048l-169.045333-292.48z m0 211.754667a32 32 0 1 1 0 64 32 32 0 0 1 0-64z m17.962667-135.978667c3.2 0 5.888 1.92 6.016 4.266667v103.253333c0 2.432-2.56 4.352-5.76 4.48h-36.224c-3.2 0-5.888-1.92-6.016-4.266667v-103.253333c0-2.432 2.56-4.352 5.76-4.48h36.224z m-233.984-174.037333c4.437333 0 8.021333 3.669333 8.021333 8.021333v40.021333a7.978667 7.978667 0 0 1-8.021333 7.978667H295.978667a7.978667 7.978667 0 0 1-7.978667-8.021333v-39.978667c0-4.352 3.584-8.021333 8.021333-8.021333h183.978667z m200.021333-128c4.394667 0 7.978667 3.669333 7.978667 8.021333v40.021333a7.978667 7.978667 0 0 1-8.021333 7.978667h-384a8.021333 8.021333 0 0 1-7.978667-8.021333V378.026667c0-4.352 3.584-8.021333 8.021333-8.021334h384z m0-128c4.394667 0 7.978667 3.584 7.978667 8.021333v40.021333a7.978667 7.978667 0 0 1-8.021333 7.978667h-384a8.021333 8.021333 0 0 1-7.978667-8.021333V250.026667c0-4.352 3.584-8.021333 8.021333-8.021334h384z" p-id="60551"></path></svg>