<?xml version="1.0" standalone="no"?><!DOCTYPE svg PUBLIC "-//W3C//DTD SVG 1.1//EN" "http://www.w3.org/Graphics/SVG/1.1/DTD/svg11.dtd"><svg t="1658228656189" class="icon" viewBox="0 0 1024 1024" version="1.1" xmlns="http://www.w3.org/2000/svg" p-id="23147" xmlns:xlink="http://www.w3.org/1999/xlink" width="200" height="200"><defs><style type="text/css">@font-face { font-family: feedback-iconfont; src: url("//at.alicdn.com/t/font_1031158_u69w8yhxdu.woff2?t=1630033759944") format("woff2"), url("//at.alicdn.com/t/font_1031158_u69w8yhxdu.woff?t=1630033759944") format("woff"), url("//at.alicdn.com/t/font_1031158_u69w8yhxdu.ttf?t=1630033759944") format("truetype"); }
</style></defs><path d="M409.28 840h-201.6V136h560v344a8 8 0 0 0 8 8h56a8 8 0 0 0 8-8V96a32 32 0 0 0-32-32h-640a32 32 0 0 0-32 32v784a32 32 0 0 0 32 32h241.6a8 8 0 0 0 8-8v-56a8 8 0 0 0-8-8z" p-id="23148"></path><path d="M652.32 488c-130.34 0-236 105.66-236 236s105.68 236 236 236 236-105.66 236-236-105.66-236-236-236z m121.62 357.62A172 172 0 1 1 824.32 724a170.87 170.87 0 0 1-50.38 121.62z" p-id="23149"></path><path d="M271.68 210.67m8 0l416 0q8 0 8 8l0 48q0 8-8 8l-416 0q-8 0-8-8l0-48q0-8 8-8Z" p-id="23150"></path><path d="M271.68 349.33m8 0l200 0q8 0 8 8l0 48q0 8-8 8l-200 0q-8 0-8-8l0-48q0-8 8-8Z" p-id="23151"></path><path d="M624.32 616m8 0l40 0q8 0 8 8l0 116q0 8-8 8l-40 0q-8 0-8-8l0-116q0-8 8-8Z" p-id="23152"></path><path d="M652.32 804m-28 0a28 28 0 1 0 56 0 28 28 0 1 0-56 0Z" p-id="23153"></path></svg>