<?xml version="1.0" standalone="no"?><!DOCTYPE svg PUBLIC "-//W3C//DTD SVG 1.1//EN" "http://www.w3.org/Graphics/SVG/1.1/DTD/svg11.dtd"><svg t="1672995682281" class="icon" viewBox="0 0 1024 1024" version="1.1" xmlns="http://www.w3.org/2000/svg" p-id="2353" xmlns:xlink="http://www.w3.org/1999/xlink" width="200" height="200"><path d="M642.048 468.48a245.824 245.824 0 0 1 0 491.52 245.824 245.824 0 0 1 0-491.52zM807.936 64c17.728 0 32 14.08 32.256 31.744V440.32c0 4.48-3.456 8.064-7.936 8.192h-56.064A8.064 8.064 0 0 1 768 440.576V136.192H207.872v702.976H409.6c4.48 0 8.064 3.456 8.192 7.936v56.064c0 4.48-3.456 8.064-7.936 8.192h-241.92a31.552 31.552 0 0 1-31.744-31.232V95.744c0-17.28 13.568-31.488 31.232-31.744h640.512z m-165.888 471.04a179.392 179.392 0 0 0-179.2 179.2c0 98.816 80.384 179.2 179.2 179.2 99.328 0 179.2-80.384 179.2-179.2 0-98.816-80.384-179.2-179.2-179.2z m117.12 88.96a8 8 0 0 1 6.272 12.864l-146.56 191.488a16 16 0 0 1-25.6-0.256L512 716.736A8 8 0 0 1 518.592 704h45.44a16 16 0 0 1 12.928 6.592l30.08 41.216 92.992-121.536a16 16 0 0 1 12.736-6.272h46.4zM480.192 349.184c4.032 0 7.552 3.456 8.128 7.936l0.064 0.256v48.128c0 4.48-3.456 8.064-7.936 8.192H280.064a8.064 8.064 0 0 1-8.192-7.936v-48.384c0-4.48 3.456-8.064 7.936-8.192h200.448z m215.552-138.752c4.48 0 8.064 3.456 8.192 7.936v48.384c0 4.48-3.456 8.064-7.936 8.192h-416a8.064 8.064 0 0 1-8.192-7.936v-48.384c0-4.48 3.456-8.064 7.936-8.192h416z" p-id="2354"></path></svg>