<?xml version="1.0" standalone="no"?><!DOCTYPE svg PUBLIC "-//W3C//DTD SVG 1.1//EN" "http://www.w3.org/Graphics/SVG/1.1/DTD/svg11.dtd"><svg t="1677581408630" class="icon" viewBox="0 0 1024 1024" version="1.1" xmlns="http://www.w3.org/2000/svg" p-id="1672" xmlns:xlink="http://www.w3.org/1999/xlink" width="200" height="200"><path d="M616.768 64c8.32 0 16.32 3.264 22.272 9.024l0.384 0.384 215.168 215.168A32.192 32.192 0 0 1 864 310.784V928a32 32 0 0 1-31.488 32H192a32 32 0 0 1-32-31.488V96a32 32 0 0 1 31.488-32h425.28z m-82.688 72H232v752h560V393.984H576a41.984 41.984 0 0 1-41.984-41.28V136zM377.92 522.944c4.416 0 8 3.584 8 8v114.432c0 8.512-0.768 16.704-2.24 24.704a55.296 55.296 0 0 1-8.448 21.184 43.968 43.968 0 0 1-17.792 14.848c-7.68 3.712-17.792 5.568-30.272 5.568a63.488 63.488 0 0 1-36.928-10.368 44.544 44.544 0 0 1-17.024-23.488l-0.32-0.896a8 8 0 0 1 5.76-10.112l22.08-5.376a8 8 0 0 1 9.088 4.16l0.128 0.256a12.608 12.608 0 0 0 1.344 2.368 18.894 18.894 0 0 0 2.688 2.88 17.856 17.856 0 0 0 12.16 4.672c4.672 0 8.32-1.152 10.88-3.456a20.672 20.672 0 0 0 5.76-8.768 42.24 42.24 0 0 0 2.176-11.264c0.256-4.096 0.384-7.872 0.384-11.328V530.88c0-4.352 3.584-7.936 8-7.936h24.576z m296.064-4.672c14.72 0 28.288 1.728 40.704 5.312a80.192 80.192 0 0 1 23.744 11.2l0.64 0.512 0.768 0.512 0.768 0.576a8 8 0 0 1 1.152 11.52l-17.728 19.392a8 8 0 0 1-11.008 0.704l-0.768-0.64a51.904 51.904 0 0 0-1.28-1.024l-0.64-0.448a54.976 54.976 0 0 0-10.368-5.76 66.688 66.688 0 0 0-25.984-4.48 60.224 60.224 0 0 0-23.552 4.48 52.8 52.8 0 0 0-29.632 31.168 67.84 67.84 0 0 0-4.032 23.68c0 8.64 1.344 16.64 4.032 23.744a52.8 52.8 0 0 0 29.632 31.04c7.04 3.008 14.912 4.48 23.552 4.48a77.504 77.504 0 0 0 24.32-3.456l1.28-0.448c5.12-1.664 9.344-3.456 12.608-5.184v-29.888h-24.96a8 8 0 0 1-8.064-8v-21.44c0-4.48 3.584-8 8-8h56.064c4.416 0 8 3.584 8 8v77.44a16 16 0 0 1-9.28 15.04l-3.2 1.472-0.32 0.128c-8 3.264-16.256 5.76-24.64 7.616a190.08 190.08 0 0 1-39.808 4.16c-14.4 0-27.648-2.24-39.808-6.784a87.808 87.808 0 0 1-52.16-49.92 103.936 103.936 0 0 1-7.36-40c0-14.72 2.496-28.096 7.424-40.064a87.808 87.808 0 0 1 52.096-49.92c12.16-4.48 25.408-6.72 39.808-6.72z m-184.832 4.672c9.536 0 18.56 0.832 27.008 2.56a61.44 61.44 0 0 1 22.208 8.96 45.376 45.376 0 0 1 15.104 17.216 58.752 58.752 0 0 1 5.568 27.136 62.72 62.72 0 0 1-5.12 27.072 44.352 44.352 0 0 1-14.336 17.408 57.984 57.984 0 0 1-21.632 9.216c-8.32 1.792-17.28 2.752-27.008 2.752h-29.632v63.744a8 8 0 0 1-8 8h-24.576a8 8 0 0 1-8-8V530.944c0-4.48 3.584-8 8-8h60.416z m-7.04 34.304h-20.8v43.648h27.008a52.288 52.288 0 0 0 10.56-1.024c3.392-0.64 6.4-1.856 9.088-3.52a18.752 18.752 0 0 0 6.528-6.72 21.376 21.376 0 0 0 2.432-10.816 18.24 18.24 0 0 0-3.2-11.328 21.632 21.632 0 0 0-8.32-6.592 35.584 35.584 0 0 0-11.328-3.008 115.584 115.584 0 0 0-11.968-0.64z m119.936-419.456v188.16h188.16l-188.16-188.16z" p-id="1673"></path></svg>