<?xml version="1.0" encoding="UTF-8"?>
<svg width="1024px" height="1024px" viewBox="0 0 1024 1024" version="1.1" xmlns="http://www.w3.org/2000/svg" xmlns:xlink="http://www.w3.org/1999/xlink">
    <title>测温终端</title>
    <g id="页面1" stroke="none" stroke-width="1" fill="none" fill-rule="evenodd">
        <g id="测温终端" fill="#000000" fill-rule="nonzero">
            <path d="M800,440 C855.228475,440 900,484.771525 900,540 L900.002427,675.094526 C936.579535,704.416994 960,749.473426 960,800 C960,888.36556 888.36556,960 800,960 C711.63444,960 640,888.36556 640,800 C640,749.472967 663.42089,704.416176 699.998569,675.093728 L700,540 C700,484.771525 744.771525,440 800,440 Z M800,496 C775.942476,496 756.39445,515.307452 756.005895,539.272955 L756,540.000593 L755.998285,701.974333 L735.025399,718.787219 C710.490728,738.455406 696,767.979555 696,800 C696,857.437614 742.562386,904 800,904 C857.437614,904 904,857.437614 904,800 C904,768.300047 889.7979,739.046668 865.708261,719.380735 L864.97525,718.787739 L844.002909,701.975017 L844,540 C844,515.699471 824.300529,496 800,496 Z M808,88 C825.673112,88 840,102.326888 840,120 L840,392 L768,392 L768,160 L208,160 L208,840 L596,840 L596,912 L168,912 C150.326888,912 136,897.673112 136,880 L136,120 C136,102.326888 150.326888,88 168,88 L808,88 Z M815,576 C815.552285,576 816,576.447715 816,577 L816.001212,738.016592 C843.604233,745.121698 864,770.179006 864,800 C864,835.346224 835.346224,864 800,864 C764.653776,864 736,835.346224 736,800 C736,770.178646 756.396259,745.121094 783.999786,738.016335 L784,577 C784,576.447715 784.447715,576 785,576 L815,576 Z M448,476 L448,532 L272,532 L272,476 L448,476 Z M704,360 L704,416 L272,416 L272,360 L704,360 Z M704,244 L704,300 L272,300 L272,244 L704,244 Z" id="形状"></path>
        </g>
    </g>
</svg>