<?xml version="1.0" standalone="no"?><!DOCTYPE svg PUBLIC "-//W3C//DTD SVG 1.1//EN" "http://www.w3.org/Graphics/SVG/1.1/DTD/svg11.dtd"><svg t="1676541955959" class="icon" viewBox="0 0 1024 1024" version="1.1" xmlns="http://www.w3.org/2000/svg" p-id="971" xmlns:xlink="http://www.w3.org/1999/xlink" width="200" height="200"><path d="M807.04 64a32 32 0 0 1 32 32v334.464a8 8 0 0 1-8.064 8h-56a8 8 0 0 1-8-8V136h-560v704h145.728c4.352 0 8 3.584 8 8v56a8 8 0 0 1-8 8H166.976a32 32 0 0 1-32-32V96a32 32 0 0 1 32-32z m-150.4 649.6c79.104 0 154.112 16.896 225.088 50.56a39.68 39.68 0 0 1 22.656 35.328v107.328a4.928 4.928 0 0 1-4.8 4.992H413.952a4.928 4.928 0 0 1-4.928-4.8V800a39.68 39.68 0 0 1 22.592-35.84 518.4 518.4 0 0 1 222.72-50.56h2.368z m2.112 64h-2.304a454.4 454.4 0 0 0-182.4 37.568l-1.024 0.448v32.192h367.36v-32.192l-1.088-0.448a453.952 453.952 0 0 0-180.48-37.504z m-3.52-316.608a106.496 106.496 0 1 1 0 212.992 106.496 106.496 0 0 1 0-212.992z m0 64a42.496 42.496 0 1 0 0 84.992 42.496 42.496 0 0 0 0-84.992zM478.976 382.08c4.48 0 8 3.584 8 8v48a8 8 0 0 1-8 8H295.04a8 8 0 0 1-8-8v-48c0-4.416 3.648-8 8-8z m200-144c4.48 0 8 3.584 8 8v48a8 8 0 0 1-8 8h-384a8 8 0 0 1-8-8v-48c0-4.416 3.648-8 8-8z" p-id="972"></path></svg>