<?xml version="1.0" standalone="no"?><!DOCTYPE svg PUBLIC "-//W3C//DTD SVG 1.1//EN" "http://www.w3.org/Graphics/SVG/1.1/DTD/svg11.dtd"><svg t="1719473748804" class="icon" viewBox="0 0 1024 1024" version="1.1" xmlns="http://www.w3.org/2000/svg" p-id="1265" xmlns:xlink="http://www.w3.org/1999/xlink" width="200" height="200"><path d="M696 528c119.25 0 216 96.75 216 216s-96.75 216-216 216-216-96.75-216-216 96.75-216 216-216zM807.936 80c17.74 0 31.969 14.05 32.256 31.72v360.088c0 4.523-3.452 8.059-7.937 8.188L832 480h-55.808c-4.523 0-8.059-3.452-8.188-7.937l-0.004-0.255V152.192H207.872v702.976L423.808 855c4.523 0 8.059 3.452 8.188 7.937l0.004 0.255V919c0 4.523-3.452 8.059-7.937 8.188l-0.255 0.004-255.872 0.168c-17.234 0-31.457-13.549-31.744-31.208V111.744c0-17.234 13.549-31.457 31.208-31.744h640.536zM696 592c-83.817 0-152 68.183-152 152s68.183 152 152 152c84.251 0 152-68.183 152-152s-68.183-152-152-152z m4.855 54.823a8 8 0 0 1 1.503 1.503l67.825 88.819A8 8 0 0 1 763.825 750L724 749.999v78.56c0 4.11-3.582 7.441-8 7.441h-40c-4.418 0-8-3.332-8-7.442V750l-39.825 0.001a8 8 0 0 1-6.358-12.855l67.825-88.819a8 8 0 0 1 11.213-1.503zM480.256 365.184c4.016 0 7.54 3.445 8.158 7.922l0.034 0.27v48.128c0 4.523-3.452 8.059-7.937 8.188l-0.255 0.004H280.064c-4.523 0-8.059-3.452-8.188-7.937l-0.004-0.255v-48.128c0-4.523 3.452-8.059 7.937-8.188l0.255-0.004h200.192z m215.552-138.752c4.523 0 8.059 3.452 8.192 7.937v48.383c0 4.523-3.452 8.059-7.937 8.188l-0.255 0.004H280.064c-4.523 0-8.059-3.452-8.192-7.937v-48.383c0-4.523 3.452-8.059 7.937-8.188l0.255-0.004h415.744z" p-id="1266"></path></svg>