<?xml version="1.0" standalone="no"?><!DOCTYPE svg PUBLIC "-//W3C//DTD SVG 1.1//EN" "http://www.w3.org/Graphics/SVG/1.1/DTD/svg11.dtd"><svg t="1655895000917" class="icon" viewBox="0 0 1024 1024" version="1.1" xmlns="http://www.w3.org/2000/svg" p-id="22966" xmlns:xlink="http://www.w3.org/1999/xlink" width="200" height="200"><defs><style type="text/css">@font-face { font-family: feedback-iconfont; src: url("//at.alicdn.com/t/font_1031158_u69w8yhxdu.woff2?t=1630033759944") format("woff2"), url("//at.alicdn.com/t/font_1031158_u69w8yhxdu.woff?t=1630033759944") format("woff"), url("//at.alicdn.com/t/font_1031158_u69w8yhxdu.ttf?t=1630033759944") format("truetype"); }
</style></defs><path d="M832 64h-640a32 32 0 0 0-32 32v832c0 17.706667 14.293333 32 32 32h640a32 32 0 0 0 32-32V96a32 32 0 0 0-32-32z m-40.021333 824.021333H232.021333v-201.002666h97.92c11.605333 32.768 32 62.293333 59.093334 84.693333a193.109333 193.109333 0 0 0 305.066666-84.693333h97.962667v-63.018667h-148.437333l-5.162667 24.704A129.237333 129.237333 0 0 1 512 752a129.408 129.408 0 0 1-126.506667-103.296l-5.205333-24.704H231.978667V135.978667h560v752zM320 340.992h384a8.021333 8.021333 0 0 0 8.021333-8.021333V285.013333a8.021333 8.021333 0 0 0-8.021333-8.021333h-384a8.021333 8.021333 0 0 0-8.021333 8.021333v48c0 4.394667 3.626667 7.978667 8.021333 7.978667z m0 160h384a8.021333 8.021333 0 0 0 8.021333-8.021333V445.013333a8.021333 8.021333 0 0 0-8.021333-8.021333h-384a8.021333 8.021333 0 0 0-8.021333 8.021333v48c0 4.394667 3.626667 7.978667 8.021333 7.978667z" p-id="22967"></path></svg>