<?xml version="1.0" standalone="no"?><!DOCTYPE svg PUBLIC "-//W3C//DTD SVG 1.1//EN" "http://www.w3.org/Graphics/SVG/1.1/DTD/svg11.dtd"><svg t="1648989673615" class="icon" viewBox="0 0 1024 1024" version="1.1" xmlns="http://www.w3.org/2000/svg" p-id="23298" xmlns:xlink="http://www.w3.org/1999/xlink" width="200" height="200"><defs><style type="text/css">@font-face { font-family: feedback-iconfont; src: url("//at.alicdn.com/t/font_1031158_u69w8yhxdu.woff2?t=1630033759944") format("woff2"), url("//at.alicdn.com/t/font_1031158_u69w8yhxdu.woff?t=1630033759944") format("woff"), url("//at.alicdn.com/t/font_1031158_u69w8yhxdu.ttf?t=1630033759944") format("truetype"); }
</style></defs><path d="M807.936 64h-640c-17.92 0-31.744 14.336-31.744 31.744v783.872c0 17.92 14.336 31.744 31.744 31.744H409.6c4.608 0 8.192-3.584 8.192-8.192v-55.808c0-4.608-3.584-8.192-8.192-8.192H207.872V136.192H768V440.32c0 4.608 3.584 8.192 8.192 8.192h55.808c4.608 0 8.192-3.584 8.192-8.192V96.256c0-17.92-14.336-32.256-32.256-32.256z" p-id="23299"></path><path d="M695.808 210.432H280.064c-4.608 0-8.192 3.584-8.192 8.192v48.128c0 4.608 3.584 8.192 8.192 8.192h415.744c4.608 0 8.192-3.584 8.192-8.192v-48.128c0-4.608-3.584-8.192-8.192-8.192zM480.256 349.184H280.064c-4.608 0-8.192 3.584-8.192 8.192v48.128c0 4.608 3.584 8.192 8.192 8.192h200.192c4.608 0 8.192-3.584 8.192-8.192v-48.128c-0.512-4.608-4.096-8.192-8.192-8.192z m87.552 138.752H283.136c-6.144 0-11.264 3.584-11.264 8.192v48.128c0 4.608 5.12 8.192 11.264 8.192h284.672c6.144 0 11.264-3.584 11.264-8.192v-48.128c0-4.608-5.12-8.192-11.264-8.192zM787.968 563.712l89.6 89.6-221.184 221.184-102.4 12.8 12.8-102.4 221.184-221.184m0-75.776c-7.168 0-13.824 2.56-18.944 7.68l-253.952 253.952c-4.096 4.096-6.656 9.728-7.68 15.36l-19.456 158.72c-1.536 14.336 8.704 27.648 23.04 29.696h6.144l158.72-19.456c5.632-0.512 11.264-3.584 15.36-7.68l254.464-254.464c10.24-10.24 10.24-27.136 0-37.376l-139.264-139.264c-4.608-4.096-11.264-7.168-18.432-7.168z" p-id="23300"></path></svg>