<?xml version="1.0" standalone="no"?><!DOCTYPE svg PUBLIC "-//W3C//DTD SVG 1.1//EN" "http://www.w3.org/Graphics/SVG/1.1/DTD/svg11.dtd"><svg t="1679040816959" class="icon" viewBox="0 0 1024 1024" version="1.1" xmlns="http://www.w3.org/2000/svg" p-id="2260" xmlns:xlink="http://www.w3.org/1999/xlink" width="200" height="200"><path d="M655.232 536a190.72 190.72 0 0 1 155.584 301.056l74.88 74.88a8 8 0 0 1 0 11.264l-33.92 33.92a8 8 0 0 1-11.392 0l-74.816-74.816A190.72 190.72 0 1 1 655.232 536zM808 80a32 32 0 0 1 32 32v363.008a8 8 0 0 1-8 8h-56a8 8 0 0 1-8-8V152H208v704h250.624c4.416 0 8 3.584 8 8v56a8 8 0 0 1-8 8H168a32 32 0 0 1-32-32V112a32 32 0 0 1 32-32zM680 602.432a126.72 126.72 0 1 0-49.472 248.576A126.72 126.72 0 0 0 680 602.432z m-200-237.12c4.416 0 8 3.584 8 8v48a8 8 0 0 1-8 8H280a8 8 0 0 1-8-8v-48c0-4.416 3.584-8 8-8z m216-138.624c4.416 0 8 3.584 8 8v48a8 8 0 0 1-8 8H280a8 8 0 0 1-8-8v-48c0-4.48 3.584-8 8-8z" p-id="2261"></path></svg>