<?xml version="1.0" standalone="no"?><!DOCTYPE svg PUBLIC "-//W3C//DTD SVG 1.1//EN" "http://www.w3.org/Graphics/SVG/1.1/DTD/svg11.dtd"><svg t="1648989669320" class="icon" viewBox="0 0 1024 1024" version="1.1" xmlns="http://www.w3.org/2000/svg" p-id="23166" xmlns:xlink="http://www.w3.org/1999/xlink" width="200" height="200"><defs><style type="text/css">@font-face { font-family: feedback-iconfont; src: url("//at.alicdn.com/t/font_1031158_u69w8yhxdu.woff2?t=1630033759944") format("woff2"), url("//at.alicdn.com/t/font_1031158_u69w8yhxdu.woff?t=1630033759944") format("woff"), url("//at.alicdn.com/t/font_1031158_u69w8yhxdu.ttf?t=1630033759944") format("truetype"); }
</style></defs><path d="M807.936 64h-640c-17.92 0-31.744 14.336-31.744 31.744v783.872c0 17.92 14.336 31.744 31.744 31.744H409.6c4.608 0 8.192-3.584 8.192-8.192v-55.808c0-4.608-3.584-8.192-8.192-8.192H207.872V136.192H768V440.32c0 4.608 3.584 8.192 8.192 8.192h55.808c4.608 0 8.192-3.584 8.192-8.192V96.256c0-17.92-14.336-32.256-32.256-32.256z" p-id="23167"></path><path d="M695.808 210.432H280.064c-4.608 0-8.192 3.584-8.192 8.192v48.128c0 4.608 3.584 8.192 8.192 8.192h415.744c4.608 0 8.192-3.584 8.192-8.192v-48.128c0-4.608-3.584-8.192-8.192-8.192zM480.256 349.184H280.064c-4.608 0-8.192 3.584-8.192 8.192v48.128c0 4.608 3.584 8.192 8.192 8.192h200.192c4.608 0 8.192-3.584 8.192-8.192v-48.128c-0.512-4.608-4.096-8.192-8.192-8.192zM642.048 468.48c-135.68 0-245.76 110.08-245.76 245.76s110.08 245.76 245.76 245.76 245.76-110.08 245.76-245.76-110.08-245.76-245.76-245.76z m0 424.96c-98.816 0-179.2-80.384-179.2-179.2s80.384-179.2 179.2-179.2 179.2 80.384 179.2 179.2-79.872 179.2-179.2 179.2z" p-id="23168"></path><path d="M656.384 586.24c2.56 0 5.12 2.048 5.12 4.608v122.368l86.528 86.528c2.048 2.048 2.048 5.12 0 6.656l-24.064 24.064c-2.048 2.048-5.12 2.048-6.656 0l-93.696-93.696c-3.584-3.584-5.632-8.704-5.632-13.824v-132.096c0-2.56 2.048-4.608 4.608-4.608h33.792z" p-id="23169"></path></svg>