<?xml version="1.0" standalone="no"?><!DOCTYPE svg PUBLIC "-//W3C//DTD SVG 1.1//EN" "http://www.w3.org/Graphics/SVG/1.1/DTD/svg11.dtd"><svg t="1677581402886" class="icon" viewBox="0 0 1024 1024" version="1.1" xmlns="http://www.w3.org/2000/svg" p-id="1516" xmlns:xlink="http://www.w3.org/1999/xlink" width="200" height="200"><path d="M616.768 64c8.32 0 16.32 3.264 22.272 9.024l0.384 0.384 215.168 215.168A32.192 32.192 0 0 1 864 310.784V928a32 32 0 0 1-31.488 32H192a32 32 0 0 1-32-31.488V96a32 32 0 0 1 31.488-32h425.28z m-82.688 72H232v752h560V393.984H576a41.984 41.984 0 0 1-41.984-41.28V136zM346.816 548.416c4.416 0 8 3.584 8 8v86.208c0 6.528-0.64 12.8-1.728 18.944a42.56 42.56 0 0 1-6.464 16.32 33.792 33.792 0 0 1-13.696 11.392 53.824 53.824 0 0 1-23.296 4.352 48.832 48.832 0 0 1-28.416-8 34.368 34.368 0 0 1-12.544-16.448l-0.256-0.64a7.424 7.424 0 0 1 5.184-9.792l14.272-3.456a8 8 0 0 1 8.704 3.584l0.128 0.192a14.72 14.72 0 0 0 12.16 6.912 12.16 12.16 0 0 0 8.32-2.688 15.936 15.936 0 0 0 4.416-6.72 32.512 32.512 0 0 0 1.728-8.704c0.192-3.136 0.256-6.016 0.256-8.64v-82.816c0-4.48 3.584-8 8-8h15.232z m343.616-3.648c11.328 0 21.76 1.408 31.296 4.16a62.08 62.08 0 0 1 18.048 8.512 8 8 0 0 1 1.216 11.904l-10.88 11.904a8 8 0 0 1-10.624 1.024l-0.64-0.512a51.328 51.328 0 0 0-28.416-8.192 46.336 46.336 0 0 0-18.112 3.456 40.64 40.64 0 0 0-22.848 24A52.16 52.16 0 0 0 646.4 619.2c0 6.656 1.024 12.8 3.072 18.304a40.64 40.64 0 0 0 22.784 23.872 46.336 46.336 0 0 0 18.176 3.392 59.648 59.648 0 0 0 17.536-2.24l1.28-0.448a62.848 62.848 0 0 0 10.56-4.288v-23.04H702.4a8 8 0 0 1-8-7.936v-12.8c0-4.48 3.584-8 8-8h39.424c4.416 0 8 3.584 8 8v56a15.68 15.68 0 0 1-9.088 14.208l-0.448 0.192-0.256 0.128a106.675 106.675 0 0 1-19.008 5.824c-10.048 2.176-20.224 3.2-30.656 3.2-11.008 0-21.248-1.728-30.592-5.12a67.52 67.52 0 0 1-40.128-38.4 80 80 0 0 1-5.632-30.848c0-11.328 1.92-21.632 5.696-30.784a67.52 67.52 0 0 1 40.064-38.4c9.344-3.456 19.584-5.248 30.656-5.248z m-260.224 3.648c7.296 0 14.272 0.64 20.8 1.984a47.36 47.36 0 0 1 17.088 6.912c4.864 3.2 8.768 7.68 11.584 13.184a45.184 45.184 0 0 1 4.288 20.928c0 8.256-1.28 15.168-3.968 20.8a34.112 34.112 0 0 1-11.008 13.376 44.608 44.608 0 0 1-16.64 7.04 97.28 97.28 0 0 1-20.736 2.176h-22.784v47.168a8 8 0 0 1-8 8H385.6a8 8 0 0 1-8-8V556.416c0-4.48 3.584-8 8-8h44.608z m158.784 0c4.48 0 8 3.584 8 8v12.8a8 8 0 0 1-8 8h-56.96v26.368h53.376c4.416 0 8 3.584 8 8v12.8a8 8 0 0 1-8 8h-53.44v28.8h60.608c4.48 0 8 3.584 8 8v12.8a8 8 0 0 1-8 8H508.8a8 8 0 0 1-8-8V556.416c0-4.48 3.584-8 8-8h80.192z m-164.16 26.368h-16v33.6h20.8a40.192 40.192 0 0 0 8.064-0.768 21.568 21.568 0 0 0 7.04-2.688 14.4 14.4 0 0 0 4.992-5.248 16.448 16.448 0 0 0 1.92-8.32 14.08 14.08 0 0 0-2.56-8.64 16.64 16.64 0 0 0-6.4-5.12 27.392 27.392 0 0 0-8.704-2.304 88.896 88.896 0 0 0-9.152-0.512z m177.152-436.992v188.16h188.16l-188.16-188.16z" p-id="1517"></path></svg>