<?xml version="1.0" standalone="no"?><!DOCTYPE svg PUBLIC "-//W3C//DTD SVG 1.1//EN" "http://www.w3.org/Graphics/SVG/1.1/DTD/svg11.dtd"><svg t="1648989537600" class="icon" viewBox="0 0 1024 1024" version="1.1" xmlns="http://www.w3.org/2000/svg" p-id="22903" xmlns:xlink="http://www.w3.org/1999/xlink" width="200" height="200"><defs><style type="text/css">@font-face { font-family: feedback-iconfont; src: url("//at.alicdn.com/t/font_1031158_u69w8yhxdu.woff2?t=1630033759944") format("woff2"), url("//at.alicdn.com/t/font_1031158_u69w8yhxdu.woff?t=1630033759944") format("woff"), url("//at.alicdn.com/t/font_1031158_u69w8yhxdu.ttf?t=1630033759944") format("truetype"); }
</style></defs><path d="M808 64H168a32 32 0 0 0-32 32v784a32 32 0 0 0 32 32h241.6a8 8 0 0 0 8-8v-56a8 8 0 0 0-8-8H208V136h560v304a8 8 0 0 0 8 8h56a8 8 0 0 0 8-8V96a32 32 0 0 0-32-32z" p-id="22904"></path><path d="M696 210.67H280a8 8 0 0 0-8 8v48a8 8 0 0 0 8 8h416a8 8 0 0 0 8-8v-48a8 8 0 0 0-8-8zM480 349.33H280a8 8 0 0 0-8 8v48a8 8 0 0 0 8 8h200a8 8 0 0 0 8-8v-48a8 8 0 0 0-8-8zM684.8 540.5a66.08 66.08 0 0 1 66 66 65.32 65.32 0 0 1-14.12 40.81 66.31 66.31 0 0 1-35.59 23.17l-16.29 4.13-16.29-4.13a66.31 66.31 0 0 1-35.59-23.17 65.32 65.32 0 0 1-14.12-40.81 66.08 66.08 0 0 1 66-66M824 832v64H545.6v-64H824M684.8 476.5a130 130 0 0 0-32 256V768H497.6a16 16 0 0 0-16 16v160a16 16 0 0 0 16 16H872a16 16 0 0 0 16-16V784a16 16 0 0 0-16-16H716.8v-35.47a130 130 0 0 0-32-256z" p-id="22905"></path></svg>