<?xml version="1.0" standalone="no"?><!DOCTYPE svg PUBLIC "-//W3C//DTD SVG 1.1//EN" "http://www.w3.org/Graphics/SVG/1.1/DTD/svg11.dtd"><svg t="1677581414312" class="icon" viewBox="0 0 1024 1024" version="1.1" xmlns="http://www.w3.org/2000/svg" p-id="1828" xmlns:xlink="http://www.w3.org/1999/xlink" width="200" height="200"><path d="M616.768 64c8.32 0 16.32 3.264 22.272 9.024l0.384 0.384 215.168 215.168A32.192 32.192 0 0 1 864 310.784V928a32 32 0 0 1-31.488 32H192a32 32 0 0 1-32-31.488V96a32 32 0 0 1 31.488-32h425.28z m-82.688 72H232v752h560V393.984H576a41.984 41.984 0 0 1-41.984-41.28V136z m154.624 389.76c13.632 0 26.112 1.664 37.568 4.928 8.576 2.432 16.448 6.272 23.424 11.392l0.768 0.576a7.04 7.04 0 0 1 0.96 10.368l-15.808 17.28a8 8 0 0 1-10.88 1.28l-0.32-0.192a51.136 51.136 0 0 0-11.712-7.04 61.568 61.568 0 0 0-24-4.032 55.616 55.616 0 0 0-21.76 4.096 48.768 48.768 0 0 0-27.328 28.8 62.592 62.592 0 0 0-3.712 21.824c0 8 1.28 15.36 3.712 21.952a48.768 48.768 0 0 0 27.392 28.672 55.616 55.616 0 0 0 21.696 4.096 71.552 71.552 0 0 0 25.152-4.096l1.28-0.448c3.52-1.28 6.4-2.56 8.832-3.84v-27.584h-22.464a8 8 0 0 1-8-8.064v-18.56c0-4.416 3.584-7.936 8-7.936H752c4.416 0 8 3.52 8 8v72.896a12.608 12.608 0 0 1-7.168 11.328l-0.256 0.128a134.784 134.784 0 0 1-27.136 8.896c-12.032 2.56-24.256 3.84-36.736 3.84-13.248 0-25.536-2.112-36.736-6.272a81.088 81.088 0 0 1-48.128-46.08 96 96 0 0 1-6.784-36.928 96 96 0 0 1 6.784-36.928 81.088 81.088 0 0 1 48.128-46.08c11.2-4.224 23.488-6.272 36.736-6.272z m-352.256 4.352c8.832 0 17.152 0.768 24.96 2.368 7.872 1.6 14.72 4.352 20.48 8.32a41.856 41.856 0 0 1 13.952 15.808c3.456 6.656 5.184 14.976 5.184 25.088a57.856 57.856 0 0 1-4.8 24.96 40.96 40.96 0 0 1-13.184 16.064 53.504 53.504 0 0 1-19.904 8.512c-7.68 1.664-16 2.56-24.96 2.56h-27.392v58.24a8 8 0 0 1-8 7.936h-21.44a8 8 0 0 1-8-7.936v-153.92c0-4.48 3.584-8 8-8h55.104z m123.008 0a16 16 0 0 1 13.632 7.616l67.584 110.464h0.448v-110.08c0-4.48 3.584-8 8-8h21.44c4.48 0 8 3.52 8 8v153.92a8 8 0 0 1-8 7.936h-32a16 16 0 0 1-13.632-7.616l-69.44-113.28h-0.512v112.896a8 8 0 0 1-8 8.064h-21.44a8 8 0 0 1-8-8.064V538.176c0-4.48 3.584-8 8-8h33.92z m-129.472 31.68h-19.2v40.32h24.96a48.256 48.256 0 0 0 9.728-0.96 25.856 25.856 0 0 0 8.384-3.264 17.28 17.28 0 0 0 6.016-6.272 19.712 19.712 0 0 0 2.24-9.92 16.832 16.832 0 0 0-2.944-10.432 19.968 19.968 0 0 0-7.68-6.144 32.896 32.896 0 0 0-10.432-2.752 106.688 106.688 0 0 0-11.072-0.64z m272.064-424v188.16h188.16l-188.16-188.16z" p-id="1829"></path></svg>