<?xml version="1.0" standalone="no"?><!DOCTYPE svg PUBLIC "-//W3C//DTD SVG 1.1//EN" "http://www.w3.org/Graphics/SVG/1.1/DTD/svg11.dtd"><svg t="1649143282268" class="icon" viewBox="0 0 1024 1024" version="1.1" xmlns="http://www.w3.org/2000/svg" p-id="15620" xmlns:xlink="http://www.w3.org/1999/xlink" width="200" height="200"><defs><style type="text/css">@font-face { font-family: feedback-iconfont; src: url("//at.alicdn.com/t/font_1031158_u69w8yhxdu.woff2?t=1630033759944") format("woff2"), url("//at.alicdn.com/t/font_1031158_u69w8yhxdu.woff?t=1630033759944") format("woff"), url("//at.alicdn.com/t/font_1031158_u69w8yhxdu.ttf?t=1630033759944") format("truetype"); }
</style></defs><path d="M608 141.12V320h178.88L608 141.12zM800 384H576c-17.673 0-32-14.327-32-32V128H224v768h576V384z m64-63.218V896c0 35.346-28.654 64-64 64H224c-35.346 0-64-28.654-64-64V128c0-35.346 28.654-64 64-64h383.218a32 32 0 0 1 22.628 9.373l224.781 224.781A32 32 0 0 1 864 320.782zM412.686 568l85.657-85.657A8 8 0 0 1 512 488v304.003a8 8 0 0 1-13.657 5.657L412.683 712H328a8 8 0 0 1-8-8V576a8 8 0 0 1 8-8h84.686z m164.855 145.491c-9.373 9.373-24.569 9.373-33.942 0-9.372-9.372-9.372-24.568 0-33.94 21.87-21.87 21.87-57.327 0-79.197-9.372-9.372-9.372-24.568 0-33.94 9.373-9.373 24.569-9.373 33.942 0 40.614 40.614 40.614 106.463 0 147.077z m67.88 67.883c-9.373 9.372-24.569 9.372-33.942 0-9.372-9.373-9.372-24.569 0-33.941 59.36-59.36 59.36-155.601 0-214.96-9.372-9.374-9.372-24.57 0-33.942 9.373-9.373 24.569-9.373 33.942 0 78.104 78.105 78.104 204.738 0 282.843z" p-id="15621"></path></svg>