<?xml version="1.0" standalone="no"?><!DOCTYPE svg PUBLIC "-//W3C//DTD SVG 1.1//EN" "http://www.w3.org/Graphics/SVG/1.1/DTD/svg11.dtd"><svg t="1678011316184" class="icon" viewBox="0 0 1024 1024" version="1.1" xmlns="http://www.w3.org/2000/svg" p-id="3794" xmlns:xlink="http://www.w3.org/1999/xlink" width="200" height="200"><path d="M511.552 120H512a31.616 31.616 0 0 1 27.52 15.616L955.712 856a32 32 0 0 1-27.264 48H96a32 32 0 0 1-27.968-47.552l0.256-0.448 416-720a31.488 31.488 0 0 1 27.264-16zM512 240L172.16 828.096v0.064h679.68L512 240z m-20.864 214.4c1.152 0.192 2.24 0.64 3.2 1.28l2.88 2.176c35.904 26.688 61.44 56.128 76.48 88.32l1.856-2.688 1.92-2.816 2.304-3.392 2.432-3.584 1.6-2.304a7.04 7.04 0 0 1 11.456-0.32l0.32 0.448C616.192 559.808 632 595.328 632 647.488c0 41.408-32.64 79.424-72.512 97.28l-1.28 0.576-0.448 0.128-1.792 0.64a5.248 5.248 0 0 1-6.528-7.04l0.128-0.256a46.72 46.72 0 0 0 4.48-20.608 60.992 60.992 0 0 0-9.408-32.832l-0.512-0.896-0.256-0.448-0.512-0.832-0.256-0.448-0.512-0.896-0.576-0.96-0.512-0.896-0.64-0.96-0.64-1.024-0.64-1.088-0.704-1.088-1.088-1.728-1.536-2.304-5.248-7.936-1.792-2.752-0.64-1.088-1.088-1.536-0.64-1.024-0.64-1.024-1.28-2.048-0.64-0.96-0.832-1.472-0.896-1.408-0.512-0.96-0.64-0.896-0.512-0.96-0.512-0.896-0.64-1.152-0.64-1.088-0.768-1.408-0.256-0.448-0.512-0.896-0.448-0.896-0.512-0.896-0.448-0.896-0.448-0.896-0.448-0.896-0.704-1.344-0.64-1.344-0.32-0.512c-6.784 6.08-12.8 12.224-18.176 18.752-16.64 20.16-25.408 41.472-25.408 65.28 0 8.448 1.856 16 5.248 22.208l0.256 0.512a4.736 4.736 0 0 1-5.76 6.848l-1.088-0.448C427.008 731.584 392 694.4 392 647.488c0-31.232 12.032-53.76 27.456-74.496l1.152-1.536 0.576-0.768 1.152-1.536 0.64-0.704 1.152-1.536 1.152-1.536 1.216-1.472 1.216-1.536 1.792-2.24 1.216-1.472 1.28-1.6 1.28-1.6 6.016-7.296 1.856-2.24 1.728-2.112 1.664-2.112 1.152-1.408 1.088-1.408 1.216-1.408 1.088-1.408a357.12 357.12 0 0 0 0.576-0.768l1.088-1.408 1.088-1.472 1.088-1.408 1.088-1.472 1.088-1.472 1.088-1.536 0.512-0.704 1.024-1.536c12.032-17.28 21.952-36.8 25.472-61.824l0.128-1.024 0.128-0.96a6.912 6.912 0 0 1 7.68-6.016z" p-id="3795"></path></svg>