<?xml version="1.0" standalone="no"?><!DOCTYPE svg PUBLIC "-//W3C//DTD SVG 1.1//EN" "http://www.w3.org/Graphics/SVG/1.1/DTD/svg11.dtd"><svg t="1648462363303" class="icon" viewBox="0 0 1024 1024" version="1.1" xmlns="http://www.w3.org/2000/svg" p-id="107794" xmlns:xlink="http://www.w3.org/1999/xlink" width="200" height="200"><defs><style type="text/css">@font-face { font-family: feedback-iconfont; src: url("//at.alicdn.com/t/font_1031158_u69w8yhxdu.woff2?t=1630033759944") format("woff2"), url("//at.alicdn.com/t/font_1031158_u69w8yhxdu.woff?t=1630033759944") format("woff"), url("//at.alicdn.com/t/font_1031158_u69w8yhxdu.ttf?t=1630033759944") format("truetype"); }
</style></defs><path d="M832 64H192a32 32 0 0 0-32 32v832a32 32 0 0 0 32 32h640a32 32 0 0 0 32-32V96a32 32 0 0 0-32-32z m-40 824H232V136h560z" p-id="107795"></path><path d="M303.75 416h416.5a16 16 0 0 0 16-16V208a16 16 0 0 0-16-16h-416.5a16 16 0 0 0-16 16v192a16 16 0 0 0 16 16z m40-168h336.5v112h-336.5z" p-id="107796"></path><path d="M287.75 490m8 0l84.48 0q8 0 8 8l0 48q0 8-8 8l-84.48 0q-8 0-8-8l0-48q0-8 8-8Z" p-id="107797"></path><path d="M466.76 490m8 0l84.48 0q8 0 8 8l0 48q0 8-8 8l-84.48 0q-8 0-8-8l0-48q0-8 8-8Z" p-id="107798"></path><path d="M635.76 490m8 0l84.48 0q8 0 8 8l0 48q0 8-8 8l-84.48 0q-8 0-8-8l0-48q0-8 8-8Z" p-id="107799"></path></svg>