<?xml version="1.0" standalone="no"?><!DOCTYPE svg PUBLIC "-//W3C//DTD SVG 1.1//EN" "http://www.w3.org/Graphics/SVG/1.1/DTD/svg11.dtd"><svg t="1677999455957" class="icon" viewBox="0 0 1024 1024" version="1.1" xmlns="http://www.w3.org/2000/svg" p-id="2276" xmlns:xlink="http://www.w3.org/1999/xlink" width="200" height="200"><path d="M832 72a32 32 0 0 1 32 32v817.024a32 32 0 0 1-32 32H193.024a32 32 0 0 1-32-32V104a32 32 0 0 1 32-32H832zM480 312H232.96v574.016L480 885.44V312z m311.744 0h-246.72v574.016l246.72-0.448c0.192 0 0.192-191.168 0-573.568zM424 665.984c4.416 0 8 3.584 8 8v40a8 8 0 0 1-8 8H288.96a8 8 0 0 1-7.936-8v-40c0-4.416 3.584-8 8-8H424z m312 0c4.416 0 8 3.584 8 8v40a8 8 0 0 1-8 8H600.96a8 8 0 0 1-7.936-8v-40c0-4.416 3.584-8 8-8H736zM424 475.968c4.416 0 8 3.584 8 8v40a8 8 0 0 1-8 8.064H288.96a8 8 0 0 1-7.936-8.064v-39.936c0-4.48 3.584-8 8-8H424z m312 0c4.416 0 8 3.584 8 8v40a8 8 0 0 1-8 8.064H600.96a8 8 0 0 1-7.936-8.064v-39.936c0-4.48 3.584-8 8-8H736zM792 144l-558.976 2.176V240h558.912l0.064-96z" p-id="2277"></path></svg>