<?xml version="1.0" standalone="no"?><!DOCTYPE svg PUBLIC "-//W3C//DTD SVG 1.1//EN" "http://www.w3.org/Graphics/SVG/1.1/DTD/svg11.dtd"><svg t="1648458577674" class="icon" viewBox="0 0 1024 1024" version="1.1" xmlns="http://www.w3.org/2000/svg" p-id="104066" xmlns:xlink="http://www.w3.org/1999/xlink" width="200" height="200"><defs><style type="text/css">@font-face { font-family: feedback-iconfont; src: url("//at.alicdn.com/t/font_1031158_u69w8yhxdu.woff2?t=1630033759944") format("woff2"), url("//at.alicdn.com/t/font_1031158_u69w8yhxdu.woff?t=1630033759944") format("woff"), url("//at.alicdn.com/t/font_1031158_u69w8yhxdu.ttf?t=1630033759944") format("truetype"); }
</style></defs><path d="M844 376a8 8 0 0 0 8-8v-56a8 8 0 0 0-8-8h-51A290.58 290.58 0 0 0 592 97.15V72a8 8 0 0 0-8-8H440a8 8 0 0 0-8 8v25.15A290.58 290.58 0 0 0 231 304h-51a8 8 0 0 0-8 8v56a8 8 0 0 0 8 8h42v113.5h-42a8 8 0 0 0-8 8v144a8 8 0 0 0 8 8h42V888h-42a8 8 0 0 0-8 8v56a8 8 0 0 0 8 8h664a8 8 0 0 0 8-8v-56a8 8 0 0 0-8-8h-42V649.5h42a8 8 0 0 0 8-8v-144a8 8 0 0 0-8-8h-42V376zM512 158c95.17 0 176.08 61 205.81 146H306.19C335.92 219 416.83 158 512 158z m218 730H294V376h436z" p-id="104067"></path><path d="M512 709.5a140 140 0 1 0-140-140 140 140 0 0 0 140 140z m0-216a76 76 0 1 1-76 76 76.08 76.08 0 0 1 76-76z" p-id="104068"></path></svg>