<?xml version="1.0" standalone="no"?><!DOCTYPE svg PUBLIC "-//W3C//DTD SVG 1.1//EN" "http://www.w3.org/Graphics/SVG/1.1/DTD/svg11.dtd"><svg t="1677999468482" class="icon" viewBox="0 0 1024 1024" version="1.1" xmlns="http://www.w3.org/2000/svg" p-id="2739" xmlns:xlink="http://www.w3.org/1999/xlink" width="200" height="200"><path d="M919.04 236.992c4.352 0 7.936 3.584 7.936 8v406.016a8 8 0 0 1-8 8h-56a8 8 0 0 1-8-8v-39.36L629.12 585.6a8 8 0 0 1-7.04-7.936v-29.632H438.848L513.28 776.32a8 8 0 0 1-7.552 10.496h-58.56L366.08 547.968h-74.112v7.04a8 8 0 0 1-8 8h-48a8 8 0 0 1-7.936-8V528.32L145.92 512v0.96a8 8 0 0 1-8 8h-32a8 8 0 0 1-8-8V384c0-4.416 3.584-8 8-8h32c4.416 0 8 3.584 8 7.936l81.984-16.256v-26.688c0-4.416 3.584-8 8.064-8h48c4.416 0 8 3.584 8 8v7.04h329.984V318.4c0-4.032 3.008-7.488 7.04-7.936l225.92-26.112v-39.36c0-4.416 3.584-8 8-8h56z m-64 119.808l-161.024 18.624v145.152l160.96 18.56V356.864z m-233.024 55.168H292.032v72h329.984v-71.936z m-393.984 4.672l-81.024 16v30.72l80.96 16v-62.72z" p-id="2740"></path></svg>