<?xml version="1.0" standalone="no"?><!DOCTYPE svg PUBLIC "-//W3C//DTD SVG 1.1//EN" "http://www.w3.org/Graphics/SVG/1.1/DTD/svg11.dtd"><svg t="1677999502285" class="icon" viewBox="0 0 1024 1024" version="1.1" xmlns="http://www.w3.org/2000/svg" p-id="3819" xmlns:xlink="http://www.w3.org/1999/xlink" width="200" height="200"><path d="M664 160c4.416 0 8 3.584 8 8v40a8 8 0 0 1-8 8H472v48h456a32 32 0 0 1 32 32v444.032a32 32 0 0 1-32 32h-44.032a116.032 116.032 0 0 1-231.936 1.92v-1.92H371.904a116.032 116.032 0 0 1-231.936 1.92v-1.92H96a32 32 0 0 1-32-32V296a32 32 0 0 1 32-32h72v-48h-48a8 8 0 0 1-8-8v-40c0-4.416 3.584-8 8-8h544zM299.968 772.032h-87.936a44.032 44.032 0 0 0 88 0.64v-0.64z m512 0h-87.936a44.032 44.032 0 0 0 87.936 0.64v-0.64zM888 336H136v364.032h752V336zM552 542.016c4.416 0 8 3.584 8 8v32a8 8 0 0 1-8 8H248a8 8 0 0 1-8-8v-32c0-4.48 3.584-8 8-8h304zM824 384c4.416 0 8 3.584 8 8v152a8 8 0 0 1-8 8H688a8 8 0 0 1-8-8V392c0-4.416 3.584-8 8-8h136z m-40 43.84h-56v80.32h56v-80.32z m-232 18.176c4.416 0 8 3.584 8 8v32a8 8 0 0 1-8 8H248a8 8 0 0 1-8-8v-32c0-4.48 3.584-8 8-8h304zM424 216h-80v48h80v-48z m-128 0h-80v48h80v-48z m530.432-32c3.328 0 6.4 2.048 7.488 5.184l18.048 48A8 8 0 0 1 844.48 248h-72.96a8 8 0 0 1-7.488-10.816l18.048-48a8 8 0 0 1 7.488-5.184h36.864z" p-id="3820"></path></svg>