<?xml version="1.0" standalone="no"?><!DOCTYPE svg PUBLIC "-//W3C//DTD SVG 1.1//EN" "http://www.w3.org/Graphics/SVG/1.1/DTD/svg11.dtd"><svg t="1677999429064" class="icon" viewBox="0 0 1024 1024" version="1.1" xmlns="http://www.w3.org/2000/svg" p-id="1348" xmlns:xlink="http://www.w3.org/1999/xlink" width="200" height="200"><path d="M787.584 101.376L909.632 223.36a8.192 8.192 0 0 1 0 11.52l-73.344 73.344 24.768 24.768a8.192 8.192 0 0 1 0 11.52L647.488 558.144a140.672 140.672 0 0 1-19.968 21.44v124.224h111.296c4.48 0 8.128 3.648 8.128 8.192v138.368h78.784c4.48 0 8 3.584 8 8v57.472a8 8 0 0 1-8 8H745.6a3.072 3.072 0 0 1-1.6 0.448H330.56a3.072 3.072 0 0 1-1.664-0.448h-113.92a8 8 0 0 1-8-8v-57.472c0-4.48 3.584-8 8-8h112.512V712c0-4.48 3.648-8.192 8.128-8.192H444.8V580.416a140.736 140.736 0 0 1-17.792-18.24L150.72 709.12a8 8 0 0 1-3.392 0.96h-0.704a8 8 0 0 1-6.72-4.288l-27.008-50.752a8 8 0 0 1 3.264-10.816L397.312 494.72a139.52 139.52 0 0 1 49.536-128.64l217.856-217.92a8.192 8.192 0 0 1 11.52 0l26.56 26.496 73.28-73.28a8.192 8.192 0 0 1 11.52 0zM673.472 777.28H400.896v73.088h272.576V777.28z m-171.52-167.36v93.888h68.416V609.92h-1.024a140.16 140.16 0 0 1-67.392 0z m33.728-210.304a74.496 74.496 0 1 0 0 148.992 74.496 74.496 0 0 0 0-148.992zM671.232 232.64L566.272 337.6a140.032 140.032 0 0 1 105.664 105.088l104.704-104.64L671.232 232.64z m110.592-56.192l-42.944 43.008 52.672 52.672 43.008-42.944-52.736-52.736z" p-id="1349"></path></svg>