<?xml version="1.0" standalone="no"?><!DOCTYPE svg PUBLIC "-//W3C//DTD SVG 1.1//EN" "http://www.w3.org/Graphics/SVG/1.1/DTD/svg11.dtd"><svg t="1648462856668" class="icon" viewBox="0 0 1024 1024" version="1.1" xmlns="http://www.w3.org/2000/svg" p-id="110050" xmlns:xlink="http://www.w3.org/1999/xlink" width="200" height="200"><defs><style type="text/css">@font-face { font-family: feedback-iconfont; src: url("//at.alicdn.com/t/font_1031158_u69w8yhxdu.woff2?t=1630033759944") format("woff2"), url("//at.alicdn.com/t/font_1031158_u69w8yhxdu.woff?t=1630033759944") format("woff"), url("//at.alicdn.com/t/font_1031158_u69w8yhxdu.ttf?t=1630033759944") format("truetype"); }
</style></defs><path d="M924.78 361.61A448 448 0 0 0 64 536v6a32 32 0 0 0 32 32h108a8 8 0 0 0 8-8v-60a8 8 0 0 0-8-8h-62.1c8.57-85 45.83-163.82 107.06-225s140-98.48 225-107v59.8a8 8 0 0 0 8 8h60a8 8 0 0 0 8-8V166c85 8.57 163.82 45.82 225 107s98.57 140 107.14 225H820a8 8 0 0 0-8 8v60a8 8 0 0 0 8 8h108a32 32 0 0 0 32-32v-6a445.22 445.22 0 0 0-35.22-174.39z" p-id="110051"></path><path d="M728.77 356L692 319.23a8 8 0 0 0-11.31 0l-154.4 154.39a64 64 0 1 0 48.09 48.09l154.39-154.39a8 8 0 0 0 0-11.32z" p-id="110052"></path><path d="M64 688.5m8 0l576 0q8 0 8 8l0 56q0 8-8 8l-576 0q-8 0-8-8l0-56q0-8 8-8Z" p-id="110053"></path><path d="M766 688.5m8 0l178 0q8 0 8 8l0 56q0 8-8 8l-178 0q-8 0-8-8l0-56q0-8 8-8Z" p-id="110054"></path><path d="M368 864m8 0l576 0q8 0 8 8l0 56q0 8-8 8l-576 0q-8 0-8-8l0-56q0-8 8-8Z" p-id="110055"></path><path d="M64 864m8 0l178 0q8 0 8 8l0 56q0 8-8 8l-178 0q-8 0-8-8l0-56q0-8 8-8Z" p-id="110056"></path></svg>