<?xml version="1.0" standalone="no"?><!DOCTYPE svg PUBLIC "-//W3C//DTD SVG 1.1//EN" "http://www.w3.org/Graphics/SVG/1.1/DTD/svg11.dtd"><svg t="1677999477172" class="icon" viewBox="0 0 1024 1024" version="1.1" xmlns="http://www.w3.org/2000/svg" p-id="3047" xmlns:xlink="http://www.w3.org/1999/xlink" width="200" height="200"><path d="M192 960a32 32 0 0 1-32-32V96a32 32 0 0 1 32-32h640a32 32 0 0 1 32 32v832a32 32 0 0 1-32 32H192z m600-824H232v752h67.008V201.984a16 16 0 0 1 16-16h393.984a16 16 0 0 1 16 16V888H792V136zM660.992 249.984H363.008V888h297.984V249.984z m-83.968 232.96a36.032 36.032 0 1 1 0 72.064 36.032 36.032 0 0 1 0-72z" p-id="3048"></path></svg>