<?xml version="1.0" encoding="UTF-8"?>
<svg width="16px" height="16px" viewBox="0 0 16 16" version="1.1" xmlns="http://www.w3.org/2000/svg" xmlns:xlink="http://www.w3.org/1999/xlink">
    <title>Line/设备-消防监测系统</title>
    <g id="控件" stroke="none" stroke-width="1" fill="none" fill-rule="evenodd">
        <g id="Line/设备-消防监测系统" fill="#0A1B39" fill-rule="nonzero">
            <path d="M7.9576922,14.9996877 L8,15 C5.36403548,15 2.5,12.921875 2.5,10.046875 C2.5,8.279875 3.341491,7.120438 4.27481174,5.9759464 L4.33387341,5.90367706 L4.33387341,5.90367706 L4.39313732,5.83141429 L4.39313732,5.83141429 L4.60900459,5.56899531 L4.66794511,5.49720073 L4.66794511,5.49720073 L4.72685306,5.42523075 C5.66890404,4.27213729 6.58290877,3.0394042 6.72268699,1.13716565 L6.72684117,1.07689719 C6.72963693,1.03348019 6.76709979,1.00055017 6.8105168,1.00334593 C6.82470913,1.00425982 6.83838936,1.00899871 6.85010589,1.01705974 L6.8728965,1.03276092 L6.8728965,1.03276092 C8.75718879,2.34167409 10.0755983,3.79950378 10.828125,5.40625 L10.9123997,5.28229043 L11.0014306,5.15179102 L11.1072756,4.99716205 L11.2191402,4.83425609 L11.3504942,4.64354191 L11.4500149,4.4994741 C11.4892948,4.44270263 11.5671573,4.42850877 11.6239359,4.46777838 C11.6344088,4.47502171 11.6437134,4.48382277 11.6515082,4.49389199 L11.686784,4.53932652 L11.686784,4.53932652 C12.6996916,5.86912945 13.5,7.5364112 13.5,10.046875 C13.5,12.6567676 10.6688358,14.9731926 8.04553344,14.999769 L8.04343185,14.9996872 L8.04343185,14.9996872 L8,15 C7.98585663,15 7.97175382,15 7.9576922,14.9996877 Z M8.05872303,10.015426 L8.0509375,9.99935938 L8.04822579,10.0017856 C7.83861131,10.1893927 7.65074249,10.3824154 7.48248772,10.5854188 C6.96052252,11.2151823 6.6875,11.8807865 6.6875,12.625 C6.6875,13.1300842 6.89739907,13.5237335 7.25455444,13.7433051 C7.5043261,13.7888656 7.75435944,13.8125 8,13.8125 C8.25081575,13.8125 8.50915187,13.7836526 8.76914452,13.7283336 C9.11187528,13.5060881 9.3125,13.1187997 9.3125,12.625 C9.3125,12.2594677 9.23534244,11.9831661 9.01951961,11.5992869 L9.00423645,11.5723276 C9.0016515,11.5678045 8.99904761,11.5632662 8.99642468,11.5587124 L8.98045786,11.5312016 C8.97775839,11.5265847 8.97503968,11.5219517 8.97230165,11.5173023 L8.95564073,11.4892066 L8.95564073,11.4892066 L8.93851128,11.4607025 C8.93272285,11.4511313 8.92685557,11.4414897 8.92090864,11.4317749 L8.90282819,11.4024092 L8.90282819,11.4024092 L8.88217276,11.3692486 L8.86091532,11.3355083 L8.83904952,11.301168 L8.81656899,11.2662072 C8.81277065,11.2603275 8.80894644,11.2544212 8.80509621,11.2484877 L8.75806297,11.1766008 L8.59443816,10.9284003 L8.56029257,10.8762599 L8.53811995,10.8422067 L8.51640592,10.8086899 L8.48466795,10.7593662 L8.46404683,10.7270817 L8.44384144,10.6952464 L8.42403953,10.6638354 L8.40462885,10.6328237 L8.38559716,10.6021865 L8.35773342,10.5568783 L8.35773342,10.5568783 L8.33065351,10.5122722 L8.33065351,10.5122722 L8.31301528,10.4828834 L8.2956948,10.4537443 L8.27867981,10.4248301 L8.26195808,10.3961158 L8.24144964,10.3604659 L8.24144964,10.3604659 L8.22135634,10.3250407 L8.2134299,10.3109227 L8.2134299,10.3109227 L8.19775869,10.2827585 L8.19001086,10.2687062 L8.19001086,10.2687062 L8.17468307,10.2406454 L8.15956893,10.2126225 L8.14465618,10.1846125 L8.12993257,10.1565904 C8.12505486,10.1472449 8.12020664,10.1378932 8.11538586,10.1285313 L8.1010038,10.1004102 C8.09861983,10.0957168 8.09624221,10.0910198 8.09387068,10.0863186 L8.07971263,10.0580579 C8.07736446,10.0533381 8.07502188,10.0486132 8.07268463,10.0438825 L8.05872303,10.015426 Z M7.56901962,3.08622627 L7.53589063,3.05671875 L7.53544873,3.05804309 C7.41009106,3.42274399 7.25539418,3.77657022 7.0722668,4.12315364 C6.86629299,4.51297579 6.62742292,4.88903469 6.34466252,5.27939691 L6.30118829,5.33906981 L6.27798623,5.37065858 L6.24699101,5.41258137 L6.21585348,5.4543798 L6.20020587,5.47526617 L6.16077513,5.52755307 L6.12077171,5.58011035 L6.09642853,5.61186236 L6.06350164,5.65454694 L6.02147412,5.70861492 L5.97833252,5.76367144 L5.94291011,5.80857036 L5.89736191,5.86593855 L5.83093809,5.9489557 L5.7712387,6.02301737 L5.70869685,6.10014503 L5.64303738,6.1807037 L5.26411834,6.64200981 L5.21156271,6.70629353 L5.17735884,6.74829584 L5.12727667,6.81005983 L5.07863143,6.87038536 L5.03138774,6.92932748 L5.00065313,6.96788084 L4.97051523,7.00586012 L4.92640431,7.0617883 L4.92640431,7.0617883 L4.89771236,7.09840371 L4.86958045,7.13450212 L4.84199811,7.17009983 L4.8016321,7.22259325 L4.8016321,7.22259325 L4.77537781,7.25701056 L4.74963642,7.29098425 L4.72439743,7.32453062 L4.69965037,7.35766598 L4.67538476,7.39040664 L4.65159012,7.42276891 L4.62825597,7.4547691 C4.62055351,7.46537729 4.61292605,7.47592785 4.60537184,7.4864235 L4.58292724,7.51774844 L4.55006155,7.56415377 L4.55006155,7.56415377 L4.52866995,7.59472638 L4.5076812,7.6250266 L4.48708483,7.65507073 L4.46687037,7.68487508 L4.45690307,7.69969244 L4.43724181,7.7291677 L4.41793626,7.75844395 L4.40841359,7.77301255 L4.40841359,7.77301255 L4.38962194,7.80202086 C4.38030937,7.8164841 4.37112036,7.830888 4.36204902,7.84524173 L4.3440615,7.87388503 L4.33518213,7.8881616 L4.31764564,7.9166348 L4.30039674,7.94501499 L4.28342495,7.97331848 C4.28061883,7.97803024 4.27782382,7.98273949 4.2750397,7.98744656 L4.25846393,8.01566557 L4.24213908,8.04384865 L4.22605467,8.0720121 C4.21807083,8.08609164 4.21017322,8.10016993 4.20235595,8.11425615 L4.18682679,8.14244188 L4.17913927,8.15654777 L4.17913927,8.15654777 L4.16391182,8.1847958 L4.14887241,8.21310573 C4.14388945,8.22255451 4.13893608,8.23201632 4.13401057,8.24149388 L4.11931581,8.26997656 C3.83118719,8.83255085 3.6875,9.394533 3.6875,10.046875 C3.6875,11.0408987 4.16903093,11.9724596 5.02565176,12.6925803 C5.22833999,12.8629707 5.44668594,13.0164236 5.67581528,13.1511713 C5.64239501,12.9834887 5.625,12.8076246 5.625,12.625 C5.625,10.5608225 7.18039974,9.21715655 8.38672021,8.40651378 L8.42844368,8.37863554 L8.42844368,8.37863554 L8.46196593,8.35668266 C8.51971731,8.31885818 8.59719685,8.33501214 8.63502132,8.39276352 C8.64484652,8.40776489 8.65132898,8.42470465 8.65402861,8.44243281 L8.65941848,8.4772202 L8.65941848,8.4772202 C8.76086998,9.04187182 8.96267902,9.48691878 9.19336898,9.88343156 L9.21213545,9.91547629 L9.21213545,9.91547629 L9.23102003,9.94731673 L9.23102003,9.94731673 L9.25001426,9.97896129 L9.25001426,9.97896129 L9.26910966,10.0104184 C9.27230019,10.0156461 9.27549458,10.0208663 9.27869266,10.0260793 L9.29792396,10.057271 C9.30113608,10.0624555 9.30435153,10.0676331 9.30757014,10.0728039 L9.32691828,10.1037491 L9.32691828,10.1037491 L9.34633373,10.1345406 L9.34633373,10.1345406 L9.36580803,10.1651867 L9.36580803,10.1651867 L9.3853327,10.1956958 L9.3853327,10.1956958 L9.41469565,10.2412212 L9.41469565,10.2412212 L9.44412433,10.2864857 L9.44412433,10.2864857 L9.46479992,10.3181099 L9.495826,10.3653531 L9.495826,10.3653531 L9.61808475,10.5505582 L9.64184414,10.5866635 L9.64184414,10.5866635 L9.66550012,10.6227415 L9.66550012,10.6227415 L9.68903717,10.6588075 L9.68903717,10.6588075 L9.71243975,10.6948772 L9.71243975,10.6948772 L9.73569233,10.7309658 L9.73569233,10.7309658 L9.75877939,10.7670889 C9.76261258,10.7731131 9.76643822,10.7791394 9.770256,10.7851682 L9.79306565,10.8213718 C9.79685066,10.8274115 9.80062716,10.8334541 9.80439482,10.8395001 L9.82689213,10.8758192 C10.1328351,11.3728016 10.375,11.8967375 10.375,12.625 C10.375,12.78019 10.3624387,12.9304981 10.3381793,13.0750613 C10.5546954,12.9374758 10.7629771,12.7826034 10.9587761,12.6121521 C11.8197484,11.8626389 12.3125,10.9280166 12.3125,10.046875 C12.3125,8.94496949 12.1424735,7.99911843 11.8186629,7.15291719 C11.7338455,6.93126726 11.6385835,6.71626613 11.5320915,6.5054854 L11.52575,6.49301563 L10.6383354,7.80080552 L9.75272909,5.90991644 C9.28804664,4.91775661 8.56286492,3.97582362 7.56901962,3.08622627 Z" id="形状"></path>
        </g>
    </g>
</svg>