<?xml version="1.0" standalone="no"?><!DOCTYPE svg PUBLIC "-//W3C//DTD SVG 1.1//EN" "http://www.w3.org/Graphics/SVG/1.1/DTD/svg11.dtd"><svg t="1677999472759" class="icon" viewBox="0 0 1024 1024" version="1.1" xmlns="http://www.w3.org/2000/svg" p-id="2895" xmlns:xlink="http://www.w3.org/1999/xlink" width="200" height="200"><path d="M476.032 68.032c17.664 0 32 18.304 32 35.968v46.016h88v-10.688a32 32 0 0 1 29.824-31.936l176-19.712a32 32 0 0 1 34.176 31.936V243.2a32 32 0 0 1-34.176 31.936L625.92 255.36a32 32 0 0 1-29.824-32v-9.408h-88.128v46.016H576a32 32 0 0 1 32 32v632a32 32 0 0 1-32 32H240a32 32 0 0 1-32-32v-632a32 32 0 0 1 32-32h68.032v-45.952H225.92a8 8 0 0 1-8-8v-48c0-4.48 3.584-8 8-8h81.984v-49.984a32 32 0 0 1 32-32h136z m59.968 264H280v552h256V792.96H408a32 32 0 0 1-32-32V497.024a32 32 0 0 1 32-32h128V331.968z m0 196.992h-97.024v200H536v-200zM443.968 138.56h-71.936v121.408h72V138.56z m216 24.192v37.312l112 13.312v-64l-112 13.376z" p-id="2896"></path></svg>