<?xml version="1.0" standalone="no"?><!DOCTYPE svg PUBLIC "-//W3C//DTD SVG 1.1//EN" "http://www.w3.org/Graphics/SVG/1.1/DTD/svg11.dtd"><svg t="1679048016276" class="icon" viewBox="0 0 1024 1024" version="1.1" xmlns="http://www.w3.org/2000/svg" p-id="1482" xmlns:xlink="http://www.w3.org/1999/xlink" width="200" height="200"><path d="M309.312 64c0.832 0.064 1.6 0.384 2.24 0.832l1.28 0.96c107.264 79.36 182.272 167.68 225.088 264.96l4.8-7.488 5.12-7.936 6.016-9.344 6.4-9.856 7.424-11.52 5.632-8.768a6.848 6.848 0 0 1 11.52-0.384l1.92 2.752c39.04 54.528 72.512 118.4 90.048 201.088l0.64 2.88 0.448 2.176 0.64 3.392 0.64 3.392 0.832 4.48a8 8 0 0 1-7.872 9.408h-61.12a8 8 0 0 1-7.808-6.4l-1.088-5.12-0.704-3.392-0.64-3.008-0.576-2.24-0.256-1.152a445.888 445.888 0 0 0-23.168-70.4l-0.512-1.28-50.688 79.36-57.216-130.048c-24.512-55.68-61.76-108.736-112.192-158.976l-1.408-1.408-0.128 0.32a474.88 474.88 0 0 1-21.888 51.456l-0.64 1.28-1.216 2.432a566.912 566.912 0 0 1-0.64 1.28l-1.216 2.432a543.296 543.296 0 0 1-8.32 15.616l-1.344 2.368a541.888 541.888 0 0 1-4.736 8.256l-1.408 2.368a572.096 572.096 0 0 1-7.168 11.776l-1.472 2.368-1.472 2.368a634.24 634.24 0 0 1-2.304 3.52l-1.536 2.432a677.76 677.76 0 0 1-2.368 3.584l-1.6 2.432-0.832 1.216-1.664 2.432-0.832 1.216-1.664 2.432-1.664 2.496-2.624 3.712-1.792 2.56-1.728 2.496-1.856 2.56-1.856 2.56-1.856 2.56-1.92 2.624-1.92 2.688-1.92 2.624-3.008 4.096-2.048 2.688-2.048 2.752-3.2 4.224-3.2 4.288-2.176 2.88-2.24 2.944-2.24 2.944-3.456 4.48-3.392 4.352-12.288 15.936-3.328 4.288-4.16 5.44-2.752 3.584-2.688 3.52-1.728 2.368-1.728 2.24-1.664 2.304-1.664 2.176-1.664 2.24-1.6 2.176-1.536 2.112-2.304 3.2-1.472 2.048-1.472 2.048-1.472 2.048-1.408 1.92-1.408 2.048-1.344 1.92-1.984 2.944-1.28 1.92-1.28 1.92-1.28 1.792-1.28 1.92-1.216 1.792-1.152 1.856-1.792 2.688-1.088 1.792-1.408 2.176-1.408 2.24-1.024 1.728-1.088 1.728a372.48 372.48 0 0 0-1.024 1.728l-1.024 1.728a356.864 356.864 0 0 0-0.448 0.832l-1.024 1.728a342.272 342.272 0 0 0-1.472 2.56l-0.896 1.664-0.96 1.728a325.696 325.696 0 0 0-0.448 0.832l-0.896 1.664-0.896 1.664-0.448 0.832-0.896 1.728-0.448 0.832-0.832 1.664-0.448 0.832-0.832 1.664-0.832 1.664-0.832 1.728-0.96 2.112-0.192 0.384a238.912 238.912 0 0 0-23.36 105.152c0 60.16 27.072 115.968 74.88 158.72 6.528 5.888 13.376 11.328 20.416 16.512a177.088 177.088 0 0 1-1.024-19.008c0-60.096 20.352-114.944 59.584-165.376 11.2-14.4 23.68-28.16 37.504-41.408l1.472-1.408 61.184-58.24a8 8 0 0 1 12.8 2.432l35.392 77.632 0.64 1.344 0.256 0.512 0.704 1.6 0.32 0.64 0.768 1.536 0.64 1.28 0.64 1.28 0.64 1.408 0.768 1.472 0.768 1.408 0.96 1.92 0.448 0.832 0.896 1.728 1.088 1.92 0.832 1.536 0.64 1.28 0.96 1.6 0.832 1.536 1.344 2.368 1.408 2.432 0.896 1.536 1.024 1.728 1.088 1.856 0.96 1.6 1.216 1.984 1.536 2.624 1.216 1.92 1.28 2.048 1.792 3.008 9.216 14.848 5.888 9.728a7.996 7.996 0 0 1 1.152 4.16V883.84a8 8 0 0 1-5.12 7.424l-2.88 1.152-3.2 1.28-1.984 0.64-2.24 0.832-1.6 0.64-1.088 0.32c-28.672 9.984-58.24 15.552-87.296 15.872h-2.56C227.008 912 64 786.112 64 611.904c0-104.96 46.016-174.464 97.792-242.496l3.2-4.16 3.392-4.352 3.328-4.352L184 340.608l3.392-4.352 3.328-4.352 3.2-4.16 3.2-4.224c51.328-67.52 99.584-140.8 107.2-251.392l0.256-3.648c0.128-2.624 2.24-4.608 4.736-4.48zM836.48 552.96a32 32 0 0 1 32 31.488v80.384l66.944-51.328a15.232 15.232 0 0 1 24.512 11.712v190.976a15.296 15.296 0 0 1-24.192 12.352l-0.32-0.192-66.944-51.392v79.36a32 32 0 0 1-31.424 32H565.248a32 32 0 0 1-32-31.488V696.576l-0.256-111.808a32 32 0 0 1 31.488-31.424h19.456l108.288-0.32H836.48z m-456.576 56.064l-1.472 1.408a320.64 320.64 0 0 0-30.912 34.112c-29.696 38.144-45.184 78.464-45.184 123.52 0 26.432 8.896 47.808 24.32 61.76 16.32 3.904 32.64 6.016 48.64 6.144h5.056c15.744-0.32 32-2.88 48.384-7.488 14.592-13.888 22.976-34.752 22.976-60.352 0-19.904-3.584-35.456-13.184-55.296l-0.448-0.896-0.832-1.664a237.184 237.184 0 0 0-1.664-3.2l-0.576-1.088-0.832-1.664-0.448-0.832-1.152-2.048-1.216-2.112-0.96-1.728-0.512-0.896-0.448-0.896-1.088-1.792-1.152-1.984-1.216-2.048-1.28-2.048-1.28-2.176-0.64-1.024-2.624-4.352-9.344-15.04-1.92-3.2-1.28-2.048-1.28-2.048-1.728-2.944-1.216-1.92-1.152-1.984-1.088-1.92-1.152-1.92-1.088-1.792-1.536-2.752-1.536-2.688-1.024-1.792-0.96-1.792-1.024-1.728-0.896-1.728-1.216-2.176-1.152-2.176-0.448-0.832-0.896-1.728-0.384-0.832-0.896-1.664-0.832-1.728-0.896-1.664-0.832-1.728-0.832-1.728-1.024-2.112-0.96-2.112-1.28-2.56-0.384-1.024z m424.576 8H597.248V824.32H804.48V617.024z" p-id="1483"></path></svg>