<?xml version="1.0" standalone="no"?><!DOCTYPE svg PUBLIC "-//W3C//DTD SVG 1.1//EN" "http://www.w3.org/Graphics/SVG/1.1/DTD/svg11.dtd"><svg t="1677999419701" class="icon" viewBox="0 0 1024 1024" version="1.1" xmlns="http://www.w3.org/2000/svg" p-id="1038" xmlns:xlink="http://www.w3.org/1999/xlink" width="200" height="200"><path d="M396.032 112a192 192 0 0 1 192 188.8v24.192h23.936c4.48 0 8.064 3.584 8.064 8v48a8 8 0 0 1-8.064 8h-64v27.2c0 43.904-18.56 83.456-48.32 111.168l-0.896 0.832a332.16 332.16 0 0 1 228.864 299.136l0.192 4.416v1.152l0.064 46.976A8 8 0 0 1 720 888h-48a8 8 0 0 1-8-7.744v-36.288a272 272 0 0 0-0.64-17.984l-0.128-2.176a267.968 267.968 0 0 0-0.256-3.648l-0.128-1.088a138.88 138.88 0 0 0-0.32-3.2v-0.192l-0.256-2.112-0.064-1.024-0.32-2.304-0.192-1.344-0.128-1.344a268.352 268.352 0 0 0-134.4-197.312L424 678.976v126.08l-56-1.152V679.04l-103.168-68.864a268.416 268.416 0 0 0-135.808 209.92l-0.192 2.368a271.68 271.68 0 0 0-0.832 21.504V880a8 8 0 0 1-8 8H72.96a8.064 8.064 0 0 1-8.832-8.192v-46.144A332.16 332.16 0 0 1 289.28 529.472l3.968-1.28-0.832-0.896a151.552 151.552 0 0 1-48.384-108.672v-29.632h-64a8 8 0 0 1-8.064-8v-48c0-4.416 3.584-8 8.064-8h23.936V304a192 192 0 0 1 188.8-192h3.2z m273.92 70.016a156.032 156.032 0 0 1 156.032 153.408v21.568h20.032c4.416 0 8 3.584 8 8v40a8 8 0 0 1-8 8h-52.992v17.024c0 34.944-14.464 66.496-37.76 88.96a291.2 291.2 0 0 1 204.544 267.968l0.064 1.472v32.448-0.064a8 8 0 0 1-7.808 8.192h-39.616a8.064 8.064 0 0 1-8.576-7.36v-0.256 0.064-0.32l-0.064-33.92a235.008 235.008 0 0 0-234.816-225.216v-56c41.6 0 75.328-33.28 75.968-74.752v-18.24h-76.992V352h102.016v-14.016c0-54.656-43.84-99.072-98.304-99.968h-1.664c-14.592 0-28.416 3.072-40.96 8.704a237.888 237.888 0 0 0-19.584-52.48c18.56-7.872 39.04-12.224 60.544-12.224zM305.088 720h0.256a8 8 0 0 1 7.68 7.744v32.512a8 8 0 0 1-7.68 7.68l-0.32 0.064H199.68a8 8 0 0 1-7.68-7.744v-32.512a8 8 0 0 1 7.744-7.68L200 720h104.96z m286.976 0h0.256a8 8 0 0 1 7.68 7.744l0.064 0.256v32.256a8 8 0 0 1-7.744 7.68L592 768H486.72a8 8 0 0 1-7.68-7.744v-32.512a8 8 0 0 1 7.68-7.68l0.256-0.064H592zM328.32 585.216l67.712 45.12 68.352-45.568c-42.816-11.2-87.872-11.2-136.064 0.448zM492.032 389.12h-192v27.008A96 96 0 0 0 390.848 512h10.304a96 96 0 0 0 90.88-94.208V389.12z m-96-213.184h-2.304l-1.92 0.064a128 128 0 0 0-123.776 125.824v23.104h256v-23.296l-0.128-1.92A128 128 0 0 0 398.08 176h-1.92z m0 48a40 40 0 1 1 0 80 40 40 0 0 1 0-80z" p-id="1039"></path></svg>