<?xml version="1.0" standalone="no"?><!DOCTYPE svg PUBLIC "-//W3C//DTD SVG 1.1//EN" "http://www.w3.org/Graphics/SVG/1.1/DTD/svg11.dtd"><svg t="1677999446179" class="icon" viewBox="0 0 1024 1024" version="1.1" xmlns="http://www.w3.org/2000/svg" p-id="1964" xmlns:xlink="http://www.w3.org/1999/xlink" width="200" height="200"><path d="M952 495.232h-27.456a477.44 477.44 0 0 0-151.232-256 462.592 462.592 0 0 0-138.752-83.968 456.384 456.384 0 0 0-164.672-30.528 396.928 396.928 0 0 0-158.272 32.64 404.032 404.032 0 0 0-128.96 88.768 412.8 412.8 0 0 0-86.848 131.52A417.92 417.92 0 0 0 64 538.432a364.416 364.416 0 0 0 27.712 140.16 359.872 359.872 0 0 0 75.712 114.688A353.56 353.56 0 0 0 280 870.72a346.368 346.368 0 0 0 138.112 28.48 302.912 302.912 0 0 0 120.768-24.896 308.16 308.16 0 0 0 98.368-67.712 316.224 316.224 0 0 0 90.432-222.72c0-73.6-28.16-142.848-79.232-194.944a266.944 266.944 0 0 0-192-81.28h-1.792a228.096 228.096 0 1 0 187.008 358.848 243.328 243.328 0 0 1-55.872 89.728 233.216 233.216 0 0 1-167.68 71.04 276.928 276.928 0 0 1-199.232-84.352A290.304 290.304 0 0 1 136 538.432c0-91.392 34.816-177.28 98.048-241.856a327.872 327.872 0 0 1 235.84-99.84 384.768 384.768 0 0 1 138.752 25.728 390.656 390.656 0 0 1 117.248 70.976 405.12 405.12 0 0 1 124.608 201.792h-22.464a8 8 0 0 0-8.064 8v56c0 4.416 3.584 8 8.064 8H952a8 8 0 0 0 8-8v-56a8 8 0 0 0-8-8zM454.656 691.84a156.288 156.288 0 0 1-156.16-156.096 156.224 156.224 0 0 1 156.16-156.16 156.224 156.224 0 0 1 156.096 156.16 156.288 156.288 0 0 1-156.16 156.16z" p-id="1965"></path></svg>