<?xml version="1.0" standalone="no"?><!DOCTYPE svg PUBLIC "-//W3C//DTD SVG 1.1//EN" "http://www.w3.org/Graphics/SVG/1.1/DTD/svg11.dtd"><svg t="1648458450856" class="icon" viewBox="0 0 1024 1024" version="1.1" xmlns="http://www.w3.org/2000/svg" p-id="103936" xmlns:xlink="http://www.w3.org/1999/xlink" width="200" height="200"><defs><style type="text/css">@font-face { font-family: feedback-iconfont; src: url("//at.alicdn.com/t/font_1031158_u69w8yhxdu.woff2?t=1630033759944") format("woff2"), url("//at.alicdn.com/t/font_1031158_u69w8yhxdu.woff?t=1630033759944") format("woff"), url("//at.alicdn.com/t/font_1031158_u69w8yhxdu.ttf?t=1630033759944") format("truetype"); }
</style></defs><path d="M339.944 63c2.048 0 4.096 0.512 5.632 1.024l22.528 8.704c3.072 1.024 54.272 21.504 105.472 71.68 29.696 28.672 53.76 62.976 71.168 100.352 14.336 30.72 23.552 62.976 28.16 96.256v-25.6c0-8.192 6.656-14.336 14.336-14.336 3.584 0 7.168 1.536 9.728 3.584l30.208 27.648c1.536 1.024 34.304 31.744 66.56 88.064 18.944 33.28 33.792 68.096 44.544 104.96 10.323 36.131 16.952 73.186 19.169 110.687h-64.843a460.442 460.442 0 0 0-15.766-91.231c-9.216-31.232-21.504-61.952-37.376-90.112-9.216-16.896-19.968-33.28-31.744-48.128-6.144 3.584-12.288 7.168-18.432 9.728-11.776 5.12-24.064 9.216-36.864 12.288l-19.968 4.608c-8.704 2.048-17.408-3.584-18.944-12.288 0-1.024-0.512-2.048-0.512-3.584v-20.48c0-45.056-8.704-86.528-25.6-123.904-13.824-30.208-33.28-57.344-56.832-80.896-13.824-13.312-28.672-25.6-44.544-36.352-6.656 40.96-20.992 82.944-43.52 126.976-27.648 53.76-63.488 103.424-97.792 151.04-59.392 81.408-114.176 157.696-114.176 232.96 0 64 29.184 119.808 87.552 165.376 5.12 4.096 10.24 7.68 15.36 11.264-8.704-30.208-12.8-60.928-12.8-92.16 0-28.672 8.704-57.856 26.112-87.04 12.8-21.504 30.72-43.008 52.736-64 22.528-21.504 55.616-40.448 82.24-56.832l26.624-16.384c7.168-4.096 15.872-1.536 19.968 5.12 1.536 2.048 2.048 4.608 2.048 7.168v31.744c0 58.88 2.184 81.92 35.976 108.032 15.872 12.288 32.256 25.088 45.568 41.472 16.384 20.992 24.064 44.032 24.064 70.656 0 23.552 0 37.821-0.144 65.024-34.726 55.337-80.057 89.47-135.992 102.4-30.208 5.12-61.44 2.56-90.624-7.168l-18.432-6.144c-2.048-0.512-56.832-18.944-111.616-60.928C104.424 826.392 65 751.128 65 666.648c0-44.032 13.312-90.624 40.448-141.312 23.04-43.52 53.248-84.992 84.992-129.024 65.536-91.136 133.632-185.344 133.632-292.864V78.872c0-8.704 7.168-15.872 15.872-15.872z m500.42 605c11.006 0 19.928 8.944 19.928 19.977v77.766l56.334-44.886a13.058 13.058 0 0 1 8.038-2.776c6.88 0 13.344 5.443 13.336 13.343v166.564c0 7.9-6.464 13.344-13.344 13.344a13.058 13.058 0 0 1-8.03-2.777l-56.334-44.878v77.346c0 11.033-8.922 19.977-19.929 19.977H587.93C576.923 961 568 952.056 568 941.023V687.977c0-11.033 8.923-19.977 19.929-19.977z m-466.82-40.264c-7.168 5.632-14.848 12.288-22.016 19.456-26.112 25.088-65.344 62.976-65.344 102.912-0.512 86.016 29.424 142.848 30.96 144.896 24.576 32.256 71.168 39.424 103.936 15.36 33.253-34.133 49.88-73.899 49.88-119.296 0-25.088-14.336-37.376-44.032-60.928-28.16-22.016-37.512-50.176-53.384-102.4zM811 716H616v197h195V716z" p-id="103937"></path></svg>