<?xml version="1.0" standalone="no"?><!DOCTYPE svg PUBLIC "-//W3C//DTD SVG 1.1//EN" "http://www.w3.org/Graphics/SVG/1.1/DTD/svg11.dtd"><svg t="1677999451284" class="icon" viewBox="0 0 1024 1024" version="1.1" xmlns="http://www.w3.org/2000/svg" p-id="2120" xmlns:xlink="http://www.w3.org/1999/xlink" width="200" height="200"><path d="M592 215.936a64 64 0 0 1 15.744 26.112l50.688 161.6a64 64 0 0 0 15.808 26.112l271.744 271.744a32 32 0 0 1 0 45.248l-209.28 209.28a32 32 0 0 1-45.248 0L418.56 683.264a64 64 0 0 0-23.36-14.912l-157.76-57.28a64 64 0 0 1-23.36-14.912l-96.128-96.192a32 32 0 0 1 0-45.248l333.76-333.76a32 32 0 0 1 45.248 0L592 215.936zM150.4 332.608l-10.368 38.656a8 8 0 0 1-9.792 5.632L68.48 360.32a8 8 0 0 1-5.632-9.792l10.368-38.592a8 8 0 0 1 9.792-5.696l61.824 16.64a8 8 0 0 1 5.632 9.728z m377.6-78.72l-53.76-53.76-277.12 277.248 53.76 53.76L528 253.888z m25.472 53.76L302.528 558.656l145.6 52.224 265.92 265.984L866.816 724.16l-267.2-267.2-46.08-149.312z m14.144 212.16a36.032 36.032 0 1 1-50.88 50.88 36.032 36.032 0 0 1 50.88-50.88z m-320.96-315.392a8 8 0 0 1 0 11.328l-28.288 28.288a8 8 0 0 1-11.328 0l-45.248-45.312a8 8 0 0 1 0-11.264l28.288-28.288a8 8 0 0 1 11.328 0l45.248 45.248z m116.352-138.56l16.576 61.824a8 8 0 0 1-5.696 9.792l-38.592 10.368a8 8 0 0 1-9.792-5.696l-16.64-61.824a8 8 0 0 1 5.76-9.792l38.528-10.368a8 8 0 0 1 9.792 5.696z" p-id="2121"></path></svg>