<?xml version="1.0" standalone="no"?><!DOCTYPE svg PUBLIC "-//W3C//DTD SVG 1.1//EN" "http://www.w3.org/Graphics/SVG/1.1/DTD/svg11.dtd"><svg t="1725356206967" class="icon" viewBox="0 0 1024 1024" version="1.1" xmlns="http://www.w3.org/2000/svg" p-id="1430" xmlns:xlink="http://www.w3.org/1999/xlink" width="200" height="200"><path d="M471.488 116.992a16 16 0 0 1 8.512 14.08v725.76a8 8 0 0 1-8 7.936H90.624a16 16 0 0 1-14.08-23.488l373.248-717.632a16 16 0 0 1 21.632-6.656zM408 355.84L183.808 792.768H408V355.84z m152-240.704a16 16 0 0 1 14.08 8.512L947.52 841.28a16 16 0 0 1-14.144 23.488H552a8 8 0 0 1-8-8V131.2a16 16 0 0 1 16-16z m56 240.704v436.928h224.192L616 355.84z" p-id="1431"></path></svg>