<?xml version="1.0" standalone="no"?><!DOCTYPE svg PUBLIC "-//W3C//DTD SVG 1.1//EN" "http://www.w3.org/Graphics/SVG/1.1/DTD/svg11.dtd"><svg t="1658228439066" class="icon" viewBox="0 0 1024 1024" version="1.1" xmlns="http://www.w3.org/2000/svg" p-id="22570" xmlns:xlink="http://www.w3.org/1999/xlink" width="200" height="200"><defs><style type="text/css">@font-face { font-family: feedback-iconfont; src: url("//at.alicdn.com/t/font_1031158_u69w8yhxdu.woff2?t=1630033759944") format("woff2"), url("//at.alicdn.com/t/font_1031158_u69w8yhxdu.woff?t=1630033759944") format("woff"), url("//at.alicdn.com/t/font_1031158_u69w8yhxdu.ttf?t=1630033759944") format("truetype"); }
</style></defs><path d="M901.28 667.52l-389.28 192-389.28-192a36.048 36.048 0 1 0-31.68 64.8l405.12 198.24a36 36 0 0 0 13.92 3.36 36 36 0 0 0 13.92-3.36l405.12-198.24a36 36 0 0 0-27.84-64.8z" p-id="22571"></path><path d="M901.28 481.76l-389.28 192-389.28-192a36.048 36.048 0 1 0-31.68 64.8l405.12 198.24a36 36 0 0 0 13.92 3.36 36 36 0 0 0 13.92-3.36l405.12-198.24a36 36 0 1 0-27.84-64.8z" p-id="22572"></path><path d="M953.12 325.28a36 36 0 0 0-20.16-33.6l-405.12-198.24h-7.2L512 90.08h-13.92l-407.04 201.6a36 36 0 0 0-20.16 33.6 36 36 0 0 0 20.16 33.6L496.16 560a36 36 0 0 0 15.84 0 36 36 0 0 0 14.4 0l405.12-198.24a36 36 0 0 0 20.16-33.6l1.44-2.88zM512 486.08L184.64 325.76 512 165.92l327.36 160.32L512 486.08z" p-id="22573"></path></svg>