<?xml version="1.0" standalone="no"?><!DOCTYPE svg PUBLIC "-//W3C//DTD SVG 1.1//EN" "http://www.w3.org/Graphics/SVG/1.1/DTD/svg11.dtd"><svg t="1678332322635" class="icon" viewBox="0 0 1024 1024" version="1.1" xmlns="http://www.w3.org/2000/svg" p-id="1684" xmlns:xlink="http://www.w3.org/1999/xlink" width="200" height="200"><path d="M886.08 480.448l59.392 29.44a8 8 0 0 1 0 14.4L513.536 736.512a16 16 0 0 1-14.272-0.064L78.144 524.16a8 8 0 0 1-0.064-14.272l57.728-29.376a16 16 0 0 1 14.4 0l356.224 179.392 365.44-179.584a16 16 0 0 1 14.208 0v0.128z m0 206.272l59.392 29.44a8 8 0 0 1 0 14.4L513.536 942.72a16 16 0 0 1-14.272-0.064L78.144 730.368a8 8 0 0 1-0.064-14.272l57.728-29.44a16 16 0 0 1 14.4 0l356.224 179.456 365.44-179.584a16 16 0 0 1 14.208 0v0.128z m59.392-390.784a8 8 0 0 1 0 14.336L513.536 522.496a16 16 0 0 1-14.272-0.064L78.144 310.208a8 8 0 0 1-0.064-14.272L499.2 81.664a16 16 0 0 1 14.4-0.064l431.872 214.336zM506.816 158.592L223.36 302.72l283.52 142.848 290.56-142.72-290.56-144.256h-0.064z" p-id="1685"></path></svg>