<?xml version="1.0" standalone="no"?><!DOCTYPE svg PUBLIC "-//W3C//DTD SVG 1.1//EN" "http://www.w3.org/Graphics/SVG/1.1/DTD/svg11.dtd"><svg t="1658326540417" class="icon" viewBox="0 0 1024 1024" version="1.1" xmlns="http://www.w3.org/2000/svg" p-id="23440" xmlns:xlink="http://www.w3.org/1999/xlink" width="200" height="200"><defs><style type="text/css">@font-face { font-family: feedback-iconfont; src: url("//at.alicdn.com/t/font_1031158_u69w8yhxdu.woff2?t=1630033759944") format("woff2"), url("//at.alicdn.com/t/font_1031158_u69w8yhxdu.woff?t=1630033759944") format("woff"), url("//at.alicdn.com/t/font_1031158_u69w8yhxdu.ttf?t=1630033759944") format("truetype"); }
</style></defs><path d="M512 64a448 448 0 1 1 0 896A448 448 0 0 1 512 64z m364.16 524.48l-6.016 8.128a447.36 447.36 0 0 1-358.528 179.392 447.36 447.36 0 0 1-363.456-185.984 372.224 372.224 0 0 0 728-1.536z m-497.28-252.8l-7.552 2.752A384.448 384.448 0 0 0 175.36 510.336L174.464 512l0.896 1.664a384.384 384.384 0 0 0 203.52 174.72A226.624 226.624 0 0 1 296 512c0-71.616 32.384-135.36 82.816-176.384z m266.944 0.512l2.56 2.048A226.816 226.816 0 0 1 727.936 512a226.688 226.688 0 0 1-82.112 175.808 384.32 384.32 0 0 0 201.92-174.08L848.704 512l-0.896-1.664a384.448 384.448 0 0 0-201.984-174.144zM512 352C428.608 352 360 423.104 360 512S428.608 672 512 672s152-71.104 152-160S595.392 352 512 352z m0 100.032a60.032 60.032 0 1 1 0 120 60.032 60.032 0 0 1 0-120.064z m0-312A372.16 372.16 0 0 0 148.224 433.92a447.36 447.36 0 0 1 363.392-185.92 447.424 447.424 0 0 1 364.48 187.52A372.096 372.096 0 0 0 512 140.032z" p-id="23441"></path></svg>