<?xml version="1.0" standalone="no"?><!DOCTYPE svg PUBLIC "-//W3C//DTD SVG 1.1//EN" "http://www.w3.org/Graphics/SVG/1.1/DTD/svg11.dtd"><svg t="1678352831357" class="icon" viewBox="0 0 1024 1024" version="1.1" xmlns="http://www.w3.org/2000/svg" p-id="996" xmlns:xlink="http://www.w3.org/1999/xlink" width="200" height="200"><path d="M512 64a448 448 0 1 1 0 896 448 448 0 0 1 0-896z m349.248 576.384l-1.152 1.088A510.208 510.208 0 0 1 512 777.984a510.208 510.208 0 0 1-349.248-137.6 372.16 372.16 0 0 0 698.496 0zM512 305.984A443.648 443.648 0 0 0 140.416 506.88l-0.384 0.576v1.088l0.384 0.64a443.648 443.648 0 0 0 366.656 200.768H512A443.648 443.648 0 0 0 883.584 509.12l0.384-0.576v-1.024l-0.384-0.64a443.648 443.648 0 0 0-366.656-200.768H512zM512 352a160 160 0 1 1 0 320 160 160 0 0 1 0-320z m0 60.032a100.032 100.032 0 1 0 0 200 100.032 100.032 0 0 0 0-200.064z m0-272a372.096 372.096 0 0 0-344.384 231.104A510.144 510.144 0 0 1 512 238.08 510.08 510.08 0 0 1 856.384 371.2 372.096 372.096 0 0 0 512 139.968z" p-id="997"></path></svg>