<?xml version="1.0" standalone="no"?><!DOCTYPE svg PUBLIC "-//W3C//DTD SVG 1.1//EN" "http://www.w3.org/Graphics/SVG/1.1/DTD/svg11.dtd"><svg t="1659949779624" class="icon" viewBox="0 0 1024 1024" version="1.1" xmlns="http://www.w3.org/2000/svg" p-id="34196" xmlns:xlink="http://www.w3.org/1999/xlink" width="200" height="200"><defs><style type="text/css">@font-face { font-family: feedback-iconfont; src: url("//at.alicdn.com/t/font_1031158_u69w8yhxdu.woff2?t=1630033759944") format("woff2"), url("//at.alicdn.com/t/font_1031158_u69w8yhxdu.woff?t=1630033759944") format("woff"), url("//at.alicdn.com/t/font_1031158_u69w8yhxdu.ttf?t=1630033759944") format("truetype"); }
</style></defs><path d="M928 444.032h-108.032V330.368a32 32 0 0 0-32-32H473.024L355.712 186.24a8.128 8.128 0 0 0-5.504-2.176H96a32 32 0 0 0-32 32v592a32 32 0 0 0 32 32h697.984a32.064 32.064 0 0 0 29.696-20.032l134.016-331.968a32 32 0 0 0-29.696-44.032zM136 256H324.48l119.68 114.368h303.808v73.6H238.08a32.064 32.064 0 0 0-29.696 20.032l-72.32 179.2V256z m635.328 512H158.976l103.296-256h612.48l-103.424 256z" p-id="34197"></path></svg>