<?xml version="1.0" standalone="no"?><!DOCTYPE svg PUBLIC "-//W3C//DTD SVG 1.1//EN" "http://www.w3.org/Graphics/SVG/1.1/DTD/svg11.dtd"><svg t="1712644489373" class="icon" viewBox="0 0 1024 1024" version="1.1" xmlns="http://www.w3.org/2000/svg" p-id="834" xmlns:xlink="http://www.w3.org/1999/xlink" width="200" height="200"><path d="M541.952 504.064c20.352 0 41.344 0.96 62.72 2.816l3.84 0.384 2.176 0.192c4.096 0.384 7.232 3.84 7.232 7.936v52.288a8 8 0 0 1-8.832 7.936l-2.432-0.256c-20.864-2.048-41.728-3.2-62.08-3.264h-2.88c-82.176-0.32-175.488 17.6-244.608 47.616l-1.152 0.448v81.92H609.92c4.352 0 7.872 3.456 8 7.68v52.352a8 8 0 0 1-8 7.936H235.776a8 8 0 0 1-7.808-7.68V606.272a47.232 47.232 0 0 1 26.88-42.176c81.728-39.104 190.272-59.648 281.6-60.16l5.504 0.128z m-303.296 23.552l-1.152 0.576a86.848 86.848 0 0 0-47.68 60.544c-30.08 6.912-58.752 15.936-84.032 26.688l-1.856 0.768v73.856h75.968c4.352 0 7.872 3.456 8 7.808v48.192a8 8 0 0 1-8 8.064H48a8 8 0 0 1-8-8.064V602.752a43.051 43.051 0 0 1 24.064-38.656c47.232-22.592 103.68-38.272 159.808-46.976l8.384-1.28 2.816-0.384a6.4 6.4 0 0 1 3.648 12.16h-0.064z m87.296-303.552c21.888 0 42.88 6.656 60.416 18.496l0.896 0.64 0.768 0.512 0.512 0.384 1.216 0.896 1.024 0.768a7.99 7.99 0 0 1 2.56 9.216l-0.64 1.92-0.512 1.216-0.384 1.088-0.256 0.64a158.208 158.208 0 0 0 13.504 132.48l0.512 0.96 0.448 0.64 0.448 0.768a8.128 8.128 0 0 1-0.576 9.984l-0.576 0.64-0.512 0.576-0.768 0.768-0.448 0.512a108.16 108.16 0 0 1-76.48 32.896h-1.152a108.032 108.032 0 0 1-1.792-216h1.792z m215.488-30.976A118.528 118.528 0 0 1 544 430.016h-4.48a118.528 118.528 0 0 1 0-236.928h1.92zM326.016 288a43.968 43.968 0 1 0 0 88 43.968 43.968 0 0 0 0-88z m166.528 22.72a50.56 50.56 0 0 0 47.296 51.264h2.752a50.56 50.56 0 0 0 42.368-24.768l0.256-0.448a50.56 50.56 0 0 0-43.2-75.776 50.624 50.624 0 0 0-49.472 49.728zM680 488h48c4.416 0 8 3.584 8 8v350.016a8 8 0 0 1-8 8h-48a8 8 0 0 1-8-8V496c0-4.416 3.584-8 8-8z m120-132.032h48c4.416 0 8 3.584 8 8v482.048a8 8 0 0 1-8 8h-48a8 8 0 0 1-8-8V364.032c0-4.48 3.584-8 8-8zM920 224h48c4.416 0 8 3.584 8 8v614.016a8 8 0 0 1-8 8h-48a8 8 0 0 1-8-8V232c0-4.416 3.584-8 8-8z" p-id="835"></path></svg>