<?xml version="1.0" standalone="no"?><!DOCTYPE svg PUBLIC "-//W3C//DTD SVG 1.1//EN" "http://www.w3.org/Graphics/SVG/1.1/DTD/svg11.dtd"><svg t="1679050498683" class="icon" viewBox="0 0 1024 1024" version="1.1" xmlns="http://www.w3.org/2000/svg" p-id="3044" xmlns:xlink="http://www.w3.org/1999/xlink" width="200" height="200"><path d="M369.92 139.52l1.28 1.728 163.456 213.696 1.024 1.408a8 8 0 0 1-6.4 12.736h-26.624l135.168 176.704 2.048 2.752a8 8 0 0 1-6.528 12.8h-80.256l110.848 144.832 3.84 5.248c2.944 3.904 2.176 8.96-1.344 11.52a8 8 0 0 1-4.736 1.6H395.008V880a7.76 7.76 0 0 1-1.408 4.48 6.848 6.848 0 0 1-5.696 3.52h-48.896a8 8 0 0 1-8-8V724.544H65.28a8 8 0 0 1-6.4-12.8l2.176-2.88L173.888 561.28H91.136a6.784 6.784 0 0 1-5.568-10.752l138.752-181.44h-26.56a8 8 0 0 1-6.4-12.8l1.472-1.92 163.456-213.76 0.832-1.088a8 8 0 0 1 12.8 0z m374.912 84.672l1.664 2.112 132.16 172.8a7.552 7.552 0 0 1-5.824 12.16H852.8l108.032 141.184 2.432 3.2 0.384 0.576a8 8 0 0 1-6.464 12.736h-62.976l91.008 118.912 1.664 2.368a8 8 0 0 1-6.4 12.672H766.016V832a8 8 0 0 1-8 8h-40a8 8 0 0 1-8-8V662.912c0-4.352 3.456-7.872 7.68-8h181.888L797.056 520.96h79.296L755.648 363.264h35.2l-52.352-68.352-52.288 68.352h35.136l-75.008 98.048a8 8 0 0 1-12.736 0l-20.16-26.368a8 8 0 0 1 0-9.728l10.752-13.952h-19.008a8 8 0 0 1-6.272-12.8l2.368-3.264 130.24-170.24 0.64-0.768a8 8 0 0 1 12.672 0z m-381.312 5.76l-60.544 79.104h42.816L198.784 501.312h96.576l-124.928 163.2h386.112l-124.864-163.2h96.576L381.248 309.056h42.816l-60.544-79.104z" p-id="3045"></path></svg>