<?xml version="1.0" standalone="no"?><!DOCTYPE svg PUBLIC "-//W3C//DTD SVG 1.1//EN" "http://www.w3.org/Graphics/SVG/1.1/DTD/svg11.dtd"><svg t="1679048029967" class="icon" viewBox="0 0 1024 1024" version="1.1" xmlns="http://www.w3.org/2000/svg" p-id="2106" xmlns:xlink="http://www.w3.org/1999/xlink" width="200" height="200"><path d="M431.296 69.568l197.376 257.728a8 8 0 0 1-6.08 12.8H588.16l162.88 212.672a8 8 0 0 1-6.144 12.8H647.36l0.32 0.448h-72.64a16 16 0 0 1-12.736-6.272l-34.56-45.184a8 8 0 0 1 6.336-12.864h97.28L458.56 276.16h50.368l-83.84-109.44-83.776 109.44h50.368l-78.848 102.912-93.888 122.624h113.408l-78.784 102.912-67.968 88.64h267.52c4.352 0 7.872 3.456 8 7.744v240a8 8 0 0 1-7.744 8h-56.32a8 8 0 0 1-7.936-7.744v-184H72.192a8 8 0 0 1-6.528-12.672l0.192-0.192 136.896-178.688h-97.28a8 8 0 0 1-6.528-12.672l0.192-0.192 162.88-212.672H227.84a8 8 0 0 1-6.528-12.672l0.128-0.192L418.752 69.76a8 8 0 0 1 12.544-0.192z m397.248 544.128a32 32 0 0 1 32 31.424v80.448l66.944-51.392A15.232 15.232 0 0 1 952 685.888v191.04a15.296 15.296 0 0 1-24.192 12.288l-0.32-0.192-66.944-51.392v79.36a32 32 0 0 1-31.424 32H557.312a32 32 0 0 1-32-31.488V757.248l-0.256-111.808a32 32 0 0 1 31.488-31.424H576l108.288-0.32h144.256z m-32 64H589.312v207.36h207.232v-207.36z" p-id="2107"></path></svg>