<?xml version="1.0" standalone="no"?><!DOCTYPE svg PUBLIC "-//W3C//DTD SVG 1.1//EN" "http://www.w3.org/Graphics/SVG/1.1/DTD/svg11.dtd"><svg t="1648447179068" class="icon" viewBox="0 0 1024 1024" version="1.1" xmlns="http://www.w3.org/2000/svg" p-id="66844" xmlns:xlink="http://www.w3.org/1999/xlink" width="200" height="200"><defs><style type="text/css">@font-face { font-family: feedback-iconfont; src: url("//at.alicdn.com/t/font_1031158_u69w8yhxdu.woff2?t=1630033759944") format("woff2"), url("//at.alicdn.com/t/font_1031158_u69w8yhxdu.woff?t=1630033759944") format("woff"), url("//at.alicdn.com/t/font_1031158_u69w8yhxdu.ttf?t=1630033759944") format("truetype"); }
</style></defs><path d="M904.045714 512h-56.027428a8.045714 8.045714 0 0 0-8.045715 8.045714v319.926857H184.027429V184.027429H503.954286c4.388571 0 7.972571-3.657143 7.972571-8.045715v-55.954285a8.045714 8.045714 0 0 0-8.045714-8.045715H144.091429a31.963429 31.963429 0 0 0-32.036572 32.036572V879.908571c0 17.700571 14.336 32.036571 32.036572 32.036572H879.908571a31.963429 31.963429 0 0 0 32.036572-32.036572V520.045714a8.045714 8.045714 0 0 0-8.045714-7.972571z" p-id="66845"></path><path d="M355.913143 534.893714L354.011429 653.897143a16.091429 16.091429 0 0 0 16.018285 16.164571h0.365715l117.979428-2.925714a8.265143 8.265143 0 0 0 5.412572-2.194286l415.890285-415.085714a8.045714 8.045714 0 0 0 0-11.264l-124.342857-124.196571a8.265143 8.265143 0 0 0-11.410286 0L358.253714 529.334857a8.338286 8.338286 0 0 0-2.267428 5.558857z m63.488 23.625143L779.702857 198.948571l45.202286 45.056-360.521143 359.716572-45.714286 1.097143 0.731429-46.372572z" p-id="66846"></path></svg>