<?xml version="1.0" standalone="no"?><!DOCTYPE svg PUBLIC "-//W3C//DTD SVG 1.1//EN" "http://www.w3.org/Graphics/SVG/1.1/DTD/svg11.dtd"><svg t="1688017193920" class="icon" viewBox="0 0 1024 1024" version="1.1" xmlns="http://www.w3.org/2000/svg" p-id="1200" xmlns:xlink="http://www.w3.org/1999/xlink" width="200" height="200"><path d="M476.032 787.968V864h376.96a8 8 0 0 0 7.616-5.44l0.384-2.56v-59.968a8 8 0 0 0-8-8l-376.96-0.064z m198.848-626.24a8 8 0 0 0-12.864 6.272v74.048L476.032 241.92v76.032h185.984v73.984c0 6.72 7.68 10.432 12.864 6.336l142.08-112a8 8 0 0 0 0-12.608zM472 241.92A308.992 308.992 0 0 0 163.072 545.92l-0.064 5.12v3.968A308.992 308.992 0 0 0 466.88 864H476.032v-75.968h-4.032a232.96 232.96 0 0 1-232.96-229.12V551.04a232.96 232.96 0 0 1 229.12-232.96l3.84-0.064h4.032V241.984h-4.032z" p-id="1201"></path></svg>