<?xml version="1.0" standalone="no"?><!DOCTYPE svg PUBLIC "-//W3C//DTD SVG 1.1//EN" "http://www.w3.org/Graphics/SVG/1.1/DTD/svg11.dtd"><svg t="1672995141990" class="icon" viewBox="0 0 1024 1024" version="1.1" xmlns="http://www.w3.org/2000/svg" p-id="1889" xmlns:xlink="http://www.w3.org/1999/xlink" width="200" height="200"><path d="M520.768 527.616a8 8 0 0 1 8.704-6.912h0.256l354.624 47.36a8 8 0 0 1 4.8 13.376l-0.192 0.192-82.944 82.944 124.416 124.48a8 8 0 0 1 0.192 11.072l-0.192 0.192-130.112 130.112a8 8 0 0 1-11.072 0.192l-0.192-0.192-124.48-124.416-82.944 82.944a8 8 0 0 1-13.568-4.352v-0.256l-47.36-354.56a8 8 0 0 1 0-2.176zM184 752v40H224V864H144a32 32 0 0 1-32-32v-80h72z m161.984 40V864H264v-72h81.984z m121.984 0V864h-81.92v-72h81.92zM593.92 593.856l22.656 169.728 48.064-48.128 130.112 130.112 50.88-50.88-130.112-130.112 48.128-48.064-169.728-22.656z m-409.856 36.16v81.984H112V630.016h72z m0-122.048V590.08H112V507.968h72zM864 385.984v82.048h-72V385.92H864z m-680 0v81.984H112v-81.92h72zM864 264v81.984h-72V264H864z m-680 0v81.984H112V264h72zM832 112a32 32 0 0 1 32 32V224h-72v-40h-40V112H832z m-608 0v72h-40V224H112V144a32 32 0 0 1 32-32H224z m121.984 0v72H264V112h81.984z m121.984 0v72h-81.92V112h81.92z m122.048 0v72H507.968V112H590.08z m121.984 0v72H630.016V112h81.984z" p-id="1890"></path></svg>