<?xml version="1.0" standalone="no"?><!DOCTYPE svg PUBLIC "-//W3C//DTD SVG 1.1//EN" "http://www.w3.org/Graphics/SVG/1.1/DTD/svg11.dtd"><svg t="1657273562699" class="icon" viewBox="0 0 1024 1024" version="1.1" xmlns="http://www.w3.org/2000/svg" p-id="22772" xmlns:xlink="http://www.w3.org/1999/xlink" width="200" height="200"><defs><style type="text/css">@font-face { font-family: feedback-iconfont; src: url("//at.alicdn.com/t/font_1031158_u69w8yhxdu.woff2?t=1630033759944") format("woff2"), url("//at.alicdn.com/t/font_1031158_u69w8yhxdu.woff?t=1630033759944") format("woff"), url("//at.alicdn.com/t/font_1031158_u69w8yhxdu.ttf?t=1630033759944") format("truetype"); }
</style></defs><path d="M64 212h72v108H64z m0 148h72v108H64z m0 148h72v108H64z m0 148h72v108H64z m72 148H64v76a32 32 0 0 0 32 32h76v-72h-36zM96 64a32 32 0 0 0-32 32v76h72v-36h36V64H96z m116 0h108v72H212z m148 0h108v72H360z m148 0h108v72H508z m148 0h108v72H656zM212 840h108v72H212z m148 0h108v72H360z m480-668h72V96a32 32 0 0 0-32-32h-76v72h36z m0 40h72v108h-72z m0 148h72v108h-72z m108.69 497.59l-178-178 95.18-95.18a16 16 0 0 0-9.23-27.18l-324-42.62a16 16 0 0 0-17.95 18l42.63 324a16 16 0 0 0 27.17 9.23l95.18-95.18 178 178a16 16 0 0 0 22.63 0l68.36-68.36a16 16 0 0 0 0.03-22.71z" p-id="22773"></path></svg>