<?xml version="1.0" standalone="no"?><!DOCTYPE svg PUBLIC "-//W3C//DTD SVG 1.1//EN" "http://www.w3.org/Graphics/SVG/1.1/DTD/svg11.dtd"><svg t="1677985919184" class="icon" viewBox="0 0 1024 1024" version="1.1" xmlns="http://www.w3.org/2000/svg" p-id="2552" xmlns:xlink="http://www.w3.org/1999/xlink" width="200" height="200"><path d="M168 542.976c4.416 0 8 3.584 8 8v248h672V551.04c0-4.416 3.584-8 8-8h48c4.416 0 8 3.584 8 8v304a8 8 0 0 1-7.744 8H120a8 8 0 0 1-8-8v-304c0-4.416 3.584-8 8-8h48zM540.032 96c4.416 0 7.936 3.584 7.936 8v66.624l53.504-30.848a8 8 0 0 1 10.944 2.88l20.032 34.688a8 8 0 0 1-2.944 10.88l-81.536 47.104v118.336l102.528-59.2v-94.08c0-4.352 3.456-7.872 7.744-8h40.256c4.288 0 7.872 3.392 8 7.68v62.08l57.728-33.28a8 8 0 0 1 10.88 2.88l28.032 48.512a8 8 0 0 1-2.944 10.88l-57.728 33.344 53.504 30.912c3.84 2.176 5.12 7.04 2.944 10.88l-19.968 34.688A8 8 0 0 1 768 403.84l-81.536-47.104L584 415.936l102.464 59.2L768 428.096a8 8 0 0 1 10.752 2.752l0.192 0.192 19.968 34.624a8 8 0 0 1-2.688 10.816l-0.256 0.128-53.504 30.912 57.728 33.28a8.045 8.045 0 0 1 2.944 10.944l-28.032 48.512a8 8 0 0 1-10.88 2.944l-57.728-33.344v61.76a8 8 0 0 1-8 8h-40a8 8 0 0 1-8-8V537.6l-102.464-59.2v118.4l81.472 47.04c3.712 2.112 5.12 6.848 3.072 10.688l-0.128 0.192-20.032 34.688a8 8 0 0 1-10.688 3.008l-0.256-0.128-53.44-30.848v66.624a8 8 0 0 1-8.064 8h-55.936a8 8 0 0 1-8-8V661.44l-53.504 30.848a8 8 0 0 1-10.944-2.88l-20.032-34.688a8 8 0 0 1 2.944-10.88l81.536-47.104v-118.4L373.44 537.6v94.08a8 8 0 0 1-7.744 8H325.44a8 8 0 0 1-8-7.68v-62.08l-57.728 33.28a8 8 0 0 1-10.88-2.88L220.8 551.68a8 8 0 0 1 2.944-10.88l57.728-33.344-53.504-30.912a8 8 0 0 1-2.944-10.88l19.968-34.688A8 8 0 0 1 256 428.16l81.536 47.104L440 416l-102.464-59.2L256 403.904a8 8 0 0 1-10.752-2.752l-0.192-0.192-19.968-34.624a8 8 0 0 1 2.688-10.816l0.256-0.128 53.504-30.912-57.728-33.28a8 8 0 0 1-2.944-10.944l28.032-48.512a8 8 0 0 1 10.88-2.944l57.728 33.344v-61.76c0-4.48 3.584-8 8-8h40c4.48 0 8 3.584 8 8V294.4l102.464 59.2V235.2l-81.472-47.04a8 8 0 0 1-3.072-10.688l0.128-0.192 20.032-34.688a8 8 0 0 1 10.688-3.008l0.256 0.128 53.44 30.848V104c0-4.416 3.584-8 8-8h56z" p-id="2553"></path></svg>