<?xml version="1.0" standalone="no"?><!DOCTYPE svg PUBLIC "-//W3C//DTD SVG 1.1//EN" "http://www.w3.org/Graphics/SVG/1.1/DTD/svg11.dtd"><svg t="1653042529288" class="icon" viewBox="0 0 1024 1024" version="1.1" xmlns="http://www.w3.org/2000/svg" p-id="2654" xmlns:xlink="http://www.w3.org/1999/xlink" width="200" height="200"><defs><style type="text/css">@font-face { font-family: feedback-iconfont; src: url("//at.alicdn.com/t/font_1031158_u69w8yhxdu.woff2?t=1630033759944") format("woff2"), url("//at.alicdn.com/t/font_1031158_u69w8yhxdu.woff?t=1630033759944") format("woff"), url("//at.alicdn.com/t/font_1031158_u69w8yhxdu.ttf?t=1630033759944") format("truetype"); }
</style></defs><path d="M112 456a8 8 0 0 0 8 8h312a32 32 0 0 0 32-32V120a8 8 0 0 0-8-8h-64a8 8 0 0 0-8 8v264H120a8 8 0 0 0-8 8z m456 456.5h64a8 8 0 0 0 8-8v-264h264a8 8 0 0 0 8-8v-64a8 8 0 0 0-8-8H592a32 32 0 0 0-32 32v312a8 8 0 0 0 8 8z" p-id="2655"></path></svg>