<?xml version="1.0" standalone="no"?><!DOCTYPE svg PUBLIC "-//W3C//DTD SVG 1.1//EN" "http://www.w3.org/Graphics/SVG/1.1/DTD/svg11.dtd"><svg t="1648463647952" class="icon" viewBox="0 0 1024 1024" version="1.1" xmlns="http://www.w3.org/2000/svg" p-id="111516" xmlns:xlink="http://www.w3.org/1999/xlink" width="200" height="200"><defs><style type="text/css">@font-face { font-family: feedback-iconfont; src: url("//at.alicdn.com/t/font_1031158_u69w8yhxdu.woff2?t=1630033759944") format("woff2"), url("//at.alicdn.com/t/font_1031158_u69w8yhxdu.woff?t=1630033759944") format("woff"), url("//at.alicdn.com/t/font_1031158_u69w8yhxdu.ttf?t=1630033759944") format("truetype"); }
</style></defs><path d="M840.363 668c11.007 0 19.93 8.944 19.93 19.977v77.766l56.333-44.886a13.058 13.058 0 0 1 8.038-2.776c6.88 0 13.344 5.443 13.336 13.343v166.564c0 7.9-6.464 13.344-13.344 13.344a13.058 13.058 0 0 1-8.03-2.777l-56.334-44.878v77.346c0 11.033-8.922 19.977-19.929 19.977H587.93C576.923 961 568 952.056 568 941.023V687.977c0-11.033 8.923-19.977 19.929-19.977zM511.804 64c68.211 0 125.373 51.587 132.35 119.44 155.68 54.61 267.305 202.88 267.305 377.21a401.703 401.703 0 0 1-6.835 74 59.925 59.925 0 0 1-0.452 1.877l-72.796 0.012c2.465-8.248 3.047-15.61 4.428-26.779a331.09 331.09 0 0 0 3.65-49.06c0-138.78-86.28-257.41-208.13-305.16-22.33 45.64-68.71 74.57-119.52 74.55-50.81 0.02-97.19-28.91-119.52-74.55-121.85 47.75-208.13 166.38-208.13 305.16a331.09 331.09 0 0 0 3.65 49.06c2.98-0.2 5.96-0.3 8.94-0.3 49.17-0.017 94.344 27.077 117.481 70.464 23.138 43.386 20.469 95.994-6.94 136.816 66.424 53.047 148.33 76.633 228.52 70.758v72.042c0 0.031 0 0.062 0.003 0.092-100.61 6.039-203.041-25.878-284.384-95.742-62.233 27.85-135.447 4.154-169.56-54.879C47.75 749.98 63.779 674.712 118.984 634.7a401.31 401.31 0 0 1-6.83-74c0-174.33 111.65-322.6 267.3-377.16C386.384 115.647 443.56 64 511.804 64zM811 716H616v197h195V716z m-615.34-34.826c-33.54 0-60.83 27-61.187 60.537-0.354 33.203 25.818 60.562 58.877 61.8l1.004 0.029h2.61c33.532-0.715 60.24-28.29 59.882-61.829-0.358-33.537-27.647-60.537-61.187-60.537z m290.432-539.39c-25.937 12.069-40.003 40.54-33.828 68.474 6.175 27.933 30.933 47.822 59.54 47.832a60.9 60.9 0 0 0 46.7-21.73c18.417-21.89 19.147-53.64 1.755-76.354-17.39-22.714-48.23-30.29-74.167-18.222z" p-id="111517"></path></svg>