<?xml version="1.0" standalone="no"?><!DOCTYPE svg PUBLIC "-//W3C//DTD SVG 1.1//EN" "http://www.w3.org/Graphics/SVG/1.1/DTD/svg11.dtd"><svg t="1679048048523" class="icon" viewBox="0 0 1024 1024" version="1.1" xmlns="http://www.w3.org/2000/svg" p-id="2882" xmlns:xlink="http://www.w3.org/1999/xlink" width="200" height="200"><path d="M488 65.984c63.04 0 115.072 47.04 122.944 107.904l0.256 1.792-0.064-0.64-0.128-0.64a380.224 380.224 0 0 1 256.256 335.808l0.128 1.728v1.408l0.192 2.56 0.064 2.944 0.064 1.92a8 8 0 0 1-7.68 8.256H799.68a8 8 0 0 1-8-7.68l-0.128-3.008-0.128-2.624v-0.96l-0.128-1.344v-0.832l-0.064-0.384a304.192 304.192 0 0 0-194.688-262.208l0.256-0.448 0.192-0.384v-0.064a123.968 123.968 0 0 1-216.896 2.048l-0.64-1.152-3.456 1.28a304.064 304.064 0 0 0-188.224 330.752h2.24a124.032 124.032 0 0 1 106.688 187.2l-0.448 0.704a302.528 302.528 0 0 0 162.624 66.688l1.28 0.128 1.472 0.128 1.536 0.128 2.176 0.128 2.368 0.128 2.56 0.128 1.92 0.128 2.88 0.128 2.24 0.064c4.288 0.192 7.68 3.712 7.68 8v60.032a8 8 0 0 1-8 8h-0.128l-3.328-0.128-2.944-0.128-2.816-0.128-2.688-0.128-2.496-0.128-1.792-0.064-1.664-0.128-2.048-0.128-1.472-0.128-0.896-0.064a378.432 378.432 0 0 1-216.576-92.288 123.52 123.52 0 0 0 6.272-2.816l0.64-0.32-0.896 0.448a124.032 124.032 0 0 1-129.792-209.856l0.64-0.512A380.16 380.16 0 0 1 362.24 175.296l2.816-0.96-0.128 0.704v0.64l0.192-1.792A124.032 124.032 0 0 1 488.064 65.984z m348.544 510.72a32 32 0 0 1 32 31.424v80.384l66.944-51.328A15.232 15.232 0 0 1 960 648.896v190.976a15.296 15.296 0 0 1-24.192 12.352l-0.32-0.256-66.944-51.328V880a32 32 0 0 1-31.424 32H565.312a32 32 0 0 1-32-31.488V720.256l-0.256-111.808a32 32 0 0 1 31.488-31.424H584l108.288-0.32h144.256z m-32 64H597.312V848h207.232V640.704z m-614.528 9.28a56 56 0 1 0 0 112 56 56 0 0 0 0-112zM488 134.016a56 56 0 1 0 0 112 56 56 0 0 0 0-112z" p-id="2883"></path></svg>