<?xml version="1.0" standalone="no"?><!DOCTYPE svg PUBLIC "-//W3C//DTD SVG 1.1//EN" "http://www.w3.org/Graphics/SVG/1.1/DTD/svg11.dtd"><svg t="1653042533369" class="icon" viewBox="0 0 1024 1024" version="1.1" xmlns="http://www.w3.org/2000/svg" p-id="2797" xmlns:xlink="http://www.w3.org/1999/xlink" width="200" height="200"><defs><style type="text/css">@font-face { font-family: feedback-iconfont; src: url("//at.alicdn.com/t/font_1031158_u69w8yhxdu.woff2?t=1630033759944") format("woff2"), url("//at.alicdn.com/t/font_1031158_u69w8yhxdu.woff?t=1630033759944") format("woff"), url("//at.alicdn.com/t/font_1031158_u69w8yhxdu.ttf?t=1630033759944") format("truetype"); }
</style></defs><path d="M512 120a8 8 0 0 0-8-8H144a32 32 0 0 0-32 32v360a8 8 0 0 0 8 8h64a8 8 0 0 0 8-8V192h312a8 8 0 0 0 8-8z m392 392h-64a8 8 0 0 0-8 8v312H520a8 8 0 0 0-8 8v64a8 8 0 0 0 8 8h360a32 32 0 0 0 32-32V520a8 8 0 0 0-8-8z" p-id="2798"></path></svg>