<?xml version="1.0" standalone="no"?><!DOCTYPE svg PUBLIC "-//W3C//DTD SVG 1.1//EN" "http://www.w3.org/Graphics/SVG/1.1/DTD/svg11.dtd"><svg t="1648463602601" class="icon" viewBox="0 0 1024 1024" version="1.1" xmlns="http://www.w3.org/2000/svg" p-id="111340" xmlns:xlink="http://www.w3.org/1999/xlink" width="200" height="200"><defs><style type="text/css">@font-face { font-family: feedback-iconfont; src: url("//at.alicdn.com/t/font_1031158_u69w8yhxdu.woff2?t=1630033759944") format("woff2"), url("//at.alicdn.com/t/font_1031158_u69w8yhxdu.woff?t=1630033759944") format("woff"), url("//at.alicdn.com/t/font_1031158_u69w8yhxdu.ttf?t=1630033759944") format("truetype"); }
</style></defs><path d="M512 64.46A133.05 133.05 0 0 0 379.65 184C224 238.56 112.35 386.83 112.35 561.16a401.31 401.31 0 0 0 6.83 74 133.06 133.06 0 0 0 132.44 229.19 399.63 399.63 0 0 0 520.76 0 133.06 133.06 0 0 0 132.44-229.24 401.31 401.31 0 0 0 6.83-74c0-174.33-111.62-322.6-267.3-377.21A133.05 133.05 0 0 0 512 64.46z m0 194.09a61 61 0 1 1 46.7-21.73 60.9 60.9 0 0 1-46.7 21.73z m0 72A133 133 0 0 0 631.52 256c121.85 47.75 208.13 166.38 208.13 305.16a330.65 330.65 0 0 1-3.65 49.06q-4.47-0.3-8.94-0.3A133.09 133.09 0 0 0 716.48 817.2a327.71 327.71 0 0 1-409 0 133.09 133.09 0 0 0-110.54-207.28q-4.47 0-8.94 0.3a330.65 330.65 0 0 1-3.65-49.06c0-138.78 86.28-257.41 208.13-305.16A133 133 0 0 0 512 330.55zM826.84 804a61 61 0 1 1 2.61 0h-2.61z m-629.68 0h-2.61a61.19 61.19 0 1 1 2.61 0z" p-id="111341"></path></svg>