<?xml version="1.0" standalone="no"?><!DOCTYPE svg PUBLIC "-//W3C//DTD SVG 1.1//EN" "http://www.w3.org/Graphics/SVG/1.1/DTD/svg11.dtd"><svg t="1656905887433" class="icon" viewBox="0 0 1024 1024" version="1.1" xmlns="http://www.w3.org/2000/svg" p-id="22694" xmlns:xlink="http://www.w3.org/1999/xlink" width="200" height="200"><defs><style type="text/css">@font-face { font-family: feedback-iconfont; src: url("//at.alicdn.com/t/font_1031158_u69w8yhxdu.woff2?t=1630033759944") format("woff2"), url("//at.alicdn.com/t/font_1031158_u69w8yhxdu.woff?t=1630033759944") format("woff"), url("//at.alicdn.com/t/font_1031158_u69w8yhxdu.ttf?t=1630033759944") format("truetype"); }
</style></defs><path d="M290.005333 236.373333l43.904-43.861333c4.693333-4.693333 1.877333-12.8-4.693333-13.610667L168.96 160a8.021333 8.021333 0 0 0-8.917333 8.917333l18.901333 160.170667c0.853333 6.613333 8.917333 9.386667 13.653333 4.693333L236.245333 290.133333 370.005333 423.68a8.021333 8.021333 0 0 0 11.306667 0l42.368-42.24a8.021333 8.021333 0 0 0 0-11.349333L290.005333 236.416z m352.682667 187.306667a8.021333 8.021333 0 0 0 11.306667 0l133.717333-133.546667 43.690667 43.648c4.693333 4.693333 12.8 1.92 13.610666-4.693333l18.901334-160.085333a8.021333 8.021333 0 0 0-8.917334-8.917334l-160.213333 18.901334a8.021333 8.021333 0 0 0-4.693333 13.653333l43.946666 43.861333-133.717333 133.504a8.021333 8.021333 0 0 0 0 11.306667l42.368 42.368z m202.325333 271.232a8.021333 8.021333 0 0 0-13.653333-4.693333L787.754667 733.866667l-133.717334-133.589334a8.021333 8.021333 0 0 0-11.306666 0l-42.368 42.24a8.021333 8.021333 0 0 0 0 11.349334l133.674666 133.674666-43.904 43.946667c-4.693333 4.693333-1.877333 12.8 4.693334 13.568l160.213333 18.901333a8.021333 8.021333 0 0 0 8.917333-8.917333l-18.901333-160.170667zM381.312 600.32a8.021333 8.021333 0 0 0-11.306667 0L236.288 733.866667l-43.690667-43.648a8.021333 8.021333 0 0 0-13.610666 4.693333l-18.901334 160.085333a8.021333 8.021333 0 0 0 8.917334 8.917334l160.213333-18.901334a8.021333 8.021333 0 0 0 4.693333-13.653333l-43.946666-43.776 133.717333-133.546667a8.021333 8.021333 0 0 0 0-11.349333l-42.368-42.368z" p-id="22695"></path></svg>