<?xml version="1.0" standalone="no"?><!DOCTYPE svg PUBLIC "-//W3C//DTD SVG 1.1//EN" "http://www.w3.org/Graphics/SVG/1.1/DTD/svg11.dtd"><svg t="1740723556447" class="icon" viewBox="0 0 1024 1024" version="1.1" xmlns="http://www.w3.org/2000/svg" p-id="1160" xmlns:xlink="http://www.w3.org/1999/xlink" width="200" height="200"><path d="M880 112a32 32 0 0 1 32 32v736a32 32 0 0 1-32 32H595.968a8 8 0 0 1-7.936-8v-48c0-4.416 3.52-8 7.936-8H624v-88h-28.032a8 8 0 0 1-7.936-8v-48c0-4.416 3.52-8 7.936-8H848V328H595.968a8 8 0 0 1-7.936-8v-48c0-4.416 3.52-8 7.936-8H624v-88h-28.032a8 8 0 0 1-7.936-8v-48c0-4.416 3.52-8 7.936-8H880z m-452.032 0c4.48 0 8 3.584 8 8v48a8 8 0 0 1-8 8H400v88h28.032c4.416 0 8 3.584 8 8v48a8 8 0 0 1-8 8H176v368h252.032c4.416 0 8 3.584 8 8v48a8 8 0 0 1-8 8H400v88h28.032c4.416 0 8 3.584 8 8v48a8 8 0 0 1-8 8H144a32 32 0 0 1-32-32V144a32 32 0 0 1 32-32h284.032z m104 0c4.48 0 8.064 3.584 8.064 8v784a8 8 0 0 1-8.064 8h-40.96a8 8 0 0 1-8-8V120c0-4.416 3.584-8 8-8h40.96zM352 760h-64v88h64v-88z m384 0h-64v88h64v-88z m-496 0h-64v88h64v-88z m608 0h-64v88h64v-88zM240 176h-64v88h64v-88z m496 0h-64v88h64v-88z m112 0h-64v88h64v-88z m-496 0h-64v88h64v-88z" p-id="1161"></path></svg>