<?xml version="1.0" standalone="no"?><!DOCTYPE svg PUBLIC "-//W3C//DTD SVG 1.1//EN" "http://www.w3.org/Graphics/SVG/1.1/DTD/svg11.dtd"><svg t="1656905891380" class="icon" viewBox="0 0 1024 1024" version="1.1" xmlns="http://www.w3.org/2000/svg" p-id="22838" xmlns:xlink="http://www.w3.org/1999/xlink" width="200" height="200"><defs><style type="text/css">@font-face { font-family: feedback-iconfont; src: url("//at.alicdn.com/t/font_1031158_u69w8yhxdu.woff2?t=1630033759944") format("woff2"), url("//at.alicdn.com/t/font_1031158_u69w8yhxdu.woff?t=1630033759944") format("woff"), url("//at.alicdn.com/t/font_1031158_u69w8yhxdu.ttf?t=1630033759944") format("truetype"); }
</style></defs><path d="M390.997333 240.896a8.021333 8.021333 0 0 0-13.610666-4.693333L333.696 279.893333 200.021333 146.346667a8.021333 8.021333 0 0 0-11.306666 0l-42.410667 42.282666a8.021333 8.021333 0 0 0 0 11.306667L280.021333 333.653333l-43.946666 43.904c-4.693333 4.693333-1.877333 12.8 4.693333 13.568l160.213333 18.901334a8.021333 8.021333 0 0 0 8.917334-8.874667l-18.901334-160.213333z m10.112 373.205333l-160.298666 18.901334a8.021333 8.021333 0 0 0-4.693334 13.610666l43.904 43.904-133.717333 133.461334a8.021333 8.021333 0 0 0 0 11.306666l42.410667 42.325334a8.021333 8.021333 0 0 0 11.264 0l133.717333-133.589334 43.690667 43.690667c4.693333 4.693333 12.8 1.877333 13.653333-4.693333l18.858667-160.128a7.936 7.936 0 0 0-8.789334-8.789334z m221.781334-204.202666l160.298666-18.901334a8.021333 8.021333 0 0 0 4.693334-13.610666L743.978667 333.653333l133.717333-133.589333a8.021333 8.021333 0 0 0 0-11.306667l-42.410667-42.325333a8.021333 8.021333 0 0 0-11.306666 0l-133.674667 133.546667-43.690667-43.733334a8.021333 8.021333 0 0 0-13.653333 4.693334l-18.858667 160.085333a7.936 7.936 0 0 0 8.789334 8.917333z m121.088 280.490666l43.946666-43.904c4.693333-4.693333 1.877333-12.8-4.693333-13.568l-160.213333-18.901333a8.021333 8.021333 0 0 0-8.917334 8.874667l18.901334 160.213333c0.810667 6.613333 8.917333 9.386667 13.610666 4.693333l43.690667-43.690666 133.717333 133.589333a8.021333 8.021333 0 0 0 11.264 0l42.410667-42.282667a8.021333 8.021333 0 0 0 0-11.306666l-133.717333-133.717334z" p-id="22839"></path></svg>