<?xml version="1.0" standalone="no"?><!DOCTYPE svg PUBLIC "-//W3C//DTD SVG 1.1//EN" "http://www.w3.org/Graphics/SVG/1.1/DTD/svg11.dtd"><svg t="1678008751439" class="icon" viewBox="0 0 1024 1024" version="1.1" xmlns="http://www.w3.org/2000/svg" p-id="1518" xmlns:xlink="http://www.w3.org/1999/xlink" width="200" height="200"><path d="M526.72 119.68l392 203.392A32 32 0 0 1 936 351.424V872a16 16 0 0 1-16 16H104a16 16 0 0 1-16-16V351.424a32 32 0 0 1 17.28-28.352l392-203.456a32 32 0 0 1 29.44 0zM656 712H368v24a16 16 0 0 1-16 16h-36.032a16 16 0 0 1-16-16v-3.2L185.152 816h653.696l-114.88-83.2v3.2a16 16 0 0 1-16 16H672a16 16 0 0 1-16-16v-24zM512 193.088L160 375.744V755.2l139.968-101.504V531.968l2.048-4.416-28.16-28.096a8 8 0 0 1 0-11.328l28.288-28.288a8 8 0 0 1 11.328 0l13.056 13.12 48.704-108.544a16 16 0 0 1 14.592-9.408H634.24a16 16 0 0 1 14.592 9.408l48.704 108.544 13.056-13.12a8 8 0 0 1 11.328 0l28.288 28.288a8 8 0 0 1 0 11.328l-28.16 28.16 1.984 4.416v121.664L864 755.2V375.744L512 193.088z m146.304 348.928H365.696l-1.728 3.712V648h296V545.728l-1.664-3.712z m-234.304 24a32 32 0 1 1 0 64 32 32 0 0 1 0-64z m176 0a32 32 0 1 1 0 64 32 32 0 0 1 0-64z m3.072-147.008H420.928l-30.08 67.008h242.304l-30.08-67.008z" p-id="1519"></path></svg>