<?xml version="1.0" standalone="no"?><!DOCTYPE svg PUBLIC "-//W3C//DTD SVG 1.1//EN" "http://www.w3.org/Graphics/SVG/1.1/DTD/svg11.dtd"><svg t="1677643949059" class="icon" viewBox="0 0 1024 1024" version="1.1" xmlns="http://www.w3.org/2000/svg" p-id="1934" xmlns:xlink="http://www.w3.org/1999/xlink" width="200" height="200"><path d="M512 188.928c99.328 0 192.512 38.4 262.656 108.544A367.424 367.424 0 0 1 883.2 559.616c0 105.472-44.032 204.8-121.344 274.944h-499.2a370.176 370.176 0 0 1-121.344-274.944C140.8 355.328 307.2 188.928 512 188.928m0-76.8a448.192 448.192 0 0 0-287.232 792.064c5.632 4.608 12.8 7.68 20.48 7.68H778.24c7.68 0 14.848-2.56 20.48-7.68a447.04 447.04 0 0 0 160.768-344.576A446.656 446.656 0 0 0 512 112.128zM309.76 768.512a7.424 7.424 0 0 1 0 10.752l-24.064 24.064a7.424 7.424 0 0 1-10.752 0 335.872 335.872 0 0 1-93.696-234.496A339.584 339.584 0 0 1 755.2 323.072a7.424 7.424 0 0 1 0 10.752l-24.064 24.064a7.424 7.424 0 0 1-10.752 0A290.432 290.432 0 0 0 309.76 768.512z m363.52-354.304l-105.984 145.92a55.68 55.68 0 0 1-45.056 65.024 56.32 56.32 0 0 1-65.024-45.056 55.68 55.68 0 0 1 65.024-65.024l145.92-105.984c1.536-1.024 3.584-1.024 5.12 1.024 1.024 1.024 1.024 2.56 0 4.096z m94.208 357.376l-28.16 28.16a8.064 8.064 0 0 1-11.264 0l-50.688-50.688a8.064 8.064 0 0 1 0-11.264l28.16-28.16a8.064 8.064 0 0 1 11.264 0l50.688 50.688a8.064 8.064 0 0 1 0 11.264z m65.536-194.048h-72.192a8.064 8.064 0 0 1-8.192-8.192v-39.936c0-4.608 3.584-8.192 8.192-8.192h72.192c4.608 0 8.192 3.584 8.192 8.192v39.936a8.064 8.064 0 0 1-8.192 8.192z" p-id="1935"></path></svg>