<?xml version="1.0" standalone="no"?><!DOCTYPE svg PUBLIC "-//W3C//DTD SVG 1.1//EN" "http://www.w3.org/Graphics/SVG/1.1/DTD/svg11.dtd"><svg t="1648462962605" class="icon" viewBox="0 0 1024 1024" version="1.1" xmlns="http://www.w3.org/2000/svg" p-id="110407" xmlns:xlink="http://www.w3.org/1999/xlink" width="200" height="200"><defs><style type="text/css">@font-face { font-family: feedback-iconfont; src: url("//at.alicdn.com/t/font_1031158_u69w8yhxdu.woff2?t=1630033759944") format("woff2"), url("//at.alicdn.com/t/font_1031158_u69w8yhxdu.woff?t=1630033759944") format("woff"), url("//at.alicdn.com/t/font_1031158_u69w8yhxdu.ttf?t=1630033759944") format("truetype"); }
</style></defs><path d="M928 512c17.523 0 31.714 14.015 32 31.47V880c0 17.523-14.015 31.714-31.47 31.996L928 912H96c-17.523 0-31.714-14.015-32-31.47V544c0-17.523 14.015-31.714 31.47-31.996L96 512h832z m-40 72H136v256h752V584z m-572 84v88h-88v-88h88z m160 0v88h-88v-88h88z m160 0v88h-88v-88h88z m160 0v88h-88v-88h88zM512 396c13.89 0 27.208 2.441 39.551 6.917 0.265 0.096 0.538 0.198 0.818 0.304l0.864 0.335 0.91 0.367 0.954 0.397c0.489 0.207 0.994 0.425 1.517 0.655l1.069 0.475 1.114 0.506a8 8 0 0 1 2.32 12.927l-43.46 43.46a8 8 0 0 1-11.112 0.195l-0.202-0.195-43.517-43.518a8 8 0 0 1 2.31-12.923l0.489-0.224 0.935-0.42 0.88-0.383c0.142-0.06 0.281-0.12 0.419-0.177l0.795-0.328C482.046 398.97 496.676 396 512 396z m0-164c58.284 0 112.41 17.808 157.231 48.28l1.065 0.732 0.754 0.526 1.197 0.846 1.277 0.915 1.827 1.328 1.969 1.45 1.57 1.169 0.54 0.405a8 8 0 0 1 0.86 12.058l-40.102 40.104a8 8 0 0 1-10.212 0.92l-1.967-1.353-1.357-0.92-1.256-0.84-1.155-0.76-1.054-0.68-0.329-0.208C590.767 315.72 552.752 304 512 304c-41.179 0-79.563 11.966-111.864 32.612l-0.942 0.609-1.036 0.683-1.527 1.028-2.145 1.47-0.46 0.32a8 8 0 0 1-10.22-0.915l-40.118-40.12a8 8 0 0 1 0.843-12.046l1.425-1.069 1.762-1.308 1.217-0.892 1.128-0.815 0.703-0.502 0.663-0.468C396.889 250.709 452.26 232 512 232z m0-168c106.773 0 204.822 37.353 281.792 99.704l1.61 1.315 2.265 1.88 1.713 1.436a8 8 0 0 1 0.506 11.778L760.1 219.9a8 8 0 0 1-10.717 0.54l-2.34-1.902-2.094-1.683-1.847-1.465-1.3-1.014C678.256 165.238 598.542 136 512 136c-86.358 0-165.917 29.114-229.396 78.061l-0.956 0.743-1.783 1.405-1.184 0.945-2.163 1.743-1.901 1.546a8 8 0 0 1-10.715-0.542l-39.774-39.773a8 8 0 0 1 0.517-11.788l2.897-2.417 2.58-2.129 2.265-1.84 1.333-1.067C310.15 100.23 406.844 64 512 64z" p-id="110408"></path></svg>