<?xml version="1.0" standalone="no"?><!DOCTYPE svg PUBLIC "-//W3C//DTD SVG 1.1//EN" "http://www.w3.org/Graphics/SVG/1.1/DTD/svg11.dtd"><svg t="1740451871745" class="icon" viewBox="0 0 1024 1024" version="1.1" xmlns="http://www.w3.org/2000/svg" p-id="1192" xmlns:xlink="http://www.w3.org/1999/xlink" width="200" height="200"><path d="M328.936 64c8.837 0 16 7.163 16 16v80H808c17.673 0 32 14.327 32 32v736c0 17.673-14.327 32-32 32H216c-17.673 0-32-14.327-32-32V192c0-17.673 14.327-32 32-32h39.936V80c0-8.837 7.163-16 16-16h57zM772 233H256v656h516V233zM452 757c17.673 0 32 14.327 32 32 0 17.673-14.327 32-32 32-17.673 0-32-14.327-32-32 0-17.673 14.327-32 32-32z m120 0c17.673 0 32 14.327 32 32 0 17.673-14.327 32-32 32-17.673 0-32-14.327-32-32 0-17.673 14.327-32 32-32zM374.794 302.304a6.83 6.83 0 0 1 11.464 7.045l-0.479 1.215-0.365 0.96-0.056 0.165c-20.513 67.187 1.603 140.05 20.683 180.817 19.82 42.348 34.95 136.622-27.171 193.132-0.534 0.485-1.073 0.968-1.617 1.447l-0.185 0.156a5.7 5.7 0 0 1-8.75-6.836l0.359-0.784 0.05-0.118c22.291-62.1-0.104-146.42-19.554-186.997-19.106-39.859-19.298-139.44 25.621-190.202z m131.824 0a6.83 6.83 0 0 1 11.463 7.045l-0.478 1.215-0.365 0.96-0.056 0.165c-20.513 67.187 1.603 140.05 20.682 180.817 19.82 42.348 34.951 136.622-27.17 193.132-0.534 0.485-1.073 0.968-1.618 1.447l-0.185 0.156a5.7 5.7 0 0 1-8.75-6.836l0.36-0.784 0.05-0.118c22.29-62.1-0.105-146.42-19.555-186.997-19.105-39.859-19.297-139.44 25.622-190.202z m131.823 0a6.83 6.83 0 0 1 11.464 7.045l-0.479 1.215-0.365 0.96-0.056 0.165c-20.513 67.187 1.603 140.05 20.683 180.817 19.82 42.348 34.95 136.622-27.171 193.132-0.534 0.485-1.073 0.968-1.618 1.447l-0.184 0.156a5.7 5.7 0 0 1-8.751-6.836l0.36-0.784 0.05-0.118c22.291-62.1-0.104-146.42-19.554-186.997-19.106-39.859-19.298-139.44 25.621-190.202z" p-id="1193"></path></svg>