<?xml version="1.0" standalone="no"?><!DOCTYPE svg PUBLIC "-//W3C//DTD SVG 1.1//EN" "http://www.w3.org/Graphics/SVG/1.1/DTD/svg11.dtd"><svg t="1705634133358" class="icon" viewBox="0 0 1024 1024" version="1.1" xmlns="http://www.w3.org/2000/svg" p-id="1217" xmlns:xlink="http://www.w3.org/1999/xlink" width="200" height="200"><path d="M616 880a32 32 0 0 1-32 32H144a32 32 0 0 1-32-32V144a32 32 0 0 1 32-32h440a32 32 0 0 1 32 32v308.736c0 2.688 1.28 5.12 3.584 6.656l24.384 16.256c1.28 0.896 2.88 1.344 4.48 1.344H680c37.12 0 67.392 29.824 67.968 66.88V840H840V484.736a8 8 0 0 0-4.096-7.04l-52.48-29.12a100.032 100.032 0 0 1-51.392-87.424v-112.32a8 8 0 0 0-4.16-7.04l-41.92-23.232a54.4 54.4 0 0 1-27.968-47.552 18.816 18.816 0 0 1 27.968-16.448l56.832 31.552a8 8 0 0 1 1.088 0.512l116.672 64.832c30.912 17.152 50.432 49.28 51.392 84.544H912v508.032c0 37.12-29.824 67.328-66.88 67.968H744c-37.12 0-67.392-29.824-67.968-66.88V548.992h-27.584a8 8 0 0 0-4.48 1.344l-24.384 16.32a8 8 0 0 0-3.584 6.656V880z m-80-462.976H192V832h344V417.024zM363.968 488c2.176 0 4.224 0.768 5.76 2.304l0.512 0.384 1.792 2.048c61.44 68.352 92.16 126.72 92.16 175.168a100.096 100.096 0 0 1-200.192 0c0-48.896 31.424-108.032 94.08-177.216a8.192 8.192 0 0 1 5.888-2.688z m0.128 96.64l-0.832 1.28-1.472 2.048a334.016 334.016 0 0 0-10.24 15.744l-1.152 1.92-0.512 0.832-0.96 1.6-0.896 1.6a260.288 260.288 0 0 0-0.448 0.768l-0.96 1.6-2.56 4.672-0.768 1.536-0.832 1.536a207.104 207.104 0 0 0-1.536 3.008l-0.64 1.472-0.768 1.536c-2.112 4.352-3.84 8.64-5.376 12.672l-0.512 1.408a130.56 130.56 0 0 0-0.256 0.64l-0.448 1.28-0.64 2.048-0.448 1.28a111.552 111.552 0 0 0-0.384 1.28l-0.32 1.28A75.136 75.136 0 0 0 328 667.904a36.096 36.096 0 0 0 72.192 0c0-14.848-6.144-33.856-18.944-56.448l-1.024-1.856a273.536 273.536 0 0 0-2.752-4.608l-1.152-1.92a320.32 320.32 0 0 0-6.144-9.6l-1.28-1.92a369.152 369.152 0 0 0-2.752-3.968L364.8 585.6l-0.64-0.832zM536 192H192v161.024h344V192z" p-id="1218"></path></svg>