<?xml version="1.0" standalone="no"?><!DOCTYPE svg PUBLIC "-//W3C//DTD SVG 1.1//EN" "http://www.w3.org/Graphics/SVG/1.1/DTD/svg11.dtd"><svg t="1658228464383" class="icon" viewBox="0 0 1024 1024" version="1.1" xmlns="http://www.w3.org/2000/svg" p-id="22859" xmlns:xlink="http://www.w3.org/1999/xlink" width="200" height="200"><defs><style type="text/css">@font-face { font-family: feedback-iconfont; src: url("//at.alicdn.com/t/font_1031158_u69w8yhxdu.woff2?t=1630033759944") format("woff2"), url("//at.alicdn.com/t/font_1031158_u69w8yhxdu.woff?t=1630033759944") format("woff"), url("//at.alicdn.com/t/font_1031158_u69w8yhxdu.ttf?t=1630033759944") format("truetype"); }
</style></defs><path d="M316.055 123.671l0.472 0.464 114.551 114.551c6.249 6.249 6.249 16.38 0 22.628l-28.284 28.284c-6.248 6.248-16.38 6.248-22.627 0L325 234.431v230.521C431.63 482.386 513 574.941 513 686.5 513 810.488 412.488 911 288.5 911S64 810.488 64 686.5c0-111.908 81.88-204.691 189-221.709V232.915l-56.681 56.683c-6.249 6.248-16.38 6.248-22.628 0l-28.284-28.284c-6.248-6.249-6.248-16.38 0-22.628l114.551-114.551c15.465-15.465 40.442-15.62 56.097-0.464zM288.5 534C204.277 534 136 602.277 136 686.5S204.277 839 288.5 839 441 770.723 441 686.5 372.723 534 288.5 534zM736 113c123.712 0 224 100.288 224 224 0 111.456-81.403 203.9-187.998 221.122L772 657h42c8.837 0 16 7.163 16 16v40c0 8.837-7.163 16-16 16h-42v166c0 8.837-7.163 16-16 16h-40c-8.837 0-16-7.163-16-16V729h-42c-8.837 0-16-7.163-16-16v-40c0-8.837 7.163-16 16-16h42v-98.878C593.402 540.901 512 448.457 512 337c0-123.712 100.288-224 224-224z m0 72c-83.947 0-152 68.053-152 152s68.053 152 152 152 152-68.053 152-152-68.053-152-152-152z" p-id="22860"></path></svg>