<?xml version="1.0" standalone="no"?><!DOCTYPE svg PUBLIC "-//W3C//DTD SVG 1.1//EN" "http://www.w3.org/Graphics/SVG/1.1/DTD/svg11.dtd"><svg t="1679050481618" class="icon" viewBox="0 0 1024 1024" version="1.1" xmlns="http://www.w3.org/2000/svg" p-id="2268" xmlns:xlink="http://www.w3.org/1999/xlink" width="200" height="200"><path d="M241.984 568H213.12l-46.016 272h689.92l-56-272H782.08a8 8 0 0 1-8-8v-48c0-4.48 3.584-8 8-8h42.432a32 32 0 0 1 30.592 22.4l75.968 336a32 32 0 0 1-30.528 41.6H123.52a32 32 0 0 1-30.528-41.6l65.984-336a32 32 0 0 1 30.08-22.4h52.928c4.48 0 8 3.584 8 8v48a8 8 0 0 1-8 8zM512 87.616A260.48 260.48 0 0 1 694.592 161.6c23.744 23.232 42.432 50.304 55.488 80.448a247.04 247.04 0 0 1 20.48 98.752c0 48.64-11.52 96.96-34.304 143.616l-0.64 1.408a457.984 457.984 0 0 1-77.184 109.952l-6.656 7.104-4.864 5.248-4.928 5.184-4.864 5.184-4.864 5.184-3.2 3.392-4.864 5.12-4.736 5.056-4.8 4.992-3.136 3.264-3.072 3.264-4.672 4.8-3.072 3.2-3.008 3.136-4.48 4.608-2.944 3.008-4.352 4.48-2.816 2.88-2.816 2.816-4.16 4.16-4.032 4.032-2.56 2.624-3.2 3.2-4.032 3.84-1.6 1.6-2.368 2.304-2.304 2.24-2.304 2.176-1.792 1.728-2.432 2.24-1.152 1.088-1.984 1.856-1.984 1.792-1.408 1.28-0.96 0.832-1.344 1.152-1.28 1.152-0.896 0.768-1.28 1.024-1.152 1.024-1.152 0.896-0.704 0.64-0.704 0.576-1.088 0.768-0.64 0.512-0.64 0.512-0.64 0.448-0.64 0.384-0.512 0.448-0.576 0.32-0.512 0.384-0.512 0.32-0.256 0.128a30.336 30.336 0 0 1-31.616-0.32l-0.512-0.256-0.512-0.384-0.64-0.448-0.704-0.512-0.64-0.448-0.64-0.448-0.576-0.448-0.96-0.768-0.704-0.512-0.704-0.64-1.088-0.832-1.536-1.28-1.152-1.024-1.28-1.024-0.832-0.768-1.28-1.088-1.28-1.216-0.96-0.832-1.92-1.664-0.896-0.896-1.472-1.344-2.048-1.92-2.048-1.92-2.112-2.048-1.088-1.024-2.304-2.176-2.368-2.304-2.368-2.304-3.328-3.2-1.664-1.728-2.56-2.56-2.624-2.56-3.328-3.328-3.392-3.456-2.752-2.816-4.224-4.288-2.88-2.944-2.944-2.944-2.944-3.008-2.944-3.072-3.008-3.136-3.008-3.136-4.608-4.736-4.608-4.864-4.736-4.928-3.136-3.328-3.2-3.328-6.336-6.72-3.2-3.392-6.4-6.848-6.4-6.848-4.864-5.12-6.72-7.232a459.264 459.264 0 0 1-77.12-110.016 328.512 328.512 0 0 1-34.816-145.088c0-34.24 6.848-67.456 20.416-98.752a252.8 252.8 0 0 1 55.488-80.448 258.88 258.88 0 0 1 82.176-54.08A261.76 261.76 0 0 1 512 87.616z m0 64a197.76 197.76 0 0 0-75.968 14.976c-23.168 9.6-43.904 23.232-61.888 40.704a188.8 188.8 0 0 0-41.536 60.16 183.04 183.04 0 0 0-15.104 73.28c0 39.104 9.408 78.4 28.288 116.928 15.68 32 37.952 63.808 66.496 94.464l3.264 3.584 8.576 9.152 7.168 7.68 8 8.448 6.848 7.232 4.736 4.992 6.528 6.848 5.44 5.696 5.312 5.44 3.392 3.584 4.224 4.352 4.096 4.224 4.8 4.864 4.608 4.672 3.712 3.84 2.176 2.112 2.304 2.24 3.392 3.392 1.664 1.664 1.6 1.536 2.368 2.368 2.304 2.176 2.176 2.176 0.96 0.896 1.472-1.408 2.24-2.176 2.368-2.304 2.368-2.368 2.56-2.432 2.56-2.56 1.728-1.728 3.52-3.584 3.712-3.712 3.072-3.136 3.904-3.968 4.032-4.096 4.992-5.12 4.224-4.416 3.456-3.584 6.272-6.528 7.36-7.68 5.632-5.952 7.808-8.256 6.976-7.36 9.152-9.856 5.248-5.568 4.992-5.376a395.52 395.52 0 0 0 65.856-93.12l0.704-1.472c18.944-38.4 28.352-77.568 28.352-116.736 0-25.472-5.056-50.048-15.104-73.344a193.792 193.792 0 0 0-103.488-100.864A196.48 196.48 0 0 0 512 151.68z m0 81.792a112.768 112.768 0 1 1 0 225.472 112.768 112.768 0 0 1 0-225.472z m0 56a56.768 56.768 0 1 0 0 113.472 56.768 56.768 0 0 0 0-113.472z" p-id="2269"></path></svg>