<?xml version="1.0" encoding="UTF-8"?>
<svg width="1024px" height="1024px" viewBox="0 0 1024 1024" version="1.1" xmlns="http://www.w3.org/2000/svg" xmlns:xlink="http://www.w3.org/1999/xlink">
    <title>地理位置_线性</title>
    <g id="页面1" stroke="none" stroke-width="1" fill="none" fill-rule="evenodd">
        <g id="地理位置_线性" fill="#000000" fill-rule="nonzero">
            <path d="M294.97553,647.999942 C303.283061,658.150681 312.044453,668.17708 321.248943,678.067011 C336.345473,694.272753 352.108495,709.584764 368.326656,724.000365 L257.411,724 L195.476,820 L828.523,820 L766.588,724 L655.519873,724.000934 C671.736141,709.587239 687.495662,694.278918 702.585354,678.080518 L703.866548,676.702616 C712.613677,667.267607 720.961245,657.695472 728.898397,647.999942 L799.281686,647.999942 C804.716655,647.999942 809.779989,650.758984 812.726432,655.32597 L952.081271,871.32597 C956.871805,878.751298 954.735883,888.654212 947.310555,893.444746 C944.725052,895.112812 941.713417,896 938.636525,896 L85.3634754,896 C76.5269194,896 69.3634754,888.836556 69.3634754,880 C69.3634754,876.923108 70.250663,873.911472 71.918729,871.32597 L211.273568,655.32597 C214.220011,650.758984 219.283345,647.999942 224.718314,647.999942 L294.97553,647.999942 Z M512,91.296875 C550.357813,91.296875 587.567188,98.646875 622.632813,113.19375 C656.55,127.204688 686.945313,147.1875 713.129688,172.759375 C739.314063,198.33125 759.909375,228.114063 774.303125,261.342188 C789.232813,295.795313 796.8125,332.392188 796.8125,370.060938 C796.8125,423.649328 784.130925,476.862524 759.064929,528.214755 L758.301563,529.770313 C737.859375,571.496875 709.301563,612.228125 673.317188,650.815625 C662.26314,662.681863 651.112562,673.718938 640.151162,683.904152 L637.886079,685.999275 L635.626957,688.070044 C633.746996,689.785524 631.873829,691.475589 630.008922,693.140121 L627.775091,695.125297 C627.403478,695.454115 627.032219,695.781909 626.661325,696.10868 L624.440442,698.057006 L622.228894,699.980709 C621.493329,700.617834 620.759414,701.250849 620.027243,701.879745 L617.836051,703.754069 L615.655881,705.603636 C615.293469,705.909832 614.93154,706.214994 614.570105,706.519122 L612.407521,708.331471 L610.257365,710.118951 C609.900073,710.41479 609.543322,710.70959 609.187123,711.003352 L607.056663,712.753446 C606.702723,713.043048 606.34936,713.331609 605.996585,713.619129 L603.887084,715.331736 L601.792261,717.019297 L599.712676,718.681766 L597.648893,720.319099 C597.306277,720.58989 596.964343,720.859633 596.623102,721.128325 L594.584075,722.727869 L592.562254,724.302166 L590.558203,725.85117 C590.225706,726.107227 589.893974,726.362229 589.563016,726.616173 L587.586673,728.127155 L585.629505,729.612732 L583.692074,731.07286 L581.774943,732.507494 C581.457144,732.744473 581.140214,732.980388 580.824165,733.215237 L578.938537,734.611547 L577.074615,735.982252 L575.23296,737.327307 L573.414135,738.646667 L571.618702,739.940288 L569.847224,741.208125 L568.100263,742.450134 C567.811177,742.65498 567.523136,742.858749 567.236152,743.061438 L564.492264,744.989235 L562.479063,746.39076 L560.505295,747.754207 L557.936664,749.512768 L556.058776,750.787059 L554.223638,752.023008 L551.845009,753.611161 L548.984682,755.500015 L546.254165,757.281486 L544.166312,758.629101 L542.166846,759.907568 L540.258128,761.116702 L538.442515,762.256313 L536.722368,763.326216 L535.100046,764.326221 L533.577908,765.256143 L531.487707,766.519207 L530.226351,767.273099 L529.073437,767.95625 C523.790625,771.095313 517.895313,772.626563 511.923438,772.626563 C506.028125,772.626563 500.05625,771.095313 494.773438,767.95625 L493.620524,767.273099 L492.359168,766.519207 L490.268967,765.256143 L488.746829,764.326221 L487.124507,763.326216 L485.40436,762.256313 L483.588747,761.116702 L481.680029,759.907568 L479.680563,758.629101 L477.59271,757.281486 L475.418829,755.864912 L473.161279,754.379565 L472.001866,753.611161 L469.623237,752.023008 L467.788099,750.787059 L465.910211,749.512768 L463.34158,747.754207 L461.367812,746.39076 L459.354611,744.989235 L456.610723,743.061438 L453.999651,741.208125 L452.228173,739.940288 L450.43274,738.646667 L448.613915,737.327307 L446.77226,735.982252 L444.908338,734.611547 L443.02271,733.215237 L441.115939,731.793366 L439.188588,730.34598 L437.241218,728.873121 L435.274392,727.374837 C434.944997,727.123006 434.614816,726.870118 434.283859,726.616173 L432.288903,725.079832 L430.275896,723.518177 L428.245402,721.93125 L426.197982,720.319099 L424.134199,718.681766 L422.054614,717.019297 L419.959791,715.331736 L417.85029,713.619129 L415.726676,711.881519 C415.371595,711.589836 415.01595,711.297113 414.659752,711.003352 L412.51602,709.228322 L410.35958,707.428402 C409.638711,706.824285 408.915818,706.216027 408.190994,705.603636 L406.010824,703.754069 L403.819632,701.879745 L401.617981,699.980709 L399.406433,698.057006 L397.18555,696.10868 C396.814656,695.781909 396.443397,695.454115 396.071784,695.125297 L393.837953,693.140121 L391.596194,691.130435 C391.221938,690.793447 390.847375,690.455439 390.472516,690.116413 L388.219918,688.070044 L385.960796,685.999275 C384.452665,684.61064 382.94056,683.205768 381.425231,681.784719 L379.149914,679.64102 C369.660128,670.658453 360.059039,661.045141 350.529688,650.815625 C314.545312,612.151563 285.9875,571.496875 265.545312,529.770313 C240.126562,477.860938 227.1875,424.0375 227.1875,369.984375 C227.1875,332.315625 234.767187,295.71875 249.696875,261.265625 C264.090625,228.114063 284.685937,198.254688 310.870313,172.682813 C337.054688,147.1875 367.45,127.128125 401.367188,113.117188 C436.432813,98.646875 473.642188,91.296875 512,91.296875 Z M512,167.296875 C483.5872,167.296875 456.227461,172.695146 430.383904,183.35984 C405.887047,193.479309 383.929827,207.845835 364.812018,226.241373 L363.927,227.097 L363.063243,227.946694 C344.675016,246.121718 330.195486,267.094028 319.932442,290.338776 L319.431103,291.48379 C308.635658,316.396354 303.1875,342.708325 303.1875,369.984375 C303.1875,412.208194 313.376059,454.635177 333.795049,496.334203 C350.826727,531.099239 375.082549,565.64293 406.139205,599.012328 C430.42305,625.080416 457.09967,648.65208 484.622373,669.420312 L485.820293,670.322138 L488.198995,672.100386 L489.379584,672.976775 L491.722758,674.704007 L494.041286,676.397069 L496.334398,678.055836 C497.474472,678.876624 498.604726,679.684504 499.724729,680.479403 L501.950936,682.051874 L503.053548,682.82509 L505.778702,684.720029 L508.457834,686.56034 L510.566995,687.993089 L511.923,688.906 L512.236946,688.696254 C514.68237,687.051651 517.193373,685.333696 519.764316,683.543319 L521.982528,681.990995 C523.098842,681.205987 524.225869,680.407726 525.363165,679.596284 L527.651317,677.95585 C530.720092,675.745231 533.859787,673.441236 537.061979,671.045252 L539.224502,669.420312 C566.747205,648.65208 593.423825,625.080416 617.734988,598.983018 C648.308955,566.197318 672.360115,532.065286 689.399907,497.657705 L690.144848,496.144991 C710.623719,454.635423 720.8125,412.364111 720.8125,370.060938 C720.8125,342.784887 715.364342,316.472916 704.56499,291.551334 C694.128585,267.458782 679.211206,245.864899 660.029268,227.131661 C641.131031,208.675488 619.322097,194.22939 594.804543,183.931451 L593.510911,183.392859 C567.733565,172.6992 540.424954,167.296875 512,167.296875 Z M512,241.359375 C586.41875,241.359375 646.75,301.690625 646.75,376.109375 C646.75,450.528125 586.41875,510.859375 512,510.859375 C437.58125,510.859375 377.25,450.528125 377.25,376.109375 C377.25,301.690625 437.58125,241.359375 512,241.359375 Z M512,317.359375 C479.554891,317.359375 453.25,343.664266 453.25,376.109375 C453.25,408.554484 479.554891,434.859375 512,434.859375 C544.445109,434.859375 570.75,408.554484 570.75,376.109375 C570.75,343.664266 544.445109,317.359375 512,317.359375 Z" id="形状"></path>
        </g>
    </g>
</svg>