<?xml version="1.0" standalone="no"?><!DOCTYPE svg PUBLIC "-//W3C//DTD SVG 1.1//EN" "http://www.w3.org/Graphics/SVG/1.1/DTD/svg11.dtd"><svg t="1725006937313" class="icon" viewBox="0 0 1024 1024" version="1.1" xmlns="http://www.w3.org/2000/svg" p-id="1423" xmlns:xlink="http://www.w3.org/1999/xlink" width="200" height="200"><path d="M206.22 112a7.94 7.94 0 0 1 7.042 4.225l0.258 0.51 53.47 118.263c0.258 0.552 0.451 1.132 0.577 1.728v0.32l47.259 303.08c0.384 2.368 1.793 4.48 3.842 5.631l0.256 0.192 66.384 59.58c0.455 0.256 0.884 0.556 1.28 0.895l0.321 0.256 153.816 141.941a8.006 8.006 0 0 0 3.202 1.792l0.32 0.064 190.188 47.356c0.483 0.106 0.954 0.256 1.41 0.448l0.383 0.192 123.911 65.53c2.562 1.28 4.163 3.905 4.29 6.784v33.214a8.003 8.003 0 0 1-7.748 7.999H120.005c-4.323 0-7.867-3.426-8.005-7.743V119.999a7.996 7.996 0 0 1 7.748-7.999h86.472zM184 226.211V840h421.795l-77.307-19.249-1.561-0.312-2.831-0.81a80.006 80.006 0 0 1-31.385-17.354l-0.814-0.74-148.332-136.88-0.463-0.26-69.457-62.335c-15.848-12.283-26.41-30.087-29.771-49.692l-0.154-0.93-45.972-294.819L184 226.211z m574.245 378.368l0.154 0.077 72.753 26.822a4.804 4.804 0 0 1 3.076 3.843v0.154l8.998 80.89a4.802 4.802 0 0 1-1.577 4.15l-0.154 0.116-47.22 38.62a4.81 4.81 0 0 1-6.37-0.22l-0.32-0.319-29.494-33.7a4.807 4.807 0 0 0-2.499-1.538h-0.192l-43.067-8.608a4.805 4.805 0 0 1-3.807-3.958v-0.153l-7.652-58.795a4.802 4.802 0 0 1 1.576-4.227l0.116-0.077 51.142-42.193a4.809 4.809 0 0 1 4.537-0.884z m-132.524-4.631c3.01 0 5.764 1.728 7.108 4.48l23.31 46.46a7.996 7.996 0 0 1-1.921 9.6l-38.23 33.468a8.009 8.009 0 0 1-5.315 1.985h-62.884a8.006 8.006 0 0 1-7.172-4.416l-19.34-38.653a7.995 7.995 0 0 1-0.768-4.48l4.61-41.34a8.003 8.003 0 0 1 7.941-7.04h92.661v-0.064z m-211.35-164.769l0.171 0.086 35.322 22.303c0.73 0.429 1.287 1.072 1.76 1.801l0.085 0.215 15.622 29.294c0.522 0.97 0.732 2.079 0.601 3.174l-0.043 0.214-7.038 44.262a5.36 5.36 0 0 1-1.631 3.046l-0.172 0.171-16.995 14.669a5.366 5.366 0 0 1-3.207 1.322l-0.251 0.01a5.4 5.4 0 0 1-1.263-0.132l-0.172-0.042-27.596-7.42a5.363 5.363 0 0 1-3.863-3.946v-0.172l-6.995-35.17a5.36 5.36 0 0 0-1.545-2.873l-0.172-0.129-25.923-22.774a5.36 5.36 0 0 1-1.716-4.847v-0.172l6.652-35.255a5.363 5.363 0 0 1 4.378-4.29h0.171l30.472-4.03h-0.043a5.368 5.368 0 0 1 3.39 0.685z m187.829 2.81c3.074 0 5.763 1.729 7.172 4.417l19.723 39.42a7.996 7.996 0 0 1-1.92 9.6l-32.595 28.541a8.008 8.008 0 0 1-5.251 1.984h-36.501a8.005 8.005 0 0 1-7.172-4.415l-16.522-32.958a7.995 7.995 0 0 1-0.832-4.48l3.906-35.005a8.003 8.003 0 0 1 7.94-7.103H602.2zM369.026 319.747c2.34 0 4.482 1.344 5.527 3.483l15.386 30.652a6.217 6.217 0 0 1-1.494 7.464l-25.394 22.192a6.228 6.228 0 0 1-4.082 1.493h-28.382a6.225 6.225 0 0 1-5.576-3.433l-12.846-25.626a6.216 6.216 0 0 1-0.598-3.483l2.988-27.219a6.223 6.223 0 0 1 6.224-5.523h48.247z m428.23-62.542h0.063l27.792 15.871a7.972 7.972 0 0 1 3.01 10.88l-44.89 78.969a8.004 8.004 0 0 1-10.95 2.944l-27.856-15.807a7.997 7.997 0 0 1-2.946-10.88l44.89-78.969a8.007 8.007 0 0 1 10.886-3.008z m-128.074 0h0.064l27.792 15.871a7.972 7.972 0 0 1 3.01 10.88l-44.89 78.969a8.004 8.004 0 0 1-10.95 2.944l-27.856-15.807a7.997 7.997 0 0 1-2.946-10.88l44.89-78.969a8.007 8.007 0 0 1 10.886-3.008z m-128.073 0h0.064l27.792 15.871a7.972 7.972 0 0 1 3.01 10.88l-44.89 78.969a8.004 8.004 0 0 1-10.95 2.944l-27.856-15.807a7.997 7.997 0 0 1-2.946-10.88l44.89-78.969a8.007 8.007 0 0 1 10.886-3.008zM876.532 118.08l27.856 15.806c3.843 2.24 5.123 7.04 2.946 10.88L863.15 222.39a8.007 8.007 0 0 1-10.886 3.008l-27.792-15.807a7.997 7.997 0 0 1-3.01-10.879l44.185-77.626a8.007 8.007 0 0 1 10.886-3.007z m-128.073 0l27.856 15.806c3.842 2.24 5.123 7.04 2.946 10.88l-44.185 77.625a8.007 8.007 0 0 1-10.886 3.008l-27.792-15.807a7.997 7.997 0 0 1-3.01-10.879l44.185-77.626a8.007 8.007 0 0 1 10.886-3.007z m-128.073 0l27.856 15.806c3.842 2.24 5.123 7.04 2.946 10.88l-44.185 77.625a8.007 8.007 0 0 1-10.887 3.008l-27.791-15.807a7.997 7.997 0 0 1-3.01-10.879l44.185-77.626a8.007 8.007 0 0 1 10.886-3.007z" p-id="1424"></path></svg>