<?xml version="1.0" standalone="no"?><!DOCTYPE svg PUBLIC "-//W3C//DTD SVG 1.1//EN" "http://www.w3.org/Graphics/SVG/1.1/DTD/svg11.dtd"><svg t="1677638336601" class="icon" viewBox="0 0 1024 1024" version="1.1" xmlns="http://www.w3.org/2000/svg" p-id="4432" xmlns:xlink="http://www.w3.org/1999/xlink" width="200" height="200"><path d="M512.64 112.64c247.488 0.64 447.744 101.12 447.488 224.512l-0.128 4.16v346.624c0 123.392-200.576 223.36-448 223.36S64 811.328 64 687.936V336.064h0.128v-1.088C64.384 212.032 264 112.64 510.4 112.64zM136 599.04V688c0 12.544 6.08 26.176 18.112 40.32 16 18.88 41.344 37.248 73.216 53.12a523.84 523.84 0 0 0 125.184 41.92c50.304 10.624 104 16 159.488 16a781.663 781.663 0 0 0 152-14.528v-136c-49.6 8.704-99.84 12.992-150.208 12.928h-2.24c-157.44-0.384-295.808-41.28-375.552-102.72z m640 60.288c-17.728 6.4-36.48 12.16-56 17.28v134.528a494.28 494.28 0 0 0 56-20.096z m112-58.752a359.808 359.808 0 0 1-56 34.688v125.76c15.552-10.432 28.352-21.504 37.888-32.64C881.92 714.176 888 700.544 888 687.936zM136 456.832v63.808c1.728 2.56 3.712 4.992 5.824 7.488 17.344 20.544 44.352 40.32 78.144 57.344 36.864 18.56 80.192 33.088 128.896 43.52 51.392 10.944 106.176 16.64 162.752 16.768h2.112c56.32 0 110.912-5.504 162.112-16.256a537.472 537.472 0 0 0 128.384-42.88c33.728-16.832 60.672-36.48 78.016-56.832 2.048-2.432 3.968-4.928 5.76-7.36v-64.128c-79.68 60.992-217.472 101.12-374.272 101.12h-2.24c-157.44-0.32-295.808-41.152-375.552-102.592zM512.512 184.64h-1.984c-55.296 0-108.736 5.376-158.848 15.936a521.152 521.152 0 0 0-124.544 41.6c-31.744 15.808-56.96 34.048-72.896 52.8-11.968 14.08-17.984 27.52-18.048 40.192-0.064 12.608 6.016 26.24 17.984 40.448 16 18.88 41.216 37.312 73.088 53.312 35.584 17.92 77.696 32 124.992 42.176 50.368 10.752 104 16.256 159.488 16.384h1.984c55.296 0 108.8-5.376 158.848-15.936a520.704 520.704 0 0 0 124.544-41.6c31.744-15.808 56.96-34.048 72.896-52.8 11.136-13.12 17.216-25.728 17.984-37.568V336c-0.192-12.416-6.208-25.664-17.92-39.552-16-18.88-41.216-37.312-73.088-53.312A522.88 522.88 0 0 0 672 200.96a774.272 774.272 0 0 0-159.488-16.384zM512 375.744c30.912 0 55.936 12.608 55.936 28.032s-25.152 27.84-56.064 27.776c-30.912 0-56-12.608-55.936-28.032 0.064-15.424 25.152-27.904 56.064-27.776zM304 308.16c30.912 0 56 12.608 55.936 28.032-0.064 15.424-25.152 27.84-56.064 27.776-30.912 0-56-12.608-55.936-28.032 0.064-15.424 25.152-27.84 56.064-27.776z m416.128 0c30.912 0 56 12.608 55.936 28.032-0.064 15.424-25.152 27.84-56.064 27.776-30.976 0-56-12.608-55.936-28.032 0-15.424 25.152-27.84 56.064-27.776z m-208-67.584c30.848 0.064 55.936 12.608 55.872 28.032-0.064 15.424-25.152 27.904-56.064 27.84-30.912-0.128-56-12.672-55.936-28.096 0.064-15.424 25.152-27.84 56.064-27.776z" p-id="4433"></path></svg>