<?xml version="1.0" standalone="no"?><!DOCTYPE svg PUBLIC "-//W3C//DTD SVG 1.1//EN" "http://www.w3.org/Graphics/SVG/1.1/DTD/svg11.dtd"><svg t="1678348152888" class="icon" viewBox="0 0 1024 1024" version="1.1" xmlns="http://www.w3.org/2000/svg" p-id="1593" xmlns:xlink="http://www.w3.org/1999/xlink" width="200" height="200"><path d="M128 208c4.416 0 8 3.584 8 8v344h816c4.416 0 8 3.584 8 8v336a8 8 0 0 1-8 8h-56a8 8 0 0 1-8-8V800H136v104a8 8 0 0 1-8 8H72a8 8 0 0 1-8-8V216c0-4.416 3.584-8 8-8h56z m760 424H136v97.024h752V632zM456 264a32 32 0 0 1 32 32v56h188.032c44.16 0 80 35.84 80 80v72a8 8 0 0 1-8.064 8H336a32 32 0 0 1-32-32V296a32 32 0 0 1 32-32h120z m-24 56h-72v136h340.032v-24a24 24 0 0 0-23.68-24H432v-88zM395.968 64a80 80 0 1 1 0 160 80 80 0 0 1 0-160z m0 56a24 24 0 1 0 0 48 24 24 0 0 0 0-48z" p-id="1594"></path></svg>