<?xml version="1.0" standalone="no"?><!DOCTYPE svg PUBLIC "-//W3C//DTD SVG 1.1//EN" "http://www.w3.org/Graphics/SVG/1.1/DTD/svg11.dtd"><svg t="1668673770890" class="icon" viewBox="0 0 1088 1024" version="1.1" xmlns="http://www.w3.org/2000/svg" p-id="1119" xmlns:xlink="http://www.w3.org/1999/xlink" width="212.5" height="200"><path d="M992 856a8 8 0 0 1-8 8H928a8 8 0 0 1-8-8V800H168v56a8 8 0 0 1-8 8h-56a8 8 0 0 1-8-8v-608c0-4.416 3.584-8 8-8H160c4.416 0 8 3.584 8 8V560H960a32 32 0 0 1 32 32v264z m-72-224H168v96h752v-96zM488 272a32 32 0 0 1 32 32v48h188.032c44.16 0 80 35.84 80 80v48a32 32 0 0 1-32 32H368a32 32 0 0 1-32-32V304a32 32 0 0 1 32-32h120z m-24 56H392v128h340.032V432a24 24 0 0 0-23.68-24H464v-80zM427.968 64a88 88 0 1 1 0 176 88 88 0 0 1 0-176z m0 56a32 32 0 1 0 0 64 32 32 0 0 0 0-64z" p-id="1120"></path></svg>