<?xml version="1.0" encoding="UTF-8"?>
<svg width="16px" height="16px" viewBox="0 0 16 16" version="1.1" xmlns="http://www.w3.org/2000/svg" xmlns:xlink="http://www.w3.org/1999/xlink">
    <title>Line/云台方向控制</title>
    <g id="Line/云台方向控制" stroke="none" stroke-width="1" fill="none" fill-rule="evenodd">
        <rect id="矩形" fill="#000000" fill-rule="nonzero" opacity="0" x="0" y="0" width="16" height="16"></rect>
        <path d="M6.63726246,3.95512515 C6.50694833,4.25585005 6.39198907,4.5885197 6.29409024,4.94649827 C6.84318103,4.88007879 7.41576743,4.84583333 8,4.84583333 C8.58264227,4.84583333 9.15370169,4.8798926 9.70145086,4.94543226 C9.60361678,4.58786148 9.48875608,4.25555253 9.35857088,3.95512515 C8.94335461,2.99693377 8.43423848,2.5 7.99791667,2.5 C7.56159486,2.5 7.05247872,2.99693377 6.63726246,3.95512515 Z M12.1073749,6.70184579 C11.8062792,6.57137101 11.47316,6.45628897 11.1146776,6.35831157 C11.1804107,6.90689971 11.2145833,7.47888916 11.2145833,8.0625 C11.2145833,8.6460214 11.1804212,9.21792495 11.1146875,9.76643012 C11.4727563,9.66885048 11.8060968,9.55370805 12.1073749,9.42315421 C13.0655662,9.00793794 13.5625,8.49882181 13.5625,8.0625 C13.5625,7.62617819 13.0655662,7.11706206 12.1073749,6.70184579 Z M14.0462016,9.48852384 C13.6824152,9.8612284 13.175448,10.1864062 12.5546832,10.4554043 C12.0653491,10.6674491 11.5108858,10.842206 10.9109253,10.9753579 C10.777276,11.5744855 10.6026554,12.1283344 10.390821,12.6171832 C10.1218229,13.237948 9.79664507,13.7449152 9.4239405,14.1087016 C9.00150933,14.5210246 8.51662023,14.75 7.99791667,14.75 C7.36877197,14.75 6.77021737,14.4233809 6.26709982,13.850678 C5.95018099,13.4899267 5.67307712,13.0340384 5.44749384,12.5063476 L4.15962946,12.5523347 C4.12830214,12.5534535 4.09769795,12.5427609 4.07388348,12.5223765 C4.02143729,12.4774843 4.01531358,12.398576 4.0602058,12.3461298 L5.41457864,10.7638576 C5.46616547,10.7090926 5.54528045,10.7068903 5.59543545,10.7543285 L7.15817334,12.2324181 C7.18201109,12.2549647 7.19602803,12.2859799 7.19719912,12.3187703 C7.1996631,12.3877619 7.14573181,12.4456881 7.0767402,12.4481521 L6.67309252,12.4625772 C6.80763375,12.7125265 6.95544664,12.9296606 7.11228237,13.108188 C7.37977858,13.4126812 7.65008108,13.5799955 7.89472379,13.6170664 L7.99791667,13.625 C8.43423848,13.625 8.94335461,13.1280662 9.35857088,12.1698749 C9.48875833,11.8694423 9.60362077,11.537127 9.70145757,11.1795455 C9.16989689,11.2431713 8.61634548,11.2771287 8.05155827,11.2790777 L7.9306115,11.2794529 L7.86042301,11.2802455 L7.82915161,11.2806858 L7.7819375,11.2813906 L7.75988311,11.8963832 C7.75885713,11.9249826 7.74805278,11.9523104 7.72935829,11.9738447 C7.67865688,12.0278496 7.59954728,12.0302369 7.54928148,11.982916 L5.90961478,10.439313 C5.90531183,10.4352621 5.90130156,10.4309112 5.89761417,10.426293 C5.85453911,10.3723444 5.86335386,10.2936912 5.91730247,10.2506161 L7.66232929,8.85730612 C7.68568169,8.83866048 7.7149412,8.82899773 7.744805,8.83006907 C7.81379622,8.83254409 7.86771824,8.89047892 7.86524322,8.95947014 L7.8223125,10.15575 L7.8881802,10.1548118 L8,10.1541667 C8.67598613,10.1541667 9.33244289,10.1045191 9.94592428,10.0112503 C10.039774,9.39707998 10.0895833,8.73958649 10.0895833,8.0625 C10.0895833,7.38549365 10.0397858,6.72807566 9.94624437,6.11379836 C9.33267456,6.02049839 8.67610541,5.97083333 8,5.97083333 C7.32217994,5.97083333 6.66399536,6.02075061 6.0490836,6.11450977 C5.95816542,6.71452456 5.90858716,7.35533119 5.90633063,8.01532672 L5.90586576,8.14508267 L5.90410938,8.28821875 L7.09883723,8.40655672 C7.1675367,8.41336087 7.21771277,8.47456865 7.21090862,8.54326811 C7.20752324,8.57744925 7.19022162,8.60873121 7.16306766,8.62976628 L5.54326758,9.88455975 C5.49288784,9.92358689 5.42121393,9.9184657 5.37689473,9.87267221 L3.86202949,8.30741437 C3.81401903,8.25780682 3.81531373,8.17867179 3.86492127,8.13066133 C3.8913181,8.10511434 3.92761603,8.09247178 3.96417191,8.09609236 L4.78035938,8.17692187 L4.78098769,8.12598954 L4.78125,8.0625 C4.78125,7.47933419 4.81537051,6.90777207 4.88102568,6.35957266 C4.52412616,6.45722696 4.19249408,6.57190259 3.89262515,6.70184579 C2.93443377,7.11706206 2.4375,7.62617819 2.4375,8.0625 C2.4375,8.4221492 2.77396502,8.82560675 3.40621226,9.18330206 L3.40625,8.91877668 C3.40625,8.84974109 3.46221441,8.79377668 3.53125,8.79377668 C3.56516026,8.79377668 3.59761538,8.80755374 3.62117056,8.83194758 L5.04241691,10.3037959 C5.08918949,10.3522338 5.08918949,10.4290162 5.04241691,10.4774541 L3.62117056,11.9493024 C3.57321617,11.9989642 3.49408265,12.0003483 3.4444209,11.9523939 C3.42002706,11.9288387 3.40625,11.8963836 3.40625,11.8624733 L3.40624064,10.4383599 C2.89527376,10.213267 2.46232621,9.94907654 2.12569719,9.65179063 C1.6058063,9.19266137 1.3125,8.65112648 1.3125,8.0625 C1.3125,7.54379644 1.5414754,7.05890733 1.95379844,6.63647616 C2.31758476,6.2637716 2.82455204,5.93859377 3.44531678,5.66959571 C3.93362633,5.45799491 4.48679262,5.28352599 5.08530664,5.15047906 C5.21836473,4.55112549 5.39306105,3.99693524 5.60501238,3.50781678 C5.87401043,2.88705204 6.19918826,2.38008476 6.57189283,2.01629844 C6.994324,1.6039754 7.4792131,1.375 7.99791667,1.375 C8.51662023,1.375 9.00150933,1.6039754 9.4239405,2.01629844 C9.79664507,2.38008476 10.1218229,2.88705204 10.390821,3.50781678 C10.6026231,3.99659102 10.7772227,4.5503455 10.9103173,5.14951545 C11.5105105,5.28267575 12.0651835,5.45747917 12.5546832,5.66959571 C13.175448,5.93859377 13.6824152,6.2637716 14.0462016,6.63647616 C14.4585246,7.05890733 14.6875,7.54379644 14.6875,8.0625 C14.6875,8.58120356 14.4585246,9.06609267 14.0462016,9.48852384 Z" id="形状结合" fill="#0A1B39"></path>
    </g>
</svg>