<?xml version="1.0" encoding="UTF-8"?>
<svg width="1024px" height="1024px" viewBox="0 0 1024 1024" version="1.1" xmlns="http://www.w3.org/2000/svg" xmlns:xlink="http://www.w3.org/1999/xlink">
    <title>高精度GIS_线性</title>
    <g id="页面1" stroke="none" stroke-width="1" fill="none" fill-rule="evenodd">
        <g id="高精度GIS_线性" fill="#000000" fill-rule="nonzero">
            <path d="M854.4,800.9 C854.6,800.6 854.9,800.3 855.1,800 C920.6,722.1 960,621.7 960,512 C960,402.3 920.6,301.9 855.2,224 C855,223.7 854.7,223.5 854.5,223.2 C853.4,221.9 852.4,220.7 851.3,219.5 C850.9,219 850.5,218.6 850.1,218.1 C848.7,216.5 847.4,215 846,213.4 L845.9,213.3 C844.4,211.6 842.8,209.9 841.3,208.2 L841.2,208.1 C838,204.7 834.8,201.3 831.5,198 L831.4,197.9 L826.6,193.1 L826.3,192.8 C824.8,191.3 823.3,189.9 821.8,188.5 C821.3,188 820.8,187.5 820.2,187 C819.2,186 818.2,185.1 817.2,184.2 C816.9,183.9 816.5,183.6 816.2,183.2 C736.4,109.2 629.5,64 512,64 C394.5,64 287.6,109.2 207.7,183.2 C207.4,183.5 207,183.8 206.7,184.2 C205.7,185.1 204.7,186.1 203.7,187.1 C203.2,187.6 202.7,188.1 202.1,188.6 C200.6,190 199.1,191.5 197.6,192.9 L197.3,193.2 L192.5,198 L192.4,198.1 C189.1,201.4 185.9,204.8 182.7,208.2 L182.6,208.3 C181,210 179.5,211.7 178,213.4 L177.9,213.5 C176.5,215 175.1,216.6 173.8,218.2 C173.4,218.7 173,219.1 172.6,219.6 C171.5,220.8 170.5,222.1 169.4,223.3 C169.2,223.6 168.9,223.8 168.7,224.1 C103.4,301.9 64,402.3 64,512 C64,621.7 103.4,722.1 168.8,800 C169,800.3 169.3,800.6 169.5,800.9 C170.5,802.1 171.6,803.4 172.6,804.6 C173,805.1 173.4,805.5 173.8,806 C175.2,807.6 176.5,809.1 177.9,810.7 C177.9,810.8 178,810.8 178,810.9 C179.5,812.6 181,814.3 182.6,815.9 L182.7,816 C185.9,819.4 189.1,822.8 192.3,826.1 L192.4,826.2 C194,827.8 195.5,829.4 197.1,830.9 L197.4,831.2 C200.7,834.5 204.1,837.7 207.5,840.8 C287.6,914.8 394.5,960 512,960 C629.5,960 736.4,914.8 816.3,840.8 C819.7,837.7 823,834.5 826.3,831.2 L826.6,830.9 C828.2,829.3 829.8,827.8 831.3,826.2 L831.4,826.1 C834.7,822.8 837.9,819.4 841,816 L841.1,815.9 C842.6,814.2 844.2,812.6 845.7,810.9 C845.7,810.8 845.8,810.8 845.8,810.7 C847.2,809.2 848.6,807.6 849.9,806 C850.3,805.5 850.7,805.1 851.1,804.6 C852.3,803.3 853.4,802.1 854.4,800.9 Z M858.5,658.3 C844.7,690.9 826.5,721.1 804.3,748.5 C779.4,727 752.1,708.2 722.8,692.6 C734.4,645.7 741.6,594.2 743.5,540 L887,540 C884,580.9 874.4,620.6 858.5,658.3 Z M887,484 L743.5,484 C741.6,429.8 734.4,378.3 722.8,331.4 C752.1,315.8 779.4,297 804.3,275.5 C826.5,302.9 844.7,333.1 858.5,365.7 C874.4,403.4 884,443.1 887,484 Z M658.3,165.5 C698,182.3 734.1,205.5 765.9,234.7 C747.4,250.5 727.5,264.4 706.5,276.5 C690.8,231.5 670.7,192.4 647.3,161.1 C651,162.5 654.7,164 658.3,165.5 Z M567.7,866.1 C558.5,873.3 549.3,878.8 540,882.5 L540,697 C579.9,699.8 618.6,708.6 655.7,723.2 C647.4,747.8 637.8,770.5 626.7,791 C609.3,823.4 588.9,849.3 567.7,866.1 Z M626.7,233 C637.7,253.6 647.4,276.3 655.7,300.8 C618.6,315.4 579.9,324.2 540,327 L540,141.6 C549.2,145.3 558.5,150.7 567.7,158 C588.9,174.7 609.3,200.6 626.7,233 Z M540,640.9 L540,540 L687.5,540 C685.9,584.2 680.4,627.1 671.2,667.8 L670.9,669 C629.8,653.4 585.8,643.7 540,640.9 L540,640.9 Z M540,484 L540,383.1 C585.8,380.3 629.8,370.6 670.9,355 L671.2,356.2 C680.4,396.9 685.9,439.7 687.5,484 L540,484 Z M484,540 L484,640.9 C438.2,643.7 394.2,653.4 353.1,669 L352.8,667.8 C343.6,627.1 338.1,584.3 336.5,540 L484,540 Z M336.5,484 C338.1,439.8 343.6,396.9 352.8,356.2 L353.1,355 C394.2,370.6 438.1,380.3 484,383.1 L484,484 L336.5,484 Z M484,697 L484,882.4 C474.8,878.7 465.5,873.3 456.3,866 C435.1,849.3 414.6,823.3 397.2,790.9 C386.2,770.3 376.5,747.6 368.2,723.1 C405.4,708.5 444.1,699.8 484,697 Z M484,327 C444.1,324.2 405.4,315.4 368.3,300.8 C376.6,276.2 386.2,253.5 397.3,233 C414.7,200.6 435.1,174.6 456.4,157.9 C465.6,150.7 474.8,145.2 484.1,141.5 L484.1,327 L484,327 Z M365.7,165.5 C369.4,164 373,162.5 376.7,161.1 C353.3,192.4 333.2,231.5 317.5,276.5 C296.5,264.5 276.6,250.5 258.1,234.7 C289.9,205.5 326,182.3 365.7,165.5 L365.7,165.5 Z M165.5,365.7 C179.3,333.1 197.5,302.9 219.7,275.5 C244.6,297 271.9,315.8 301.2,331.4 C289.6,378.3 282.4,429.8 280.5,484 L137,484 C140,443.1 149.6,403.4 165.5,365.7 Z M137,540 L280.5,540 C282.4,594.2 289.6,645.7 301.2,692.6 C271.9,708.2 244.6,727 219.7,748.5 C197.5,721.1 179.3,690.9 165.5,658.3 C149.6,620.6 140,580.9 137,540 Z M365.7,858.5 C326,841.7 289.9,818.5 258.1,789.3 C276.6,773.5 296.5,759.6 317.5,747.5 C333.2,792.5 353.3,831.6 376.7,862.9 C373,861.5 369.3,860 365.7,858.5 Z M658.3,858.5 C654.6,860 651,861.5 647.3,862.9 C670.7,831.6 690.8,792.5 706.5,747.5 C727.5,759.5 747.4,773.5 765.9,789.3 C734.1,818.5 698,841.7 658.3,858.5 Z" id="形状"></path>
        </g>
    </g>
</svg>