<?xml version="1.0" standalone="no"?><!DOCTYPE svg PUBLIC "-//W3C//DTD SVG 1.1//EN" "http://www.w3.org/Graphics/SVG/1.1/DTD/svg11.dtd"><svg t="1735203491841" class="icon" viewBox="0 0 1024 1024" version="1.1" xmlns="http://www.w3.org/2000/svg" p-id="3130" xmlns:xlink="http://www.w3.org/1999/xlink" width="200" height="200"><path d="M521.741 83.587a16 16 0 0 1 2.952 2.952l171.552 223.538c5.38 7.01 4.058 17.054-2.952 22.434a16 16 0 0 1-9.74 3.307H556V952a8 8 0 0 1-8 8h-72a8 8 0 0 1-8-8V335.818H340.448c-8.837 0-16-7.163-16-16a16 16 0 0 1 3.307-9.74l171.552-223.54c5.38-7.01 15.424-8.331 22.434-2.952z" p-id="3131"></path></svg>