<?xml version="1.0" standalone="no"?><!DOCTYPE svg PUBLIC "-//W3C//DTD SVG 1.1//EN" "http://www.w3.org/Graphics/SVG/1.1/DTD/svg11.dtd"><svg t="1706282486939" class="icon" viewBox="0 0 1024 1024" version="1.1" xmlns="http://www.w3.org/2000/svg" p-id="2385" xmlns:xlink="http://www.w3.org/1999/xlink" width="200" height="200"><path d="M856.32 872.32a32 32 0 0 1 32 31.552v32.512a8 8 0 0 1-7.936 8h-736a8 8 0 0 1-8-8v-32a32 32 0 0 1 32-32h688l-0.064-0.064zM523.392 67.392l409.344 409.344a16 16 0 0 1-11.328 27.328H864v304a16 16 0 0 1-16 16H176a16 16 0 0 1-16-16v-304h-57.344a16 16 0 0 1-11.328-27.328L500.672 67.392a16 16 0 0 1 22.656 0h0.064zM512 157.824l-280 280V752h560V437.824l-280-280z m3.84 161.664a9.344 9.344 0 0 1 4.224 4.224l53.312 107.968 119.104 17.344 2.88 0.896a9.344 9.344 0 0 1 2.304 14.976l-86.208 84.096 20.352 118.656v2.944a9.344 9.344 0 0 1-13.504 6.848l-106.624-56-106.56 56-2.816 0.96a9.344 9.344 0 0 1-10.688-10.752l20.352-118.656-86.208-84.096-2.112-3.008a9.344 9.344 0 0 1 7.232-12.864l119.168-17.28 53.312-108.032 1.728-2.432a9.344 9.344 0 0 1 10.752-1.792z m-4.16 113.856l-24.448 49.536-54.656 7.936 39.552 38.592-9.344 54.464 48.896-25.728 48.96 25.728-9.344-54.4 39.552-38.656-54.656-7.936-24.512-49.536z" p-id="2386"></path></svg>