<?xml version="1.0" standalone="no"?><!DOCTYPE svg PUBLIC "-//W3C//DTD SVG 1.1//EN" "http://www.w3.org/Graphics/SVG/1.1/DTD/svg11.dtd"><svg t="1729678739101" class="icon" viewBox="0 0 1024 1024" version="1.1" xmlns="http://www.w3.org/2000/svg" p-id="1100" xmlns:xlink="http://www.w3.org/1999/xlink" width="200" height="200"><path d="M880 112a32 32 0 0 1 32 32v736a32 32 0 0 1-32 32H144a32 32 0 0 1-32-32V144a32 32 0 0 1 32-32h736zM360 664H184v176h176V664z m240 0H424v176h176V664z m240 0H664v176h176V664z m0-240H664v176h176V424z m-480 0H184v176h176V424z m240 0H424v176h176V424zM360 184H184v176h176V184z m240 0H424v176h176V184z m240 0H664v176h176V184z" p-id="1101"></path></svg>