<?xml version="1.0" standalone="no"?><!DOCTYPE svg PUBLIC "-//W3C//DTD SVG 1.1//EN" "http://www.w3.org/Graphics/SVG/1.1/DTD/svg11.dtd"><svg t="1678011277553" class="icon" viewBox="0 0 1024 1024" version="1.1" xmlns="http://www.w3.org/2000/svg" p-id="2394" xmlns:xlink="http://www.w3.org/1999/xlink" width="200" height="200"><path d="M523.712 93.696L933.056 503.04a16 16 0 0 1-11.328 27.328h-57.344v366.016a16 16 0 0 1-16 16h-672a16 16 0 0 1-16-16V530.368h-57.408a16 16 0 0 1-11.264-27.328L501.056 93.696a16 16 0 0 1 22.656 0z m-11.328 90.496l-280.064 280v376.192h560V464.192l-279.936-280z m-51.008 221.312a8.064 8.064 0 0 1 9.92 3.648l22.272 33.536a6.592 6.592 0 0 1-3.456 9.92l-1.728 0.576a460.544 460.544 0 0 1-41.024 11.136v46.72h37.824c4.48 0 8 3.52 8 7.936v36.928a8 8 0 0 1-8 8H447.36v4.352l0.384-0.448 0.256 0.256 0.576 0.512 2.24 2.24 1.088 1.152 0.768 0.768 1.28 1.28 1.28 1.344 1.728 1.92 1.472 1.536 1.408 1.6 2.56 2.752 2.56 2.88 2.752 3.008 3.84 4.288 2.752 3.136 3.328 3.776 3.84 4.288 2.56 3.072 3.008 3.52 2.88 3.328 2.24 2.56 2.048 2.496 1.472 1.792 0.704 0.896a8.064 8.064 0 0 1-0.128 10.368l-21.952 30.464a6.464 6.464 0 0 1-11.136-1.152l-0.448-0.832-0.64-1.28a396.224 396.224 0 0 0-0.512-1.216l-1.152-2.368a504.384 504.384 0 0 0-0.64-1.152l-1.216-2.432-3.84-7.488-2.56-5.12-2.112-3.84-2.688-5.248v134.336a8 8 0 0 1-8 8h-38.144a8 8 0 0 1-8-8V652.096a371.968 371.968 0 0 1-25.536 49.088 7.872 7.872 0 0 1-14.08-0.96l-0.448-1.216a358.784 358.784 0 0 0-16.256-32.832l-0.128-0.256-1.152-1.984a8 8 0 0 1 0.704-8.96l0.64-0.768 0.896-1.152c14.08-18.112 27.328-42.048 38.272-66.24l1.088-2.432 1.088-2.432c1.792-4.032 3.456-8.064 5.12-12.032l0.96-2.432 0.448-1.216 0.96-2.368H345.6a8 8 0 0 1-8-8V519.04c0-4.416 3.584-8 8-8h47.616v-36.48l-5.696 0.896c-8.576 1.28-17.088 2.56-25.472 3.52a7.936 7.936 0 0 1-8.576-6.08l-0.192-0.64a198.912 198.912 0 0 0-8.32-25.152l-0.832-1.792a8 8 0 0 1 6.08-11.136l1.792-0.256 3.2-0.576c37.12-6.4 74.944-16.128 104.32-27.072l0.32-0.128z m206.528 13.76c4.416 0 8 3.584 8 8v282.112h24.128c4.416 0 8 3.52 8 8v36.48a8 8 0 0 1-8 8h-217.28a8 8 0 0 1-8-8v-36.48c0-4.48 3.584-8 8-8h26.88V427.264c0-4.416 3.648-8 8.064-8z m-49.664 243.84h-53.696v46.272h53.76v-46.272z m0-96.448h-53.696v45.44h53.76v-45.44z m0-94.848h-53.696v43.904h53.76v-43.904z" p-id="2395"></path></svg>