<?xml version="1.0" standalone="no"?><!DOCTYPE svg PUBLIC "-//W3C//DTD SVG 1.1//EN" "http://www.w3.org/Graphics/SVG/1.1/DTD/svg11.dtd"><svg t="1678335567664" class="icon" viewBox="0 0 1024 1024" version="1.1" xmlns="http://www.w3.org/2000/svg" p-id="2106" xmlns:xlink="http://www.w3.org/1999/xlink" width="200" height="200"><path d="M952 416a32 32 0 0 1 32 31.488V832a32 32 0 0 1-31.488 32H697.984a32 32 0 0 1-32-31.488V448a32 32 0 0 1 31.488-32H952z m-28.032 59.968H726.016v328h198.016v-328z m-98.944 240a32 32 0 1 1 0 64 32 32 0 0 1 0-64zM536.32 488.064h5.632c24.512 0 50.112 1.344 75.968 4.096v68.48c-24.576-2.944-49.28-4.48-73.408-4.544h-2.816c-82.176-0.32-175.488 17.6-244.608 47.616l-1.152 0.448v51.904H617.92v68.032H235.776a8 8 0 0 1-7.808-7.808V590.336a47.232 47.232 0 0 1 26.88-42.176c81.728-39.104 190.272-59.648 281.6-60.16z m-258.176 6.784a526.528 526.528 0 0 0-40.64 17.28 87.104 87.104 0 0 0-47.68 60.608c-30.08 6.912-58.752 15.936-84.032 26.688l-1.856 0.768v43.84h83.968v64H48a8 8 0 0 1-8-7.936v-113.28c0-16.64 9.536-31.808 24.512-38.912 61.312-29.312 139.072-47.168 211.072-52.864l2.624-0.192z m47.808-278.784c25.856 0 50.432 9.28 69.632 25.408a157.952 157.952 0 0 0-12.672 62.08c0 32.768 9.984 63.168 26.944 88.448-20.032 24.832-50.304 39.68-82.752 40.064h-1.152a107.968 107.968 0 0 1-1.792-216h1.792z m215.488-30.976A118.528 118.528 0 0 1 544 422.016h-4.48a118.528 118.528 0 0 1 0-236.928h1.92zM326.016 280a43.968 43.968 0 1 0 0 88 43.968 43.968 0 0 0 0-88z m215.488-27.008a50.56 50.56 0 0 0-1.664 100.992h2.752a50.56 50.56 0 0 0 42.368-24.768l0.256-0.448a50.56 50.56 0 0 0-43.712-75.776z" p-id="2107"></path></svg>