<?xml version="1.0" standalone="no"?><!DOCTYPE svg PUBLIC "-//W3C//DTD SVG 1.1//EN" "http://www.w3.org/Graphics/SVG/1.1/DTD/svg11.dtd"><svg t="1679050495639" class="icon" viewBox="0 0 1024 1024" version="1.1" xmlns="http://www.w3.org/2000/svg" p-id="2888" xmlns:xlink="http://www.w3.org/1999/xlink" width="200" height="200"><path d="M952 416a32 32 0 0 1 32 31.488V832a32 32 0 0 1-31.488 32H697.984a32 32 0 0 1-32-31.488V448a32 32 0 0 1 31.488-32H952z m-28.032 59.968H726.016v328h198.016v-328z m-98.944 240a32 32 0 1 1 0 64 32 32 0 0 1 0-64zM536.32 488.064h5.632c20.352 0 41.344 0.96 62.72 2.816l3.84 0.384 2.176 0.192c4.096 0.384 7.232 3.84 7.232 7.936v52.288a8 8 0 0 1-8.832 7.936l-2.432-0.256c-20.864-2.048-41.728-3.2-62.08-3.264h-2.88c-82.176-0.32-175.488 17.6-244.608 47.616l-1.152 0.448v51.904H609.92c4.352 0 7.872 3.456 8 7.744v52.288a8 8 0 0 1-8 7.936H235.776a8 8 0 0 1-7.808-7.68v-126.08a47.232 47.232 0 0 1 26.88-42.176c81.728-39.104 190.272-59.648 281.6-60.16z m-297.664 23.552l-1.152 0.576a86.848 86.848 0 0 0-47.68 60.544c-30.08 6.912-58.752 15.936-84.032 26.688l-1.856 0.768v43.84h75.968c4.352 0 7.872 3.456 8 7.808v48.192a8 8 0 0 1-8 8.064H48a8 8 0 0 1-8-8.064v-113.28c0-16.64 9.536-31.744 24.512-38.848 46.784-22.4 103.232-38.08 159.36-46.784l8.384-1.28 2.816-0.384a6.4 6.4 0 0 1 3.648 12.16z m87.296-295.552c21.888 0 42.88 6.656 60.416 18.496l0.896 0.64 0.768 0.512 0.512 0.384 1.216 0.896 1.024 0.768a7.99 7.99 0 0 1 2.56 9.216l-0.64 1.92-0.512 1.216-0.384 1.088-0.256 0.64a158.208 158.208 0 0 0 13.504 132.48l0.512 0.96 0.448 0.64 0.448 0.768 0.256 0.384a8 8 0 0 1-0.832 9.6l-0.576 0.64-0.512 0.576-0.768 0.768-0.448 0.512c-19.84 20.48-47.296 32.576-76.48 32.896h-1.152a107.968 107.968 0 0 1-1.792-216h1.792z m215.488-30.976A118.528 118.528 0 0 1 544 422.016h-4.48a118.528 118.528 0 0 1 0-236.928h1.92zM326.016 280a43.968 43.968 0 1 0 0 88 43.968 43.968 0 0 0 0-88z m215.488-27.008a50.56 50.56 0 0 0-1.664 100.992h2.752a50.56 50.56 0 0 0 42.368-24.768l0.256-0.448a50.56 50.56 0 0 0-43.712-75.776z" p-id="2889"></path></svg>