<?xml version="1.0" standalone="no"?><!DOCTYPE svg PUBLIC "-//W3C//DTD SVG 1.1//EN" "http://www.w3.org/Graphics/SVG/1.1/DTD/svg11.dtd"><svg t="1679050492193" class="icon" viewBox="0 0 1024 1024" version="1.1" xmlns="http://www.w3.org/2000/svg" p-id="2732" xmlns:xlink="http://www.w3.org/1999/xlink" width="200" height="200"><path d="M461.952 160a32 32 0 0 1 30.336 21.888l56.32 168.832a300.032 300.032 0 1 1-367.168 0l56.32-168.832A32 32 0 0 1 268.096 160h193.856z m240-11.392l0.192 0.384 0.256 0.384 87.424 154.944A300.032 300.032 0 0 1 592.32 865.728l-1.28-0.192a6.144 6.144 0 0 1-2.56-10.816l1.28-1.088a350.08 350.08 0 0 0 44.16-44.8l1.344-1.6 1.664-2.048 1.6-2.048a8 8 0 0 1 6.592-3.008l3.2 0.128h1.92l1.664 0.064h1.856a228.032 228.032 0 0 0-22.08-454.848l-1.024 0.128-1.536 0.192-1.28 0.128-1.856 0.256-1.472 0.192-2.752 0.384-1.152 0.192a8 8 0 0 1-6.848-2.304l-2.24-2.304-1.92-1.92-1.152-1.088-0.448-0.512a351.36 351.36 0 0 0-9.088-8.448l-1.984-1.856-1.28-1.088-2.24-1.92-2.048-1.792a8.256 8.256 0 0 1-2.56-4.224l-7.68-22.784a5.184 5.184 0 0 1 5.76-6.72h0.512l0.192 0.064a39.936 39.936 0 1 0-2.24-79.104l-0.64 0.128a39.808 39.808 0 0 0-19.776 10.112l-0.32 0.32a5.632 5.632 0 0 1-9.152-1.92l-0.064-0.256-16.32-48.96-0.64-1.728-0.064-0.256a8 8 0 0 1 6.4-10.688l123.648-24a32 32 0 0 1 33.536 14.912zM364.992 360a228.032 228.032 0 1 0 0 456 228.032 228.032 0 0 0 0-456z m0-140.032a40 40 0 1 0 0 80 40 40 0 0 0 0-80z" p-id="2733"></path></svg>