<?xml version="1.0" encoding="UTF-8"?>
<svg width="16px" height="16px" viewBox="0 0 16 16" version="1.1" xmlns="http://www.w3.org/2000/svg" xmlns:xlink="http://www.w3.org/1999/xlink">
    <title>前科</title>
    <g id="所有图标" stroke="none" stroke-width="1" fill="none" fill-rule="evenodd">
        <g id="Line/前科" fill-rule="nonzero">
            <rect id="矩形" fill="#000000" opacity="0" x="0" y="0" width="16" height="16"></rect>
            <path d="M7.21775,2.5 C7.43296303,2.5 7.62403263,2.63770759 7.69209375,2.841875 L8.57146875,5.47976563 C9.67820312,6.3371875 10.390625,7.67914063 10.390625,9.1875 C10.390625,11.7763281 8.29195312,13.875 5.703125,13.875 C3.11429687,13.875 1.015625,11.7763281 1.015625,9.1875 C1.015625,7.67914063 1.7280625,6.3371875 2.83478125,5.47975 L3.71415625,2.84189063 C3.78221196,2.63771704 3.97328283,2.5 4.1885,2.5 L7.21775,2.5 Z M10.967845,2.3218985 L12.3413446,4.75541787 C13.5913356,5.3859173 14.5467394,6.56728251 14.8345458,8.0479226 C15.3285038,10.5892045 13.6688497,13.0497474 11.1275836,13.5437207 C10.5796032,13.6502337 10.0353636,13.6566069 9.51378933,13.575601 L9.23502241,13.5235635 C9.18323655,13.5122549 9.15042324,13.4611067 9.16173184,13.4093209 C9.16636079,13.3881234 9.17803564,13.3691197 9.19485216,13.3554096 L9.21567712,13.3383291 C9.38258141,13.1969622 9.54084219,13.0457062 9.68955787,12.8854673 L9.95203652,12.5805666 L9.97675811,12.5493721 C10.0015312,12.517977 10.0398307,12.5003307 10.0797919,12.5018997 L10.2150071,12.505485 C10.4450246,12.5064125 10.6785188,12.484958 10.9129184,12.4393927 C12.8442856,12.0639722 14.1056226,10.1939553 13.7302178,8.26258785 C13.3876263,6.50011071 11.800402,5.29560455 10.0577176,5.38371851 L9.75796884,5.41226406 L9.69727983,5.42101795 C9.65777028,5.4268497 9.61785256,5.41345119 9.58986259,5.38496302 L9.4294904,5.22742733 L9.23992314,5.05757665 C9.22004096,5.04046686 9.20606039,5.01752667 9.19948004,4.99213026 L9.0808934,4.63639223 C9.06673639,4.59392378 9.08968733,4.54801978 9.13215577,4.53386276 L9.15095013,4.52999177 L9.18123246,4.53217186 C9.24404403,4.53964972 9.30906751,4.53764045 9.37449193,4.52492246 C9.71327659,4.45904924 9.93453896,4.13105306 9.86868526,3.79226806 C9.80999222,3.49041093 9.54320501,3.28186801 9.24611766,3.28657325 L9.1360312,3.29809425 C9.01575601,3.32147481 8.91029251,3.37790176 8.82723148,3.45612342 C8.78763306,3.49508179 8.73223133,3.49471188 8.69828874,3.46031298 L8.68717024,3.44648326 L8.67756261,3.42652634 L8.41154633,2.63116567 C8.38785466,2.56632265 8.42122266,2.49455492 8.48606841,2.47087069 L10.4439213,2.08870445 C10.6506631,2.04852019 10.8598696,2.14221056 10.967845,2.3218985 Z M5.703125,5.625 C3.735625,5.625 2.140625,7.22 2.140625,9.1875 C2.140625,11.155 3.735625,12.75 5.703125,12.75 C7.670625,12.75 9.265625,11.155 9.265625,9.1875 C9.265625,7.22 7.670625,5.625 5.703125,5.625 Z M5.703125,3.4375 C5.35794922,3.4375 5.078125,3.71732422 5.078125,4.0625 C5.078125,4.40767578 5.35794922,4.6875 5.703125,4.6875 C6.04830078,4.6875 6.328125,4.40767578 6.328125,4.0625 C6.328125,3.71732422 6.04830078,3.4375 5.703125,3.4375 Z" id="形状" fill="#0A1B39"></path>
        </g>
    </g>
</svg>