<?xml version="1.0" standalone="no"?><!DOCTYPE svg PUBLIC "-//W3C//DTD SVG 1.1//EN" "http://www.w3.org/Graphics/SVG/1.1/DTD/svg11.dtd"><svg t="1679309414212" class="icon" viewBox="0 0 1024 1024" version="1.1" xmlns="http://www.w3.org/2000/svg" p-id="2474" xmlns:xlink="http://www.w3.org/1999/xlink" width="200" height="200"><path d="M461.952 160a32 32 0 0 1 30.336 21.888l56.32 168.832a300.032 300.032 0 1 1-367.168 0l56.32-168.832A32 32 0 0 1 268.096 160h193.856z m240-11.392l87.872 155.712A300.032 300.032 0 0 1 608.832 868.8l-17.792-3.264a6.144 6.144 0 0 1-2.56-10.816l1.28-1.088a350.08 350.08 0 0 0 30.4-28.992l16.768-19.456 1.6-2.048a8 8 0 0 1 6.592-3.008l8.64 0.192a228.032 228.032 0 0 0-10.048-455.808l-19.2 1.92-3.84 0.512a8 8 0 0 1-6.912-2.304l-10.24-10.112-12.16-10.88a8.256 8.256 0 0 1-2.56-4.16l-7.68-22.784a5.184 5.184 0 0 1 3.328-6.528l1.216-0.256 1.92 0.128a39.936 39.936 0 1 0 4.16-79.68l-7.04 0.704a39.808 39.808 0 0 0-19.776 10.112c-2.56 2.56-6.08 2.496-8.256 0.256l-0.64-0.896-0.64-1.28-17.024-50.88a8 8 0 0 1 4.736-10.24l125.312-24.448a32 32 0 0 1 33.536 14.912zM364.992 360a228.032 228.032 0 1 0 0 456 228.032 228.032 0 0 0 0-456z m0-140.032a40 40 0 1 0 0 80 40 40 0 0 0 0-80z" p-id="2475"></path></svg>