<?xml version="1.0" standalone="no"?><!DOCTYPE svg PUBLIC "-//W3C//DTD SVG 1.1//EN" "http://www.w3.org/Graphics/SVG/1.1/DTD/svg11.dtd"><svg t="1678011286452" class="icon" viewBox="0 0 1024 1024" version="1.1" xmlns="http://www.w3.org/2000/svg" p-id="2706" xmlns:xlink="http://www.w3.org/1999/xlink" width="200" height="200"><path d="M461.952 160a32 32 0 0 1 30.336 21.888l56.32 168.832a300.032 300.032 0 1 1-367.168 0l56.32-168.832A32 32 0 0 1 268.096 160h193.856z m240-11.392l0.192 0.384 0.256 0.384 87.424 154.944a300.032 300.032 0 0 1-211.008 558.208c23.296-18.112 44.16-39.168 62.208-62.592a228.032 228.032 0 1 0-24.448-452.416 351.424 351.424 0 0 0-26.24-24.704l-0.64-0.576-11.52-34.496a40 40 0 1 0 7.168-76.8l-0.64 0.128a39.872 39.872 0 0 0-26.112 17.856l-20.736-62.208a80.32 80.32 0 0 0-2.752-7.104l133.312-25.92a32 32 0 0 1 33.536 14.912zM364.992 360a228.032 228.032 0 1 0 0 456 228.032 228.032 0 0 0 0-456z m0-140.032a40 40 0 1 0 0 80 40 40 0 0 0 0-80z" p-id="2707"></path></svg>