<?xml version="1.0" standalone="no"?><!DOCTYPE svg PUBLIC "-//W3C//DTD SVG 1.1//EN" "http://www.w3.org/Graphics/SVG/1.1/DTD/svg11.dtd"><svg t="1751021553702" class="icon" viewBox="0 0 1024 1024" version="1.1" xmlns="http://www.w3.org/2000/svg" p-id="997" xmlns:xlink="http://www.w3.org/1999/xlink" width="200" height="200"><path d="M60.608 447.104v150.528a68.8 68.8 0 0 0 69.12 68.992l161.984 0.192a68.992 68.992 0 0 0 69.12-69.184l0.128-126.784a405.44 405.44 0 0 1 151.104-28.928 406.208 406.208 0 0 1 151.168 28.736v126.72a68.8 68.8 0 0 0 68.992 69.056l162.112 0.192a68.992 68.992 0 0 0 69.12-69.12V447.04a119.744 119.744 0 0 0-49.536-96.64c-109.056-78.272-251.776-121.344-401.792-121.408-150.016 0.192-292.736 43.328-401.92 121.408a119.232 119.232 0 0 0-49.6 96.64z m91.264-38.144c97.152-69.568 225.152-107.904 360.192-107.904 135.04 0 263.04 38.272 360.128 107.84 12.224 8.704 19.456 23.04 19.52 38.208V594.88l-156.8 0.064 0.192-170.88-20.928-9.6a481.28 481.28 0 0 0-404.096 0.128l-20.992 9.6 0.128 170.752-156.8 0.064V447.232c0-15.296 7.232-29.568 19.456-38.272z" p-id="998"></path></svg>