<?xml version="1.0" standalone="no"?><!DOCTYPE svg PUBLIC "-//W3C//DTD SVG 1.1//EN" "http://www.w3.org/Graphics/SVG/1.1/DTD/svg11.dtd"><svg t="1725361347311" class="icon" viewBox="0 0 1024 1024" version="1.1" xmlns="http://www.w3.org/2000/svg" p-id="1294" xmlns:xlink="http://www.w3.org/1999/xlink" width="200" height="200"><path d="M572.032 32a411.968 411.968 0 0 1 244.096 743.936l13.376 181.76a32 32 0 0 1-32 34.304H210.496a32 32 0 0 1-31.936-34.368l17.6-238.592-132.416-44.16a64 64 0 0 1-20.48-11.328l-0.64-0.512a64 64 0 0 1-7.488-90.24l125.376-148.16A412.032 412.032 0 0 1 571.968 32z m0 76.032A336 336 0 0 0 236.288 428.16l-1.152 25.856-130.688 154.368L276.16 665.6l-18.432 250.368h492.416l-12.992-176.32 33.792-24.96a336 336 0 0 0-199.04-606.72zM504.32 247.936a16 16 0 0 1 15.04 10.56l137.152 377.408a8 8 0 0 1-7.488 10.688H608a16 16 0 0 1-15.104-10.752l-27.136-78.4H414.592l-26.88 78.336a16 16 0 0 1-15.168 10.88h-41.152a8 8 0 0 1-7.488-10.752L461.12 258.56A16 16 0 0 1 476.16 248h28.16z m251.2 0c4.416 0 8 3.584 8 8v382.72a8 8 0 0 1-8 7.936h-44.416a8 8 0 0 1-8-8V256c0-4.416 3.584-8 8-8h44.416z m-264.64 81.792h-1.088l-57.664 174.208h116.48L490.88 329.728z" p-id="1295"></path></svg>