<?xml version="1.0" standalone="no"?><!DOCTYPE svg PUBLIC "-//W3C//DTD SVG 1.1//EN" "http://www.w3.org/Graphics/SVG/1.1/DTD/svg11.dtd"><svg class="icon" width="200px" height="200.00px" viewBox="0 0 1024 1024" version="1.1" xmlns="http://www.w3.org/2000/svg"><path fill="#333333" d="M724.576 112a32 32 0 0 1 27.712 16l212.512 368a32 32 0 0 1 0 32L752.32 896a32 32 0 0 1-27.712 16H299.52a32 32 0 0 1-27.712-16L59.296 528a32 32 0 0 1 0-32L271.808 128a32 32 0 0 1 27.712-16h425.056z m-23.104 72h-378.88L133.216 512l189.44 328h378.88L890.88 512 701.44 184z m-87.456 62.016a98.016 98.016 0 0 1 74.176 162.016l23.072 35.616a72 72 0 1 1-38.016 29.664l-24.384-37.696a97.76 97.76 0 0 1-63.04 2.272l-100.736 179.136a98.016 98.016 0 1 1-154.56 5.632l-27.136-39.904a72 72 0 1 1 41.568-24.224l22.496 33.184a98.016 98.016 0 0 1 70.72-5.6l100.736-179.136a98.016 98.016 0 0 1 75.104-160.96z m-204 396a38.016 38.016 0 1 0 0 76 38.016 38.016 0 0 0 0-76z m-120-150.016a20 20 0 1 0 0 40 20 20 0 0 0 0-40z m443.968 0a20 20 0 1 0 0 40 20 20 0 0 0 0-40z m-120-186.016a38.016 38.016 0 1 0 0 76.032 38.016 38.016 0 0 0 0-76.032z" /></svg>