<?xml version="1.0" standalone="no"?><!DOCTYPE svg PUBLIC "-//W3C//DTD SVG 1.1//EN" "http://www.w3.org/Graphics/SVG/1.1/DTD/svg11.dtd"><svg t="1677985940287" class="icon" viewBox="0 0 1024 1024" version="1.1" xmlns="http://www.w3.org/2000/svg" p-id="3330" xmlns:xlink="http://www.w3.org/1999/xlink" width="200" height="200"><path d="M112 792a48 48 0 1 1 0 96 48 48 0 0 1 0-96z m800 0a48 48 0 1 1 0 96 48 48 0 0 1 0-96z m-400-24a48 48 0 1 1 0 96 48 48 0 0 1 0-96z m206.016-497.984A241.984 241.984 0 1 1 512 639.04a241.984 241.984 0 1 1 0-254.08 241.856 241.856 0 0 1 206.016-114.944zM305.92 345.984a166.016 166.016 0 1 0 0 332.032 166.016 166.016 0 0 0 0-332.032z m412.032 0a166.016 166.016 0 1 0 0 332.032 166.016 166.016 0 0 0 0-332.032zM512 160a48 48 0 1 1 0 96 48 48 0 0 1 0-96z m-400-24a48 48 0 1 1 0 96 48 48 0 0 1 0-96z m800 0a48 48 0 1 1 0 96 48 48 0 0 1 0-96z" p-id="3331"></path></svg>