<?xml version="1.0" standalone="no"?><!DOCTYPE svg PUBLIC "-//W3C//DTD SVG 1.1//EN" "http://www.w3.org/Graphics/SVG/1.1/DTD/svg11.dtd"><svg t="1678011325245" class="icon" viewBox="0 0 1024 1024" version="1.1" xmlns="http://www.w3.org/2000/svg" p-id="4104" xmlns:xlink="http://www.w3.org/1999/xlink" width="200" height="200"><path d="M874.24 222.976a227.712 227.712 0 0 1 0 322.048L534.656 884.608a32 32 0 0 1-45.312 0L149.76 545.024a227.712 227.712 0 0 1 321.92-322.048l40.256 40.32 40.256-40.32a227.712 227.712 0 0 1 321.984 0zM432 475.264l-48.384 48.384a8 8 0 0 1-5.696 2.368H238.208L512 799.808l273.792-273.792h-116.48l-87.68 87.552a8 8 0 0 1-11.072 0.256l-0.192-0.256L432 475.264z m-251.392-13.248h174.08l71.744-71.616a8 8 0 0 1 11.264 0L576 528.768l64.384-64.448a8 8 0 0 1 5.696-2.304h197.312c34.56-57.6 27.52-133.248-21.12-183.488l-1.728-1.792a151.68 151.68 0 0 0-212.736-1.728l-1.792 1.728L512 370.752l-94.016-94.016a151.68 151.68 0 0 0-238.592 183.232l1.216 2.048z" p-id="4105"></path></svg>