<?xml version="1.0" standalone="no"?><!DOCTYPE svg PUBLIC "-//W3C//DTD SVG 1.1//EN" "http://www.w3.org/Graphics/SVG/1.1/DTD/svg11.dtd"><svg t="1677985906334" class="icon" viewBox="0 0 1024 1024" version="1.1" xmlns="http://www.w3.org/2000/svg" p-id="2086" xmlns:xlink="http://www.w3.org/1999/xlink" width="200" height="200"><path d="M571.52 535.04h5.12l1.472 0.128c0.96 0 1.92 0 2.88 0.128l1.408 0.064 1.408 0.128 1.408 0.128c18.432 1.664 33.792 7.104 47.68 20.096 12.352 11.968 19.2 27.968 22.848 44.8l0.192 0.768 0.32 1.408 0.256 1.408 0.768 4.288 0.192 1.472 0.256 1.408 0.128 1.088 0.128 1.088 0.192 1.472 0.192 1.408 0.064 0.704v0.32a7.808 7.808 0 0 1-7.488 8.32h-43.2a8 8 0 0 1-7.936-7.04l-0.128-0.64v-0.576a38.848 38.848 0 0 0-7.104-19.136c-4.48-6.72-11.776-10.624-21.824-10.624a27.52 27.52 0 0 0-23.04 12.288 49.92 49.92 0 0 0-5.12 16l-0.256 1.28a130.432 130.432 0 0 0-0.768 5.312l-0.192 1.472-0.064 0.704-0.064 0.704-0.192 1.6-0.064 0.832-0.192 1.664v0.832l-0.128 0.832-0.128 1.664-0.128 1.792v0.896l-0.128 1.792-0.128 1.792-0.064 1.92-0.128 1.92-0.064 1.92-0.064 1.92-0.064 2.048-0.064 1.984-0.064 3.2-0.064 3.2-0.064 2.112v3.328l-0.064 2.24v5.824l-0.064 4.736v33.152l0.128 3.392v3.264l0.064 2.176 0.064 3.2v2.048l0.128 2.048v1.984l0.128 1.984 0.064 1.92 0.128 2.432 0.128 2.304 0.064 1.792 0.128 1.792 0.192 2.24 0.128 2.112 0.064 0.832 0.192 1.664 0.064 0.832 0.192 1.6 0.128 1.472 0.192 1.472 0.192 1.408c1.28 9.216 3.136 16.448 6.016 21.568a26.944 26.944 0 0 0 22.976 11.712 25.6 25.6 0 0 0 21.76-10.048 37.888 37.888 0 0 0 7.104-19.136l0.128-0.576v-0.512l0.128-0.64a8 8 0 0 1 7.68-7.168h43.136a7.808 7.808 0 0 1 7.808 8.448v0.256l-0.128 0.768c-2.752 24.192-10.56 45.632-24.96 59.968-15.104 15.168-36.352 21.888-62.72 21.888-27.712 0-52.096-7.168-69.44-30.72l-0.512-0.64c-8.32-11.392-13.44-26.944-16.448-45.184l-0.256-1.92-0.32-1.92-0.256-1.92-0.128-0.96-0.256-1.984a289.92 289.92 0 0 1-0.256-1.984l-0.256-1.984-0.192-2.048-0.192-2.048-0.192-2.048-0.192-2.048-0.192-2.048-0.128-2.112-0.128-1.088-0.128-2.112v-1.024l-0.192-2.176-0.128-2.112-0.128-2.176-0.064-2.176a508.16 508.16 0 0 1-0.128-2.24l-0.064-2.176v-1.152l-0.128-2.816v-1.472l-0.128-2.88-0.064-3.584-0.064-3.712v-1.472l-0.064-2.944V692.8l-0.064-3.008V676.48l0.064-2.944v-2.88l0.064-2.88 0.064-2.88v-1.408l0.128-2.88V659.2l0.128-2.816v-1.152l0.064-2.24 0.128-2.176 0.064-2.24 0.128-2.176 0.128-2.176 0.128-2.176 0.128-2.176c0-1.088 0.128-2.176 0.192-3.2l0.192-2.176 0.192-2.048 0.128-2.112 0.128-1.024 0.192-2.112 0.192-2.048 0.256-2.048 0.256-1.984 0.128-1.024 0.256-1.984c2.816-21.12 8-39.232 17.408-52.288 17.152-23.872 41.472-30.72 69.12-30.848h1.6z m-156.544 0a49.024 49.024 0 1 1 0 97.92 49.024 49.024 0 0 1 0-97.92z m0 32a17.024 17.024 0 1 0 0 33.92 17.024 17.024 0 0 0 0-33.92z m341.76 392.512a16 16 0 0 0 16-16V547.584h144.64a16 16 0 0 0 10.24-3.776l0.32-0.256a16 16 0 0 0 1.728-22.272l-0.256-0.32L536.832 74.88a32 32 0 0 0-47.744-0.384l-0.32 0.384L96.192 520.96a16 16 0 0 0 11.648 26.624H252.8v395.968c0 8.832 7.168 16 16 16h488z m-48-64H316.8V483.584H214.4l298.368-339.2 298.432 339.2H708.8v411.968z" p-id="2087"></path></svg>