<?xml version="1.0" standalone="no"?><!DOCTYPE svg PUBLIC "-//W3C//DTD SVG 1.1//EN" "http://www.w3.org/Graphics/SVG/1.1/DTD/svg11.dtd"><svg t="1677997629287" class="icon" viewBox="0 0 1024 1024" version="1.1" xmlns="http://www.w3.org/2000/svg" p-id="1050" xmlns:xlink="http://www.w3.org/1999/xlink" width="200" height="200"><path d="M819.84 652.288a145.28 145.28 0 1 1-10.88 290.304 145.28 145.28 0 0 1 10.88-290.304z m-554.624-181.44l0.96 3.84 0.64 2.816 0.768 2.752 0.512 1.92 0.64 2.432 0.448 1.728 0.448 1.664 0.32 1.024 0.384 1.536 0.32 0.896 0.256 0.896 0.256 0.896a312.704 312.704 0 0 0 191.36 200.448l1.152 0.384 1.728 0.64 2.368 0.768 2.176 0.768 1.216 0.384 0.64 0.192c3.712 1.216 5.952 4.992 5.376 8.832l-0.384 2.24-0.384 2.048-0.192 1.408-0.256 1.28-0.192 0.832-0.192 1.088a208.064 208.064 0 1 1-243.84-246.656l0.832-0.192 0.96-0.192 0.96-0.128 1.536-0.256 1.024-0.192 1.664-0.192 1.728-0.256 1.28-0.192 1.856-0.192 1.92-0.256 2.112-0.256 2.176-0.192 1.472-0.128 2.304-0.256 2.432-0.192 0.832-0.064a8 8 0 0 1 8.448 6.08zM744.768 755.52a81.28 81.28 0 1 0 73.92-39.168l-1.28-0.064a81.28 81.28 0 0 0-72.64 39.232z m-525.632-217.6l-0.256 0.128a144 144 0 1 0 181.568 199.04l0.256-0.512-1.664-0.832a377.024 377.024 0 0 1-179.648-197.12l-0.256-0.64z m349.888-401.408a263.872 263.872 0 1 1 0 527.808 263.872 263.872 0 0 1 0-527.808z m0 80a183.872 183.872 0 1 0 0 367.808 183.872 183.872 0 0 0 0-367.808zM220.032 112a84.032 84.032 0 1 1 0 168 84.032 84.032 0 0 1 0-168z m0 48a36.032 36.032 0 1 0 0 72 36.032 36.032 0 0 0 0-72z" p-id="1051"></path></svg>