<?xml version="1.0" standalone="no"?><!DOCTYPE svg PUBLIC "-//W3C//DTD SVG 1.1//EN" "http://www.w3.org/Graphics/SVG/1.1/DTD/svg11.dtd"><svg t="1677989527306" class="icon" viewBox="0 0 1024 1024" version="1.1" xmlns="http://www.w3.org/2000/svg" p-id="1238" xmlns:xlink="http://www.w3.org/1999/xlink" width="200" height="200"><path d="M756.8 64a16 16 0 0 1 16 16v396.032h144.64a16 16 0 0 1 10.24 3.712l0.256 0.256a16 16 0 0 1 1.728 22.272l-0.256 0.32-392.576 446.08a32 32 0 0 1-47.744 0.448l-0.32-0.448-392.576-446.08a16 16 0 0 1 11.648-26.56H252.8V80a16 16 0 0 1 16-16h488z m-48 64h-392v412.032H214.4l298.368 339.072L811.2 539.968H708.8V128z m-137.344 56h3.712l1.472 0.064 1.472 0.064 2.88 0.128 1.408 0.128 1.408 0.064 1.408 0.128c18.432 1.664 33.792 7.168 47.68 20.16 12.352 11.968 19.2 27.968 22.848 44.8l0.192 0.704 0.32 1.472 0.256 1.408 0.768 4.288 0.192 1.472 0.256 1.408 0.128 1.088 0.128 1.088 0.192 1.408 0.192 1.472 0.064 0.704v0.32a7.808 7.808 0 0 1-7.488 8.32h-43.2a8 8 0 0 1-7.936-7.04l-0.128-0.64v-0.576a38.848 38.848 0 0 0-7.104-19.2c-4.48-6.656-11.776-10.624-21.824-10.624a27.52 27.52 0 0 0-23.04 12.352 49.92 49.92 0 0 0-5.12 16l-0.256 1.216a130.432 130.432 0 0 0-0.768 5.376l-0.192 1.408-0.064 0.768-0.064 0.704-0.192 1.6-0.064 0.832-0.192 1.6v0.832l-0.128 0.832-0.128 1.728-0.128 1.728v0.896l-0.128 1.792-0.128 1.856-0.064 1.92-0.128 1.856-0.064 1.92-0.064 1.92-0.064 2.048-0.064 2.048-0.064 3.136-0.064 3.2-0.064 2.176v3.328l-0.064 2.24v5.76l-0.064 4.8v33.152l0.128 3.328v3.328l0.064 2.176 0.064 3.2v2.048l0.128 2.048v1.92l0.128 2.048 0.064 1.92 0.128 2.368 0.128 2.368 0.064 1.792 0.128 1.792 0.192 2.176 0.128 2.176 0.064 0.832 0.192 1.6 0.064 0.832 0.192 1.6 0.128 1.536 0.192 1.408 0.192 1.472c1.28 9.216 3.136 16.384 6.016 21.504a26.944 26.944 0 0 0 22.976 11.776 25.6 25.6 0 0 0 21.76-10.048 37.888 37.888 0 0 0 7.104-19.136l0.128-0.64v-0.512l0.128-0.576a8 8 0 0 1 7.68-7.168h43.136a7.808 7.808 0 0 1 7.808 8.384v0.256l-0.128 0.832c-2.752 24.192-10.56 45.568-24.96 59.968-15.104 15.104-36.352 21.824-62.72 21.824-27.712 0-52.096-7.104-69.44-30.656l-0.512-0.64c-8.32-11.456-13.44-26.944-16.448-45.248l-0.256-1.92-0.32-1.92-0.256-1.92-0.128-0.96-0.256-1.92a289.92 289.92 0 0 1-0.256-1.984l-0.256-2.048-0.192-1.984-0.192-2.048-0.192-2.048-0.192-2.048-0.192-2.112-0.128-2.048-0.128-1.088-0.128-2.112v-1.088l-0.192-2.112-0.128-2.176-0.128-2.176-0.064-2.176-0.128-2.176-0.064-2.24v-1.088l-0.128-2.88v-1.408l-0.128-2.88-0.064-3.648-0.064-3.648v-1.472l-0.128-2.944V325.44l0.064-2.88v-2.944l0.064-2.88 0.064-2.88v-1.408l0.128-2.816v-1.408l0.128-2.816v-1.152l0.064-2.24 0.128-2.24 0.064-2.176 0.128-2.24 0.128-2.176 0.128-2.176 0.128-2.176 0.192-3.2 0.192-2.112 0.192-2.112 0.128-2.112 0.128-1.024 0.192-2.048 0.192-2.048 0.256-2.048 0.256-2.048 0.128-0.96 0.256-1.984c2.816-21.184 8-39.296 17.408-52.352 17.152-23.808 41.472-30.656 69.12-30.784h1.6z m-156.48 0a49.024 49.024 0 1 1 0 97.984 49.024 49.024 0 0 1 0-97.984z m0 32a17.024 17.024 0 1 0 0 33.984 17.024 17.024 0 0 0 0-33.984z" p-id="1239"></path></svg>