<?xml version="1.0" standalone="no"?><!DOCTYPE svg PUBLIC "-//W3C//DTD SVG 1.1//EN" "http://www.w3.org/Graphics/SVG/1.1/DTD/svg11.dtd"><svg t="1677985960421" class="icon" viewBox="0 0 1024 1024" version="1.1" xmlns="http://www.w3.org/2000/svg" p-id="4108" xmlns:xlink="http://www.w3.org/1999/xlink" width="200" height="200"><path d="M904 796.032c4.416 0 8 3.52 8 7.936V856a8 8 0 0 1-8 8H120a8 8 0 0 1-8-8v-52.032c0-4.416 3.584-7.936 8-7.936h784z m-608-159.04c4.416 0 8 3.584 8 8v52.032a8 8 0 0 1-8 8H120a8 8 0 0 1-8-8v-52.032c0-4.416 3.584-8 8-8h176z m608 0c4.416 0 8 3.584 8 8v52.032a8 8 0 0 1-8 8H608a8 8 0 0 1-8-8v-52.032c0-4.416 3.584-8 8-8h296z m-392 0c4.416 0 8 3.584 8 8v52.032a8 8 0 0 1-8 8H392a8 8 0 0 1-8-8.064v-52.032c0-4.416 3.584-8 8-8h120z m48-158.976c4.416 0 8 3.584 8 8v51.968a8 8 0 0 1-8 8H120a8 8 0 0 1-8-8v-51.968c0-4.48 3.584-8 8-8h440z m344 0c4.416 0 8 3.584 8 8v51.968a8 8 0 0 1-8 8H656a8 8 0 0 1-8-8v-51.968c0-4.48 3.584-8 8-8h248z m0-159.04c4.416 0 8 3.584 8 8v52.032a8 8 0 0 1-8 8H120a8 8 0 0 1-8-8v-52.032c0-4.416 3.584-8 8-8h784zM459.968 160c4.48 0 8 3.584 8 8v52.032a8 8 0 0 1-8 7.936H120a8 8 0 0 1-8-7.936V168c0-4.416 3.584-8 8-8h340.032z m192 0c4.48 0 8.064 3.584 8.064 8v52.032a8 8 0 0 1-8.064 7.936h-96a8 8 0 0 1-7.936-7.936V168c0-4.416 3.52-8 7.936-8h96zM904 160c4.416 0 8 3.584 8 8v52.032a8 8 0 0 1-8 7.936H747.968a8 8 0 0 1-7.936-7.936V168c0-4.416 3.52-8 7.936-8H904z" p-id="4109"></path></svg>