<?xml version="1.0" standalone="no"?><!DOCTYPE svg PUBLIC "-//W3C//DTD SVG 1.1//EN" "http://www.w3.org/Graphics/SVG/1.1/DTD/svg11.dtd"><svg t="1735825156123" class="icon" viewBox="0 0 1024 1024" version="1.1" xmlns="http://www.w3.org/2000/svg" p-id="906" xmlns:xlink="http://www.w3.org/1999/xlink" width="200" height="200"><path d="M644 112a8 8 0 0 1 8 8v56a8 8 0 0 1-8 8h-52.493l197.594 703.848c2.388 8.508-2.572 17.34-11.08 19.729a16 16 0 0 1-14.953-3.445l-251.04-223.094-251.172 223.265c-6.604 5.87-16.717 5.276-22.588-1.329a16 16 0 0 1-3.442-14.97L433.207 184H380a8 8 0 0 1-8-8v-56a8 8 0 0 1 8-8h264z m-16.545 466.437l-61.24 54.434 101.958 90.608-40.718-145.042z m-230.65 0.204l-40.786 144.74 101.816-90.504-61.03-54.236z m208.77-78.141h-186.75l-0.313 1.11 93.51 83.101 93.79-83.369-0.237-0.842z m-40.706-145H459.683l-20.57 73h146.25l-20.494-73z m338.088-7.532v0.064c4.992 0 9.043 3.52 9.043 8v56c-0.04 4.393-4.077 7.936-9.043 7.936H713.043c-4.966 0-9.003-3.543-9.043-7.936v-56.064c0-4.416 4.051-8 9.043-8h189.914z m-592.262 0c4.992 0 9.044 3.584 9.044 8v56.064c-0.04 4.393-4.077 7.936-9.044 7.936H120.782c-4.966 0-9.003-3.543-9.043-7.936v-56c0-4.48 4.051-8 9.043-8v-0.064h189.913zM857.24 196.789l15.08 53.931a8 8 0 0 1-5.55 9.86l-161.794 45.24a8 8 0 0 1-9.859-5.55l-15.08-53.931a8 8 0 0 1 5.55-9.86L847.38 191.24a8 8 0 0 1 9.859 5.55z m-690.74 0a8 8 0 0 1 9.86-5.55l161.793 45.242a8 8 0 0 1 5.55 9.859l-15.08 53.93a8 8 0 0 1-9.859 5.551L156.97 260.579a8 8 0 0 1-5.55-9.859l15.08-53.931zM516.725 184h-8.713l-28.039 99.5h64.684L516.724 184z" p-id="907"></path></svg>