<?xml version="1.0" standalone="no"?><!DOCTYPE svg PUBLIC "-//W3C//DTD SVG 1.1//EN" "http://www.w3.org/Graphics/SVG/1.1/DTD/svg11.dtd"><svg t="1703827541191" class="icon" viewBox="0 0 1024 1024" version="1.1" xmlns="http://www.w3.org/2000/svg" p-id="3554" xmlns:xlink="http://www.w3.org/1999/xlink" width="200" height="200"><path d="M979.072 423.424L624.704 74.176a7.936 7.936 0 0 0-11.2 0L314.816 369.408a8.064 8.064 0 0 0-0.32 11.072l0.32 0.32 40 39.424-117.184 115.264a8 8 0 0 0-0.128 11.328l39.616 39.04L88 772.992H48a8 8 0 0 0-8 8v55.04c0 4.416 3.584 7.936 8 7.936h330.368a7.872 7.872 0 0 0 5.632-2.24l76.16-75.648 40.32 39.808a7.936 7.936 0 0 0 11.2 0L628.8 690.304l40.128 39.488a7.936 7.936 0 0 0 11.2 0l298.688-295.168a7.68 7.68 0 0 0 0.256-11.2z m-627.776 348.8H191.104l134.4-133.056 80.128 78.912-54.336 54.144z m-16.64-231.04l68.736-67.584 171.392 168.96-68.608 67.52L334.72 541.184z m77.12-166.08l207.36-205.12L881.92 428.992 674.56 633.984l-262.784-258.88z" p-id="3555"></path></svg>