<?xml version="1.0" standalone="no"?><!DOCTYPE svg PUBLIC "-//W3C//DTD SVG 1.1//EN" "http://www.w3.org/Graphics/SVG/1.1/DTD/svg11.dtd"><svg t="1677989564436" class="icon" viewBox="0 0 1024 1024" version="1.1" xmlns="http://www.w3.org/2000/svg" p-id="2632" xmlns:xlink="http://www.w3.org/1999/xlink" width="200" height="200"><path d="M832 112a32 32 0 0 1 32 32v168h-72V184H184v656h608V632h72v248a32 32 0 0 1-32 32H144a32 32 0 0 1-32-32V144a32 32 0 0 1 32-32h688zM649.984 472a80 80 0 0 1 0 160h-48v136a8 8 0 0 1-8 8h-48a8 8 0 0 1-8-8V576c0-4.416 3.584-8 8-8h104a16 16 0 1 0 0-32h-304v232a8 8 0 0 1-8 8h-48a8 8 0 0 1-8-8V536a64 64 0 0 1 64-64h304zM904 480c4.416 0 8 3.584 8 8v73.984a8 8 0 0 1-8 8H800a8 8 0 0 1-8-8V488c0-4.416 3.584-8 8-8h104zM419.968 248a96 96 0 1 1 0 192 96 96 0 0 1 0-192z m0 56a40 40 0 1 0 0 80 40 40 0 0 0 0-80z" p-id="2633"></path></svg>