<?xml version="1.0" standalone="no"?><!DOCTYPE svg PUBLIC "-//W3C//DTD SVG 1.1//EN" "http://www.w3.org/Graphics/SVG/1.1/DTD/svg11.dtd"><svg t="1649140756535" class="icon" viewBox="0 0 1024 1024" version="1.1" xmlns="http://www.w3.org/2000/svg" p-id="1736" xmlns:xlink="http://www.w3.org/1999/xlink" width="200" height="200"><defs><style type="text/css">@font-face { font-family: feedback-iconfont; src: url("//at.alicdn.com/t/font_1031158_u69w8yhxdu.woff2?t=1630033759944") format("woff2"), url("//at.alicdn.com/t/font_1031158_u69w8yhxdu.woff?t=1630033759944") format("woff"), url("//at.alicdn.com/t/font_1031158_u69w8yhxdu.ttf?t=1630033759944") format("truetype"); }
</style></defs><path d="M793 349.33366665a56 56 0 1 0 0 112 56 56 0 1 0 0-112z m-280 0a56 56 0 1 0 0 112 56 56 0 1 0 0-112z m-280 0a56 56 0 1 0 0 112 56 56 0 1 0 0-112zM793 562.66666665a56 56 0 1 0 0 112 56 56 0 1 0 0-112z m-280 0a56 56 0 1 0 0 112 56 56 0 1 0 0-112z m-280 0a56 56 0 1 0 0 112 56 56 0 1 0 0-112z" p-id="1737"></path></svg>