<?xml version="1.0" standalone="no"?><!DOCTYPE svg PUBLIC "-//W3C//DTD SVG 1.1//EN" "http://www.w3.org/Graphics/SVG/1.1/DTD/svg11.dtd"><svg t="1677575686304" class="icon" viewBox="0 0 1024 1024" version="1.1" xmlns="http://www.w3.org/2000/svg" p-id="1472" xmlns:xlink="http://www.w3.org/1999/xlink" width="200" height="200"><path d="M452.032 140.032v103.936a8 8 0 0 1-8 8.064h-104a8 8 0 0 1-8-8.064V140.032c0-4.48 3.52-8.064 8-8.064h104c4.416 0 8 3.584 8 8.064z m240 0v103.936a8 8 0 0 1-8.064 8.064H580.032a8 8 0 0 1-8.064-8.064V140.032a8.03 8.03 0 0 1 8.064-8.064h103.936a8.03 8.03 0 0 1 8.064 8.064z m-240 320v104a8 8 0 0 1-8 7.936h-104a8 8 0 0 1-8-7.936V459.968c0-4.416 3.52-8 8-8h104c4.416 0 8 3.584 8 8z m240 0v104a8 8 0 0 1-8.064 7.936H580.032a8 8 0 0 1-8.064-7.936V459.968c0-4.416 3.584-8 8.064-8h103.936c4.48 0 8.064 3.584 8.064 8z m-240 320v103.936a8 8 0 0 1-8 8.064h-104a8 8 0 0 1-8-8.064V780.032c0-4.48 3.52-8.064 8-8.064h104c4.416 0 8 3.584 8 8.064z m240 0v103.936a8 8 0 0 1-8.064 8.064H580.032a8 8 0 0 1-8.064-8.064V780.032a8.03 8.03 0 0 1 8.064-8.064h103.936a8.03 8.03 0 0 1 8.064 8.064z" p-id="1473"></path></svg>