<?xml version="1.0" standalone="no"?><!DOCTYPE svg PUBLIC "-//W3C//DTD SVG 1.1//EN" "http://www.w3.org/Graphics/SVG/1.1/DTD/svg11.dtd"><svg t="1689735018884" class="icon" viewBox="0 0 1024 1024" version="1.1" xmlns="http://www.w3.org/2000/svg" p-id="878" xmlns:xlink="http://www.w3.org/1999/xlink" width="200" height="200"><path d="M523.328 93.312l409.344 409.344a16 16 0 0 1-11.328 27.328H864V896a16 16 0 0 1-16 16H176a16 16 0 0 1-16-16V529.984h-57.344a16 16 0 0 1-11.328-27.328L500.672 93.312a16 16 0 0 1 22.656 0zM512 183.808l-280 280V840h160V595.968a16 16 0 0 1 15.68-16H616a16 16 0 0 1 16 15.68V840h160V463.808l-280-280z m56 460.16H456V840h112V643.968z" p-id="879"></path></svg>