<?xml version="1.0" standalone="no"?><!DOCTYPE svg PUBLIC "-//W3C//DTD SVG 1.1//EN" "http://www.w3.org/Graphics/SVG/1.1/DTD/svg11.dtd"><svg t="1669537820883" class="icon" viewBox="0 0 1024 1024" version="1.1" xmlns="http://www.w3.org/2000/svg" p-id="902" xmlns:xlink="http://www.w3.org/1999/xlink" width="200" height="200"><path d="M523.306667 99.328l409.386666 409.344a16 16 0 0 1-11.306666 27.306667H864V896a16 16 0 0 1-16 16H176A16 16 0 0 1 160 896v-360.021333H102.613333a16 16 0 0 1-11.306666-27.306667l409.386666-409.344a16 16 0 0 1 22.613334 0zM512 189.824l-280.021333 279.978667v370.218666h560V469.76L512 189.866667z m-3.754667 398.165333H512c63.829333 0 124.416 13.610667 181.76 40.832a32 32 0 0 1 18.218667 28.501334v102.656c0 2.176-1.706667 3.968-3.84 4.010666h-392.106667a4.010667 4.010667 0 0 1-4.053333-3.84v-102.4a32 32 0 0 1 18.304-28.928 418.56 418.56 0 0 1 177.92-40.832z m-134.570666 87.168l-1.706667 0.682667v28.16h280.021333v-28.16l-0.341333-0.128a358.229333 358.229333 0 0 0-137.984-27.733333h-1.877333a358.613333 358.613333 0 0 0-138.112 27.178666zM512 379.989333a86.016 86.016 0 0 1 0.938667 171.989334H512a86.016 86.016 0 0 1-1.408-171.946667H512z m0 59.989334a26.026667 26.026667 0 1 0 0 52.053333 26.026667 26.026667 0 0 0 0-52.053333z" p-id="903"></path></svg>