<?xml version="1.0" standalone="no"?><!DOCTYPE svg PUBLIC "-//W3C//DTD SVG 1.1//EN" "http://www.w3.org/Graphics/SVG/1.1/DTD/svg11.dtd"><svg t="1713498898504" class="icon" viewBox="0 0 1024 1024" version="1.1" xmlns="http://www.w3.org/2000/svg" p-id="850" xmlns:xlink="http://www.w3.org/1999/xlink" width="200" height="200"><path d="M912 880a32 32 0 0 1-32 32H144a32 32 0 0 1-32-32V144a32 32 0 0 1 32-32h736a32 32 0 0 1 32 32v736z m-72-336V184H184v360h656z m0 296V616H184v224h656z m-512-56a8 8 0 0 1-8 8h-48a8 8 0 0 1-8-8V672c0-4.416 3.584-8 8-8h48c4.416 0 8 3.584 8 8v112z m144 0a8 8 0 0 1-8 8h-48a8 8 0 0 1-8-8V672c0-4.416 3.584-8 8-8h48c4.416 0 8 3.584 8 8v112z m144 0a8 8 0 0 1-8 8h-48a8 8 0 0 1-8-8V672c0-4.416 3.584-8 8-8h48c4.416 0 8 3.584 8 8v112z m144 0a8 8 0 0 1-8 8h-48a8 8 0 0 1-8-8V672c0-4.416 3.584-8 8-8h48c4.416 0 8 3.584 8 8v112z" p-id="851"></path></svg>