<?xml version="1.0" standalone="no"?><!DOCTYPE svg PUBLIC "-//W3C//DTD SVG 1.1//EN" "http://www.w3.org/Graphics/SVG/1.1/DTD/svg11.dtd"><svg t="1648464801686" class="icon" viewBox="0 0 1024 1024" version="1.1" xmlns="http://www.w3.org/2000/svg" p-id="113500" xmlns:xlink="http://www.w3.org/1999/xlink" width="200" height="200"><defs><style type="text/css">@font-face { font-family: feedback-iconfont; src: url("//at.alicdn.com/t/font_1031158_u69w8yhxdu.woff2?t=1630033759944") format("woff2"), url("//at.alicdn.com/t/font_1031158_u69w8yhxdu.woff?t=1630033759944") format("woff"), url("//at.alicdn.com/t/font_1031158_u69w8yhxdu.ttf?t=1630033759944") format("truetype"); }
</style></defs><path d="M928 160c17.673 0 32 14.327 32 32v640c0 17.673-14.327 32-32 32H96c-17.673 0-32-14.327-32-32V192c0-17.673 14.327-32 32-32h832z m-40 72H136v560h752V232zM420 679a8 8 0 0 1 8 8v40a8 8 0 0 1-8 8h-40a8 8 0 0 1-8-8v-40a8 8 0 0 1 8-8h40z m112 0a8 8 0 0 1 8 8v40a8 8 0 0 1-8 8h-40a8 8 0 0 1-8-8v-40a8 8 0 0 1 8-8h40z m112 0a8 8 0 0 1 8 8v40a8 8 0 0 1-8 8h-40a8 8 0 0 1-8-8v-40a8 8 0 0 1 8-8h40zM276 448c35.346 0 64 28.654 64 64 0 35.346-28.654 64-64 64-35.346 0-64-28.654-64-64 0-35.346 28.654-64 64-64z m472 0c35.346 0 64 28.654 64 64 0 35.346-28.654 64-64 64-35.346 0-64-28.654-64-64 0-35.346 28.654-64 64-64z" p-id="113501"></path></svg>