<?xml version="1.0" standalone="no"?><!DOCTYPE svg PUBLIC "-//W3C//DTD SVG 1.1//EN" "http://www.w3.org/Graphics/SVG/1.1/DTD/svg11.dtd"><svg t="1658806269545" class="icon" viewBox="0 0 1024 1024" version="1.1" xmlns="http://www.w3.org/2000/svg" p-id="23708" xmlns:xlink="http://www.w3.org/1999/xlink" width="200" height="200"><defs><style type="text/css">@font-face { font-family: feedback-iconfont; src: url("//at.alicdn.com/t/font_1031158_u69w8yhxdu.woff2?t=1630033759944") format("woff2"), url("//at.alicdn.com/t/font_1031158_u69w8yhxdu.woff?t=1630033759944") format("woff"), url("//at.alicdn.com/t/font_1031158_u69w8yhxdu.ttf?t=1630033759944") format("truetype"); }
</style></defs><path d="M508.416 75.456l5.76 0.384c9.472 1.216 18.432 5.12 25.728 11.136l5.504 4.672a1322.368 1322.368 0 0 1 156.416 169.088c95.424 123.712 152.576 246.528 152.576 361.472a347.776 347.776 0 0 1-694.4-0.64c0-119.68 57.344-243.776 153.28-365.568 33.92-43.136 70.656-83.2 107.648-119.04l17.472-16.64c16.832-15.744 31.296-28.288 37.76-33.28a50.368 50.368 0 0 1 26.432-11.264l5.76-0.32zM507.52 140.416l-4.096 3.648A1172.224 1172.224 0 0 0 360.32 295.808c-87.168 111.04-138.816 222.08-138.816 325.12a286.784 286.784 0 0 0 286.208 268.608 286.72 286.72 0 0 0 286.208-267.968c0-98.176-51.648-207.936-138.816-320.768a1291.776 1291.776 0 0 0-100.16-114.56l-16-16a1165.312 1165.312 0 0 0-20.8-20.096l-10.624-9.728z m181.248 444.096c16.896 0 30.528 13.632 30.528 30.528a212.352 212.352 0 0 1-212.16 212.096 30.464 30.464 0 0 1 0-60.992 151.36 151.36 0 0 0 151.168-151.104c0-16.896 13.632-30.528 30.464-30.528z" p-id="23709"></path></svg>