<?xml version="1.0" standalone="no"?><!DOCTYPE svg PUBLIC "-//W3C//DTD SVG 1.1//EN" "http://www.w3.org/Graphics/SVG/1.1/DTD/svg11.dtd"><svg t="1648461494942" class="icon" viewBox="0 0 1024 1024" version="1.1" xmlns="http://www.w3.org/2000/svg" p-id="106678" xmlns:xlink="http://www.w3.org/1999/xlink" width="200" height="200"><defs><style type="text/css">@font-face { font-family: feedback-iconfont; src: url("//at.alicdn.com/t/font_1031158_u69w8yhxdu.woff2?t=1630033759944") format("woff2"), url("//at.alicdn.com/t/font_1031158_u69w8yhxdu.woff?t=1630033759944") format("woff"), url("//at.alicdn.com/t/font_1031158_u69w8yhxdu.ttf?t=1630033759944") format("truetype"); }
</style></defs><path d="M718.09 113H139.91c-15.967 0-28.91 12.92-28.91 28.857v656.449c0 15.937 12.943 28.857 28.91 28.857h578.18c15.967 0 28.91-12.92 28.91-28.857V141.857C747 125.92 734.057 113 718.09 113zM691 771.081H166v-603h525v603z" p-id="106679"></path><path d="M429.5 688c-22.368 0-40.5-19.346-40.5-43.21 0-21.365 32.461-69.314 39.26-79.123a1.485 1.485 0 0 1 2.48 0c6.799 9.81 39.26 57.758 39.26 79.123 0 23.864-18.132 43.21-40.5 43.21m7.44-183.264c-3.727-4.981-11.153-4.981-14.88 0-20.285 27.12-75.06 103.806-75.06 141.19 0 45.88 36.937 83.074 82.5 83.074s82.5-37.193 82.5-83.074c0-37.384-54.775-114.07-75.06-141.19" p-id="106680"></path><path d="M240.458 469.306h376.368c7.985 0 14.458-6.456 14.458-14.42V243.42c0-7.964-6.473-14.42-14.458-14.42H240.458c-7.985 0-14.458 6.456-14.458 14.42v211.466c0 7.964 6.473 14.42 14.458 14.42z m31.184-194.153h314v148h-314v-148z" p-id="106681"></path><path d="M262 827h56v83h-56z" p-id="106682"></path><path d="M230 861h120v49H230zM509 861h120v49H509zM401 827h56v83h-56z" p-id="106683"></path><path d="M541 827h56v83h-56zM872 229a8 8 0 0 1 8 8v228h-46V275h-89.495v-46H872zM810 465h94a8 8 0 0 1 8 8v429a8 8 0 0 1-8 8h-94a8 8 0 0 1-8-8V473a8 8 0 0 1 8-8z" p-id="106684"></path></svg>