<?xml version="1.0" standalone="no"?><!DOCTYPE svg PUBLIC "-//W3C//DTD SVG 1.1//EN" "http://www.w3.org/Graphics/SVG/1.1/DTD/svg11.dtd"><svg t="1711091929265" class="icon" viewBox="0 0 1024 1024" version="1.1" xmlns="http://www.w3.org/2000/svg" p-id="1258" xmlns:xlink="http://www.w3.org/1999/xlink" width="200" height="200"><path d="M551.232 112.256c3.072 0 5.888 1.792 7.232 4.608L616 240v224h288c4.352 0 7.872 3.456 8 7.744V656a8 8 0 0 1-7.744 8h-68.288v141.056c2.944 1.088 5.824 2.432 8.64 3.968l0.64 0.32 77.376 43.328c3.84 2.176 5.184 7.04 3.072 10.88l-27.392 48.896a8 8 0 0 1-10.624 3.2l-0.256-0.128-75.392-42.24-66.816 37.376a67.936 67.936 0 0 1-65.792 0.32l-0.64-0.32-66.752-37.376-66.816 37.376a67.936 67.936 0 0 1-65.792 0.32l-0.64-0.32-66.752-37.376-66.816 37.376a67.936 67.936 0 0 1-65.792 0.32l-0.64-0.32-66.816-37.376-75.392 42.24a8 8 0 0 1-10.752-2.88l-0.128-0.192-27.392-48.896a8 8 0 0 1 3.072-10.88l77.44-43.328c15.104-8.512 32.704-10.752 49.216-6.784V536H168a8 8 0 0 1-8-7.744V240l57.6-123.136a8 8 0 0 1 7.168-4.608h326.4zM763.968 664H664v155.84l48 26.88 51.968-29.12V664zM592 664H491.968v171.52L512 846.72l66.752-37.376c4.288-2.368 8.704-4.288 13.248-5.632V664zM420.032 771.968H299.968V840L312 846.72l66.752-37.376c12.8-7.104 27.2-9.856 41.28-8.192v-29.184z m0-107.968H299.904v43.968h120V664zM840 536H299.968v56H840v-56zM544 312H232v152h120v-76.032h72V464h120V312z m-33.536-127.744H265.6L239.552 240h297.024l-26.048-55.744z" p-id="1259"></path></svg>