<?xml version="1.0" standalone="no"?><!DOCTYPE svg PUBLIC "-//W3C//DTD SVG 1.1//EN" "http://www.w3.org/Graphics/SVG/1.1/DTD/svg11.dtd"><svg t="1677985956054" class="icon" viewBox="0 0 1024 1024" version="1.1" xmlns="http://www.w3.org/2000/svg" p-id="3952" xmlns:xlink="http://www.w3.org/1999/xlink" width="200" height="200"><path d="M347.584 494.72l0.256 0.128 108.352 89.344a8 8 0 0 1-2.048 13.568l-0.256 0.128-203.008 82.816a8 8 0 0 0-3.84 12.032l0.192 0.192 145.792 198.208a8 8 0 0 1-3.648 12.16l-0.192 0.128-104.448 28.928a8 8 0 0 1-9.6-3.776l-0.128-0.256L142.08 660.48a8 8 0 0 1 4.224-11.008l0.256-0.064 216.576-78.528a8 8 0 0 0 4.352-11.264l-0.128-0.256-31.552-54.272a8 8 0 0 1 11.776-10.368z m308.928 86.4l0.192 0.128 110.912 82.944a8 8 0 0 1-1.28 13.568l-0.192 0.064-152 80a8 8 0 0 0-2.56 12.736l0.256 0.192L747.52 917.12a8 8 0 0 1-2.048 12.8l-0.256 0.064-90.496 36.608a8 8 0 0 1-9.856-2.56l-0.128-0.256-142.912-212.16a8 8 0 0 1 2.944-11.584l0.192-0.128 169.088-80.96a8 8 0 0 0 3.584-11.008l-0.128-0.192-32.512-56.064a8 8 0 0 1 11.52-10.56zM805.504 137.6a8 8 0 0 1 5.888 6.656l17.216 130.048 18.56-10.752a8 8 0 0 1 10.88 2.688l0.128 0.256 19.968 34.624a8 8 0 0 1-2.688 10.88l-0.256 0.064-33.92 19.648a8.128 8.128 0 0 1-0.512 0.256l-55.232 206.08a8 8 0 0 1-9.792 5.632l-54.08-14.464-9.344 34.752a8 8 0 0 1-9.792 5.696l-46.336-12.48a8 8 0 0 1-5.696-9.792l9.344-34.752-255.04-68.352-9.28 34.816a8 8 0 0 1-9.792 5.632l-46.4-12.416a8 8 0 0 1-5.632-9.792l9.28-34.752-54.08-14.528a8 8 0 0 1-5.632-9.792l55.04-205.312a8 8 0 0 1-1.152-1.472l-19.584-34.048a8 8 0 0 1 2.88-10.88l34.688-20.032a8 8 0 0 1 10.88 2.944l11.328 19.52 80.448-104.704a8 8 0 0 1 8.384-2.752l339.328 90.88z m-36.608 215.296L390.208 251.52l-30.656 114.496 378.624 101.44 30.72-114.496z m-94.72-2.048a35.968 35.968 0 1 1-18.56 69.568 35.968 35.968 0 0 1 18.56-69.568zM473.28 296.96a35.968 35.968 0 1 1-18.624 69.504 35.968 35.968 0 0 1 18.624-69.504z m12.416-178.88l-59.008 76.8 338.88 90.88-12.736-96.128-267.072-71.488z" p-id="3953"></path></svg>