<?xml version="1.0" standalone="no"?><!DOCTYPE svg PUBLIC "-//W3C//DTD SVG 1.1//EN" "http://www.w3.org/Graphics/SVG/1.1/DTD/svg11.dtd"><svg t="1672914768532" class="icon" viewBox="0 0 1024 1024" version="1.1" xmlns="http://www.w3.org/2000/svg" p-id="917" xmlns:xlink="http://www.w3.org/1999/xlink" width="200" height="200"><path d="M928 160a32 32 0 0 1 32 31.488V832a32 32 0 0 1-31.488 32H96a32 32 0 0 1-32-31.488V192a32 32 0 0 1 31.488-32H928z m-40 72H136v560h752v-560z m-512 297.984c51.072 0 115.52 12.928 161.408 34.688a25.6 25.6 0 0 1 14.592 22.784v111.36a3.2 3.2 0 0 1-3.072 3.2H203.2a3.2 3.2 0 0 1-3.2-3.136V589.76a25.6 25.6 0 0 1 14.592-23.104c44.992-21.44 109.824-36.48 159.872-36.672h1.536z m-0.256 64c-32.576-0.128-75.648 8.32-110.592 20.928l-1.152 0.384v22.72h224v-24.512l-0.256-0.064a362.624 362.624 0 0 0-110.464-19.456h-1.536z m433.024-38.016c3.904 0 7.104 3.648 7.104 8.064v48h0.128c0 4.352-3.2 7.936-7.104 7.936H623.104c-3.904 0-7.104-3.584-7.104-7.936v-48c0-4.416 3.2-8.064 7.04-8.064h185.728zM376 321.984a91.968 91.968 0 1 1 0 184 91.968 91.968 0 0 1 0-184z m432.768 89.984c3.904 0 7.104 3.648 7.104 8.064v48h0.128c0 4.352-3.2 7.936-7.104 7.936H623.104c-3.904 0-7.104-3.584-7.104-7.936v-48c0-4.416 3.2-8.064 7.04-8.064h185.728z m-432.768-25.984a27.968 27.968 0 1 0 0 56 27.968 27.968 0 0 0 0-56z" p-id="918"></path></svg>