<?xml version="1.0" standalone="no"?><!DOCTYPE svg PUBLIC "-//W3C//DTD SVG 1.1//EN" "http://www.w3.org/Graphics/SVG/1.1/DTD/svg11.dtd"><svg t="1672996223554" class="icon" viewBox="0 0 1024 1024" version="1.1" xmlns="http://www.w3.org/2000/svg" p-id="3285" xmlns:xlink="http://www.w3.org/1999/xlink" width="200" height="200"><path d="M512 65.6a16 16 0 0 1 16 15.68v86.4l305.984 149.056a32 32 0 0 1 17.984 28.8v96.896c-22.4-6.656-46.08-10.24-70.528-10.432h-1.472v-61.44L528 247.68v568.32h37.312c17.28 28.16 40.064 52.608 66.688 72h-528a16 16 0 0 1-16-15.68V288a16 16 0 0 1 8.704-14.208l0.32-0.192L504.96 67.2A16 16 0 0 1 512 65.6zM780.032 480a204.032 204.032 0 1 1 0 408 204.032 204.032 0 0 1 0-408z m-116.864 126.784a139.968 139.968 0 0 0 193.984 193.984l-193.92-193.92zM456 171.136L160 323.008v492.992h296V171.136zM780.032 544c-28.544 0-55.104 8.512-77.248 23.168l194.048 194.048A139.968 139.968 0 0 0 780.032 544z m-390.592 120c3.648 0 6.592 3.584 6.592 8v56c0 4.416-2.944 8-6.528 8H226.496c-3.584 0-6.464-3.584-6.464-8V672c0-4.416 2.88-8 6.464-8h162.944z m0-144c3.648 0 6.592 3.584 6.592 8v56c0 4.416-2.944 8-6.528 8H226.496c-3.584 0-6.464-3.584-6.464-8V528c0-4.416 2.88-8 6.464-8h163.008z m0-144c3.648 0 6.592 3.584 6.592 8v56c0 4.416-2.944 8-6.528 8H226.496c-3.584 0-6.464-3.584-6.464-8V384c0-4.416 2.88-8 6.464-8h163.008z" p-id="3286"></path></svg>