<?xml version="1.0" standalone="no"?><!DOCTYPE svg PUBLIC "-//W3C//DTD SVG 1.1//EN" "http://www.w3.org/Graphics/SVG/1.1/DTD/svg11.dtd"><svg t="1657785412068" class="icon" viewBox="0 0 1024 1024" version="1.1" xmlns="http://www.w3.org/2000/svg" p-id="785" xmlns:xlink="http://www.w3.org/1999/xlink" width="200" height="200"><defs><style type="text/css">@font-face { font-family: feedback-iconfont; src: url("//at.alicdn.com/t/font_1031158_u69w8yhxdu.woff2?t=1630033759944") format("woff2"), url("//at.alicdn.com/t/font_1031158_u69w8yhxdu.woff?t=1630033759944") format("woff"), url("//at.alicdn.com/t/font_1031158_u69w8yhxdu.ttf?t=1630033759944") format("truetype"); }
</style></defs><path d="M766.66666667 576c103.835 0 188 84.165 188 188s-84.165 188-188 188-188-84.165-188-188 84.165-188 188-188zM663.63266667 694.908C649.99266667 715.17 642.66666667 739.028 642.66666667 764c0 33.121 12.89 64.285 36.303 87.697C702.38166667 875.112 733.54566667 888 766.66666667 888c24.971 0 48.83-7.327 69.092-20.966L663.63266667 694.908zM530.66666667 65.585c8.731 0 15.83 6.994 15.997 15.685l0.003 0.315v155.468l225.491 166.151a16.002 16.002 0 0 1 6.511 12.88v128.238A223.587 223.587 0 0 0 766.66666667 544c-20.801 0-40.927 2.886-60 8.28V444.383L546.66666667 326.488V808l4.4 0.003a218.66 218.66 0 0 0 28.629 71.998H106.66666667c-8.731 0-15.83-6.995-16-15.686V288.006a16 16 0 0 1 8.681-14.228l0.315-0.158 424-206.42A16 16 0 0 1 530.66666667 65.584zM766.66666667 640c-24.971 0-48.83 7.327-69.092 20.966l172.126 172.126C883.34066667 812.83 890.66666667 788.972 890.66666667 764c0-33.121-12.89-64.285-36.303-87.697C830.95166667 652.888 799.78766667 640 766.66666667 640zM474.66666667 171.131L162.66666667 323.027V808h312V171.131zM400.09666667 664c3.65 0 6.57 3.584 6.57 8v56c0 4.418-2.918 8-6.519 8H237.18666667c-3.6 0-6.519-3.582-6.519-8v-56c0-4.416 2.92-8 6.519-8h162.91z m0.051-144c3.599 0 6.519 3.584 6.519 8v56c0 4.418-2.918 8-6.519 8H237.18666667c-3.6 0-6.519-3.582-6.519-8v-56c0-4.416 2.92-8 6.519-8H400.14666667z m0-144c3.599 0 6.519 3.584 6.519 8v56c0 4.418-2.918 8-6.519 8H237.18666667c-3.6 0-6.519-3.582-6.519-8v-56c0-4.416 2.92-8 6.519-8H400.14666667z" p-id="786"></path></svg>