<?xml version="1.0" standalone="no"?><!DOCTYPE svg PUBLIC "-//W3C//DTD SVG 1.1//EN" "http://www.w3.org/Graphics/SVG/1.1/DTD/svg11.dtd"><svg t="1679051971015" class="icon" viewBox="0 0 1024 1024" version="1.1" xmlns="http://www.w3.org/2000/svg" p-id="3974" xmlns:xlink="http://www.w3.org/1999/xlink" width="200" height="200"><path d="M512 65.6a16 16 0 0 1 16 15.68v86.4l305.984 149.056a32 32 0 0 1 17.984 28.8V424a8 8 0 0 1-7.936 8h-56.064a8 8 0 0 1-7.936-7.744v-53.76L528 247.744v632.32a8 8 0 0 1-8 7.936H104a16 16 0 0 1-16-15.68V288a16 16 0 0 1 8.704-14.208l0.32-0.192L504.96 67.2a16 16 0 0 1 7.04-1.6zM780.032 480a204.032 204.032 0 1 1 0 408 204.032 204.032 0 0 1 0-408zM663.168 606.784a139.968 139.968 0 0 0 193.984 193.984l-193.92-193.92zM456 171.136L160 323.008V816h296V171.136zM780.032 544c-28.544 0-55.104 8.512-77.248 23.168l194.048 194.048A139.968 139.968 0 0 0 780.032 544zM389.44 664c3.648 0 6.592 3.584 6.592 8v56c0 4.416-2.944 8-6.528 8H226.496c-3.584 0-6.464-3.584-6.464-8v-56c0-4.416 2.88-8 6.464-8H389.44z m0-144c3.648 0 6.592 3.584 6.592 8v56c0 4.416-2.944 8-6.528 8H226.496c-3.584 0-6.464-3.584-6.464-8v-56c0-4.416 2.88-8 6.464-8h163.008z m0-144c3.648 0 6.592 3.584 6.592 8v56c0 4.416-2.944 8-6.528 8H226.496c-3.584 0-6.464-3.584-6.464-8v-56c0-4.416 2.88-8 6.464-8h163.008z" p-id="3975"></path></svg>