<?xml version="1.0" standalone="no"?><!DOCTYPE svg PUBLIC "-//W3C//DTD SVG 1.1//EN" "http://www.w3.org/Graphics/SVG/1.1/DTD/svg11.dtd"><svg t="1649138783460" class="icon" viewBox="0 0 1024 1024" version="1.1" xmlns="http://www.w3.org/2000/svg" p-id="22653" xmlns:xlink="http://www.w3.org/1999/xlink" width="200" height="200"><defs><style type="text/css">@font-face { font-family: feedback-iconfont; src: url("//at.alicdn.com/t/font_1031158_u69w8yhxdu.woff2?t=1630033759944") format("woff2"), url("//at.alicdn.com/t/font_1031158_u69w8yhxdu.woff?t=1630033759944") format("woff"), url("//at.alicdn.com/t/font_1031158_u69w8yhxdu.ttf?t=1630033759944") format("truetype"); }
</style></defs><path d="M928.5 159.5h-832a32 32 0 0 0-32 32v640a32 32 0 0 0 32 32h832a32 32 0 0 0 32-32v-640a32 32 0 0 0-32-32z m-40 72v385.84L685.74 391.72a8 8 0 0 0-11.9 0L428.11 665.15 266.27 485.07a8 8 0 0 0-11.9 0L136.5 616.23V231.5z m-752 560V712l123.82-137.8 161.84 180.08a8 8 0 0 0 11.9 0l245.73-273.43L888.5 713.09v78.41z" p-id="22654"></path><path d="M316.87 446.64a92 92 0 1 0-92-92 92.1 92.1 0 0 0 92 92z m0-120a28 28 0 1 1-28 28 28 28 0 0 1 28-28z" p-id="22655"></path></svg>