<?xml version="1.0" standalone="no"?><!DOCTYPE svg PUBLIC "-//W3C//DTD SVG 1.1//EN" "http://www.w3.org/Graphics/SVG/1.1/DTD/svg11.dtd"><svg t="1740723552988" class="icon" viewBox="0 0 1024 1024" version="1.1" xmlns="http://www.w3.org/2000/svg" p-id="996" xmlns:xlink="http://www.w3.org/1999/xlink" width="200" height="200"><path d="M751.232 480a190.72 190.72 0 0 1 155.584 301.056l74.88 74.88a8 8 0 0 1 0 11.264l-33.92 33.92a8 8 0 0 1-11.392 0l-74.816-74.816A190.72 190.72 0 1 1 751.232 480zM880 136a32 32 0 0 1 32 32v256a8 8 0 0 1-8 8h-56a8 8 0 0 1-8-8V208H136v334.72l89.6-117.056a8 8 0 0 1 12.8 0l148.16 193.6 208-271.616a8 8 0 0 1 12.736 0l72.832 95.168a238.72 238.72 0 0 0-59.2 27.904l-19.968-26.112-208 271.616a8 8 0 0 1-12.8 0l-148.096-193.6-96 125.312V768h368c4.416 0 8 3.584 8 8v56a8 8 0 0 1-8 8H96a32 32 0 0 1-32-32V168a32 32 0 0 1 32-32h784zM656 587.2a126.72 126.72 0 1 0 190.528 167.04A126.72 126.72 0 0 0 656 587.2zM283.968 248a84.032 84.032 0 1 1 0 168 84.032 84.032 0 0 1 0-168z m0 56a27.968 27.968 0 1 0 0 56 27.968 27.968 0 0 0 0-56z" p-id="997"></path></svg>