<?xml version="1.0" standalone="no"?><!DOCTYPE svg PUBLIC "-//W3C//DTD SVG 1.1//EN" "http://www.w3.org/Graphics/SVG/1.1/DTD/svg11.dtd"><svg t="1675225239355" class="icon" viewBox="0 0 1024 1024" version="1.1" xmlns="http://www.w3.org/2000/svg" p-id="946" xmlns:xlink="http://www.w3.org/1999/xlink" width="200" height="200"><path d="M836.565333 576.682667c17.493333 0 31.701333 14.037333 32 31.488V688.554667l66.901334-51.370667a15.232 15.232 0 0 1 24.533333 11.733333v190.976a15.274667 15.274667 0 0 1-24.192 12.373334l-0.341333-0.256-66.901334-51.370667v79.36a32 32 0 0 1-31.445333 32H565.290667a32 32 0 0 1-32-31.488V720.256l-0.213334-111.786667a32 32 0 0 1 31.445334-31.445333h19.498666l108.288-0.341333h144.256zM176 688c4.437333 0 7.978667 3.584 7.978667 7.978667v120.021333h120.021333c4.437333 0 7.978667 3.584 7.978667 8.021333v55.978667a7.978667 7.978667 0 0 1-7.978667 8.021333h-160a32 32 0 0 1-32-32v-160c0-4.437333 3.584-8.021333 7.978667-8.021333h56.021333z m628.565333-47.274667H597.333333v207.274667h207.274667v-207.274667zM731.008 308.48c8.832 0 16 7.168 16 16v204.202667h-56.021333V364.501333H285.013333v214.101334l87.978667-97.877334a7.978667 7.978667 0 0 1 0.426667-0.426666l0.170666-0.170667a8.021333 8.021333 0 0 1 11.093334 0.426667l0.213333 0.170666 77.952 86.741334 112.128-124.757334a7.978667 7.978667 0 0 1 11.733333-0.213333l0.170667 0.213333 77.312 86.016-64.426667 0.085334-18.816-20.906667-112.128 124.757333a8.021333 8.021333 0 0 1-11.733333 0.213334l-0.170667-0.213334-77.994666-86.741333-93.909334 104.533333v9.045334h200.96v56.021333H245.034667a16 16 0 0 1-16-16v-375.04c0-8.832 7.168-16 16-16h485.973333zM368 381.994667a40.021333 40.021333 0 1 1 0 80 40.021333 40.021333 0 0 1 0-80zM832 136.021333a32 32 0 0 1 32 32v160a7.978667 7.978667 0 0 1-8.021333 7.978667H800a8.021333 8.021333 0 0 1-7.978667-7.765333V208H672a7.978667 7.978667 0 0 1-8.021333-8.021333V144c0-4.437333 3.584-8.021333 8.021333-8.021333h160z m-528 0c4.437333 0 7.978667 3.541333 7.978667 7.978667v56.021333a8.021333 8.021333 0 0 1-7.978667 7.978667H183.978667v119.978667a8.021333 8.021333 0 0 1-7.978667 8.021333H119.978667a8.021333 8.021333 0 0 1-7.978667-8.021333v-160a32 32 0 0 1 32-32h160z" p-id="947"></path></svg>