<?xml version="1.0" standalone="no"?><!DOCTYPE svg PUBLIC "-//W3C//DTD SVG 1.1//EN" "http://www.w3.org/Graphics/SVG/1.1/DTD/svg11.dtd"><svg t="1679049623595" class="icon" viewBox="0 0 1024 1024" version="1.1" xmlns="http://www.w3.org/2000/svg" p-id="2826" xmlns:xlink="http://www.w3.org/1999/xlink" width="200" height="200"><path d="M836.544 576.64a32 32 0 0 1 32 31.488v80.384l66.944-51.328A15.232 15.232 0 0 1 960 648.896v190.976a15.296 15.296 0 0 1-24.192 12.352l-0.32-0.256-66.944-51.328V880a32 32 0 0 1-31.424 32H565.312a32 32 0 0 1-32-31.488V720.256l-0.256-111.808a32 32 0 0 1 31.488-31.424H584l108.288-0.32h144.256zM176 688c4.416 0 8 3.584 8 8v120h120c4.416 0 8 3.584 8 8v56a8 8 0 0 1-8 8H144a32 32 0 0 1-32-32V696c0-4.48 3.584-8 8-8h56z m628.544-47.296H597.312V848h207.232V640.704z m-73.6-332.16a16 16 0 0 1 16 16v196.16a8 8 0 0 1-7.936 8h-40a8 8 0 0 1-8-8v-156.16H284.992V578.56l88-97.92a8 8 0 0 1 0.384-0.384l0.192-0.192a8 8 0 0 1 11.136 0.384l0.192 0.192 77.952 86.784 112.128-124.8a8 8 0 0 1 11.712-0.192l0.192 0.192 65.28 72.704a8 8 0 0 1-5.888 13.376h-39.36a16 16 0 0 1-11.968-5.248l-14.016-15.616L468.8 632.64a8 8 0 0 1-11.712 0.192l-0.192-0.256-77.952-86.656-93.952 104.512v9.088H478.08c4.416 0 8 3.584 8 8v40a8 8 0 0 1-8 8H245.12a16 16 0 0 1-16-16V324.48a16 16 0 0 1 16-16h485.952zM368 381.952a40 40 0 1 1 0 80 40 40 0 0 1 0-80zM832 136a32 32 0 0 1 32 32v160a8 8 0 0 1-8 8h-56a8 8 0 0 1-8-7.744V208H672a8 8 0 0 1-8-8v-56c0-4.416 3.584-8 8-8h160z m-528 0c4.416 0 8 3.584 8 8v56a8 8 0 0 1-8 8H184v120a8 8 0 0 1-8 8h-56a8 8 0 0 1-8-8V168a32 32 0 0 1 32-32h160z" p-id="2827"></path></svg>