<?xml version="1.0" standalone="no"?><!DOCTYPE svg PUBLIC "-//W3C//DTD SVG 1.1//EN" "http://www.w3.org/Graphics/SVG/1.1/DTD/svg11.dtd"><svg t="1678008747682" class="icon" viewBox="0 0 1024 1024" version="1.1" xmlns="http://www.w3.org/2000/svg" p-id="1362" xmlns:xlink="http://www.w3.org/1999/xlink" width="200" height="200"><path d="M620.992 192v56a8 8 0 0 1-8 8H160v388.288l114.816-126.72a8 8 0 0 1 11.84 0l143.68 159.04 199.232-224a8 8 0 0 1 11.968 0L792 621.76V436.032c0-4.48 3.584-8 8-8h56c4.416 0 8 3.52 8 8v396.992a32 32 0 0 1-32 32H120a32 32 0 0 1-32-32V216a32 32 0 0 1 32-32h492.992c4.48 0 8 3.584 8 8z m14.528 350.144l-198.848 223.68a8 8 0 0 1-11.904 0l-144.064-159.36L160 739.584v53.376h632v-74.88l-156.48-176zM302.976 299.968a89.984 89.984 0 1 1 0 180.032 89.984 89.984 0 0 1 0-180.032z m0 60.032a30.016 30.016 0 1 0 0 59.968 30.016 30.016 0 0 0 0-59.968z m525.12-294.976a8 8 0 0 1 5.632 5.696l30.464 113.088 113.088 30.464a8 8 0 0 1 0 15.424L864.192 260.16l-30.464 113.152a8 8 0 0 1-15.424 0L787.84 260.16l-113.152-30.464a8 8 0 0 1 0-15.424l113.152-30.464L818.304 70.72a8 8 0 0 1 9.792-5.696z" p-id="1363"></path></svg>