<?xml version="1.0" standalone="no"?><!DOCTYPE svg PUBLIC "-//W3C//DTD SVG 1.1//EN" "http://www.w3.org/Graphics/SVG/1.1/DTD/svg11.dtd"><svg t="1677638158570" class="icon" viewBox="0 0 1024 1024" version="1.1" xmlns="http://www.w3.org/2000/svg" p-id="3194" xmlns:xlink="http://www.w3.org/1999/xlink" width="200" height="200"><path d="M625.984 112a120 120 0 1 1-55.488 226.432l-214.4 214.4a308.48 308.48 0 0 1 63.808 155.136h305.6a120.064 120.064 0 1 1 0 72.064H104.32a32 32 0 0 1-22.592-54.656l437.824-437.888A120 120 0 0 1 625.984 112zM840 692.032a51.968 51.968 0 1 0 0 103.936 51.968 51.968 0 0 0 0-103.936z m-526.72-96.384l-112.384 112.32h158.528a248.704 248.704 0 0 0-46.144-112.32z m312.64-415.68a51.968 51.968 0 1 0 0 104 51.968 51.968 0 0 0 0-104z" p-id="3195"></path></svg>