<?xml version="1.0" standalone="no"?><!DOCTYPE svg PUBLIC "-//W3C//DTD SVG 1.1//EN" "http://www.w3.org/Graphics/SVG/1.1/DTD/svg11.dtd"><svg t="1702464707186" class="icon" viewBox="0 0 1024 1024" version="1.1" xmlns="http://www.w3.org/2000/svg" p-id="2830" xmlns:xlink="http://www.w3.org/1999/xlink" width="200" height="200"><path d="M302.208 112c18.176 0 35.392 7.04 48.32 19.84l115.2 114.944a68.992 68.992 0 0 1 0 97.792l-89.6 89.728c20.352 47.36 48.96 89.728 85.248 126.208l1.152 1.088a406.208 406.208 0 0 0 127.168 86.592l89.6-89.664a68.8 68.8 0 0 1 97.152-0.512l115.2 115.008a68.992 68.992 0 0 1 0 97.792L785.28 877.184a119.744 119.744 0 0 1-102.208 33.536l-1.152-0.192C549.44 888.704 418.112 818.176 312 712.192 206.016 605.952 135.616 474.624 113.6 342.08a119.232 119.232 0 0 1 33.28-103.36l106.56-106.432C266.432 119.296 283.84 112 302.272 112z m0.064 72.96L197.824 289.344a46.784 46.784 0 0 0-13.312 40.768c19.456 117.952 82.88 235.52 178.368 331.008 95.488 95.488 212.992 158.912 330.88 178.432 14.848 2.496 30.08-2.56 40.832-13.248l104.512-104.448L728.32 610.944 607.616 731.84l-21.632-8a481.28 481.28 0 0 1-285.696-285.824l-8-21.568L413.12 295.744 302.272 184.832z m564.672-69.76l0.192 0.192 42.432 42.432a8 8 0 0 1 0.192 11.136l-0.192 0.192-239.36 239.296 52.48 52.352a8 8 0 0 1-4.48 13.568h-0.192l-179.392 21.056a8 8 0 0 1-8.96-8.704v-0.256l21.12-179.456a8 8 0 0 1 13.376-4.8l0.192 0.128 52.224 52.288 239.232-239.232a8 8 0 0 1 11.136-0.192z" p-id="2831"></path></svg>