<?xml version="1.0" standalone="no"?><!DOCTYPE svg PUBLIC "-//W3C//DTD SVG 1.1//EN" "http://www.w3.org/Graphics/SVG/1.1/DTD/svg11.dtd"><svg t="1678008743907" class="icon" viewBox="0 0 1024 1024" version="1.1" xmlns="http://www.w3.org/2000/svg" p-id="1206" xmlns:xlink="http://www.w3.org/1999/xlink" width="200" height="200"><path d="M127 912c-8.837 0-16-7.163-16-16V128c0-8.837 7.163-16 16-16h156c8.837 0 16 7.163 16 16v34c0 8.837-7.163 16-16 16H177v322h106c8.837 0 16 7.163 16 16v34c0 8.837-7.163 16-16 16H177v280h406V709c0-8.837 7.163-16 16-16h34c8.837 0 16 7.163 16 16v137h192V413H649v137c0 8.731-6.994 15.83-15.685 15.997L633 566H433c-8.837 0-16-7.163-16-16v-34c0-8.837 7.163-16 16-16h150V178H432c-8.284 0-15-6.716-15-15v-35c0-8.837 7.163-16 16-16h200c8.837 0 16 7.163 16 16v219h242c8.837 0 16 7.163 16 16v533c0 8.731-6.994 15.83-15.685 16H127z" p-id="1207"></path></svg>