<?xml version="1.0" standalone="no"?><!DOCTYPE svg PUBLIC "-//W3C//DTD SVG 1.1//EN" "http://www.w3.org/Graphics/SVG/1.1/DTD/svg11.dtd"><svg t="1648464322712" class="icon" viewBox="0 0 1024 1024" version="1.1" xmlns="http://www.w3.org/2000/svg" p-id="112921" xmlns:xlink="http://www.w3.org/1999/xlink" width="200" height="200"><defs><style type="text/css">@font-face { font-family: feedback-iconfont; src: url("//at.alicdn.com/t/font_1031158_u69w8yhxdu.woff2?t=1630033759944") format("woff2"), url("//at.alicdn.com/t/font_1031158_u69w8yhxdu.woff?t=1630033759944") format("woff"), url("//at.alicdn.com/t/font_1031158_u69w8yhxdu.ttf?t=1630033759944") format("truetype"); }
</style></defs><path d="M560 64H144a32 32 0 0 0-32 32v832a32 32 0 0 0 32 32h416a32 32 0 0 0 32-32V96a32 32 0 0 0-32-32z m-40 72v126H184V136zM184 888V326h336v562z" p-id="112922"></path><path d="M328 632h48q8 0 8 8v144q0 8-8 8h-48q-8 0-8-8V640q0-8 8-8zM688.39 379.19l-39.65 39.65a8 8 0 0 0-0.3 11 124.19 124.19 0 0 1 0 164.36 8 8 0 0 0 0.3 11l39.65 39.65a8 8 0 0 0 11.56-0.24c68.72-74.76 68.72-190.38 0-265.14a8 8 0 0 0-11.56-0.28z" p-id="112923"></path><path d="M885.74 376.63A354.89 354.89 0 0 0 813 264.26a8 8 0 0 0-11.44-0.11l-39.61 39.61a8 8 0 0 0-0.13 11.17 285.27 285.27 0 0 1 0 392.24 8 8 0 0 0 0.13 11.17L801.53 758a8 8 0 0 0 11.44-0.11 357.66 357.66 0 0 0 72.77-381.21z" p-id="112924"></path></svg>