<?xml version="1.0" standalone="no"?><!DOCTYPE svg PUBLIC "-//W3C//DTD SVG 1.1//EN" "http://www.w3.org/Graphics/SVG/1.1/DTD/svg11.dtd"><svg t="1648463839466" class="icon" viewBox="0 0 1024 1024" version="1.1" xmlns="http://www.w3.org/2000/svg" p-id="112257" xmlns:xlink="http://www.w3.org/1999/xlink" width="200" height="200"><defs><style type="text/css">@font-face { font-family: feedback-iconfont; src: url("//at.alicdn.com/t/font_1031158_u69w8yhxdu.woff2?t=1630033759944") format("woff2"), url("//at.alicdn.com/t/font_1031158_u69w8yhxdu.woff?t=1630033759944") format("woff"), url("//at.alicdn.com/t/font_1031158_u69w8yhxdu.ttf?t=1630033759944") format("truetype"); }
</style></defs><path d="M536 112a96 96 0 0 1 96 96v608a96 96 0 0 1-96 96h-352a96 96 0 0 1-96-96v-608a96 96 0 0 1 96-96h352z m0.384 72H184a24 24 0 0 0-24 23.616v608.384c0 13.12 10.56 23.808 23.616 24h352.384a24 24 0 0 0 24-23.616V208a24 24 0 0 0-23.616-24zM504 480a16 16 0 0 1 16 16v288a16 16 0 0 1-16 16h-288a16 16 0 0 1-16-16v-288a16 16 0 0 1 16-16h288z m343.296-218.24c2.176 0 4.224 0.96 5.76 2.56a354.88 354.88 0 0 1 72.704 112.32 357.76 357.76 0 0 1-72.768 381.248 8 8 0 0 1-11.52 0.128l-39.552-39.68a8 8 0 0 1-0.128-11.136 285.248 285.248 0 0 0 0-392.32 8 8 0 0 1 0.128-11.136l39.68-39.616a8 8 0 0 1 5.76-2.304zM464 536.064H256v208h208v-208z m270.208-159.168c2.176 0.064 4.288 1.024 5.76 2.624a196.288 196.288 0 0 1 0 265.152 8 8 0 0 1-11.52 0.256l-39.68-39.68a8 8 0 0 1-0.32-11.008 124.16 124.16 0 0 0 0-164.352 8 8 0 0 1 0.32-11.008l39.68-39.68a8 8 0 0 1 5.76-2.304zM360 336a48 48 0 1 1 0 96 48 48 0 0 1 0-96z" p-id="112258"></path></svg>