<?xml version="1.0" standalone="no"?><!DOCTYPE svg PUBLIC "-//W3C//DTD SVG 1.1//EN" "http://www.w3.org/Graphics/SVG/1.1/DTD/svg11.dtd"><svg t="1678023371253" class="icon" viewBox="0 0 1024 1024" version="1.1" xmlns="http://www.w3.org/2000/svg" p-id="1518" xmlns:xlink="http://www.w3.org/1999/xlink" width="200" height="200"><path d="M802.304 650.496L512 876.672 221.824 650.496V234.112L512 135.168l290.24 98.944v416.384h0.064z m55.424-471.68L526.848 65.92a54.016 54.016 0 0 0-29.44 0l-330.88 112.832a23.36 23.36 0 0 0-14.72 20.672v469.76c0 8.512 5.504 19.84 12.224 25.216l335.68 261.504c7.36 5.376 17.28 5.376 24.576 0L859.968 694.4a36.224 36.224 0 0 0 12.224-25.216v-469.76a23.04 23.04 0 0 0-14.464-20.672v0.064z m-337.92 184h95.36v40.512h-95.36v-40.512z m-50.176-41.664v123.84c0 4.288 3.52 7.808 7.808 7.808h64.128v18.112H449.28a7.808 7.808 0 0 0-7.808 7.808v34.624a7.798 7.798 0 0 0 7.808 7.808h53.632c-18.56 30.016-41.28 54.272-69.12 73.984a5.824 5.824 0 0 0-1.6 7.936l22.208 35.52a5.76 5.76 0 0 0 8.704 1.344c30.72-26.048 57.152-61.248 78.464-104.768v116.8a7.758 7.758 0 0 0 7.808 7.808h35.2a7.808 7.808 0 0 0 7.808-7.744V535.296c20.736 40.64 46.272 75.52 76.032 104.128a5.824 5.824 0 0 0 8.64-0.64l25.6-34.432a5.888 5.888 0 0 0-1.152-8.192 270.4 270.4 0 0 1-70.4-74.88h57.472a7.808 7.808 0 0 0 7.808-7.744v-34.688a7.808 7.808 0 0 0-7.808-7.808H592.32v-18.112h64.96a7.808 7.808 0 0 0 7.808-7.808V321.088a7.808 7.808 0 0 0-7.808-7.808H477.44a7.808 7.808 0 0 0-7.808 7.808v0.064z m-26.112-8.96L406.016 294.4a5.952 5.952 0 0 0-8.192 3.584 409.664 409.664 0 0 1-80 149.568 5.952 5.952 0 0 0-1.152 5.504l12.8 42.368a5.952 5.952 0 0 0 9.984 2.304c7.488-7.872 14.976-16.448 22.464-25.344v179.84c0 4.224 3.52 7.68 7.808 7.744h36.288a7.808 7.808 0 0 0 7.744-7.808v-256a418.09 418.09 0 0 0 32.768-76.928 5.76 5.76 0 0 0-3.008-7.104v0.064z" p-id="1519"></path></svg>