<?xml version="1.0" standalone="no"?><!DOCTYPE svg PUBLIC "-//W3C//DTD SVG 1.1//EN" "http://www.w3.org/Graphics/SVG/1.1/DTD/svg11.dtd"><svg t="1648459832406" class="icon" viewBox="0 0 1024 1024" version="1.1" xmlns="http://www.w3.org/2000/svg" p-id="105111" xmlns:xlink="http://www.w3.org/1999/xlink" width="200" height="200"><defs><style type="text/css">@font-face { font-family: feedback-iconfont; src: url("//at.alicdn.com/t/font_1031158_u69w8yhxdu.woff2?t=1630033759944") format("woff2"), url("//at.alicdn.com/t/font_1031158_u69w8yhxdu.woff?t=1630033759944") format("woff"), url("//at.alicdn.com/t/font_1031158_u69w8yhxdu.ttf?t=1630033759944") format("truetype"); }
</style></defs><path d="M811.53 112c16.635 0 30.12 13.486 30.12 30.12v737.952c0 16.635-13.485 30.12-30.12 30.12H209.12c-16.634 0-30.12-13.485-30.12-30.12V142.12c0-16.634 13.486-30.12 30.12-30.12h602.41zM773.88 336H246.771v506.482H773.88L773.879 336zM512.195 611.423c67.032 0 130.637 14.281 190.814 42.845a33.604 33.604 0 0 1 19.186 29.974v90.998a4.201 4.201 0 0 1-4.066 4.2H306.395a4.201 4.201 0 0 1-4.2-4.065v-90.73a33.604 33.604 0 0 1 19.186-30.377 439.483 439.483 0 0 1 190.814-42.845z m-160.72 77.776l-1.28 0.536v42.695h324v-42.695l-1.28-0.536c-49.846-20.246-104.075-30.742-158.96-30.766h-1.76c-55.478-0.195-110.333 10.305-160.72 30.766zM512.195 393a90.298 90.298 0 0 1 78.202 45.155 90.318 90.318 0 0 1 0 90.31 90.298 90.298 0 0 1-78.202 45.154c-49.871 0-90.3-40.433-90.3-90.31 0-49.876 40.429-90.309 90.3-90.309z m0 46.326c-24.3 0-44 19.7-44 44s19.7 44 44 44 44-19.7 44-44-19.7-44-44-44zM773.88 179.831H246.77V280h527.108V179.831zM513 198c17.673 0 32 14.327 32 32 0 17.673-14.327 32-32 32-17.673 0-32-14.327-32-32 0-17.673 14.327-32 32-32z" p-id="105112"></path></svg>