<?xml version="1.0" standalone="no"?><!DOCTYPE svg PUBLIC "-//W3C//DTD SVG 1.1//EN" "http://www.w3.org/Graphics/SVG/1.1/DTD/svg11.dtd"><svg t="1711091925994" class="icon" viewBox="0 0 1024 1024" version="1.1" xmlns="http://www.w3.org/2000/svg" p-id="1094" xmlns:xlink="http://www.w3.org/1999/xlink" width="200" height="200"><path d="M712 96c4.416 0 8 3.584 8 8v48h183.04c4.352 0 7.936 3.584 7.936 8v368a8 8 0 0 1-8 8H720v48a8 8 0 0 1-8 8H544.96a8 8 0 0 1-7.936-8v-27.392a122.368 122.368 0 0 0-13.056 28.416l-0.576 1.856-0.896 2.88-0.64 1.984-0.576 2.048-0.768 2.624-0.768 2.688-0.256 1.152-0.64 2.24-0.64 2.304-0.896 3.52-0.64 2.432-0.256 1.216-0.64 2.496-0.256 1.28-0.64 2.56-0.256 1.28-0.64 2.688-0.32 1.28-0.64 2.752-0.576 2.816-0.768 3.52-0.768 3.584-0.768 3.712-0.768 3.776-0.64 3.072-0.576 3.136-0.768 3.968-0.768 4.032-0.768 4.096-0.704 4.224-0.96 5.12-0.256 1.408 22.144-22.144a48 48 0 0 1 67.328-0.512l53.632 53.632 53.056-53.12a48 48 0 0 1 67.328-0.512l0.512 0.64 70.08 69.952a8 8 0 0 1 0 11.328l-33.92 33.92a8 8 0 0 1-11.328 0l-58.752-58.688-53.12 53.12a48 48 0 0 1-67.264 0.448l-0.64-0.512L560 707.2l-53.12 53.12a48 48 0 0 1-67.2 0.512l-0.64-0.512-52.992-53.12-53.12 53.12a48 48 0 0 1-67.264 0.512l-0.64-0.512-52.992-53.12-58.752 58.752a8 8 0 0 1-11.264 0l-33.92-33.92a8 8 0 0 1 0-11.328l56.768-56.768c47.232-190.4 103.232-322.496 169.664-397.184C397.76 195.648 465.28 152.64 537.024 139.136V104c0-4.416 3.584-8 8-8H712zM537.024 204.608C484.48 217.792 432.96 252.352 382.4 309.248 328.256 370.112 279.104 481.664 236.224 643.2c3.2 1.92 6.336 4.224 9.152 6.912l0.64 0.64 52.992 52.992 53.12-53.12a48 48 0 0 1 67.2-0.512l20.096 20.096 0.384-1.92 0.64-3.84 0.64-3.776 0.96-5.504 0.64-3.584 0.704-3.584 0.64-3.52 0.64-3.52 0.704-3.392 0.64-3.392 0.384-1.664 0.64-3.328 0.32-1.6 0.832-4.032 0.832-3.968 0.64-3.136 0.704-3.072 0.64-3.008 0.704-2.944 0.64-2.944 0.704-2.88 0.704-2.816 0.64-2.752 0.704-2.752 0.64-2.624 0.768-2.688c0.896-3.456 1.792-6.784 2.752-9.984l0.64-2.432c1.984-6.72 3.968-12.8 6.016-18.432 11.904-32.96 35.712-65.6 71.04-98.304V204.608zM656 160h-55.04v368H656V160z m190.976 56H720v256h126.976V216z m-601.6 580.16l0.64 0.512 52.992 53.12 53.12-53.12a48 48 0 0 1 67.2-0.512l53.696 53.632 53.056-53.12a48 48 0 0 1 67.328-0.512l53.632 53.632 53.056-53.12a48 48 0 0 1 67.328-0.512l0.512 0.512 70.08 70.08a8 8 0 0 1 0 11.328L804.096 912a8 8 0 0 1-11.328 0l-58.752-58.752-53.12 53.12a48 48 0 0 1-67.264 0.448l-0.64-0.512L560 853.184l-53.12 53.12a48 48 0 0 1-67.2 0.512l-0.64-0.512-52.992-53.12-53.12 53.12a48 48 0 0 1-67.264 0.512l-0.64-0.512-52.992-53.12-58.752 58.752a8 8 0 0 1-11.264 0l-33.92-33.92a8 8 0 0 1 0-11.264l70.016-70.08a48 48 0 0 1 66.688-1.088l0.576 0.576z" p-id="1095"></path></svg>