<?xml version="1.0" standalone="no"?><!DOCTYPE svg PUBLIC "-//W3C//DTD SVG 1.1//EN" "http://www.w3.org/Graphics/SVG/1.1/DTD/svg11.dtd"><svg t="1704365361440" class="icon" viewBox="0 0 1024 1024" version="1.1" xmlns="http://www.w3.org/2000/svg" p-id="2255" xmlns:xlink="http://www.w3.org/1999/xlink" width="200" height="200"><path d="M286.336 67.072l112 141.888 0.192 0.192c3.968 5.312 0.128 12.8-6.464 12.8h-76.032V646.72l416.512-103.808-0.32-220.928h-76.16a8 8 0 0 1-6.4-12.8l0.128-0.192 112-141.888a8 8 0 0 1 12.544 0l112 141.888 0.192 0.192c3.968 5.248 0.128 12.8-6.464 12.8h-75.968l0.256 227.2a64 64 0 0 1-48.512 62.08L316.032 720.96V952a8 8 0 0 1-8 8h-56a8 8 0 0 1-8-8V221.952h-75.968a8 8 0 0 1-6.4-12.8l0.064-0.192 112-141.888a8 8 0 0 1 12.608 0z" p-id="2256"></path></svg>