<?xml version="1.0" standalone="no"?><!DOCTYPE svg PUBLIC "-//W3C//DTD SVG 1.1//EN" "http://www.w3.org/Graphics/SVG/1.1/DTD/svg11.dtd"><svg t="1677999510646" class="icon" viewBox="0 0 1024 1024" version="1.1" xmlns="http://www.w3.org/2000/svg" p-id="4131" xmlns:xlink="http://www.w3.org/1999/xlink" width="200" height="200"><path d="M550.016 116.992c4.416 0 8 3.584 8 8v40a8 8 0 0 1-8 8h-24v72.96h43.008a32 32 0 0 1 32 32V592H784c1.024 0 1.984 0 3.008 0.128v-20.16a19.968 19.968 0 1 1 40 0v118.016c0 53.248-43.712 96.512-96.512 96.512a96 96 0 0 1-95.488-96.512c0-8.768 1.152-17.536 3.52-25.984H600.96v212.032a32 32 0 0 1-32 32H291.008a32 32 0 0 1-32-32V278.016a32 32 0 0 1 32-32h43.968v-72.96H311.04a8 8 0 0 1-8-8.064v-40c0-4.416 3.584-8 8-8h239.04z m-210.88 200.96h-8.128v518.08h198.016V318.016h-7.168a7.936 7.936 0 0 1-3.84 0.96h-175.04a7.936 7.936 0 0 1-3.84-0.96zM775.36 664h-89.6a51.84 51.84 0 0 0-5.696 23.68c0 28.352 22.656 51.328 50.496 51.328a50.944 50.944 0 0 0 50.432-51.392A51.84 51.84 0 0 0 775.36 664zM470.016 172.992h-79.04v72.96h79.04v-72.96z m184 657.024c4.416 0 8 3.584 8 8v62.016a8 8 0 0 1-8 7.936h-448a8 8 0 0 1-8-7.936v-62.08c0-4.352 3.584-7.936 8-7.936h448z m-176-403.008c4.416 0 8 3.584 8 8v169.984a8 8 0 0 1-8 8h-40a8 8 0 0 1-8-8V435.008c0-4.48 3.584-8 8-8h40z" p-id="4132"></path></svg>