<?xml version="1.0" standalone="no"?><!DOCTYPE svg PUBLIC "-//W3C//DTD SVG 1.1//EN" "http://www.w3.org/Graphics/SVG/1.1/DTD/svg11.dtd"><svg t="1660979317858" class="icon" viewBox="0 0 1024 1024" version="1.1" xmlns="http://www.w3.org/2000/svg" p-id="1583" xmlns:xlink="http://www.w3.org/1999/xlink" width="200" height="200"><defs><style type="text/css">@font-face { font-family: feedback-iconfont; src: url("//at.alicdn.com/t/font_1031158_u69w8yhxdu.woff2?t=1630033759944") format("woff2"), url("//at.alicdn.com/t/font_1031158_u69w8yhxdu.woff?t=1630033759944") format("woff"), url("//at.alicdn.com/t/font_1031158_u69w8yhxdu.ttf?t=1630033759944") format("truetype"); }
</style></defs><path d="M878.593 625.407c76.547 76.547 76.547 200.639 0 277.186-76.547 76.547-200.639 76.547-277.186 0-76.547-76.547-76.547-200.639 0-277.186 76.547-76.547 200.639-76.547 277.186 0zM631.22 689.16c-15.105 21.848-23.244 47.727-23.244 74.84 0 35.248 13.755 68.407 38.686 93.338 24.931 24.931 58.09 38.686 93.338 38.686 27.114 0 52.991-8.138 74.839-23.243l-183.62-183.62zM832.002 136c17.673 0 32 14.327 32 32v403.421a227.628 227.628 0 0 0-72-30.473L792 357.253 333.252 816l183.696 0.001a227.628 227.628 0 0 0 30.473 72.001H144c-17.673 0-32-14.327-32-32V168c0-17.673 14.327-32 32-32h688.002zM740 631.976c-27.114 0-52.992 8.139-74.84 23.243l183.621 183.62c15.104-21.848 23.243-47.726 23.243-74.839 0-35.248-13.755-68.407-38.686-93.338-24.931-24.931-58.09-38.686-93.338-38.686zM792 208h-98.747L184 717.253V816h58.744L792 266.745V208z m-189.255 0H445.253L184 469.253v157.492L602.745 208z m-248 0H184v170.745L354.745 208z" p-id="1584"></path></svg>