<?xml version="1.0" standalone="no"?><!DOCTYPE svg PUBLIC "-//W3C//DTD SVG 1.1//EN" "http://www.w3.org/Graphics/SVG/1.1/DTD/svg11.dtd"><svg t="1679050502009" class="icon" viewBox="0 0 1024 1024" version="1.1" xmlns="http://www.w3.org/2000/svg" p-id="3200" xmlns:xlink="http://www.w3.org/1999/xlink" width="200" height="200"><path d="M720 504a216 216 0 1 1 0 432 216 216 0 0 1 0-432z m136-368a32 32 0 0 1 32 32v333.696a7.168 7.168 0 0 1-11.136 5.952l-0.256-0.192a263.68 263.68 0 0 0-50.624-29.312l-1.792-0.768-1.664-0.704-1.536-0.64a8.064 8.064 0 0 1-4.992-8.32v-110.4l-96.512 96.448a8 8 0 0 1-5.44 2.304l-2.944 0.128h-2.56l-0.96 0.064a262.72 262.72 0 0 0-91.392 20.928l-1.28 0.576a3.648 3.648 0 0 1-3.968-5.952L816 266.752V208h-98.752L208 717.248V816h58.752L474.88 607.808a2.816 2.816 0 0 1 4.608 3.008v0.192c-12.992 28.416-20.992 59.52-23.04 92.16l-0.064 1.792-0.128 1.408v1.6l-0.128 2.304-0.064 2.624v1.152a8.192 8.192 0 0 1-2.944 6.016L357.248 816h110.336a8.128 8.128 0 0 1 8.448 4.928l0.96 2.432 0.704 1.664 0.64 1.472 0.32 0.64a263.822 263.822 0 0 0 28.16 48.64l1.024 1.28A6.848 6.848 0 0 1 502.336 888H168a32 32 0 0 1-32-32V168a32 32 0 0 1 32-32h688zM594.56 634.176a152 152 0 0 0 211.328 211.328L594.56 634.112zM720 568c-31.872 0-61.44 9.792-85.824 26.56L845.44 805.824A152 152 0 0 0 720 568z m-93.248-360h-157.44L208 469.248v157.44L626.752 208z m-248 0H208v170.752L378.752 208z" p-id="3201"></path></svg>