<?xml version="1.0" encoding="UTF-8"?>
<svg width="16px" height="16px" viewBox="0 0 16 16" version="1.1" xmlns="http://www.w3.org/2000/svg" xmlns:xlink="http://www.w3.org/1999/xlink">
    <title>Line/键盘</title>
    <g id="Line/键盘" stroke="none" stroke-width="1" fill="none" fill-rule="evenodd">
        <rect id="矩形" fill="#000000" fill-rule="nonzero" opacity="0" x="0" y="0" width="16" height="16"></rect>
        <path d="M14.5,2.5 L1.5,2.5 C1.2234375,2.5 1,2.7234375 1,3 L1,13 C1,13.2765625 1.2234375,13.5 1.5,13.5 L14.5,13.5 C14.7765625,13.5 15,13.2765625 15,13 L15,3 C15,2.7234375 14.7765625,2.5 14.5,2.5 Z M13.875,12.375 L2.125,12.375 L2.125,3.62503596 L13.875,3.62503596 L13.875,12.375 Z M4.84375,11 L11.171875,11 C11.240625,11 11.296875,10.94375 11.296875,10.875 L11.296875,10 C11.296875,9.93125 11.240625,9.875 11.171875,9.875 L4.84375,9.875 C4.775,9.875 4.71875,9.93125 4.71875,10 L4.71875,10.875 C4.71875,10.94375 4.775,11 4.84375,11 Z M3.75,6.375 L4.75,6.375 C4.81875,6.375 4.875,6.31875 4.875,6.25 L4.875,5.25 C4.875,5.18125 4.81875,5.125 4.75,5.125 L3.75,5.125 C3.68125,5.125 3.625,5.18125 3.625,5.25 L3.625,6.25 C3.625,6.31875 3.68125,6.375 3.75,6.375 Z M3.75,8.75 L4.75,8.75 C4.81875,8.75 4.875,8.69375 4.875,8.625 L4.875,7.625 C4.875,7.55625 4.81875,7.5 4.75,7.5 L3.75,7.5 C3.68125,7.5 3.625,7.55625 3.625,7.625 L3.625,8.625 C3.625,8.69375 3.68125,8.75 3.75,8.75 Z M6.25,6.375 L7.25,6.375 C7.31875,6.375 7.375,6.31875 7.375,6.25 L7.375,5.25 C7.375,5.18125 7.31875,5.125 7.25,5.125 L6.25,5.125 C6.18125,5.125 6.125,5.18125 6.125,5.25 L6.125,6.25 C6.125,6.31875 6.18125,6.375 6.25,6.375 Z M6.25,8.75 L7.25,8.75 C7.31875,8.75 7.375,8.69375 7.375,8.625 L7.375,7.625 C7.375,7.55625 7.31875,7.5 7.25,7.5 L6.25,7.5 C6.18125,7.5 6.125,7.55625 6.125,7.625 L6.125,8.625 C6.125,8.69375 6.18125,8.75 6.25,8.75 Z M8.75,6.375 L9.75,6.375 C9.81875,6.375 9.875,6.31875 9.875,6.25 L9.875,5.25 C9.875,5.18125 9.81875,5.125 9.75,5.125 L8.75,5.125 C8.68125,5.125 8.625,5.18125 8.625,5.25 L8.625,6.25 C8.625,6.31875 8.68125,6.375 8.75,6.375 Z M8.75,8.75 L9.75,8.75 C9.81875,8.75 9.875,8.69375 9.875,8.625 L9.875,7.625 C9.875,7.55625 9.81875,7.5 9.75,7.5 L8.75,7.5 C8.68125,7.5 8.625,7.55625 8.625,7.625 L8.625,8.625 C8.625,8.69375 8.68125,8.75 8.75,8.75 Z M11.25,6.375 L12.25,6.375 C12.31875,6.375 12.375,6.31875 12.375,6.25 L12.375,5.25 C12.375,5.18125 12.31875,5.125 12.25,5.125 L11.25,5.125 C11.18125,5.125 11.125,5.18125 11.125,5.25 L11.125,6.25 C11.125,6.31875 11.18125,6.375 11.25,6.375 Z M11.25,8.75 L12.25,8.75 C12.31875,8.75 12.375,8.69375 12.375,8.625 L12.375,7.625 C12.375,7.55625 12.31875,7.5 12.25,7.5 L11.25,7.5 C11.18125,7.5 11.125,7.55625 11.125,7.625 L11.125,8.625 C11.125,8.69375 11.18125,8.75 11.25,8.75 Z" id="形状" fill="#0A1B39"></path>
    </g>
</svg>