<?xml version="1.0" standalone="no"?><!DOCTYPE svg PUBLIC "-//W3C//DTD SVG 1.1//EN" "http://www.w3.org/Graphics/SVG/1.1/DTD/svg11.dtd"><svg t="1672832436852" class="icon" viewBox="0 0 1024 1024" version="1.1" xmlns="http://www.w3.org/2000/svg" p-id="1671" xmlns:xlink="http://www.w3.org/1999/xlink" width="200" height="200"><path d="M512 64a448 448 0 1 0 0 896A448 448 0 0 0 512 64z m0 820.032A372.032 372.032 0 0 1 512 139.968a372.032 372.032 0 0 1 0 744.064zM400 336h224a64 64 0 0 1 64 64v224a64 64 0 0 1-64 64h-224a64 64 0 0 1-64-64v-224a64 64 0 0 1 64-64z" p-id="1672"></path></svg>