<?xml version="1.0" standalone="no"?><!DOCTYPE svg PUBLIC "-//W3C//DTD SVG 1.1//EN" "http://www.w3.org/Graphics/SVG/1.1/DTD/svg11.dtd"><svg t="1656904477268" class="icon" viewBox="0 0 1024 1024" version="1.1" xmlns="http://www.w3.org/2000/svg" p-id="1569" xmlns:xlink="http://www.w3.org/1999/xlink" width="200" height="200"><defs><style type="text/css">@font-face { font-family: feedback-iconfont; src: url("//at.alicdn.com/t/font_1031158_u69w8yhxdu.woff2?t=1630033759944") format("woff2"), url("//at.alicdn.com/t/font_1031158_u69w8yhxdu.woff?t=1630033759944") format("woff"), url("//at.alicdn.com/t/font_1031158_u69w8yhxdu.ttf?t=1630033759944") format("truetype"); }
</style></defs><path d="M619.648 960c-133.76 0-256.512-45.888-328.512-122.944-44.928-48.064-66.368-103.808-61.952-161.28 4.416-57.6 37.248-99.328 79.616-147.008 29.44-32.896 35.84-55.04 32.512-64.768-4.48-11.84-28.16-21.44-41.344-23.68-92.288-0.64-172.288-30.08-214.976-78.912a113.984 113.984 0 0 1-29.248-93.952c13.44-85.376 127.232-149.76 264.64-149.76 140.16 0 246.976 66.56 248.384 154.624 0.64 31.616-11.2 62.336-32.96 85.504-25.92 28.16-29.952 47.36-27.776 51.776 0 0 9.6 20.48 94.08 22.784 203.712 5.824 366.848 107.264 387.776 241.088a198.72 198.72 0 0 1-50.752 163.904C872.704 913.984 753.152 960 619.648 960zM321.088 188.288c-106.048 0-187.2 47.36-193.792 89.6a44.48 44.48 0 0 0 12.8 36.864c28.032 32.896 92.16 54.208 162.56 54.208h5.568c8.128 1.28 79.36 13.952 99.968 71.04 14.336 39.488-1.216 85.184-46.208 135.68-35.84 40.064-59.712 69.056-62.016 105.408a143.808 143.808 0 0 0 43.136 107.52c58.752 62.72 161.92 100.288 275.968 100.288 114.048 0 212.224-36.8 265.472-98.368a131.648 131.648 0 0 0 34.368-106.496c-15.36-98.496-152.448-176.256-319.04-180.992-88.384-2.432-140.16-23.68-158.08-66.112-15.616-36.48-1.28-81.472 40.32-126.528a51.584 51.584 0 0 0 14.784-37.312c-0.128-40.192-72.832-84.8-176.128-84.8h0.32z m484.16 10.752L747.776 64l-50.752 135.04h36.352v42.496h35.712V199.04h36.16z m135.424 195.264L861.632 208.64l-69.76 185.664h49.792v58.432h49.088v-58.432h49.92zM180.8 655.168l-78.912-185.6-69.888 185.6h49.92v58.56h48.96v-58.56h49.92z m61.76 236.544l-64.128-150.656-56.64 150.656h40.512v47.36h39.744v-47.36h40.512z m454.464-548.416l-52.416-123.328-46.464 123.328h33.28v38.912h32.448v-38.912h33.152z m-48.128 508.16a29.888 29.888 0 0 1-25.856-14.72 29.376 29.376 0 0 1 0-29.632 29.888 29.888 0 0 1 25.856-14.784c90.56 0 169.984-43.52 169.984-93.184a56.96 56.96 0 0 0-14.08-35.456 29.44 29.44 0 0 1-4.48-29.312 30.016 30.016 0 0 1 51.2-7.68c17.088 20.48 26.688 46.208 27.072 72.832-0.128 84.992-100.928 151.936-229.696 151.936z" p-id="1570"></path></svg>