<?xml version="1.0" standalone="no"?><!DOCTYPE svg PUBLIC "-//W3C//DTD SVG 1.1//EN" "http://www.w3.org/Graphics/SVG/1.1/DTD/svg11.dtd"><svg t="1678335552509" class="icon" viewBox="0 0 1024 1024" version="1.1" xmlns="http://www.w3.org/2000/svg" p-id="1482" xmlns:xlink="http://www.w3.org/1999/xlink" width="200" height="200"><path d="M305.984 112c165.568 0 197.12 74.688 221.696 151.488l1.472 4.736 4.096 13.12 1.856 5.76 1.28 3.84C555.776 351.232 580.16 407.424 672 424c222.016 40 288 145.024 288 248 0 103.04-84.992 240-408 240-244.032 0-373.632-128.448-352-240 8.064-41.408 31.296-76.16 56.192-105.6l1.728-2.048 2.624-3.072 1.728-1.984 1.792-1.984 1.728-1.984 1.792-1.984 0.832-0.96 2.048-2.304 2.048-2.24 2.112-2.24 1.984-2.176 2.048-2.24 2.048-2.176 3.008-3.2 10.624-11.264 3.328-3.584 1.92-2.048 1.92-2.112 1.92-2.048 1.792-2.048 1.792-1.984 1.216-1.344 1.728-1.92 1.152-1.344 0.512-0.64 1.152-1.28 1.088-1.28 1.28-1.664 1.28-1.536 1.024-1.28 1.92-2.496 0.96-1.216 1.28-1.664 0.768-1.152c7.232-10.112 11.648-19.328 11.648-27.904 0-34.048-27.968-51.2-64-66.432l-2.304-0.896-2.304-0.96-2.56-1.088-2.688-1.024-2.624-1.088-2.688-1.024-4.096-1.6-12.992-5.056-3.648-1.408-3.648-1.408C172.608 359.168 112 329.6 112 246.016 112 157.056 200.96 112 305.984 112zM145.92 686.848c2.112 0.768 3.84 2.432 4.608 4.544l38.4 99.712a8 8 0 0 1-7.552 10.88h-18.304V840a8 8 0 0 1-8 8h-24a8 8 0 0 1-8-8v-38.016h-18.368a8 8 0 0 1-7.488-10.88l38.4-99.712a8 8 0 0 1 10.304-4.544zM310.784 184h-4.736c-40.832 0-75.712 8.448-97.92 22.464l-0.96 0.64-1.024 0.64-1.024 0.704c-14.848 10.24-21.056 21.696-21.056 37.568 0 17.92 4.16 27.84 13.12 36.672l0.64 0.64a61.568 61.568 0 0 0 0.32 0.256l0.64 0.64 0.32 0.256 0.64 0.64 0.64 0.512 0.384 0.32 0.704 0.64 0.768 0.512 0.384 0.32 0.704 0.64 0.768 0.512 0.832 0.64 0.768 0.576 0.832 0.576 0.832 0.576 0.896 0.64 0.896 0.512 0.896 0.64 0.896 0.576 1.408 0.832 1.472 0.896 1.024 0.64 1.024 0.576 0.512 0.256 1.088 0.64 1.088 0.64 1.344 0.64 1.408 0.832 1.216 0.576 1.152 0.64 1.216 0.576 1.28 0.64 1.216 0.64 1.28 0.576 1.28 0.64 1.28 0.64 1.408 0.576 1.408 0.64 2.816 1.28 1.472 0.64 1.472 0.64 1.536 0.64 1.536 0.64 2.304 1.024 1.664 0.64 1.6 0.64 2.688 1.152 3.072 1.216 2.688 1.088 6.144 2.368 17.536 6.848 3.392 1.28 1.92 0.768 3.648 1.472 1.792 0.768 2.56 1.024 2.56 1.024 1.6 0.64 1.6 0.768 1.6 0.64 2.304 1.024 1.536 0.64 1.472 0.64 1.472 0.64 1.472 0.704 1.472 0.64 1.408 0.64 1.472 0.704 1.408 0.64 1.408 0.768c14.336 6.912 26.816 14.272 38.016 22.976C386.88 387.584 406.08 422.016 406.08 464c0 19.584-5.632 37.248-15.04 54.08a202.176 202.176 0 0 1-22.656 31.808l-1.408 1.728-0.896 0.96-1.664 1.92-1.92 2.24-1.92 1.984-2.304 2.56-5.696 6.272-7.552 8.192-21.376 23.04-2.944 3.2-1.216 1.344-1.792 2.048-4.096 4.736-1.6 1.856-1.536 1.856a302.014 302.014 0 0 0-13.248 16.832l-1.28 1.728c-13.76 19.2-21.888 36.288-25.216 53.312-2.432 12.544-0.512 26.112 6.144 40.448 8 17.216 22.592 34.624 43.328 50.56C371.52 815.936 452.032 840 552.064 840c71.552 0 131.84-7.168 181.184-20.48 7.36-2.048 14.464-4.16 21.248-6.4l2.368-0.768c31.296-10.56 56.704-23.68 76.608-38.912 37.76-28.864 54.592-64.32 54.592-101.44a129.92 129.92 0 0 0-39.616-96.64c-35.52-35.456-96.384-63.424-186.432-80l-2.688-0.512c-63.488-11.392-110.976-39.424-144.192-83.2a259.712 259.712 0 0 1-36.224-66.944l-0.768-2.048-0.96-2.56-1.024-2.688-0.768-2.176-1.024-2.752-0.96-2.816-0.832-2.368-1.28-3.648-0.832-2.56-1.088-3.392-1.344-4.224-1.472-4.48-2.368-7.488-2.944-9.472-0.832-2.688-0.896-2.624-0.832-2.56-0.768-2.56-0.832-2.432-0.768-2.368-0.832-2.368-0.768-2.24a555.776 555.776 0 0 0-0.384-1.152l-0.96-2.688-0.896-2.688a420.864 420.864 0 0 0-0.768-2.048l-0.704-1.984-0.384-1.024-0.768-1.92a309.824 309.824 0 0 0-1.088-2.816l-0.64-1.792-0.384-0.832-0.64-1.536-0.32-0.768-0.64-1.536-0.64-1.536a199.424 199.424 0 0 0-0.64-1.408l-0.64-1.472a162.88 162.88 0 0 0-2.24-4.672l-0.64-1.28-0.64-1.28c-3.2-6.144-6.4-11.2-9.92-15.68l-0.768-0.896a76.992 76.992 0 0 0-6.016-6.528l-0.768-0.768a90.624 90.624 0 0 0-35.712-19.712 160.512 160.512 0 0 0-9.728-2.752l-1.536-0.384a189.696 189.696 0 0 0-4.864-1.152l-1.664-0.32a209.92 209.92 0 0 0-3.392-0.64l-1.728-0.32-1.728-0.32a232.064 232.064 0 0 0-1.792-0.32l-1.792-0.256-1.792-0.32-0.896-0.128-1.856-0.256-1.92-0.256-1.856-0.256a280.832 280.832 0 0 0-2.88-0.32l-1.92-0.192-0.96-0.128-1.984-0.192a311.68 311.68 0 0 0-1.984-0.192l-2.56-0.192-2.56-0.256h-1.024l-2.112-0.192-2.112-0.128-2.176-0.128-2.112-0.128-2.176-0.064a400 400 0 0 0-3.328-0.128l-2.24-0.064-2.304-0.064-5.76-0.128zM794.56 590.272l0.192 0.192 1.28 1.024 1.088 1.024 1.344 1.216 0.96 0.832 0.832 0.768 0.192 0.192c7.68 7.168 13.696 14.208 18.56 21.888 8.576 13.568 12.8 28.416 12.8 45.184 0 34.816-19.84 65.28-56 87.488-17.92 11.072-39.872 20.16-65.792 27.264l-1.344 0.384-1.92 0.512a410.432 410.432 0 0 1-40.96 8.704l-2.88 0.448-2.816 0.448a556.288 556.288 0 0 1-4.288 0.64l-2.944 0.448-2.88 0.384-2.944 0.384a622.784 622.784 0 0 1-12.032 1.472l-3.072 0.384-3.072 0.32-3.072 0.32-3.136 0.256-3.136 0.32-3.2 0.256-4.736 0.384-3.2 0.256-4.864 0.32-3.2 0.256c-1.152 0-2.24 0.128-3.328 0.192l-3.328 0.192-3.328 0.192-3.328 0.128-3.392 0.192-3.392 0.128-3.392 0.128-3.456 0.128-3.456 0.064-3.456 0.128-3.52 0.064-4.608 0.064-5.056 0.064h-3.648a8 8 0 0 1-8.064-7.68v-40.256c0-4.416 3.52-8 7.936-8h5.44l3.328-0.128h3.2l4.928-0.128 3.2-0.128 3.2-0.064 3.2-0.128 3.2-0.128 1.536-0.064 3.072-0.128 3.136-0.192 3.072-0.128 3.84-0.256 3.776-0.192 3.008-0.256 3.008-0.192 4.416-0.32 2.944-0.256 1.408-0.128 2.944-0.256 2.816-0.256 1.472-0.128 2.816-0.32 2.816-0.256 2.816-0.32 1.408-0.128 2.752-0.32 2.752-0.384 2.688-0.32 1.344-0.192 2.688-0.32 2.688-0.384 9.152-1.408 2.56-0.384c6.4-1.088 12.544-2.24 18.56-3.52l2.368-0.512a493.342 493.342 0 0 0 13.76-3.2l1.472-0.448 1.792-0.448c21.568-5.824 39.04-13.056 52.48-21.248 20.544-12.672 29.248-25.984 29.248-39.808v-1.408l-0.064-0.64v-0.704a26.624 26.624 0 0 0-4.416-12.992l-0.384-0.64a39.68 39.68 0 0 0-1.856-2.56l-0.512-0.64a50.816 50.816 0 0 0-0.832-0.96l-0.576-0.64a61.184 61.184 0 0 0-0.896-1.024l-0.64-0.64-0.64-0.64-0.704-0.768-0.384-0.32-0.704-0.704-3.968-3.392a8 8 0 0 1-1.024-11.072l25.088-31.36a8 8 0 0 1 11.264-1.216zM111.808 463.36c2.176 0.832 3.84 2.56 4.672 4.672l33.472 89.216a8 8 0 0 1-7.488 10.816h-17.472v32a8 8 0 0 1-8 8h-16a8 8 0 0 1-8-8v-32H75.52a8 8 0 0 1-7.488-10.816l33.472-89.216a8 8 0 0 1 10.304-4.672z m753.216-217.472a8 8 0 0 1 4.416 4.48l53.12 130.688a8 8 0 0 1-7.424 11.008h-33.152v52.032a8 8 0 0 1-8 8h-24a8 8 0 0 1-8-8v-52.032h-33.088a8 8 0 0 1-7.424-11.008l53.12-130.752a8 8 0 0 1 10.432-4.416z m-204.16-6.528c2.112 0.832 3.84 2.56 4.608 4.672l33.472 89.216a8 8 0 0 1-7.488 10.816h-17.472v32a8 8 0 0 1-8 8h-16a8 8 0 0 1-8-8v-32H624.64a8 8 0 0 1-7.552-10.816l33.472-89.216a8 8 0 0 1 10.304-4.672z m92.032-160.448a7.599 7.599 0 0 1 4.544 4.544l38.4 99.712a8 8 0 0 1-7.488 10.88h-18.368v38.016a8 8 0 0 1-8 8h-24a8 8 0 0 1-8-8v-38.016H711.68a8 8 0 0 1-7.488-10.88l38.4-99.712a8 8 0 0 1 10.24-4.544z" p-id="1483"></path></svg>