<?xml version="1.0" standalone="no"?><!DOCTYPE svg PUBLIC "-//W3C//DTD SVG 1.1//EN" "http://www.w3.org/Graphics/SVG/1.1/DTD/svg11.dtd"><svg t="1679309397147" class="icon" viewBox="0 0 1024 1024" version="1.1" xmlns="http://www.w3.org/2000/svg" p-id="1854" xmlns:xlink="http://www.w3.org/1999/xlink" width="200" height="200"><path d="M687.232 643.2h0.96l0.96 0.192C848.512 664.832 960 714.368 960 772.032 960 849.344 759.424 912 512 912S64 849.28 64 771.968c0-56.96 109.184-106.112 265.792-127.872l5.12-0.768a8 8 0 0 1 9.088 7.68V699.2a8 8 0 0 1-6.912 8.448l-2.112 0.32c-34.56 4.928-66.752 11.328-95.616 18.944l-3.2 0.832-4.864 1.28-3.2 0.96a344.178 344.178 0 0 0-12.288 3.648l-2.56 0.768-3.136 1.024-2.048 0.64-2.56 0.896-2.56 0.832-1.92 0.64-1.984 0.704-1.984 0.64-1.92 0.768-1.92 0.64-0.96 0.384-1.856 0.64-1.856 0.768-1.856 0.64-1.792 0.768-1.792 0.64-1.728 0.768-1.792 0.64-1.728 0.768-1.664 0.704-1.664 0.704-1.664 0.768-1.664 0.64-1.6 0.768-1.6 0.704-1.536 0.768-2.304 1.088-1.472 0.64-1.472 0.768-2.176 1.088-1.472 0.768-0.64 0.32-1.408 0.768-1.344 0.704-1.344 0.768a182.784 182.784 0 0 0-2.56 1.408l-1.28 0.768-0.64 0.32-1.28 0.768-1.152 0.704-1.152 0.768a138.368 138.368 0 0 0-2.304 1.472l-1.088 0.64a111.808 111.808 0 0 0-7.744 5.76l-0.256 0.256 0.256 0.192 3.072 2.368 0.512 0.448 4.16 2.88 1.088 0.704c0.768 0.512 1.472 1.024 2.304 1.472l1.152 0.768 1.216 0.704 1.216 0.704 0.64 0.384 1.28 0.768 2.56 1.408 1.28 0.768 1.408 0.704 1.344 0.768 0.704 0.32 1.472 0.768 2.176 1.088 1.472 0.704 1.472 0.704 1.536 0.768 0.768 0.32 1.536 0.768 1.6 0.704 1.6 0.704 1.664 0.704 2.048 0.896 2.56 1.088 2.112 0.896 1.792 0.704 1.728 0.704 1.792 0.704 1.792 0.704 1.856 0.704 1.856 0.704 1.92 0.704 1.856 0.64 1.92 0.768 0.96 0.32 1.92 0.64 1.984 0.768 1.984 0.64 2.048 0.64 2.048 0.704 2.048 0.64 1.024 0.384 3.136 1.024 1.088 0.32c76.8 24 183.36 38.08 297.664 38.08 114.304 0 220.8-14.08 297.664-38.08l1.088-0.32 3.136-1.024 2.048-0.64 2.56-0.896 2.56-0.832 1.92-0.64 1.984-0.704 1.984-0.64 1.92-0.768 1.92-0.64 0.96-0.384 1.856-0.64 1.856-0.768 1.856-0.64 1.792-0.768 1.792-0.64 1.728-0.768 1.792-0.64 1.728-0.768 1.664-0.704 1.664-0.704 1.664-0.768 1.664-0.64 1.6-0.768 1.6-0.704 1.536-0.768 2.304-1.088 1.472-0.64 1.536-0.768 2.112-1.088 1.472-0.768 0.64-0.32 1.408-0.768 1.344-0.704 1.344-0.768 2.56-1.408 1.28-0.768 0.64-0.32 1.28-0.768 1.152-0.704 1.152-0.768c0.832-0.448 1.536-0.96 2.304-1.472l1.088-0.64a111.808 111.808 0 0 0 7.168-5.312l0.832-0.64-0.256-0.256a83.84 83.84 0 0 0-3.072-2.368l-0.512-0.448a112.32 112.32 0 0 0-4.16-2.88l-1.088-0.704a138.496 138.496 0 0 0-2.304-1.472l-1.152-0.768-1.216-0.704-1.216-0.704-0.64-0.384-1.28-0.768a178.688 178.688 0 0 0-2.56-1.408l-1.28-0.768-1.408-0.704-1.344-0.768-0.704-0.32-1.472-0.768-2.176-1.088-1.472-0.704-1.472-0.704-1.536-0.768-0.768-0.32-1.536-0.768-1.6-0.704-1.6-0.704-1.664-0.704-2.048-0.896-2.56-1.088-2.112-0.896-1.792-0.704-1.728-0.704-1.792-0.704-1.792-0.704-1.856-0.704-1.856-0.704-1.92-0.704-1.856-0.64-1.92-0.768-0.96-0.32-1.92-0.64-1.984-0.768-1.984-0.64-2.048-0.64-2.048-0.704-2.048-0.64-1.024-0.384-3.136-1.024-1.088-0.32a720.64 720.64 0 0 0-89.472-21.12l-3.712-0.704-1.92-0.32-3.712-0.64-18.496-2.88-4.224-0.64-1.28-0.128a8 8 0 0 1-6.848-8.32v-48.96c0-3.968 3.2-7.168 7.232-7.168zM616 112.256A16 16 0 0 1 632 128v263.296h147.584a16 16 0 0 1 12.864 25.472l-0.192 0.256-267.52 348.736a16 16 0 0 1-25.216 0.256l-0.192-0.256-267.52-348.736a16 16 0 0 1 12.352-25.728H392v-263.04a16 16 0 0 1 15.68-16H616z m-56 72.064h-96v279.04H358.016L512 664l153.984-200.704H560v-279.04z" p-id="1855"></path></svg>