<?xml version="1.0" standalone="no"?><!DOCTYPE svg PUBLIC "-//W3C//DTD SVG 1.1//EN" "http://www.w3.org/Graphics/SVG/1.1/DTD/svg11.dtd"><svg t="1677671930074" class="icon" viewBox="0 0 1024 1024" version="1.1" xmlns="http://www.w3.org/2000/svg" p-id="4346" xmlns:xlink="http://www.w3.org/1999/xlink" width="200" height="200"><path d="M695.68 644.288C851.52 666.176 960 715.136 960 771.968c0 51.584-89.152 96.64-221.888 120.96l-31.36 5.184C647.872 907.072 581.76 912 512 912s-135.872-4.992-194.752-13.888l-31.36-5.248C153.152 868.544 64 823.552 64 771.968c0-56.832 108.48-105.792 264.32-127.68l57.6 57.6c-56.96 5.504-109.248 14.656-153.28 26.816l-29.696 9.088-14.4 5.12-17.28 7.168-15.744 7.616-14.144 8.32-5.952 4.352-2.048 1.6 8 5.952 14.08 8.384 17.408 8.32 8.512 3.584 25.6 9.344 7.36 2.368c76.8 24 183.36 38.08 297.664 38.08 105.536 0 204.416-11.968 279.424-32.704l29.632-9.088 14.4-5.12 17.28-7.168 15.744-7.616 14.144-8.32 8-6.016-3.84-3.008-11.712-7.68-13.76-7.232-18.688-8.32-25.6-9.28-7.36-2.368c-47.552-14.848-106.496-25.92-171.584-32.192l57.6-57.6zM616 112a16 16 0 0 1 15.552 12.352L632 128v332.032h141.376a16 16 0 0 1 13.888 23.872l-2.56 3.392-261.376 261.376a16 16 0 0 1-19.2 2.56l-3.456-2.56L239.36 487.296a16 16 0 0 1 7.68-26.88l3.648-0.384h141.376V128a16 16 0 0 1 12.352-15.552l3.648-0.448h208z m-56 72h-96v348.032h-78.208L512 658.176l126.208-126.144H560V184z" p-id="4347"></path></svg>