<?xml version="1.0" encoding="UTF-8"?>
<svg width="16px" height="16px" viewBox="0 0 16 16" version="1.1" xmlns="http://www.w3.org/2000/svg" xmlns:xlink="http://www.w3.org/1999/xlink">
    <title>Line/激光测距</title>
    <g id="Line/激光测距" stroke="none" stroke-width="1" fill="none" fill-rule="evenodd">
        <rect id="矩形" fill="#000000" fill-rule="nonzero" opacity="0" x="0" y="0" width="16" height="16"></rect>
        <path d="M8.375,11.375 C8.444,11.375 8.5,11.431 8.5,11.5 L8.5,14.875 C8.5,14.9440356 8.44403559,15 8.375,15 L7.625,15 C7.55596441,15 7.5,14.9440356 7.5,14.875 L7.5,11.5 C7.5,11.431 7.556,11.375 7.625,11.375 L8.375,11.375 Z M10.7391748,10.0841748 C10.7731748,10.0841748 10.8051748,10.0981748 10.8291748,10.1211748 L12.3311165,11.6231165 C12.354935,11.6466065 12.3683441,11.6786636 12.3683441,11.7121165 C12.3683441,11.7455695 12.354935,11.7776265 12.3311165,11.8011165 L11.8011165,12.3311165 C11.7776655,12.3546269 11.7458233,12.36784 11.7126165,12.36784 C11.6794097,12.36784 11.6475676,12.3546269 11.6241165,12.3311165 L10.1221748,10.8291748 C10.0983563,10.8056848 10.0849472,10.7736277 10.0849472,10.7401748 C10.0849472,10.7067218 10.0983563,10.6746648 10.1221748,10.6511748 L10.6521748,10.1211748 C10.675621,10.0980518 10.7072446,10.0851149 10.7401748,10.0851748 L10.7391748,10.0841748 Z M5.26082521,10.0841748 C5.29282521,10.0841748 5.32482521,10.0981748 5.34882521,10.1211748 L5.87882521,10.6511748 C5.90233564,10.6746259 5.91554866,10.706468 5.91554866,10.7396748 C5.91554866,10.7728816 5.90233564,10.8047237 5.87882521,10.8281748 L4.37688348,12.3301165 C4.3533935,12.353935 4.32133643,12.3673441 4.28788348,12.3673441 C4.25443052,12.3673441 4.22237346,12.353935 4.19888348,12.3301165 L3.66888348,11.8001165 C3.62058347,11.7513912 3.62058347,11.6728419 3.66888348,11.6241165 L5.17082521,10.1221748 C5.19459611,10.0981913 5.22705907,10.0848455 5.26082521,10.0851748 L5.26082521,10.0841748 Z M7.72572679,6.6525868 C7.93428215,6.61003953 8.14989575,6.61678543 8.3553818,6.67228679 L8.37508716,6.67778446 C8.80119172,6.79854888 9.12827414,7.11044068 9.28072303,7.49982871 L14.875,7.5 C14.944,7.5 15,7.556 15,7.625 L15,8.375 C15,8.44403559 14.9440356,8.5 14.875,8.5 L9.28,8.5 L9.22150113,8.6312909 C9.12755697,8.81088154 9.00245085,8.96023499 8.85122366,9.07935124 L8.83839226,9.0894303 L8.82418607,9.09996751 C8.66740492,9.21795079 8.4870311,9.30076889 8.29534919,9.3427814 L8.27564383,9.34644651 C8.13083234,9.37668371 7.98235474,9.38309766 7.83387714,9.36477209 L7.82012922,9.36293953 L7.79584121,9.35973255 C7.36059085,9.29433049 6.98294747,9.02460812 6.77997076,8.63417242 C6.57699405,8.24373672 6.57320855,7.77976183 6.76978767,7.38606799 L6.77437032,7.37598892 L6.78124428,7.36224474 C6.87473018,7.18402851 7.00579374,7.02871925 7.16572794,6.90731231 L7.17306017,6.90135649 C7.33024479,6.78315653 7.51034262,6.69977516 7.70281358,6.65762633 Z M4.5,7.5 C4.569,7.5 4.625,7.556 4.625,7.625 L4.625,8.375 C4.625,8.44403559 4.56903559,8.5 4.5,8.5 L1.125,8.5 C1.05596441,8.5 1,8.44403559 1,8.375 L1,7.625 C1,7.556 1.056,7.5 1.125,7.5 L4.5,7.5 Z M11.8011165,3.66888348 L12.3311165,4.19888348 C12.3546269,4.22233454 12.36784,4.25417666 12.36784,4.28738348 C12.36784,4.32059029 12.3546269,4.35243241 12.3311165,4.37588348 L10.8291748,5.87782521 C10.8056848,5.90164372 10.7736277,5.91505278 10.7401748,5.91505278 C10.7067218,5.91505278 10.6746648,5.90164372 10.6511748,5.87782521 L10.1211748,5.34782521 C10.0728748,5.29909984 10.0728748,5.22055059 10.1211748,5.17182521 L11.6231165,3.66988348 C11.6466065,3.64606497 11.6786636,3.63265591 11.7121165,3.63265591 C11.7455695,3.63265591 11.7776265,3.64606497 11.8011165,3.66988348 L11.8011165,3.66888348 Z M4.37588348,3.66888348 L5.87782521,5.17082521 C5.90164372,5.19431519 5.91505278,5.22637226 5.91505278,5.25982521 C5.91505278,5.29327817 5.90164372,5.32533524 5.87782521,5.34882521 L5.34782521,5.87882521 C5.29909984,5.92712522 5.22055059,5.92712522 5.17182521,5.87882521 L3.66988348,4.37688348 C3.64606497,4.3533935 3.63265591,4.32133643 3.63265591,4.28788348 C3.63265591,4.25443052 3.64606497,4.22237346 3.66988348,4.19888348 L4.19988348,3.66888348 C4.22316676,3.64539386 4.25481036,3.63208917 4.28788348,3.63188348 C4.32088348,3.63188348 4.35288348,3.64588348 4.37588348,3.66888348 Z M8.375,1 C8.444,1 8.5,1.056 8.5,1.125 L8.5,4.5 C8.5,4.56903559 8.44403559,4.625 8.375,4.625 L7.625,4.625 C7.55596441,4.625 7.5,4.56903559 7.5,4.5 L7.5,1.125 C7.5,1.056 7.556,1 7.625,1 L8.375,1 Z" id="形状" fill="#0A1B39"></path>
    </g>
</svg>