<?xml version="1.0" standalone="no"?><!DOCTYPE svg PUBLIC "-//W3C//DTD SVG 1.1//EN" "http://www.w3.org/Graphics/SVG/1.1/DTD/svg11.dtd"><svg t="1658326499839" class="icon" viewBox="0 0 1024 1024" version="1.1" xmlns="http://www.w3.org/2000/svg" p-id="22720" xmlns:xlink="http://www.w3.org/1999/xlink" width="200" height="200"><defs><style type="text/css">@font-face { font-family: feedback-iconfont; src: url("//at.alicdn.com/t/font_1031158_u69w8yhxdu.woff2?t=1630033759944") format("woff2"), url("//at.alicdn.com/t/font_1031158_u69w8yhxdu.woff?t=1630033759944") format("woff"), url("//at.alicdn.com/t/font_1031158_u69w8yhxdu.ttf?t=1630033759944") format("truetype"); }
</style></defs><path d="M440 112a32 32 0 0 1 32 32v744a32 32 0 0 1-32 32H144a32 32 0 0 1-32-32V144a32 32 0 0 1 32-32h296z m441.984 440a32 32 0 0 1 32 32v296a32 32 0 0 1-32 32H585.984a32 32 0 0 1-32-32V584a32 32 0 0 1 32-32h296zM400 184H184V848H400V184z m441.984 440H625.984v216h216V624z m40-512a32 32 0 0 1 32 32v296a32 32 0 0 1-32 32H585.984a32 32 0 0 1-32-32V144a32 32 0 0 1 32-32h296z m-40 72H625.984V400h216V184z" p-id="22721"></path></svg>