<?xml version="1.0" standalone="no"?><!DOCTYPE svg PUBLIC "-//W3C//DTD SVG 1.1//EN" "http://www.w3.org/Graphics/SVG/1.1/DTD/svg11.dtd"><svg t="1648462568476" class="icon" viewBox="0 0 1024 1024" version="1.1" xmlns="http://www.w3.org/2000/svg" p-id="109208" xmlns:xlink="http://www.w3.org/1999/xlink" width="200" height="200"><defs><style type="text/css">@font-face { font-family: feedback-iconfont; src: url("//at.alicdn.com/t/font_1031158_u69w8yhxdu.woff2?t=1630033759944") format("woff2"), url("//at.alicdn.com/t/font_1031158_u69w8yhxdu.woff?t=1630033759944") format("woff"), url("//at.alicdn.com/t/font_1031158_u69w8yhxdu.ttf?t=1630033759944") format("truetype"); }
</style></defs><path d="M952 840h-40V572.68a216 216 0 0 0-216-216H450a28 28 0 0 1-28-28V184h40a8 8 0 0 0 8-8v-56a8 8 0 0 0-8-8H72a8 8 0 0 0-8 8v56a8 8 0 0 0 8 8h40v266.67a216 216 0 0 0 216 216h53.46a8 8 0 0 0 8-8v-56a8 8 0 0 0-8-8H328a144 144 0 0 1-144-144V184h166v144.68a100.11 100.11 0 0 0 100 100h246c79.4 0 144 64.6 144 144V840H674V694.67a100 100 0 0 0-100-100h-53.65a8 8 0 0 0-8 8v56a8 8 0 0 0 8 8H574a28 28 0 0 1 28 28V840h-40a8 8 0 0 0-8 8v56a8 8 0 0 0 8 8h390a8 8 0 0 0 8-8v-56a8 8 0 0 0-8-8z" p-id="109209"></path><path d="M489.4 762.59l-31.12-69.69a8 8 0 0 0-14.61 0l-31.13 69.69-17.25 38.63a60.92 60.92 0 0 0-5.22 30.58 62.66 62.66 0 0 0 9.56 28 61.68 61.68 0 0 0 20.89 20.2 59.49 59.49 0 0 0 29.29 8h2.32a59.49 59.49 0 0 0 29.29-8 61.68 61.68 0 0 0 20.89-20.17 62.66 62.66 0 0 0 9.56-28 61 61 0 0 0-5.21-30.58z" p-id="109210"></path></svg>