<?xml version="1.0" standalone="no"?><!DOCTYPE svg PUBLIC "-//W3C//DTD SVG 1.1//EN" "http://www.w3.org/Graphics/SVG/1.1/DTD/svg11.dtd"><svg t="1679048038449" class="icon" viewBox="0 0 1024 1024" version="1.1" xmlns="http://www.w3.org/2000/svg" p-id="2416" xmlns:xlink="http://www.w3.org/1999/xlink" width="200" height="200"><path d="M462.016 112c4.288 0 7.872 3.456 8 7.744V176a8 8 0 0 1-7.744 8h-40.256v144.64c0 15.36 12.288 27.776 27.52 28.032H696a216 216 0 0 1 216 214.272V840h40c4.352 0 7.872 3.456 8 7.744V904a8 8 0 0 1-7.744 8H561.92a8 8 0 0 1-8-7.744V848c0-4.352 3.456-7.872 7.744-8h40.256V694.72a28.032 28.032 0 0 0-27.52-28.032h-54.08a8 8 0 0 1-7.936-7.744v-56.256c0-4.352 3.392-7.872 7.68-8h53.952c54.656 0 99.072 43.84 99.968 98.304V840H840V572.672c0-78.592-63.36-142.72-141.632-144H449.984a100.096 100.096 0 0 1-99.904-98.368V184H184v266.688c0 78.72 63.168 142.72 141.632 144h55.808c4.352 0 7.872 3.456 8 7.68v56.32a8 8 0 0 1-7.68 8H328a216 216 0 0 1-216-212.48V184.064H72a8 8 0 0 1-8-7.808V120c0-4.352 3.456-7.872 7.744-8H462.08z m-11.072 576.192c3.072 0 5.888 1.728 7.232 4.48l0.128 0.256 31.104 69.632 17.28 38.72a60.992 60.992 0 0 1-4.352 58.56A59.52 59.52 0 0 1 452.864 888h-3.072a59.52 59.52 0 0 1-50.176-28.16 60.928 60.928 0 0 1-4.608-57.92l17.536-39.36 31.104-69.632a8 8 0 0 1 7.296-4.736z" p-id="2417"></path></svg>