<?xml version="1.0" standalone="no"?><!DOCTYPE svg PUBLIC "-//W3C//DTD SVG 1.1//EN" "http://www.w3.org/Graphics/SVG/1.1/DTD/svg11.dtd"><svg t="1677985952253" class="icon" viewBox="0 0 1024 1024" version="1.1" xmlns="http://www.w3.org/2000/svg" p-id="3798" xmlns:xlink="http://www.w3.org/1999/xlink" width="200" height="200"><path d="M915.84 151.872v0.512c-17.664 327.552-71.744 536.64-162.304 627.2a360.064 360.064 0 0 1-482.432 24.192L170.88 904.064a16 16 0 0 1-22.656 0l-28.288-28.288a16 16 0 0 1 0-22.656l100.288-100.224a360.064 360.064 0 0 1 24.192-482.432C335.04 179.84 547.84 129.28 882.88 118.72h2.752a32 32 0 0 1 30.272 33.152z m-74.496 40.448l-4.16 0.192c-141.248 6.336-257.536 20.48-348.544 42.112-94.592 22.464-159.04 52.48-193.28 86.784a288 288 0 0 0-23.936 380.224l155.968-155.904V360a16 16 0 0 1 16-16h32a16 16 0 0 1 16 16v121.728l115.072-115.072a16 16 0 0 1 22.592 0l28.288 28.288a16 16 0 0 1 0 22.592L478.72 596.288h169.792a16 16 0 0 1 16 16v32a16 16 0 0 1-16 16H414.656l-92.288 92.288a288 288 0 0 0 380.224-23.872c34.752-34.752 65.6-98.688 89.728-191.872 23.168-89.408 39.488-203.328 48.832-341.376l0.192-3.2z" p-id="3799"></path></svg>