<?xml version="1.0" standalone="no"?><!DOCTYPE svg PUBLIC "-//W3C//DTD SVG 1.1//EN" "http://www.w3.org/Graphics/SVG/1.1/DTD/svg11.dtd"><svg t="1677671943949" class="icon" viewBox="0 0 1024 1024" version="1.1" xmlns="http://www.w3.org/2000/svg" p-id="4812" xmlns:xlink="http://www.w3.org/1999/xlink" width="200" height="200"><path d="M816 88a32 32 0 0 1 32 32v224h-72V160H216v704h560V680h72v224a32 32 0 0 1-32 32H176a32 32 0 0 1-32-32V120a32 32 0 0 1 32-32h640z m-9.472 304.768a8 8 0 0 1 8.512 0.896l141.824 112a8 8 0 0 1 0 12.672l-141.824 112A8.064 8.064 0 0 1 801.984 624v-75.968H568a8.064 8.064 0 0 1-8-8.064v-55.936c0-4.48 3.584-8 8-8.064h233.984V400c0-3.072 1.728-5.888 4.48-7.232z m-473.536 59.264c2.24 0 4.032 1.728 4.032 3.968v112a3.968 3.968 0 0 1-4.032 4.032h-48a3.968 3.968 0 0 1-3.968-4.032V456c0-2.24 1.792-4.032 3.968-4.032h48z" p-id="4813"></path></svg>