<?xml version="1.0" standalone="no"?><!DOCTYPE svg PUBLIC "-//W3C//DTD SVG 1.1//EN" "http://www.w3.org/Graphics/SVG/1.1/DTD/svg11.dtd"><svg t="1665981875877" class="icon" viewBox="0 0 1024 1024" version="1.1" xmlns="http://www.w3.org/2000/svg" p-id="1035" xmlns:xlink="http://www.w3.org/1999/xlink" width="200" height="200"><path d="M625.92 70.016c3.541333 2.389333 5.973333 6.058667 6.784 10.24v0.085333a16 16 0 0 1 0.341333 3.029334v857.216a16 16 0 0 1-19.072 15.786666L161.877333 868.992a32 32 0 0 1-25.941333-31.36V186.368a32 32 0 0 1 25.941333-31.445333L613.973333 67.584c4.138667-0.853333 8.490667 0.042667 11.989334 2.432h-0.042667z m-64.853333 81.237333l-353.066667 68.266667V804.693333l353.024 68.138667V151.210667h0.085333z m227.797333 482.432v-80.170666h-100.053333a8.661333 8.661333 0 0 1-8.704-8.661334v-65.066666c0-4.821333 3.925333-8.704 8.704-8.704h100.053333V390.698667c0-7.296 8.362667-11.349333 14.08-6.826667l153.770667 121.514667a8.618667 8.618667 0 0 1 0 13.653333l-153.728 121.6a8.746667 8.746667 0 0 1-14.08-6.954667h-0.042667z m-347.776-189.354666c30.933333 0 56.021333 30.506667 56.021333 68.053333s-25.088 67.968-56.021333 67.968c-30.976 0-56.021333-30.421333-56.021333-67.968s25.045333-68.053333 56.021333-68.053333z" p-id="1036"></path></svg>