<?xml version="1.0" standalone="no"?><!DOCTYPE svg PUBLIC "-//W3C//DTD SVG 1.1//EN" "http://www.w3.org/Graphics/SVG/1.1/DTD/svg11.dtd"><svg t="1714112246450" class="icon" viewBox="0 0 1024 1024" version="1.1" xmlns="http://www.w3.org/2000/svg" p-id="3058" xmlns:xlink="http://www.w3.org/1999/xlink" width="200" height="200"><path d="M699.435 213.333c11.221 0 21.888 4.096 29.738 11.307l3.712 3.883L951.51 486.912c6.059 7.125 9.344 15.957 9.216 25.045a37.29 37.29 0 0 1-5.93 20.651l-3.286 4.48-218.624 258.39a43.05 43.05 0 0 1-27.904 14.847l-5.546 0.342H547.883a10.837 10.837 0 0 1-9.6-5.675 9.387 9.387 0 0 1-0.299-8.107l1.536-2.432L724.053 576H85.333V448h638.763L539.52 229.461a9.43 9.43 0 0 1-2.176-7.85l0.896-2.646a10.581 10.581 0 0 1 7.253-5.376l2.347-0.256h151.552z" p-id="3059"></path></svg>