<?xml version="1.0" standalone="no"?><!DOCTYPE svg PUBLIC "-//W3C//DTD SVG 1.1//EN" "http://www.w3.org/Graphics/SVG/1.1/DTD/svg11.dtd"><svg t="1714112239131" class="icon" viewBox="0 0 1024 1024" version="1.1" xmlns="http://www.w3.org/2000/svg" p-id="2736" xmlns:xlink="http://www.w3.org/1999/xlink" width="200" height="200"><path d="M699.435 213.333c11.221 0 21.888 4.096 29.738 11.307l3.712 3.883L951.51 486.912c6.059 7.125 9.344 15.957 9.216 25.045a37.248 37.248 0 0 1-5.93 20.651l-3.286 4.48-218.624 258.39a43.05 43.05 0 0 1-27.904 14.847l-5.546 0.342H547.883a10.837 10.837 0 0 1-9.6-5.675 9.387 9.387 0 0 1-0.299-8.107l1.536-2.432 166.528-197.12H555.307V426.667h150.741L539.52 229.46a9.43 9.43 0 0 1-2.176-7.85l0.896-2.646a10.581 10.581 0 0 1 7.253-5.376l2.347-0.256h151.552zM213.333 426.667v170.666h-128V426.667h128z m237.44 0v170.666H317.867V426.667h132.949z" p-id="2737"></path></svg>