<?xml version="1.0" standalone="no"?><!DOCTYPE svg PUBLIC "-//W3C//DTD SVG 1.1//EN" "http://www.w3.org/Graphics/SVG/1.1/DTD/svg11.dtd"><svg t="1714112208112" class="icon" viewBox="0 0 1024 1024" version="1.1" xmlns="http://www.w3.org/2000/svg" p-id="1448" xmlns:xlink="http://www.w3.org/1999/xlink" width="200" height="200"><path d="M661.205 170.667c13.056 0 25.472 4.906 34.56 13.482l3.67 3.84 249.813 295.339c6.955 8.107 10.667 18.219 10.539 28.63a42.667 42.667 0 0 1-7.296 24.49l-3.243 4.224-249.813 295.296a49.28 49.28 0 0 1-32.683 17.067l-5.547 0.298H481.536a12.373 12.373 0 0 1-10.965-6.485 10.752 10.752 0 0 1-0.043-9.856l1.45-2.176 182.614-216.192-569.259 0.043V405.333l569.259-0.042-182.613-216.192a10.795 10.795 0 0 1-2.347-9.558l0.896-2.432a12.075 12.075 0 0 1 8.277-6.144l2.731-0.298h179.627z" p-id="1449"></path></svg>