<?xml version="1.0" standalone="no"?><!DOCTYPE svg PUBLIC "-//W3C//DTD SVG 1.1//EN" "http://www.w3.org/Graphics/SVG/1.1/DTD/svg11.dtd"><svg t="1714112204872" class="icon" viewBox="0 0 1024 1024" version="1.1" xmlns="http://www.w3.org/2000/svg" p-id="1284" xmlns:xlink="http://www.w3.org/1999/xlink" width="200" height="200"><path d="M773.973 298.667a31.573 31.573 0 0 1 20.779 7.68l3.115 3.157 135.168 159.83h5.632v6.655l15.36 18.091a27.093 27.093 0 0 1 6.314 14.037l0.256 3.84a26.581 26.581 0 0 1-4.224 14.763l-2.346 3.2-15.36 18.048v6.699h-5.675L797.867 714.496a30.72 30.72 0 0 1-19.286 10.496l-4.608 0.341h-45.397a7.723 7.723 0 0 1-6.827-4.053 6.699 6.699 0 0 1-0.213-5.803l1.067-1.706 134.4-159.104h-3.67v-85.334h3.67l-134.4-159.146a6.741 6.741 0 0 1-1.536-5.59l0.64-1.92a7.51 7.51 0 0 1 4.736-3.712l2.133-0.298h45.397zM170.667 469.333v85.334H85.333v-85.334h85.334z m128 0v85.334h-85.334v-85.334h85.334z m128 0v85.334h-85.334v-85.334h85.334z m128 0v85.334h-85.334v-85.334h85.334z m128 0v85.334h-85.334v-85.334h85.334z m128 0v85.334h-85.334v-85.334h85.334z" p-id="1285"></path></svg>