<?xml version="1.0" standalone="no"?><!DOCTYPE svg PUBLIC "-//W3C//DTD SVG 1.1//EN" "http://www.w3.org/Graphics/SVG/1.1/DTD/svg11.dtd"><svg t="1658326532002" class="icon" viewBox="0 0 1024 1024" version="1.1" xmlns="http://www.w3.org/2000/svg" p-id="23296" xmlns:xlink="http://www.w3.org/1999/xlink" width="200" height="200"><defs><style type="text/css">@font-face { font-family: feedback-iconfont; src: url("//at.alicdn.com/t/font_1031158_u69w8yhxdu.woff2?t=1630033759944") format("woff2"), url("//at.alicdn.com/t/font_1031158_u69w8yhxdu.woff?t=1630033759944") format("woff"), url("//at.alicdn.com/t/font_1031158_u69w8yhxdu.ttf?t=1630033759944") format("truetype"); }
</style></defs><path d="M512 268.032a244.096 244.096 0 0 1 240 199.936H960c4.416 0 8 3.584 8 8v72a8 8 0 0 1-8 8.064h-208a244.096 244.096 0 0 1-480 0H64a8 8 0 0 1-8-8.064V476.032c0-4.48 3.584-8 8-8h208A244.096 244.096 0 0 1 512 267.968z m0 96a148.032 148.032 0 1 0 0 296 148.032 148.032 0 0 0 0-296.064z" p-id="23297"></path></svg>