<?xml version="1.0" standalone="no"?><!DOCTYPE svg PUBLIC "-//W3C//DTD SVG 1.1//EN" "http://www.w3.org/Graphics/SVG/1.1/DTD/svg11.dtd"><svg t="1678011357523" class="icon" viewBox="0 0 1024 1024" version="1.1" xmlns="http://www.w3.org/2000/svg" p-id="5340" xmlns:xlink="http://www.w3.org/1999/xlink" width="200" height="200"><path d="M512 232a280.064 280.064 0 0 1 277.76 243.968H952c4.416 0 8 3.584 8 8v56a8 8 0 0 1-8 8.064H789.696a280.064 280.064 0 0 1-555.392 0H72a8 8 0 0 1-8-8.064v-55.936c0-4.48 3.584-8 8-8h162.304A280.064 280.064 0 0 1 512 231.936z m0 76.032a204.032 204.032 0 1 0 0 408 204.032 204.032 0 0 0 0-408.064z" p-id="5341"></path></svg>