<?xml version="1.0" standalone="no"?><!DOCTYPE svg PUBLIC "-//W3C//DTD SVG 1.1//EN" "http://www.w3.org/Graphics/SVG/1.1/DTD/svg11.dtd"><svg t="1678006132235" class="icon" viewBox="0 0 1024 1024" version="1.1" xmlns="http://www.w3.org/2000/svg" p-id="2632" xmlns:xlink="http://www.w3.org/1999/xlink" width="200" height="200"><path d="M832 64a32 32 0 0 1 32 32v832a32 32 0 0 1-32 32H192a32 32 0 0 1-32-32V96a32 32 0 0 1 32-32z m-40 72H232v752h560V136zM432 652.032c5.312 0 8 2.624 8 7.936v104.064c0 5.312-2.688 7.936-8 7.936H328c-5.312 0-8-2.624-8-7.936V659.968c0-5.312 2.688-7.936 8-7.936h104z m0-200.064c5.312 0 8 2.688 8 8v104c0 5.376-2.688 8.064-8 8.064H328c-5.312 0-8-2.688-8-8.064V460.032c0-5.376 2.688-8 8-8h104z m0-200c5.312 0 8 2.688 8 8.064v104c0 5.312-2.688 8-8 8H328c-5.312 0-8-2.752-8-8v-104c0-5.376 2.688-8 8-8h104z" p-id="2633"></path></svg>