<?xml version="1.0" standalone="no"?><!DOCTYPE svg PUBLIC "-//W3C//DTD SVG 1.1//EN" "http://www.w3.org/Graphics/SVG/1.1/DTD/svg11.dtd"><svg t="1678011374689" class="icon" viewBox="0 0 1024 1024" version="1.1" xmlns="http://www.w3.org/2000/svg" p-id="5960" xmlns:xlink="http://www.w3.org/1999/xlink" width="200" height="200"><path d="M928 272a32 32 0 0 1 32 32v416a32 32 0 0 1-32 32H96a32 32 0 0 1-32-32V304a32 32 0 0 1 32-32h832z m-40 72H136v336h752V344z m-624 68.032c4.416 0 8 3.52 8 8v184a8 8 0 0 1-8 7.936h-56a8 8 0 0 1-8-7.936V419.968c0-4.416 3.584-8 8-8h56z m240 0c4.416 0 8 3.52 8 8v184a8 8 0 0 1-8 7.936h-40a8 8 0 0 1-8-7.936V419.968c0-4.416 3.584-8 8-8h40z m104 0c4.416 0 8 3.52 8 8v184a8 8 0 0 1-8 7.936h-40a8 8 0 0 1-8-7.936V419.968c0-4.416 3.584-8 8-8h40z m104 0c4.416 0 8 3.52 8 8v184a8 8 0 0 1-8 7.936h-40a8 8 0 0 1-8-7.936V419.968c0-4.416 3.584-8 8-8h40z m104 0c4.416 0 8 3.52 8 8v184a8 8 0 0 1-8 7.936h-40a8 8 0 0 1-8-7.936V419.968c0-4.416 3.584-8 8-8h40z m-452.032 64a36.032 36.032 0 1 1 0 72 36.032 36.032 0 0 1 0-72.064z" p-id="5961"></path></svg>