<?xml version="1.0" standalone="no"?><!DOCTYPE svg PUBLIC "-//W3C//DTD SVG 1.1//EN" "http://www.w3.org/Graphics/SVG/1.1/DTD/svg11.dtd"><svg t="1679309406038" class="icon" viewBox="0 0 1024 1024" version="1.1" xmlns="http://www.w3.org/2000/svg" p-id="2164" xmlns:xlink="http://www.w3.org/1999/xlink" width="200" height="200"><path d="M600.384 317.824a8 8 0 0 1 7.104 8.576v0.256L585.984 520h125.952a8 8 0 0 1 6.144 13.184l-0.192 0.192-352.32 389.056a8 8 0 0 1-13.824-6.72v-0.256L406.016 648H285.312a8 8 0 0 1-5.824-13.44l0.192-0.192 314.24-314.24a8 8 0 0 1 6.464-2.304z m-63.68 138.688L401.28 592h73.28l-33.088 163.2L603.712 576H523.52l13.248-119.488zM604.032 88a200 200 0 0 1 199.936 196.672V288a148.032 148.032 0 0 1 0 296h-49.152a8 8 0 0 1-5.888-13.376l48.576-53.632a16 16 0 0 1 11.008-5.248l1.472-0.128h0.896l1.28-0.128 1.152-0.128h0.704l0.64-0.128 0.64-0.064 0.512-0.064a76.032 76.032 0 0 0-10.56-151.04l-1.28-0.064h-71.36l-0.64-74.24v-1.984A128 128 0 0 0 606.08 160h-2.112c-46.144 0-87.936 24.576-110.72 63.808l-0.64 1.152-33.088 58.24-60.416-28.736a68.032 68.032 0 0 0-95.488 46.912l-0.256 0.96-11.712 57.6-71.68 0.064a75.968 75.968 0 0 0-1.28 152h96.384a8 8 0 0 1 5.696 13.632l-52.864 53.632A16 16 0 0 1 256.512 584h-36.48a148.032 148.032 0 0 1 0-296h12.8a140.032 140.032 0 0 1 197.12-98.56A199.936 199.936 0 0 1 604.032 88z" p-id="2165"></path></svg>