<?xml version="1.0" standalone="no"?><!DOCTYPE svg PUBLIC "-//W3C//DTD SVG 1.1//EN" "http://www.w3.org/Graphics/SVG/1.1/DTD/svg11.dtd"><svg t="1677643765065" class="icon" viewBox="0 0 1024 1024" version="1.1" xmlns="http://www.w3.org/2000/svg" p-id="1778" xmlns:xlink="http://www.w3.org/1999/xlink" width="200" height="200"><path d="M830.08 112.512h0.064a8.192 8.192 0 0 1 6.4 13.248l-0.192 0.256-225.152 264h240.448a8.192 8.192 0 0 1 5.888 13.76l-0.256 0.192-571.904 553.216a8 8 0 0 1-5.632 2.304 8.192 8.192 0 0 1-8.064-9.792l0.064-0.256 84.416-356.8H172.352a8.192 8.192 0 0 1-7.168-12.032l0.128-0.256 267.776-463.808a8.192 8.192 0 0 1 6.784-4.096h390.272z m-138.24 72H476.992L282.944 520.704h164.224L392 753.856l301.76-291.84H455.168L691.84 184.512z" p-id="1779"></path></svg>