<?xml version="1.0" standalone="no"?><!DOCTYPE svg PUBLIC "-//W3C//DTD SVG 1.1//EN" "http://www.w3.org/Graphics/SVG/1.1/DTD/svg11.dtd"><svg t="1755849479157" class="icon" viewBox="0 0 1024 1024" version="1.1" xmlns="http://www.w3.org/2000/svg" p-id="1509" xmlns:xlink="http://www.w3.org/1999/xlink" width="256" height="256"><path d="M885.888 521.728A128.64 128.64 0 0 0 912 444.032c0-44.928-25.088-87.424-65.472-111.104a67.648 67.648 0 0 0-34.304-9.344H572.416l5.952-122.88a107.072 107.072 0 0 0-29.44-79.36 106.624 106.624 0 0 0-77.952-33.472c-51.968 0-97.92 35.008-111.808 85.12l-85.888 311.04H144a32 32 0 0 0-32 32V880a32 32 0 0 0 32 32h601.28c9.216 0 18.24-1.792 26.496-5.376a128.64 128.64 0 0 0 72.96-155.392 128.64 128.64 0 0 0 20.672-114.752 128.64 128.64 0 0 0 20.48-114.752zM184 840V555.968h81.024V840H184z m636.416-353.024l-21.888 19.008 13.888 25.408a57.088 57.088 0 0 1-12.672 70.272l-21.952 19.008 13.888 25.408a57.088 57.088 0 0 1-12.672 70.272l-21.888 19.072 13.888 25.344a56.832 56.832 0 0 1-26.688 79.104H328.96V552.768l99.52-360.448A44.16 44.16 0 0 1 470.72 160a35.52 35.52 0 0 1 35.712 37.184l-9.6 198.4H811.2c17.792 10.88 28.8 29.312 28.8 48.384a57.28 57.28 0 0 1-19.584 43.008z" p-id="1510"></path></svg>