<?xml version="1.0" standalone="no"?><!DOCTYPE svg PUBLIC "-//W3C//DTD SVG 1.1//EN" "http://www.w3.org/Graphics/SVG/1.1/DTD/svg11.dtd"><svg t="1704281552194" class="icon" viewBox="0 0 1024 1024" version="1.1" xmlns="http://www.w3.org/2000/svg" p-id="1109" xmlns:xlink="http://www.w3.org/1999/xlink" width="200" height="200"><path d="M287.68 126.912l499.328 38.336a16 16 0 0 1 13.696 10.048l153.344 387.776a16 16 0 0 1-3.712 17.344L567.488 950.848a16 16 0 0 1-20.288 1.664L85.504 631.232a16 16 0 0 1-5.76-19.072l191.872-475.328a16 16 0 0 1 16.064-9.92z m35.328 74.88L163.264 597.696l387.2 269.44 322.88-312.32-126.72-320.384-423.616-32.512z m264 328.128a8 8 0 0 1 4.48 4.48l53.12 130.688a8 8 0 0 1-7.488 10.944h-33.152v52.032a8 8 0 0 1-8 8.064h-24a8 8 0 0 1-8-8.064v-52.032H530.88a8 8 0 0 1-7.424-10.944l53.12-130.752a8 8 0 0 1 10.432-4.48z m-122.176-51.008h0.064a7.616 7.616 0 0 1 4.48 4.288l38.464 99.968a8 8 0 0 1-7.488 10.88h-18.368v38.016a8 8 0 0 1-8 8h-24a8 8 0 0 1-8-8v-38.016H423.68a8 8 0 0 1-7.488-10.88l38.4-99.712a8 8 0 0 1 10.24-4.544z m-154.816-54.016a8 8 0 0 1 4.48 4.48l53.12 130.688a8 8 0 0 1-7.488 11.008H327.04v52.032a8 8 0 0 1-8 8h-24a8 8 0 0 1-8-8v-52.032h-33.088a8 8 0 0 1-7.424-11.008l53.12-130.752a8 8 0 0 1 10.432-4.48z m393.984-56a8 8 0 0 1 4.48 4.48l53.12 130.688a8 8 0 0 1-7.488 11.008H720.96v52.032a8 8 0 0 1-8 8h-24a8 8 0 0 1-8-8v-52.032h-33.088a8 8 0 0 1-7.424-11.008l53.12-130.752a8 8 0 0 1 10.432-4.48z m-261.12-57.984a7.616 7.616 0 0 1 4.48 4.288l38.464 99.968a8 8 0 0 1-7.488 10.88h-18.368v38.016a8 8 0 0 1-8 8h-24a8 8 0 0 1-8-8v-38.016h-18.304a8 8 0 0 1-7.488-10.88l38.4-99.712a8 8 0 0 1 10.24-4.544z m128-54.016a7.616 7.616 0 0 1 4.48 4.288l38.464 99.968a8 8 0 0 1-7.488 10.88h-18.368v38.016a8 8 0 0 1-8 8h-24a8 8 0 0 1-8-8v-38.016h-18.304a8 8 0 0 1-7.488-10.88l38.4-99.712a8 8 0 0 1 10.24-4.48z" p-id="1110"></path></svg>