<?xml version="1.0" standalone="no"?><!DOCTYPE svg PUBLIC "-//W3C//DTD SVG 1.1//EN" "http://www.w3.org/Graphics/SVG/1.1/DTD/svg11.dtd"><svg t="1669605592674" class="icon" viewBox="0 0 1024 1024" version="1.1" xmlns="http://www.w3.org/2000/svg" p-id="1188" xmlns:xlink="http://www.w3.org/1999/xlink" width="200" height="200"><path d="M904.32 804.010667H187.648V153.984a8.362667 8.362667 0 0 0-8.32-8.32H121.002667a8.362667 8.362667 0 0 0-8.32 8.32v716.672c0 4.608 3.712 8.32 8.32 8.32h783.36a8.362667 8.362667 0 0 0 8.32-8.32V812.373333a8.362667 8.362667 0 0 0-8.362667-8.32" p-id="1189"></path><path d="M297.856 643.285333a8.362667 8.362667 0 0 0 11.776 0l144.085333-143.36 132.906667 133.76c3.242667 3.242667 8.533333 3.242667 11.776 0l286.890667-286.762666a8.362667 8.362667 0 0 0 0-11.776l-41.258667-41.258667a8.362667 8.362667 0 0 0-11.776 0l-239.573333 239.488-132.693334-133.546667a8.362667 8.362667 0 0 0-11.818666 0l-191.445334 190.293334a8.362667 8.362667 0 0 0 0 11.776l41.130667 41.386666z" p-id="1190"></path></svg>