<?xml version="1.0" standalone="no"?><!DOCTYPE svg PUBLIC "-//W3C//DTD SVG 1.1//EN" "http://www.w3.org/Graphics/SVG/1.1/DTD/svg11.dtd"><svg t="1648464888452" class="icon" viewBox="0 0 1024 1024" version="1.1" xmlns="http://www.w3.org/2000/svg" p-id="113676" xmlns:xlink="http://www.w3.org/1999/xlink" width="200" height="200"><defs><style type="text/css">@font-face { font-family: feedback-iconfont; src: url("//at.alicdn.com/t/font_1031158_u69w8yhxdu.woff2?t=1630033759944") format("woff2"), url("//at.alicdn.com/t/font_1031158_u69w8yhxdu.woff?t=1630033759944") format("woff"), url("//at.alicdn.com/t/font_1031158_u69w8yhxdu.ttf?t=1630033759944") format("truetype"); }
</style></defs><path d="M832 64c17.673 0 32 14.327 32 32v832c0 17.673-14.327 32-32 32H192c-17.673 0-32-14.327-32-32V96c0-17.673 14.327-32 32-32h640z m-40 360H232v464h560V424zM364 296H232v72h132v-72z m256 0H404v72h216v-72z m172 0H660v72h132v-72z m0-160H232v112h560V136z m-280 24c17.673 0 32 14.327 32 32 0 17.673-14.327 32-32 32-17.673 0-32-14.327-32-32 0-17.673 14.327-32 32-32z" p-id="113677"></path><path d="M160 360m1 0l70 0q1 0 1 1l0 190q0 1-1 1l-70 0q-1 0-1-1l0-190q0-1 1-1Z" p-id="113678"></path><path d="M792 360m1 0l70 0q1 0 1 1l0 190q0 1-1 1l-70 0q-1 0-1-1l0-190q0-1 1-1Z" p-id="113679"></path></svg>