<?xml version="1.0" standalone="no"?><!DOCTYPE svg PUBLIC "-//W3C//DTD SVG 1.1//EN" "http://www.w3.org/Graphics/SVG/1.1/DTD/svg11.dtd"><svg t="1678011294850" class="icon" viewBox="0 0 1024 1024" version="1.1" xmlns="http://www.w3.org/2000/svg" p-id="3018" xmlns:xlink="http://www.w3.org/1999/xlink" width="200" height="200"><path d="M726.016 141.312a428.032 428.032 0 1 1-428.032 741.376 428.032 428.032 0 0 1 428.032-741.376z m-8.96 15.616c-155.968-90.048-374.144-4.032-487.36 192.064-113.28 196.096-78.592 428.032 77.312 518.08 155.904 90.048 374.08 4.032 487.296-192.064 113.28-196.096 78.592-428.032-77.312-518.08h0.064z m-21.12 37.504c150.528 86.912 194.24 300.48 92.096 477.504-102.208 176.96-309.056 245.952-459.584 159.04C177.856 744 134.144 530.432 236.352 353.408 338.56 176.448 545.344 107.52 695.936 194.432zM656 262.592a288 288 0 1 0-291.328 496.896A288 288 0 0 0 656 262.592z" p-id="3019"></path></svg>