<?xml version="1.0" standalone="no"?><!DOCTYPE svg PUBLIC "-//W3C//DTD SVG 1.1//EN" "http://www.w3.org/Graphics/SVG/1.1/DTD/svg11.dtd"><svg t="1655108135656" class="icon" viewBox="0 0 1024 1024" version="1.1" xmlns="http://www.w3.org/2000/svg" p-id="60984" xmlns:xlink="http://www.w3.org/1999/xlink" width="200" height="200"><defs><style type="text/css">@font-face { font-family: feedback-iconfont; src: url("//at.alicdn.com/t/font_1031158_u69w8yhxdu.woff2?t=1630033759944") format("woff2"), url("//at.alicdn.com/t/font_1031158_u69w8yhxdu.woff?t=1630033759944") format("woff"), url("//at.alicdn.com/t/font_1031158_u69w8yhxdu.ttf?t=1630033759944") format("truetype"); }
</style></defs><path d="M512 260.35c-108.87 0-197.13 88.26-197.13 197.13S403.13 654.61 512 654.61s197.13-88.26 197.13-197.13S620.87 260.35 512 260.35z m94.14 291.27a133.14 133.14 0 1 1 39-94.14 132.29 132.29 0 0 1-39 94.14z" p-id="60985"></path><path d="M516.11 64.23h-4.15c-217.6 0-393.71 175.19-394.22 393.32a392.41 392.41 0 0 0 65.73 219A784.16 784.16 0 0 0 497.91 957a31.08 31.08 0 0 0 13.73 3.18 31.77 31.77 0 0 0 14-3.25A784.52 784.52 0 0 0 844.15 671l1.05-1.67a392.45 392.45 0 0 0 61.06-210.83c0-216.41-174.26-392.07-390.15-394.27zM781 628.6v0.06l-0.05 0.07-0.46 0.74-0.25 0.39-0.12 0.2-0.17 0.26A713 713 0 0 1 651.5 781.79a708.38 708.38 0 0 1-139.77 97 708.09 708.09 0 0 1-137.24-95.07 712.49 712.49 0 0 1-127.11-148.36l-0.31-0.48-0.32-0.48A317.9 317.9 0 0 1 512 140.21h3.37A318.32 318.32 0 0 1 781 628.6z" p-id="60986"></path></svg>