<?xml version="1.0" standalone="no"?><!DOCTYPE svg PUBLIC "-//W3C//DTD SVG 1.1//EN" "http://www.w3.org/Graphics/SVG/1.1/DTD/svg11.dtd"><svg t="1677574287216" class="icon" viewBox="0 0 1024 1024" version="1.1" xmlns="http://www.w3.org/2000/svg" p-id="1582" xmlns:xlink="http://www.w3.org/1999/xlink" width="200" height="200"><path d="M888.32 757.44h-53.76a7.744 7.744 0 0 0-7.68 7.68v61.76H196.992V197.12h629.824v61.76c0 4.224 3.52 7.68 7.68 7.68h53.824a7.68 7.68 0 0 0 7.68-7.68V158.72A30.656 30.656 0 0 0 865.28 128H158.72A30.656 30.656 0 0 0 128 158.72v706.56A30.646 30.646 0 0 0 158.72 896h706.56A30.646 30.646 0 0 0 896 865.28V765.12a7.68 7.68 0 0 0-7.68-7.68zM433.088 505.6l141.888-112a8 8 0 0 1 12.992 6.336v75.968h314.048c4.416 0 7.936 3.648 7.936 8.064v55.936a8.064 8.064 0 0 1-8 8.064H587.968V624a8.064 8.064 0 0 1-12.992 6.336l-141.888-112a8 8 0 0 1 0-12.672z" p-id="1583"></path></svg>