<?xml version="1.0" standalone="no"?><!DOCTYPE svg PUBLIC "-//W3C//DTD SVG 1.1//EN" "http://www.w3.org/Graphics/SVG/1.1/DTD/svg11.dtd"><svg t="1711440249440" class="icon" viewBox="0 0 1024 1024" version="1.1" xmlns="http://www.w3.org/2000/svg" p-id="1374" xmlns:xlink="http://www.w3.org/1999/xlink" width="200" height="200"><path d="M904 431.872c4.416 0 8 3.584 8 8v73.088c-0.576 172.16-135.872 312.064-304 314.88H278.016v67.904a8 8 0 0 1-12.8 6.4l-128.448-97.536a16 16 0 0 1 0-25.472L265.152 681.6a8 8 0 0 1 12.8 6.4v67.84H602.88c129.152 0 234.56-106.368 237.056-239.104l0.064-4.032v-72.832c0-4.416 3.584-8 8-8h56zM747.648 123.136a8 8 0 0 1 10.944-1.664l0.256 0.128 128.384 97.536a16 16 0 0 1 0.256 25.28l-0.256 0.192-128.384 97.536a8 8 0 0 1-12.8-6.144v-68.096H420.992c-129.408 0-234.88 106.88-237.056 239.936v76.032a8 8 0 0 1-8 8h-56a8 8 0 0 1-8-8v-72c0-172.544 135.424-313.152 304-315.968H745.92V128c0-1.664 0.512-3.2 1.472-4.544l0.192-0.32z" p-id="1375"></path></svg>