<?xml version="1.0" standalone="no"?><!DOCTYPE svg PUBLIC "-//W3C//DTD SVG 1.1//EN" "http://www.w3.org/Graphics/SVG/1.1/DTD/svg11.dtd"><svg t="1698217608046" class="icon" viewBox="0 0 1024 1024" version="1.1" xmlns="http://www.w3.org/2000/svg" p-id="1319" xmlns:xlink="http://www.w3.org/1999/xlink" width="200" height="200"><path d="M265.484 73c51.85 0 95.616 34.616 109.447 82h37.327c11.934-24.847 37.335-42 66.742-42 29.407 0 54.808 17.153 66.742 42h144.516c11.934-24.847 37.335-42 66.742-42 40.87 0 74 33.13 74 74a73.939 73.939 0 0 1-3.642 22.993l-8.19 147.906 0.534 0.802C835.69 382.872 845 411.849 845 443c0 72.222-50.04 132.756-117.34 148.822L648.746 707.52A205.211 205.211 0 0 1 652 744c0 52.25-19.644 99.913-51.949 136.005L848 880c8.837 0 16 7.163 16 16v48c0 8.837-7.163 16-16 16H176c-8.837 0-16-7.163-16-16v-48c0-8.837 7.163-16 16-16l119.949 0.005C263.644 843.913 244 796.25 244 744c0-86.715 54.105-160.794 130.398-190.319-0.665 0.258-1.329 0.519-1.99 0.783l150.937-111.296 16.151-12.576 0.009-0.112c4.743-58.56 42.46-107.8 94.561-129.13l-0.091 0.036L677.972 219h-132.23c-11.935 24.847-37.335 42-66.742 42-29.407 0-54.807-17.153-66.742-42l-37.291 0.002C361.172 266.804 317.365 302.37 265.484 301c-38.647-1.021-69.614-17.172-92.9-48.452a8 8 0 0 1 2.32-11.648l34.204-20.389a7.998 7.998 0 0 1 10.453 2.018c10.222 13.387 25.53 20.877 45.923 22.471 31.948 2.497 58-25.967 58-58s-25.967-58-58-58c-17.622 0-32.488 7.095-44.598 21.285a7.998 7.998 0 0 1-10.401 1.536l-33.771-21.66a7.997 7.997 0 0 1-1.95-11.7C198.81 88.152 229.049 73 265.485 73zM448 612c-72.902 0-132 59.098-132 132s59.098 132 132 132 132-59.098 132-132-59.098-132-132-132z m0 44c48.601 0 88 39.399 88 88s-39.399 88-88 88-88-39.399-88-88 39.399-88 88-88z m0 48c-22.091 0-40 17.909-40 40s17.909 40 40 40 40-17.909 40-40-17.909-40-40-40z m99.754-209.868l0.174 0.492-65.473 48.273-1.162-0.194c60.054 9.858 111.28 45.941 141.527 96.1l0.666 1.116-0.279-0.471 32.755-47.717-0.035-0.008c-50.007-12.086-90.427-48.738-107.77-96.466l-0.403-1.125zM692 362c-44.735 0-81 36.265-81 81s36.265 81 81 81 81-36.265 81-81-36.265-81-81-81z m31.344-109.079l-20.023 37.492-1.02-0.072c23.132 1.538 44.86 8.217 64.047 18.906l-0.556-0.308 2.702-48.826A74.56 74.56 0 0 1 757 261c-12.12 0-23.56-2.914-33.656-8.079zM479 161c-14.36 0-26 11.64-26 26s11.64 26 26 26 26-11.64 26-26-11.64-26-26-26z m278 0c-14.36 0-26 11.64-26 26s11.64 26 26 26 26-11.64 26-26-11.64-26-26-26z" p-id="1320"></path></svg>