<?xml version="1.0" standalone="no"?><!DOCTYPE svg PUBLIC "-//W3C//DTD SVG 1.1//EN" "http://www.w3.org/Graphics/SVG/1.1/DTD/svg11.dtd"><svg t="1659949471043" class="icon" viewBox="0 0 1024 1024" version="1.1" xmlns="http://www.w3.org/2000/svg" p-id="33896" xmlns:xlink="http://www.w3.org/1999/xlink" width="200" height="200"><defs><style type="text/css">@font-face { font-family: feedback-iconfont; src: url("//at.alicdn.com/t/font_1031158_u69w8yhxdu.woff2?t=1630033759944") format("woff2"), url("//at.alicdn.com/t/font_1031158_u69w8yhxdu.woff?t=1630033759944") format("woff"), url("//at.alicdn.com/t/font_1031158_u69w8yhxdu.ttf?t=1630033759944") format("truetype"); }
</style></defs><path d="M876.032 132.010667c8.789333 0 15.957333 7.168 15.957333 15.957333v332.032a15.957333 15.957333 0 0 1-15.957333 16.042667h-48.042667a16.042667 16.042667 0 0 1-15.957333-16.042667V268.544L592.213333 488.277333a279.978667 279.978667 0 1 1-56.576-56.576l219.733334-219.733333H544a16.042667 16.042667 0 0 1-16.042667-15.957333v-48.042667c0-8.789333 7.168-15.957333 16.042667-15.957333h331.946667z m-508.074667 320a203.946667 203.946667 0 1 0 0 407.978666 203.946667 203.946667 0 0 0 0-407.978666z" p-id="33897"></path></svg>