<?xml version="1.0" standalone="no"?><!DOCTYPE svg PUBLIC "-//W3C//DTD SVG 1.1//EN" "http://www.w3.org/Graphics/SVG/1.1/DTD/svg11.dtd"><svg t="1648462702258" class="icon" viewBox="0 0 1024 1024" version="1.1" xmlns="http://www.w3.org/2000/svg" p-id="109695" xmlns:xlink="http://www.w3.org/1999/xlink" width="200" height="200"><defs><style type="text/css">@font-face { font-family: feedback-iconfont; src: url("//at.alicdn.com/t/font_1031158_u69w8yhxdu.woff2?t=1630033759944") format("woff2"), url("//at.alicdn.com/t/font_1031158_u69w8yhxdu.woff?t=1630033759944") format("woff"), url("//at.alicdn.com/t/font_1031158_u69w8yhxdu.ttf?t=1630033759944") format("truetype"); }
</style></defs><path d="M512 64C264.58 64 64 264.58 64 512s200.58 448 448 448 448-200.58 448-448S759.42 64 512 64z m263 711a370.52 370.52 0 1 1 79.8-118.22A370.77 370.77 0 0 1 775 775z" p-id="109696"></path><path d="M446.31 729.4A227.88 227.88 0 0 1 294.6 577.68 8 8 0 0 0 287 572h-41.57a8 8 0 0 0-7.75 10A283.74 283.74 0 0 0 442 786.32a8 8 0 0 0 10-7.76v-41.51a8 8 0 0 0-5.69-7.65zM245.43 452H287a8 8 0 0 0 7.65-5.69A227.95 227.95 0 0 1 446.31 294.6 8 8 0 0 0 452 287v-41.57a8 8 0 0 0-10-7.76A283.83 283.83 0 0 0 237.68 442a8 8 0 0 0 7.75 10zM577.69 294.6A227.95 227.95 0 0 1 729.4 446.31a8 8 0 0 0 7.65 5.69h41.52a8 8 0 0 0 7.75-10A283.83 283.83 0 0 0 582 237.67a8 8 0 0 0-10 7.76V287a8 8 0 0 0 5.69 7.6zM778.57 572h-41.52a8 8 0 0 0-7.65 5.68A227.88 227.88 0 0 1 577.69 729.4a8 8 0 0 0-5.69 7.65v41.51a8 8 0 0 0 10 7.76A283.74 283.74 0 0 0 786.32 582a8 8 0 0 0-7.75-10zM652 512a140 140 0 1 0-140 140 140 140 0 0 0 140-140z m-140 84a84 84 0 1 1 84-84 84.09 84.09 0 0 1-84 84z" p-id="109697"></path></svg>