<?xml version="1.0" standalone="no"?><!DOCTYPE svg PUBLIC "-//W3C//DTD SVG 1.1//EN" "http://www.w3.org/Graphics/SVG/1.1/DTD/svg11.dtd"><svg t="1648462036396" class="icon" viewBox="0 0 1024 1024" version="1.1" xmlns="http://www.w3.org/2000/svg" p-id="107203" xmlns:xlink="http://www.w3.org/1999/xlink" width="200" height="200"><defs><style type="text/css">@font-face { font-family: feedback-iconfont; src: url("//at.alicdn.com/t/font_1031158_u69w8yhxdu.woff2?t=1630033759944") format("woff2"), url("//at.alicdn.com/t/font_1031158_u69w8yhxdu.woff?t=1630033759944") format("woff"), url("//at.alicdn.com/t/font_1031158_u69w8yhxdu.ttf?t=1630033759944") format("truetype"); }
</style></defs><path d="M928 160H96a32 32 0 0 0-32 32v640a32 32 0 0 0 32 32h832a32 32 0 0 0 32-32V192a32 32 0 0 0-32-32z m-40 72v403.78H136V232zM136 792v-92.22h752V792z" p-id="107204"></path><path d="M512 556.26a122.49 122.49 0 1 0-122.49-122.48A122.49 122.49 0 0 0 512 556.26z m0-177a54.49 54.49 0 1 1-54.49 54.49A54.55 54.55 0 0 1 512 379.29zM202.44 461.78h48v27.79a8 8 0 0 0 8 8 7.85 7.85 0 0 0 4.83-1.67l72.85-55.79a8 8 0 0 0 0-12.71l-72.82-55.77a7.84 7.84 0 0 0-4.83-1.66 8 8 0 0 0-8 8v27.8h-48a8 8 0 0 0-8 8v40a8 8 0 0 0 7.97 8.01zM687.85 440.13l72.85 55.79a7.85 7.85 0 0 0 4.83 1.67 8 8 0 0 0 8-8v-27.81h48a8 8 0 0 0 8-8v-40a8 8 0 0 0-8-8h-48V378a8 8 0 0 0-8-8 7.84 7.84 0 0 0-4.83 1.66l-72.85 55.79a8 8 0 0 0 0 12.68z" p-id="107205"></path></svg>