<?xml version="1.0" standalone="no"?><!DOCTYPE svg PUBLIC "-//W3C//DTD SVG 1.1//EN" "http://www.w3.org/Graphics/SVG/1.1/DTD/svg11.dtd"><svg t="1648462030804" class="icon" viewBox="0 0 1024 1024" version="1.1" xmlns="http://www.w3.org/2000/svg" p-id="107073" xmlns:xlink="http://www.w3.org/1999/xlink" width="200" height="200"><defs><style type="text/css">@font-face { font-family: feedback-iconfont; src: url("//at.alicdn.com/t/font_1031158_u69w8yhxdu.woff2?t=1630033759944") format("woff2"), url("//at.alicdn.com/t/font_1031158_u69w8yhxdu.woff?t=1630033759944") format("woff"), url("//at.alicdn.com/t/font_1031158_u69w8yhxdu.ttf?t=1630033759944") format("truetype"); }
</style></defs><path d="M512 64c2.464 0 4.923 0.016 7.377 0.047L512 64a581.335 581.335 0 0 1 14.737 0.187l1.756 0.047c1.865 0.053 3.727 0.115 5.587 0.186l1.947 0.078a574.833 574.833 0 0 1 26.952 1.756 566.767 566.767 0 0 1 24.396 2.707 558.548 558.548 0 0 1 24.916 3.893 549.789 549.789 0 0 1 23.611 4.781 540.44 540.44 0 0 1 20.127 4.95 531.746 531.746 0 0 1 19.894 5.723 522.447 522.447 0 0 1 19.125 6.32 512.592 512.592 0 0 1 18.755 7.021 502.176 502.176 0 0 1 18.345 7.712 491.087 491.087 0 0 1 17.657 8.268 479.479 479.479 0 0 1 17.243 8.944 467.395 467.395 0 0 1 13.952 7.92 456.866 456.866 0 0 1 13.461 8.272 446.05 446.05 0 0 1 13.071 8.682 435.154 435.154 0 0 1 12.557 9.002 423.989 423.989 0 0 1 12.329 9.537 412.713 412.713 0 0 1 11.674 9.748 401.46 401.46 0 0 1 11.255 10.141 390.31 390.31 0 0 1 10.747 10.46 379.2 379.2 0 0 1 10.267 10.812 368.312 368.312 0 0 1 9.733 11.111 357.748 357.748 0 0 1 9.217 11.436 347.504 347.504 0 0 1 8.632 11.681 337.763 337.763 0 0 1 8.067 11.953 328.537 328.537 0 0 1 7.532 12.286 319.863 319.863 0 0 1 7.01 12.684 311.783 311.783 0 0 1 6.216 12.571 304.572 304.572 0 0 1 5.667 12.926 298.183 298.183 0 0 1 5.096 13.31 292.582 292.582 0 0 1 5.19 16.06 287.146 287.146 0 0 1 4.27 16.47 283.211 283.211 0 0 1 3.745 19.658 280.539 280.539 0 0 1 3.204 36.886L960 416v192c0 194.404-200.576 352-448 352-244.95 0-443.984-154.46-447.94-346.179L64 608V416l0.06-5.821a281.319 281.319 0 0 1 1.618-24.86 280.144 280.144 0 0 1 4.136-26.177 282.716 282.716 0 0 1 4.613-18.991 287.167 287.167 0 0 1 5.128-16.439 292.588 292.588 0 0 1 4.907-13.194 298.174 298.174 0 0 1 5.55-13.002 304.601 304.601 0 0 1 6.244-12.915 311.806 311.806 0 0 1 6.78-12.523 319.883 319.883 0 0 1 7.389-12.296 328.501 328.501 0 0 1 7.946-11.999 337.737 337.737 0 0 1 8.548-11.776 347.512 347.512 0 0 1 9.043-11.416 357.683 357.683 0 0 1 9.662-11.217 368.325 368.325 0 0 1 10.112-10.824 379.174 379.174 0 0 1 10.731-10.612 390.274 390.274 0 0 1 11.094-10.153 401.425 401.425 0 0 1 11.73-9.944 412.632 412.632 0 0 1 11.978-9.41 424.035 424.035 0 0 1 12.635-9.201 435.104 435.104 0 0 1 12.993-8.764 446.11 446.11 0 0 1 13.437-8.386 456.834 456.834 0 0 1 13.796-7.956 467.37 467.37 0 0 1 14.175-7.54 477.514 477.514 0 0 1 17.521-8.498 489.197 489.197 0 0 1 18.132-7.91 500.437 500.437 0 0 1 18.618-7.256 510.908 510.908 0 0 1 19.13-6.598 520.844 520.844 0 0 1 19.559-5.901 530.215 530.215 0 0 1 19.86-5.164 538.959 538.959 0 0 1 20.52-4.498 547.175 547.175 0 0 1 24.02-4.229 556.061 556.061 0 0 1 24.83-3.24 564.5 564.5 0 0 1 24.945-2.135 572.477 572.477 0 0 1 12.532-0.657l1.948-0.078c1.86-0.07 3.722-0.133 5.588-0.186l1.755-0.047a579.19 579.19 0 0 1 5.516-0.114l1.844-0.026c2.454-0.031 4.913-0.047 7.377-0.047z m0 704c-157.572 0-296.145-63.918-376.009-160.556l0.009 0.201 0.05 4.895 0.135 4.247c6.152 145.183 165.958 268.695 369.568 271.175L512 888c104.599 0 201.762-32.29 272.3-87.713 66.216-52.027 102.96-119.575 103.689-190.148L888 608l0.01-0.556C808.144 704.082 669.572 768 512 768z m6.247-631.962L512 136l-6.212 0.038c-1.85 0.022-3.695 0.054-5.538 0.097l5.538-0.097c-2.219 0.027-4.434 0.069-6.646 0.125-1.517 0.037-3.031 0.081-4.543 0.133l4.543-0.133c-2.211 0.056-4.419 0.127-6.622 0.212-1.182 0.041-2.36 0.09-3.538 0.144l3.538-0.144c-2.406 0.092-4.808 0.202-7.205 0.33-0.657 0.027-1.31 0.063-1.963 0.1l1.963-0.1c-94.353 4.993-181.115 36.33-245.616 87.008a333.825 333.825 0 0 0-22.575 19.4 30.47 30.47 0 0 0-0.684 0.636l0.684-0.636c-0.837 0.787-1.667 1.577-2.491 2.37-44.37 42.84-72.416 95.126-77.716 151.047l-0.183 2.05 0.03-0.354c-0.122 1.409-0.23 2.82-0.322 4.235l0.292-3.882a207.342 207.342 0 0 0-0.328 4.451l0.036-0.57c-0.094 1.43-0.173 2.86-0.237 4.293l0.201-3.723a207.157 207.157 0 0 0-0.357 8.48l-0.048 4.725 0.01 1.904c0.728 70.573 37.473 138.121 103.688 190.148C310.238 663.71 407.401 696 512 696c104.599 0 201.762-32.29 272.3-87.713C851.095 555.806 887.9 487.532 888 416.29l-0.049-4.78a207.161 207.161 0 0 0-0.676-12.831l0.283 3.8a207.374 207.374 0 0 0-0.317-4.203l0.034 0.403c-4.692-55.734-31.987-107.943-75.553-150.902l-1.64-1.605 0.315 0.306a314.852 314.852 0 0 0-2.38-2.294l2.065 1.988c-8.017-7.761-16.617-15.26-25.781-22.46-63.436-49.842-148.405-80.976-240.95-86.74l-2.807-0.167a125.54 125.54 0 0 0-1.89-0.11l1.89 0.11a501.656 501.656 0 0 0-5.634-0.287 326 326 0 0 0-3.634-0.156l3.634 0.156a503.219 503.219 0 0 0-10.046-0.357l4.505 0.136a504.69 504.69 0 0 0-11.122-0.26zM464.648 303.33c45.771-18.962 98.458-8.485 133.492 26.547 35.034 35.03 45.516 87.717 26.557 133.49-18.959 45.772-63.623 75.617-113.167 75.617-67.645 0-122.484-54.835-122.49-122.48-0.004-49.544 29.837-94.211 75.608-113.174z m300.412 49.394a8 8 0 0 1 7.996 7.75l0.004 0.25v27.78h48a8 8 0 0 1 7.996 7.75l0.004 0.25v40a8 8 0 0 1-7.75 7.996l-0.25 0.004h-48v27.81a8 8 0 0 1-8 8 7.85 7.85 0 0 1-4.568-1.474l-0.262-0.196-72.85-55.79a8 8 0 0 1-0.232-12.495l0.232-0.185 72.85-55.79a7.84 7.84 0 0 1 4.83-1.66z m-507.06-0.03c1.64 0 3.238 0.512 4.568 1.463l0.262 0.197 72.82 55.77a8 8 0 0 1 0.225 12.531l-0.225 0.179-72.85 55.79a7.85 7.85 0 0 1-4.83 1.67 8 8 0 0 1-7.996-7.751l-0.004-0.25v-27.79h-48a8 8 0 0 1-7.967-7.76l-0.003-0.25v-40a8 8 0 0 1 7.75-7.996l0.25-0.003h48v-27.8a8 8 0 0 1 8-8z m253.53 9.29v0.03c-30.069 0.033-54.44 24.391-54.49 54.46 0 30.094 24.396 54.49 54.49 54.49s54.49-24.396 54.49-54.49c0-29.793-23.91-54.002-53.589-54.483l-0.901-0.007z" p-id="107074"></path></svg>