<?xml version="1.0" standalone="no"?><!DOCTYPE svg PUBLIC "-//W3C//DTD SVG 1.1//EN" "http://www.w3.org/Graphics/SVG/1.1/DTD/svg11.dtd"><svg t="1710757791444" class="icon" viewBox="0 0 1024 1024" version="1.1" xmlns="http://www.w3.org/2000/svg" p-id="832" xmlns:xlink="http://www.w3.org/1999/xlink" width="200" height="200"><path d="M449.792 256c58.048 0 105.472 45.952 107.52 103.68l0.064 1.792 3.072 113.92 1.216 0.064c25.856 1.344 50.816 13.44 67.968 34.688l0.32 0.384h0.448c29.888-5.824 61.44 3.072 83.904 24.96l0.32 0.256 1.28-0.384c33.92-8.96 71.36 1.6 95.424 29.952l1.024 1.152a95.458 95.458 0 0 1 10.496 15.808l0.512 0.96 4.672 9.024-1.664 339.968a8 8 0 0 1-7.744 7.936h-0.256l-56-0.32a8 8 0 0 1-8-8.064l1.536-320.512-0.192-0.192a21.888 21.888 0 0 0-29.44-2.048l-0.32 0.256-26.88 22.144a8 8 0 0 1-12.16-2.56l-18.304-35.712a22.656 22.656 0 0 0-33.088-8.32l-0.32 0.192-27.392 19.648a8 8 0 0 1-11.904-3.136l-19.584-41.792a21.504 21.504 0 0 0-30.912-9.088l-0.32 0.192-30.272 19.84a16 16 0 0 1-24.768-13.056l-4.672-194.752A35.584 35.584 0 0 0 449.792 328a34.176 34.176 0 0 0-34.176 33.6v338.56a8 8 0 0 1-10.24 7.68l-149.76-44.928a12.48 12.48 0 0 0-15.36 7.552 40.192 40.192 0 0 0 6.784 40l0.32 0.384 185.28 215.936a8 8 0 0 1-6.08 13.248h-73.792a8 8 0 0 1-6.08-2.816L192.768 757.76a112.192 112.192 0 0 1-19.84-112.768 84.48 84.48 0 0 1 102.08-51.392l1.28 0.384 67.328 20.16V362.176A106.24 106.24 0 0 1 448 256h1.728zM448 64a252.032 252.032 0 0 1 252.032 252.032v2.24l-0.064 1.216v0.64l-0.064 1.152-0.064 1.28-0.064 1.28-0.064 1.28-0.128 1.92-0.128 1.408-0.128 1.344-0.128 1.408-0.128 1.408-0.192 2.176-0.192 1.472-0.192 1.472-0.192 1.536-0.192 1.536-0.32 2.368-0.192 1.6-0.256 1.6-0.256 1.664-0.256 1.664-0.384 2.56-0.256 1.728-0.32 1.728-0.32 1.792-0.32 1.792-0.448 2.752-0.384 1.92-0.32 1.792-0.384 1.92-0.384 1.92-0.576 2.944-0.832 3.968-0.832 4.096-0.64 3.136-0.768 3.2-0.448 2.112a7.808 7.808 0 0 1-0.32 1.024l-7.424 19.84a8 8 0 0 1-10.752 4.544l-51.008-22.592a8 8 0 0 1-4.224-10.176l0.96-2.496 0.64-1.792 0.64-1.664 0.64-1.6 0.32-1.024 0.512-1.472 0.32-0.96 0.32-0.896 0.256-0.832 0.256-0.832 0.256-0.768a179.968 179.968 0 1 0-344.256 3.008l0.192 0.64 0.256 0.704 0.384 1.152 0.448 1.28 0.448 1.28 0.576 1.472 0.576 1.472 1.024 2.752 0.256 0.64a8 8 0 0 1-4.224 10.176l-51.328 22.72a8 8 0 0 1-10.496-4.096l-0.128-0.192-0.64-1.728-1.088-2.624-0.768-1.92-0.512-1.28-0.448-1.28-0.256-0.704A252.032 252.032 0 0 1 448 64z" p-id="833"></path></svg>