<?xml version="1.0" standalone="no"?><!DOCTYPE svg PUBLIC "-//W3C//DTD SVG 1.1//EN" "http://www.w3.org/Graphics/SVG/1.1/DTD/svg11.dtd"><svg t="1692067564142" class="icon" viewBox="0 0 1024 1024" version="1.1" xmlns="http://www.w3.org/2000/svg" p-id="1025" xmlns:xlink="http://www.w3.org/1999/xlink" width="200" height="200"><path d="M263.04 160c118.528 0 196.928 74.752 196.928 190.72 0 28.928-4.992 52.48-15.744 75.584l-0.576 1.28-0.704 1.536-0.64 1.28-0.32 0.576-0.64 1.28-0.64 1.216-0.96 1.856-0.64 1.28-0.64 1.216-0.704 1.28-0.384 0.64-0.704 1.216-0.384 0.64-0.32 0.64-0.768 1.28-0.768 1.28-0.768 1.28-0.768 1.28-0.768 1.28-0.832 1.28-0.832 1.28-0.832 1.28-0.832 1.344-0.448 0.64-0.896 1.408-0.896 1.28-0.96 1.408-0.896 1.344-1.472 2.112-0.96 1.344-1.024 1.472-1.024 1.408-1.536 2.176-1.088 1.408-1.088 1.472-1.088 1.536-1.152 1.472-1.152 1.536-1.152 1.536-1.792 2.368-1.28 1.536-1.792 2.432-1.28 1.664-1.28 1.6-2.048 2.56-2.048 2.56-1.408 1.728-2.176 2.624L170.048 784.96h281.92c4.352 0 7.872 3.456 8 7.68V856a8 8 0 0 1-8 8H96a32 32 0 0 1-32-32v-44.672a16 16 0 0 1 3.456-9.984l264.128-331.52 0.832-0.96c27.008-33.216 37.568-59.584 37.568-95.104 0-66.944-40.96-110.72-107.008-110.72-28.992 0-55.04 8.448-74.112 25.216l-0.576 0.512-0.64 0.64c-17.92 16.384-28.928 39.68-31.872 69.632l-0.064 0.896a11.84 11.84 0 0 1-11.84 10.752H76.48a10.944 10.944 0 0 1-10.88-10.88v-0.896l0.512-6.4C76.352 227.008 153.792 160 263.04 160z m450.688 0c94.464 0.64 165.248 39.872 212.48 117.76 16.896 26.112 27.584 53.568 32 82.24l0.256 1.792 0.192 1.792 0.128 0.896 0.256 2.88 0.32 2.944 0.192 2.048 0.192 2.112 0.128 2.176 0.192 2.24 0.256 3.392 0.128 2.368 0.192 2.432 0.256 3.648 0.128 2.56 0.128 2.56 0.128 2.688 0.128 2.688 0.192 4.096 0.192 4.224 0.128 2.944 0.192 4.416 0.064 3.008 0.192 4.672 0.128 4.736 0.064 3.2 0.128 3.2 0.064 3.392 0.064 3.328 0.064 3.456 0.128 5.184 0.128 5.312v5.44l0.128 3.712v3.712l0.064 3.776v3.84l0.064 3.84v5.888l0.064 6.016v10.176l0.064 6.272v19.712l-0.064 4.288v4.288l-0.064 4.16-0.064 4.16-0.064 4.096-0.064 4.096-0.128 5.952-0.064 3.968-0.064 3.84-0.128 3.84-0.064 3.84-0.128 3.712-0.128 3.648-0.064 3.648-0.128 3.584-0.128 3.52-0.192 3.456-0.128 3.456-0.128 3.328-0.192 3.328-0.128 3.264-0.192 3.2-0.128 3.2-0.192 3.072-0.32 4.48-0.192 3.008-0.192 2.88-0.192 2.88-0.256 2.816-0.192 2.752-0.256 2.624-0.128 1.28-0.256 2.624-0.192 2.56-0.128 1.216-0.256 2.432-0.128 1.152-0.32 2.368-0.256 2.304-0.256 2.048-0.256 2.048-1.728 11.008c-2.56 14.976-6.4 28.352-11.52 40.192-5.376 11.52-11.904 23.424-19.584 35.84a242.816 242.816 0 0 1-85.184 81.408c-35.712 22.72-79.36 34.176-131.008 34.432H560a32 32 0 0 1-32-31.488V192a32 32 0 0 1 31.488-32h154.24z m-0.32 80H608v544h98.56c37.44 0 66.56-7.488 88.896-21.504l0.64-0.448 1.28-0.768 1.216-0.704c25.088-14.72 43.84-32.512 57.216-53.76l0.448-0.704 0.64-1.024c5.312-8.768 9.92-17.088 13.696-24.96l0.32-0.64c2.176-5.376 4.032-11.968 5.44-19.968l0.192-0.832v-0.448l0.128-0.512 0.384-2.176 0.256-1.536 0.256-1.6 0.128-0.768 0.192-1.728 0.128-0.896 0.256-1.792a305.28 305.28 0 0 0 0.448-3.776l0.192-1.984 0.128-1.024 0.192-2.112 0.192-2.112 0.192-2.24 0.192-2.304 0.192-2.304 0.192-2.432 0.192-2.496 0.192-2.56 0.192-2.56 0.128-2.624 0.192-2.752 0.128-2.752 0.256-4.288 0.128-2.88 0.192-3.008 0.128-3.008 0.128-3.136 0.128-3.136 0.128-3.2 0.064-3.264 0.192-4.992 0.128-3.392 0.064-3.456 0.128-5.312 0.064-3.584 0.128-3.648 0.064-5.568 0.064-3.776 0.064-3.84 0.064-5.76 0.064-3.968v-3.968l0.064-4.096v-10.24l0.064-4.224v-21.824l-0.064-7.552v-5.44l-0.128-7.168v-3.52l-0.128-5.312v-5.12l-0.128-4.928-0.128-4.864-0.064-4.8-0.128-6.208-0.128-3.008-0.128-4.48-0.128-4.288-0.128-4.224-0.064-2.752-0.192-4.032-0.128-3.904-0.128-2.56-0.192-3.712-0.064-2.432-0.192-3.52-0.128-2.304-0.128-2.24-0.128-2.176-0.192-2.112-0.128-2.048-0.128-2.048-0.128-1.92-0.192-1.92-0.128-1.92-0.128-1.728-0.192-1.792-0.128-1.664-0.192-1.6-0.192-1.6-0.128-1.664-0.128-0.64a130.368 130.368 0 0 0-19.328-48.384l-0.576-0.896-0.64-0.96-0.576-0.96C825.472 265.92 780.992 240.96 715.2 240h-1.792z" p-id="1026"></path></svg>