<?xml version="1.0" standalone="no"?><!DOCTYPE svg PUBLIC "-//W3C//DTD SVG 1.1//EN" "http://www.w3.org/Graphics/SVG/1.1/DTD/svg11.dtd"><svg t="1692067568211" class="icon" viewBox="0 0 1024 1024" version="1.1" xmlns="http://www.w3.org/2000/svg" p-id="1173" xmlns:xlink="http://www.w3.org/1999/xlink" width="200" height="200"><path d="M713.728 160c94.464 0.64 165.248 39.872 212.48 117.76 16.896 26.112 27.584 53.568 32 82.24l0.256 1.792 0.192 1.792 0.128 0.896 0.256 2.88 0.32 2.944 0.192 2.048 0.192 2.112 0.128 2.176 0.192 2.24 0.256 3.392 0.128 2.368 0.192 2.432 0.256 3.648 0.128 2.56 0.128 2.56 0.128 2.688 0.128 2.688 0.192 4.096 0.192 4.224 0.128 2.944 0.192 4.416 0.064 3.008 0.192 4.672 0.128 4.736 0.064 3.2 0.128 3.2 0.064 3.392 0.064 3.328 0.064 3.456 0.128 5.184 0.128 5.312v5.44l0.128 3.712v3.712l0.064 3.776v3.84l0.064 3.84v5.888l0.064 6.016v10.176l0.064 6.272v19.712l-0.064 4.288v4.288l-0.064 4.16-0.064 4.16-0.064 4.096-0.064 4.096-0.128 5.952-0.064 3.968-0.064 3.84-0.128 3.84-0.064 3.84-0.128 3.712-0.128 3.648-0.064 3.648-0.128 3.584-0.128 3.52-0.192 3.456-0.128 3.456-0.128 3.328-0.192 3.328-0.128 3.264-0.192 3.2-0.128 3.2-0.192 3.072-0.32 4.48-0.192 3.008-0.192 2.88-0.192 2.88-0.256 2.816-0.192 2.752-0.256 2.624-0.128 1.28-0.256 2.624-0.192 2.56-0.128 1.216-0.256 2.432-0.128 1.152-0.32 2.368-0.256 2.304-0.256 2.048-0.256 2.048-1.728 11.008c-2.56 14.976-6.4 28.352-11.52 40.192-5.376 11.52-11.904 23.424-19.584 35.84a242.816 242.816 0 0 1-85.184 81.408c-35.712 22.72-79.36 34.176-131.008 34.432H560a32 32 0 0 1-32-31.488V192a32 32 0 0 1 31.488-32h154.24z m-0.32 80H608v544h98.56c37.44 0 66.56-7.488 88.896-21.504l0.64-0.448 1.28-0.768 1.216-0.704c25.088-14.72 43.84-32.512 57.216-53.76l0.448-0.704 0.64-1.024c5.312-8.768 9.92-17.088 13.696-24.96l0.32-0.64c2.176-5.376 4.032-11.968 5.44-19.968l0.192-0.832v-0.448l0.128-0.512 0.384-2.176 0.256-1.536 0.256-1.6 0.128-0.768 0.192-1.728 0.128-0.896 0.256-1.792a305.28 305.28 0 0 0 0.448-3.776l0.192-1.984 0.128-1.024 0.192-2.112 0.192-2.112 0.192-2.24 0.192-2.304 0.192-2.304 0.192-2.432 0.192-2.496 0.192-2.56 0.192-2.56 0.128-2.624 0.192-2.752 0.128-2.752 0.256-4.288 0.128-2.88 0.192-3.008 0.128-3.008 0.128-3.136 0.128-3.136 0.128-3.2 0.064-3.264 0.192-4.992 0.128-3.392 0.064-3.456 0.128-5.312 0.064-3.584 0.128-3.648 0.064-5.568 0.064-3.776 0.064-3.84 0.064-5.76 0.064-3.968v-3.968l0.064-4.096v-10.24l0.064-4.224v-21.824l-0.064-7.552v-5.44l-0.128-7.168v-3.52l-0.128-5.312v-5.12l-0.128-4.928-0.128-4.864-0.064-4.8-0.128-6.208-0.128-3.008-0.128-4.48-0.128-4.288-0.128-4.224-0.064-2.752-0.192-4.032-0.128-3.904-0.128-2.56-0.192-3.712-0.064-2.432-0.192-3.52-0.128-2.304-0.128-2.24-0.128-2.176-0.192-2.112-0.128-2.048-0.128-2.048-0.128-1.92-0.192-1.92-0.128-1.92-0.128-1.728-0.192-1.792-0.128-1.664-0.192-1.6-0.192-1.6-0.128-1.664-0.128-0.64a130.368 130.368 0 0 0-19.328-48.384l-0.576-0.896-0.64-0.96-0.576-0.96C825.472 265.92 780.992 240.96 715.2 240h-1.792z m-433.792-80.448c116.864 0 198.528 78.08 198.528 190.72 0 68.864-28.928 116.864-83.072 144.128l-1.664 0.832-9.728 4.8 9.92 4.352 1.92 0.832c60.8 27.712 93.44 80.448 93.44 159.808 0 63.168-21.76 113.792-61.568 148.48-37.376 32.64-89.344 50.048-147.84 50.048-56.448 0-106.688-15.36-143.36-44.992l-1.152-0.96-1.216-0.96c-36.864-30.784-58.752-75.456-62.976-132.672l-0.128-1.728a4.928 4.928 0 0 1 4.928-5.248H153.6a8.028 8.028 0 0 1 8 7.04l0.128 1.216 0.128 1.024 0.128 0.896c4.48 29.824 17.216 53.312 37.12 69.76 20.992 17.408 49.152 26.24 80.576 26.24 69.76 0 118.208-46.272 119.168-118.912v-4.48c-0.832-73.92-42.944-116.992-119.808-117.824h-5.952a8 8 0 0 1-8-8.064v-61.44c0-4.352 3.584-7.936 8-7.936h5.76c71.104-0.832 109.184-41.984 109.184-111.36 0-69.12-43.712-112.384-106.432-113.216h-3.84c-59.776 0.768-99.968 37.632-107.648 97.408a3.328 3.328 0 0 1-3.2 2.944H87.168a7.168 7.168 0 0 1-7.168-7.68v-0.256c11.136-105.28 90.88-172.8 199.552-172.8z" p-id="1174"></path></svg>