<?xml version="1.0" encoding="UTF-8"?>
<svg width="16px" height="16px" viewBox="0 0 16 16" version="1.1" xmlns="http://www.w3.org/2000/svg" xmlns:xlink="http://www.w3.org/1999/xlink">
    <title>Line/最高温</title>
    <g id="Line/最高温" stroke="none" stroke-width="1" fill="none" fill-rule="evenodd">
        <rect id="矩形" fill="#000000" fill-rule="nonzero" opacity="0" x="0" y="0" width="16" height="16"></rect>
        <path d="M5.78125,1 C6.90325,1 7.81225,1.91 7.81225,3.031 L7.81225,9.141 C8.90910918,10.0062963 9.33748149,11.4714096 8.8795319,12.7913035 C8.42158231,14.1111974 7.17783186,14.996152 5.78075,14.996152 C4.38366814,14.996152 3.13991769,14.1111974 2.6819681,12.7913035 C2.22401851,11.4714096 2.65239082,10.0062963 3.74925,9.141 L3.74925,3.031 C3.75025,1.91 4.66025,1 5.78125,1 Z M5.78125,2.125 C5.28125,2.125 4.87525,2.531 4.87525,3.031 L4.87525,3.924 L5.66425,3.924 C5.73325,3.924 5.78925,3.98 5.78925,4.049 L5.78925,4.674 C5.78925,4.74303559 5.73328559,4.799 5.66425,4.799 L4.87425,4.799 L4.87425,5.361 L5.66425,5.361 C5.73325,5.361 5.78925,5.417 5.78925,5.486 L5.78925,6.111 C5.78925,6.18003559 5.73328559,6.236 5.66425,6.236 L4.87425,6.236 L4.87425,9.688 L4.44725,10.025 C3.72556981,10.5933973 3.4433109,11.5566531 3.74408834,12.4246569 C4.04486578,13.2926608 4.86261092,13.8747473 5.78125,13.8747473 C6.69988908,13.8747473 7.51763422,13.2926608 7.81841166,12.4246569 C8.1191891,11.5566531 7.83693019,10.5933973 7.11525,10.025 L6.68725,9.687 L6.68725,3.032 C6.68725,2.56771429 6.33804082,2.18447959 5.88702515,2.13210058 L5.78125,2.125 Z M5.78125,10.969 C6.0491992,10.969 6.29679448,11.1119492 6.43076908,11.344 C6.56474368,11.5760508 6.56474368,11.8619492 6.43076908,12.094 C6.29679448,12.3260508 6.0491992,12.469 5.78125,12.469 C5.36703644,12.469 5.03125,12.1332136 5.03125,11.719 C5.03125,11.3393042 5.31340388,11.025509 5.67947944,10.9758466 L5.78125,10.969 Z M11.3124559,12.9994588 C11.3811006,12.9989096 11.4364581,12.9431057 11.4364559,12.8744588 L11.4364559,4.91845875 L13.2975923,6.3859079 C13.3518036,6.42865186 13.4304014,6.41935574 13.4731454,6.36514442 C13.4905319,6.34309346 13.4999871,6.31583051 13.4999871,6.28774963 L13.4999871,5.15363255 C13.4999871,5.07706323 13.4648983,5.00471635 13.4047692,4.95731011 L11.0584559,3.10745875 C10.908111,2.98927473 10.7035238,2.96719765 10.5314271,3.0505869 C10.3593304,3.13397614 10.249872,3.30822366 10.2494559,3.49945875 L10.2494559,12.8744588 C10.2494559,12.9434943 10.3054203,12.9994588 10.3744559,12.9994588 L11.3124559,12.9994588 Z" id="形状" fill="#0A1B39"></path>
    </g>
</svg>