<?xml version="1.0" standalone="no"?><!DOCTYPE svg PUBLIC "-//W3C//DTD SVG 1.1//EN" "http://www.w3.org/Graphics/SVG/1.1/DTD/svg11.dtd"><svg t="1677671806279" class="icon" viewBox="0 0 1024 1024" version="1.1" xmlns="http://www.w3.org/2000/svg" p-id="3106" xmlns:xlink="http://www.w3.org/1999/xlink" width="200" height="200"><path d="M816 88a32 32 0 0 1 32 32v248h-72V160H216v704h560V712h72v192a32 32 0 0 1-32 32H176a32 32 0 0 1-32-32V120a32 32 0 0 1 32-32h640z m87.68 456a8 8 0 0 1 6.272 12.928l-78.528 100.928A16 16 0 0 1 818.816 664H761.92a8 8 0 0 1-6.336-12.928L789.12 608H528a8 8 0 0 1-8-8v-48c0-4.416 3.584-8 8-8h375.68z m-570.752-92.032A4.015 4.015 0 0 1 336.96 456v112a3.968 3.968 0 0 1-4.032 4.032h-48A3.968 3.968 0 0 1 280.96 568V456c0-2.24 1.792-4.032 3.968-4.032h48zM670.016 360a8 8 0 0 1 6.336 12.928L642.816 416h261.12c4.416 0 8 3.584 8 8v48a8 8 0 0 1-8 8h-375.68a8 8 0 0 1-6.272-12.928l78.528-100.928A16 16 0 0 1 613.12 360h56.896z" p-id="3107"></path></svg>