<?xml version="1.0" standalone="no"?><!DOCTYPE svg PUBLIC "-//W3C//DTD SVG 1.1//EN" "http://www.w3.org/Graphics/SVG/1.1/DTD/svg11.dtd"><svg t="1750919530860" class="icon" viewBox="0 0 1024 1024" version="1.1" xmlns="http://www.w3.org/2000/svg" p-id="1555" xmlns:xlink="http://www.w3.org/1999/xlink" width="200" height="200"><path d="M626.931 72l159.609 2.032a32 32 0 0 1 13.496 3.176c15.918 7.678 22.597 26.807 14.918 42.725L666.65 427.37l-0.803-0.518c78.84 50.695 131.065 139.196 131.065 239.893 0 157.402-127.599 285-285 285s-285-127.598-285-285c0-103.787 55.478-194.618 138.398-244.453a285.085 285.085 0 0 0-6.368 3.942L211.186 119.933c-7.68-15.918-1-35.047 14.918-42.725a32 32 0 0 1 13.496-3.176L398.764 72a32.013 32.013 0 0 1 29.237 18.115l85.068 176.598 85.07-176.598A32.007 32.007 0 0 1 626.93 72z m-115.02 373.745c-122.054 0-221 98.946-221 221 0 122.055 98.946 221 221 221 122.056 0 221-98.945 221-221 0-122.054-98.944-221-221-221z m0 72c82.291 0 149 66.71 149 149s-66.709 149-149 149c-82.29 0-149-66.71-149-149s66.71-149 149-149z m0 64c-46.943 0-85 38.056-85 85 0 46.945 38.057 85 85 85 46.945 0 85-38.055 85-85 0-46.944-38.055-85-85-85z m-132.72-445.487l-88.528 1.128 125.78 260.743 1.91-0.672a282.856 282.856 0 0 1 35.594-9.813l0.958-0.196 22.645-46.999-98.359-204.19z m267.758 0L548.588 340.45l-22.493 41.643c28.444 1.394 55.792 6.958 81.446 16.094l1.813 0.652 126.123-261.452-88.528-1.128z" p-id="1556"></path></svg>