<?xml version="1.0" standalone="no"?><!DOCTYPE svg PUBLIC "-//W3C//DTD SVG 1.1//EN" "http://www.w3.org/Graphics/SVG/1.1/DTD/svg11.dtd"><svg t="1677999517315" class="icon" viewBox="0 0 1024 1024" version="1.1" xmlns="http://www.w3.org/2000/svg" p-id="4285" xmlns:xlink="http://www.w3.org/1999/xlink" width="200" height="200"><path d="M736 112a32 32 0 0 1 32 32v129.408h136a32 32 0 0 1 32 32v551.04a32 32 0 0 1-32 32H120a32 32 0 0 1-32-32v-551.04a32 32 0 0 1 32-32h136V144a32 32 0 0 1 32-32h448z m128 385.984H160V816h704V497.984z m-328 55.04c4.416 0 8 3.584 8 8v59.968h60.032c4.416 0 7.936 3.584 7.936 8v48a8 8 0 0 1-7.936 8H544v60.032a8 8 0 0 1-8 8h-48a8 8 0 0 1-8-8v-60.032h-60.032a8 8 0 0 1-8-8v-48c0-4.416 3.584-8 8-8H480v-59.968c0-4.48 3.584-8 8-8h48z m328-207.04H160v88h704v-88zM696 184H328v88.96h368V184z" p-id="4286"></path></svg>