<?xml version="1.0" standalone="no"?><!DOCTYPE svg PUBLIC "-//W3C//DTD SVG 1.1//EN" "http://www.w3.org/Graphics/SVG/1.1/DTD/svg11.dtd"><svg t="1725008181174" class="icon" viewBox="0 0 1024 1024" version="1.1" xmlns="http://www.w3.org/2000/svg" p-id="1212" xmlns:xlink="http://www.w3.org/1999/xlink" width="200" height="200"><path d="M800 288c17.673 0 32 14.327 32 32v512c0 17.673-14.327 32-32 32H96c-17.673 0-32-14.327-32-32V320c0-17.673 14.327-32 32-32h704z m128-128c17.673 0 32 14.327 32 32v616a8 8 0 0 1-8 8h-56c-4.416 0-8-3.584-8-8V232H200c-4.416 0-8-3.584-8-8v-56a8 8 0 0 1 8-8h728zM136 792h624v-84.35L601.118 563.289 376.204 767.67a8 8 0 0 1-10.762-0.001l-148.149-134.68L136 706.839V792z m624-432H136v260.374l75.927-68.974a8 8 0 0 1 10.76 0.002l148.144 134.673 224.905-204.373a8 8 0 0 1 10.76 0L760 621.177V360z m-384.103 65.946a73 73 0 0 1-64.822 110.029C271.522 534.93 240 502.567 240 463c0-39.567 31.522-71.931 71.075-72.975a73 73 0 0 1 64.822 35.92z m-63.556 12.063C298.795 438.366 288 449.449 288 463c0 13.55 10.795 24.634 24.34 24.991a25 25 0 1 0 0-49.982z" p-id="1213"></path></svg>