<?xml version="1.0" standalone="no"?><!DOCTYPE svg PUBLIC "-//W3C//DTD SVG 1.1//EN" "http://www.w3.org/Graphics/SVG/1.1/DTD/svg11.dtd"><svg t="1677643976787" class="icon" viewBox="0 0 1024 1024" version="1.1" xmlns="http://www.w3.org/2000/svg" p-id="2402" xmlns:xlink="http://www.w3.org/1999/xlink" width="200" height="200"><path d="M625.152 116.032l282.88 282.88a160 160 0 0 1 0 226.24l-282.88 282.88a160 160 0 0 1-226.304 0l-282.88-282.88a160 160 0 0 1 0-226.304l282.88-282.88a160 160 0 0 1 226.304 0z m-171.52 52.736l-1.024 0.96-282.88 282.88a84.032 84.032 0 0 0-0.96 117.76l0.96 1.024 282.88 282.88a84.032 84.032 0 0 0 117.76 0.96l1.024-0.96 282.88-282.88a84.032 84.032 0 0 0 0.96-117.76l-0.96-1.024-282.88-282.88a84.032 84.032 0 0 0-117.76-0.96zM595.968 312c4.48 0 8.064 3.584 8.064 8v99.968H704c4.416 0 8 3.584 8 8v168a8 8 0 0 1-8 8.064H603.968V704a8 8 0 0 1-7.936 8H427.968a8 8 0 0 1-7.936-8V603.968H320a8 8 0 0 1-8-7.936V427.968c0-4.416 3.584-8 8-8h100.032V320c0-4.416 3.52-8 8-8h168z m-48 56h-71.936v107.968H368v72h108.032V656h72V547.968H656v-71.936H547.968V368z" p-id="2403"></path></svg>