<?xml version="1.0" standalone="no"?><!DOCTYPE svg PUBLIC "-//W3C//DTD SVG 1.1//EN" "http://www.w3.org/Graphics/SVG/1.1/DTD/svg11.dtd"><svg t="1649139287145" class="icon" viewBox="0 0 1024 1024" version="1.1" xmlns="http://www.w3.org/2000/svg" p-id="26264" xmlns:xlink="http://www.w3.org/1999/xlink" width="200" height="200"><defs><style type="text/css">@font-face { font-family: feedback-iconfont; src: url("//at.alicdn.com/t/font_1031158_u69w8yhxdu.woff2?t=1630033759944") format("woff2"), url("//at.alicdn.com/t/font_1031158_u69w8yhxdu.woff?t=1630033759944") format("woff"), url("//at.alicdn.com/t/font_1031158_u69w8yhxdu.ttf?t=1630033759944") format("truetype"); }
</style></defs><path d="M288 421a48 48 0 1 0 96 0 48 48 0 1 0-96 0z m352 0a48 48 0 1 0 96 0 48 48 0 1 0-96 0zM512 64C264.6 64 64 264.6 64 512s200.6 448 448 448 448-200.6 448-448S759.4 64 512 64z m263 711c-34.2 34.2-74 61-118.3 79.8C611 874.2 562.3 884 512 884c-50.3 0-99-9.8-144.8-29.2-44.3-18.7-84.1-45.6-118.3-79.8-34.2-34.2-61-74-79.8-118.3C149.8 611 140 562.3 140 512s9.8-99 29.2-144.8c18.7-44.3 45.6-84.1 79.8-118.3 34.2-34.2 74-61 118.3-79.8C413 149.8 461.7 140 512 140c50.3 0 99 9.8 144.8 29.2 44.3 18.7 84.1 45.6 118.3 79.8 34.2 34.2 61 74 79.8 118.3C874.2 413 884 461.7 884 512s-9.8 99-29.2 144.8c-18.7 44.3-45.6 84.1-79.8 118.2zM664 565H360c-4.4 0-8 3.6-8 8v48c0 4.4 3.6 8 8 8h304c4.4 0 8-3.6 8-8v-48c0-4.4-3.6-8-8-8z" p-id="26265"></path></svg>