<?xml version="1.0" standalone="no"?><!DOCTYPE svg PUBLIC "-//W3C//DTD SVG 1.1//EN" "http://www.w3.org/Graphics/SVG/1.1/DTD/svg11.dtd"><svg t="1706282482751" class="icon" viewBox="0 0 1024 1024" version="1.1" xmlns="http://www.w3.org/2000/svg" p-id="2229" xmlns:xlink="http://www.w3.org/1999/xlink" width="200" height="200"><path d="M512 92.032a353.984 353.984 0 0 1 353.92 346.56c8.448 5.76 13.888 14.72 14.08 24.896V496c0 4.416-3.968 7.936-8.96 8h-25.024v368H856a32 32 0 0 1 32 31.488V936a8 8 0 0 1-8 8H144a8 8 0 0 1-8-8v-32a32 32 0 0 1 32-32h9.984V504h-32.96c-4.992 0-9.024-3.584-9.024-8v-0.704a19.264 19.264 0 0 1-0.512-1.152c-0.064-0.128 0.128-0.192 0.448-0.32L136 464c0-13.312 9.152-24.704 22.208-29.568A353.984 353.984 0 0 1 512 92.032zM774.016 504H641.92v368h132.032V504z m-196.032 0H446.08v368h131.84V504z m-195.968 0H249.984v368H382.08V504zM512 163.968A281.984 281.984 0 0 0 230.4 432h563.2A281.984 281.984 0 0 0 512 163.968zM512 216a96 96 0 1 1 0 192 96 96 0 0 1 0-192z m0 56a40 40 0 1 0 0 80 40 40 0 0 0 0-80z" p-id="2230"></path></svg>