<?xml version="1.0" standalone="no"?><!DOCTYPE svg PUBLIC "-//W3C//DTD SVG 1.1//EN" "http://www.w3.org/Graphics/SVG/1.1/DTD/svg11.dtd"><svg t="1677574200319" class="icon" viewBox="0 0 1024 1024" version="1.1" xmlns="http://www.w3.org/2000/svg" p-id="1116" xmlns:xlink="http://www.w3.org/1999/xlink" width="200" height="200"><path d="M616 441.984H136a8 8 0 0 1-8-8v-56c0-4.352 3.584-8 8-8h480c4.416 0 8 3.648 8 8v56a8 8 0 0 1-8 8z m8 204.032a8 8 0 0 1-8 8H136a8 8 0 0 1-8-8v-56c0-4.416 3.584-8 8-8h480c4.416 0 8 3.584 8 8v56zM120 160h784c4.416 0 8 3.584 8 8v56a8 8 0 0 1-8 8H120a8 8 0 0 1-8-8v-56c0-4.416 3.584-8 8-8z m0 632h784c4.416 0 8 3.584 8 8v56a8 8 0 0 1-8 8H120a8 8 0 0 1-8-8v-56c0-4.416 3.584-8 8-8z m788.608-273.088L752.32 641.984a8.896 8.896 0 0 1-14.4-6.912V388.928c0-7.424 8.448-11.52 14.4-6.912l156.288 123.072c4.48 3.52 4.48 10.304 0 13.824z" p-id="1117"></path></svg>