<?xml version="1.0" standalone="no"?><!DOCTYPE svg PUBLIC "-//W3C//DTD SVG 1.1//EN" "http://www.w3.org/Graphics/SVG/1.1/DTD/svg11.dtd"><svg t="1677638268805" class="icon" viewBox="0 0 1024 1024" version="1.1" xmlns="http://www.w3.org/2000/svg" p-id="3660" xmlns:xlink="http://www.w3.org/1999/xlink" width="200" height="200"><path d="M512 64c71.808 0 129.984 58.24 129.984 129.984v391.04a209.92 209.92 0 1 1-260.032 0v-391.04C382.016 122.24 440.256 64 512 64z m0 72c-32 0-57.984 25.984-57.984 57.984v57.152h50.496c4.416 0 8 3.584 8 8v40a8 8 0 0 1-8 8h-50.56v35.968h50.56c4.416 0 8 3.584 8 8v40a8 8 0 0 1-8 8h-50.56v220.928L426.624 641.6a137.984 137.984 0 1 0 170.752 0l-27.392-21.632v-425.92c0-32-25.92-57.984-57.984-57.984z m0 566.016a48 48 0 1 1 0 96 48 48 0 0 1 0-96z" p-id="3661"></path></svg>