<?xml version="1.0" standalone="no"?><!DOCTYPE svg PUBLIC "-//W3C//DTD SVG 1.1//EN" "http://www.w3.org/Graphics/SVG/1.1/DTD/svg11.dtd"><svg t="1658326524199" class="icon" viewBox="0 0 1024 1024" version="1.1" xmlns="http://www.w3.org/2000/svg" p-id="23008" xmlns:xlink="http://www.w3.org/1999/xlink" width="200" height="200"><defs><style type="text/css">@font-face { font-family: feedback-iconfont; src: url("//at.alicdn.com/t/font_1031158_u69w8yhxdu.woff2?t=1630033759944") format("woff2"), url("//at.alicdn.com/t/font_1031158_u69w8yhxdu.woff?t=1630033759944") format("woff"), url("//at.alicdn.com/t/font_1031158_u69w8yhxdu.ttf?t=1630033759944") format("truetype"); }
</style></defs><path d="M890.24 200.768a100.032 100.032 0 0 1-114.048 160.192l-116.096 112.128c10.688 25.344 10.88 54.784-1.408 81.024l112.128 116.096a100.032 100.032 0 1 1-51.84 49.984L607.04 604.16c-17.6 7.424-37.12 9.792-56.192 6.4l-62.464 104.064a100.032 100.032 0 1 1-61.76-37.12l62.528-104a99.84 99.84 0 0 1-14.976-27.072L272.64 543.552a100.032 100.032 0 1 1 1.28-72l201.344 2.816a100.736 100.736 0 0 1 16-26.496l-58.88-106.176a100.032 100.032 0 1 1 62.976-34.88l58.88 106.112c18.56-2.56 37.888 0 55.808 8.32l116.096-112a100.032 100.032 0 0 1 164.032-108.48z m-458.24 537.536a43.968 43.968 0 1 0-45.312 75.392 43.968 43.968 0 0 0 45.312-75.392zM180.8 461.952a43.968 43.968 0 1 0-1.536 87.936 43.968 43.968 0 0 0 1.536-87.936z m598.4 268.736a44.032 44.032 0 1 0 61.12 63.296 44.032 44.032 0 0 0-61.12-63.36zM590.656 474.24a44.032 44.032 0 1 0-45.312 75.392 44.032 44.032 0 0 0 45.312-75.392zM397.44 204.16a43.968 43.968 0 1 0 42.624 76.928 43.968 43.968 0 0 0-42.624-76.928z m390.4 34.432a44.032 44.032 0 1 0 61.12 63.36 44.032 44.032 0 0 0-61.12-63.36z" p-id="23009"></path></svg>