<?xml version="1.0" standalone="no"?><!DOCTYPE svg PUBLIC "-//W3C//DTD SVG 1.1//EN" "http://www.w3.org/Graphics/SVG/1.1/DTD/svg11.dtd"><svg t="1678023361914" class="icon" viewBox="0 0 1024 1024" version="1.1" xmlns="http://www.w3.org/2000/svg" p-id="1050" xmlns:xlink="http://www.w3.org/1999/xlink" width="200" height="200"><path d="M960 512a120 120 0 0 1-235.648 32h-152a139.904 139.904 0 0 1-42.88 72.256l43.2 78.912a120.064 120.064 0 1 1-56.256 30.72l-43.072-78.912a140.16 140.16 0 0 1-96.32-8L328.576 700.8a120 120 0 1 1-50.432-39.552l48.576-61.76c-19.2-24-30.72-54.4-30.72-87.488s11.52-63.488 30.72-87.488l-48.64-61.76a120 120 0 1 1 50.496-39.552l48.448 61.824a139.52 139.52 0 0 1 96.32-8l43.072-78.912a120.064 120.064 0 1 1 56.256 30.72l-43.136 78.976c20.928 18.816 36.16 43.84 42.752 72.128h152.064A120.064 120.064 0 0 1 960 512zM257.984 727.04a51.968 51.968 0 1 0-51.968 90.048 51.968 51.968 0 0 0 51.968-90.048z m19.072-501.12a51.968 51.968 0 1 0-90.112 52.032 51.968 51.968 0 0 0 90.112-52.032zM496 512.512a60.48 60.48 0 1 0-120.96 0 60.48 60.48 0 0 0 120.96 0z m149.056 273.536a51.968 51.968 0 1 0-90.112 52.032 51.968 51.968 0 0 0 90.112-52.032zM625.92 166.912a51.968 51.968 0 1 0-51.968 90.048 51.968 51.968 0 0 0 51.968-90.048zM891.968 512a51.968 51.968 0 1 0-104 0 51.968 51.968 0 0 0 104 0z" p-id="1051"></path></svg>