<?xml version="1.0" standalone="no"?><!DOCTYPE svg PUBLIC "-//W3C//DTD SVG 1.1//EN" "http://www.w3.org/Graphics/SVG/1.1/DTD/svg11.dtd"><svg t="1672996079654" class="icon" viewBox="0 0 1024 1024" version="1.1" xmlns="http://www.w3.org/2000/svg" p-id="3129" xmlns:xlink="http://www.w3.org/1999/xlink" width="200" height="200"><path d="M464 512a48 48 0 1 0 96 0 48 48 0 0 0-96 0z m200 0a48 48 0 1 0 96 0 48 48 0 0 0-96 0z m-400 0a48 48 0 1 0 96 0 48 48 0 0 0-96 0z m661.184-173.632A448.128 448.128 0 0 0 512 64h-1.984a446.976 446.976 0 0 0-446.08 450.112 449.472 449.472 0 0 0 48.064 199.872v152c0 25.408 20.608 46.016 46.016 46.016h152.064c61.632 31.104 130.56 47.68 199.936 48h2.112c59.84 0 117.952-11.584 172.672-34.304a444.48 444.48 0 0 0 142.784-95.168A447.04 447.04 0 0 0 960 514.048a446.4 446.4 0 0 0-34.816-175.68z m-151.04 438.016A370.048 370.048 0 0 1 512 883.968h-1.728a373.312 373.312 0 0 1-173.056-43.52l-8.384-4.48h-140.8v-140.8l-4.48-8.32a373.376 373.376 0 0 1-43.52-173.12 369.728 369.728 0 0 1 107.52-263.808 369.216 369.216 0 0 1 262.848-109.888h1.728a370.176 370.176 0 0 1 263.168 108.864 370.176 370.176 0 0 1 108.928 264.832 370.56 370.56 0 0 1-110.08 262.656z" p-id="3130"></path></svg>