<?xml version="1.0" standalone="no"?><!DOCTYPE svg PUBLIC "-//W3C//DTD SVG 1.1//EN" "http://www.w3.org/Graphics/SVG/1.1/DTD/svg11.dtd"><svg t="1720596010719" class="icon" viewBox="0 0 1024 1024" version="1.1" xmlns="http://www.w3.org/2000/svg" p-id="1051" xmlns:xlink="http://www.w3.org/1999/xlink" width="200" height="200"><path d="M752 240a32 32 0 0 1 32 32v608a32 32 0 0 1-32 32H144a32 32 0 0 1-32-32V272a32 32 0 0 1 32-32h608z m-40 72H184v528h528V312z m168-200a32 32 0 0 1 32 32v616a8 8 0 0 1-8 8h-56a8 8 0 0 1-8-8V184H264a8 8 0 0 1-8-8v-56c0-4.416 3.584-8 8-8h616zM486.912 456.832a8.064 8.064 0 0 1 8.448 0.896l141.632 112a8 8 0 0 1 0 12.544l-141.76 112A8 8 0 0 1 482.304 688v-74.112H264a8 8 0 0 1-8-8V545.92c0-4.416 3.584-8 8-8h218.304V464a8.256 8.256 0 0 1 4.608-7.168z" p-id="1052"></path></svg>