<?xml version="1.0" standalone="no"?><!DOCTYPE svg PUBLIC "-//W3C//DTD SVG 1.1//EN" "http://www.w3.org/Graphics/SVG/1.1/DTD/svg11.dtd"><svg t="1698661612766" class="icon" viewBox="0 0 1024 1024" version="1.1" xmlns="http://www.w3.org/2000/svg" p-id="915" xmlns:xlink="http://www.w3.org/1999/xlink" width="200" height="200"><path d="M832 64c17.673 0 32.004 14.327 32.004 32v444.347c-21.423-17.693-45.685-32.071-72-42.349L792 450H538l-0.004 82.484a265.55 265.55 0 0 0-52 51.512L486 450H232v174l228.788-0.003a262.192 262.192 0 0 0-19.947 52.002L232 676v212l242.698 0.005a265.45 265.45 0 0 0 69.481 72H168c-4.418 0-8-3.587-8-8.005V96c0-17.673 14.327-32 32-32h640zM696 528c119.294 0 216 96.706 216 216s-96.706 216-216 216-216-96.706-216-216 96.706-216 216-216z m0 64c-83.947 0-152 68.053-152 152s68.053 152 152 152 152-68.053 152-152-68.053-152-152-152z m15.936 52a8 8 0 0 1 8 8v67.936H788a8 8 0 0 1 8 8v32a8 8 0 0 1-8 8h-68.064V836a8 8 0 0 1-8 8h-32a8 8 0 0 1-8-8v-68.064H604a8 8 0 0 1-8-8v-32a8 8 0 0 1 8-8h67.936V652a8 8 0 0 1 8-8h32zM486 136H232v258h254V136z m306 0H538v258h254V136z" p-id="916"></path></svg>