<?xml version="1.0" standalone="no"?><!DOCTYPE svg PUBLIC "-//W3C//DTD SVG 1.1//EN" "http://www.w3.org/Graphics/SVG/1.1/DTD/svg11.dtd"><svg t="1677999492615" class="icon" viewBox="0 0 1024 1024" version="1.1" xmlns="http://www.w3.org/2000/svg" p-id="3511" xmlns:xlink="http://www.w3.org/1999/xlink" width="200" height="200"><path d="M832 64H192a32 32 0 0 0-32 32v856c0 4.416 3.584 8 8 8h688a8 8 0 0 0 8-8V96a32 32 0 0 0-32-32z m-600 80c0-4.416 3.584-8 8-8h238.016c4.416 0 8 3.584 8 8v249.984H232V144z m0 472V449.984h254.016V616a8 8 0 0 1-8 8H240a8 8 0 0 1-8-8z m8 60.032h544c4.416 0 8 3.52 8 7.936V880a8 8 0 0 1-8 8H240a8 8 0 0 1-8-8V683.968c0-4.416 3.584-7.936 8-7.936zM792 616a8 8 0 0 1-8 8H545.984a8 8 0 0 1-8-8V449.984H792V616zM584 736c4.416 0 8 3.584 8 8v36.032a8 8 0 0 1-8 7.936H440a8 8 0 0 1-8-7.936V744c0-4.416 3.584-8 8-8h144z m200-600c4.416 0 8 3.584 8 8v249.984H537.984V144c0-4.416 3.584-8 8-8H784z" p-id="3512"></path></svg>