<?xml version="1.0" standalone="no"?><!DOCTYPE svg PUBLIC "-//W3C//DTD SVG 1.1//EN" "http://www.w3.org/Graphics/SVG/1.1/DTD/svg11.dtd"><svg t="1656324773324" class="icon" viewBox="0 0 1024 1024" version="1.1" xmlns="http://www.w3.org/2000/svg" p-id="22834" xmlns:xlink="http://www.w3.org/1999/xlink" width="200" height="200"><defs><style type="text/css">@font-face { font-family: feedback-iconfont; src: url("//at.alicdn.com/t/font_1031158_u69w8yhxdu.woff2?t=1630033759944") format("woff2"), url("//at.alicdn.com/t/font_1031158_u69w8yhxdu.woff?t=1630033759944") format("woff"), url("//at.alicdn.com/t/font_1031158_u69w8yhxdu.ttf?t=1630033759944") format("truetype"); }
</style></defs><path d="M748 64H276a64 64 0 0 0-64 64v768a64 64 0 0 0 64 64h472a64 64 0 0 0 64-64V128a64 64 0 0 0-64-64z m-8 72v584H284V136zM284 888V776h456v112z" fill="#555555" p-id="22835"></path><path d="M512 832m-40 0a40 40 0 1 0 80 0 40 40 0 1 0-80 0Z" fill="#555555" p-id="22836"></path></svg>