<?xml version="1.0" standalone="no"?><!DOCTYPE svg PUBLIC "-//W3C//DTD SVG 1.1//EN" "http://www.w3.org/Graphics/SVG/1.1/DTD/svg11.dtd"><svg t="1657266900101" class="icon" viewBox="0 0 1024 1024" version="1.1" xmlns="http://www.w3.org/2000/svg" p-id="2253" xmlns:xlink="http://www.w3.org/1999/xlink" width="200" height="200"><defs><style type="text/css">@font-face { font-family: feedback-iconfont; src: url("//at.alicdn.com/t/font_1031158_u69w8yhxdu.woff2?t=1630033759944") format("woff2"), url("//at.alicdn.com/t/font_1031158_u69w8yhxdu.woff?t=1630033759944") format("woff"), url("//at.alicdn.com/t/font_1031158_u69w8yhxdu.ttf?t=1630033759944") format("truetype"); }
</style></defs><path d="M608.512 547.0208l-64.7936 162.7648 86.9632-0.5888L430.336 947.2l69.4272-198.1696-106.4192-0.5376 76.544-201.472h138.624z m141.6192 162.7904c15.8208 4.3008 25.216 20.736 20.992 36.7616l-25.6 96.64c-2.7648 10.368-10.752 18.432-20.992 21.248a29.44 29.44 0 0 1-28.672-7.7824 30.2592 30.2592 0 0 1-7.68-29.0048l25.6-96.64a29.6448 29.6448 0 0 1 36.352-21.1968v-0.0256z m-435.2512 0c15.8208 4.3008 25.1904 20.736 20.9664 36.7616l-25.6 96.64c-2.7136 10.368-10.7264 18.432-20.9664 21.248a29.44 29.44 0 0 1-28.672-7.7824 30.2592 30.2592 0 0 1-7.68-29.0048l25.6-96.64a29.6448 29.6448 0 0 1 36.352-21.1968v-0.0256zM512 76.8c91.8016 0 171.5456 60.6976 198.3232 147.3792l0.768 2.688h22.272c109.568 0 203.1104 82.688 212.9408 190.5664l0.4352 5.6064c7.7056 119.808-84.4032 220.8256-201.6256 223.9488l-5.632 0.0768h-68.6592a29.824 29.824 0 0 1-29.6448-28.5696 29.9008 29.9008 0 0 1 26.7776-31.3088l2.8672-0.1536h68.6592c85.6576 0 153.6512-73.0624 148.0704-160.1024-4.9152-76.7488-70.5536-137.472-149.12-139.9552l-5.0688-0.0768h-29.824A49.1008 49.1008 0 0 1 655.872 249.856C639.0528 183.3984 579.84 136.9088 512 136.8832c-67.84 0-127.0528 46.464-143.872 112.9472a48.9984 48.9984 0 0 1-44.2368 36.9408l-3.5072 0.128h-35.8912c-85.632 0-153.6 73.0624-148.0448 160.1024 4.9152 76.7488 70.5536 137.472 149.12 139.9552l5.0176 0.0768h64.3328c15.8464 0 28.8768 12.5696 29.6192 28.5696 0.768 16-11.008 29.7728-26.752 31.3088l-2.8928 0.1536h-64.3072c-111.4624 0-206.3104-85.5552-213.3504-196.1728-7.7056-119.7824 84.4032-220.8256 201.6256-223.9488l5.632-0.0768h28.416l0.768-2.688C340.224 138.496 417.5872 79.36 506.2912 76.8768L512 76.8z" p-id="2254"></path></svg>