<?xml version="1.0" standalone="no"?><!DOCTYPE svg PUBLIC "-//W3C//DTD SVG 1.1//EN" "http://www.w3.org/Graphics/SVG/1.1/DTD/svg11.dtd"><svg t="1655108052440" class="icon" viewBox="0 0 1024 1024" version="1.1" xmlns="http://www.w3.org/2000/svg" p-id="60839" xmlns:xlink="http://www.w3.org/1999/xlink" width="200" height="200"><defs><style type="text/css">@font-face { font-family: feedback-iconfont; src: url("//at.alicdn.com/t/font_1031158_u69w8yhxdu.woff2?t=1630033759944") format("woff2"), url("//at.alicdn.com/t/font_1031158_u69w8yhxdu.woff?t=1630033759944") format("woff"), url("//at.alicdn.com/t/font_1031158_u69w8yhxdu.ttf?t=1630033759944") format("truetype"); }
</style></defs><path d="M415 500c97.754 0 177 79.246 177 177s-79.246 177-177 177-177-79.246-177-177 79.246-177 177-177z m0 81c-53.02 0-96 42.98-96 96s42.98 96 96 96 96-42.98 96-96-42.98-96-96-96zM804 457c59.647 0 108 48.353 108 108s-48.353 108-108 108-108-48.353-108-108 48.353-108 108-108z m0 62c-25.405 0-46 20.595-46 46s20.595 46 46 46 46-20.595 46-46-20.595-46-46-46zM650 174c59.647 0 108 48.353 108 108s-48.353 108-108 108-108-48.353-108-108 48.353-108 108-108z m0 62c-25.405 0-46 20.595-46 46s20.595 46 46 46 46-20.595 46-46-20.595-46-46-46zM194 336c45.287 0 82 36.713 82 82s-36.713 82-82 82-82-36.713-82-82 36.713-82 82-82z m0.5 48c-19.054 0-34.5 15.446-34.5 34.5 0 19.054 15.446 34.5 34.5 34.5 19.054 0 34.5-15.446 34.5-34.5 0-19.054-15.446-34.5-34.5-34.5z" p-id="60840"></path><path d="M577.19 346.3l60.62 35-103 178.4-60.62-35zM659.543 372.497l61.223-33.936 73.691 132.942-61.223 33.936zM196.31 477.367l55.904-42.127 91.476 121.393-55.904 42.127z" p-id="60841"></path></svg>