<?xml version="1.0" standalone="no"?><!DOCTYPE svg PUBLIC "-//W3C//DTD SVG 1.1//EN" "http://www.w3.org/Graphics/SVG/1.1/DTD/svg11.dtd"><svg t="1678348149114" class="icon" viewBox="0 0 1024 1024" version="1.1" xmlns="http://www.w3.org/2000/svg" p-id="1437" xmlns:xlink="http://www.w3.org/1999/xlink" width="200" height="200"><path d="M640 160a120 120 0 0 1 92.992 195.84l74.176 112.704A120.064 120.064 0 0 1 960 584a120 120 0 1 1-212.992-75.84l-74.176-112.704a120.064 120.064 0 0 1-54.464 2.56L520.64 583.04a160 160 0 1 1-235.456 28.8l-87.36-97.664a100.032 100.032 0 1 1 54.4-47.104l86.72 96.768a159.296 159.296 0 0 1 118.144-14.464l97.664-184.96A120 120 0 0 1 640 160zM416 616a88 88 0 1 0 0 176 88 88 0 0 0 0-176z m424-88a56 56 0 1 0 0 112 56 56 0 0 0 0-112zM163.968 368a51.968 51.968 0 1 0 0 104 51.968 51.968 0 0 0 0-104zM640 224a56 56 0 1 0 0 112 56 56 0 0 0 0-112z" p-id="1438"></path></svg>