<?xml version="1.0" encoding="UTF-8"?>
<svg width="1024px" height="1024px" viewBox="0 0 1024 1024" version="1.1" xmlns="http://www.w3.org/2000/svg" xmlns:xlink="http://www.w3.org/1999/xlink">
    <title>实时经济观察_线性</title>
    <g id="页面1" stroke="none" stroke-width="1" fill="none" fill-rule="evenodd">
        <g id="实时经济观察_线性" fill="#000000" fill-rule="nonzero">
            <path d="M496,88 C721.309257,88 904,270.690743 904,496 C904,589.912974 872.2598,676.421522 818.92299,745.382053 L937.161472,863.622366 C943.40986,869.870755 943.40986,880.001395 937.161472,886.249783 L886.249783,937.161472 C880.001395,943.40986 869.870755,943.40986 863.622366,937.161472 L745.382053,818.92299 C676.421522,872.2598 589.912974,904 496,904 C270.690743,904 88,721.309257 88,496 C88,270.690743 270.690743,88 496,88 Z M496,164 C312.666606,164 164,312.65899 164,496 C164,679.333394 312.65899,828 496,828 C679.333394,828 828,679.34101 828,496 C828,312.666606 679.34101,164 496,164 Z M395.392,296.533333 C399.873625,296.533333 404.013715,298.891562 406.20081,302.750691 L406.510933,303.317333 L496.494933,481.442133 L586.845867,303.317333 C588.861732,299.247037 592.971493,296.633229 597.512533,296.533333 L653.3888,296.533333 C657.670622,296.541149 661.64407,298.762164 663.893882,302.405295 C666.143693,306.048426 666.350056,310.5958 664.439467,314.427733 L664.2432,314.8032 L555.989333,513.655467 L612.394667,513.655467 C619.093334,513.655467 624.580267,519.048534 624.7424,525.696 L624.7424,552.285867 C624.7424,558.984534 619.357867,564.471467 612.7104,564.6336 L534.144,564.6336 L534.144,601.301333 L612.394667,601.301333 C619.093334,601.301333 624.580267,606.685866 624.7424,613.333333 L624.7424,639.931733 C624.7424,646.621866 619.357867,652.1088 612.7104,652.270933 L534.144,652.270933 L534.144,716.219733 C534.144,722.909866 528.750933,728.3968 522.103467,728.558933 L470.818133,728.558933 C464.130721,728.538558 458.667865,723.211706 458.478933,716.526933 L458.478933,652.279467 L380.586667,652.279467 C373.896035,652.258953 368.431878,646.927054 368.247467,640.238933 L368.247467,613.649067 C368.247467,606.9504 373.632,601.463467 380.279467,601.301333 L458.478933,601.301333 L458.478933,564.6336 L380.586667,564.6336 C373.899255,564.613225 368.436399,559.286373 368.247467,552.6016 L368.247467,526.0032 C368.247467,519.313067 373.632,513.826133 380.279467,513.664 L436.3776,513.664 L327.748267,314.8032 C324.523894,308.794195 326.729745,301.309514 332.6976,298.0096 C334.421333,297.088 336.256,296.6016 338.2016,296.541867 L338.619733,296.533333 L395.392,296.533333 Z" id="形状"></path>
        </g>
    </g>
</svg>