<?xml version="1.0" standalone="no"?><!DOCTYPE svg PUBLIC "-//W3C//DTD SVG 1.1//EN" "http://www.w3.org/Graphics/SVG/1.1/DTD/svg11.dtd"><svg t="1678006158772" class="icon" viewBox="0 0 1024 1024" version="1.1" xmlns="http://www.w3.org/2000/svg" p-id="3712" xmlns:xlink="http://www.w3.org/1999/xlink" width="200" height="200"><path d="M921.216 610.88a371.712 371.712 0 0 1-448.064-60.096 372.288 372.288 0 0 1-59.52-448.128 16 16 0 0 0-18.176-23.36 448.128 448.128 0 1 0 549.12 549.696 16 16 0 0 0-23.36-18.112zM512 884.032a371.968 371.968 0 0 1-216.96-674.304 448 448 0 0 0 518.912 519.488A371.52 371.52 0 0 1 512 883.968z" p-id="3713"></path></svg>