<?xml version="1.0" standalone="no"?><!DOCTYPE svg PUBLIC "-//W3C//DTD SVG 1.1//EN" "http://www.w3.org/Graphics/SVG/1.1/DTD/svg11.dtd"><svg t="1694413930760" class="icon" viewBox="0 0 1024 1024" version="1.1" xmlns="http://www.w3.org/2000/svg" p-id="1934" xmlns:xlink="http://www.w3.org/1999/xlink" width="200" height="200"><path d="M880 112a32 32 0 0 1 32 32v736a32 32 0 0 1-32 32H144a32 32 0 0 1-32-32V144a32 32 0 0 1 32-32h736z m-40 72H184v656h656V184zM392 624c4.416 0 8 3.584 8 8v128a8 8 0 0 1-8 8H264a8 8 0 0 1-8-8V632c0-4.416 3.584-8 8-8h128z m368 0c4.416 0 8 3.584 8 8v128a8 8 0 0 1-8 8H632a8 8 0 0 1-8-8V632c0-4.416 3.584-8 8-8h128zM576 440c4.416 0 8 3.584 8 8v128a8 8 0 0 1-8 8H448a8 8 0 0 1-8-8V448c0-4.416 3.584-8 8-8h128zM392 256c4.416 0 8 3.584 8 8v128a8 8 0 0 1-8 8H264a8 8 0 0 1-8-8V264c0-4.416 3.584-8 8-8h128z m368 0c4.416 0 8 3.584 8 8v128a8 8 0 0 1-8 8H632a8 8 0 0 1-8-8V264c0-4.416 3.584-8 8-8h128z" p-id="1935"></path></svg>