<?xml version="1.0" standalone="no"?><!DOCTYPE svg PUBLIC "-//W3C//DTD SVG 1.1//EN" "http://www.w3.org/Graphics/SVG/1.1/DTD/svg11.dtd"><svg t="1702464683547" class="icon" viewBox="0 0 1024 1024" version="1.1" xmlns="http://www.w3.org/2000/svg" p-id="1744" xmlns:xlink="http://www.w3.org/1999/xlink" width="200" height="200"><path d="M529.472 520.704h0.256l354.624 47.36a8 8 0 0 1 4.8 13.376l-83.136 83.136 124.416 124.48a8 8 0 0 1 0.192 11.072L800.32 930.432a8 8 0 0 1-11.072 0.192L664.576 806.016l-82.944 82.944a8 8 0 0 1-13.568-4.352v-0.256l-47.36-354.56a8 8 0 0 1 0-2.176h0.064a8 8 0 0 1 8.704-6.912zM192.256 622.976v0.256L193.28 640a112 112 0 1 1-70.72 24.128l-2.24-39.104a8 8 0 0 1 7.68-8.448h0.256l56-0.896a8 8 0 0 1 8.064 7.04v0.256z m401.664-29.12v0.064l22.656 169.6 48.064-48 130.112 130.048 50.88-50.88L715.52 664.576l48.128-48.064-169.728-22.656zM192 704a48 48 0 1 0 0 96 48 48 0 0 0 0-96z m-55.232-212.032h0.256l55.232 9.28c4.096 0.704 6.912 4.416 6.656 8.512v0.256l-5.568 52.352a8 8 0 0 1-8.064 7.168h-0.32l-55.936-2.752a8 8 0 0 1-7.616-8.576v-0.256l6.272-58.88a8 8 0 0 1 8.768-7.104h0.256z m36.288-121.472l0.256 0.128 51.008 23.04a8 8 0 0 1 4.288 9.664v0.256l-17.152 48.384a8 8 0 0 1-9.344 5.12l-0.256-0.064-54.016-14.336a8 8 0 0 1-5.568-10.24v-0.192l20.224-57.024a8 8 0 0 1 10.368-4.8l0.192 0.064z m70.4-107.136l0.256 0.192 41.216 37.76a8 8 0 0 1 1.152 10.496l-0.128 0.192-30.272 40.32a8 8 0 0 1-10.368 2.176l-0.192-0.128-47.808-29.12a8 8 0 0 1-2.368-11.392l0.256-0.256 36.736-48.96a8 8 0 0 1 11.584-1.28zM792 112a112 112 0 1 1-111.168 125.824l-37.696-8.512a8 8 0 0 1-6.144-9.024v-0.256l10.368-55.04v-0.32a8 8 0 0 1 9.408-6.08l0.192 0.064 38.4 8.704A112 112 0 0 1 792 112z m-444.032 73.984l0.128 0.256 23.296 50.752a8 8 0 0 1-2.816 9.984l-0.256 0.128-41.088 25.728a8 8 0 0 1-10.24-1.536l-0.192-0.192-35.52-43.136a8 8 0 0 1 1.728-11.712l0.256-0.128 53.312-33.28a8 8 0 0 1 11.264 2.944l0.128 0.192z m124.8-31.936v0.256l4.928 55.68a8 8 0 0 1-6.336 8.576h-0.256l-49.792 8.96a8 8 0 0 1-9.024-5.44l-0.064-0.256-15.232-53.76a8 8 0 0 1 6.016-10.048l0.256-0.064 60.16-10.816a8 8 0 0 1 9.28 6.656v0.256z m58.88-9.792h0.32l59.008 4.16a8 8 0 0 1 7.36 8.768v0.256l-7.04 55.488a8 8 0 0 1-8.192 7.04h-0.256l-52.608-3.776a8 8 0 0 1-7.424-7.808v-0.256l0.576-55.936a8 8 0 0 1 8.064-7.936h0.256z" p-id="1745"></path></svg>