<?xml version="1.0" standalone="no"?><!DOCTYPE svg PUBLIC "-//W3C//DTD SVG 1.1//EN" "http://www.w3.org/Graphics/SVG/1.1/DTD/svg11.dtd"><svg t="1677671916352" class="icon" viewBox="0 0 1024 1024" version="1.1" xmlns="http://www.w3.org/2000/svg" p-id="3880" xmlns:xlink="http://www.w3.org/1999/xlink" width="200" height="200"><path d="M784 411.648V927.36a32 32 0 0 1-46.272 28.608l-0.448-0.192-327.488-169.92 53.376-53.44L712 861.504V483.648l72-72zM752 64.64a32 32 0 0 1 32 31.488v140.16l85.504-85.504a8 8 0 0 1 11.264 0l42.432 42.432a8 8 0 0 1 0 11.328L222.528 905.216a8 8 0 0 1-11.328 0l-42.432-42.432a8 8 0 0 1 0-11.328L260.288 760H192a32 32 0 0 1-32-31.488V296a32 32 0 0 1 31.488-32H360L737.28 68.224A32 32 0 0 1 752 64.64z m-40 243.648V162.496L377.536 336H232v352h100.288L712 308.288z" p-id="3881"></path></svg>