<?xml version="1.0" standalone="no"?><!DOCTYPE svg PUBLIC "-//W3C//DTD SVG 1.1//EN" "http://www.w3.org/Graphics/SVG/1.1/DTD/svg11.dtd"><svg t="1653044685114" class="icon" viewBox="0 0 1024 1024" version="1.1" xmlns="http://www.w3.org/2000/svg" p-id="26817" xmlns:xlink="http://www.w3.org/1999/xlink" width="200" height="200"><defs><style type="text/css">@font-face { font-family: feedback-iconfont; src: url("//at.alicdn.com/t/font_1031158_u69w8yhxdu.woff2?t=1630033759944") format("woff2"), url("//at.alicdn.com/t/font_1031158_u69w8yhxdu.woff?t=1630033759944") format("woff"), url("//at.alicdn.com/t/font_1031158_u69w8yhxdu.ttf?t=1630033759944") format("truetype"); }
</style></defs><path d="M571 64.5a31.72 31.72 0 0 0-17.33 5.19L255.7 262.5H96a32 32 0 0 0-32 32V730a32 32 0 0 0 32 32h159.69l298 192.81A31.72 31.72 0 0 0 571 960a32.09 32.09 0 0 0 32.13-32.1V96.6A32.09 32.09 0 0 0 571 64.5z m-39.87 790L294.81 701.55 277 690H136V334.5h141l17.81-11.5 236.32-153zM861.49 512l96.17-96.17a8 8 0 0 0 0-11.31l-39.6-39.6a8 8 0 0 0-11.31 0l-96.17 96.17-96.17-96.17a8 8 0 0 0-11.31 0l-39.6 39.6a8 8 0 0 0 0 11.31L759.67 512l-96.17 96.17a8 8 0 0 0 0 11.31l39.6 39.6a8 8 0 0 0 11.31 0l96.17-96.17 96.17 96.17a8 8 0 0 0 11.31 0l39.6-39.6a8 8 0 0 0 0-11.31z" p-id="26818"></path></svg>