<?xml version="1.0" standalone="no"?><!DOCTYPE svg PUBLIC "-//W3C//DTD SVG 1.1//EN" "http://www.w3.org/Graphics/SVG/1.1/DTD/svg11.dtd"><svg t="1649145592067" class="icon" viewBox="0 0 1024 1024" version="1.1" xmlns="http://www.w3.org/2000/svg" p-id="40248" xmlns:xlink="http://www.w3.org/1999/xlink" width="200" height="200"><defs><style type="text/css">@font-face { font-family: feedback-iconfont; src: url("//at.alicdn.com/t/font_1031158_u69w8yhxdu.woff2?t=1630033759944") format("woff2"), url("//at.alicdn.com/t/font_1031158_u69w8yhxdu.woff?t=1630033759944") format("woff"), url("//at.alicdn.com/t/font_1031158_u69w8yhxdu.ttf?t=1630033759944") format("truetype"); }
</style></defs><path d="M539.776 98.304a32 32 0 0 0-35.072 7.808l-228.48 242.88H125.952a32 32 0 0 0-32 32v268.096a32 32 0 0 0 32 32h150.144l228.48 242.944a32 32 0 0 0 55.36-22.016V128a32 32 0 0 0-20.224-29.696zM496 821.312L313.28 627.2a32 32 0 0 0-23.296-10.048H158.08V412.992H289.92a32 32 0 0 0 23.296-10.048L496 208.768v612.544z m352.64-297.472l97.344-97.408a32 32 0 0 0-45.248-45.248l-97.344 97.344-97.408-97.344a32 32 0 0 0-45.248 45.248l97.408 97.408-97.408 97.28a32 32 0 0 0 45.248 45.312l97.408-97.344 97.344 97.344a32 32 0 0 0 45.248-45.248L848.64 523.84z" p-id="40249"></path></svg>