<?xml version="1.0" standalone="no"?><!DOCTYPE svg PUBLIC "-//W3C//DTD SVG 1.1//EN" "http://www.w3.org/Graphics/SVG/1.1/DTD/svg11.dtd"><svg t="1677638211131" class="icon" viewBox="0 0 1024 1024" version="1.1" xmlns="http://www.w3.org/2000/svg" p-id="3504" xmlns:xlink="http://www.w3.org/1999/xlink" width="200" height="200"><path d="M331.968 567.104v77.312a599.552 599.552 0 0 0-108.416 30.848l-2.048 0.832a403.968 403.968 0 0 0-4.032 1.664l-1.92 0.832-2.048 0.832-0.96 0.448-1.92 0.832-1.92 0.832-1.92 0.896-1.792 0.832-1.856 0.832-1.792 0.896a324.8 324.8 0 0 0-2.688 1.28l-1.792 0.896-0.896 0.448-1.728 0.832-1.664 0.896-1.728 0.896a279.296 279.296 0 0 0-2.432 1.28l-1.664 0.896-0.768 0.448-1.6 0.896-0.768 0.448-1.6 0.896a242.56 242.56 0 0 0-0.768 0.448l-1.472 0.896a228.928 228.928 0 0 0-2.24 1.28l-1.472 0.96-1.472 0.896-1.408 0.896-1.344 0.896-2.048 1.28-1.28 0.96a135.68 135.68 0 0 0-16.96 13.44l-0.896 0.896a50.688 50.688 0 0 0-10.56 13.888v0.128l0.064 0.32 0.128 0.384 0.192 0.448 0.128 0.256 0.192 0.384a50.688 50.688 0 0 0 9.856 12.288l0.896 0.896c4.672 4.48 10.304 8.96 16.896 13.44l1.28 0.896 2.112 1.344 1.344 0.896 1.408 0.896 1.472 0.896 1.472 0.896 2.24 1.344 1.472 0.896 0.768 0.448 1.6 0.896 0.768 0.448 1.6 0.896 0.768 0.448 1.664 0.832 2.432 1.344 1.728 0.896 1.664 0.896 1.728 0.832 0.896 0.448 1.792 0.896 1.728 0.832 1.856 0.896 0.896 0.448 1.856 0.832 1.856 0.832 1.92 0.896 1.92 0.832 1.92 0.832 0.896 0.448 1.984 0.832 1.984 0.832 3.008 1.28 2.048 0.832 1.024 0.384c73.856 29.696 177.216 47.296 288.448 47.296 111.232 0 214.592-17.6 288.448-47.296l2.048-0.832 4.032-1.664 1.92-0.832 2.048-0.832 0.96-0.448 1.92-0.832 1.92-0.832 1.92-0.896 1.792-0.832 1.856-0.832 1.792-0.896 2.688-1.28 1.792-0.896 0.896-0.448 1.728-0.832a296.32 296.32 0 0 0 1.664-0.896l1.728-0.896 2.432-1.28 1.664-0.896 0.768-0.448 1.6-0.896 0.768-0.448 1.6-0.896 0.768-0.448 1.472-0.896 2.24-1.28 1.472-0.96 1.472-0.896 1.408-0.896 1.344-0.896 2.048-1.28 1.28-0.96c6.656-4.48 12.288-8.96 16.96-13.44l0.896-0.896a50.688 50.688 0 0 0 10.56-13.888v-0.128a11.52 11.52 0 0 0-0.64-1.6l-0.064-0.192a50.688 50.688 0 0 0-9.856-12.288l-0.896-0.896a135.68 135.68 0 0 0-16.896-13.44l-1.28-0.896a191.744 191.744 0 0 0-2.112-1.344l-1.344-0.896a206.4 206.4 0 0 0-1.408-0.896l-1.472-0.896-1.472-0.896a228.928 228.928 0 0 0-2.24-1.344l-1.472-0.896-0.768-0.448-1.6-0.896-0.768-0.448-1.6-0.896-0.768-0.448-1.664-0.832a279.36 279.36 0 0 0-2.432-1.344l-1.728-0.896a296.32 296.32 0 0 0-1.664-0.896l-1.728-0.832-0.896-0.448-1.792-0.896a322.56 322.56 0 0 0-1.728-0.832l-1.856-0.896a336.512 336.512 0 0 0-0.896-0.448l-1.856-0.832a350.08 350.08 0 0 0-1.856-0.832l-1.92-0.896-1.92-0.832-1.92-0.832-0.896-0.448-1.984-0.832-1.984-0.832a402.048 402.048 0 0 0-3.008-1.28l-2.56-1.024-0.512-0.192a599.552 599.552 0 0 0-108.416-30.848V567.04C849.792 594.944 960 658.304 960 731.968 960 831.424 759.424 912 512 912S64 831.36 64 731.968c0-73.6 110.208-136.96 267.968-164.864z m333.12-253.12a6.4 6.4 0 0 1 5.888 4.48l0.512 1.728 1.664 5.696 1.024 3.712c15.68 56.064 17.472 81.216 14.848 104.832l-0.192 1.536-0.128 0.768c-5.12 41.28-46.912 105.664-122.24 192.32-41.152 46.528-47.616 82.368-48.704 100.224l-0.064 1.216v0.576l-0.128 1.088v1.6l-0.064 1.472v1.92a5.12 5.12 0 0 1-4.928 4.864h-0.192a5.12 5.12 0 0 1-3.84-1.728l-0.192-0.192-0.768-0.896-0.32-0.384-0.32-0.384-0.384-0.512-0.192-0.256-0.256-0.384-0.064-0.128-0.064-0.128-0.064-0.128c-15.68-33.28-20.928-63.616-15.616-90.944 7.872-55.296 39.104-114.368 93.696-177.28 49.472-56.896 72.576-93.824 74.56-146.88v-1.856a6.336 6.336 0 0 1 6.336-5.952h0.192z m-71.68-112.96a6.4 6.4 0 0 1 5.888 4.48l0.512 1.664 1.664 5.76 1.024 3.648c15.68 56.064 17.472 81.28 14.848 104.832l-0.192 1.536-0.128 0.768c-5.12 41.28-46.912 105.728-122.24 192.32-41.152 46.528-47.616 82.368-48.704 100.224l-0.128 1.28v1.664l-0.064 0.512v1.088l-0.064 1.472v1.984a5.12 5.12 0 0 1-4.928 4.8h-0.192a5.12 5.12 0 0 1-3.84-1.664l-0.256-0.192-0.704-0.96-0.64-0.768-0.384-0.448-0.192-0.32-0.256-0.32-0.128-0.192V624l-0.064-0.064c-15.68-33.28-20.928-63.616-15.68-91.008 7.872-54.72 38.592-113.152 92.16-175.36l1.6-1.856c49.472-56.96 72.576-93.888 74.56-146.944v-1.856a6.336 6.336 0 0 1 6.336-5.888h0.192zM511.808 88a6.4 6.4 0 0 1 5.888 4.48l0.512 1.664 1.6 5.76 1.088 3.648c15.68 56.064 17.408 81.28 14.784 104.896l-0.128 1.536-0.128 0.768c-5.12 41.28-46.976 105.6-122.24 192.256-41.152 46.528-47.616 82.432-48.768 100.224v1.28l-0.064 0.576v1.088l-0.064 0.576v1.024l-0.064 1.408v1.984a5.12 5.12 0 0 1-4.928 4.8h-0.192a5.12 5.12 0 0 1-3.904-1.664l-0.192-0.192-0.704-0.896-0.64-0.832-0.384-0.384-0.256-0.384-0.192-0.256-0.128-0.192a2.112 2.112 0 0 1-0.128-0.192c-15.616-33.28-20.864-63.616-15.616-91.008 7.872-54.656 38.528-113.152 92.16-175.36l1.6-1.856c49.408-56.896 72.576-93.824 74.56-146.944v-1.856a6.336 6.336 0 0 1 6.336-5.888h0.192z" p-id="3505"></path></svg>