<?xml version="1.0" standalone="no"?><!DOCTYPE svg PUBLIC "-//W3C//DTD SVG 1.1//EN" "http://www.w3.org/Graphics/SVG/1.1/DTD/svg11.dtd"><svg t="1725356193693" class="icon" viewBox="0 0 1024 1024" version="1.1" xmlns="http://www.w3.org/2000/svg" p-id="1270" xmlns:xlink="http://www.w3.org/1999/xlink" width="200" height="200"><path d="M257.984 210.944v602.048c0 18.112 20.992 28.16 35.2 16.96L676.416 528.96a21.504 21.504 0 0 0 0-33.92L293.12 194.048a21.76 21.76 0 0 0-35.2 16.896z m76.096 111.808L574.976 512l-240.96 189.248V322.752zM694.08 864h64a8 8 0 0 0 8-8V168a8 8 0 0 0-8-8h-64a8 8 0 0 0-8 8v688c0 4.416 3.584 8 8 8z" p-id="1271"></path></svg>