<?xml version="1.0" standalone="no"?><!DOCTYPE svg PUBLIC "-//W3C//DTD SVG 1.1//EN" "http://www.w3.org/Graphics/SVG/1.1/DTD/svg11.dtd"><svg t="1648460571957" class="icon" viewBox="0 0 1024 1024" version="1.1" xmlns="http://www.w3.org/2000/svg" p-id="105631" xmlns:xlink="http://www.w3.org/1999/xlink" width="200" height="200"><defs><style type="text/css">@font-face { font-family: feedback-iconfont; src: url("//at.alicdn.com/t/font_1031158_u69w8yhxdu.woff2?t=1630033759944") format("woff2"), url("//at.alicdn.com/t/font_1031158_u69w8yhxdu.woff?t=1630033759944") format("woff"), url("//at.alicdn.com/t/font_1031158_u69w8yhxdu.ttf?t=1630033759944") format("truetype"); }
</style></defs><path d="M693 120v356H501.36V120a8 8 0 0 0-8-8h-56a8 8 0 0 0-8 8v784a8 8 0 0 0 8 8h56a8 8 0 0 0 8-8V548H693v356a8 8 0 0 0 8 8h56a8 8 0 0 0 8-8V120a8 8 0 0 0-8-8h-56a8 8 0 0 0-8 8zM64 112h72v800H64z" p-id="105632"></path><path d="M391.66 912h-64L72 112h64l255.66 800z" p-id="105633"></path><path d="M327.66 112h72v800h-72zM960 634c0-47-37.54-86-84.54-86.47a85.51 85.51 0 0 0-85.79 76.63 8 8 0 0 0 8 8.75h40.43a8 8 0 0 0 7.82-6.36 29.44 29.44 0 0 1 29.58-23c16 0.48 28.5 14 28.5 30v30.27a29.39 29.39 0 0 1-29.39 29.39h-16.52a8 8 0 0 0-8 8v40a8 8 0 0 0 8 8h16.52A29.38 29.38 0 0 1 904 778.58v48.36c0 16-12.51 29.53-28.5 30a29.44 29.44 0 0 1-29.58-23 8 8 0 0 0-7.82-6.37h-40.46a8 8 0 0 0-8 8.75A85.51 85.51 0 0 0 875.46 913c47-0.46 84.54-39.46 84.54-86.47v-47.9a85.06 85.06 0 0 0-22.21-57.38A85.1 85.1 0 0 0 960 663.81z" p-id="105634"></path></svg>