<?xml version="1.0" standalone="no"?><!DOCTYPE svg PUBLIC "-//W3C//DTD SVG 1.1//EN" "http://www.w3.org/Graphics/SVG/1.1/DTD/svg11.dtd"><svg t="1678331293777" class="icon" viewBox="0 0 1024 1024" version="1.1" xmlns="http://www.w3.org/2000/svg" p-id="2726" xmlns:xlink="http://www.w3.org/1999/xlink" width="200" height="200"><path d="M875.52 547.52c46.464 0.448 83.712 38.72 84.48 85.12v31.104c0 21.248-7.872 41.728-22.208 57.472A85.389 85.389 0 0 1 960 777.856v48.64c0 46.976-37.568 85.952-84.48 86.4a85.504 85.504 0 0 1-85.888-76.608 8 8 0 0 1 7.68-8.768h40.768c3.712 0 6.912 2.56 7.808 6.08v0.256a29.44 29.44 0 0 0 29.632 23.04A29.76 29.76 0 0 0 904 827.328v-48.832a29.44 29.44 0 0 0-28.864-29.376h-17.024a8 8 0 0 1-8-7.68v-40.32c0-4.288 3.456-7.808 7.68-8h16.832A29.44 29.44 0 0 0 904 664.256v-30.784a29.76 29.76 0 0 0-28.48-30.016 29.44 29.44 0 0 0-29.504 22.592l-0.128 0.448a8 8 0 0 1-7.552 6.4h-40.64a8 8 0 0 1-8-8.832c4.48-43.392 40.96-76.288 84.48-76.608h1.28zM493.312 112c4.288 0 7.872 3.456 8 7.744v356.288h191.616V120c0-4.352 3.456-7.872 7.744-8h56.32c4.288 0 7.808 3.456 7.936 7.744V904a8 8 0 0 1-7.744 8h-56.256a8 8 0 0 1-8-7.744V547.968H501.376V904a8 8 0 0 1-7.744 8h-56.32a8 8 0 0 1-7.936-7.744V120c0-4.352 3.456-7.872 7.68-8h56.32z m-355.584 5.568L327.68 711.68V120c0-4.416 3.584-8 8-8h56c4.416 0 8 3.584 8 8v784a8 8 0 0 1-8 8h-58.24a8 8 0 0 1-7.68-5.568L136.064 312.32v591.744A8 8 0 0 1 128 912H72a8 8 0 0 1-8-8V120c0-4.416 3.584-8 8-8h58.176c3.456 0 6.528 2.24 7.616 5.568z" p-id="2727"></path></svg>