<?xml version="1.0" encoding="UTF-8"?>
<svg width="16px" height="16px" viewBox="0 0 16 16" version="1.1" xmlns="http://www.w3.org/2000/svg" xmlns:xlink="http://www.w3.org/1999/xlink">
    <title>Line/夜景模式-自动</title>
    <g id="Line/夜景模式-自动" stroke="none" stroke-width="1" fill="none" fill-rule="evenodd">
        <rect id="矩形" fill="#000000" fill-rule="nonzero" opacity="0" x="0" y="0" width="16" height="16"></rect>
        <path d="M8.375,13.25 C8.444,13.25 8.5,13.306 8.5,13.375 L8.5,14.875 C8.5,14.9440356 8.44403559,15 8.375,15 L7.625,15 C7.55596441,15 7.5,14.9440356 7.5,14.875 L7.5,13.375 C7.5,13.306 7.556,13.25 7.625,13.25 L8.375,13.25 Z M12.065,11.41 C12.099,11.41 12.131,11.424 12.155,11.447 L13.215,12.507 C13.2388185,12.53049 13.2522276,12.562547 13.2522276,12.596 C13.2522276,12.629453 13.2388185,12.66151 13.215,12.685 L12.685,13.215 C12.6615489,13.2385104 12.6297068,13.2517234 12.5965,13.2517234 C12.5632932,13.2517234 12.5314511,13.2385104 12.508,13.215 L11.448,12.155 C11.4241815,12.13151 11.4107724,12.099453 11.4107724,12.066 C11.4107724,12.032547 11.4241815,12.00049 11.448,11.977 L11.978,11.447 C12.0014463,11.423877 12.0330698,11.4109401 12.066,11.411 L12.065,11.41 Z M3.935,11.41 C3.967,11.41 3.999,11.424 4.023,11.447 L4.553,11.977 C4.57651043,12.0004511 4.58972345,12.0322932 4.58972345,12.0655 C4.58972345,12.0987068 4.57651043,12.1305489 4.553,12.154 L3.493,13.214 C3.46951002,13.2378185 3.43745296,13.2512276 3.404,13.2512276 C3.37054704,13.2512276 3.33848998,13.2378185 3.315,13.214 L2.785,12.684 C2.7367,12.6352746 2.7367,12.5567254 2.785,12.508 L3.845,11.448 C3.86877089,11.4240166 3.90123385,11.4106707 3.935,11.411 L3.935,11.41 Z M9.083,3.955 L9.084,3.955 C11.0987313,4.49506371 12.4089229,6.43540925 12.157,8.506 L12.151,8.554 C12.0073426,9.64283368 11.439936,10.6310339 10.572,11.304 L10.552,11.32 L10.533,11.335 C9.66506789,11.9969285 8.57215022,12.2920593 7.489,12.157 L7.45,12.152 L7.441,12.151 C6.10089226,11.9707925 4.93024174,11.1546472 4.29767832,9.95956268 C3.6651149,8.76447816 3.64847559,7.33750971 4.253,6.128 L4.277,6.082 C4.56114609,5.52903188 4.96534012,5.04659573 5.46,4.67 C5.95162106,4.29421947 6.52071134,4.03256092 7.126,3.904 L7.138,3.901 C7.78152069,3.7653736 8.44799574,3.78387728 9.083,3.955 Z M7.402,5.06 L7.37,5.067 L7.352,5.071 C6.932,5.163 6.539,5.345 6.196,5.603 L6.18,5.616 C5.831,5.881 5.545,6.22 5.341,6.609 L5.326,6.639 L5.316,6.661 C4.8870354,7.52033197 4.89529591,8.53306932 5.33822099,9.38528962 C5.78114607,10.2375099 6.60521958,10.8262442 7.555,10.969 L7.608,10.976 L7.62,10.977 L7.638,10.98 C7.962,11.02 8.286,11.006 8.602,10.94 L8.645,10.932 C9.05721617,10.8416266 9.44546649,10.664748 9.78409288,10.4131484 L9.823,10.384 L9.83,10.379 L9.845,10.367 L9.858,10.357 C10.188,10.097 10.461,9.771 10.656,9.397 L10.666,9.379 C10.821,9.079 10.925,8.756 10.971,8.419 L10.976,8.381 L10.979,8.362 C11.1566331,6.89547973 10.240232,5.51790815 8.819,5.115 L8.776,5.103 C8.32759917,4.98185486 7.85709853,4.96713031 7.402,5.06 Z M8,5.75 L8,10.25 C6.75735931,10.25 5.75,9.24264069 5.75,8 C5.75,6.75735931 6.75735931,5.75 8,5.75 Z M14.875,7.5 C14.944,7.5 15,7.556 15,7.625 L15,8.375 C15,8.44403559 14.9440356,8.5 14.875,8.5 L13.375,8.5 C13.3059644,8.5 13.25,8.44403559 13.25,8.375 L13.25,7.625 C13.25,7.556 13.306,7.5 13.375,7.5 L14.875,7.5 Z M2.625,7.5 C2.694,7.5 2.75,7.556 2.75,7.625 L2.75,8.375 C2.75,8.44403559 2.69403559,8.5 2.625,8.5 L1.125,8.5 C1.05596441,8.5 1,8.44403559 1,8.375 L1,7.625 C1,7.556 1.056,7.5 1.125,7.5 L2.625,7.5 Z M12.596,2.74877243 C12.629453,2.74877243 12.66151,2.7621815 12.685,2.786 L12.685,2.785 L13.215,3.315 C13.2385104,3.33845107 13.2517234,3.37029318 13.2517234,3.4035 C13.2517234,3.43670682 13.2385104,3.46854893 13.215,3.492 L12.155,4.552 C12.13151,4.5758185 12.099453,4.58922757 12.066,4.58922757 C12.032547,4.58922757 12.00049,4.5758185 11.977,4.552 L11.447,4.022 C11.3987,3.97327463 11.3987,3.89472537 11.447,3.846 L12.507,2.786 C12.53049,2.7621815 12.562547,2.74877243 12.596,2.74877243 Z M3.404,2.748 C3.437,2.748 3.469,2.762 3.492,2.785 L4.552,3.845 C4.5758185,3.86848998 4.58922757,3.90054704 4.58922757,3.934 C4.58922757,3.96745296 4.5758185,3.99951002 4.552,4.023 L4.022,4.553 C3.97327463,4.6013 3.89472537,4.6013 3.846,4.553 L2.786,3.493 C2.7621815,3.46951002 2.74877243,3.43745296 2.74877243,3.404 C2.74877243,3.37054704 2.7621815,3.33848998 2.786,3.315 L3.316,2.785 C3.33811912,2.76268486 3.36778342,2.74956162 3.39905062,2.74812873 L3.404,2.748 Z M8.375,1 C8.444,1 8.5,1.056 8.5,1.125 L8.5,2.625 C8.5,2.69403559 8.44403559,2.75 8.375,2.75 L7.625,2.75 C7.55596441,2.75 7.5,2.69403559 7.5,2.625 L7.5,1.125 C7.5,1.056 7.556,1 7.625,1 L8.375,1 Z" id="形状" fill="#0A1B39"></path>
    </g>
</svg>