<?xml version="1.0" encoding="UTF-8"?>
<svg width="16px" height="16px" viewBox="0 0 16 16" version="1.1" xmlns="http://www.w3.org/2000/svg" xmlns:xlink="http://www.w3.org/1999/xlink">
    <title>Line/夜景模式-开</title>
    <g id="Line/夜景模式-开" stroke="none" stroke-width="1" fill="none" fill-rule="evenodd">
        <rect id="矩形" fill="#000000" fill-rule="nonzero" opacity="0" x="0" y="0" width="16" height="16"></rect>
        <path d="M10.074625,2.140125 C10.3226106,2.14036018 10.5640704,2.21259314 10.7703258,2.34647836 L10.915625,2.456125 C11.025625,2.560125 11.115625,2.688125 11.183625,2.839125 C11.253625,2.992125 11.288625,3.167125 11.290625,3.361125 L11.290625,5.773125 C11.290625,5.982125 11.254625,6.163125 11.182625,6.317125 C11.112625,6.469125 11.018625,6.595125 10.903625,6.697125 C10.5556288,6.99718105 10.0730181,7.08659585 9.640625,6.931125 C9.54716301,6.89759211 9.45864663,6.85214801 9.37720804,6.79606638 L9.244625,6.690125 C9.17046508,6.62554957 9.10553031,6.55141258 9.05143546,6.46982661 L8.966625,6.317125 C8.89308709,6.15026332 8.8565827,5.96944722 8.859625,5.787125 L8.859625,3.375125 C8.859625,3.175125 8.894625,2.996125 8.966625,2.839125 C9.09576488,2.54805766 9.33981012,2.323565 9.640625,2.219125 C9.783625,2.166125 9.928625,2.140125 10.074625,2.140125 Z M12.414625,2.179125 C12.466625,2.179125 12.512625,2.210125 12.531625,2.257125 L13.285625,4.357125 L13.285625,2.304125 C13.285625,2.236125 13.339625,2.181125 13.405625,2.179125 L14.060625,2.179125 C14.128625,2.179125 14.183625,2.233125 14.1856396,2.299125 L14.1856396,6.844125 C14.1862191,6.91164112 14.1330898,6.96742686 14.065625,6.97012501 L13.448625,6.97012501 C13.3974288,6.97003149 13.3514651,6.93872864 13.332625,6.891125 L12.565625,4.787125 L12.565625,6.848125 C12.5640935,6.91408936 12.511555,6.96750349 12.445625,6.97012501 L11.790625,6.97012501 C11.7227442,6.97012501 11.6672541,6.91598624 11.665625,6.848125 L11.665625,2.304125 C11.665625,2.236125 11.719625,2.181125 11.786625,2.179125 L12.414625,2.179125 Z M10.074625,3.041125 C9.99107167,3.03915069 9.90978165,3.06838658 9.846625,3.123125 C9.791625,3.170125 9.761625,3.248125 9.759625,3.367125 L9.759625,5.773125 C9.759625,5.897125 9.789625,5.977125 9.846625,6.026125 C9.90992889,6.08050226 9.99120317,6.10937602 10.074625,6.107125 C10.164625,6.107125 10.238625,6.081125 10.302625,6.026125 C10.358625,5.978125 10.388625,5.900125 10.389625,5.781125 L10.389625,3.375125 C10.389625,3.252125 10.359625,3.171125 10.302625,3.123125 C10.2394684,3.06838658 10.1581783,3.03915069 10.074625,3.041125 Z M7.225,1.998 L7.215,2.015 L7.213,2.02 C6.17766612,3.95668662 6.5272175,6.34223941 8.07465713,7.9004762 C9.62209676,9.45871299 12.0051614,9.82484289 13.949,8.803 L13.97,8.793 L13.993,8.78 L14.001,8.775 C14.0424768,8.75219451 14.0932771,8.75477259 14.132232,8.78165994 C14.1711869,8.80854728 14.1916136,8.85513131 14.185,8.902 L14.18,8.939 L14.175,8.972 L14.171,8.994 C13.6486372,12.2073228 10.7474761,14.4817675 7.50234662,14.2220736 C4.25721716,13.9623796 1.75469028,11.2555006 1.75,8 C1.75040989,4.90867032 4.01037229,2.28189438 7.067,1.82 L7.097,1.815 C7.14374231,1.80821378 7.19031816,1.82835365 7.21738995,1.86705785 C7.24446174,1.90576205 7.24740588,1.95642027 7.225,1.998 Z M5.485,3.604 L5.423,3.641 C3.60302,4.71841931 2.64451439,6.81360818 3.01935258,8.89511146 C3.39419076,10.9766147 5.02338526,12.6058092 7.10488854,12.9806474 C9.18639182,13.3554856 11.2815807,12.39698 12.359,10.577 L12.395,10.515 L12.374,10.518 C12.1367065,10.5463528 11.8979795,10.5610437 11.659,10.562 L11.625,10.562 C9.85334792,10.5624308 8.16651045,9.80334931 6.99187633,8.47708164 C5.8172422,7.15081397 5.26752323,5.3846219 5.482,3.626 L5.485,3.604 L5.485,3.604 Z" id="形状" fill="#0A1B39" fill-rule="nonzero"></path>
    </g>
</svg>