<?xml version="1.0" encoding="UTF-8"?>
<svg width="16px" height="16px" viewBox="0 0 16 16" version="1.1" xmlns="http://www.w3.org/2000/svg" xmlns:xlink="http://www.w3.org/1999/xlink">
    <title>Line/夜景模式-关</title>
    <g id="Line/夜景模式-关" stroke="none" stroke-width="1" fill="none" fill-rule="evenodd">
        <rect id="矩形" fill="#000000" fill-rule="nonzero" opacity="0" x="0" y="0" width="16" height="16"></rect>
        <path d="M9.24812307,2.64074513 C9.47660769,2.64036853 9.69919824,2.70664031 9.88922675,2.82997693 L10.0131231,2.92275 C10.1211231,3.02175 10.2071231,3.14275 10.2721231,3.28575 C10.3371231,3.42775 10.3691231,3.58875 10.3711231,3.76575 L10.3711231,5.90475 C10.3711231,6.09575 10.3381231,6.26375 10.2711231,6.40675 C10.2061231,6.54675 10.1201231,6.66375 10.0131231,6.75675 C9.69226826,7.0338035 9.246973,7.11636468 8.84812307,6.97275 C8.76207747,6.94180905 8.68057074,6.8999514 8.6055489,6.84833913 L8.49012307,6.75675 C8.417046,6.69334753 8.35550605,6.62384795 8.30490211,6.54838951 L8.22512307,6.40675 C8.15679332,6.25290791 8.12267437,6.08606621 8.12512307,5.91775 L8.12512307,3.77975 C8.12512307,3.59675 8.15812307,3.43175 8.22512307,3.28575 C8.34438869,3.01643272 8.56995878,2.8086041 8.84812307,2.71175 C8.97912307,2.66475 9.11312307,2.64074513 9.24812307,2.64074513 Z M12.5261231,2.67475 C12.5941231,2.67475 12.6491231,2.72875 12.6511231,2.79475 L12.6511231,3.40875 C12.6485639,3.47393471 12.5963078,3.52619082 12.5311231,3.52875 L11.5091231,3.52875 L11.5091231,4.43775 L12.3791231,4.43775 C12.4461231,4.43775 12.5011231,4.49175 12.5031231,4.55875 L12.5031231,5.17175 C12.5005639,5.23693471 12.4483078,5.28919082 12.3831231,5.29175 L11.5081231,5.29175 L11.5081231,6.88975 C11.5055639,6.95493471 11.4533078,7.00719082 11.3881231,7.00975 L10.7441231,7.00975 C10.6773815,7.0092694 10.6227911,6.95643996 10.6201231,6.88975 L10.6201231,2.79975 C10.6201231,2.73175 10.6741231,2.67675 10.7411231,2.67475 L12.5261231,2.67475 Z M14.8061231,2.67475 C14.8741231,2.67475 14.9301231,2.72875 14.9321231,2.79475 L14.9321231,3.40875 C14.9295308,3.47430557 14.8766979,3.52670182 14.8111231,3.52875 L13.7901231,3.52875 L13.7901231,4.43775 L14.6601231,4.43775 C14.7281231,4.43775 14.7831231,4.49175 14.7851231,4.55875 L14.7851231,5.17175 C14.7825308,5.23730557 14.7296979,5.28970182 14.6641231,5.29175 L13.7901231,5.29175 L13.7901231,6.88975 C13.7875639,6.95493471 13.7353078,7.00719082 13.6701231,7.00975012 L13.0261231,7.00975012 C12.9589939,7.00980372 12.9038082,6.95682549 12.9011231,6.88975 L12.9011231,2.79975 C12.9011231,2.73175 12.9551231,2.67675 13.0221231,2.67475 L14.8061231,2.67475 Z M9.24812307,3.52975 C9.18519742,3.527977 9.1238709,3.54972652 9.07612307,3.59075 C9.03812307,3.62375 9.01612307,3.68075 9.01512307,3.77275 L9.01512307,5.90475 C9.01512307,6.00175 9.03712307,6.06075 9.07512307,6.09475 C9.12327567,6.13564863 9.18498771,6.15705165 9.24812307,6.15475 C9.31712307,6.15475 9.37212307,6.13475 9.42112307,6.09475 C9.45912307,6.06175 9.48112307,6.00475 9.48112307,5.91175 L9.48212307,3.77975 C9.48212307,3.68275 9.46012307,3.62375 9.42112307,3.59075 C9.37311789,3.54949071 9.31139018,3.52772545 9.24812307,3.52975 Z M7.225,1.998 L7.215,2.015 L7.213,2.02 C6.17766612,3.95668662 6.5272175,6.34223941 8.07465713,7.9004762 C9.62209676,9.45871299 12.0051614,9.82484289 13.949,8.803 L13.97,8.793 L13.993,8.78 L14.001,8.775 C14.0424768,8.75219451 14.0932771,8.75477259 14.132232,8.78165994 C14.1711869,8.80854728 14.1916136,8.85513131 14.185,8.902 L14.18,8.939 L14.175,8.972 L14.171,8.994 C13.6486372,12.2073228 10.7474761,14.4817675 7.50234662,14.2220736 C4.25721716,13.9623796 1.75469028,11.2555006 1.75,8 C1.75040989,4.90867032 4.01037229,2.28189438 7.067,1.82 L7.097,1.815 C7.14374231,1.80821378 7.19031816,1.82835365 7.21738995,1.86705785 C7.24446174,1.90576205 7.24740588,1.95642027 7.225,1.998 Z M5.485,3.604 L5.423,3.641 C3.60302,4.71841931 2.64451439,6.81360818 3.01935258,8.89511146 C3.39419076,10.9766147 5.02338526,12.6058092 7.10488854,12.9806474 C9.18639182,13.3554856 11.2815807,12.39698 12.359,10.577 L12.395,10.515 L12.374,10.518 C12.1367065,10.5463528 11.8979795,10.5610437 11.659,10.562 L11.625,10.562 C9.85334792,10.5624308 8.16651045,9.80334931 6.99187633,8.47708164 C5.8172422,7.15081397 5.26752323,5.3846219 5.482,3.626 L5.485,3.604 L5.485,3.604 Z" id="形状" fill="#0A1B39" fill-rule="nonzero"></path>
    </g>
</svg>