<?xml version="1.0" standalone="no"?><!DOCTYPE svg PUBLIC "-//W3C//DTD SVG 1.1//EN" "http://www.w3.org/Graphics/SVG/1.1/DTD/svg11.dtd"><svg t="1657161896005" class="icon" viewBox="0 0 1024 1024" version="1.1" xmlns="http://www.w3.org/2000/svg" p-id="41811" xmlns:xlink="http://www.w3.org/1999/xlink" width="200" height="200"><defs><style type="text/css">@font-face { font-family: feedback-iconfont; src: url("//at.alicdn.com/t/font_1031158_u69w8yhxdu.woff2?t=1630033759944") format("woff2"), url("//at.alicdn.com/t/font_1031158_u69w8yhxdu.woff?t=1630033759944") format("woff"), url("//at.alicdn.com/t/font_1031158_u69w8yhxdu.ttf?t=1630033759944") format("truetype"); }
</style></defs><path d="M512 64c247.424 0 448 200.576 448 448S759.424 960 512 960 64 759.424 64 512 264.576 64 512 64zM223.454 277.194C171.28 341.23 140 422.962 140 512c0 205.45 166.55 372 372 372 89.038 0 170.77-31.281 234.806-83.454L621.564 675.303C603.047 735.914 546.672 780 480 780c-80.92 0-146.673-64.943-147.98-145.553L332 632V512.5l112 112h-56v7.5c0 50.81 41.19 92 92 92 50.302 0 91.175-40.37 91.988-90.479L572 632v-6.259L223.454 277.194zM512 140c-89.038 0-170.77 31.281-234.806 83.454L572 518.258V410.963C541.626 399.613 520 370.332 520 336c0-44.183 35.817-80 80-80s80 35.817 80 80c0 34.332-21.626 63.612-51.998 74.963L628 574.259l172.546 172.547C852.72 682.77 884 601.038 884 512c0-205.45-166.55-372-372-372z m88 170c-15.464 0-28 12.536-28 28s12.536 28 28 28 28-12.536 28-28-12.536-28-28-28z" p-id="41812"></path></svg>