<?xml version="1.0" standalone="no"?><!DOCTYPE svg PUBLIC "-//W3C//DTD SVG 1.1//EN" "http://www.w3.org/Graphics/SVG/1.1/DTD/svg11.dtd"><svg t="1678335539572" class="icon" viewBox="0 0 1024 1024" version="1.1" xmlns="http://www.w3.org/2000/svg" p-id="1016" xmlns:xlink="http://www.w3.org/1999/xlink" width="200" height="200"><path d="M512 64a448 448 0 1 1 0 896 448 448 0 0 1 0-896zM223.424 277.184a371.968 371.968 0 0 0 523.328 523.328L621.568 675.328a148.096 148.096 0 0 1-289.536-40.896V531.84a8 8 0 0 1 13.568-5.76l84.672 84.672a8 8 0 0 1-5.632 13.696h-36.736v7.488a92.032 92.032 0 0 0 184 1.536v-7.808l-348.416-348.48zM512 139.968a370.432 370.432 0 0 0-234.816 83.456l294.784 294.848V410.88a80 80 0 1 1 56.064 0v163.328l172.544 172.544A371.968 371.968 0 0 0 512 140.032z m88 170.048a27.968 27.968 0 1 0 0 56 27.968 27.968 0 0 0 0-56z" p-id="1017"></path></svg>