<?xml version="1.0" standalone="no"?><!DOCTYPE svg PUBLIC "-//W3C//DTD SVG 1.1//EN" "http://www.w3.org/Graphics/SVG/1.1/DTD/svg11.dtd"><svg t="1677839656553" class="icon" viewBox="0 0 1024 1024" version="1.1" xmlns="http://www.w3.org/2000/svg" p-id="2781" xmlns:xlink="http://www.w3.org/1999/xlink" width="200" height="200"><path d="M665.408 136c13.44 0 25.344 8.32 30.08 20.8l0.128 0.384 32.256 90.432 80.256-80.256a8 8 0 0 1 11.008-0.32l0.192 0.192 43.52 41.92a8.064 8.064 0 0 1 0.384 11.2l-0.192 0.192-712.704 712.704a8 8 0 0 1-11.136 0.192l-0.192-0.192L96.32 890.56a8 8 0 0 1-0.192-11.136l0.192-0.192 25.152-25.088A80 80 0 0 1 80 785.344V328c0-43.712 35.008-79.36 78.72-80H296l32.512-90.816A32 32 0 0 1 358.144 136h307.264zM896.64 254.912c27.648 12.352 46.976 39.936 47.36 72.128V784a80 80 0 0 1-78.72 80H287.616l72-72H864a8 8 0 0 0 8-7.744V328a8 8 0 0 0-7.744-8h-32.704l65.088-65.088z m-236.544 17.28L637.184 208H386.688l-22.912 64.192L346.688 320H160a8 8 0 0 0-8 7.744V784c0 4.288 3.456 7.872 7.744 8h23.808l16.96-16.96 165.504-165.504a160 160 0 0 1 211.52-211.584L671.488 304l-11.392-31.808z m2.304 216.96a160 160 0 0 1-205.184 205.184l54.4-54.4 0.384 0.064a96 96 0 0 0 96-94.4v-2.048l54.4-54.4zM512 448a96 96 0 0 0-94.912 110.464L526.4 449.024A96.704 96.704 0 0 0 512 448z" p-id="2782"></path></svg>