<?xml version="1.0" standalone="no"?><!DOCTYPE svg PUBLIC "-//W3C//DTD SVG 1.1//EN" "http://www.w3.org/Graphics/SVG/1.1/DTD/svg11.dtd"><svg t="1660979295925" class="icon" viewBox="0 0 1024 1024" version="1.1" xmlns="http://www.w3.org/2000/svg" p-id="1117" xmlns:xlink="http://www.w3.org/1999/xlink" width="200" height="200"><defs><style type="text/css">@font-face { font-family: feedback-iconfont; src: url("//at.alicdn.com/t/font_1031158_u69w8yhxdu.woff2?t=1630033759944") format("woff2"), url("//at.alicdn.com/t/font_1031158_u69w8yhxdu.woff?t=1630033759944") format("woff"), url("//at.alicdn.com/t/font_1031158_u69w8yhxdu.ttf?t=1630033759944") format("truetype"); }
</style></defs><path d="M463.04 94.355l103.117 69.888c10.636 7.207 14.282 21.18 8.525 32.666l-64.103 121.549 109.306 135.456c-24.224-0.704-48.602 6.08-69.888 20.352l-2.439 1.683-1.408 0.998-1.555 1.056a53.824 53.824 0 0 1-59.456 0.064l-1.638-1.12-3.475-2.419c-34.1-23.053-76.199-26.816-112.916-11.296l-25.747-39.02-122.048-2.529c-12.666-0.263-23.235-9.752-24.857-22.317l-17.6-136.115c-1.646-12.721 6.786-24.563 19.347-27.168 12.501-2.592 24.854 5.019 28.16 17.35l25.792 96.25 80.864 1.44 134.33-93.76 30.201-61.248-66.592-60.032c-10.476-9.447-11.687-25.455-2.752-36.371 8.954-10.931 24.698-13.317 36.476-5.594l0.356 0.237z m-87.06 96.826a56.823 56.823 0 0 1-0.004 98.416 56.82 56.82 0 0 1-56.82-0.003c-27.177-15.692-36.486-50.444-20.794-77.62 15.535-26.904 49.75-36.297 76.801-21.256l0.818 0.463z m-99.244 347.34l2.06 1.428 1.409 0.998c18.457 13.024 42.349 13.376 61.1 1.056l1.55-1.056 1.407-0.998c41.05-28.967 94.317-29.44 135.764-1.421l3.475 2.42c18.451 13.023 42.349 13.375 61.094 1.055l1.555-1.056 1.408-0.998c41.044-28.967 94.317-29.44 135.764-1.421l3.468 2.42c18.458 13.023 42.35 13.375 61.101 1.055l1.549-1.056 1.408-0.998c41.05-28.967 94.323-29.44 135.77-1.421l2.06 1.42L896 545.12v80.23l-44.909-31.686c-18.457-13.03-42.349-13.376-61.1-1.056l-1.55 1.056-1.407 0.992c-41.05 28.966-94.317 29.44-135.77 1.427l-2.06-1.427-1.409-0.992c-18.457-13.03-42.349-13.376-61.1-1.056l-1.55 1.056-1.407 0.992c-41.05 28.966-94.317 29.44-135.764 1.427l-2.067-1.427-1.408-0.992c-18.457-13.03-42.349-13.376-61.094-1.056l-1.555 1.056-1.408 0.992c-41.044 28.966-94.317 29.44-135.764 1.427l-2.06-1.427-1.408-0.992c-18.458-13.03-42.35-13.376-61.101-1.056l-1.549 1.056-50.56 35.68v-80.243l12.966-9.152c41.05-28.967 94.317-29.44 135.77-1.421v-0.006z m609.882-131.507l2.06 1.421L896 413.6v80.237l-44.909-31.693c-18.457-13.024-42.349-13.376-61.1-1.056l-1.55 1.056-1.407 0.998c-26.19 18.477-57.344 25.364-87.239 20.653l-2.496-0.422-76.013-96.928c21.62 0.89 43.066 7.744 62.036 20.57l3.468 2.419c18.458 13.024 42.35 13.376 61.101 1.056l1.549-1.056 1.408-0.999c40.64-28.677 93.259-29.427 134.523-2.253l1.247 0.832zM793.6 633.6c84.832 0 153.6 68.768 153.6 153.6s-68.768 153.6-153.6 153.6S640 872.032 640 787.2s68.768-153.6 153.6-153.6zM480.026 807.533l2.067 1.427 1.408 0.992c18.451 13.03 42.349 13.376 61.094 1.056l1.555-1.056 1.408-0.992c15.816-11.162 33.444-18.092 51.513-20.794l0.931-0.136 0.002 0.427c0.144 22.6 4.16 44.282 11.418 64.415-8.615 0.812-17.097 3.727-24.728 8.74l-1.548 1.057-1.408 0.998c-41.05 28.967-94.317 29.44-135.764 1.421l-3.475-2.42c-18.457-13.023-42.349-13.375-61.094-1.055l-1.555 1.056-1.408 0.998c-41.044 28.967-94.317 29.44-135.764 1.421l-2.06-1.42-1.408-1c-18.458-13.023-42.35-13.375-61.101-1.055l-1.549 1.056-50.56 35.68v-80.243l12.966-9.146c40.64-28.677 93.253-29.428 134.523-2.259l1.247 0.832 2.06 1.427 1.409 0.992c18.457 13.03 42.349 13.376 61.1 1.056l1.55-1.056 1.407-0.992c41.05-28.966 94.317-29.44 135.764-1.427z m225.35-72.352A101.93 101.93 0 0 0 691.2 787.2c0 56.557 45.843 102.4 102.4 102.4 18.989 0 36.774-5.171 52.02-14.176L705.375 735.181zM793.6 684.8c-18.989 0-36.774 5.171-52.02 14.176l140.244 140.243A101.93 101.93 0 0 0 896 787.2c0-55.991-44.93-101.482-100.707-102.386l-1.693-0.014z m-516.864-14.758l2.06 1.427 1.409 0.992c18.457 13.024 42.349 13.376 61.1 1.056l1.55-1.056 1.407-0.992c41.05-28.973 94.317-29.44 135.764-1.427l2.067 1.427 1.408 0.992c18.451 13.024 42.349 13.376 61.094 1.056l1.555-1.056 1.408-0.992c31.33-22.116 69.784-27.622 104.666-16.531-16.279 17.39-29.384 37.786-38.394 60.264-9.44 0.468-18.796 3.44-27.136 8.92l-1.548 1.056-1.408 0.992c-41.05 28.966-94.317 29.44-135.764 1.427l-2.067-1.427-1.408-0.992c-18.457-13.024-42.349-13.376-61.094-1.056l-1.555 1.056-1.408 0.992c-41.044 28.966-94.317 29.44-135.764 1.427l-2.06-1.427-1.408-0.992c-18.458-13.024-42.35-13.376-61.101-1.056l-1.549 1.056-50.56 35.68v-80.244l12.966-9.152c41.05-28.966 94.317-29.44 135.77-1.42z" p-id="1118"></path></svg>