<?xml version="1.0" standalone="no"?><!DOCTYPE svg PUBLIC "-//W3C//DTD SVG 1.1//EN" "http://www.w3.org/Graphics/SVG/1.1/DTD/svg11.dtd"><svg t="1679050478490" class="icon" viewBox="0 0 1024 1024" version="1.1" xmlns="http://www.w3.org/2000/svg" p-id="2112" xmlns:xlink="http://www.w3.org/1999/xlink" width="200" height="200"><path d="M440 808.512l3.52 2.432a53.888 53.888 0 0 0 61.056 1.088l1.6-1.088 1.408-1.024c11.712-8.256 24.384-14.208 37.504-17.792l1.28-0.384 0.768-0.192a8 8 0 0 1 9.28 4.544l0.192 0.448a233.948 233.948 0 0 0 31.04 50.816l0.896 1.152 0.64 0.704a3.2 3.2 0 0 1-2.88 5.312h-0.192a53.888 53.888 0 0 0-39.424 8.064l-1.536 1.088-1.408 0.96A118.528 118.528 0 0 1 408 866.112l-2.112-1.472-1.408-0.96a53.824 53.824 0 0 0-61.056-1.088l-1.6 1.088-1.408 0.96a118.528 118.528 0 0 1-135.68 1.472l-2.112-1.472-1.408-0.96a53.824 53.824 0 0 0-61.12-1.088l-1.536 1.088-37.952 26.752A8 8 0 0 1 88 883.904v-56.512a16 16 0 0 1 6.784-13.056l6.208-4.416a118.528 118.528 0 0 1 135.744-1.408l2.048 1.408 1.408 1.024a53.888 53.888 0 0 0 61.12 1.088l1.536-1.088 1.408-1.024A118.528 118.528 0 0 1 440 808.512zM772.032 512a187.968 187.968 0 1 1 0 376 187.968 187.968 0 0 1 0-376z m-105.28 122.368a124.032 124.032 0 0 0 170.88 170.88l-170.88-170.88zM772.032 576c-24.128 0-46.656 6.848-65.664 18.752l170.88 170.88A124.032 124.032 0 0 0 772.032 576z m-535.296 94.08l2.048 1.408 1.408 0.96a53.888 53.888 0 0 0 61.12 1.088l1.536-1.088 1.408-0.96A118.528 118.528 0 0 1 440 670.016l2.112 1.472 1.408 0.96a53.824 53.824 0 0 0 61.056 1.088l1.6-1.088 1.408-0.96c7.424-5.312 15.296-9.6 23.424-12.992l1.024-0.448a4.992 4.992 0 0 1 6.784 5.44l-0.064 0.384a237.696 237.696 0 0 0-1.728 58.24l0.128 1.28 0.128 1.536a8 8 0 0 1-3.904 7.808l-0.64 0.384-0.896 0.448A118.4 118.4 0 0 1 408 727.616l-2.112-1.472-1.408-0.96a53.824 53.824 0 0 0-61.056-1.088l-1.6 1.088-1.408 0.96a118.528 118.528 0 0 1-135.68 1.472l-2.112-1.472-1.408-0.96a53.888 53.888 0 0 0-61.12-1.088l-1.536 1.088-37.952 26.752A8 8 0 0 1 88 745.408v-56.512a16 16 0 0 1 6.784-13.056l6.208-4.352a118.528 118.528 0 0 1 135.744-1.472z m372.16-140.608l-0.256 0.192c-14.4 13.824-27.072 29.44-37.568 46.528l-1.088 1.728-1.088 1.92-1.152 1.92a8 8 0 0 1-4.864 3.648l-1.28 0.32-0.32 0.128-0.64 0.192-0.64 0.192-0.64 0.192a55.04 55.04 0 0 0-12.672 6.144l-1.536 1.088-1.408 0.96A118.528 118.528 0 0 1 408 596.096l-2.112-1.472-1.408-0.96a53.824 53.824 0 0 0-61.056-1.088l-1.6 1.088-1.408 0.96a118.528 118.528 0 0 1-135.68 1.472l-2.112-1.472-1.408-0.96a53.824 53.824 0 0 0-61.12-1.088l-1.536 1.088-37.952 26.752A8 8 0 0 1 88 613.888V557.44a16 16 0 0 1 6.784-13.056l6.208-4.352a118.528 118.528 0 0 1 135.744-1.408l2.048 1.408 1.408 0.96a53.888 53.888 0 0 0 61.12 1.088l1.536-1.088 1.408-0.96A118.528 118.528 0 0 1 440 538.624l3.52 2.368a53.888 53.888 0 0 0 61.056 1.088l1.6-1.088 1.408-0.96c29.44-20.8 65.216-26.88 98.368-18.368l1.024 0.256a4.48 4.48 0 0 1 1.92 7.616zM422.656 94.08l0.384 0.192 103.104 69.888a25.6 25.6 0 0 1 8.512 32.64l-64.064 121.6 102.4 126.848a5.376 5.376 0 0 1-3.648 8.768h-0.256c-20.608 1.28-40.96 8.064-59.072 20.16l-2.432 1.728-1.408 0.96-1.6 1.088a53.824 53.824 0 0 1-59.456 0l-1.6-1.088-3.52-2.368a118.4 118.4 0 0 0-103.04-14.976l-1.024 0.32-1.152 0.384-0.832 0.32-0.896 0.32a8.064 8.064 0 0 1-9.856-3.648l-21.824-33.088-122.048-2.56a25.6 25.6 0 0 1-24.896-22.272l-17.6-136.128a24.512 24.512 0 0 1 19.392-27.136 24.064 24.064 0 0 1 28.16 17.28l25.792 96.32 80.832 1.408 134.4-93.76 30.144-61.248L388.992 136a26.432 26.432 0 0 1-2.752-36.352 27.584 27.584 0 0 1 36.48-5.568z m422.72 312.064l1.28 0.832 2.048 1.408 0.512 0.384A16 16 0 0 1 856 421.824v56.512a8 8 0 0 1-12.608 6.528l-32.32-22.784a53.888 53.888 0 0 0-61.056-1.024l-1.6 1.024-1.408 1.024c-24.512 17.28-53.44 24.448-81.536 21.376l-1.152-0.128-0.96-0.128-1.28-0.192-1.664-0.256a8.064 8.064 0 0 1-5.376-3.328l-68.608-87.488a3.712 3.712 0 0 1 3.136-5.952h0.192c18.752 2.176 37.12 8.832 53.568 19.968l3.456 2.368a53.888 53.888 0 0 0 61.12 1.088l1.536-1.088 1.408-0.96a118.528 118.528 0 0 1 134.528-2.24zM335.168 190.72l0.832 0.448a56.832 56.832 0 1 1-0.832-0.448z" p-id="2113"></path></svg>