<?xml version="1.0" standalone="no"?><!DOCTYPE svg PUBLIC "-//W3C//DTD SVG 1.1//EN" "http://www.w3.org/Graphics/SVG/1.1/DTD/svg11.dtd"><svg t="1658805778626" class="icon" viewBox="0 0 1024 1024" version="1.1" xmlns="http://www.w3.org/2000/svg" p-id="22802" xmlns:xlink="http://www.w3.org/1999/xlink" width="200" height="200"><defs><style type="text/css">@font-face { font-family: feedback-iconfont; src: url("//at.alicdn.com/t/font_1031158_u69w8yhxdu.woff2?t=1630033759944") format("woff2"), url("//at.alicdn.com/t/font_1031158_u69w8yhxdu.woff?t=1630033759944") format("woff"), url("//at.alicdn.com/t/font_1031158_u69w8yhxdu.ttf?t=1630033759944") format("truetype"); }
</style></defs><path d="M112 384m8 0l56 0q8 0 8 8l0 240q0 8-8 8l-56 0q-8 0-8-8l0-240q0-8 8-8Z" p-id="22803"></path><path d="M694.4 384m8 0l56 0q8 0 8 8l0 240q0 8-8 8l-56 0q-8 0-8-8l0-240q0-8 8-8Z" p-id="22804"></path><path d="M840 336m8 0l56 0q8 0 8 8l0 336q0 8-8 8l-56 0q-8 0-8-8l0-336q0-8 8-8Z" p-id="22805"></path><path d="M257.6 256m8 0l56 0q8 0 8 8l0 496q0 8-8 8l-56 0q-8 0-8-8l0-496q0-8 8-8Z" p-id="22806"></path><path d="M548.8 256m8 0l56 0q8 0 8 8l0 496q0 8-8 8l-56 0q-8 0-8-8l0-496q0-8 8-8Z" p-id="22807"></path><path d="M403.2 112m8 0l56 0q8 0 8 8l0 784q0 8-8 8l-56 0q-8 0-8-8l0-784q0-8 8-8Z" p-id="22808"></path></svg>