<?xml version="1.0" standalone="no"?><!DOCTYPE svg PUBLIC "-//W3C//DTD SVG 1.1//EN" "http://www.w3.org/Graphics/SVG/1.1/DTD/svg11.dtd"><svg t="1655177301359" class="icon" viewBox="0 0 1024 1024" version="1.1" xmlns="http://www.w3.org/2000/svg" p-id="46053" xmlns:xlink="http://www.w3.org/1999/xlink" width="200" height="200"><defs><style type="text/css">@font-face { font-family: feedback-iconfont; src: url("//at.alicdn.com/t/font_1031158_u69w8yhxdu.woff2?t=1630033759944") format("woff2"), url("//at.alicdn.com/t/font_1031158_u69w8yhxdu.woff?t=1630033759944") format("woff"), url("//at.alicdn.com/t/font_1031158_u69w8yhxdu.ttf?t=1630033759944") format("truetype"); }
</style></defs><path d="M663.382 112.304c15.473 0 28.73 11.072 31.487 26.298l56.033 309.4L752 448c114.875 0 208 93.125 208 208s-93.125 208-208 208-208-93.125-208-208c0-89.582 56.63-165.937 136.045-195.218l-9.008-49.739-249.215 184.204C433.477 619.713 440 647.095 440 676c0 103.83-84.17 188-188 188S64 779.83 64 676s84.17-188 188-188c15.386 0 30.34 1.848 44.654 5.335L265.05 328 208 328c-8.837 0-16-7.163-16-16v-40c0-8.837 7.163-16 16-16h176c8.837 0 16 7.163 16 16v40c0 8.837-7.163 16-16 16l-45.646-0.001 39.89 208.692 0.746 0.68L656.736 332.08l-26.762-147.777h-125.31c-8.837 0-16-7.163-16.001-15.999v-40c-0.001-8.836 7.162-16 15.999-16h158.72zM252 560c-64.065 0-116 51.935-116 116s51.935 116 116 116 116-51.935 116-116c0-12.794-2.071-25.104-5.897-36.613l-88.705 65.563c-15.989 11.818-38.53 8.437-50.348-7.552-11.7-15.829-8.503-38.08 7.076-49.99l0.476-0.358 88.686-65.551C300.312 567.963 277.086 560 252 560z m512.038-39.474l23.427 129.363c3.543 19.564-9.445 38.296-29.009 41.839-19.368 3.507-37.921-9.187-41.728-28.424l-0.11-0.585-23.432-129.379C647.523 555.275 616 601.956 616 656c0 75.11 60.89 136 136 136s136-60.89 136-136c0-71.054-54.49-129.381-123.962-135.474z" p-id="46054"></path></svg>