<?xml version="1.0" standalone="no"?><!DOCTYPE svg PUBLIC "-//W3C//DTD SVG 1.1//EN" "http://www.w3.org/Graphics/SVG/1.1/DTD/svg11.dtd"><svg t="1702464677213" class="icon" viewBox="0 0 1024 1024" version="1.1" xmlns="http://www.w3.org/2000/svg" p-id="1436" xmlns:xlink="http://www.w3.org/1999/xlink" width="200" height="200"><path d="M611.968 101.632a104 104 0 0 1 133.44 154.816l98.944 179.456a104 104 0 1 1-27.84 203.072L680.64 780.8a104 104 0 1 1-198.656 41.728L239.616 715.264a104 104 0 1 1-87.68-178.176l50.368-205.504a103.872 103.872 0 0 1 9.664-173.824 104 104 0 0 1 141.184 36.608l0.384 0.576 209.856-29.504a103.68 103.68 0 0 1 48.64-63.872z m-25.792 682.24h-0.64a40 40 0 0 0-0.32 80h3.136l0.64-0.064 0.64-0.064 0.64-0.064 0.768-0.128h0.384l0.64-0.128 0.768-0.128 0.576-0.064 0.384-0.128h0.384l0.512-0.192 0.448-0.064 0.64-0.128 0.704-0.256 0.64-0.128a39.936 39.936 0 0 0 1.28-0.448l0.512-0.128 0.576-0.192 0.448-0.192 0.576-0.192 0.512-0.192 0.64-0.256 0.512-0.256a40 40 0 0 0 1.216-0.576l0.704-0.32 0.576-0.32 0.448-0.256 0.32-0.192 0.64-0.384h0.128a39.936 39.936 0 0 0 14.528-14.72l0.32-0.64 0.256-0.384 0.192-0.448 0.256-0.448 0.256-0.512 0.192-0.448 0.32-0.704 0.128-0.256a40 40 0 0 0 0.384-0.896l0.32-0.768 0.256-0.768 0.192-0.512 0.064-0.256a39.936 39.936 0 0 0 0.448-1.408l0.128-0.384 0.128-0.384 0.192-0.768 0.128-0.512 0.192-0.704 0.064-0.512 0.128-0.512 0.128-0.768 0.128-0.768 0.064-0.576 0.064-0.512 0.064-0.512 0.064-0.512 0.064-0.768v-0.64l0.064-0.384v-1.28l0.064-0.64v-1.984l-0.064-0.64v-0.896l-0.064-0.256a40 40 0 0 0-0.192-1.728l-0.128-0.64-0.128-0.832v-0.32a40 40 0 0 0-1.28-4.928l-0.128-0.448a39.936 39.936 0 0 0-3.008-6.912l-0.32-0.64-0.384-0.64-0.32-0.576a40 40 0 0 0-33.216-18.816h-0.512z m181.312-321.728l-276.864 276.8 23.04 10.24A104.192 104.192 0 0 1 622.08 726.4l133.312-139.264a104.064 104.064 0 0 1 16.064-117.76l-3.968-7.232z m-72.896-132.16L348.544 676.032l87.232 38.592 303.552-303.552-44.736-81.088z m-526.4 269.952h-0.64a40 40 0 0 0-34.56 59.392l0.32 0.448 0.384 0.704 0.128 0.256a40.064 40.064 0 0 0 1.792 2.688l0.384 0.512 0.448 0.64 0.448 0.448a39.936 39.936 0 0 0 0.64 0.832l0.512 0.512 0.192 0.32 0.448 0.448 0.576 0.576 0.512 0.576 0.384 0.32 0.192 0.192a39.936 39.936 0 0 0 0.384 0.384l0.384 0.384 0.512 0.448 0.256 0.192 1.216 1.024 0.768 0.64 0.448 0.32 0.384 0.256 0.256 0.128 0.96 0.64 0.64 0.448 0.768 0.448 0.448 0.32 0.64 0.32 0.896 0.512 0.576 0.32a40 40 0 0 0 2.368 1.088l0.64 0.256 0.448 0.192 0.64 0.256 0.768 0.256 0.64 0.256 0.512 0.128 0.64 0.192 0.64 0.192 0.64 0.192 0.448 0.128 0.64 0.128 0.64 0.128 0.32 0.064 0.64 0.192 0.576 0.064 0.512 0.064a39.936 39.936 0 0 0 1.344 0.192l0.896 0.128h0.32l0.64 0.128h1.344l0.384 0.064h1.28a40 40 0 0 0 34.752-60.096l-0.256-0.448-0.384-0.576a40 40 0 0 0-33.152-18.816h-0.64z m406.464-355.008L247.168 572.416a104.64 104.64 0 0 1 24.768 69.76l21.76 9.6L650.56 294.848a104 104 0 0 1-75.392-49.088l-0.512-0.832zM848.192 499.84h-0.64a40 40 0 1 0 35.008 19.84l-0.256-0.384-0.32-0.576a40 40 0 0 0-33.216-18.88h-0.64zM482.752 257.6l-118.144 16.64A103.936 103.936 0 0 1 280 350.656l-35.584 145.28 238.4-238.336z m-218.048-49.664h-2.816 0.192a39.744 39.744 0 0 0-7.296 1.024l-0.448 0.128-0.64 0.128-0.256 0.128-0.64 0.128-0.64 0.256-0.448 0.128-0.832 0.256-0.64 0.256-0.64 0.192-0.384 0.192-0.448 0.192a40.064 40.064 0 0 0-1.28 0.576l-0.768 0.32-0.64 0.32-0.64 0.32-0.512 0.256-0.32 0.192-0.64 0.32a40.704 40.704 0 0 0-1.088 0.64l-0.64 0.448-0.512 0.32-0.384 0.256-0.384 0.32a40.128 40.128 0 0 0-1.152 0.768l-0.576 0.512-0.448 0.32-0.512 0.448-0.64 0.512-0.448 0.448-0.256 0.192a39.68 39.68 0 0 0-0.896 0.832l-0.64 0.704-0.512 0.512-0.384 0.384-0.256 0.256-0.32 0.384-0.32 0.448a39.68 39.68 0 0 0-0.768 0.896l-0.256 0.32-0.384 0.448-0.32 0.384-0.32 0.512-0.448 0.64-0.384 0.512-0.32 0.512-0.384 0.64-0.448 0.64-0.192 0.448-0.256 0.448-0.32 0.512-0.192 0.384a40.064 40.064 0 0 0-0.704 1.472l-0.448 0.896-0.128 0.384a40.128 40.128 0 0 0-0.512 1.088l-0.256 0.768-0.192 0.576v-0.256a40.192 40.192 0 0 0-0.512 1.6l-0.192 0.832-0.192 0.512a40.256 40.256 0 0 0-0.384 1.472l-0.128 0.64-0.128 0.576-0.128 0.512a40.192 40.192 0 0 0-0.32 1.92l-0.064 0.704-0.128 0.96v0.64l-0.192 0.576v0.512a40 40 0 0 0 0 3.84v0.96l0.064 0.832v0.576l0.064 0.32 0.128 0.64a39.68 39.68 0 0 0 0.512 3.2l0.128 0.576 0.128 0.576 0.128 0.64 0.128 0.512 0.192 0.64 0.192 0.512 0.128 0.512-0.064-0.192 0.64 1.92 0.384 0.896 0.192 0.512 0.256 0.64 0.256 0.512 0.256 0.64 0.256 0.512 0.192 0.448a40 40 0 0 0 35.008 22.016h0.576a40 40 0 0 0 34.752-60.096l-0.256-0.448-0.384-0.576-0.32-0.512-0.32-0.448a40.32 40.32 0 0 0-0.96-1.472l-0.512-0.64a40.064 40.064 0 0 0-0.448-0.576l-0.256-0.384-0.512-0.64 0.192 0.192a39.808 39.808 0 0 0-1.664-1.92l-0.448-0.384a39.68 39.68 0 0 0-0.896-0.896l-0.448-0.448-0.64-0.512-0.192-0.192-0.64-0.512-0.384-0.384-0.448-0.32a39.68 39.68 0 0 0-0.576-0.512l-0.64-0.512-0.256-0.128a39.808 39.808 0 0 0-1.536-1.088l-0.512-0.32-0.512-0.256-0.512-0.32-0.512-0.32-0.512-0.32-0.448-0.256-0.64-0.256-0.704-0.384-0.512-0.256-0.512-0.256-0.576-0.256-0.704-0.256-0.768-0.32-0.64-0.256 0.448 0.192a40.192 40.192 0 0 0-1.28-0.448l-0.448-0.192a40.192 40.192 0 0 0-1.088-0.32l-0.512-0.128-0.64-0.192-0.512-0.128-0.64-0.192-0.512-0.128-0.768-0.128-0.384-0.064-0.64-0.128-0.768-0.128-0.832-0.128-0.64-0.064-0.64-0.064-0.896-0.128h-0.896l-0.768-0.064h-0.704z m399.488-56.256h-0.64a40 40 0 1 0 35.008 19.84l-0.256-0.384-0.32-0.576a40 40 0 0 0-33.216-18.816h-0.64z" p-id="1437"></path></svg>