<?xml version="1.0" standalone="no"?><!DOCTYPE svg PUBLIC "-//W3C//DTD SVG 1.1//EN" "http://www.w3.org/Graphics/SVG/1.1/DTD/svg11.dtd"><svg t="1698217596287" class="icon" viewBox="0 0 1024 1024" version="1.1" xmlns="http://www.w3.org/2000/svg" p-id="873" xmlns:xlink="http://www.w3.org/1999/xlink" width="200" height="200"><path d="M327.061 117.402c0.073 0.437 0.11 0.879 0.11 1.321v56.303a7.998 7.998 0 0 1-5.789 7.686c-10.272 2.955-15.663 9.7-16.175 20.237l-4.67 190.216c-4.385 55.747-35.052 88.264-92 97.552a8 8 0 0 1-9.29-7.897v-56.048a7.999 7.999 0 0 1 6.152-7.786c13.563-3.224 21.283-12.42 23.16-27.588l4.67-190.216c2.602-51.231 30.809-81.346 84.619-90.347a8 8 0 0 1 9.213 6.567z m107.754 0c0.073 0.437 0.11 0.879 0.11 1.321v56.303a7.998 7.998 0 0 1-5.79 7.686c-10.271 2.955-15.663 9.7-16.174 20.237l-4.67 190.216c-4.385 55.747-35.052 88.264-92.001 97.552a8 8 0 0 1-9.29-7.897v-56.048a7.999 7.999 0 0 1 6.152-7.786c13.564-3.224 21.284-12.42 23.16-27.588l4.67-190.216c2.603-51.231 30.81-81.346 84.62-90.347a8 8 0 0 1 9.213 6.567z m107 0c0.073 0.437 0.11 0.879 0.11 1.321v56.303a7.998 7.998 0 0 1-5.79 7.686c-10.271 2.955-15.663 9.7-16.174 20.237l-4.67 190.216c-4.385 55.747-35.052 88.264-92.001 97.552a8 8 0 0 1-9.29-7.897v-56.048a7.999 7.999 0 0 1 6.152-7.786c13.564-3.224 21.284-12.42 23.16-27.588l4.67-190.216c2.603-51.231 30.81-81.346 84.62-90.347a8 8 0 0 1 9.213 6.567zM191 325a8 8 0 0 1 8 8v56a8 8 0 0 1-8 8h-56a8 8 0 0 1-8-8v-56a8 8 0 0 1 8-8h56z m698 0a8 8 0 0 1 8 8v56a8 8 0 0 1-8 8H562a8 8 0 0 1-8-8v-56a8 8 0 0 1 8-8h327zM191 197a8 8 0 0 1 8 8v56a8 8 0 0 1-8 8h-56a8 8 0 0 1-8-8v-56a8 8 0 0 1 8-8h56z m698 0a8 8 0 0 1 8 8v56a8 8 0 0 1-8 8H562a8 8 0 0 1-8-8v-56a8 8 0 0 1 8-8h327z m1.776 309c8.418 0 15.397 6.523 15.964 14.922l3.526 52.227c2.073 30.695-0.257 61.772-6.898 93.061-7.562 35.627-26.713 74.672-57.356 108.442-28.068 30.932-63.91 55.538-107.25 72.197l-1.419 0.54V896c-0.001 8.836-7.165 16-16.001 16H302.445c-8.836 0-16-7.164-16.001-16l-0.004-48.693-1.396-0.532c-42.67-16.433-78.061-40.573-105.914-70.87l-1.206-1.322c-30.607-33.754-49.737-72.772-57.293-108.373-6.641-31.29-8.971-62.366-6.899-93.06l3.527-52.228c0.567-8.399 7.545-14.922 15.963-14.922z m-71.941 183H205.164c20.256 38.54 64.136 86.826 153.274 104.013L358.44 840h306.904l0.001-46.946c89.283-17.15 133.217-65.483 153.49-104.055z m19.595-111H185.569c-1.045 15.476-0.652 31.143 1.18 47h650.5c1.832-15.857 2.226-31.524 1.181-47z" p-id="874"></path></svg>