<?xml version="1.0" standalone="no"?><!DOCTYPE svg PUBLIC "-//W3C//DTD SVG 1.1//EN" "http://www.w3.org/Graphics/SVG/1.1/DTD/svg11.dtd"><svg t="1677671961068" class="icon" viewBox="0 0 1024 1024" version="1.1" xmlns="http://www.w3.org/2000/svg" p-id="5434" xmlns:xlink="http://www.w3.org/1999/xlink" width="200" height="200"><path d="M635.968 112a128 128 0 0 1 123.648 94.72l37.888-37.952a8 8 0 0 1 11.264 0L851.2 211.2a8 8 0 0 1 0 11.328l-688.64 688.64a8 8 0 0 1-11.328 0L108.8 868.8a8 8 0 0 1 0-11.328l51.2-51.2V496a32 32 0 0 1 31.488-32h68.48V240a128 128 0 0 1 125.888-128h250.112zM832 464a32 32 0 0 1 32 31.488V880a32 32 0 0 1-31.488 32h-602.88l72-72H792V536H605.632l72-72H832zM525.76 615.872a48 48 0 0 1 14.72 84.736l-0.512 0.384v52.992a8 8 0 0 1-7.744 8h-40.256a8.064 8.064 0 0 1-8-7.744v-53.248a48 48 0 0 1-18.048-25.28l59.84-59.84zM430.272 536H232v198.272L430.272 536z m206.592-352H387.968a56.064 56.064 0 0 0-56 55.04V464h170.24l189.76-189.696V240a56 56 0 0 0-54.144-56H636.8z" p-id="5435"></path></svg>