<?xml version="1.0" standalone="no"?><!DOCTYPE svg PUBLIC "-//W3C//DTD SVG 1.1//EN" "http://www.w3.org/Graphics/SVG/1.1/DTD/svg11.dtd"><svg t="1678011298821" class="icon" viewBox="0 0 1024 1024" version="1.1" xmlns="http://www.w3.org/2000/svg" p-id="3172" xmlns:xlink="http://www.w3.org/1999/xlink" width="200" height="200"><path d="M808 88a32 32 0 0 1 32 31.488V600h40a32 32 0 0 1 32 32v272a32 32 0 0 1-32 32H144a32 32 0 0 1-32-32V632a32 32 0 0 1 32-32h40V120a32 32 0 0 1 31.488-32H808zM312.576 672H184v192h656V672H711.424l-0.448 1.28A212.096 212.096 0 0 1 515.52 811.968H512A212.096 212.096 0 0 1 312.96 673.28l-0.384-1.28zM768 160H256v440h116.032a139.968 139.968 0 1 0 280 0H768V160z m-64 252.992c4.288 0 7.872 3.456 8 7.744v48.256a8 8 0 0 1-7.744 8H320a8 8 0 0 1-8-7.744v-48.256c0-4.288 3.456-7.872 7.744-8H704z m0-160c4.288 0 7.872 3.456 8 7.744v48.256a8 8 0 0 1-7.744 8H320a8 8 0 0 1-8-7.744v-48.256c0-4.288 3.456-7.872 7.744-8H704z" p-id="3173"></path></svg>