<?xml version="1.0" standalone="no"?><!DOCTYPE svg PUBLIC "-//W3C//DTD SVG 1.1//EN" "http://www.w3.org/Graphics/SVG/1.1/DTD/svg11.dtd"><svg t="1667472323051" class="icon" viewBox="0 0 1024 1024" version="1.1" xmlns="http://www.w3.org/2000/svg" p-id="906" xmlns:xlink="http://www.w3.org/1999/xlink" width="200" height="200"><path d="M942.764 382.573c12.497 12.497 12.497 32.758 0 45.255a32 32 0 0 1-12.056 7.576l-91.182 31.913L418.744 888.1c-78.105 78.105-204.738 78.105-282.843 0-78.104-78.105-78.104-204.738 0-282.843l420.783-420.784 31.914-91.18c5.838-16.68 24.093-25.47 40.774-19.632a32 32 0 0 1 12.057 7.576l301.335 301.336zM839.512 386.8L637.2 184.489l-14.512 41.46-433.047 433.049c-48.425 48.425-48.425 126.937 0 175.362 47.941 47.94 125.37 48.42 173.901 1.438l1.462-1.438L798.05 401.312l41.462-14.511zM613.27 358.078l-221.086 315.75c0.241 57.185-9.29 99.563-28.595 127.133-25.342 36.192-75.226 44.988-111.419 19.646-36.192-25.343-44.988-75.226-19.646-111.419 19.5-27.847 56.605-51.492 111.317-70.935l220.28-314.59a8 8 0 0 1 11.142-1.965l36.043 25.238a8 8 0 0 1 1.964 11.142zM330.852 708.237l-0.869 0.41c-0.823 0.39-1.636 0.782-2.44 1.173l-1.597 0.785a246.21 246.21 0 0 0-3.117 1.572l-1.52 0.788-1.497 0.789-1.471 0.79-0.726 0.396-1.434 0.791-1.409 0.793-1.383 0.794c-0.915 0.529-1.812 1.059-2.693 1.589l-1.31 0.796c-0.864 0.53-1.711 1.061-2.542 1.593l-1.235 0.797c-0.407 0.266-0.81 0.532-1.209 0.798l-1.185 0.799a131.28 131.28 0 0 0-3.95 2.796l-1.072 0.8-0.527 0.4-1.035 0.799c-6.478 5.063-11.461 10.125-14.957 15.118-6.336 9.048-4.137 21.519 4.911 27.854 9.048 6.336 21.519 4.137 27.855-4.911 3.496-4.993 6.548-11.407 9.09-19.226l0.397-1.246 0.196-0.632 0.384-1.282c0.444-1.508 0.87-3.064 1.277-4.668l0.345-1.386c0.114-0.466 0.226-0.935 0.336-1.409l0.328-1.433c0.215-0.962 0.424-1.94 0.627-2.934l0.3-1.503c0.197-1.009 0.388-2.034 0.573-3.074l0.272-1.571c0.09-0.528 0.177-1.06 0.263-1.595l0.254-1.618 0.123-0.818 0.24-1.653 0.229-1.675 0.22-1.7c0.144-1.14 0.28-2.295 0.412-3.466l0.19-1.768 0.182-1.791 0.174-1.861z" p-id="907"></path></svg>