<?xml version="1.0" standalone="no"?><!DOCTYPE svg PUBLIC "-//W3C//DTD SVG 1.1//EN" "http://www.w3.org/Graphics/SVG/1.1/DTD/svg11.dtd"><svg t="1648459608930" class="icon" viewBox="0 0 1024 1024" version="1.1" xmlns="http://www.w3.org/2000/svg" p-id="104719" xmlns:xlink="http://www.w3.org/1999/xlink" width="200" height="200"><defs><style type="text/css">@font-face { font-family: feedback-iconfont; src: url("//at.alicdn.com/t/font_1031158_u69w8yhxdu.woff2?t=1630033759944") format("woff2"), url("//at.alicdn.com/t/font_1031158_u69w8yhxdu.woff?t=1630033759944") format("woff"), url("//at.alicdn.com/t/font_1031158_u69w8yhxdu.ttf?t=1630033759944") format("truetype"); }
</style></defs><path d="M903 904h-92.75l93.25-189.55a84.3 84.3 0 0 0 7.5-35 85.09 85.09 0 0 0-169.73-8.82 8 8 0 0 0 8 8.82h40.43a8 8 0 0 0 7.79-6.25 29.14 29.14 0 0 1 31.84-22.65c14.19 1.63 25.94 15.2 25.66 29.48a28.62 28.62 0 0 1-2.54 11.36L744 915a32 32 0 0 0 29.23 45H903a8 8 0 0 0 8-8v-40a8 8 0 0 0-8-8zM474.56 64C345 64 239.9 169.06 239.9 298.67v426.66C239.9 854.94 345 960 474.56 960c129.61 0 234.67-105.06 234.67-234.67V298.67C709.23 169.06 604.17 64 474.56 64z m162.67 661.33a162.67 162.67 0 1 1-325.33 0V298.67a162.67 162.67 0 1 1 325.33 0z" p-id="104720"></path></svg>