<?xml version="1.0" standalone="no"?><!DOCTYPE svg PUBLIC "-//W3C//DTD SVG 1.1//EN" "http://www.w3.org/Graphics/SVG/1.1/DTD/svg11.dtd"><svg t="1678331281372" class="icon" viewBox="0 0 1024 1024" version="1.1" xmlns="http://www.w3.org/2000/svg" p-id="2260" xmlns:xlink="http://www.w3.org/1999/xlink" width="200" height="200"><path d="M903.04 904h-92.8l93.248-189.568a85.12 85.12 0 1 0-162.24-43.84 8 8 0 0 0 8 8.832h40.448c3.712 0 6.976-2.56 7.808-6.208a29.12 29.12 0 0 1 31.808-22.656A30.08 30.08 0 0 1 854.976 680a28.608 28.608 0 0 1-2.56 11.392L744 915.008A32 32 0 0 0 773.248 960h129.728a8 8 0 0 0 8-8v-40a8 8 0 0 0-8-8zM474.496 64A234.688 234.688 0 0 1 709.12 294.784v430.528a234.688 234.688 0 0 1-469.248 3.84v-430.4A234.688 234.688 0 0 1 474.496 64z m0 76.032A158.72 158.72 0 0 0 315.84 296.064v429.248a158.72 158.72 0 0 0 317.312 2.624V298.688a158.72 158.72 0 0 0-158.656-158.72z" p-id="2261"></path></svg>