<?xml version="1.0" standalone="no"?><!DOCTYPE svg PUBLIC "-//W3C//DTD SVG 1.1//EN" "http://www.w3.org/Graphics/SVG/1.1/DTD/svg11.dtd"><svg t="1678332315033" class="icon" viewBox="0 0 1024 1024" version="1.1" xmlns="http://www.w3.org/2000/svg" p-id="1374" xmlns:xlink="http://www.w3.org/1999/xlink" width="200" height="200"><path d="M912 680.96c0-46.976-37.568-85.952-84.48-86.4a85.504 85.504 0 0 0-85.824 76.608 8 8 0 0 0 8 8.768h40.384c3.712 0 6.912-2.56 7.808-6.144v-0.256a29.44 29.44 0 0 1 29.632-23.04c16 0.512 28.48 14.08 28.48 30.08v30.272a29.44 29.44 0 0 1-29.44 29.376h-16.448a8 8 0 0 0-8 8v40c0 4.416 3.584 8 8 8h16.512A29.44 29.44 0 0 1 856 825.6v48.32c0 16-12.48 29.568-28.48 30.08a29.44 29.44 0 0 1-29.504-22.656l-0.128-0.384a8 8 0 0 0-7.808-6.4h-40.448a8 8 0 0 0-8 8.768A85.504 85.504 0 0 0 827.52 960a86.08 86.08 0 0 0 84.544-86.464V825.6a85.12 85.12 0 0 0-22.208-57.344 85.12 85.12 0 0 0 22.208-57.472v-29.76zM474.56 64a234.688 234.688 0 0 1 234.624 230.784v430.528a234.688 234.688 0 0 1-469.248 3.84v-430.4A234.688 234.688 0 0 1 474.496 64z m0 76.032a158.72 158.72 0 0 0-158.656 156.032v429.248a158.72 158.72 0 0 0 317.312 2.624V298.688a158.72 158.72 0 0 0-158.656-158.72z" p-id="1375"></path></svg>