<?xml version="1.0" standalone="no"?><!DOCTYPE svg PUBLIC "-//W3C//DTD SVG 1.1//EN" "http://www.w3.org/Graphics/SVG/1.1/DTD/svg11.dtd"><svg t="1658805804414" class="icon" viewBox="0 0 1024 1024" version="1.1" xmlns="http://www.w3.org/2000/svg" p-id="22957" xmlns:xlink="http://www.w3.org/1999/xlink" width="200" height="200"><defs><style type="text/css">@font-face { font-family: feedback-iconfont; src: url("//at.alicdn.com/t/font_1031158_u69w8yhxdu.woff2?t=1630033759944") format("woff2"), url("//at.alicdn.com/t/font_1031158_u69w8yhxdu.woff?t=1630033759944") format("woff"), url("//at.alicdn.com/t/font_1031158_u69w8yhxdu.ttf?t=1630033759944") format("truetype"); }
</style></defs><path d="M912 681c0-47-37.54-86-84.54-86.473-44.072-0.38-81.215 32.798-85.79 76.633a8 8 0 0 0 8 8.75h40.43a8 8 0 0 0 7.82-6.36c3.079-13.762 15.484-23.407 29.58-23 16 0.48 28.5 14 28.5 30v30.27c0 16.232-13.158 29.39-29.39 29.39h-16.52a8 8 0 0 0-8 8v40a8 8 0 0 0 8 8h16.52A29.38 29.38 0 0 1 856 825.58v48.36c0 16-12.51 29.53-28.5 30-14.096 0.407-26.501-9.238-29.58-23a8 8 0 0 0-7.82-6.37h-40.46a8 8 0 0 0-8 8.75c4.552 43.867 41.72 77.075 85.82 76.683 47-0.463 84.54-39.463 84.54-86.473v-47.9a85.06 85.06 0 0 0-22.21-57.38A85.1 85.1 0 0 0 912 710.81V681zM474.56 64C345 64 239.9 169.06 239.9 298.67v426.66C239.9 854.94 345 960 474.56 960c129.61 0 234.67-105.06 234.67-234.67V298.67C709.23 169.06 604.17 64 474.56 64z m162.67 661.33c0.458 58.418-30.445 112.596-80.962 141.939-50.517 29.342-112.889 29.342-163.406 0-50.517-29.343-81.42-83.52-80.962-141.939V298.67c-0.458-58.418 30.445-112.596 80.962-141.939 50.517-29.342 112.889-29.342 163.406 0 50.517 29.343 81.42 83.52 80.962 141.939v426.66z" p-id="22958"></path></svg>