<?xml version="1.0" standalone="no"?><!DOCTYPE svg PUBLIC "-//W3C//DTD SVG 1.1//EN" "http://www.w3.org/Graphics/SVG/1.1/DTD/svg11.dtd"><svg t="1721183907900" class="icon" viewBox="0 0 1024 1024" version="1.1" xmlns="http://www.w3.org/2000/svg" p-id="832" xmlns:xlink="http://www.w3.org/1999/xlink" width="200" height="200"><path d="M273.706 392.647l52.708 52.708-43.482 75.325 118.807-0.001 36.749 36.75-46.474 196.412 123.47-119.416 50.92 50.92L285.35 957.17a8.002 8.002 0 0 1-5.6 2.33 8.182 8.182 0 0 1-8.064-9.786l0.064-0.294 84.41-356.74H172.37a8.16 8.16 0 0 1-7.216-11.977l0.146-0.263 108.406-187.793zM830.14 112.5l0.03 0.04a8.16 8.16 0 0 1 6.4 13.23l-0.19 0.23-225.19 264h240.44a8.16 8.16 0 0 1 5.881 13.786l-0.211 0.214-203.115 196.444L888.77 835.029a8 8 0 0 1 0 11.314l-42.427 42.427a8 8 0 0 1-11.314 0L134.343 188.083a8 8 0 0 1 0-11.313l42.427-42.427a8 8 0 0 1 11.313 0l148.823 148.822L433.07 116.58a8.192 8.192 0 0 1 6.78-4.08h390.29zM603.266 549.525L693.764 462H515.741l87.525 87.525zM691.844 184.5H476.997l-87.383 151.373 93.422 93.422L691.844 184.5z" p-id="833"></path></svg>