<?xml version="1.0" standalone="no"?><!DOCTYPE svg PUBLIC "-//W3C//DTD SVG 1.1//EN" "http://www.w3.org/Graphics/SVG/1.1/DTD/svg11.dtd"><svg t="1661168777034" class="icon" viewBox="0 0 1024 1024" version="1.1" xmlns="http://www.w3.org/2000/svg" p-id="14925" xmlns:xlink="http://www.w3.org/1999/xlink" width="200" height="200"><defs><style type="text/css">@font-face { font-family: feedback-iconfont; src: url("//at.alicdn.com/t/font_1031158_u69w8yhxdu.woff2?t=1630033759944") format("woff2"), url("//at.alicdn.com/t/font_1031158_u69w8yhxdu.woff?t=1630033759944") format("woff"), url("//at.alicdn.com/t/font_1031158_u69w8yhxdu.ttf?t=1630033759944") format("truetype"); }
</style></defs><path d="M832.608 191.392a216.192 216.192 0 0 0-306.016 0L429.696 288.32l51.008 51.008 96.896-96.896c53.792-53.792 144.608-59.52 204 0 59.52 59.52 53.792 150.208 0 204l-96.896 96.896 51.104 51.104 96.896-96.896a216.576 216.576 0 0 0-0.096-306.112zM446.496 781.6c-53.792 53.792-144.608 59.52-204 0-59.52-59.52-53.792-150.208 0-204l96.896-96.896-51.104-51.104-96.896 96.896a216.192 216.192 0 0 0 0 306.016 216.288 216.288 0 0 0 306.016 0l96.896-96.896-51.008-51.008-96.8 96.992zM260.288 209.408a8 8 0 0 0-11.296 0L209.408 248.96a8 8 0 0 0 0 11.296L763.808 814.72a8 8 0 0 0 11.296 0l39.584-39.584a8 8 0 0 0 0-11.296L260.288 209.408z" p-id="14926"></path></svg>