<?xml version="1.0" standalone="no"?><!DOCTYPE svg PUBLIC "-//W3C//DTD SVG 1.1//EN" "http://www.w3.org/Graphics/SVG/1.1/DTD/svg11.dtd"><svg t="1653041875938" class="icon" viewBox="0 0 1024 1024" version="1.1" xmlns="http://www.w3.org/2000/svg" p-id="2221" xmlns:xlink="http://www.w3.org/1999/xlink" width="200" height="200"><defs><style type="text/css">@font-face { font-family: feedback-iconfont; src: url("//at.alicdn.com/t/font_1031158_u69w8yhxdu.woff2?t=1630033759944") format("woff2"), url("//at.alicdn.com/t/font_1031158_u69w8yhxdu.woff?t=1630033759944") format("woff"), url("//at.alicdn.com/t/font_1031158_u69w8yhxdu.ttf?t=1630033759944") format("truetype"); }
</style></defs><path d="M693.6448 418.8864c21.9776-36.0576 69.0304-47.4752 105.088-25.4976l92.8128 56.5568c82.5024 50.2848 108.5248 158.5216 57.7024 240.8512-50.6176 81.984-158.8032 106.496-241.0816 56.3584l-91.168-55.5584c-36.064-21.9776-47.4816-69.024-25.504-105.088l156.832 95.5776c45.9904 28.032 106.624 14.8992 135.36-30.6624 29.2352-46.3744 14.7136-107.7504-31.936-136.1792z m-375.7184-148.288c42.0992-3.328 78.9248 28.096 82.2656 70.1952l-183.0912 14.5024c-53.696 4.2496-95.1168 50.432-91.6864 104.192 3.5008 54.7072 51.2512 95.9232 105.7024 91.6096l184.576-14.624c3.328 42.0928-28.096 78.9312-70.1888 82.2656l-108.352 8.576C140.8384 634.9568 56.3136 562.5216 49.2288 466.0288 42.1632 369.9264 115.4432 286.6432 211.4944 279.04z m263.424 157.4784a6.3744 6.3744 0 0 1 8.768-2.1248l166.7456 101.6256c3.008 1.8304 3.9552 5.7536 2.1248 8.7552l-33.1584 54.4128a6.368 6.368 0 0 1-8.7616 2.1248L550.3232 491.2512a6.3744 6.3744 0 0 1-2.1312-8.7616z m-91.9616-34.2464a6.3744 6.3744 0 0 1 6.8544 5.8496l5.0368 63.52a6.3744 6.3744 0 0 1-5.856 6.8544l-194.6624 15.424a6.3744 6.3744 0 0 1-6.8544-5.8496l-5.0368-63.5264a6.3744 6.3744 0 0 1 5.8496-6.848z m176.7104-52.5312a5.12 5.12 0 0 1 6.6944 2.7648l5.0944 12.2688a5.1264 5.1264 0 0 1-2.7648 6.6944l-48.7168 20.224a5.12 5.12 0 0 1-6.6944-2.7712l-5.0944-12.2688a5.12 5.12 0 0 1 2.7648-6.6944zM485.6896 266.7136a5.12 5.12 0 0 1 6.688 2.7712l20.224 48.7168a5.12 5.12 0 0 1-2.7712 6.688l-12.2688 5.0944a5.12 5.12 0 0 1-6.6944-2.7648l-20.2176-48.7168a5.12 5.12 0 0 1 2.7648-6.6944z m95.6928 2.7072a5.12 5.12 0 0 1 6.6816-2.7776l12.288 5.0816a5.12 5.12 0 0 1 2.7712 6.6816l-20.1536 48.7488a5.12 5.12 0 0 1-6.6816 2.7712l-12.288-5.0752a5.12 5.12 0 0 1-2.7712-6.688z" p-id="2222"></path></svg>