<?xml version="1.0" standalone="no"?><!DOCTYPE svg PUBLIC "-//W3C//DTD SVG 1.1//EN" "http://www.w3.org/Graphics/SVG/1.1/DTD/svg11.dtd"><svg t="1678011340805" class="icon" viewBox="0 0 1024 1024" version="1.1" xmlns="http://www.w3.org/2000/svg" p-id="4724" xmlns:xlink="http://www.w3.org/1999/xlink" width="200" height="200"><path d="M532.032 64a16 16 0 0 1 16 16v80H904a32 32 0 0 1 32 32v456a32 32 0 0 1-32 32H547.968v73.024l193.28 193.28A8 8 0 0 1 735.616 960h-75.904a16 16 0 0 1-11.328-4.672L512 818.88 375.616 955.328A16 16 0 0 1 364.288 960h-75.904a8 8 0 0 1-5.632-13.632l193.216-193.28V680H120a32 32 0 0 1-32-32V192a32 32 0 0 1 32-32h356.032V80a16 16 0 0 1 16-16h40zM864 232H160v376h704V232z m-426.24 67.456L592 453.696l131.712-131.648a8 8 0 0 1 11.328 0l33.92 33.92a8 8 0 0 1 0 11.328L597.632 538.624a8 8 0 0 1-11.264 0L431.936 384.192 300.16 515.072a8 8 0 0 1-11.136 0.128l-0.192-0.192-33.792-34.048a8 8 0 0 1 0-11.328l171.328-170.24a8 8 0 0 1 11.264 0.064z" p-id="4725"></path></svg>