<?xml version="1.0" standalone="no"?><!DOCTYPE svg PUBLIC "-//W3C//DTD SVG 1.1//EN" "http://www.w3.org/Graphics/SVG/1.1/DTD/svg11.dtd"><svg t="1724641988778" class="icon" viewBox="0 0 1024 1024" version="1.1" xmlns="http://www.w3.org/2000/svg" p-id="1475" xmlns:xlink="http://www.w3.org/1999/xlink" width="200" height="200"><path d="M523.677 573.28a16 16 0 0 1 6.36 6.36l182.039 332.87c4.24 7.753 1.392 17.475-6.36 21.715a16 16 0 0 1-12.764 1.132L516 876.035l-176.952 59.322c-8.379 2.809-17.448-1.706-20.256-10.085a16 16 0 0 1 1.132-12.762l182.038-332.87c4.24-7.753 13.962-10.6 21.715-6.36zM516 704.028l-64.332 117.634L516 800.098l64.33 21.565L516 704.029zM512 92c220.914 0 400 179.086 400 400 0 126.223-57.913 238.69-149.24 312l-1.149 0.914c-2.912 2.295-6.584 5.044-11.016 8.246-7.163 5.175-17.165 3.563-22.34-3.6a16 16 0 0 1-0.85-1.309l-19.64-33.668c-4.298-7.365-2.063-16.808 5.08-21.466 2.913-1.9 5.299-3.606 7.155-5.117 73.891-60.142 120-153.3 120-256 0-181.15-146.85-328-328-328S184 310.85 184 492c0 106.068 49.9 201.152 128 261.108 1.439 1.105 3.193 2.355 5.263 3.751 6.988 4.714 9.12 14.041 4.874 21.323l-19.864 34.053c-4.452 7.633-14.249 10.212-21.882 5.76a16 16 0 0 1-1.176-0.756l-1.773-1.259a298.633 298.633 0 0 1-6.853-5.015C174.236 737.925 112 622.23 112 492c0-220.914 179.086-400 400-400z m0 325c32.585 0 59 26.415 59 59s-26.415 59-59 59-59-26.415-59-59 26.415-59 59-59z" p-id="1476"></path></svg>