<?xml version="1.0" standalone="no"?><!DOCTYPE svg PUBLIC "-//W3C//DTD SVG 1.1//EN" "http://www.w3.org/Graphics/SVG/1.1/DTD/svg11.dtd"><svg t="1726628369187" class="icon" viewBox="0 0 1024 1024" version="1.1" xmlns="http://www.w3.org/2000/svg" p-id="905" xmlns:xlink="http://www.w3.org/1999/xlink" width="200" height="200"><path d="M641.958 125.146l-33.979 56.002a8 8 0 0 1-6.84 3.85L185 185v654h654l0.003-344 2.435-3.287 1.81-2.461c14.182-19.363 30.757-43.914 49.723-73.652l3.276-5.149a8 8 0 0 1 14.756 4.284V845.96c0 35.92-29.122 65.04-65.043 65.04H178.04c-35.92 0-65.04-29.12-65.04-65.04V178.04c0-35.92 29.12-65.044 65.04-65.044h457.079a8 8 0 0 1 7.008 11.858l-0.169 0.292zM395 339c94.953 0 166 67.385 166 166 0 51.097-28.989 119.199-86.556 206.703l5.125 1 2.135 0.405c5.09 0.953 9.935 1.81 14.687 2.594l-10.406 63.148a733.237 733.237 0 0 1-13.992-2.45l-2.837-0.53-3.101-0.588c-2.831-0.541-5.726-1.108-8.921-1.744l-16.256-3.263-2.732-0.535-2.571-0.49-0.93-0.171a1927.642 1927.642 0 0 1-13.994 19.031c-10.554 14.176-30.602 17.111-44.777 6.557a32 32 0 0 1-6.67-6.71l-0.371-0.515C275.643 655.295 229 563.392 229 505c0-91.68 74.32-166 166-166z m186.984 383.836l1.228 9.133 1.28 9.31 0.869 6.147c1.162 8.14 2.178 14.835 3.048 20.087l0.078 0.473c0.444 2.662 1.199 5.942 2.264 9.84a4 4 0 0 1-3.315 5.019l-1.266 0.172-1.812 0.24c-3.518 0.459-6.403 0.785-8.656 0.978-13.035 1.121-26.823 1.166-41.414 0.28l-2.322-0.149-2.425-0.178a518.92 518.92 0 0 1-2.926-0.235l-2.79-0.237a4 4 0 0 1-3.65-4.131l0.016-0.24 5.466-55.995a4 4 0 0 1 4.085-3.608l1.65 0.049 1.158 0.04c0.935 0.036 1.797 0.075 2.586 0.119l0.864 0.05c10.201 0.638 21.697 0.434 30.978 0.044l2.135-0.097 1.17-0.062c1.994-0.11 4.22-0.26 6.678-0.449l0.744-0.057a4 4 0 0 1 4.279 3.457z m45.277-33.878l55.194 8.941a4 4 0 0 1 3.214 5.026l-0.46 1.63-0.469 1.627c-4.617 15.83-9.448 26.99-14.493 33.48-6.426 8.262-18.267 17.765-35.522 28.51a4 4 0 0 1-5.74-1.701l-23.677-50.688a4 4 0 0 1 1.494-5.079l1.073-0.682 1.033-0.671c5.231-3.44 8.837-6.43 10.816-8.976 0.758-0.974 1.77-3.81 3.036-8.506a3.999 3.999 0 0 1 4.5-2.91zM395 403c-56.333 0-102 45.667-102 102 0 18.544 9.78 48.618 30.031 88.52l1.084 2.127c16.582 32.37 39.566 70.452 68.926 114.146l2.582 3.833 0.314-0.442c66.816-94.805 100.306-164.854 101.05-206.766L497 505c0-31.902-10.52-57.503-29.269-75.284C449.647 412.564 424.091 403 395 403z m279.04 190.813l1.145 3.55a4 4 0 0 1 0.11 0.41l11.894 56.923a4 4 0 0 1-3.616 4.807l-55.776 4.196a4 4 0 0 1-4.215-3.168l-8.79-41.89a4 4 0 0 0-0.107-0.406l-1.896-5.873a4 4 0 0 1 2.385-4.967l0.273-0.093 53.637-16.091a4 4 0 0 1 4.956 2.602zM395 435c38.66 0 70 31.34 70 70s-31.34 70-70 70-70-31.34-70-70 31.34-70 70-70z m225.524 58.405a4 4 0 0 1 1.14 0.366l49.854 24.753a4 4 0 0 1 2.177 4.175l-5.8 38.724a4 4 0 0 1-3.515 3.384l-55.323 6.118a4 4 0 0 1-4.388-4.615l11.267-69.596a4 4 0 0 1 4.588-3.31zM395 483c-12.15 0-22 9.85-22 22s9.85 22 22 22 22-9.85 22-22-9.85-22-22-22z m309.538-64.795a4 4 0 0 1 0.338 0.591l23.501 50.667a4 4 0 0 1-1.384 4.994l-37.231 25.237a4 4 0 0 1-4.994-0.405l-40.574-38.382a4 4 0 0 1 0.475-6.197l54.305-37.522a4 4 0 0 1 5.564 1.017zM778.5 107c76.363 0 133.5 54.192 133.5 133.5 0 18.564-4.758 39.92-14.244 64.244l-0.46 1.172c-1.933 4.9-4.057 9.92-6.372 15.06l-0.89 1.964-0.422 0.92-1.005 2.169-0.619 1.319a456.476 456.476 0 0 1-6.538 13.291l-1.326 2.574-1.297 2.484c-0.48 0.912-0.965 1.828-1.455 2.747l-0.984 1.837a572.97 572.97 0 0 1-2.657 4.882l-1.19 2.15a628.593 628.593 0 0 1-4.022 7.123l-1.444 2.506-1.395 2.398-0.3 0.514c-0.552 0.942-1.108 1.886-1.669 2.833l-1.174 1.978a746.503 746.503 0 0 1-2.549 4.243l-0.602 0.993a801.177 801.177 0 0 1-4.627 7.524l-1.486 2.378-0.71 1.13-0.852 1.352-1.715 2.703a919.77 919.77 0 0 1-3.438 5.357l-1.652 2.545a992.214 992.214 0 0 1-3.692 5.627l-2.211 3.332-2.313 3.455c-10.875 16.18-22.923 33.162-36.14 50.967l-9.443 12.686c-5.278 7.088-15.301 8.555-22.389 3.278a16 16 0 0 1-3.52-3.612l-7.742-10.978C682.51 361.369 645 287.46 645 240.5c0-19.804 4.312-38.6 12.048-55.501 0.406-0.887 0.822-1.77 1.247-2.646l0.71-1.444c0.388-0.776 0.783-1.547 1.185-2.314l0.716-1.347 0.452-0.832 0.562-1.014c0.432-0.772 0.872-1.54 1.319-2.303l0.809-1.362 0.446-0.736 0.568-0.92a133.66 133.66 0 0 1 2.422-3.753l0.966-1.423 0.51-0.735 0.648-0.92 0.547-0.764 0.696-0.956 0.545-0.737 0.625-0.83a134.117 134.117 0 0 1 4.041-5.076l1.139-1.343a134.288 134.288 0 0 1 3-3.375l1.091-1.173 0.611-0.644 0.89-0.925a132.18 132.18 0 0 1 1.788-1.803l1.081-1.058 0.654-0.629 0.779-0.738a134.302 134.302 0 0 1 3.313-3.011l1.265-1.098c1.14-0.976 2.296-1.934 3.468-2.872l1.285-1.016 0.768-0.595 0.887-0.676 0.737-0.554 0.927-0.684c0.688-0.504 1.381-1 2.08-1.491l1.328-0.922c0.713-0.489 1.432-0.97 2.155-1.446l1.27-0.823 0.758-0.483 0.916-0.572 0.805-0.495 0.908-0.55 0.842-0.5 0.985-0.575 0.813-0.466 0.99-0.558 0.84-0.464 0.885-0.481C734.13 112.744 755.644 107 778.5 107z m0 64c-38.384 0-69.5 31.116-69.5 69.5 0 11.54 6.481 32.661 20.968 61.904l0.441 0.889c11.31 22.704 26.835 49.163 46.744 79.601l2.061 3.141 0.855-1.253c19.42-28.522 34.665-53.867 45.849-76.14l0.505-1.01 0.882-1.78 0.846-1.729C841.811 276.037 848 254.6 848 240.5c0-42.706-27.215-69.5-69.5-69.5z m0.5 30c22.091 0 40 17.909 40 40s-17.909 40-40 40-40-17.909-40-40 17.909-40 40-40z" p-id="906"></path></svg>