<?xml version="1.0" standalone="no"?><!DOCTYPE svg PUBLIC "-//W3C//DTD SVG 1.1//EN" "http://www.w3.org/Graphics/SVG/1.1/DTD/svg11.dtd"><svg t="1658326528456" class="icon" viewBox="0 0 1024 1024" version="1.1" xmlns="http://www.w3.org/2000/svg" p-id="23152" xmlns:xlink="http://www.w3.org/1999/xlink" width="200" height="200"><defs><style type="text/css">@font-face { font-family: feedback-iconfont; src: url("//at.alicdn.com/t/font_1031158_u69w8yhxdu.woff2?t=1630033759944") format("woff2"), url("//at.alicdn.com/t/font_1031158_u69w8yhxdu.woff?t=1630033759944") format("woff"), url("//at.alicdn.com/t/font_1031158_u69w8yhxdu.ttf?t=1630033759944") format("truetype"); }
</style></defs><path d="M512 64a124.032 124.032 0 0 1 32.064 243.84L544 483.968h308.032a32 32 0 0 1 32 32v184.832a108.032 108.032 0 1 1-64 0V548.032L544 547.968l0.064 152.896a108.032 108.032 0 1 1-64.064 0V547.904H203.968v152.832a108.032 108.032 0 1 1-64 0V516.032a32 32 0 0 1 32-32L480 483.904V307.84A124.032 124.032 0 0 1 512 64zM171.968 752a51.968 51.968 0 1 0 0 104 51.968 51.968 0 0 0 0-104z m340.032 0a51.968 51.968 0 1 0 0 104 51.968 51.968 0 0 0 0-104z m340.032 0a51.968 51.968 0 1 0 0 104 51.968 51.968 0 0 0 0-104zM512 128a60.032 60.032 0 1 0 0 120A60.032 60.032 0 0 0 512 128z" p-id="23153"></path></svg>