<?xml version="1.0" standalone="no"?><!DOCTYPE svg PUBLIC "-//W3C//DTD SVG 1.1//EN" "http://www.w3.org/Graphics/SVG/1.1/DTD/svg11.dtd"><svg t="1655115242784" class="icon" viewBox="0 0 1024 1024" version="1.1" xmlns="http://www.w3.org/2000/svg" p-id="55471" xmlns:xlink="http://www.w3.org/1999/xlink" width="200" height="200"><defs><style type="text/css">@font-face { font-family: feedback-iconfont; src: url("//at.alicdn.com/t/font_1031158_u69w8yhxdu.woff2?t=1630033759944") format("woff2"), url("//at.alicdn.com/t/font_1031158_u69w8yhxdu.woff?t=1630033759944") format("woff"), url("//at.alicdn.com/t/font_1031158_u69w8yhxdu.ttf?t=1630033759944") format("truetype"); }
</style></defs><path d="M662 72c8.837 0 16 7.163 16 16v300c0 8.837-7.163 16-16 16H548v72h218c17.673 0 32 14.327 32 32v106h114c8.837 0 16 7.163 16 16v300c0 8.837-7.163 16-16 16H612c-8.837 0-16-7.163-16-16V630c0-8.837 7.163-16 16-16h119.142v-66H292.858v66H412c8.837 0 16 7.163 16 16v300c0 8.837-7.163 16-16 16H112c-8.837 0-16-7.163-16-16V630c0-8.837 7.163-16 16-16h114V508c0-17.673 14.327-32 32-32h218v-72H362c-8.837 0-16-7.163-16-16V88c0-8.837 7.163-16 16-16h300zM356 686H168v188h188V686z m500 0H668v188h188V686zM606 144H418v188h188V144z" p-id="55472"></path></svg>