<?xml version="1.0" standalone="no"?><!DOCTYPE svg PUBLIC "-//W3C//DTD SVG 1.1//EN" "http://www.w3.org/Graphics/SVG/1.1/DTD/svg11.dtd"><svg t="1671445262943" class="icon" viewBox="0 0 1024 1024" version="1.1" xmlns="http://www.w3.org/2000/svg" p-id="918" xmlns:xlink="http://www.w3.org/1999/xlink" width="200" height="200"><path d="M920 664a16 16 0 0 1 16 16v224a32 32 0 0 1-32 32h-222.016a16.064 16.064 0 0 1-16-16v-48a16 16 0 0 1 16-16h174.016v-176a16 16 0 0 1 16-16z m-768 0a16 16 0 0 1 16 16v176h174.016a16 16 0 0 1 16 16v48a16 16 0 0 1-16 16H120a32 32 0 0 1-32-32v-224a16 16 0 0 1 16-16z m532.032-332.032c4.416 0 7.936 3.584 7.936 8v344a8 8 0 0 1-7.936 8.064H339.904a8 8 0 0 1-8-8.064V340.096c0-4.48 3.584-8 8-8h344z m-64 72H403.968v216h216V404.032zM341.952 88a16 16 0 0 1 16 16v48a16 16 0 0 1-16 16H168v176a16 16 0 0 1-16 16h-48a16 16 0 0 1-16-16v-224a32 32 0 0 1 32-32z m561.984 0a32 32 0 0 1 32 32v224a16 16 0 0 1-16 16h-48a16 16 0 0 1-16-16v-176h-174.016a16 16 0 0 1-16-16v-48a16 16 0 0 1 16-16z" p-id="919"></path></svg>