<?xml version="1.0" standalone="no"?><!DOCTYPE svg PUBLIC "-//W3C//DTD SVG 1.1//EN" "http://www.w3.org/Graphics/SVG/1.1/DTD/svg11.dtd"><svg t="1711091920524" class="icon" viewBox="0 0 1024 1024" version="1.1" xmlns="http://www.w3.org/2000/svg" p-id="930" xmlns:xlink="http://www.w3.org/1999/xlink" width="200" height="200"><path d="M512 100.48a284.416 284.416 0 0 1 243.136 432.064c4.416 13.312 6.784 27.392 6.848 41.6V797.12a48 48 0 0 1 45.44 12.032l0.512 0.576 70.08 70.016a8 8 0 0 1 0 11.328l-33.92 33.92a8 8 0 0 1-11.328 0l-58.752-58.688-53.12 53.056a48 48 0 0 1-67.264 0.512l-0.64-0.512L600 866.24l-53.12 53.12a48 48 0 0 1-67.2 0.512l-0.64-0.512-52.992-53.12-53.12 53.12a48 48 0 0 1-67.264 0.512l-0.64-0.512-52.992-53.12-58.752 58.752a8 8 0 0 1-11.264 0l-33.92-33.92a8 8 0 0 1 0-11.328l70.016-70.016a48 48 0 0 1 44.864-12.8V576.512c0-14.528 2.368-28.8 6.848-42.432A284.416 284.416 0 0 1 512 100.416z m110.336 376.704l-109.76 15.04-109.888-11.328-49.6 51.072a64 64 0 0 0-18.112 43.904v282.88l4.032 4.032 53.12-53.12a48 48 0 0 1 67.2-0.512l53.696 53.632 53.056-53.12a48 48 0 0 1 67.328-0.512l53.632 53.632 2.944-3.008V575.232a64 64 0 0 0-16.64-43.072l-0.448-0.512-50.56-54.4zM467.968 574.08c4.48 0 8 3.584 8 8v179.968a8 8 0 0 1-8 8h-48a8 8 0 0 1-8-8V582.016c0-4.48 3.584-8 8-8h48z m136 25.984c4.48 0 8.064 3.584 8.064 8V704a8 8 0 0 1-8.064 8h-48a8 8 0 0 1-7.936-8v-96c0-4.416 3.52-8 7.936-8h48zM512 172.48a212.48 212.48 0 0 0-196.032 294.4l36.416-37.504a67.887 67.887 0 0 1 55.104-20.352l0.64 0.064 103.232 10.688 103.296-14.208a68.094 68.094 0 0 1 58.624 20.672l0.448 0.448 35.2 38.016A212.48 212.48 0 0 0 512 172.48z" p-id="931"></path></svg>