<?xml version="1.0" standalone="no"?><!DOCTYPE svg PUBLIC "-//W3C//DTD SVG 1.1//EN" "http://www.w3.org/Graphics/SVG/1.1/DTD/svg11.dtd"><svg t="1702464671166" class="icon" viewBox="0 0 1024 1024" version="1.1" xmlns="http://www.w3.org/2000/svg" p-id="1126" xmlns:xlink="http://www.w3.org/1999/xlink" width="200" height="200"><path d="M512 124.032c247.424 0 448 173.696 448 387.968 0 214.272-200.576 388.032-448 388.032-15.104 0-30.08-0.64-44.8-1.92l-3.2-0.32-1.92-0.192-1.28-0.128-2.112-0.192-2.24-0.256-3.2-0.384-0.832-0.128a16 16 0 0 1-12.352-23.04l0.32-0.704 0.768-1.472 0.64-1.472a238.72 238.72 0 0 0 0.384-0.64l0.64-1.472 0.32-0.64 0.64-1.344 0.256-0.64 0.64-1.28 1.728-4.352 0.512-1.152 0.384-1.088 0.384-1.088 0.384-1.088a179.968 179.968 0 0 0-292.16-191.36l-0.832 0.832a108.032 108.032 0 0 0-0.832 0.896l-0.896 0.832-0.896 0.896-0.896 0.96a144.128 144.128 0 0 0-0.448 0.512l-0.896 0.96a160.64 160.64 0 0 0-0.448 0.512l-0.96 1.024a177.664 177.664 0 0 0-0.512 0.576l-0.96 1.024-0.96 1.152a210.24 210.24 0 0 0-0.448 0.576l-1.024 1.152-1.024 1.216-1.024 1.216a263.936 263.936 0 0 0-0.512 0.64l-1.024 1.28a289.088 289.088 0 0 0-0.512 0.64l-1.088 1.28a315.84 315.84 0 0 0-0.512 0.704l-1.088 1.408-1.088 1.408a16 16 0 0 1-26.56-1.856l-0.896-1.6-1.344-2.432-0.896-1.536-1.28-2.304-1.28-2.176-0.704-1.472-1.152-2.048-0.768-1.408-0.64-1.28-1.088-1.984-0.96-1.92-0.896-1.792-0.64-1.152-0.512-1.152-0.512-1.152-0.576-1.088-0.448-1.088A342.016 342.016 0 0 1 64 512c0-214.272 200.576-388.032 448-388.032z m0 72c-209.792 0-376 143.936-376 315.968 0 23.296 3.008 46.144 8.896 68.48l0.32 1.28 0.64-0.384A251.52 251.52 0 0 1 275.392 544h2.688a252.032 252.032 0 0 1 250.112 282.56l-0.128 1.152 2.752-0.128C729.6 819.392 884.864 681.728 888 517.184V512c0-172.032-166.208-316.032-376-316.032zM720 536a84.032 84.032 0 1 1 0 168 84.032 84.032 0 0 1 0-168z m0 56a27.968 27.968 0 1 0 0 56 27.968 27.968 0 0 0 0-56zM304 318.016a84.032 84.032 0 1 1 0 168 84.032 84.032 0 0 1 0-168z m400 0a84.032 84.032 0 1 1 0 168 84.032 84.032 0 0 1 0-168z m-400 56a27.968 27.968 0 1 0 0 56 27.968 27.968 0 0 0 0-56z m400 0a27.968 27.968 0 1 0 0 56 27.968 27.968 0 0 0 0-56zM504 224a84.032 84.032 0 1 1 0 168 84.032 84.032 0 0 1 0-168z m0 56a27.968 27.968 0 1 0 0 56 27.968 27.968 0 0 0 0-56z" p-id="1127"></path></svg>