<?xml version="1.0" standalone="no"?><!DOCTYPE svg PUBLIC "-//W3C//DTD SVG 1.1//EN" "http://www.w3.org/Graphics/SVG/1.1/DTD/svg11.dtd"><svg t="1677989518713" class="icon" viewBox="0 0 1024 1024" version="1.1" xmlns="http://www.w3.org/2000/svg" p-id="926" xmlns:xlink="http://www.w3.org/1999/xlink" width="200" height="200"><path d="M628.8 118.08l2.88 0.32c160.448 17.6 277.376 69.568 280.256 131.264V752c0 88.32-179.008 160-399.936 160-218.688 0-396.416-70.208-399.936-157.376v-504.96c2.816-61.248 118.016-112.896 276.608-130.88l5.504-0.64 1.024-0.128a8 8 0 0 1 8.832 8.512v187.904a1043.968 1043.968 0 0 0 215.936 0v-187.52a8.064 8.064 0 0 1 8.832-8.768zM426.304 788.608l-106.24-106.24-104.448 96.32 0.448 0.256 2.816 1.664 1.536 0.896 2.24 1.28 1.472 0.832 1.6 0.768 1.536 0.832 1.664 0.896 5.76 2.88 2.56 1.216 1.728 0.832 1.856 0.768 1.728 0.832 1.856 0.768 1.792 0.896 1.92 0.768 2.816 1.152 2.816 1.28 1.984 0.704 1.92 0.768c65.472 25.792 156.48 40.96 254.336 40.96 98.88 0 190.656-15.424 256.128-41.664l0.96-0.32 1.92-0.832 1.408-0.64 5.184-2.112 3.648-1.6 1.728-0.896 1.792-0.768 1.728-0.832 5.888-2.816 1.664-0.832 1.6-0.832 0.768-0.448 1.6-0.768a240.64 240.64 0 0 0 12.416-7.104l1.28-0.896 1.408-0.832 0.64-0.384 1.28-0.896 1.28-0.832 1.152-0.768 3.008-2.112 1.088-0.896 3.264-2.496 1.088-0.832 0.192-0.192-183.04-183.04-205.44 205.312a8 8 0 0 1-11.328 0zM512 391.936c-135.68 0-255.744-23.68-328-59.84v388.608l132.16-121.92a8 8 0 0 1 11.072 0.256l104.704 104.704 205.376-205.44a8 8 0 0 1 11.072-0.192l0.192 0.192 191.36 191.36v-357.44c-72.32 36.16-192.256 59.712-328 59.712z m-167.488 60.032a56 56 0 1 1-97.024 56 56 56 0 0 1 97.024-56z m331.52-254.784v109.504a597.12 597.12 0 0 0 94.976-23.68l1.984-0.704 2.944-1.024 1.856-0.704 1.92-0.768 4.48-1.664 1.856-0.768 1.664-0.64 2.24-0.96 2.176-0.896 0.768-0.32 2.112-0.896 2.432-1.088 2.048-0.96 0.832-0.32 3.072-1.472 1.536-0.64 4.48-2.24 1.344-0.768 2.752-1.472 2.688-1.408 1.28-0.768 0.64-0.384 1.28-0.64 1.28-0.768 2.88-1.856 1.152-0.704 0.64-0.384 1.088-0.704c2.24-1.472 4.352-3.072 6.464-4.736l0.64-0.384-0.448-0.32a91.584 91.584 0 0 0-1.216-0.96l-0.96-0.704a107.328 107.328 0 0 0-2.496-1.792l-1.088-0.704-0.576-0.448-1.024-0.64a132.608 132.608 0 0 0-1.152-0.768l-1.088-0.704a147.072 147.072 0 0 0-1.792-1.088l-1.216-0.768-1.28-0.704-0.576-0.384-1.28-0.704-0.64-0.384-1.6-0.896-1.728-0.896-0.64-0.384-1.408-0.768-1.408-0.64-1.408-0.768-2.944-1.472-1.472-0.64-0.768-0.448-1.536-0.768-1.6-0.64-0.768-0.384-1.6-0.704-1.6-0.768-1.728-0.64a303.552 303.552 0 0 0-1.6-0.768l-2.56-1.088-1.664-0.64-0.96-0.384-1.664-0.704-1.856-0.704-2.624-1.088-1.92-0.64-1.792-0.704-1.92-0.64-6.72-2.432a501.504 501.504 0 0 0-37.12-11.136l-2.88-0.768a620.416 620.416 0 0 0-14.912-3.584l-4.608-1.024-4.608-1.024-1.6-0.32-3.136-0.64a707.008 707.008 0 0 0-3.136-0.64l-3.136-0.64a734.976 734.976 0 0 0-6.4-1.28l-3.2-0.512a771.392 771.392 0 0 0-8.512-1.536z m-328.064 0l-1.92 0.32-6.528 1.152-6.4 1.28-3.2 0.512c-12.16 2.496-23.936 5.12-35.136 8l-2.88 0.64a571.2 571.2 0 0 0-4.352 1.152l-2.816 0.832c-10.496 2.816-20.48 5.888-29.952 9.216l-3.84 1.344-4.8 1.728-1.792 0.64-1.92 0.704-2.624 1.088-1.792 0.64-1.728 0.768-1.728 0.64-0.896 0.384-1.728 0.768-1.728 0.64-2.048 0.96-1.92 0.896-1.664 0.64-0.768 0.448-1.6 0.64-1.536 0.768-0.768 0.384-1.472 0.64-2.944 1.536-1.408 0.768-1.408 0.64-1.408 0.768-0.64 0.384-1.728 0.896-1.6 0.896-0.64 0.384-1.28 0.704-0.64 0.384-1.28 0.704-1.088 0.768-1.856 1.152-1.088 0.64a132.544 132.544 0 0 0-1.152 0.768l-1.088 0.64-1.024 0.768a108.672 108.672 0 0 0-3.072 2.176l-0.96 0.704-1.6 1.28h0.128l1.344 1.216 0.96 0.704 0.96 0.64 1.024 0.768 0.64 0.384 1.984 1.472 1.152 0.704 1.152 0.704 0.576 0.384 1.088 0.768 0.64 0.32 2.752 1.664 1.6 0.896 1.28 0.768 4.736 2.56 0.64 0.32 1.472 0.768 1.472 0.704 0.704 0.384 3.008 1.472 0.768 0.32 1.536 0.768 2.368 1.088 1.6 0.704 1.6 0.768 1.728 0.64 1.664 0.768 1.664 0.704 1.728 0.704 2.56 1.088 1.792 0.64 2.304 0.96 2.304 0.832 1.856 0.768 3.776 1.344 3.84 1.344c27.584 9.664 59.712 17.664 95.04 23.744V197.184z" p-id="927"></path></svg>