<?xml version="1.0" standalone="no"?><!DOCTYPE svg PUBLIC "-//W3C//DTD SVG 1.1//EN" "http://www.w3.org/Graphics/SVG/1.1/DTD/svg11.dtd"><svg t="1725613618807" class="icon" viewBox="0 0 1024 1024" version="1.1" xmlns="http://www.w3.org/2000/svg" p-id="905" xmlns:xlink="http://www.w3.org/1999/xlink" width="200" height="200"><path d="M792.642 458.17l1.301 0.231 1.303 0.241c6.207 1.137 11.11 5.904 12.38 12.061l0.066 0.338 7.574 41.005c17.093 6.422 32.937 15.523 47.172 27.034l0.926 0.754 39.22-13.942a15.496 15.496 0 0 1 16.7 4.315l0.234 0.268 0.868 1.013c16.509 19.45 29.285 41.418 38.01 65.31l0.44 1.216 0.433 1.254c2.132 5.968 0.45 12.587-4.223 16.753l-0.263 0.229-31.599 27.015a173.487 173.487 0 0 1 2.268 27.884c0 8.867-0.693 17.733-2.038 26.435l-0.23 1.45 31.599 27.015c4.782 4.12 6.59 10.701 4.603 16.554l-0.55 1.585c-8.585 23.902-21.225 45.939-37.6 65.515l-0.85 1.01-0.868 1.014c-4.072 4.83-10.654 6.638-16.597 4.697l-0.336-0.114-39.221-13.942a168.816 168.816 0 0 1-46.985 27.365l-1.113 0.422-7.574 41.006c-1.137 6.207-5.95 11.064-12.109 12.333l-0.337 0.065-1.303 0.242a216.39 216.39 0 0 1-75.192 0.266l-1.513-0.266-1.302-0.242c-6.207-1.137-11.111-5.904-12.381-12.06l-0.066-0.338-7.622-41.199c-16.95-6.374-32.7-15.474-46.84-26.94l-0.92-0.75-39.51 14.038a15.496 15.496 0 0 1-16.7-4.316l-0.233-0.267-0.868-1.013c-16.509-19.45-29.286-41.465-38.01-65.312l-0.44-1.214-0.434-1.255c-2.131-5.968-0.45-12.587 4.224-16.752l0.263-0.229 31.984-27.305c-1.495-9.021-2.219-18.284-2.219-27.546 0-8.702 0.646-17.448 1.977-26.033l0.242-1.513L556.4 616.25c-4.784-4.121-6.592-10.707-4.601-16.652l0.548-1.584c8.584-23.902 21.224-45.94 37.6-65.516l0.85-1.01 0.868-1.013c4.072-4.83 10.653-6.639 16.597-4.697l0.336 0.114 39.51 14.038c14.064-11.562 29.743-20.724 46.632-27.259l1.128-0.432 7.622-41.198c1.137-6.207 5.95-11.065 12.11-12.333l0.337-0.066 1.302-0.24c24.701-4.458 50.66-4.534 75.404-0.231zM928 160c17.673 0 32 14.327 32 32v232a8 8 0 0 1-8 8h-56a8 8 0 0 1-8-8V232H591.552l73.521 189.101A8 8 0 0 1 657.617 432h-51.959a8 8 0 0 1-7.464-5.12L523.008 232H280.64l112.576 291.52 22.976 59.712L496.832 792H526a8 8 0 0 1 8 8v56a8 8 0 0 1-8 8H96c-17.496 0-31.713-14.042-32-31.47V192c0-17.673 14.327-32 32-32h832zM356.544 606.336L136 691.456V792h292.224l-71.68-185.664z m399.095-43.211c-28.832 0-55.929 11.186-76.371 31.629-20.347 20.442-31.629 47.539-31.629 76.371 0 28.832 11.282 55.929 31.629 76.371 20.442 20.347 47.539 31.629 76.371 31.629 28.832 0 55.929-11.282 76.371-31.629 20.347-20.442 31.63-47.539 31.63-76.371 0-28.832-11.283-55.929-31.63-76.371-20.442-20.443-47.539-31.629-76.37-31.629z m0 60c12.814 0 24.857 4.971 33.943 14.057 9.043 9.086 14.057 21.129 14.057 33.943 0 12.814-5.014 24.857-14.057 33.943-9.086 9.043-21.129 14.057-33.943 14.057-12.814 0-24.857-5.014-33.943-14.057-9.043-9.086-14.057-21.129-14.057-33.943 0-12.814 5.014-24.857 14.057-33.943 9.086-9.086 21.129-14.057 33.943-14.057zM212.032 232v0.064H136v390.72l197.504-76.16L212.032 232z" p-id="906"></path></svg>