<?xml version="1.0" standalone="no"?><!DOCTYPE svg PUBLIC "-//W3C//DTD SVG 1.1//EN" "http://www.w3.org/Graphics/SVG/1.1/DTD/svg11.dtd"><svg t="1677989539112" class="icon" viewBox="0 0 1024 1024" version="1.1" xmlns="http://www.w3.org/2000/svg" p-id="1704" xmlns:xlink="http://www.w3.org/1999/xlink" width="200" height="200"><path d="M928 160H96a32 32 0 0 0-32 32v640a32 32 0 0 0 32 32h832a32 32 0 0 0 32-32V192a32 32 0 0 0-32-32z m-40 172.544l-224.192 86.528L591.552 232H888v100.544zM604.096 442.24l-210.88 81.28L280.64 232h242.368l81.088 210.176v0.064zM212.032 232l121.472 314.624L136 622.784v-390.72h76.032V232zM136 691.456l220.544-85.12L428.224 792H136V691.456zM496.832 792l-80.64-208.768L888 401.152V792H496.832zM688 646.912a48 48 0 1 0 96 0 48 48 0 0 0-96 0z" p-id="1705"></path></svg>