<?xml version="1.0" standalone="no"?><!DOCTYPE svg PUBLIC "-//W3C//DTD SVG 1.1//EN" "http://www.w3.org/Graphics/SVG/1.1/DTD/svg11.dtd"><svg t="1670571377411" class="icon" viewBox="0 0 1024 1024" version="1.1" xmlns="http://www.w3.org/2000/svg" p-id="903" xmlns:xlink="http://www.w3.org/1999/xlink" width="200" height="200"><path d="M831.957333 181.333333h-640A106.794667 106.794667 0 0 0 85.333333 288v462.165333c0 58.794667 47.872 106.666667 106.666667 106.666667h177.749333c11.221333 0 21.76-5.248 28.458667-14.208l106.666667-142.208a33.877333 33.877333 0 0 0 2.005333-2.986667c1.493333-2.474667 3.285333-5.162667 5.12-7.722666 1.792 2.56 3.584 5.205333 5.12 7.68 0.597333 1.024 1.28 2.090667 2.005333 2.986666l106.666667 142.250667c6.698667 8.96 17.237333 14.208 28.458667 14.208H832c58.794667 0 106.666667-47.872 106.666667-106.666667V288a106.88 106.88 0 0 0-106.709334-106.666667z m35.541334 568.832c0 19.626667-15.914667 35.541333-35.541334 35.541334h-160l-94.933333-126.592c-41.514667-67.882667-88.661333-67.882667-130.133333 0L352 785.706667H192a35.584 35.584 0 0 1-35.498667-35.541334V288c0-19.626667 15.957333-35.541333 35.541334-35.541333h639.957333c19.626667 0 35.541333 15.957333 35.541333 35.541333v462.165333zM316.416 359.082667A124.586667 124.586667 0 0 0 192 483.541333a124.586667 124.586667 0 0 0 124.416 124.416 124.586667 124.586667 0 0 0 124.458667-124.416 124.586667 124.586667 0 0 0-124.458667-124.458666z m0 177.792c-29.397333 0-53.333333-23.936-53.333333-53.333334 0-29.44 23.936-53.333333 53.333333-53.333333 29.44 0 53.333333 23.893333 53.333333 53.333333 0 29.397333-23.893333 53.333333-53.333333 53.333334z m391.082667-177.792a124.586667 124.586667 0 0 0-124.416 124.458666 124.586667 124.586667 0 0 0 124.416 124.416 124.586667 124.586667 0 0 0 124.458666-124.416 124.586667 124.586667 0 0 0-124.458666-124.458666z m0 177.792c-29.397333 0-53.333333-23.936-53.333334-53.333334 0-29.44 23.936-53.333333 53.333334-53.333333 29.44 0 53.333333 23.893333 53.333333 53.333333 0 29.397333-23.893333 53.333333-53.333333 53.333334z" p-id="904"></path></svg>