<?xml version="1.0" standalone="no"?><!DOCTYPE svg PUBLIC "-//W3C//DTD SVG 1.1//EN" "http://www.w3.org/Graphics/SVG/1.1/DTD/svg11.dtd"><svg t="1678011321117" class="icon" viewBox="0 0 1024 1024" version="1.1" xmlns="http://www.w3.org/2000/svg" p-id="3948" xmlns:xlink="http://www.w3.org/1999/xlink" width="200" height="200"><path d="M807.808 251.52l152.704 152.704a80 80 0 0 1 0 113.152l-311.36 311.36a72 72 0 0 1-31.104 18.304l-118.464 33.92a31.872 31.872 0 0 1-8.576 15.36l-73.6 73.6a48 48 0 0 1-67.84 0L242.048 862.4a48 48 0 0 1 0-67.84l73.6-73.6a31.872 31.872 0 0 1 15.36-8.512l33.92-118.464a72.32 72.32 0 0 1 18.368-31.104l311.36-311.424a80 80 0 0 1 113.152 0v0.064zM338.24 788.864l-39.552 39.616 84.864 84.864 39.552-39.616-84.864-84.864z m130.112-209.28l-34.176 34.176-37.632 131.584 70.144 70.144 131.52-37.696 34.24-34.176-164.096-164.032zM570.24 477.76l-62.208 62.208L672 704l62.272-62.208L570.176 477.76h0.064z m175.552-175.552l-0.192 0.192-135.68 135.744L773.76 602.24l135.808-135.68a8 8 0 0 0 0.128-11.2L756.8 302.4a8 8 0 0 0-11.136-0.128l0.128-0.064z m-592.64 40L319.808 508.8a8 8 0 0 1 0 11.328l-39.616 39.616a8 8 0 0 1-11.328 0L102.208 393.088a8 8 0 0 1 0-11.264l39.616-39.68a8 8 0 0 1 11.264 0l0.064 0.064z m0-240L379.84 328.896a8 8 0 0 1 0 11.264l-39.616 39.68a8 8 0 0 1-11.264 0L102.208 153.024a8 8 0 0 1 0-11.264l39.616-39.68a8 8 0 0 1 11.264 0l0.064 0.128z m240 0L559.808 268.8a8 8 0 0 1 0 11.328l-39.616 39.616a8 8 0 0 1-11.328 0L342.208 153.088a8 8 0 0 1 0-11.264l39.616-39.68a8 8 0 0 1 11.264 0l0.064 0.064z" p-id="3949"></path></svg>