<?xml version="1.0" standalone="no"?><!DOCTYPE svg PUBLIC "-//W3C//DTD SVG 1.1//EN" "http://www.w3.org/Graphics/SVG/1.1/DTD/svg11.dtd"><svg t="1648462511843" class="icon" viewBox="0 0 1024 1024" version="1.1" xmlns="http://www.w3.org/2000/svg" p-id="109032" xmlns:xlink="http://www.w3.org/1999/xlink" width="200" height="200"><defs><style type="text/css">@font-face { font-family: feedback-iconfont; src: url("//at.alicdn.com/t/font_1031158_u69w8yhxdu.woff2?t=1630033759944") format("woff2"), url("//at.alicdn.com/t/font_1031158_u69w8yhxdu.woff?t=1630033759944") format("woff"), url("//at.alicdn.com/t/font_1031158_u69w8yhxdu.ttf?t=1630033759944") format("truetype"); }
</style></defs><path d="M628.6 346.2c0-57.6-22.4-111.8-63.2-152.6-40.6-40.6-94.6-63.1-152-63.2H136.3c-4.4 0-8 3.6-8 8v748c0 4.4 3.6 8 8 8h64c4.4 0 8-3.6 8-8V562h205.1c57.4-0.1 111.4-22.6 152-63.2 40.8-40.8 63.2-95 63.2-152.6zM412.8 482H208.3V210.4h204.5c74.9 0 135.8 60.9 135.8 135.8S487.7 482 412.8 482zM863.8 673.5h-4.5l-24.6-80.3c-4.1-13.4-16.5-22.6-30.6-22.6H574.2c-14.1 0-26.5 9.2-30.6 22.6L519 673.5h-4.5c-17.7 0-32 14.3-32 32v116.8c0 17.7 14.3 32 32 32h18.8v32c0 4.4 3.6 8 8 8h48c4.4 0 8-3.6 8-8v-32h184.6v32c0 4.4 3.6 8 8 8h48c4.4 0 8-3.6 8-8v-32h17.9c17.7 0 32-14.3 32-32V705.5c0-17.7-14.3-32-32-32zM572.3 799.9c-19.9 0-36-16.1-36-36s16.1-36 36-36 36 16.1 36 36-16.1 36-36 36z m5.3-126.4l14.4-46.9h194.4l14.4 46.9H577.6z m230.2 126.4c-19.9 0-36-16.1-36-36s16.1-36 36-36 36 16.1 36 36-16.1 36-36 36z" p-id="109033"></path></svg>