<?xml version="1.0" standalone="no"?><!DOCTYPE svg PUBLIC "-//W3C//DTD SVG 1.1//EN" "http://www.w3.org/Graphics/SVG/1.1/DTD/svg11.dtd"><svg t="1677644225775" class="icon" viewBox="0 0 1024 1024" version="1.1" xmlns="http://www.w3.org/2000/svg" p-id="2712" xmlns:xlink="http://www.w3.org/1999/xlink" width="200" height="200"><path d="M555.968 371.968l0.064 0.064c99.84 0 183.296 70.4 203.392 164.288A188.032 188.032 0 0 1 748.032 912h-384a187.968 187.968 0 0 1-11.456-375.68 208.064 208.064 0 0 1 203.392-164.352z m0.064 72.064h-5.824a136.064 136.064 0 0 0-126.848 105.6l-0.384 1.792-11.584 53.952-55.104 2.88A115.968 115.968 0 0 0 361.408 840h386.368a116.032 116.032 0 0 0 8.96-231.68l-1.92-0.128-54.4-3.52-11.392-53.312a136.128 136.128 0 0 0-131.072-107.328h-1.92z m-125.952-344c4.416 0 8 3.584 8 8v80.32a218.88 218.88 0 0 1 99.2 41.088l57.728-57.728a8 8 0 0 1 11.328 0l33.92 33.92a8 8 0 0 1 0 11.328l-57.728 57.728c12.544 16.896 22.784 35.584 30.08 55.68a255.488 255.488 0 0 0-34.944-5.44h-0.896l-0.896-0.96H552.32a257.92 257.92 0 0 0-13.248 0.576A155.968 155.968 0 1 0 282.88 501.76a234.752 234.752 0 0 0-57.408 29.888 218.688 218.688 0 0 1-37.12-93.696h-80.384a8 8 0 0 1-8-8v-48c0-4.48 3.584-8 8-8h80.256a218.88 218.88 0 0 1 41.152-99.328l-57.664-57.728a8 8 0 0 1 0-11.328l33.92-33.92a8 8 0 0 1 11.328 0l57.664 57.728a218.88 218.88 0 0 1 99.392-41.152v-80.192c0-4.48 3.584-8 8-8h48z" p-id="2713"></path></svg>