<?xml version="1.0" standalone="no"?><!DOCTYPE svg PUBLIC "-//W3C//DTD SVG 1.1//EN" "http://www.w3.org/Graphics/SVG/1.1/DTD/svg11.dtd"><svg t="1679048020110" class="icon" viewBox="0 0 1024 1024" version="1.1" xmlns="http://www.w3.org/2000/svg" p-id="1638" xmlns:xlink="http://www.w3.org/1999/xlink" width="200" height="200"><path d="M555.968 371.968l0.064 0.064c99.84 0 183.296 70.4 203.392 164.288A188.032 188.032 0 0 1 748.032 912h-384a187.968 187.968 0 0 1-11.456-375.68 208.064 208.064 0 0 1 203.392-164.352z m0.064 72.064h-5.824a136.064 136.064 0 0 0-126.848 105.6l-0.384 1.792-11.584 53.952-55.104 2.88A115.968 115.968 0 0 0 361.408 840h386.368a116.032 116.032 0 0 0 8.96-231.68l-1.92-0.128-54.4-3.52-11.392-53.312a136.128 136.128 0 0 0-131.072-107.328h-1.92z m-125.952-344c4.416 0 8 3.584 8 8v80.32a218.88 218.88 0 0 1 99.2 41.088l57.728-57.728a8 8 0 0 1 11.328 0l33.92 33.92a8 8 0 0 1 0 11.328l-57.728 57.728c8.576 11.52 16 23.872 22.272 36.928l0.384 0.896 0.64 1.344 0.64 1.536 0.512 1.088a8 8 0 0 1-8.704 11.072l-1.28-0.192-1.088-0.192-1.088-0.192-1.024-0.192h-0.512a256 256 0 0 0-15.616-1.856l-1.728-0.128-2.56-0.128-2.432-0.128-1.6-0.128-2.24-0.064-2.24-0.128h-1.344l-1.408-0.128h-1.92l-1.92-0.064h-1.152l-1.152-0.064c-3.52 0-7.04 0-10.624 0.192l-1.728 0.064a8 8 0 0 1-7.104-3.52l-1.024-1.536-0.96-1.472-0.96-1.344-0.896-1.28-0.576-0.832-1.024-1.472-0.768-1.024-0.704-0.96-0.448-0.576A155.968 155.968 0 1 0 275.84 492.032l0.64 1.024 0.384 0.448a8 8 0 0 1-3.648 11.904l-0.448 0.192a234.357 234.357 0 0 0-40.064 21.12l-0.64 0.512a8 8 0 0 1-11.136-2.24l-0.192-0.256a218.624 218.624 0 0 1-32.448-86.72h-80.256a8 8 0 0 1-8-8v-48c0-4.48 3.584-8 8-8h80.256a218.88 218.88 0 0 1 41.152-99.328l-57.664-57.728a8 8 0 0 1 0-11.328l33.92-33.92a8 8 0 0 1 11.328 0l57.664 57.728a218.88 218.88 0 0 1 99.392-41.152v-80.256c0-4.48 3.584-8 8-8h48z" p-id="1639"></path></svg>