<?xml version="1.0" standalone="no"?><!DOCTYPE svg PUBLIC "-//W3C//DTD SVG 1.1//EN" "http://www.w3.org/Graphics/SVG/1.1/DTD/svg11.dtd"><svg t="1648463776114" class="icon" viewBox="0 0 1024 1024" version="1.1" xmlns="http://www.w3.org/2000/svg" p-id="112045" xmlns:xlink="http://www.w3.org/1999/xlink" width="200" height="200"><defs><style type="text/css">@font-face { font-family: feedback-iconfont; src: url("//at.alicdn.com/t/font_1031158_u69w8yhxdu.woff2?t=1630033759944") format("woff2"), url("//at.alicdn.com/t/font_1031158_u69w8yhxdu.woff?t=1630033759944") format("woff"), url("//at.alicdn.com/t/font_1031158_u69w8yhxdu.ttf?t=1630033759944") format("truetype"); }
</style></defs><path d="M512 64.5c-210.86 0-381.79 143.66-381.79 390.94S301.14 960 512 960s381.79-257.27 381.79-504.56S722.86 64.5 512 64.5z m-32 452.92c-71.07-2.31-138.36-12.27-192.18-28.64-27.33-8.31-50.64-18.18-67.41-28.53-8.73-5.39-14.28-10.07-17.52-13.37 3.24-3.31 8.79-8 17.52-13.38 16.77-10.35 40.08-20.21 67.41-28.53 53.82-16.36 121.11-26.33 192.18-28.64z m64-141.09c71.07 2.31 138.36 12.28 192.18 28.64 27.33 8.32 50.64 18.18 67.41 28.53 8.73 5.4 14.28 10.07 17.52 13.38-3.24 3.3-8.79 8-17.52 13.37-16.77 10.35-40.08 20.22-67.41 28.53-53.82 16.37-121.11 26.33-192.18 28.64zM731.91 219c39.69 38.39 66.72 88.13 80.12 146.47-62.6-29.72-158.65-49.85-268-53.17V137.83a335.41 335.41 0 0 1 91.07 20.3c37 14.05 69.58 34.53 96.81 60.87z m-439.82 0c27.23-26.33 59.81-46.81 96.84-60.86A335.41 335.41 0 0 1 480 137.83v174.46c-109.38 3.32-205.43 23.45-268 53.17 13.37-58.34 40.4-108.08 80.09-146.46z m8.22 539.18c-30-41.31-54.76-90.42-71.68-142a538.67 538.67 0 0 1-21.18-90.06C269.9 557 368 578.07 480 581.46v303.79c-26.65-4.57-53.1-14.84-79-30.71-36.24-22.2-71-55.54-100.69-96.37z m423.38 0C694.05 799 659.24 832.34 623 854.54c-25.9 15.87-52.35 26.14-79 30.71V581.46c112-3.39 210.1-24.46 272.55-55.36a538.67 538.67 0 0 1-21.18 90.06c-16.92 51.59-41.71 100.7-71.68 142.01z" p-id="112046"></path></svg>