<?xml version="1.0" standalone="no"?><!DOCTYPE svg PUBLIC "-//W3C//DTD SVG 1.1//EN" "http://www.w3.org/Graphics/SVG/1.1/DTD/svg11.dtd"><svg t="1678008740411" class="icon" viewBox="0 0 1024 1024" version="1.1" xmlns="http://www.w3.org/2000/svg" p-id="1050" xmlns:xlink="http://www.w3.org/1999/xlink" width="200" height="200"><path d="M506.432 625.92H512a621.44 621.44 0 0 1 269.76 60.544c16.384 7.744 26.88 24.192 27.136 42.368v128.64c0 3.2-2.56 5.76-5.76 5.888h-582.08a5.952 5.952 0 0 1-5.952-5.76V729.408a47.522 47.522 0 0 1 27.136-42.944 621.376 621.376 0 0 1 264.192-60.608zM289.024 744.192l-1.92 0.832v46.336h449.792v-46.272l-1.92-0.832a548.8 548.8 0 0 0-220.48-46.4h-2.752a549.376 549.376 0 0 0-222.72 46.336zM719.936 408.64h4.032c68.864 0 134.144 14.656 195.968 43.968a34.56 34.56 0 0 1 19.712 30.72v93.44a4.288 4.288 0 0 1-4.224 4.352H622.72a175.488 175.488 0 0 0 47.488-59.968h209.408v-20.928a390.848 390.848 0 0 0-153.792-31.616h-2.048c-12.672 0-25.344 0.576-38.016 1.728a175.51 175.51 0 0 0-1.536-60.096c11.904-1.024 23.808-1.536 35.712-1.6z m-424 0h4.096c13.376 0 26.56 0.512 39.68 1.664a176.256 176.256 0 0 0-1.536 60.096 409.856 409.856 0 0 0-36.352-1.792h-2.048a391.296 391.296 0 0 0-153.792 30.912l-1.6 0.704v20.928h209.344c11.328 23.296 27.584 43.776 47.552 59.968H88.704a4.288 4.288 0 0 1-4.352-4.16v-93.184a34.56 34.56 0 0 1 19.712-31.168 451.264 451.264 0 0 1 191.872-43.968zM512 317.12a127.68 127.68 0 0 1 1.344 255.36H512a127.68 127.68 0 0 1-2.112-255.36H512z m0 72a55.68 55.68 0 1 0 0 111.36 55.68 55.68 0 0 0 0-111.36z m212.032-204.8a92.736 92.736 0 0 1 0.96 185.472h-0.96a92.736 92.736 0 0 1-1.536-185.408h1.536z m-424.064 0a92.736 92.736 0 0 1 1.024 185.472h-1.024a92.736 92.736 0 0 1-1.472-185.408h1.536z m424 60.032a32.704 32.704 0 1 0 0 65.472 32.704 32.704 0 0 0 0-65.472z m-423.936 0a32.704 32.704 0 1 0 0 65.472 32.704 32.704 0 0 0 0-65.472z" p-id="1051"></path></svg>