<?xml version="1.0" standalone="no"?><!DOCTYPE svg PUBLIC "-//W3C//DTD SVG 1.1//EN" "http://www.w3.org/Graphics/SVG/1.1/DTD/svg11.dtd"><svg t="1721976032947" class="icon" viewBox="0 0 1024 1024" version="1.1" xmlns="http://www.w3.org/2000/svg" p-id="1557" xmlns:xlink="http://www.w3.org/1999/xlink" width="200" height="200"><path d="M838.068 616.761a8.094 8.094 0 0 1 4.563 8.783l-0.095 0.521c-11.292 61.328-39.79 118.637-82.739 164.909C703.549 851.574 608.665 886 526.057 886h-3.21C547.444 890.82 566 912.493 566 938.5c0 29.547-23.953 53.5-53.5 53.5S459 968.047 459 938.5c0-26.007 18.557-47.68 43.152-52.5h-4.208c-82.609 0-177.493-34.427-233.741-95.026-41.701-44.927-69.778-100.259-81.71-159.571l-0.198-0.998a8.653 8.653 0 0 1 16.173-5.638l0.122 0.245c11.772 24.531 25.606 46.096 41.502 64.695l1.259 1.462 22.852 26.35c55.467 63.958 151.643 94.415 236.138 95.017l2.562 0.01h18.194c84.58 0 181.047-29.818 237.012-93.099l1.688-1.928 22.852-26.35c16.893-19.479 31.561-42.493 44.005-69.042l0.664-1.426a8.096 8.096 0 0 1 10.75-3.94zM792.119 50.792l1.087 1.03 31.363 31.405a80.163 80.163 0 0 1 23.396 54.289l0.035 2.357v328.665c0 64.352-23.207 126.539-65.35 175.12L759.796 670c-56.028 64.586-153.266 95-238.7 95h-18.194c-85.434 0-182.672-30.414-238.7-95l-22.852-26.342C199.207 595.077 176 532.89 176 468.538V139.873a80.176 80.176 0 0 1 23.431-56.646l31.363-31.406c10.29-10.303 26.928-10.444 37.39-0.317l112.184 108.593h263.263L755.816 51.504c10.101-9.778 25.96-9.984 36.303-0.712z m-18.214 72.273L669.533 224.097H354.466L250.094 123.065l-5.37 5.378A16.204 16.204 0 0 0 240 139.458v329.08c0 48.946 17.65 96.242 49.694 133.181l22.852 26.343C351.41 672.86 426.784 701 502.902 701h18.194c76.118 0 151.493-28.14 190.358-72.941l22.851-26.339C766.35 564.78 784 517.484 784 468.538V140.352l-0.018-1.202-0.007-0.172a16.157 16.157 0 0 0-4.405-10.233l-0.286-0.293-5.379-5.387zM552 546.277c11.046 0 20 8.938 20 19.962 0 4.32-1.404 8.522-4 11.978l-34.667 46.135-0.267 0.35c-8.903 11.456-25.402 13.705-37.066 4.973a26.642 26.642 0 0 1-5.333-5.323L456 578.217l-0.22-0.299c-6.366-8.802-4.517-21.108 4.22-27.648a20.024 20.024 0 0 1 12-3.993h80zM388 348c19.882 0 36 16.118 36 36s-16.118 36-36 36-36-16.118-36-36 16.118-36 36-36z m248 0c19.882 0 36 16.118 36 36s-16.118 36-36 36-36-16.118-36-36 16.118-36 36-36z" p-id="1558"></path></svg>