<?xml version="1.0" standalone="no"?><!DOCTYPE svg PUBLIC "-//W3C//DTD SVG 1.1//EN" "http://www.w3.org/Graphics/SVG/1.1/DTD/svg11.dtd"><svg t="1672994427928" class="icon" viewBox="0 0 1024 1024" version="1.1" xmlns="http://www.w3.org/2000/svg" p-id="1581" xmlns:xlink="http://www.w3.org/1999/xlink" width="200" height="200"><path d="M877.12 238.72L770.56 132.288a68.8 68.8 0 0 0-97.6 0l-114.752 114.56a68.992 68.992 0 0 0 0 97.728l89.6 89.728a405.44 405.44 0 0 1-86.4 127.296 406.208 406.208 0 0 1-127.168 86.592l-89.6-89.664a68.8 68.8 0 0 0-97.6 0l-114.816 114.496a68.992 68.992 0 0 0 0 97.792l106.432 106.368a119.744 119.744 0 0 0 103.36 33.28c132.48-21.76 263.808-92.288 369.92-198.272 105.984-106.24 176.384-237.568 198.4-370.112a119.232 119.232 0 0 0-33.28-103.36z m-37.632 91.52c-19.52 117.888-82.88 235.52-178.368 330.944-95.488 95.488-212.992 158.912-330.88 178.432a47.04 47.04 0 0 1-40.832-13.248L184.896 721.92 295.68 611.008l119.808 120 0.896 0.896 21.632-8a481.28 481.28 0 0 0 285.696-285.824l8-21.568-120.832-120.704 110.848-110.912 104.448 104.512a46.784 46.784 0 0 1 13.312 40.768z" p-id="1582"></path></svg>