<?xml version="1.0" standalone="no"?><!DOCTYPE svg PUBLIC "-//W3C//DTD SVG 1.1//EN" "http://www.w3.org/Graphics/SVG/1.1/DTD/svg11.dtd"><svg t="1656324739563" class="icon" viewBox="0 0 1024 1024" version="1.1" xmlns="http://www.w3.org/2000/svg" p-id="22690" xmlns:xlink="http://www.w3.org/1999/xlink" width="200" height="200"><defs><style type="text/css">@font-face { font-family: feedback-iconfont; src: url("//at.alicdn.com/t/font_1031158_u69w8yhxdu.woff2?t=1630033759944") format("woff2"), url("//at.alicdn.com/t/font_1031158_u69w8yhxdu.woff?t=1630033759944") format("woff"), url("//at.alicdn.com/t/font_1031158_u69w8yhxdu.ttf?t=1630033759944") format("truetype"); }
</style></defs><path d="M739.35 953.74c-1.6 0-3.21-0.06-4.82-0.17a716.38 716.38 0 0 1-664.1-664.1 68.06 68.06 0 0 1 19.75-52.94L247.07 79.64a32 32 0 0 1 45.26 0l183.5 183.5a32 32 0 0 1 0 45.25L351.45 432.77a477.78 477.78 0 0 0 239.77 239.78l124.39-124.38a32 32 0 0 1 45.25 0l183.51 183.5a32 32 0 0 1 0 45.26l-156.9 156.89a68 68 0 0 1-48.12 19.92z m-597-667.59a644.36 644.36 0 0 0 595.5 595.47L865.17 754.3 738.23 627.36 636.35 729.25a59.67 59.67 0 0 1-66 12.77A549.62 549.62 0 0 1 282 453.63a59.7 59.7 0 0 1 12.77-66l101.87-101.86L269.7 158.83z" p-id="22691"></path></svg>