<?xml version="1.0" standalone="no"?><!DOCTYPE svg PUBLIC "-//W3C//DTD SVG 1.1//EN" "http://www.w3.org/Graphics/SVG/1.1/DTD/svg11.dtd"><svg t="1704281563706" class="icon" viewBox="0 0 1024 1024" version="1.1" xmlns="http://www.w3.org/2000/svg" p-id="1419" xmlns:xlink="http://www.w3.org/1999/xlink" width="200" height="200"><path d="M859.558 310.091a28.853 28.853 0 0 1 28.913 28.913V880.76a28.853 28.853 0 0 1-28.913 28.913H164.442a28.853 28.853 0 0 1-28.913-28.913V339.125a28.844 28.844 0 0 1 28.913-28.913h169.563a7.228 7.228 0 0 1 7.228 7.228v50.598a7.21 7.21 0 0 1-7.228 7.228H200.584V844.8h622.832V375.206h-133.42a7.288 7.288 0 0 1-7.229-7.229V317.32a7.228 7.228 0 0 1 7.228-7.229h169.563z m-297.924-151.19l94.99 73.848a15.059 15.059 0 0 1 5.784 11.867v53.609a7.53 7.53 0 0 1-12.168 5.903l-40.538-31.563v330.45a7.53 7.53 0 0 1-7.53 7.53h-45.176a7.53 7.53 0 0 1-7.53-7.53V164.745a7.53 7.53 0 0 1 12.168-5.904z m-79.932-1.928a7.494 7.494 0 0 1 7.53 7.53v438.272a7.53 7.53 0 0 1-12.168 5.903l-94.992-73.91a15.059 15.059 0 0 1-5.782-11.865v-53.55a7.53 7.53 0 0 1 12.167-5.963l40.539 31.563v-330.45a7.532 7.532 0 0 1 7.53-7.53h45.176z" p-id="1420"></path></svg>