<?xml version="1.0" standalone="no"?><!DOCTYPE svg PUBLIC "-//W3C//DTD SVG 1.1//EN" "http://www.w3.org/Graphics/SVG/1.1/DTD/svg11.dtd"><svg t="1709114381927" class="icon" viewBox="0 0 1024 1024" version="1.1" xmlns="http://www.w3.org/2000/svg" p-id="4936" xmlns:xlink="http://www.w3.org/1999/xlink" width="200" height="200"><path d="M859.558 156.672a28.853 28.853 0 0 1 28.913 28.913V880.76a28.853 28.853 0 0 1-28.913 28.913H164.442a28.853 28.853 0 0 1-28.913-28.913V185.645a28.844 28.844 0 0 1 28.913-28.913l1.024 1.807-1.024-1.927h695.116z m-679.093 28.913l20.119 36.262V844.68h622.832V221.907H200.584l-20.12-36.262z m373.82 122.7l94.991 73.908a15.059 15.059 0 0 1 5.783 11.866v53.55a7.53 7.53 0 0 1-12.168 5.963l-40.538-31.564V752.46a7.53 7.53 0 0 1-7.53 7.53h-45.176a7.53 7.53 0 0 1-7.53-7.53V314.187a7.53 7.53 0 0 1 12.168-5.903z m-79.932-1.868a7.532 7.532 0 0 1 7.53 7.53v438.271a7.53 7.53 0 0 1-12.168 5.903l-94.991-73.908a15.059 15.059 0 0 1-5.783-11.867v-53.549a7.53 7.53 0 0 1 12.168-5.963l40.538 31.563v-330.45a7.494 7.494 0 0 1 7.53-7.53h45.176z" p-id="4937"></path></svg>