<?xml version="1.0" standalone="no"?><!DOCTYPE svg PUBLIC "-//W3C//DTD SVG 1.1//EN" "http://www.w3.org/Graphics/SVG/1.1/DTD/svg11.dtd"><svg t="1678006111597" class="icon" viewBox="0 0 1024 1024" version="1.1" xmlns="http://www.w3.org/2000/svg" p-id="1854" xmlns:xlink="http://www.w3.org/1999/xlink" width="200" height="200"><path d="M512 64a448 448 0 1 0 0 896 448 448 0 0 0 0-896z m0 820.032a372.032 372.032 0 0 1 0-744.064 372.032 372.032 0 0 1 0 744.064z m87.488-334.72c34.816-12.8 78.4-49.024 78.4-119.232 0-71.168-45.44-131.072-144.192-131.072H377.984a8 8 0 0 0-8 8v409.984c0 4.416 3.648 8 8 8h54.528a8 8 0 0 0 8-8V561.28h88.704l74.56 159.168c1.28 2.816 4.096 4.608 7.232 4.608h62.016a7.872 7.872 0 0 0 7.04-11.52l-80.512-164.224z m-77.44-44.288h-81.6V356.992h83.392c48 0 80.896 25.28 80.896 75.52 0 46.912-29.824 72.512-82.816 72.512z" p-id="1855"></path></svg>