<?xml version="1.0" standalone="no"?><!DOCTYPE svg PUBLIC "-//W3C//DTD SVG 1.1//EN" "http://www.w3.org/Graphics/SVG/1.1/DTD/svg11.dtd"><svg t="1656324450919" class="icon" viewBox="0 0 1024 1024" version="1.1" xmlns="http://www.w3.org/2000/svg" p-id="22690" xmlns:xlink="http://www.w3.org/1999/xlink" width="200" height="200"><defs><style type="text/css">@font-face { font-family: feedback-iconfont; src: url("//at.alicdn.com/t/font_1031158_u69w8yhxdu.woff2?t=1630033759944") format("woff2"), url("//at.alicdn.com/t/font_1031158_u69w8yhxdu.woff?t=1630033759944") format("woff"), url("//at.alicdn.com/t/font_1031158_u69w8yhxdu.ttf?t=1630033759944") format("truetype"); }
</style></defs><path d="M512 64a448 448 0 1 0 0 896 448 448 0 0 0 0-895.927z m0 819.931a372.078 372.078 0 1 1 0.146-744.082A372.078 372.078 0 0 1 512 884.005z" p-id="22691"></path><path d="M719.433 499.127l-296.155-215.04a15.872 15.872 0 0 0-25.308 12.946v429.934c0 13.166 14.848 20.48 25.308 12.946l296.155-215.04a15.872 15.872 0 0 0 0-25.746zM461.824 633.125v-242.25L628.517 512 461.75 633.125z" p-id="22692"></path></svg>
