<?xml version="1.0" standalone="no"?><!DOCTYPE svg PUBLIC "-//W3C//DTD SVG 1.1//EN" "http://www.w3.org/Graphics/SVG/1.1/DTD/svg11.dtd"><svg t="1648449078144" class="icon" viewBox="0 0 1024 1024" version="1.1" xmlns="http://www.w3.org/2000/svg" p-id="67922" xmlns:xlink="http://www.w3.org/1999/xlink" width="200" height="200"><defs><style type="text/css">@font-face { font-family: feedback-iconfont; src: url("//at.alicdn.com/t/font_1031158_u69w8yhxdu.woff2?t=1630033759944") format("woff2"), url("//at.alicdn.com/t/font_1031158_u69w8yhxdu.woff?t=1630033759944") format("woff"), url("//at.alicdn.com/t/font_1031158_u69w8yhxdu.ttf?t=1630033759944") format("truetype"); }
</style></defs><path d="M512 64C264.618667 64 64 264.618667 64 512S264.618667 960 512 960 960 759.381333 960 512 759.381333 64 512 64z m0 820.010667A372.053333 372.053333 0 0 1 139.989333 512 372.053333 372.053333 0 0 1 512 139.989333 372.053333 372.053333 0 0 1 884.010667 512 372.053333 372.053333 0 0 1 512 884.010667z" p-id="67923"></path><path d="M719.36 499.114667l-296.064-215.04a15.872 15.872 0 0 0-25.301333 12.928v429.994666c0 13.098667 14.805333 20.48 25.301333 12.885334l296.106667-214.997334a15.914667 15.914667 0 0 0 0-25.770666z" p-id="67924"></path></svg>