<?xml version="1.0" standalone="no"?><!DOCTYPE svg PUBLIC "-//W3C//DTD SVG 1.1//EN" "http://www.w3.org/Graphics/SVG/1.1/DTD/svg11.dtd"><svg t="1657269794029" class="icon" viewBox="0 0 1024 1024" version="1.1" xmlns="http://www.w3.org/2000/svg" p-id="1214" xmlns:xlink="http://www.w3.org/1999/xlink" width="200" height="200"><defs><style type="text/css">@font-face { font-family: feedback-iconfont; src: url("//at.alicdn.com/t/font_1031158_u69w8yhxdu.woff2?t=1630033759944") format("woff2"), url("//at.alicdn.com/t/font_1031158_u69w8yhxdu.woff?t=1630033759944") format("woff"), url("//at.alicdn.com/t/font_1031158_u69w8yhxdu.ttf?t=1630033759944") format("truetype"); }
</style></defs><path d="M512 64C264.619 64 64 264.619 64 512s200.619 448 448 448 448-200.619 448-448S759.381 64 512 64z m0 820.01A372.053 372.053 0 0 1 139.99 512 372.053 372.053 0 0 1 512 139.99 372.053 372.053 0 0 1 884.01 512 372.053 372.053 0 0 1 512 884.01z" p-id="1215"></path><path d="M719.36 499.115l-296.064-215.04a15.872 15.872 0 0 0-25.301 12.928v429.994c0 13.099 14.805 20.48 25.301 12.886l296.107-214.998a15.915 15.915 0 0 0 0-25.77z" p-id="1216"></path></svg>