<?xml version="1.0" standalone="no"?><!DOCTYPE svg PUBLIC "-//W3C//DTD SVG 1.1//EN" "http://www.w3.org/Graphics/SVG/1.1/DTD/svg11.dtd"><svg t="1677999442448" class="icon" viewBox="0 0 1024 1024" version="1.1" xmlns="http://www.w3.org/2000/svg" p-id="1810" xmlns:xlink="http://www.w3.org/1999/xlink" width="200" height="200"><path d="M488 112a424 424 0 0 1 423.936 416.96L912 536v80a32 32 0 0 1-32 32h-36.032v232h40.064c4.416 0 7.936 3.584 7.936 8v40a8 8 0 0 1-7.936 8h-366.08a8 8 0 0 1-7.936-8v-40c0-4.416 3.584-8 8-8h40V648H496a120 120 0 0 1-120-120v-62.016H144v40a8 8 0 0 1-8 8H96a8 8 0 0 1-8-8V140.032c0-4.48 3.584-8.064 8-8.064h40c4.416 0 8 3.584 8 8.064v39.936h232V144a32 32 0 0 1 32-32h80z m292.032 536h-158.08v232h158.08V648zM488 240h-40v156.032a180.032 180.032 0 0 1 179.968 176.96V576H784v-40a296 296 0 0 0-291.136-295.936L488 240z m360 288a24 24 0 1 0 0 48 24 24 0 0 0 0-48z m-360-16a24 24 0 1 0 0 48 24 24 0 0 0 0-48z m336-128a24 24 0 1 0 0 48 24 24 0 0 0 0-48zM376 243.968H144v158.08h232v-158.08z m364.032 16a24 24 0 1 0 0 48 24 24 0 0 0 0-48zM615.936 176a24 24 0 1 0 0 48 24 24 0 0 0 0-48z m-144-24a24 24 0 1 0 0 48 24 24 0 0 0 0-48z" p-id="1811"></path></svg>