<?xml version="1.0" standalone="no"?><!DOCTYPE svg PUBLIC "-//W3C//DTD SVG 1.1//EN" "http://www.w3.org/Graphics/SVG/1.1/DTD/svg11.dtd"><svg t="1678329991919" class="icon" viewBox="0 0 1024 1024" version="1.1" xmlns="http://www.w3.org/2000/svg" p-id="1412" xmlns:xlink="http://www.w3.org/1999/xlink" width="200" height="200"><path d="M904 472H552V120a8 8 0 0 0-8-8h-64a8 8 0 0 0-8 8v352H120a8 8 0 0 0-8 8v64c0 4.48 3.584 8 8 8h352v352c0 4.416 3.584 8 8 8h64a8 8 0 0 0 8-8V552h352a8 8 0 0 0 8-8v-64a8 8 0 0 0-8-8z" p-id="1413"></path></svg>