<?xml version="1.0" standalone="no"?><!DOCTYPE svg PUBLIC "-//W3C//DTD SVG 1.1//EN" "http://www.w3.org/Graphics/SVG/1.1/DTD/svg11.dtd"><svg t="1678331266488" class="icon" viewBox="0 0 1024 1024" version="1.1" xmlns="http://www.w3.org/2000/svg" p-id="1794" xmlns:xlink="http://www.w3.org/1999/xlink" width="200" height="200"><path d="M269.568 136c106.368 0 158.464 48.32 158.464 204.16 0 145.024-42.24 206.144-158.464 206.144h-72.896V904a8 8 0 0 1-8.064 8h-54.656a8 8 0 0 1-8-7.744V147.648c0-6.4 5.248-11.648 11.712-11.648h131.904z m1.984 75.968h-74.88V470.4h74.88c65.024 0 79.744-52.288 79.744-129.28 0-76.864-14.72-129.152-79.744-129.152z m279.04-65.536l140.544 380.16 139.52-380.16A16 16 0 0 1 845.76 136h42.56c6.464 0 11.648 5.248 11.648 11.648L899.648 904a8 8 0 0 1-8 8H834.88a8 8 0 0 1-8-7.744V904l0.32-565.76-110.336 317.696a16 16 0 0 1-15.104 10.752h-24.32a16 16 0 0 1-15.104-10.752L554.048 346.112 553.728 904a8 8 0 0 1-8.064 8H488.96a8 8 0 0 1-8-7.744V904l0.32-756.352c0-6.4 5.248-11.648 11.648-11.648h42.688a16 16 0 0 1 14.976 10.432z" p-id="1795"></path></svg>