<?xml version="1.0" standalone="no"?><!DOCTYPE svg PUBLIC "-//W3C//DTD SVG 1.1//EN" "http://www.w3.org/Graphics/SVG/1.1/DTD/svg11.dtd"><svg t="1648460321803" class="icon" viewBox="0 0 1024 1024" version="1.1" xmlns="http://www.w3.org/2000/svg" p-id="105371" xmlns:xlink="http://www.w3.org/1999/xlink" width="200" height="200"><defs><style type="text/css">@font-face { font-family: feedback-iconfont; src: url("//at.alicdn.com/t/font_1031158_u69w8yhxdu.woff2?t=1630033759944") format("woff2"), url("//at.alicdn.com/t/font_1031158_u69w8yhxdu.woff?t=1630033759944") format("woff"), url("//at.alicdn.com/t/font_1031158_u69w8yhxdu.ttf?t=1630033759944") format("truetype"); }
</style></defs><path d="M292 184a128 128 0 1 1 0 256H184V184h108m0-72H144a32 32 0 0 0-32 32v760a8 8 0 0 0 8 8h56a8 8 0 0 0 8-8V512h108c110.46 0 200-89.54 200-200s-89.54-200-200-200zM904 912h-56a8 8 0 0 1-8-8V385.11l-87.71 257c-9.86 28.89-50.72 28.89-60.57 0l-87.72-257V904a8 8 0 0 1-8 8h-56a8 8 0 0 1-8-8V144c0-36.17 50.6-44.57 62.29-10.33L722 508l127.72-374.3C861.4 99.46 912 107.86 912 144v760a8 8 0 0 1-8 8z" p-id="105372"></path></svg>