<?xml version="1.0" standalone="no"?><!DOCTYPE svg PUBLIC "-//W3C//DTD SVG 1.1//EN" "http://www.w3.org/Graphics/SVG/1.1/DTD/svg11.dtd"><svg t="1658806405846" class="icon" viewBox="0 0 1024 1024" version="1.1" xmlns="http://www.w3.org/2000/svg" p-id="23152" xmlns:xlink="http://www.w3.org/1999/xlink" width="200" height="200"><defs><style type="text/css">@font-face { font-family: feedback-iconfont; src: url("//at.alicdn.com/t/font_1031158_u69w8yhxdu.woff2?t=1630033759944") format("woff2"), url("//at.alicdn.com/t/font_1031158_u69w8yhxdu.woff?t=1630033759944") format("woff"), url("//at.alicdn.com/t/font_1031158_u69w8yhxdu.ttf?t=1630033759944") format("truetype"); }
</style></defs><path d="M980.761 462.879a8 8 0 0 1 8 8v22.934a8 8 0 0 1-8 8h-78.066v78.28c4.099-5.329 9.427-10.657 15.164-13.935 6.148-3.279 13.525-5.328 20.902-5.328 18.033 0 29.918 5.738 39.345 17.623 12.295 15.164 13.934 42.213 13.934 77.869l-0.001 3.41c-0.04 36.648-0.983 61.508-19.671 80.197-11.476 11.475-28.279 18.032-46.312 18.032-18.033 0-35.246-5.737-46.721-16.803-11.476-11.065-18.443-25.41-18.443-48.77v-6.345a8 8 0 0 1 8-8h27.443a8 8 0 0 1 8 8v12.082c0 17.623 9.426 25.41 21.721 25.41 6.967 0 11.885-2.049 15.984-7.787 6.189-8.123 6.537-28.659 6.556-51.27l0.001-3.243v-4.443c-0.014-22.396-0.29-39.451-5.737-48.011-3.689-6.148-9.837-9.017-16.804-9.017-12.295 0-21.721 9.017-21.721 25l-0.004 0.226a6.148 6.148 0 0 1-6.144 5.922h-27.246a8 8 0 0 1-8-8V470.879a8 8 0 0 1 8-8zM700.244 459.6c17.623 0 33.197 4.508 45.082 15.574 11.476 10.656 19.263 27.05 19.263 50.41 0 21.311-6.558 45.902-15.984 63.934l-65.984 126.23h73.968a8 8 0 0 1 8 8v22.935a8 8 0 0 1-8 8h-112.28a8 8 0 0 1-8-8v-25.011a16 16 0 0 1 1.773-7.32l71.179-138.358c6.557-12.295 11.885-30.738 11.885-52.05 0-16.803-9.017-25.41-20.902-25.41-11.885 0-21.721 8.197-21.721 25v10.853a8 8 0 0 1-8 8H643.08a8 8 0 0 1-8-8v-9.213c0-23.36 6.557-37.295 18.033-48.36 11.475-11.066 29.508-17.214 47.131-17.214z m133.701 244.673a8 8 0 0 1 8 8v34.41a8 8 0 0 1-8 8h-34.41a8 8 0 0 1-8-8v-34.41a8 8 0 0 1 8-8zM140.385 216.36c73.106 0 114.397 33.168 114.397 140.12 0 99.505-34.522 141.473-114.397 141.473H90.294v248.364a8 8 0 0 1-8 8H40.08a8 8 0 0 1-8-8V224.36a8 8 0 0 1 8-8z m188.867 0a16 16 0 0 1 15.036 10.532l93.645 257.523 92.982-257.49a16 16 0 0 1 15.05-10.565h35.595a8 8 0 0 1 8 8v521.957a8 8 0 0 1-8 8h-42.214a8 8 0 0 1-8-8V355.126L458.54 569.677a16 16 0 0 1-15.151 10.859h-12.967a16 16 0 0 1-15.14-10.83l-71.439-209.165v385.776a8 8 0 0 1-8 8h-42.214a8 8 0 0 1-8-8V224.36a8 8 0 0 1 8-8z m-187.513 52.122H90.294v177.35h51.445c44.676 0 54.83-35.877 54.83-88.675 0-52.8-10.154-88.675-54.83-88.675z" p-id="23153"></path></svg>