<?xml version="1.0" standalone="no"?><!DOCTYPE svg PUBLIC "-//W3C//DTD SVG 1.1//EN" "http://www.w3.org/Graphics/SVG/1.1/DTD/svg11.dtd"><svg t="1677999481649" class="icon" viewBox="0 0 1024 1024" version="1.1" xmlns="http://www.w3.org/2000/svg" p-id="3203" xmlns:xlink="http://www.w3.org/1999/xlink" width="200" height="200"><path d="M247.168 435.52h-38.912a15.488 15.488 0 0 0-14.976 11.52l-98.432 368a15.488 15.488 0 0 0 14.976 19.456h38.912a15.488 15.488 0 0 0 14.976-11.52l33.536-125.44h595.456l33.728 125.824a15.488 15.488 0 0 0 14.848 11.136h39.168a15.488 15.488 0 0 0 14.72-19.52l-98.56-368.32a15.488 15.488 0 0 0-14.912-11.136h-39.168a15.488 15.488 0 0 0-15.168 15.488v0.512c0 1.152 0.192 2.368 0.512 3.456l45.888 171.52H216.256l45.888-171.52a15.488 15.488 0 0 0-14.976-19.456z m-83.392-206.08H72a7.488 7.488 0 0 0-7.488 7.552v56A7.488 7.488 0 0 0 72 300.48h132.736l-40.96-71.04z m654.528 0l40.96 71.04h91.712a7.488 7.488 0 0 0 7.552-7.488v-56a7.488 7.488 0 0 0-7.552-7.488H818.304z m-461.056 0h-118.4l40.96 71.04h118.4l-40.96-71.04z m193.024 0H432.32l40.96 71.04h117.952l-40.96-71.04z m192.96 0H625.28l40.96 71.04h118.016l-40.96-71.04z" p-id="3204"></path></svg>