<?xml version="1.0" standalone="no"?><!DOCTYPE svg PUBLIC "-//W3C//DTD SVG 1.1//EN" "http://www.w3.org/Graphics/SVG/1.1/DTD/svg11.dtd"><svg t="1706282529003" class="icon" viewBox="0 0 1024 1024" version="1.1" xmlns="http://www.w3.org/2000/svg" p-id="3787" xmlns:xlink="http://www.w3.org/1999/xlink" width="200" height="200"><path d="M280 736c4.416 0 8 3.584 8 8v48h448v-48c0-4.416 3.584-8 8-8h48V288h-48a8 8 0 0 1-8-8v-48H288v48a8 8 0 0 1-8 8h-48v448h48z m-48 56h-64v64h64v-64z m624 0h-64v64h64v-64zM232.064 168h-64v64h64v-64z m624 0h-64v64h64v-64zM168 288h-48a8 8 0 0 1-8-8V120c0-4.416 3.584-8 8-8h160c4.416 0 8 3.584 8 8v48h448v-48c0-4.416 3.584-8 8-8h160c4.416 0 8 3.584 8 8v160a8 8 0 0 1-8 8h-48v448h48c4.416 0 8 3.584 8 8v160a8 8 0 0 1-8 8H744a8 8 0 0 1-8-8v-48H288v48a8 8 0 0 1-8 8H120a8 8 0 0 1-8-8V744c0-4.416 3.584-8 8-8h48V288z" p-id="3788"></path></svg>