<?xml version="1.0" standalone="no"?><!DOCTYPE svg PUBLIC "-//W3C//DTD SVG 1.1//EN" "http://www.w3.org/Graphics/SVG/1.1/DTD/svg11.dtd"><svg t="1706282537099" class="icon" viewBox="0 0 1024 1024" version="1.1" xmlns="http://www.w3.org/2000/svg" p-id="4099" xmlns:xlink="http://www.w3.org/1999/xlink" width="200" height="200"><path d="M530.304 117.44L910.336 390.4a32 32 0 0 1 13.312 25.984v462.592a32 32 0 0 1-32 32h-760a32 32 0 0 1-32-32V416.384A32 32 0 0 1 112.96 390.4l380.032-272.96a32 32 0 0 1 37.312 0zM171.648 495.36v343.552h680V496C735.296 596.736 622.08 647.68 512 647.68c-110.4 0-223.808-51.2-340.352-152.32z m520.32-59.392H332.096v104.896c62.08 33.92 122.112 50.752 179.968 50.752 57.856 0 117.888-16.832 180.032-50.752v-104.96z m-80 47.808c4.48 0 8.064 3.584 8.064 8v40a8 8 0 0 1-8.064 8H414.08a8 8 0 0 1-8-8v-40c0-4.48 3.584-8 8-8h197.952zM511.68 192.64l-329.6 236.8c31.872 29.632 63.168 55.168 94.016 76.672V387.968c0-4.416 3.52-8 8-8h456c4.416 0 7.936 3.584 7.936 8v118.144c30.72-21.44 61.952-46.848 93.696-76.352L511.616 192.64z" p-id="4100"></path></svg>