<?xml version="1.0" standalone="no"?><!DOCTYPE svg PUBLIC "-//W3C//DTD SVG 1.1//EN" "http://www.w3.org/Graphics/SVG/1.1/DTD/svg11.dtd"><svg t="1677671981802" class="icon" viewBox="0 0 1024 1024" version="1.1" xmlns="http://www.w3.org/2000/svg" p-id="6206" xmlns:xlink="http://www.w3.org/1999/xlink" width="200" height="200"><path d="M465.6 232a64 64 0 0 0-45.504 19.008l-0.448 0.512L206.208 472H40a8 8 0 0 0-8 7.744V544c0 4.352 3.456 7.872 7.744 8h165.504l214.4 221.504a64 64 0 0 0 45.312 19.52H784a16 16 0 0 0 16-15.68V248a16 16 0 0 0-15.68-16H465.6zM728 304v417.024H468.992L267.2 512.512 468.992 304H728z m-120 72v272c0 4.416 3.584 8 8 8h40a8 8 0 0 0 8-8V376a8 8 0 0 0-8-8h-40a8 8 0 0 0-8 8z m352-4.032v56a8 8 0 0 1-8 8H800v-71.936h152c4.416 0 8 3.584 8 8z m0 256v56.064a8 8 0 0 1-8 7.936H800v-71.936h152c4.416 0 8 3.52 8 7.936z" p-id="6207"></path></svg>