<?xml version="1.0" standalone="no"?><!DOCTYPE svg PUBLIC "-//W3C//DTD SVG 1.1//EN" "http://www.w3.org/Graphics/SVG/1.1/DTD/svg11.dtd"><svg t="1740451874823" class="icon" viewBox="0 0 1024 1024" version="1.1" xmlns="http://www.w3.org/2000/svg" p-id="1356" xmlns:xlink="http://www.w3.org/1999/xlink" width="200" height="200"><path d="M832 68c17.673 0 32 14.327 32 32v832c0 17.673-14.327 32-32 32H192c-17.673 0-32-14.327-32-32V100c0-17.673 14.327-32 32-32h640z m-36 68H228v760h568V136zM612.892 551.195c0.004 0.005 0.005 0.012 0.001 0.016l-78.92 98.33h80.697a8 8 0 0 1 5.94 13.36L463.374 837.192a8 8 0 0 1-13.768-7.01L473.13 718.62h-67.953a8 8 0 0 1-6.932-11.993l84.903-147.417a16 16 0 0 1 13.865-8.014z m-80.89-362.373c120.208 9.917 215.296 108.424 219.829 230.083l0.032 0.852v0.5a8.012 8.012 0 0 1-8.257 7.743H552c0-1.616-0.096-3.21-0.282-4.776l67.596-67.597a8 8 0 0 0 0-11.313l-22.628-22.628a8 8 0 0 0-11.313 0l-66.845 66.844A40.28 40.28 0 0 0 512 388c-22.091 0-40 17.909-40 40H280l-0.245-0.004a7.874 7.874 0 0 1-7.624-8.11l0.02-0.506C276.456 297.502 371.635 198.752 492 188.822V252a8 8 0 0 0 8 8h24a8 8 0 0 0 8-8z" p-id="1357"></path></svg>