<?xml version="1.0" standalone="no"?><!DOCTYPE svg PUBLIC "-//W3C//DTD SVG 1.1//EN" "http://www.w3.org/Graphics/SVG/1.1/DTD/svg11.dtd"><svg t="1698217604406" class="icon" viewBox="0 0 1024 1024" version="1.1" xmlns="http://www.w3.org/2000/svg" p-id="1169" xmlns:xlink="http://www.w3.org/1999/xlink" width="200" height="200"><path d="M678.416 824.768a16 16 0 0 1 0.584 4.282v38.789a16 16 0 0 1-11.718 15.416l-256 71.111c-8.514 2.365-17.333-2.62-19.698-11.134a16 16 0 0 1-0.584-4.282v-38.79a16 16 0 0 1 11.718-15.416l256-71.111c8.514-2.365 17.333 2.62 19.698 11.134z m0-91a16 16 0 0 1 0.584 4.282v38.789a16 16 0 0 1-11.718 15.416l-256 71.111c-8.514 2.365-17.333-2.62-19.698-11.134a16 16 0 0 1-0.584-4.282v-38.79a16 16 0 0 1 11.718-15.416l256-71.111c8.514-2.365 17.333 2.62 19.698 11.134zM512 64c45.902 0 88.973 8.804 129.216 26.412 40.242 16.979 75.454 40.56 105.636 70.746 30.182 30.184 53.762 65.4 70.739 105.647C835.197 307.05 844 350.127 844 396.034c0 36.473-5.66 71.374-16.977 104.703-11.318 33.33-27.038 63.829-47.16 91.498-20.12 27.67-44.329 51.88-72.624 72.633-28.296 20.752-59.735 36.473-94.319 47.164l-201.14 59.064c-8.478 2.49-17.37-2.366-19.86-10.844a16 16 0 0 1-0.647-4.508v-50.315c-31.44-11.949-60.05-28.299-85.83-49.05-25.78-21.382-47.945-45.435-66.494-72.162-18.55-26.726-33.169-56.125-43.858-88.196C185.03 463.95 180 430.621 180 396.034c0-45.907 8.803-88.983 26.41-129.23 16.976-40.246 40.556-75.462 70.738-105.646 30.182-30.185 65.394-53.767 105.636-70.746C423.027 72.804 466.098 64 512 64z m0 73.654c-35.977 0-69.555 6.897-100.734 20.689-31.78 13.193-59.362 31.483-82.747 54.87-23.384 23.387-41.672 50.972-54.864 82.754-13.79 31.183-20.686 64.765-20.686 100.745 0 28.305 4.348 55.16 13.045 80.565l0.446 1.29c8.994 26.386 21.436 50.372 37.325 71.96 15.89 21.589 34.928 40.478 57.113 56.67 22.186 16.19 46.77 28.484 73.752 36.88l19.787 6.296v33.281l136.711-40.477c26.983-8.396 51.267-20.689 72.853-36.88 22.186-16.191 41.223-35.08 57.113-56.669 15.89-21.588 28.032-45.275 36.426-71.06 8.994-26.386 13.491-53.671 13.491-81.856 0-35.98-6.895-69.562-20.686-100.745-13.192-31.782-31.48-59.367-54.864-82.754-23.385-23.387-50.967-41.677-82.747-54.87-31.18-13.792-64.757-20.689-100.734-20.689zM630.507 257c2.58 0 4.004 2.965 2.425 5.005l-76.276 96.375h84.824c2.772 0 4.12 3.389 2.118 5.276L420.93 576.119c-2.233 2.157-5.852 0.039-5.12-2.964l34.422-137.69h-67.15c-2.388 0-3.851-2.58-2.658-4.62l99.764-172.305a3.056 3.056 0 0 1 2.656-1.54z" p-id="1170"></path></svg>