<?xml version="1.0" standalone="no"?><!DOCTYPE svg PUBLIC "-//W3C//DTD SVG 1.1//EN" "http://www.w3.org/Graphics/SVG/1.1/DTD/svg11.dtd"><svg t="1725356250324" class="icon" viewBox="0 0 1024 1024" version="1.1" xmlns="http://www.w3.org/2000/svg" p-id="1914" xmlns:xlink="http://www.w3.org/1999/xlink" width="200" height="200"><path d="M766.016 210.944v602.048a21.76 21.76 0 0 1-35.2 16.96L347.52 528.96a21.504 21.504 0 0 1 0-33.92l383.232-300.992a21.76 21.76 0 0 1 35.2 16.896zM689.92 322.752L449.024 512l240.96 189.248V322.752zM329.984 864h-64a8 8 0 0 1-8-8V168c0-4.416 3.584-8 8-8h64c4.48 0 8 3.584 8 8v688a8 8 0 0 1-8 8z" p-id="1915"></path></svg>