<?xml version="1.0" standalone="no"?><!DOCTYPE svg PUBLIC "-//W3C//DTD SVG 1.1//EN" "http://www.w3.org/Graphics/SVG/1.1/DTD/svg11.dtd"><svg t="1678006151401" class="icon" viewBox="0 0 1024 1024" version="1.1" xmlns="http://www.w3.org/2000/svg" p-id="3404" xmlns:xlink="http://www.w3.org/1999/xlink" width="200" height="200"><path d="M288 752h72a8 8 0 0 0 8-8V280a8 8 0 0 0-8-8h-72a8 8 0 0 0-8 8v464c0 4.416 3.584 8 8 8z m188.032-280h72a8 8 0 0 0 7.936-8V280a8 8 0 0 0-7.936-8h-72.064a8 8 0 0 0-8 8v184c0 4.416 3.648 8 8 8z m187.904 72H736a8 8 0 0 0 8-8V280a8 8 0 0 0-8-8h-72a8 8 0 0 0-8 8v256c0 4.416 3.584 8 8 8z m216-432H144a32 32 0 0 0-32 32v736a32 32 0 0 0 32 32h736a32 32 0 0 0 32-32V144a32 32 0 0 0-32-32z m-40 728H184V184h656v656z" p-id="3405"></path></svg>