<?xml version="1.0" standalone="no"?><!DOCTYPE svg PUBLIC "-//W3C//DTD SVG 1.1//EN" "http://www.w3.org/Graphics/SVG/1.1/DTD/svg11.dtd"><svg t="1679041033429" class="icon" viewBox="0 0 1024 1024" version="1.1" xmlns="http://www.w3.org/2000/svg" p-id="1322" xmlns:xlink="http://www.w3.org/1999/xlink" width="200" height="200"><path d="M468.032 128H160a32 32 0 0 0-32 32v308.032c0 4.352 3.584 8 8 8h332.032a8 8 0 0 0 8-8V136a8 8 0 0 0-8-8z m-56 284.032H192V192h220.032v220.032zM273.92 337.92h56a8 8 0 0 0 8-8v-56a8 8 0 0 0-8-8h-56a8 8 0 0 0-8 8v56c0 4.416 3.648 8 8 8z m194.048 210.048H136a8 8 0 0 0-8 8V864a32 32 0 0 0 32 32h308.032a8 8 0 0 0 8-8V555.968a8 8 0 0 0-8-7.936zM412.032 832H192V611.968h220.032V832zM273.92 758.016h56a8 8 0 0 0 8-8v-56a8 8 0 0 0-8-8h-56a8 8 0 0 0-8 8v56c0 4.416 3.648 8 8 8zM864 128H555.968a8 8 0 0 0-7.936 8v332.032c0 4.352 3.584 8 7.936 8H888a8 8 0 0 0 8-8V160a32 32 0 0 0-32-32z m-32 284.032H611.968V192H832v220.032zM694.016 337.92h56a8 8 0 0 0 8-8v-56a8 8 0 0 0-8-8h-56a8 8 0 0 0-8 8v56c0 4.416 3.584 8 8 8zM888 547.968h-48a8 8 0 0 0-8 7.936V689.92h-78.016V555.968a8 8 0 0 0-8-7.936H555.968a8 8 0 0 0-7.936 7.936V888c0 4.416 3.584 8 7.936 8h48a8 8 0 0 0 8.064-8V611.968h77.952v134.016c0 4.416 3.584 8 8 8H888a8 8 0 0 0 8-8V555.968a8 8 0 0 0-8-7.936zM745.984 832h-48a8 8 0 0 0-8 8v48c0 4.416 3.584 8 8 8h48a8 8 0 0 0 8-8v-48a8 8 0 0 0-8-8zM888 832h-48a8 8 0 0 0-8 8v48c0 4.416 3.584 8 8 8h48a8 8 0 0 0 8-8v-48a8 8 0 0 0-8-8z" p-id="1323"></path></svg>