<?xml version="1.0" standalone="no"?><!DOCTYPE svg PUBLIC "-//W3C//DTD SVG 1.1//EN" "http://www.w3.org/Graphics/SVG/1.1/DTD/svg11.dtd"><svg t="1698217600879" class="icon" viewBox="0 0 1024 1024" version="1.1" xmlns="http://www.w3.org/2000/svg" p-id="1021" xmlns:xlink="http://www.w3.org/1999/xlink" width="200" height="200"><path d="M228 174c22.913 0 42.365 14.82 49.293 35.397L805.14 312H928c17.496 0 31.713 14.042 31.996 31.47l0.004 0.53v410c0 17.673-14.327 32-32 32H820v62c0 8.837-7.163 16-16 16h-40c-8.837 0-16-7.163-16-16v-62H276v62c0 8.837-7.163 16-16 16h-40c-8.837 0-16-7.163-16-16v-62H96c-17.496 0-31.713-14.042-31.996-31.47L64 754V344c0-17.673 14.327-32 32-32h373.726l-214.494-41.692C247.312 275.186 237.985 278 228 278c-28.719 0-52-23.281-52-52s23.281-52 52-52z m660 210H136v330h752V384zM224 584c22.091 0 40 17.909 40 40s-17.909 40-40 40-40-17.909-40-40 17.909-40 40-40z m120 0c22.091 0 40 17.909 40 40s-17.909 40-40 40-40-17.909-40-40 17.909-40 40-40z m120 0c22.091 0 40 17.909 40 40s-17.909 40-40 40-40-17.909-40-40 17.909-40 40-40z m255-168c66.826 0 121 54.174 121 121s-54.174 121-121 121-121-54.174-121-121 54.174-121 121-121z m0 56c-35.899 0-65 29.101-65 65s29.101 65 65 65 65-29.101 65-65-29.101-65-65-65z m-415-56c8.837 0 16 7.163 16 16v24h206c8.837 0 16 7.163 16 16v24c0 8.837-7.163 16-16 16H320v24c0 8.837-7.163 16-16 16h-24c-8.837 0-16-7.163-16-16v-24h-64c-8.837 0-16-7.163-16-16v-24c0-8.837 7.163-16 16-16h64v-24c0-8.837 7.163-16 16-16h24z" p-id="1022"></path></svg>