<?xml version="1.0" standalone="no"?><!DOCTYPE svg PUBLIC "-//W3C//DTD SVG 1.1//EN" "http://www.w3.org/Graphics/SVG/1.1/DTD/svg11.dtd"><svg t="1678011378278" class="icon" viewBox="0 0 1024 1024" version="1.1" xmlns="http://www.w3.org/2000/svg" p-id="6114" xmlns:xlink="http://www.w3.org/1999/xlink" width="200" height="200"><path d="M512 64a120 120 0 1 1-52.352 228.032l-108.16 123.264c5.376 7.104 10.24 14.72 14.4 22.72l310.144-88.96a119.936 119.936 0 1 1 17.664 61.568l-310.144 88.96a162.24 162.24 0 0 1 0 24.896l310.208 88.896 3.904-6.144a120 120 0 1 1-21.632 67.712l-310.144-88.96c-4.16 7.936-8.96 15.552-14.336 22.656l108.16 123.328a120 120 0 1 1-48.128 42.24l-108.16-123.264a160 160 0 1 1 0-277.888l108.16-123.264A120 120 0 0 1 512 64z m0 724.032a51.968 51.968 0 1 0 0 103.936 51.968 51.968 0 0 0 0-103.936z m239.04-138.048a51.968 51.968 0 1 0 90.048 52.032 51.968 51.968 0 0 0-90.048-52.032zM224 419.968a91.968 91.968 0 1 0 0 184 91.968 91.968 0 0 0 0-183.936z m546.048-116.992a51.968 51.968 0 1 0 52.032 90.048 51.968 51.968 0 0 0-52.032-90.048zM512 132.032a51.968 51.968 0 1 0 0 103.936 51.968 51.968 0 0 0 0-103.936z" p-id="6115"></path></svg>