<?xml version="1.0" standalone="no"?><!DOCTYPE svg PUBLIC "-//W3C//DTD SVG 1.1//EN" "http://www.w3.org/Graphics/SVG/1.1/DTD/svg11.dtd"><svg t="1658805859914" class="icon" viewBox="0 0 1024 1024" version="1.1" xmlns="http://www.w3.org/2000/svg" p-id="23257" xmlns:xlink="http://www.w3.org/1999/xlink" width="200" height="200"><defs><style type="text/css">@font-face { font-family: feedback-iconfont; src: url("//at.alicdn.com/t/font_1031158_u69w8yhxdu.woff2?t=1630033759944") format("woff2"), url("//at.alicdn.com/t/font_1031158_u69w8yhxdu.woff?t=1630033759944") format("woff"), url("//at.alicdn.com/t/font_1031158_u69w8yhxdu.ttf?t=1630033759944") format("truetype"); }
</style></defs><path d="M356.75 816.585c-95.178 0-172.334-77.156-172.334-172.333 0-87.147 144.48-363.581 168.86-406.46 1.534-2.698 5.412-2.698 6.946 0 24.38 42.879 168.86 319.313 168.86 406.46 0 95.177-77.156 172.333-172.333 172.333m27.14-664.534c-12.534-20.068-41.746-20.068-54.279 0C266.072 253.78 113 537.57 113 644.25 113 778.87 222.13 888 356.75 888s243.748-109.13 243.748-243.749c0-106.68-153.072-390.471-216.61-492.2" p-id="23258"></path><path d="M786.988 820.483c-39.765 0-72-31.412-72-70.16 0-35.48 60.363-142.688 70.549-160.145 0.64-1.098 2.26-1.098 2.902 0 10.186 17.457 70.549 124.664 70.549 160.144 0 38.75-32.235 70.161-72 70.161m13.834-311.622c-6.39-10.23-21.28-10.23-27.668 0-32.387 51.854-110.413 196.513-110.413 250.891 0 68.62 55.627 124.247 124.247 124.247s124.247-55.627 124.247-124.247c0-54.378-78.026-199.037-110.413-250.891M356.749 714.572c-41.736 0-75.57-33.834-75.57-75.57h-39.552c-4.666 0-8.298 3.975-7.977 8.63 4.233 61.272 53.197 110.236 114.47 114.47 4.654 0.32 8.63-3.312 8.63-7.978v-39.552z" p-id="23259"></path></svg>