<?xml version="1.0" standalone="no"?><!DOCTYPE svg PUBLIC "-//W3C//DTD SVG 1.1//EN" "http://www.w3.org/Graphics/SVG/1.1/DTD/svg11.dtd"><svg t="1658805846560" class="icon" viewBox="0 0 1024 1024" version="1.1" xmlns="http://www.w3.org/2000/svg" p-id="23107" xmlns:xlink="http://www.w3.org/1999/xlink" width="200" height="200"><defs><style type="text/css">@font-face { font-family: feedback-iconfont; src: url("//at.alicdn.com/t/font_1031158_u69w8yhxdu.woff2?t=1630033759944") format("woff2"), url("//at.alicdn.com/t/font_1031158_u69w8yhxdu.woff?t=1630033759944") format("woff"), url("//at.alicdn.com/t/font_1031158_u69w8yhxdu.ttf?t=1630033759944") format("truetype"); }
</style></defs><path d="M811.44 572.888c-20.873 20.871-48.613 32.378-78.138 32.378H290.698c-29.525 0-57.264-11.507-78.138-32.378-20.872-20.874-32.378-48.703-32.378-78.23 0-24.975 8.116-48.434 23.37-68.058 14.896-18.998 35.857-32.825 58.96-38.979l33.807-8.83 12.398-32.647c7.67-20.337 18.375-39.337 31.843-56.552 13.29-17.126 29.079-32.023 46.74-44.51 36.661-25.78 79.833-39.426 124.878-39.426 45.046 0 88.218 13.647 124.878 39.426a219.183 219.183 0 0 1 46.74 44.51 215.92 215.92 0 0 1 31.844 56.552l12.31 32.558 33.717 8.92c48.435 12.933 82.152 56.908 82.152 107.037 0 29.525-11.507 57.355-32.378 78.228z m-32.379-250.65c-40.855-107.75-144.95-184.373-266.884-184.373-121.934 0-226.03 76.533-266.882 184.284-76.442 20.07-132.905 89.646-132.905 172.51 0 98.565 79.833 178.398 178.308 178.398h442.604c98.475 0 178.308-79.832 178.308-178.398 0-82.686-56.284-152.261-132.55-172.42zM232.733 888.532l47.691 0.075a7.992 7.992 0 0 0 8.005-7.98l0.175-112.06a7.992 7.992 0 0 0-7.979-8.005l-47.691-0.075a7.992 7.992 0 0 0-8.006 7.98l-0.174 112.06a7.992 7.992 0 0 0 7.979 8.005m170.176 0.06l47.691 0.076a7.992 7.992 0 0 0 8.005-7.98l0.175-112.06a7.992 7.992 0 0 0-7.98-8.005l-47.69-0.075a7.992 7.992 0 0 0-8.006 7.98l-0.175 112.06a7.992 7.992 0 0 0 7.98 8.005m170.175 0.06l47.692 0.076a7.992 7.992 0 0 0 8.005-7.98l0.175-112.06a7.992 7.992 0 0 0-7.98-8.005l-47.69-0.076a7.992 7.992 0 0 0-8.006 7.981l-0.175 112.059a7.992 7.992 0 0 0 7.98 8.005M743.261 888.714l47.692 0.075a7.992 7.992 0 0 0 8.005-7.98l0.175-112.06a7.992 7.992 0 0 0-7.98-8.005l-47.691-0.075a7.992 7.992 0 0 0-8.005 7.98l-0.175 112.06a7.992 7.992 0 0 0 7.98 8.005" p-id="23108"></path></svg>