<?xml version="1.0" standalone="no"?><!DOCTYPE svg PUBLIC "-//W3C//DTD SVG 1.1//EN" "http://www.w3.org/Graphics/SVG/1.1/DTD/svg11.dtd"><svg t="1677985927894" class="icon" viewBox="0 0 1024 1024" version="1.1" xmlns="http://www.w3.org/2000/svg" p-id="2862" xmlns:xlink="http://www.w3.org/1999/xlink" width="200" height="200"><path d="M277.824 630.08l0.832 0.896 0.448 0.512c21.696 23.872 32.64 47.808 32.896 71.68V704a40 40 0 0 1-80 0.64v-1.408c0.256-23.68 11.008-47.36 32.256-71.04l1.024-1.152 0.896-0.96a8 8 0 0 1 11.648 0z m0 160l0.832 0.896 0.448 0.512c21.696 23.872 32.64 47.808 32.896 71.68V864a40 40 0 0 1-80 0.64v-1.408c0.256-23.68 11.008-47.36 32.256-71.04l1.024-1.152 0.896-0.96a8 8 0 0 1 11.648 0z m160-159.936l1.536 1.664 1.024 1.152 1.28 1.344 0.512 0.64 0.768 0.832c19.136 22.464 28.8 44.928 29.056 67.456V704a40 40 0 0 1-80 0.64v-1.408c0.256-22.4 9.792-44.736 28.8-67.072l0.768-0.96 0.448-0.448 0.96-1.152 1.152-1.28 1.28-1.408 0.768-0.768a8 8 0 0 1 11.648 0z m0 160l1.536 1.664 1.024 1.152 1.28 1.344 0.512 0.64 0.768 0.832c19.136 22.464 28.8 44.928 29.056 67.456V864a40 40 0 0 1-80 0.64v-1.408c0.256-22.4 9.792-44.736 28.8-67.072l0.768-0.96 0.448-0.448 0.96-1.152 1.152-1.28 1.28-1.408 0.768-0.768a8 8 0 0 1 11.648 0z m160-160l1.536 1.664 1.024 1.152 1.28 1.344 0.512 0.64 0.768 0.832c19.136 22.464 28.8 44.928 29.056 67.456V704a40 40 0 0 1-80 0.64v-1.408c0.256-22.4 9.792-44.736 28.8-67.072l0.768-0.96 0.448-0.448 0.96-1.152 1.152-1.28 1.28-1.408 0.768-0.768a8 8 0 0 1 11.648 0z m0 160l1.536 1.664 1.024 1.152 1.28 1.344 0.512 0.64 0.768 0.832c19.136 22.464 28.8 44.928 29.056 67.456V864a40 40 0 0 1-80 0.64v-1.408c0.256-22.4 9.792-44.736 28.8-67.072l0.768-0.96 0.448-0.448 0.96-1.152 1.152-1.28 1.28-1.408 0.768-0.768a8 8 0 0 1 11.648 0z m160-160l1.536 1.664 1.024 1.152 1.28 1.344 0.512 0.64 0.768 0.832c19.136 22.464 28.8 44.928 29.056 67.456V704a40 40 0 0 1-80 0.64v-1.408c0.256-22.4 9.792-44.736 28.8-67.072l0.768-0.96 0.448-0.448 0.96-1.152 1.152-1.28 1.28-1.408 0.768-0.768a8 8 0 0 1 11.648 0z m0 160l1.536 1.664 1.024 1.152 1.28 1.344 0.512 0.64 0.768 0.832c19.136 22.464 28.8 44.928 29.056 67.456V864a40 40 0 0 1-80 0.64v-1.408c0.256-22.4 9.792-44.736 28.8-67.072l0.768-0.96 0.448-0.448 0.96-1.152 1.152-1.28 1.28-1.408 0.768-0.768a8 8 0 0 1 11.648 0zM604.032 88a200.064 200.064 0 0 1 194.432 152.96A172.032 172.032 0 0 1 782.848 584H220.032a148.032 148.032 0 0 1 0-296h12.8a140.032 140.032 0 0 1 197.12-98.56A199.936 199.936 0 0 1 604.032 88z m0 72c-46.208 0-88 24.576-110.784 63.808l-0.64 1.152-33.088 58.24-60.416-28.736a68.032 68.032 0 0 0-95.488 46.912l-0.256 0.96-11.712 57.6-71.68 0.064a75.968 75.968 0 0 0-1.28 152h564.608a100.032 100.032 0 0 0 96.64-98.368l0.064-1.664c0-50.688-37.952-93.184-87.68-99.2l-1.536-0.192-50.432-5.376-11.904-49.344c-13.568-56.384-64-97.024-122.688-97.856h-1.728z" p-id="2863"></path></svg>