<?xml version="1.0" standalone="no"?><!DOCTYPE svg PUBLIC "-//W3C//DTD SVG 1.1//EN" "http://www.w3.org/Graphics/SVG/1.1/DTD/svg11.dtd"><svg t="1749609964656" class="icon" viewBox="0 0 1024 1024" version="1.1" xmlns="http://www.w3.org/2000/svg" p-id="958" xmlns:xlink="http://www.w3.org/1999/xlink" width="200" height="200"><path d="M349.376 720a8 8 0 0 1 7.872 6.4v3.2a110.208 110.208 0 0 1-22.912 60.544l-9.856 12.608c-9.28 11.712-14.848 19.84-14.848 37.312 0 13.952 3.584 21.952 9.856 30.592l9.472 12.16c11.84 14.912 26.304 35.008 28.48 68.672a8 8 0 0 1-8 8.576h-48.192a8 8 0 0 1-7.936-7.168l-0.064-0.704a45.824 45.824 0 0 0-9.216-22.656l-15.616-20.16a110.912 110.912 0 0 1-22.72-69.312c0-39.232 16.192-61.44 28.992-77.568l4.16-5.12c7.936-10.048 13.12-17.408 14.464-30.272a8.064 8.064 0 0 1 7.936-7.168h48.128z m202.368 0a8 8 0 0 1 7.872 6.4v3.2a110.912 110.912 0 0 1-23.232 60.992l-9.536 12.16c-9.28 11.712-14.848 19.84-14.848 37.312 0 16.768 5.12 24.96 13.824 35.904l4.288 5.44c12.032 15.04 27.456 35.328 29.632 70.08a8 8 0 0 1-8 8.576h-48.128a8 8 0 0 1-8-7.168 46.08 46.08 0 0 0-9.472-23.68l-9.152-11.712c-12.864-16.128-29.056-38.336-29.056-77.44 0-31.36 10.368-51.84 21.12-67.072l9.92-12.928c9.152-11.52 15.168-18.944 16.64-32.896a8 8 0 0 1 8-7.232h48.128z m202.304 0a8 8 0 0 1 7.872 6.4v3.2a110.208 110.208 0 0 1-22.912 60.544l-9.856 12.608c-9.28 11.712-14.848 19.84-14.848 37.312 0 14.144 3.712 22.144 10.048 30.976l5.888 7.68 3.712 4.608c11.776 14.784 26.048 34.88 28.16 68.224a8 8 0 0 1-8 8.512H705.92a8 8 0 0 1-7.936-7.168 46.08 46.08 0 0 0-9.472-23.68l-15.36-19.84a110.912 110.912 0 0 1-22.784-69.312c0-39.232 16.192-61.44 28.992-77.568l4.16-5.12c7.936-10.048 13.12-17.408 14.464-30.272a8 8 0 0 1 7.936-7.168h48.128zM628.992 64a32 32 0 0 1 32 32v204.032l161.984 161.92H872a64 64 0 0 1 63.424 55.68l0.576 8.32v138.112a8 8 0 0 1-8 8H96a8 8 0 0 1-8-8V526.016a64 64 0 0 1 64-64h49.024l161.92-162.048V96a32 32 0 0 1 32-32h234.048zM864 534.016H160v66.112h704v-66.112zM593.152 333.952H430.784l-128 128h418.368l-128-128zM588.992 136H435.008l-0.064 133.952h154.048V136z" p-id="959"></path></svg>