<?xml version="1.0" standalone="no"?><!DOCTYPE svg PUBLIC "-//W3C//DTD SVG 1.1//EN" "http://www.w3.org/Graphics/SVG/1.1/DTD/svg11.dtd"><svg t="1706282478382" class="icon" viewBox="0 0 1024 1024" version="1.1" xmlns="http://www.w3.org/2000/svg" p-id="2077" xmlns:xlink="http://www.w3.org/1999/xlink" width="200" height="200"><path d="M584 112a32 32 0 0 1 32 32v308.736c0 2.688 1.28 5.12 3.584 6.656l24.384 16.256c1.28 0.896 2.88 1.344 4.48 1.344H680c37.12 0 67.392 29.824 67.968 66.88V840H840V484.736a8 8 0 0 0-4.096-7.04l-52.48-29.12a100.032 100.032 0 0 1-51.392-87.424v-112.32a8 8 0 0 0-4.16-7.04l-41.92-23.232a54.4 54.4 0 0 1-27.968-47.552 18.816 18.816 0 0 1 27.968-16.448l56.832 31.552a8 8 0 0 1 1.088 0.512l116.672 64.832c30.912 17.152 50.432 49.28 51.392 84.544H912v508.032c0 37.12-29.824 67.328-66.88 67.968H744c-37.12 0-67.392-29.824-67.968-66.88V548.992h-27.584a8 8 0 0 0-4.48 1.344l-24.384 16.32a8 8 0 0 0-3.584 6.656V880a32 32 0 0 1-32 32H144a32 32 0 0 1-32-32V144a32 32 0 0 1 32-32h440z m-48 305.024H192V832h344V417.024z m-207.872 79.424c0.448 0 0.96 0.192 1.344 0.448l13.376 9.92c28.288 22.08 48.576 46.208 60.8 72.576l11.84-17.28 0.96-0.768a2.368 2.368 0 0 1 2.816 0.64l5.888 8c16.64 24 29.248 54.08 29.248 97.408 0 38.144-31.872 72.96-69.248 87.168l-3.008 1.088-1.28 0.064a2.368 2.368 0 0 1-1.28-3.776l1.408-1.92a39.04 39.04 0 0 0 5.568-21.12 53.248 53.248 0 0 0-8.128-28.48l-2.816-4.736-11.264-17.28-9.472-15.872-3.456-6.72-5.76 5.312a153.472 153.472 0 0 0-10.048 11.008c-14.528 17.536-22.144 36.032-22.144 56.768a39.68 39.68 0 0 0 4.8 19.84 25.216 25.216 0 0 0 2.88 3.84 2.368 2.368 0 0 1-0.32 3.392c-0.64 0.448-1.408 0.64-2.624 0.32l-3.776-1.28-7.36-2.88c-33.92-14.72-61.44-45.888-61.44-84.736 0-27.2 10.496-46.72 23.872-64.768l3.008-3.968 15.872-19.648 9.408-11.776 8.512-12.224c9.792-15.296 17.344-32.64 19.264-54.784l0.128-1.152 0.32-1.472a2.368 2.368 0 0 1 2.112-1.152zM536 192H192v161.024h344V192z" p-id="2078"></path></svg>