<?xml version="1.0" standalone="no"?><!DOCTYPE svg PUBLIC "-//W3C//DTD SVG 1.1//EN" "http://www.w3.org/Graphics/SVG/1.1/DTD/svg11.dtd"><svg t="1740723559972" class="icon" viewBox="0 0 1024 1024" version="1.1" xmlns="http://www.w3.org/2000/svg" p-id="1324" xmlns:xlink="http://www.w3.org/1999/xlink" width="200" height="200"><path d="M896 356.032a16 16 0 0 1 16 16V896a16 16 0 0 1-16 16H371.968a16 16 0 0 1-16-16V724.032c0-4.416 3.584-7.936 8-7.936H416c4.48 0 8 3.52 8 7.936v120.064h420.096v-420.16h-420.16V544a8 8 0 0 1-8 8h-51.904a8 8 0 0 1-8-8V371.968a16 16 0 0 1 15.68-16H896zM128 667.904a16 16 0 0 1-16-16V127.872a16 16 0 0 1 16-16h524.032a16 16 0 0 1 16 16v172.032a8 8 0 0 1-8.064 8H608a8 8 0 0 1-7.936-7.68v-120.32h-420.16V600h420.032V480c0-4.352 3.392-7.872 7.68-8h52.288c4.48 0 8.064 3.584 8.064 8v172.032a16 16 0 0 1-15.744 16L128 667.84z" p-id="1325"></path></svg>