<?xml version="1.0" standalone="no"?><!DOCTYPE svg PUBLIC "-//W3C//DTD SVG 1.1//EN" "http://www.w3.org/Graphics/SVG/1.1/DTD/svg11.dtd"><svg t="1677644201700" class="icon" viewBox="0 0 1024 1024" version="1.1" xmlns="http://www.w3.org/2000/svg" p-id="2558" xmlns:xlink="http://www.w3.org/1999/xlink" width="200" height="200"><path d="M701.952 462.976c1.472 0.064 2.88 0.64 4.096 1.472l14.848 10.88c56 42.688 96 89.6 119.872 140.672l3.008-4.48 3.2-4.608 3.776-5.504 3.968-5.824 4.672-6.784 0.768-1.152a8 8 0 0 1 12.992-0.192l0.768 1.024C908.8 635.328 936 694.08 936 781.44c0 92.992-100.864 175.616-194.368 176.576h-1.6C646.08 958.016 544 883.904 544 781.376c0-55.616 23.424-94.336 51.84-130.752l2.688-3.456 1.792-2.304 1.92-2.432 2.048-2.496 2.944-3.648 4.224-5.12 7.68-9.408 2.112-2.56 3.008-3.648 1.856-2.24 2.688-3.392 1.792-2.24 1.856-2.24 0.896-1.152 1.792-2.304 6.208-8.064 1.728-2.304 2.688-3.648 0.64-0.896 1.28-1.792 0.64-0.96 1.344-1.792 1.28-1.92 0.64-0.896 1.28-1.856a328.32 328.32 0 0 0 4.48-6.592l1.152-1.92 0.64-0.96 1.216-1.92c14.656-23.68 26.368-50.112 31.68-82.112l0.32-1.856 0.384-4.352 0.64-7.872a8 8 0 0 1 8.576-7.296zM808 64a32 32 0 0 1 32 32v320a8 8 0 0 1-8 8h-56a8 8 0 0 1-8-8V136H208v704h288c4.416 0 8 3.584 8 8v56a8 8 0 0 1-8 8H168a32 32 0 0 1-32-32V96a32 32 0 0 1 32-32h640z m-66.816 743.04l-1.024 0.896c-4.48 4.032-8.512 8.192-12.16 12.608-12.096 14.528-18.432 29.888-18.432 47.04 0 11.648 4.864 20.736 13.184 25.792l-1.28-0.768c5.952 0.832 11.84 1.344 17.6 1.408h2.816a106.951 106.951 0 0 0 17.152-1.792 29.312 29.312 0 0 0 11.392-24.64 43.84 43.84 0 0 0-6.784-23.68l-0.576-0.896-1.28-2.304-0.896-1.28-0.448-0.832-0.512-0.768-0.512-0.768-1.856-2.88-3.84-5.76-0.768-1.152-1.728-2.752-0.448-0.704-0.512-0.768-0.896-1.408-0.448-0.704-1.28-2.112-0.384-0.64-0.384-0.64-0.448-0.704-0.384-0.64-0.448-0.832-0.64-1.152-0.576-0.96-0.32-0.64-0.384-0.64-0.32-0.64-0.32-0.64-0.64-1.344-1.024-1.92-0.192-0.448z m-9.792-237.184l-0.64 1.28a311.04 311.04 0 0 1-9.28 17.664l-1.28 2.176-1.216 2.112-1.472 2.56-1.024 1.664-2.56 4.16-0.512 0.832-1.6 2.56a355.072 355.072 0 0 1-0.512 0.768l-2.688 4.16-0.576 0.768-1.088 1.664-1.088 1.664-1.152 1.664-2.304 3.328-1.216 1.664-0.64 0.832-2.368 3.392-1.92 2.56-1.28 1.728-1.28 1.728-2.688 3.52-1.28 1.792-1.472 1.792-1.408 1.856-1.408 1.792-2.24 2.816-1.472 1.92-1.536 1.92-2.368 2.944-3.264 3.968-1.664 2.048-2.176 2.688-2.112 2.56-7.68 9.28-2.112 2.56-2.56 3.2-2.432 3.008-2.304 2.88-1.088 1.408-3.2 4.032-1.6 1.984-0.96 1.28-1.472 1.92-0.96 1.28-1.344 1.792-0.896 1.216-1.28 1.792-1.728 2.304-0.832 1.152-0.768 1.088-1.216 1.664-1.472 2.176-0.704 1.088-0.768 1.024-0.64 1.088-0.704 1.024-3.2 5.12-0.64 1.024-0.576 0.96-0.576 1.024-0.576 1.024-0.512 0.96-0.576 0.96-0.512 1.024-0.576 0.96-1.024 1.92-0.448 1.024-0.256 0.512c-8.32 16.64-12.416 32.96-12.416 52.288 0 28.672 14.08 56 39.936 77.696 4.352 3.648 8.96 7.04 13.632 10.176v-1.728c0-28.608 10.368-54.72 29.568-77.76 5.376-6.528 11.392-12.672 18.048-18.56l40.384-36.032a7.104 7.104 0 0 1 11.136 2.176l23.68 48.64 0.32 0.64 0.384 0.832 0.448 0.832 0.384 0.768 0.32 0.512 0.512 0.96 0.512 0.896 0.512 0.896 0.64 1.088 0.32 0.512 0.512 0.832 0.768 1.28 0.768 1.152 0.768 1.28 0.64 0.96 0.448 0.64 1.28 1.92 3.648 5.632 1.216 1.792 1.6 2.56 0.64 0.896 0.64 1.024 0.832 1.408 0.768 1.28 0.512 0.832 0.768 1.344 1.28 2.304c8.64 15.36 12.608 29.632 12.608 46.464v-1.024c4.224-3.008 8.448-6.272 12.416-9.728l0.832-0.64C857.6 833.344 872 805.888 872 781.44c0-30.144-3.648-56.32-10.88-80.256l-0.256-0.896-30.336 44.672-47.68-101.824a275.136 275.136 0 0 0-51.072-72.896l-0.384-0.384zM368 416c4.416 0 8 3.584 8 8v56a8 8 0 0 1-8 8h-88a8 8 0 0 1-8-8v-56c0-4.416 3.584-8 8-8h88z m160 0c4.416 0 8 3.584 8 8v56a8 8 0 0 1-8 8h-88a8 8 0 0 1-8-8v-56c0-4.416 3.584-8 8-8h88z m168-216c4.416 0 8 3.584 8 8v144a8 8 0 0 1-8 8H280a8 8 0 0 1-8-8V208c0-4.416 3.584-8 8-8h416z m-48 56H328v48h320v-48z" p-id="2559"></path></svg>