<?xml version="1.0" standalone="no"?><!DOCTYPE svg PUBLIC "-//W3C//DTD SVG 1.1//EN" "http://www.w3.org/Graphics/SVG/1.1/DTD/svg11.dtd"><svg t="1678335564043" class="icon" viewBox="0 0 1024 1024" version="1.1" xmlns="http://www.w3.org/2000/svg" p-id="1950" xmlns:xlink="http://www.w3.org/1999/xlink" width="200" height="200"><path d="M140.096 519.68v1.728a372.032 372.032 0 0 0 743.808-0.64v-0.896a8 8 0 0 1 8.064-7.872h59.648a8 8 0 0 1 8.32 7.68v1.664a448 448 0 0 1-895.68 6.144l-0.192-7.424A7.936 7.936 0 0 1 71.68 512h60.096a8 8 0 0 1 8.32 7.68z m324.16 167.296l0.384 0.384L512 734.72l47.36-47.36a32 32 0 0 1 44.864-0.384l0.384 0.384 47.36 47.36 41.728-41.664a8 8 0 0 1 11.328 0l33.92 33.92a8 8 0 0 1 0 11.328l-64.32 64.32a32 32 0 0 1-44.864 0.384l-0.384-0.384-47.36-47.36-47.36 47.36a32 32 0 0 1-44.928 0.384l-0.384-0.384-47.36-47.36-47.36 47.36a32 32 0 0 1-44.864 0.384l-0.384-0.384-64.32-64.32a8 8 0 0 1 0-11.328l33.92-33.92a8 8 0 0 1 11.328 0l41.728 41.664 47.36-47.36a32 32 0 0 1 44.8-0.384zM324.224 521.024l0.384 0.32 47.36 47.36 47.36-47.36a32 32 0 0 1 44.928-0.32l0.384 0.32 47.36 47.36 47.36-47.36a32 32 0 0 1 44.864-0.32l0.384 0.32 47.36 47.36 47.36-47.36a32 32 0 0 1 44.928-0.32l0.384 0.32 64.32 64.384a8 8 0 0 1 0 11.328l-33.92 33.92a8 8 0 0 1-11.328 0l-41.728-41.728-47.36 47.36a32 32 0 0 1-44.864 0.384l-0.384-0.384-47.36-47.36-47.36 47.36a32 32 0 0 1-44.928 0.384l-0.384-0.384-47.36-47.36-47.36 47.36a32 32 0 0 1-44.864 0.384l-0.384-0.384-47.36-47.36-41.728 41.728a8 8 0 0 1-11.328 0l-33.92-33.92a8 8 0 0 1 0-11.328l64.32-64.384a32 32 0 0 1 44.864-0.32zM684.928 80.576l265.408 346.56A8 8 0 0 1 944 440h-71.616a16 16 0 0 1-12.672-6.272l-187.52-244.736L484.8 433.728A16 16 0 0 1 472.064 440h-71.616a8 8 0 0 1-6.4-12.864l34.56-45.056L316.8 236.032 165.312 433.728A16 16 0 0 1 152.576 440H80.96a8 8 0 0 1-6.4-12.864l229.504-299.52a16 16 0 0 1 25.408 0l147.008 192 183.04-239.04a16 16 0 0 1 25.408 0z" p-id="1951"></path></svg>