<?xml version="1.0" standalone="no"?><!DOCTYPE svg PUBLIC "-//W3C//DTD SVG 1.1//EN" "http://www.w3.org/Graphics/SVG/1.1/DTD/svg11.dtd"><svg t="1656904500205" class="icon" viewBox="0 0 1024 1024" version="1.1" xmlns="http://www.w3.org/2000/svg" p-id="2308" xmlns:xlink="http://www.w3.org/1999/xlink" width="200" height="200"><defs><style type="text/css">@font-face { font-family: feedback-iconfont; src: url("//at.alicdn.com/t/font_1031158_u69w8yhxdu.woff2?t=1630033759944") format("woff2"), url("//at.alicdn.com/t/font_1031158_u69w8yhxdu.woff?t=1630033759944") format("woff"), url("//at.alicdn.com/t/font_1031158_u69w8yhxdu.ttf?t=1630033759944") format("truetype"); }
</style></defs><path d="M785.088 648.512c10.24 0 17.024-3.392 23.872-10.24a33.024 33.024 0 0 0 0-47.744L740.672 522.24a33.024 33.024 0 0 0-47.744 0l-44.416 44.352-44.352-44.352a33.024 33.024 0 0 0-47.808 0L512 566.592l-44.352-44.352a33.024 33.024 0 0 0-47.808 0l-44.352 44.352-44.416-44.352a33.024 33.024 0 0 0-47.744 0L215.04 590.528a33.024 33.024 0 0 0 0 47.744 33.024 33.024 0 0 0 47.808 0L307.2 593.92l44.352 44.352a33.024 33.024 0 0 0 47.808 0l44.352-44.352 44.416 44.352a33.024 33.024 0 0 0 47.744 0l44.416-44.352 44.352 44.352a33.024 33.024 0 0 0 47.808 0l44.352-44.352 44.352 44.352c6.848 6.848 13.696 10.24 23.936 10.24z m-105.856-491.52l252.608 266.24 51.2-47.744L682.688 61.44l-184.32 177.472 47.744 47.808 133.12-129.728z m13.696 535.936l-44.416 44.352-44.352-44.352a33.024 33.024 0 0 0-47.808 0L512 737.28l-44.352-44.352a33.024 33.024 0 0 0-47.808 0l-44.352 44.352-44.416-44.352a33.024 33.024 0 0 0-47.744 0 33.024 33.024 0 0 0 0 47.744l68.224 68.288a33.024 33.024 0 0 0 47.808 0l44.352-44.352 44.416 44.352a33.024 33.024 0 0 0 47.744 0l44.416-44.352 44.352 44.352c6.848 6.848 17.088 10.24 23.872 10.24a36.864 36.864 0 0 0 23.936-10.24l68.224-68.288a33.024 33.024 0 0 0 0-47.744 33.024 33.024 0 0 0-47.744 0zM921.6 512c0 225.28-184.32 409.6-409.6 409.6-225.28 0-409.6-184.32-409.6-409.6H34.112c0 262.848 215.04 477.888 477.888 477.888 262.848 0 477.888-215.04 477.888-477.888H921.6zM334.528 211.648l204.8 218.432 51.2-47.808-252.608-266.24-293.568 276.48 47.808 51.2 242.368-232.064z" p-id="2309"></path></svg>