<?xml version="1.0" standalone="no"?><!DOCTYPE svg PUBLIC "-//W3C//DTD SVG 1.1//EN" "http://www.w3.org/Graphics/SVG/1.1/DTD/svg11.dtd"><svg t="1694413934120" class="icon" viewBox="0 0 1024 1024" version="1.1" xmlns="http://www.w3.org/2000/svg" p-id="2082" xmlns:xlink="http://www.w3.org/1999/xlink" width="200" height="200"><path d="M488 480a32 32 0 0 1 32 32v368a32 32 0 0 1-32 32H120a32 32 0 0 1-32-32V512a32 32 0 0 1 32-32h368z m392-368a32 32 0 0 1 32 32v688a32 32 0 0 1-32 32H576a8 8 0 0 1-8-8v-56c0-4.416 3.584-8 8-8h264V184H232v240a8 8 0 0 1-8 8h-56a8 8 0 0 1-8-8V144a32 32 0 0 1 32-32h688zM456 544H152v304h304V544z m319.808-288.896a8 8 0 0 1 0 2.048L753.792 425.92a8 8 0 0 1-13.568 4.608l-50.752-50.752-93.312 93.312a8 8 0 0 1-11.328 0l-33.92-33.92a8 8 0 0 1 0-11.328l93.312-93.312-50.752-50.752a8 8 0 0 1 4.608-13.568l168.768-22.016a8 8 0 0 1 8.96 6.912z" p-id="2083"></path></svg>