<?xml version="1.0" standalone="no"?><!DOCTYPE svg PUBLIC "-//W3C//DTD SVG 1.1//EN" "http://www.w3.org/Graphics/SVG/1.1/DTD/svg11.dtd"><svg t="1680768767953" class="icon" viewBox="0 0 1024 1024" version="1.1" xmlns="http://www.w3.org/2000/svg" p-id="1148" xmlns:xlink="http://www.w3.org/1999/xlink" width="200" height="200"><path d="M530.688 77.44l368 264.96A32 32 0 0 1 912 368.384V880a32 32 0 0 1-32 32H144a32 32 0 0 1-32-32V368.384a32 32 0 0 1 13.312-25.984l368-264.96a32 32 0 0 1 37.376 0zM512 152.704l-328 236.16V840h656V388.864l-328-236.16z m52.032 483.264c4.416 0 7.936 3.584 7.936 8.064v103.936a8 8 0 0 1-7.936 8.064H459.968a8 8 0 0 1-8-8.064V644.032c0-4.48 3.584-8.064 8-8.064h104z m-184.064 0c4.48 0 8 3.584 8 8.064v103.936a8 8 0 0 1-8 8.064H276.032a8 8 0 0 1-8-8.064V644.032c0-4.48 3.584-8.064 8-8.064h104z m368 0a8.03 8.03 0 0 1 8.064 8.064v103.936a8 8 0 0 1-8.064 8.064H644.032a8 8 0 0 1-8.064-8.064V644.032a8.03 8.03 0 0 1 8.064-8.064h103.936z m0-183.936c4.48 0 8.064 3.52 8.064 8v104a8 8 0 0 1-8.064 7.936H644.032a8 8 0 0 1-8.064-7.936V459.968c0-4.416 3.584-8 8.064-8h103.936z m-183.936 0c4.416 0 7.936 3.52 7.936 8v104a8 8 0 0 1-7.936 7.936H459.968a8 8 0 0 1-8-7.936V459.968c0-4.416 3.584-8 8-8h104z" p-id="1149"></path></svg>