<?xml version="1.0" standalone="no"?><!DOCTYPE svg PUBLIC "-//W3C//DTD SVG 1.1//EN" "http://www.w3.org/Graphics/SVG/1.1/DTD/svg11.dtd"><svg class="icon" width="200px" height="200.00px" viewBox="0 0 1024 1024" version="1.1" xmlns="http://www.w3.org/2000/svg"><path fill="#333333" d="M493.12 127.2a32 32 0 0 1 37.376-0.256l0.384 0.256 372 271.616a32 32 0 0 1 13.12 25.472v0.512l-1.792 437.344a32 32 0 0 1-31.456 31.84H141.76a32 32 0 0 1-32-31.328v-0.512l-1.792-437.344a32 32 0 0 1 12.736-25.696l0.384-0.288L493.12 127.2zM512 202.56L180.064 444.928l1.568 377.088h660.736l1.568-377.088L512 202.56z m72 421.44V768h-144v-144h144z m-184 0V768H256v-144h144z m368 0V768h-144v-144H768z m0-184v144h-144v-144H768z m-184 0v144h-144v-144h144z" /></svg>