<?xml version="1.0" standalone="no"?><!DOCTYPE svg PUBLIC "-//W3C//DTD SVG 1.1//EN" "http://www.w3.org/Graphics/SVG/1.1/DTD/svg11.dtd"><svg t="1694413906763" class="icon" viewBox="0 0 1024 1024" version="1.1" xmlns="http://www.w3.org/2000/svg" p-id="1036" xmlns:xlink="http://www.w3.org/1999/xlink" width="200" height="200"><path d="M499.008 81.024A430.016 430.016 0 1 1 96 661.312l-0.64-1.856a7.68 7.68 0 0 1 4.288-9.728l0.32-0.128 56.704-19.712a8 8 0 0 1 10.432 4.48l0.256 0.704a354.112 354.112 0 0 0 685.632-124.096A353.984 353.984 0 0 0 219.52 293.76l51.648 40.32a8 8 0 0 1-3.008 14.08l-156.8 38.4a8 8 0 0 1-9.92-7.744l-0.768-161.536c0-6.592 7.488-10.368 12.736-6.4l46.208 36.096 1.28-1.6A429.248 429.248 0 0 1 499.072 81.024z m37.12 192c4.352 0 8 3.584 8 8v247.488l142.592 103.04c3.584 2.56 4.352 7.552 1.664 11.264l-28.608 39.04a8 8 0 0 1-11.2 1.664L483.328 562.816a7.936 7.936 0 0 1-3.328-6.528V281.024c0-4.48 3.584-8 8-8h48.128z" p-id="1037"></path></svg>