<?xml version="1.0" standalone="no"?><!DOCTYPE svg PUBLIC "-//W3C//DTD SVG 1.1//EN" "http://www.w3.org/Graphics/SVG/1.1/DTD/svg11.dtd"><svg t="1659954555700" class="icon" viewBox="0 0 1024 1024" version="1.1" xmlns="http://www.w3.org/2000/svg" p-id="11598" xmlns:xlink="http://www.w3.org/1999/xlink" width="200" height="200"><defs><style type="text/css">@font-face { font-family: feedback-iconfont; src: url("//at.alicdn.com/t/font_1031158_u69w8yhxdu.woff2?t=1630033759944") format("woff2"), url("//at.alicdn.com/t/font_1031158_u69w8yhxdu.woff?t=1630033759944") format("woff"), url("//at.alicdn.com/t/font_1031158_u69w8yhxdu.ttf?t=1630033759944") format("truetype"); }
</style></defs><path d="M119.936 368h56.064a8.106667 8.106667 0 0 0 8.021333-8.064V184.106667h176a8.106667 8.106667 0 0 0 8.021334-8.064V120.106667a8.064 8.064 0 0 0-8.021334-8.064h-180.053333a67.968 67.968 0 0 0-68.053333 68.053333v179.925333a8.106667 8.106667 0 0 0 8.021333 8.021334v-0.042667z m544.042667-183.978667h176v176a8.106667 8.106667 0 0 0 8.021333 8.021334h55.978667a8.106667 8.106667 0 0 0 8.021333-8.021334v-180.053333a67.968 67.968 0 0 0-68.010667-68.053333h-179.84a8.064 8.064 0 0 0-8.064 8.021333v55.978667a8.106667 8.106667 0 0 0 8.064 8.021333l-0.170666 0.085333zM360.021333 839.978667H184.021333v-176a8.064 8.064 0 0 0-8.021333-8.021334H120.021333a8.064 8.064 0 0 0-8.021333 8.021334v180.053333c0 37.546667 30.421333 67.968 68.010667 67.968h179.925333a8.106667 8.106667 0 0 0 8.064-8.021333v-55.978667a8.064 8.064 0 0 0-8.064-8.021333h0.085333z m543.957334-183.978667h-55.978667a8.064 8.064 0 0 0-8.021333 8.064v175.914667h-176a8.064 8.064 0 0 0-8.021334 8.021333v55.978667a8.106667 8.106667 0 0 0 8.021334 8.021333h180.053333c37.546667 0 67.968-30.421333 67.968-68.010667v-179.84a8.064 8.064 0 0 0-8.021333-8.064v-0.085333z m-203.093334-171.946667a114.090667 114.090667 0 0 0-36.608 4.394667l-46.208-83.669333h12.202667a5.333333 5.333333 0 0 0 5.333333-5.333334V362.24a5.333333 5.333333 0 0 0-5.333333-5.333333h-38.784l-19.2-34.773334a21.205333 21.205333 0 0 0-18.602667-10.965333h-50.986666a5.333333 5.333333 0 0 0-5.333334 5.333333v37.248c0 2.944 2.432 5.248 5.333334 5.248h35.328l47.829333 86.314667-66.901333 126.549333-74.112-147.370666h4.565333a5.290667 5.290667 0 0 0 5.333333-5.290667v-37.205333a5.333333 5.333333 0 0 0-5.333333-5.290667h-86.186667a5.333333 5.333333 0 0 0-5.248 5.290667v37.205333c0 2.944 2.346667 5.290667 5.248 5.290667h28.032l75.306667 149.76h-25.856a114.56 114.56 0 0 0-111.274667-90.368 114.602667 114.602667 0 0 0-114.816 114.090666 114.474667 114.474667 0 0 0 114.346667 114.602667c54.826667 0 100.693333-38.826667 111.744-90.453333h92.885333a21.205333 21.205333 0 0 0 18.773334-11.264l61.141333-115.584 8.789333 15.573333a114.090667 114.090667 0 0 0-40.576 91.306667 114.730667 114.730667 0 0 0 112.64 110.421333 114.474667 114.474667 0 0 0 116.053334-113.578667 114.688 114.688 0 0 0-109.482667-115.072l-0.085333 0.085334z m-372.053333 180.821334a66.56 66.56 0 1 1 0-133.12 66.56 66.56 0 0 1 0 133.12z m367.189333 0a66.56 66.56 0 1 1 0-133.12 66.56 66.56 0 0 1 0 133.12z" p-id="11599"></path></svg>