<?xml version="1.0" standalone="no"?><!DOCTYPE svg PUBLIC "-//W3C//DTD SVG 1.1//EN" "http://www.w3.org/Graphics/SVG/1.1/DTD/svg11.dtd"><svg t="1667550940389" class="icon" viewBox="0 0 1024 1024" version="1.1" xmlns="http://www.w3.org/2000/svg" p-id="924" xmlns:xlink="http://www.w3.org/1999/xlink" width="200" height="200"><path d="M175.999 711.999a8 8 0 0 1 8 8L184 840h119.999a8 8 0 0 1 8 8v56a8 8 0 0 1-8 8H144c-17.673 0-32.001-14.327-32.001-32V719.999a8 8 0 0 1 8-8h56z m672 0H904a8 8 0 0 1 8 8.001v160c0 17.673-14.327 32-32 32H719.999a8 8 0 0 1-8-8v-56a8 8 0 0 1 8-8H840V720a8 8 0 0 1 7.999-8zM512 224c159.058 0 288 128.942 288 288S671.058 800 512 800 224 671.058 224 512s128.942-288 288-288z m0 68c-121.503 0-220 98.497-220 220s98.497 220 220 220 220-98.497 220-220-98.497-220-220-220z m-79.788 261.681l0.127 0.241C447.416 582.512 477.432 602 512 602c33.927 0 63.469-18.772 78.806-46.496l0.488-0.895a7.208 7.208 0 0 1 9.05-3.27l0.23 0.098 42.288 18.828a6.632 6.632 0 0 1 3.361 8.757l-0.134 0.282C621.424 628.349 570.642 662 512 662c-59.498 0-110.906-34.641-135.154-84.855l-0.726-1.527a5.273 5.273 0 0 1 2.535-7.012l0.178-0.08 43.24-18.355a8 8 0 0 1 10.14 3.51zM417 413c22.091 0 40 17.909 40 40s-17.909 40-40 40-40-17.909-40-40 17.909-40 40-40z m190 0c22.091 0 40 17.909 40 40s-17.909 40-40 40-40-17.909-40-40 17.909-40 40-40z m273-301c17.673 0 32 14.327 32 32v160a8 8 0 0 1-8 8h-56.001a8 8 0 0 1-7.996-7.75l-0.004-0.25 0.001-120H719.999a8 8 0 0 1-8-8v-56a8 8 0 0 1 8-8H880z m-576.001 0a8 8 0 0 1 8 8v56a8 8 0 0 1-8 8H184v119.999a8 8 0 0 1-8.001 8h-56a8 8 0 0 1-8-8V144c0-17.673 14.328-32 32.001-32h159.999z" p-id="925"></path></svg>