<?xml version="1.0" standalone="no"?><!DOCTYPE svg PUBLIC "-//W3C//DTD SVG 1.1//EN" "http://www.w3.org/Graphics/SVG/1.1/DTD/svg11.dtd"><svg t="1675999041407" class="icon" viewBox="0 0 1024 1024" version="1.1" xmlns="http://www.w3.org/2000/svg" p-id="1069" xmlns:xlink="http://www.w3.org/1999/xlink" width="200" height="200"><path d="M176 712c4.416 0 8 3.584 8 8v120H304c4.416 0 8 3.584 8 8v56a8 8 0 0 1-8 8h-160a32 32 0 0 1-32-32v-160c0-4.48 3.584-8 8-8h56z m728 0c4.416 0 8 3.584 8 8v160a32 32 0 0 1-32 32h-160a8 8 0 0 1-8-8v-56c0-4.416 3.584-8 8-8h120V720c0-4.416 3.584-8 8-8h56zM490.688 325.76a37.376 37.376 0 0 1 28.992 6.72c6.528 4.992 12.352 10.816 17.28 17.28l50.56 82.432c1.6 2.56 4.352 4.096 7.296 4.096h65.536a23.488 23.488 0 0 1 0 46.912H565.76a18.688 18.688 0 0 1-15.808-8.768l-24.128-38.144-18.432 76.608 62.72 111.744c2.56 4.48 3.84 9.6 3.84 14.72v136.448a23.68 23.68 0 0 1-23.552 23.68h-0.96a23.552 23.552 0 0 1-23.552-23.68V678.4c0-6.4-2.112-12.736-5.952-17.92l-54.528-73.536-70.848 196.928a23.552 23.552 0 0 1-45.12-13.824L444.416 394.24l-49.792 16.64a8.384 8.384 0 0 0-5.76 8V487.04a23.488 23.488 0 1 1-46.848 0V387.52c0-8.448 5.44-16 13.44-18.56l128.448-41.408c2.24-0.704 4.48-1.28 6.784-1.792z m62.336-100.736a46.592 46.592 0 0 1 33.344 13.632c4.032 4.8 7.36 10.24 9.856 16 2.56 5.888 3.776 12.224 3.712 18.56a46.72 46.72 0 0 1-13.568 33.408 47.744 47.744 0 0 1-51.84 9.792 64.896 64.896 0 0 1-16.192-9.856 47.488 47.488 0 0 1-9.792-51.904c2.56-5.824 5.824-11.264 9.92-16.064a63.104 63.104 0 0 1 16-9.92 47.232 47.232 0 0 1 18.56-3.648zM880 112a32 32 0 0 1 32 32v160a8 8 0 0 1-8 8h-56a8 8 0 0 1-8-7.744V184H720a8 8 0 0 1-8-8v-56c0-4.416 3.584-8 8-8h160z m-576 0c4.416 0 8 3.584 8 8v56a8 8 0 0 1-8 8H184V304a8 8 0 0 1-8 8h-56a8 8 0 0 1-8-8v-160a32 32 0 0 1 32-32h160z" p-id="1070"></path></svg>