<?xml version="1.0" standalone="no"?><!DOCTYPE svg PUBLIC "-//W3C//DTD SVG 1.1//EN" "http://www.w3.org/Graphics/SVG/1.1/DTD/svg11.dtd"><svg t="1681871832393" class="icon" viewBox="0 0 1024 1024" version="1.1" xmlns="http://www.w3.org/2000/svg" p-id="969" xmlns:xlink="http://www.w3.org/1999/xlink" width="200" height="200"><path d="M176 712c4.416 0 8 3.584 8 8v120h120c4.416 0 8 3.584 8 8v56a8 8 0 0 1-8 8H144a32 32 0 0 1-32-32V720c0-4.48 3.584-8 8-8h56z m672 0h56c4.416 0 8 3.584 8 8v160a32 32 0 0 1-32 32H720a8 8 0 0 1-8-8v-56c0-4.416 3.584-8 8-8h120V720c0-4.416 3.584-8 8-8z m32-600a32 32 0 0 1 32 32v160a8 8 0 0 1-8 8h-56a8 8 0 0 1-8-7.744V184H720a8 8 0 0 1-8-8v-56c0-4.416 3.584-8 8-8h160zM512.512 216a40.128 40.128 0 0 1 38.144 51.2l147.584 57.92v142.592l67.904 29.76c1.92 0.832 3.712 1.92 5.248 3.2l0.448 0.384 0.192 0.128 1.28 1.28a21.888 21.888 0 0 1 1.536 1.664l0.384 0.512 0.128 0.192a21.12 21.12 0 0 1 1.6 2.432l0.256 0.448 0.448 0.896a22.656 22.656 0 0 1 1.088 2.688l0.128 0.64 0.256 0.832 0.192 0.832a24.128 24.128 0 0 1 0.256 1.28l0.064 0.512 0.064 0.576 0.064 0.64v0.96l0.064 1.088a22.656 22.656 0 0 1-1.344 7.552l-0.192 0.512-56.064 143.936c7.488 3.072 14.528 7.488 20.8 13.184l0.64 0.64 56.192 52.48a5.76 5.76 0 0 1 0.448 7.936l-0.192 0.192-27.264 29.184a5.76 5.76 0 0 1-7.872 0.448l-0.192-0.192-56.192-52.544-0.256-0.192a19.968 19.968 0 0 0-26.752-0.064l-0.32 0.256-29.184 27.264-0.832 0.768a71.04 71.04 0 0 1-42.88 18.304h-0.64a71.68 71.68 0 0 1-6.848 0.128h-1.216l-2.048-0.192-1.92-0.192h-0.192a70.4 70.4 0 0 1-1.984-0.256l-1.088-0.128a70.912 70.912 0 0 1-3.008-0.576l-1.152-0.192-0.96-0.256-0.96-0.192-0.512-0.128-0.576-0.128-0.96-0.32-1.024-0.256-0.96-0.32-2.176-0.64-0.896-0.384-0.448-0.128-0.576-0.192a69.952 69.952 0 0 1-1.728-0.704l-0.256-0.128a70.528 70.528 0 0 1-2.688-1.152l-1.152-0.512-1.792-0.896L569.6 760l-1.024-0.576-0.832-0.448-1.024-0.64-0.768-0.448-1.024-0.64-0.832-0.512-0.448-0.32-0.512-0.32-0.384-0.32-0.448-0.32a71.36 71.36 0 0 1-4.288-3.2l-0.192-0.192-0.64-0.512-0.448-0.448-0.512-0.384-0.704-0.64-0.832-0.832-29.184-27.264-0.32-0.256-0.64-0.512-0.192-0.192-0.448-0.384-0.32-0.256-0.32-0.192-0.32-0.256-0.512-0.32-0.32-0.192-0.256-0.128-0.32-0.192a19.968 19.968 0 0 0-0.896-0.448l-0.32-0.192-0.512-0.192-0.448-0.256-0.384-0.128-0.512-0.192-1.088-0.32-0.32-0.128-1.024-0.192-0.448-0.128-0.576-0.064-0.32-0.064-0.512-0.064h-0.384l-0.32-0.064h-0.512l-0.64-0.064h-2.048l-0.64 0.128-0.704 0.064h-0.384l-0.576 0.192-0.512 0.064-0.384 0.128-1.024 0.256-0.32 0.128-0.704 0.256a19.84 19.84 0 0 0-1.024 0.384l-0.256 0.064-0.448 0.192-0.64 0.384-0.32 0.128-0.512 0.32-0.32 0.192a19.84 19.84 0 0 0-0.64 0.384l-0.256 0.192-0.32 0.192-0.32 0.256a20.032 20.032 0 0 0-1.28 1.024l-0.192 0.192-0.32 0.256-29.184 27.264-0.832 0.768-0.384 0.384-0.448 0.384-0.384 0.384-0.448 0.384a71.488 71.488 0 0 1-4.224 3.328l-0.96 0.64-1.024 0.704-0.768 0.512-0.96 0.64-1.408 0.896-0.832 0.448-0.896 0.576-0.96 0.512-0.512 0.256-1.92 0.96-0.832 0.448-1.088 0.512-0.384 0.192-0.512 0.192-1.792 0.768-0.64 0.256-0.576 0.256-0.896 0.32-0.448 0.192-0.64 0.192-0.96 0.32-1.92 0.64-1.088 0.32a71.04 71.04 0 0 1-3.904 1.024l-1.152 0.256a71.04 71.04 0 0 1-3.008 0.64l-1.024 0.128a70.784 70.784 0 0 1-3.008 0.32l-1.152 0.128-1.024 0.064-1.024 0.064-1.088 0.064h-0.448l-0.512 0.064a71.68 71.68 0 0 1-50.56-18.432l-0.768-0.768L342.4 721.92a19.968 19.968 0 0 0-27.072-0.192l-0.256 0.192-56.192 52.544a5.76 5.76 0 0 1-8.064-0.256l-27.264-29.184a5.76 5.76 0 0 1 0.256-8.064L280 684.416a71.16 71.16 0 0 1 21.376-13.824l-56-143.936a22.912 22.912 0 0 1-1.216-4.416l-0.128-0.576a22.656 22.656 0 0 1-0.064-0.896l-0.064-0.896v-3.712l0.064-0.384v-0.256l0.128-0.448 0.064-0.64 0.128-0.512 0.128-0.768 0.576-1.92 0.192-0.64v-0.128a22.912 22.912 0 0 1 1.728-3.52l0.128-0.192 0.128-0.256 0.256-0.384 0.64-0.96 0.704-0.96 0.32-0.384 0.448-0.512 0.128-0.192 0.448-0.448 0.896-0.896 0.64-0.512 0.256-0.256 0.128-0.128a21.76 21.76 0 0 1 0.64-0.576l0.192-0.064 0.64-0.512 0.512-0.32a22.144 22.144 0 0 1 0.768-0.512l0.448-0.256a22.784 22.784 0 0 1 1.664-0.896l0.64-0.256 67.84-29.76 0.064-142.72 148.224-57.28a39.68 39.68 0 0 1-0.192-0.448v-0.192a39.232 39.232 0 0 1-0.64-2.496l-0.192-0.896-0.128-0.768-0.192-0.512a39.936 39.936 0 0 1 39.424-46.4h0.64zM488 457.664l-108.48 47.488L309.12 536l51.136 131.328 0.384 0.192c6.784 3.2 13.248 7.36 19.136 12.672l0.832 0.832 29.056 27.136 0.384 0.384 0.256 0.192a15.04 15.04 0 0 0 8.64 3.648h3.072l0.32-0.064 0.768-0.128 0.512-0.128h0.32l0.704-0.256 0.32-0.064 0.448-0.192 0.64-0.192 0.256-0.128 0.512-0.256 0.384-0.192 0.448-0.192 0.384-0.256 0.768-0.448 1.024-0.768 0.512-0.448 0.128-0.128 0.448-0.384 29.248-27.328 0.832-0.768 0.768-0.64 0.128-0.192a77.312 77.312 0 0 1 3.968-3.2l0.768-0.64 1.152-0.768 0.448-0.32 0.832-0.64 0.96-0.576 0.768-0.512 1.664-1.088 1.536-0.896 1.152-0.64 0.768-0.448 1.984-0.96 0.512-0.256 0.384-0.192 0.576-0.256 0.64-0.32 0.512-0.256 0.64-0.256 0.96-0.448a75.84 75.84 0 0 1 5.568-2.112l0.96-0.32 0.832-0.192 0.256-0.128 0.768-0.192 0.512-0.192 2.688-0.704 0.896-0.192h0.064l0.96-0.256 0.768-0.192 2.688-0.448 0.256-0.064 1.408-0.192 1.472-0.256h0.32l0.96-0.128 0.64-0.064 1.664 16.512 0.32 3.072 1.152 10.24-3.008-29.824 0.448-0.064 1.728-0.128 2.688-0.192h6.08l0.96 0.128h1.088l0.96 0.128h0.64l0.256 0.064 1.216 0.128v0.064l0.448 0.064h0.576l0.704 0.064 0.896 0.128 0.896 0.192 1.088 0.192h0.384l0.192 0.064-0.704 8.192 1.6-8 0.512 0.064 0.64 0.128 0.512 0.128 1.408 0.32 1.28 0.32 0.448 0.128-3.84 14.72 4.032-14.72 0.832 0.256 0.896 0.256 0.448 0.128-7.936 27.072 8.192-27.008 0.384 0.128 0.448 0.192 1.024 0.32 0.64 0.192 0.896 0.32 0.96 0.32 1.344 0.512 0.64 0.256 0.128 0.064 0.96 0.384 0.256 0.128 0.512 0.192 1.92 0.896 0.192 0.064 1.152 0.576 0.192 0.064c1.088 0.512 2.112 1.088 3.2 1.728l0.64 0.32 0.768 0.448 0.96 0.64-20.48 34.048 4.096-6.4 16.768-27.52 0.32 0.256 1.024 0.64 0.64 0.384 0.96 0.64 0.64 0.384-0.256 0.32 0.256-0.256 0.32 0.192 0.896 0.64 0.832 0.64 0.896 0.64 0.896 0.768 0.768 0.64 0.448 0.32 0.576 0.448 0.64 0.576 0.448 0.32 1.28 1.28 0.704 0.576 29.056 27.136 0.896 0.832a15.488 15.488 0 0 0 0.64 0.448l0.384 0.32 0.384 0.256 0.32 0.192 0.192 0.128 0.192 0.064 0.448 0.256 0.32 0.192 0.32 0.128 0.384 0.192 0.32 0.128 0.192 0.064 0.64 0.256 0.32 0.128 0.512 0.128 0.64 0.128 0.32 0.128h0.256l0.256 0.064 1.024 0.128h0.32l0.384 0.064h1.92a15.104 15.104 0 0 0 8.96-3.648l0.32-0.192 0.32-0.384 29.312-27.328 0.64-0.64 0.192-0.192c5.824-5.184 12.16-9.344 18.944-12.48l0.384-0.192L714.56 536l-74.688-32.64L536 457.792V552a24 24 0 0 1-48 0v-94.336z m23.808-142.976l-128 50.176-0.064 77.376 118.912-52.096a23.488 23.488 0 0 1 13.952-1.408l4.352 1.408 118.912 52.032v-77.312l-128-50.176zM304 112c4.416 0 8 3.584 8 8v56a8 8 0 0 1-8 8H184v120a8 8 0 0 1-8 8h-56a8 8 0 0 1-8-8V144a32 32 0 0 1 32-32h160z" p-id="970"></path></svg>