<?xml version="1.0" standalone="no"?><!DOCTYPE svg PUBLIC "-//W3C//DTD SVG 1.1//EN" "http://www.w3.org/Graphics/SVG/1.1/DTD/svg11.dtd"><svg t="1675999050202" class="icon" viewBox="0 0 1024 1024" version="1.1" xmlns="http://www.w3.org/2000/svg" p-id="1381" xmlns:xlink="http://www.w3.org/1999/xlink" width="200" height="200"><path d="M176 712c4.416 0 8 3.584 8 8v120H304c4.416 0 8 3.584 8 8v56a8 8 0 0 1-8 8h-160a32 32 0 0 1-32-32v-160c0-4.48 3.584-8 8-8h56z m672 0h56c4.416 0 8 3.584 8 8v160a32 32 0 0 1-32 32h-160a8 8 0 0 1-8-8v-56c0-4.416 3.584-8 8-8h120V720c0-4.416 3.584-8 8-8zM512 224a288 288 0 1 1 0 576 288 288 0 0 1 0-576z m0 68.032a219.968 219.968 0 1 0 0 439.936 219.968 219.968 0 0 0 0-439.936zM432.192 553.6l0.128 0.256a89.984 89.984 0 0 0 158.464 1.6l0.512-0.896a7.232 7.232 0 0 1 9.024-3.264l0.256 0.064 42.24 18.816a6.656 6.656 0 0 1 3.392 8.768l-0.128 0.32a150.016 150.016 0 0 1-269.248-2.176l-0.704-1.536a5.248 5.248 0 0 1 2.56-7.04h0.128l43.264-18.432a8 8 0 0 1 10.112 3.52z m-15.168-140.672a40 40 0 1 1 0 80 40 40 0 0 1 0-80z m189.952 0a40 40 0 1 1 0 80 40 40 0 0 1 0-80zM880 112a32 32 0 0 1 32 32v160a8 8 0 0 1-8 8h-56a8 8 0 0 1-8-7.744V184H720a8 8 0 0 1-8-8v-56c0-4.416 3.584-8 8-8h160z m-576 0c4.416 0 8 3.584 8 8v56a8 8 0 0 1-8 8H184V304a8 8 0 0 1-8 8h-56a8 8 0 0 1-8-8v-160a32 32 0 0 1 32-32h160z" p-id="1382"></path></svg>