<?xml version="1.0" standalone="no"?><!DOCTYPE svg PUBLIC "-//W3C//DTD SVG 1.1//EN" "http://www.w3.org/Graphics/SVG/1.1/DTD/svg11.dtd"><svg t="1682593941136" class="icon" viewBox="0 0 1024 1024" version="1.1" xmlns="http://www.w3.org/2000/svg" p-id="4030" xmlns:xlink="http://www.w3.org/1999/xlink" width="200" height="200"><path d="M176 712c4.416 0 8 3.584 8 8v120H304c4.416 0 8 3.584 8 8v56a8 8 0 0 1-8 8h-160a32 32 0 0 1-32-32v-160c0-4.48 3.584-8 8-8h56z m728 0c4.416 0 8 3.584 8 8v160a32 32 0 0 1-32 32h-160a8 8 0 0 1-8-8v-56c0-4.416 3.584-8 8-8h120V720c0-4.416 3.584-8 8-8h56zM512.512 208a40.128 40.128 0 0 1 38.144 51.2l137.408 53.952a16 16 0 0 1 10.176 14.848v131.712l67.904 29.76a21.76 21.76 0 0 1 5.248 3.2l0.448 0.384 0.192 0.128 1.28 1.28 1.536 1.664 0.384 0.512 0.128 0.192a21.12 21.12 0 0 1 1.6 2.432l0.256 0.448 0.448 0.896a22.656 22.656 0 0 1 1.088 2.688l0.128 0.64 0.256 0.832 0.192 0.832 0.256 1.28 0.064 0.512 0.064 0.576 0.064 0.64 0.064 2.048c0 2.56-0.448 5.12-1.344 7.552l-0.192 0.512-52.608 135.104c7.936 3.264 15.424 8.064 21.952 14.464l54.912 54.848a8 8 0 0 1 0 11.328l-31.104 31.104a8 8 0 0 1-11.328 0l-54.08-54.08a9.984 9.984 0 0 0-13.888-0.192l-0.256 0.192-37.376 37.44a70.016 70.016 0 0 1-98.176 0.832l-0.832-0.832-37.44-37.44a9.984 9.984 0 0 0-13.952-0.192l-0.192 0.192-37.44 37.44a70.016 70.016 0 0 1-98.176 0.832l-0.832-0.832-36.416-36.48a9.984 9.984 0 0 0-9.472-2.56 19.84 19.84 0 0 0-4.352 2.304l-0.32 0.32-53.056 53.056a8 8 0 0 1-7.232 2.176 5.76 5.76 0 0 1-5.824-1.536l-27.264-29.184a5.76 5.76 0 0 1-0.96-1.472l-1.152-1.088a8 8 0 0 1 0-11.328l53.12-53.12c6.912-6.912 15.04-12.16 23.68-15.552l-52.864-135.808a22.912 22.912 0 0 1-1.216-4.416l-0.128-0.576-0.064-0.896-0.064-0.896V508.16l0.064-0.384V507.52l0.128-0.448 0.064-0.64 0.128-0.512 0.128-0.768 0.768-2.56v-0.128a22.912 22.912 0 0 1 1.728-3.52l0.128-0.192 0.128-0.256 0.896-1.344 0.704-0.96 0.32-0.384 0.448-0.512 0.128-0.192 1.344-1.344 0.64-0.512a20.864 20.864 0 0 1 1.024-0.96l0.192-0.064 0.64-0.512 0.512-0.32 0.384-0.256 0.832-0.512a22.784 22.784 0 0 1 1.664-0.896l0.64-0.256 67.84-29.76V327.936a16 16 0 0 1 10.24-14.912l138.048-53.312-0.192-0.448v-0.192a39.232 39.232 0 0 1-0.64-2.496l-0.192-0.896-0.128-0.768-0.192-0.512a39.936 39.936 0 0 1 39.424-46.4h0.768z m-24.512 241.664l-108.48 47.488-70.4 30.848 51.136 131.328 0.192 0.448c4.352 2.688 8.448 5.76 12.224 9.472l37.248 37.248c3.84 3.84 10.048 3.904 13.952 0.192l0.192-0.192 37.44-37.44a70.016 70.016 0 0 1 98.176-0.768l38.272 38.208c3.84 3.84 9.984 3.904 13.888 0.192l37.632-37.632c4.48-4.416 9.344-8.128 14.464-11.136l50.624-129.92-74.688-32.64-103.872-45.568V560a8 8 0 0 1-8 8h-32a8 8 0 0 1-8-8V449.664z m23.872-142.976h-0.064l-128 50.176-0.064 77.376 118.912-52.096a23.488 23.488 0 0 1 13.952-1.408l4.352 1.408 118.912 52.032V356.864l-128-50.176zM880 112a32 32 0 0 1 32 32v160a8 8 0 0 1-8 8h-56a8 8 0 0 1-8-7.744V184H720a8 8 0 0 1-8-8v-56c0-4.416 3.584-8 8-8h160z m-576 0c4.416 0 8 3.584 8 8v56a8 8 0 0 1-8 8H184V304a8 8 0 0 1-8 8h-56a8 8 0 0 1-8-8v-160a32 32 0 0 1 32-32h160z" fill="#0A1B39" p-id="4031"></path></svg>