<?xml version="1.0" standalone="no"?><!DOCTYPE svg PUBLIC "-//W3C//DTD SVG 1.1//EN" "http://www.w3.org/Graphics/SVG/1.1/DTD/svg11.dtd"><svg t="1675999045857" class="icon" viewBox="0 0 1024 1024" version="1.1" xmlns="http://www.w3.org/2000/svg" p-id="1225" xmlns:xlink="http://www.w3.org/1999/xlink" width="200" height="200"><path d="M176 712c4.416 0 8 3.584 8 8v120H304c4.416 0 8 3.584 8 8v56a8 8 0 0 1-8 8h-160a32 32 0 0 1-32-32v-160c0-4.48 3.584-8 8-8h56z m672 0h56c4.416 0 8 3.584 8 8v160a32 32 0 0 1-32 32h-160a8 8 0 0 1-8-8v-56c0-4.416 3.584-8 8-8h120V720c0-4.416 3.584-8 8-8zM604.672 251.968a32 32 0 0 1 31.488 26.368l34.688 193.728a132.032 132.032 0 1 1-55.168 9.856l-5.248-29.568-155.648 115.136A120 120 0 1 1 369.792 498.56l-18.048-94.592h-27.776a16 16 0 0 1-16-16v-24a16 16 0 0 1 16-16h100.032a16 16 0 0 1 16 16v24a16 16 0 0 1-16 16h-19.328l22.72 119.04 172.8-127.808-15.616-87.168H499.968a8 8 0 0 1-8-8v-40c0-4.48 3.584-8 8-8h104.704zM344.96 556.032a60.032 60.032 0 1 0 59.008 49.088l-43.072 31.872a25.984 25.984 0 0 1-31.296-41.6l0.384-0.256 43.264-32a59.712 59.712 0 0 0-28.288-7.04z m336.832-22.208l11.712 65.28a28.032 28.032 0 0 1-55.04 10.368l-0.064-0.448-11.712-65.28a71.936 71.936 0 1 0 55.104-9.92z m198.144-421.76a32 32 0 0 1 32 32v160a8 8 0 0 1-8 8h-56a8 8 0 0 1-8-7.744V184H720a8 8 0 0 1-8-8v-56c0-4.416 3.584-8 8-8h160z m-576 0c4.416 0 8 3.584 8 8v56a8 8 0 0 1-8 8H184V304a8 8 0 0 1-8 8h-56a8 8 0 0 1-8-8v-160a32 32 0 0 1 32-32h160z" p-id="1226"></path></svg>