<?xml version="1.0" standalone="no"?><!DOCTYPE svg PUBLIC "-//W3C//DTD SVG 1.1//EN" "http://www.w3.org/Graphics/SVG/1.1/DTD/svg11.dtd"><svg t="1724641995262" class="icon" viewBox="0 0 1024 1024" version="1.1" xmlns="http://www.w3.org/2000/svg" p-id="1799" xmlns:xlink="http://www.w3.org/1999/xlink" width="200" height="200"><path d="M579.244 342.453l283.735 605.301a8 8 0 0 1-10.451 10.725L572 835.719l-280.528 122.76a8 8 0 0 1-10.45-10.725l283.734-605.3a8 8 0 0 1 14.488 0zM572 515.487L434.65 808.499 572 748.394 709.349 808.5 572 515.487z m-8.068-451.12a7.808 7.808 0 0 1 8.164 0.889v-0.064l128 100.992a7.872 7.872 0 0 1 0 12.288l-128.128 101.12c-4.992 3.968-12.48 0.512-12.608-5.824V209.64c-100.127 0.262-194.583 46.51-256.192 125.44a325.952 325.952 0 0 0-66.944 240.64l0.96 6.912a8 8 0 0 1-6.72 9.088l-1.216 0.128h-58.496c-4.096 0-7.424-3.072-7.936-7.04l-0.768-6.272-1.728-21.312a398.656 398.656 0 0 1 84.352-267.712c75.678-96.935 191.647-153.787 314.624-154.24l0.192-64a7.808 7.808 0 0 1 4.444-6.906z" p-id="1800"></path></svg>