<?xml version="1.0" standalone="no"?><!DOCTYPE svg PUBLIC "-//W3C//DTD SVG 1.1//EN" "http://www.w3.org/Graphics/SVG/1.1/DTD/svg11.dtd"><svg t="1678023365295" class="icon" viewBox="0 0 1024 1024" version="1.1" xmlns="http://www.w3.org/2000/svg" p-id="1206" xmlns:xlink="http://www.w3.org/1999/xlink" width="200" height="200"><path d="M512 64a120 120 0 1 1 0 240 120 120 0 0 1 0-240z m0 68.032a51.968 51.968 0 1 0 0 103.936 51.968 51.968 0 0 0 0-103.936zM899.968 288A120 120 0 1 1 692.16 408a120 120 0 0 1 207.808-120z m-58.88 33.984a51.968 51.968 0 1 0-90.048 52.032 51.968 51.968 0 0 0 90.048-52.032zM899.968 736A120 120 0 1 1 692.16 616a120 120 0 0 1 207.808 120z m-58.88-33.984a51.968 51.968 0 1 0-90.048-52.032 51.968 51.968 0 0 0 90.048 52.032zM512 960a120 120 0 1 1 0-240 120 120 0 0 1 0 240z m0-68.032a51.968 51.968 0 1 0 0-103.936 51.968 51.968 0 0 0 0 103.936zM124.032 736A120 120 0 1 1 331.84 616a120 120 0 0 1-207.808 120z m58.88-33.984a51.968 51.968 0 1 0 90.048-52.032 51.968 51.968 0 0 0-90.048 52.032zM124.032 288A120 120 0 1 1 331.84 408a120 120 0 0 1-207.808-120z m58.88 33.984a51.968 51.968 0 1 0 90.048 52.032 51.968 51.968 0 0 0-90.048-52.032z" p-id="1207"></path></svg>