<?xml version="1.0" standalone="no"?><!DOCTYPE svg PUBLIC "-//W3C//DTD SVG 1.1//EN" "http://www.w3.org/Graphics/SVG/1.1/DTD/svg11.dtd"><svg t="1658326547534" class="icon" viewBox="0 0 1024 1024" version="1.1" xmlns="http://www.w3.org/2000/svg" p-id="23584" xmlns:xlink="http://www.w3.org/1999/xlink" width="200" height="200"><defs><style type="text/css">@font-face { font-family: feedback-iconfont; src: url("//at.alicdn.com/t/font_1031158_u69w8yhxdu.woff2?t=1630033759944") format("woff2"), url("//at.alicdn.com/t/font_1031158_u69w8yhxdu.woff?t=1630033759944") format("woff"), url("//at.alicdn.com/t/font_1031158_u69w8yhxdu.ttf?t=1630033759944") format("truetype"); }
</style></defs><path d="M512 64c48.64 0 89.216 34.752 98.176 80.832a379.52 379.52 0 0 1 170.624 98.56c10.24-3.456 20.672-5.248 31.04-5.376h1.536a99.968 99.968 0 0 1 65.728 175.36 380.544 380.544 0 0 1 0 197.12 100.032 100.032 0 0 1-64.192 175.488h-1.536c-10.88 0-21.888-1.728-32.576-5.44a379.52 379.52 0 0 1-170.624 98.624A100.032 100.032 0 0 1 513.664 960H512c-48.64 0-89.216-34.752-98.176-80.832a379.52 379.52 0 0 1-170.624-98.56 99.328 99.328 0 0 1-31.04 5.376H210.56a99.968 99.968 0 0 1-65.728-175.36 380.544 380.544 0 0 1 0-197.12 100.032 100.032 0 0 1 64.192-175.488h1.536c10.88 0 21.888 1.728 32.576 5.44a379.52 379.52 0 0 1 170.624-98.624c8.896-45.568 48.64-80 96.512-80.832H512z m0 752a43.968 43.968 0 1 0 0 88 43.968 43.968 0 0 0 0-88z m89.408-607.168l-0.384 0.704c-16.32 31.872-49.28 53.824-87.36 54.4L512 264.064c-39.104 0-72.96-22.4-89.408-55.168a315.52 315.52 0 0 0-128.384 74.24 99.968 99.968 0 0 1-82.048 154.88l-1.536 0.064c-1.92 0-3.904 0-5.888-0.192a316.288 316.288 0 0 0 0 148.352l4.352-0.192h1.536a99.968 99.968 0 0 1 83.584 154.944 315.52 315.52 0 0 0 128.384 74.24 99.968 99.968 0 0 1 87.744-55.168H512c39.104 0 72.96 22.4 89.408 55.168a315.52 315.52 0 0 0 128.384-74.24 99.968 99.968 0 0 1 82.048-154.88l1.536-0.064c1.92 0 3.904 0 5.888 0.192a316.288 316.288 0 0 0 0-148.352l-4.352 0.192h-1.536a99.968 99.968 0 0 1-83.584-154.944 315.52 315.52 0 0 0-128.384-74.24z m173.888 455.168a44.032 44.032 0 1 0 76.16 44.032 44.032 44.032 0 0 0-76.16-44.032z m-586.688-16.128a44.032 44.032 0 1 0 60.48 16.768l-0.384-0.64a44.032 44.032 0 0 0-60.096-16.128z m-16.064-331.84a44.032 44.032 0 1 0 76.16 43.968 44.032 44.032 0 0 0-76.16-44.032z m618.88-16.128a44.032 44.032 0 1 0 60.416 16.704l-0.384-0.64a44.032 44.032 0 0 0-60.096-16.064zM512 120A43.968 43.968 0 1 0 512 208a43.968 43.968 0 0 0 0-88z" p-id="23585"></path></svg>