<?xml version="1.0" standalone="no"?><!DOCTYPE svg PUBLIC "-//W3C//DTD SVG 1.1//EN" "http://www.w3.org/Graphics/SVG/1.1/DTD/svg11.dtd"><svg t="1678335544003" class="icon" viewBox="0 0 1024 1024" version="1.1" xmlns="http://www.w3.org/2000/svg" p-id="1172" xmlns:xlink="http://www.w3.org/1999/xlink" width="200" height="200"><path d="M383.552 853.76l33.28 45.12c2.56 3.52 1.856 8.384-1.536 11.072l-0.192 0.128-2.56 1.92h-47.616a16 16 0 0 1-12.8-6.528l-13.632-18.432a8 8 0 0 1 1.472-11.008l0.192-0.192 32.192-23.68a8 8 0 0 1 11.2 1.664zM279.68 112a8 8 0 0 1 6.72 12.352l-48.96 75.968a161.984 161.984 0 0 0-1.024 173.632l1.024 1.6 4.928 7.68a238.016 238.016 0 0 1 1.472 255.04l-1.472 2.368-4.928 7.68a161.984 161.984 0 0 0-1.024 173.632l1.024 1.6 48.896 76.032a8 8 0 0 1-6.72 12.352h-66.944a16 16 0 0 1-13.44-7.36l-25.664-39.936a238.016 238.016 0 0 1-1.472-255.04l1.472-2.368 4.928-7.68c33.92-52.864 34.304-120.512 1.024-173.632l-1.024-1.6-4.928-7.68a238.016 238.016 0 0 1-1.472-255.04l1.472-2.368 25.664-39.936a16 16 0 0 1 13.44-7.36h67.008z m608 0a8 8 0 0 1 6.72 12.352l-48.96 75.968a161.984 161.984 0 0 0-1.024 173.632l1.024 1.6 4.928 7.68a238.016 238.016 0 0 1 1.472 255.04l-1.472 2.368-4.928 7.68a161.984 161.984 0 0 0-1.024 173.632l1.024 1.6 48.896 76.032a8 8 0 0 1-6.72 12.352h-67.008a16 16 0 0 1-13.44-7.36l-25.664-39.936a238.016 238.016 0 0 1-1.472-255.04l1.472-2.368 4.928-7.68c33.92-52.864 34.304-120.512 1.024-173.632l-1.024-1.6-4.928-7.68a238.016 238.016 0 0 1-1.472-255.04l1.472-2.368 25.664-39.936a16 16 0 0 1 13.44-7.36h67.008zM727.936 873.728l0.128 0.256 14.592 26.112a8 8 0 0 1-7.04 11.904h-41.088a16 16 0 0 1-13.952-8.192l-1.408-2.56a8 8 0 0 1 2.88-10.752l0.192-0.128 34.944-19.456a8 8 0 0 1 10.752 2.816z m-45.824-99.904l0.128 0.448 0.192 0.96 0.128 0.896 0.192 0.832 0.128 0.768c2.816 12.864 7.04 25.472 12.8 37.44l0.64 1.472 0.576 1.024 0.256 0.512c1.92 3.84 0.512 8.576-3.2 10.688l-0.256 0.128-0.384 0.192-33.408 18.56a8.128 8.128 0 0 1-11.968-2.752l-0.64-1.28-0.64-1.28-0.384-0.704-0.128-0.32a227.712 227.712 0 0 1-18.688-55.296l-0.192-1.152-0.384-1.92a8 8 0 0 1 6.464-9.28h0.32l38.72-5.76a8.064 8.064 0 0 1 9.728 5.76z m-346.944-14.592a8 8 0 0 1 0.32 1.216l0.256 1.6 0.256 1.408 0.192 0.896 0.192 0.896 0.128 0.768 0.064 0.32a167.308 167.308 0 0 0 10.112 30.848l0.64 1.536 0.32 0.64 0.64 1.28 0.64 1.216 0.384 0.832 0.64 1.28a8 8 0 0 1-3.52 10.816l-0.512 0.32-32.768 18.304a8.256 8.256 0 0 1-12.416-2.56l-0.64-1.28-0.448-0.832-0.384-0.768-0.512-1.024-0.32-0.64a219.2 219.2 0 0 1-16.832-49.472l-0.128-0.64-0.256-1.088-0.256-1.28-0.32-1.728-0.448-2.56-0.192-1.088a8 8 0 0 1 6.592-9.216l0.896-0.128 0.896-0.128 36.608-4.864a8.256 8.256 0 0 1 10.176 5.12z m317.888-114.048l35.392 17.152a8.064 8.064 0 0 1 4.672 10.88l-0.512 1.28-0.512 1.088-0.256 0.64c-5.312 12.928-8.96 26.432-11.008 40.192l-0.192 1.472a8 8 0 0 1-8.768 6.912h-0.512l-38.464-3.584a8.064 8.064 0 0 1-8-9.024l0.256-1.664 0.064-0.768a227.84 227.84 0 0 1 15.68-56.896l0.64-1.6 0.64-1.28 0.32-0.768a8 8 0 0 1 10.56-4.032z m-343.168-14.336l1.216 0.64 33.28 17.92a8.128 8.128 0 0 1 4.48 11.136l-0.704 1.344-0.64 1.28-0.512 1.216-0.512 1.024a163.2 163.2 0 0 0-10.88 35.584l-0.192 0.64-0.128 1.024-0.256 1.28v0.384a8 8 0 0 1-8.96 6.72h-0.448l-38.72-4.608a8 8 0 0 1-7.488-9.216l0.128-1.152c3.2-19.712 9.088-38.912 17.472-57.152l0.768-1.536 0.512-1.152 0.64-1.28a8 8 0 0 1 10.944-4.032z m390.528-88.96l0.512 0.064 37.696 6.4a8.064 8.064 0 0 1 7.424 9.664l-0.192 0.96-0.256 1.344-0.192 0.832-0.064 0.384a227.648 227.648 0 0 1-19.52 54.016l-0.832 1.536-0.576 1.088-0.704 1.28a8 8 0 0 1-10.88 3.2l-0.384-0.192-33.536-19.648a8.064 8.064 0 0 1-3.84-11.136l0.64-1.152 0.128-0.256a173.397 173.397 0 0 0 14.848-40.96l0.256-1.28a8 8 0 0 1 9.472-6.144z m-349.824-13.696h0.256l38.976 3.264a8 8 0 0 1 7.808 8.96l-0.192 1.6v0.64a225.472 225.472 0 0 1-15.936 58.624l-0.64 1.536-0.384 0.768a8 8 0 0 1-10.56 4.096l-0.832-0.384-35.328-16.96a8 8 0 0 1-4.032-10.496l0.448-1.024 0.256-0.64a168.068 168.068 0 0 0 11.392-42.368l0.064-0.64a8 8 0 0 1 8.704-6.976z m382.464-104.96l0.128 0.32c8 19.136 13.376 39.232 15.936 59.776l0.192 1.92 0.128 1.28 0.064 0.64a8 8 0 0 1-7.104 8.768h-0.384l-39.168 2.816a8.064 8.064 0 0 1-9.088-6.656v-0.384l-0.128-0.768-0.128-0.704a171.776 171.776 0 0 0-10.752-42.112l-0.256-0.448-0.32-0.896a8 8 0 0 1 4.096-10.368l0.192-0.064 0.128-0.064 36.288-16.768a7.68 7.68 0 0 1 10.176 3.776z m-360.896-16.64a7.808 7.808 0 0 1 0.832 1.152l1.152 2.24 0.64 1.28 0.64 1.088 0.32 0.704 0.32 0.64c7.68 15.488 13.44 31.808 17.28 48.512l0.256 1.024 0.32 1.472 0.32 1.28 0.448 2.432 0.192 1.024a8 8 0 0 1-6.336 9.408h-0.384l-38.4 6.208a8.064 8.064 0 0 1-10.048-6.144l-0.32-1.408-0.256-1.28-0.192-0.768-0.128-0.704a169.28 169.28 0 0 0-11.52-33.088l-0.192-0.64-0.32-0.64-0.512-0.96-0.576-1.152-0.64-1.216-0.64-1.28a8 8 0 0 1 3.136-11.264l0.256-0.192a2.304 2.304 0 0 0 0.32-0.192l32.768-18.944a8.128 8.128 0 0 1 11.264 1.408z m312.128-85.248l0.128 0.448 0.192 0.896 0.192 0.832 0.192 0.768 0.064 0.32a172.568 172.568 0 0 0 14.656 38.592l0.576 1.088 0.512 0.896a8 8 0 0 1-3.2 10.88l-0.512 0.32-32.128 19.328a8.256 8.256 0 0 1-12.48-2.112l-0.96-1.792-0.64-1.216-0.64-1.088-0.32-0.64a227.712 227.712 0 0 1-18.88-49.664l-0.448-1.792-0.256-0.96-0.32-1.472-0.192-0.832-0.384-1.792a8 8 0 0 1 6.144-9.536l0.512-0.064 38.272-7.04a8.064 8.064 0 0 1 9.92 5.568zM331.136 310.08l0.128 1.536 0.128 1.024 0.192 1.344 0.128 1.28 0.128 0.64a157.24 157.24 0 0 0 8 32l0.32 0.96 0.256 0.704 0.32 0.768 0.32 0.832 0.576 1.28 0.768 1.92a8 8 0 0 1-4.224 10.496l-0.64 0.32-34.176 16.128a8.128 8.128 0 0 1-11.84-3.584l-0.768-1.664-0.64-1.664-0.64-1.472-0.768-1.92-0.512-1.28-0.448-1.216-0.32-0.704a215.04 215.04 0 0 1-11.136-44.416l-0.128-1.088-0.128-1.088-0.128-0.832-0.256-2.304-0.256-2.56-0.128-1.664a8 8 0 0 1 7.232-8.704h0.256l40-2.304a8 8 0 0 1 8.384 7.232z m320-116.352l1.536 0.64 33.664 15.104a8.32 8.32 0 0 1 5.76 10.88l-0.64 1.664-0.384 1.024-0.576 1.408-0.512 1.344-0.256 0.832-0.32 0.768-0.256 0.704c-3.2 9.6-5.632 19.456-7.168 29.44l-0.192 1.728-0.128 0.96-0.128 0.768-0.192 1.664-0.128 1.344-0.192 1.472a8 8 0 0 1-8.704 7.232l-0.384-0.064h-0.384l-37.76-2.24a8.128 8.128 0 0 1-8.64-8.768l0.128-1.536 0.064-0.96 0.128-0.832 0.128-1.28 0.064-0.704c2.048-17.152 6.08-34.112 11.968-50.432l0.384-1.088 0.32-0.832 0.512-1.28 0.768-1.92 0.64-1.536 0.384-1.088a8 8 0 0 1 10.432-4.416z m-334.656-14.72l0.384 0.192 32.512 21.568a8.064 8.064 0 0 1 3.2 11.264l-0.512 0.896-0.448 0.768-0.448 0.704-0.576 1.024c0 0.128-0.128 0.192-0.192 0.32a158.72 158.72 0 0 0-14.272 34.688l-0.448 1.472-0.192 0.96-0.192 0.64-0.192 0.768a8 8 0 0 1-9.664 5.888l-0.384-0.064a2.56 2.56 0 0 0-0.384-0.064l-35.584-7.168a8.64 8.64 0 0 1-8.896-7.488 8 8 0 0 1 0.192-2.752l1.152-4.8 0.32-1.28 0.064-0.256a215.971 215.971 0 0 1 21.888-51.84l0.896-1.536 0.832-1.28a8 8 0 0 1 10.944-2.624zM737.472 112a8 8 0 0 1 6.976 11.904L720.512 166.4a8 8 0 0 1-10.688 3.2l-0.192-0.128-34.88-19.648a8 8 0 0 1-3.2-10.624l0.128-0.256 10.624-18.816A16 16 0 0 1 696.256 112h41.216z m-326.08 0a8 8 0 0 1 6.4 12.8l-28.608 37.504a8 8 0 0 1-11.008 1.664l-0.192-0.128-31.808-24.32a8 8 0 0 1-1.536-11.2l7.68-10.048A16 16 0 0 1 365.056 112h46.336z" p-id="1173"></path></svg>