<?xml version="1.0" standalone="no"?><!DOCTYPE svg PUBLIC "-//W3C//DTD SVG 1.1//EN" "http://www.w3.org/Graphics/SVG/1.1/DTD/svg11.dtd"><svg t="1656904490729" class="icon" viewBox="0 0 1024 1024" version="1.1" xmlns="http://www.w3.org/2000/svg" p-id="2008" xmlns:xlink="http://www.w3.org/1999/xlink" width="200" height="200"><defs><style type="text/css">@font-face { font-family: feedback-iconfont; src: url("//at.alicdn.com/t/font_1031158_u69w8yhxdu.woff2?t=1630033759944") format("woff2"), url("//at.alicdn.com/t/font_1031158_u69w8yhxdu.woff?t=1630033759944") format("woff"), url("//at.alicdn.com/t/font_1031158_u69w8yhxdu.ttf?t=1630033759944") format("truetype"); }
</style></defs><path d="M390.464 939.008c-6.4 0-12.48-2.496-17.024-6.976l-8.512-8.448a24.128 24.128 0 1 1 33.92-34.24l8.64 8.448a24.128 24.128 0 0 1-17.024 41.216z m-68.48-67.84c-6.4 0-12.48-2.56-16.96-7.04l-17.28-16.96a24.128 24.128 0 1 1 34.112-34.112l17.024 16.896a24.128 24.128 0 0 1-16.896 41.216z m-60.288-126.08h-0.704a24.128 24.128 0 0 1-23.296-24.896c0-4.608 0.32-9.28 1.024-13.952a24.32 24.32 0 0 1 48.192 5.44c0 3.328-0.64 6.72-0.704 10.112a24.128 24.128 0 0 1-24.256 23.232H261.76z m33.024-88.896a24.128 24.128 0 0 1-18.688-39.296c5.888-7.232 12.352-13.952 19.328-20.096a24.192 24.192 0 0 1 32 36.16 126.08 126.08 0 0 0-13.952 14.592 24.128 24.128 0 0 1-18.432 8.64h-0.256zM364.544 534.4h-1.536a24.128 24.128 0 0 1-22.592-25.6v-10.112a24.128 24.128 0 1 1 48.256-0.704v13.952a24.128 24.128 0 0 1-23.872 22.4h-0.256zM340.48 442.688a24.128 24.128 0 0 1-20.096-10.688 125.76 125.76 0 0 0-12.096-16 24.128 24.128 0 1 1 35.328-32.704c6.4 6.784 12.16 14.144 17.408 21.888a24.128 24.128 0 0 1-20.48 37.504zM263.872 323.2a24.128 24.128 0 0 1-24.128-20.16 197.76 197.76 0 0 1-1.664-13.888 24.192 24.192 0 1 1 48.256-3.968c0 3.392 0.64 6.784 1.152 10.048a24.128 24.128 0 0 1-19.84 27.712l-3.776 0.256z m15.104-93.568a24.128 24.128 0 0 1-21.376-35.328c4.352-8.448 9.408-16.512 15.104-24.128a24.128 24.128 0 1 1 38.4 29.184c-4.032 5.376-7.68 11.072-10.816 17.024a24.128 24.128 0 0 1-21.312 13.376v-0.128z m101.632-101.76a24.128 24.128 0 0 1-15.808-42.304l9.024-7.936a24.128 24.128 0 0 1 31.744 36.16l-9.088 7.936a24.128 24.128 0 0 1-15.872 6.4v-0.256z m338.496 828.096a24.128 24.128 0 0 1-24.128-24.128 24.128 24.128 0 0 1 41.152-17.28 24.128 24.128 0 0 1-17.024 41.408z m-60.288-59.456c-6.4 0-12.48-2.496-17.024-6.976l-41.664-41.344a116.48 116.48 0 0 1-10.624-12.032 24.128 24.128 0 0 1 2.88-34.048 24.96 24.96 0 0 1 33.984 2.944 128 128 0 0 0 7.68 8.384l41.792 41.408a24.128 24.128 0 0 1-17.024 41.664zM573.44 756.864a24.128 24.128 0 0 1-1.088-48.192 24.128 24.128 0 0 1 2.24 48.192H573.44z m19.392-80.896A24.128 24.128 0 0 1 571.776 640c9.664-17.088 22.208-32.32 37.12-45.12 4.672-3.968 8.96-8.32 13.056-12.864a24.704 24.704 0 0 1 33.92-2.432 24.128 24.128 0 0 1 2.496 33.984c-5.568 6.4-11.584 12.352-17.984 17.92a125.248 125.248 0 0 0-26.752 32.384 24.128 24.128 0 0 1-20.864 12.16z m83.264-141.888h-1.408a24.128 24.128 0 0 1 2.56-48.192 24.128 24.128 0 0 1-1.152 48.192z m-18.048-81.28a24.128 24.128 0 0 1-21.248-12.032 120.576 120.576 0 0 0-21.696-28.416l-14.336-14.08L593.28 390.4a24.128 24.128 0 0 1 1.856-33.984 24.832 24.832 0 0 1 34.112 1.792l5.312 5.504 14.336 14.08c11.904 11.712 22.08 25.088 30.08 39.68a24.128 24.128 0 0 1-9.344 32.832 24.128 24.128 0 0 1-11.584 2.56zM573.568 311.04a24.128 24.128 0 0 1-24.064-21.568 24.128 24.128 0 0 1 22.016-25.92 24.192 24.192 0 1 1 3.968 48.256h-1.92V311.04z m16.64-81.6a24.128 24.128 0 0 1-21.312-35.328 171.52 171.52 0 0 1 39.296-49.536l13.248-12.032a24.704 24.704 0 0 1 33.984 2.368 24.128 24.128 0 0 1-2.24 33.984l-13.312 12.096c-11.584 10.176-21.248 22.4-28.288 36.16a24.128 24.128 0 0 1-21.248 12.288h-0.128z m119.872-117.44a24.128 24.128 0 0 1-15.808-42.24 24.704 24.704 0 0 1 33.984 2.24 24.128 24.128 0 0 1-18.048 40h-0.128z m61.312 693.312a112.384 112.384 0 0 1 5.76-164.8 184.576 184.576 0 0 0 8.96-271.616l-14.336-14.08a112.384 112.384 0 0 1 4.928-164.8l143.744-124.992H810.24l-81.024 70.528a184.704 184.704 0 0 0-8.064 270.976l14.336 14.08a112.256 112.256 0 0 1-5.44 165.184 184.576 184.576 0 0 0-9.472 271.04L824.576 960h102.4l-155.52-154.688z m-602.048-83.648c0.96-31.36 15.104-60.8 38.976-81.152a184.576 184.576 0 0 0 8.96-271.36l-14.4-14.08a112.384 112.384 0 0 1 4.928-164.8l143.744-125.056H241.28L160.32 135.744a184.704 184.704 0 0 0-7.808 270.72l14.336 14.08a112.256 112.256 0 0 1-5.44 165.12 184.576 184.576 0 0 0-9.536 271.04l103.808 103.168h101.76l-155.648-154.304a111.168 111.168 0 0 1-32.448-83.904z" p-id="2009"></path></svg>