<?xml version="1.0" standalone="no"?><!DOCTYPE svg PUBLIC "-//W3C//DTD SVG 1.1//EN" "http://www.w3.org/Graphics/SVG/1.1/DTD/svg11.dtd"><svg t="1658729883121" class="icon" viewBox="0 0 1024 1024" version="1.1" xmlns="http://www.w3.org/2000/svg" p-id="24352" xmlns:xlink="http://www.w3.org/1999/xlink" width="200" height="200"><defs><style type="text/css">@font-face { font-family: feedback-iconfont; src: url("//at.alicdn.com/t/font_1031158_u69w8yhxdu.woff2?t=1630033759944") format("woff2"), url("//at.alicdn.com/t/font_1031158_u69w8yhxdu.woff?t=1630033759944") format("woff"), url("//at.alicdn.com/t/font_1031158_u69w8yhxdu.ttf?t=1630033759944") format("truetype"); }
</style></defs><path d="M90.999467 896a7.995733 7.995733 0 0 1-7.722667-10.094933l188.8-784a8.004267 8.004267 0 0 1 7.722667-5.905067H743.338667c3.618133 0 6.775467 2.423467 7.722666 5.905067l188.8 784a8.004267 8.004267 0 0 1-7.722666 10.094933h-841.130667z m380.5696-744.004267H337.237333L174.4896 840.0128h297.079467V751.556267c0-4.181333 3.584-7.552 8.004266-7.552h64c4.420267 0 7.995733 3.3792 7.995734 7.552v88.448h297.079466L685.909333 151.9872H551.569067v88.448c0 4.181333-3.584 7.560533-7.995734 7.560533h-64c-4.420267 0-8.004267-3.387733-8.004266-7.560533V152.004267zM543.573333 533.009067c4.420267 0 7.995733 3.3792 7.995734 7.552v120.891733c0 4.1728-3.584 7.552-7.995734 7.552h-64c-4.420267 0-8.004267-3.3792-8.004266-7.552V540.552533c0-4.1728 3.584-7.552 8.004266-7.552h64z m0-210.005334c4.420267 0 7.995733 3.387733 7.995734 7.560534v120.891733c0 4.1728-3.584 7.552-7.995734 7.552h-64c-4.420267 0-8.004267-3.3792-8.004266-7.552V330.555733c0-4.1728 3.584-7.552 8.004266-7.552h64z" p-id="24353"></path></svg>