<?xml version="1.0" standalone="no"?><!DOCTYPE svg PUBLIC "-//W3C//DTD SVG 1.1//EN" "http://www.w3.org/Graphics/SVG/1.1/DTD/svg11.dtd"><svg t="1744271182052" class="icon" viewBox="0 0 1024 1024" version="1.1" xmlns="http://www.w3.org/2000/svg" p-id="913" xmlns:xlink="http://www.w3.org/1999/xlink" width="200" height="200"><path d="M800 184c35.3 0 64 28.7 64 64v422c0 35.3-28.7 64-64 64H324.071l92.828 67.1c8.167 5.903 13.042 15.388 13.197 25.407l0.003 0.493v46.9c0 6.5-7.4 10.3-12.7 6.5l-246-178c-4.4-3.2-4.4-9.7 0-12.9l246-178c5.3-3.8 12.7 0 12.7 6.5v46.9c0 10.3-4.9 19.9-13.2 25.9L324.02 658H788V260H168c-4.4 0-8-3.6-8-8v-60c0-4.4 3.6-8 8-8h632z" p-id="914"></path></svg>