<?xml version="1.0" standalone="no"?><!DOCTYPE svg PUBLIC "-//W3C//DTD SVG 1.1//EN" "http://www.w3.org/Graphics/SVG/1.1/DTD/svg11.dtd"><svg t="1679049620146" class="icon" viewBox="0 0 1024 1024" version="1.1" xmlns="http://www.w3.org/2000/svg" p-id="2672" xmlns:xlink="http://www.w3.org/1999/xlink" width="200" height="200"><path d="M632.704 80.256l0.32 3.136v857.216a16 16 0 0 1-19.072 15.744l-452.032-87.36a32 32 0 0 1-25.92-31.36V186.368a32 32 0 0 1 25.92-31.424l452.032-87.36a16 16 0 0 1 18.752 12.672z m-71.68 70.976L208 219.52v585.152l353.024 68.16v-721.6zM872 160a16 16 0 0 1 16 16v672a16 16 0 0 1-16 16H689.024a8 8 0 0 1-8-8v-56c0-4.416 3.584-8 8-8H816V232H688.96a8 8 0 0 1-8-8v-56c0-4.416 3.584-8 8-8H872zM476.992 452.032c2.24 0 4.032 1.728 4.032 3.968v112a3.968 3.968 0 0 1-4.032 4.032h-56a3.968 3.968 0 0 1-3.968-4.032V456c0-2.24 1.792-4.032 3.968-4.032h56z" p-id="2673"></path></svg>