<?xml version="1.0" standalone="no"?><!DOCTYPE svg PUBLIC "-//W3C//DTD SVG 1.1//EN" "http://www.w3.org/Graphics/SVG/1.1/DTD/svg11.dtd"><svg t="1648452455183" class="icon" viewBox="0 0 1024 1024" version="1.1" xmlns="http://www.w3.org/2000/svg" p-id="70722" xmlns:xlink="http://www.w3.org/1999/xlink" width="200" height="200"><defs><style type="text/css">@font-face { font-family: feedback-iconfont; src: url("//at.alicdn.com/t/font_1031158_u69w8yhxdu.woff2?t=1630033759944") format("woff2"), url("//at.alicdn.com/t/font_1031158_u69w8yhxdu.woff?t=1630033759944") format("woff"), url("//at.alicdn.com/t/font_1031158_u69w8yhxdu.ttf?t=1630033759944") format("truetype"); }
</style></defs><path d="M431.686 423.686h144c8.837 0 16 7.164 16 16v144c0 8.837-7.163 16-16 16h-144c-8.836 0-16-7.163-16-16v-144c0-8.836 7.164-16 16-16z m196 332a8 8 0 0 1 8 8v56a8 8 0 0 1-8 8h-368v84.687a8 8 0 0 1-13.657 5.656L97.343 769.343A8 8 0 0 1 103 755.686h524.686z m200-360a8 8 0 0 1 8 8v352h84.687a8 8 0 0 1 5.656 13.657L777.343 918.03a8 8 0 0 1-13.657-5.656V403.686a8 8 0 0 1 8-8h56zM257.343 105.343a8 8 0 0 1 2.343 5.657v508.686a8 8 0 0 1-8 8h-56a8 8 0 0 1-8-8v-352H103a8 8 0 0 1-5.657-13.657L246.03 105.343a8 8 0 0 1 11.314 0zM755.686 104a8 8 0 0 1 5.657 2.343L910.03 255.03a8 8 0 0 1-5.656 13.657H395.686a8 8 0 0 1-8-8v-56a8 8 0 0 1 8-8h352V112a8 8 0 0 1 8-8z" p-id="70723"></path></svg>