<?xml version="1.0" standalone="no"?><!DOCTYPE svg PUBLIC "-//W3C//DTD SVG 1.1//EN" "http://www.w3.org/Graphics/SVG/1.1/DTD/svg11.dtd"><svg t="1678335533981" class="icon" viewBox="0 0 1024 1024" version="1.1" xmlns="http://www.w3.org/2000/svg" p-id="862" xmlns:xlink="http://www.w3.org/1999/xlink" width="200" height="200"><path d="M812.032 112a99.968 99.968 0 1 1-93.312 136H297.984a114.048 114.048 0 0 0-1.92 228.032h429.952a185.984 185.984 0 0 1 3.072 371.904H305.28a100.032 100.032 0 1 1 0-71.936h420.736a114.048 114.048 0 0 0 1.92-228.032H297.984a185.984 185.984 0 0 1-3.072-371.904H718.72C733.568 137.472 770.688 112 812.032 112zM211.968 776.064a36.032 36.032 0 1 0 0 72 36.032 36.032 0 0 0 0-72z m600.064-600a36.032 36.032 0 1 0 0 72.064 36.032 36.032 0 0 0 0-72.064z" p-id="863"></path></svg>