<?xml version="1.0" standalone="no"?><!DOCTYPE svg PUBLIC "-//W3C//DTD SVG 1.1//EN" "http://www.w3.org/Graphics/SVG/1.1/DTD/svg11.dtd"><svg t="1677989559101" class="icon" viewBox="0 0 1024 1024" version="1.1" xmlns="http://www.w3.org/2000/svg" p-id="2478" xmlns:xlink="http://www.w3.org/1999/xlink" width="200" height="200"><path d="M624.96 104a32 32 0 0 1 30.336 21.888L688 224h216c4.416 0 8 3.584 8 8v56a8 8 0 0 1-8 8h-76.672l-22.144 574.592A68.032 68.032 0 0 1 738.304 936h-451.52c-36.16 0-65.92-28.288-67.84-64.256l-0.128-1.152L196.672 296H120a8 8 0 0 1-8-8v-56c0-4.416 3.584-8 8-8h216l32.704-98.112A32 32 0 0 1 399.04 104h225.92zM755.2 296H268.8l21.76 568h442.752L755.2 296zM625.216 576.064l66.944 115.968a16 16 0 0 1-13.888 23.936H540.544a8 8 0 0 1-7.168-4.48l-11.712-24a8 8 0 0 1 0-7.04l11.648-23.936a8 8 0 0 1 7.168-4.544h54.72l-25.344-43.904a8 8 0 0 1 2.688-10.752l0.192-0.192 41.536-23.936a8 8 0 0 1 10.752 2.688l0.256 0.128z m-217.408-6.656l27.52 1.92a8 8 0 0 1 6.016 3.52l14.464 21.44a8.017 8.017 0 0 1 0.32 8.512l-27.264 47.232H480c4.416 0 8 3.584 8 8v48a8 8 0 0 1-8 8H345.728a16 16 0 0 1-13.888-24.064l68.48-118.592a8 8 0 0 1 7.488-3.968zM520 398.08a16 16 0 0 1 5.888 5.824l68.864 119.36a8 8 0 0 1-0.32 8.512l-15.424 22.784a8 8 0 0 1-6.016 3.456l-25.728 1.92a8 8 0 0 1-7.488-3.968L512 507.904l-25.792 44.736a8 8 0 0 1-10.688 3.072l-0.192-0.128-41.6-24a8 8 0 0 1-2.944-10.944l67.328-116.8A16 16 0 0 1 520 398.016v0.064z m76.16-222.144H427.84l-16 48h200.32l-16-48z" p-id="2479"></path></svg>