<?xml version="1.0" standalone="no"?><!DOCTYPE svg PUBLIC "-//W3C//DTD SVG 1.1//EN" "http://www.w3.org/Graphics/SVG/1.1/DTD/svg11.dtd"><svg t="1648563402113" class="icon" viewBox="0 0 1024 1024" version="1.1" xmlns="http://www.w3.org/2000/svg" p-id="22579" xmlns:xlink="http://www.w3.org/1999/xlink" width="200" height="200"><defs><style type="text/css">@font-face { font-family: feedback-iconfont; src: url("//at.alicdn.com/t/font_1031158_u69w8yhxdu.woff2?t=1630033759944") format("woff2"), url("//at.alicdn.com/t/font_1031158_u69w8yhxdu.woff?t=1630033759944") format("woff"), url("//at.alicdn.com/t/font_1031158_u69w8yhxdu.ttf?t=1630033759944") format("truetype"); }
</style></defs><path d="M951.3 322.05L702 72.7a32 32 0 0 0-45.26 0L73.45 655.94a32 32 0 0 0 0 45.26L322.8 950.55a32 32 0 0 0 45.26 0L951.3 367.31a32 32 0 0 0 0-45.26zM345.43 871.36L152.64 678.57l64.84-64.83 83.63 83.64a8 8 0 0 0 11.32 0l33.94-34a8 8 0 0 0 0-11.31l-83.64-83.64 42.66-42.66L361 581.4a8 8 0 0 0 11.31 0l33.94-33.94a8 8 0 0 0 0-11.31l-55.57-55.58L393.19 438l83.64 83.64a8 8 0 0 0 11.31 0l33.94-33.94a8 8 0 0 0 0-11.31l-83.64-83.64 42.66-42.66 55.58 55.58a8 8 0 0 0 11.32 0l33.94-33.94a8 8 0 0 0 0-11.32l-55.58-55.58 42.54-42.54L652.54 346a8 8 0 0 0 11.31 0l33.94-34a8 8 0 0 0 0-11.32l-83.63-83.63 65.16-65.16 192.79 192.79z" p-id="22580"></path></svg>