<?xml version="1.0" standalone="no"?><!DOCTYPE svg PUBLIC "-//W3C//DTD SVG 1.1//EN" "http://www.w3.org/Graphics/SVG/1.1/DTD/svg11.dtd"><svg t="1677999424046" class="icon" viewBox="0 0 1024 1024" version="1.1" xmlns="http://www.w3.org/2000/svg" p-id="1194" xmlns:xlink="http://www.w3.org/1999/xlink" width="200" height="200"><path d="M512 171.008c247.424 0 448 119.04 448 265.984 0 19.2-3.456 37.952-9.92 56 6.464 18.048 9.92 36.8 9.92 56 0 113.92-120.512 211.072-289.984 248.96v23.04a32 32 0 0 1-32 32H385.92a32 32 0 0 1-32-32v-23.04l-4.096-0.896C182.592 758.464 64 662.016 64 548.992c0-19.2 3.456-37.952 9.92-56a164.224 164.224 0 0 1-9.92-56c0-146.88 200.576-265.984 448-265.984z m-24 486.016h-70.016v131.968H488v-41.984h-33.024a8 8 0 0 1-8-8v-32c0-4.48 3.584-8 8-8H488v-41.984z m48 131.968h70.016v-41.984H536v41.984zM132.608 578.56c11.328 36.544 43.52 72.832 95.296 103.552 35.968 21.376 78.848 38.4 126.08 50.176v-46.272l-1.728-0.384c-91.328-20.672-168.32-58.624-219.648-107.072z m758.784 0l-2.176 2.112c-51.712 47.744-128.448 85.12-219.2 105.408v46.208l0.64-0.128a471.04 471.04 0 0 0 125.44-50.048c51.776-30.72 83.968-67.008 95.36-103.552z m-285.44 78.528h-69.888v41.984h70.016v-41.984zM512 347.008c-109.376 0-210.944 25.536-284.16 68.928-39.168 23.296-67.136 49.728-83.328 77.056 16.192 27.328 44.16 53.76 83.392 77.056a471.68 471.68 0 0 0 126.464 50.24 32 32 0 0 1 31.616-27.264H638.08a32 32 0 0 1 31.616 27.264l-1.6 0.448a472.896 472.896 0 0 0 128.064-50.688c39.232-23.232 67.2-49.728 83.392-77.056-16.192-27.328-44.16-53.76-83.392-77.056-73.216-43.392-174.72-68.928-284.16-68.928z m0-112c-109.376 0-210.944 25.536-284.16 68.928-51.712 30.72-83.84 67.008-95.232 103.552 79.232-74.816 219.52-124.48 379.392-124.48 159.808 0 300.16 49.664 379.392 124.48-11.328-36.48-43.52-72.832-95.296-103.552C722.944 260.544 621.44 235.008 512 235.008z" p-id="1195"></path></svg>