<?xml version="1.0" standalone="no"?><!DOCTYPE svg PUBLIC "-//W3C//DTD SVG 1.1//EN" "http://www.w3.org/Graphics/SVG/1.1/DTD/svg11.dtd"><svg t="1665393336161" class="icon" viewBox="0 0 1024 1024" version="1.1" xmlns="http://www.w3.org/2000/svg" p-id="33701" xmlns:xlink="http://www.w3.org/1999/xlink" width="200" height="200"><path d="M519.687 52.22l2.962 1.614c111.517 60.239 243.565 91.576 348.146 94.012l3.286 0.067c5.411 0.09 9.769 4.43 9.919 9.808V586.69c0 101.259-75.081 195.685-159.835 251.096l-10.35 6.76-6.762 4.407-6.652 4.33-9.771 6.345-9.524 6.17-9.276 5.991-6.046 3.897-5.936 3.817-5.826 3.74-5.716 3.66-5.605 3.581-5.496 3.503-5.385 3.424-7.872 4.99-7.623 4.811-4.945 3.11-4.834 3.03-4.725 2.953-4.614 2.873-4.504 2.795-4.394 2.716-4.284 2.637-4.173 2.56-4.064 2.48-3.953 2.4-3.843 2.323-1.88 1.132-4.58 2.744-4.409 2.62-3.402 2.008-3.293 1.93-3.182 1.85-3.072 1.772-2.962 1.694-2.852 1.614-2.43 1.362-1.572 0.874-2.286 1.26-1.476 0.805-1.438 0.779-1.4 0.75-1.362 0.724-1.323 0.696-1.285 0.67-1.856 0.951-1.203 0.602-0.88 0.431-0.944 0.455a16 16 0 0 1-13.826-0.01l-1.1-0.53-1.044-0.515-0.99-0.496-1.677-0.86-1.872-0.976-1.292-0.683-1.328-0.708-2.059-1.11-1.417-0.772-1.453-0.797-2.247-1.244-1.542-0.86-2.38-1.34-0.811-0.46-2.951-1.68-1.518-0.871-3.12-1.802-3.23-1.882-3.345-1.962-1.714-1.01-3.513-2.083-1.799-1.072-3.681-2.203-3.794-2.283-3.906-2.363-1.995-1.212-6.154-3.756-4.244-2.604-4.355-2.685-4.468-2.765-4.581-2.845-7.081-4.418-4.862-3.046-4.974-3.126-7.671-4.84-5.255-3.326-5.367-3.407-5.48-3.488-5.592-3.567-5.704-3.648-8.767-5.622-2.98-1.915-9.104-5.863-9.357-6.044-9.61-6.224-9.863-6.405-6.716-4.37-10.285-6.707-6.996-4.57C215.08 782.374 140 687.948 140 586.688V158.73c0-5.806 4.573-10.56 10.34-10.82l0.289-0.01c104.873-1.968 237.238-33.03 349.094-93.188l3.678-1.988 0.94-0.512a16 16 0 0 1 15.346 0.008z m-7.688 81.799l-2.249 1.137c-89.905 45.186-202.702 73.307-290.212 83.97l-3.538 0.421v367.142c0 74.851 61.382 144.702 123.532 186.236l1.891 1.25 11.607 7.578 9.063 5.902 13.22 8.585 8.562 5.543 10.416 6.725 8.103 5.216 5.942 3.815 7.74 4.958 7.532 4.81 9.119 5.804 7.056 4.474 5.152 3.256 3.368 2.124 6.573 4.134 3.206 2.01 4.706 2.943 6.083 3.79 4.418 2.742 5.696 3.52 4.126 2.538 4 2.45 5.137 3.13 3.704 2.245 3.576 2.156 3.447 2.066 2.226 1.328 3.231 1.917 3.1 1.827 0.458 0.268 3.175-1.867 3.155-1.868 4.398-2.625 4.616-2.776 3.605-2.18 3.725-2.266 3.847-2.35 3.968-2.433 4.087-2.517 5.635-3.486 5.846-3.633 6.056-3.78 3.106-1.946 6.368-4 6.575-4.145 8.507-5.384 8.825-5.61 9.141-5.833 7.539-4.826 9.703-6.232 7.985-5.144 8.182-5.285 10.502-6.8 8.62-5.598 11.044-7.19 6.77-4.417 5.607-3.663c62.65-40.96 124.658-110.472 125.412-185.22l0.011-2.266V219.545l-2.033-0.237c-88.246-10.553-201.799-38.866-292.476-84.534l-1.492-0.755zM548 717a1 1 0 0 1-1 1h-70a1 1 0 0 1-1-1l-0.001-210.132C422.833 491.315 384 442.193 384 384c0-70.692 57.308-128 128-128 70.692 0 128 57.308 128 128 0 58.192-38.833 107.315-91.998 122.867L548 574h80v72h-80v71z m-36-393c-33.137 0-60 26.863-60 60s26.863 60 60 60 60-26.863 60-60-26.863-60-60-60z" p-id="33702"></path></svg>