<?xml version="1.0" standalone="no"?><!DOCTYPE svg PUBLIC "-//W3C//DTD SVG 1.1//EN" "http://www.w3.org/Graphics/SVG/1.1/DTD/svg11.dtd"><svg t="1677671934852" class="icon" viewBox="0 0 1024 1024" version="1.1" xmlns="http://www.w3.org/2000/svg" p-id="4500" xmlns:xlink="http://www.w3.org/1999/xlink" width="200" height="200"><path d="M512 52.032c5.12-0.128 10.176 0.64 15.04 2.048l339.84 115.84a23.552 23.552 0 0 1 14.912 21.184v482.368a37.184 37.184 0 0 1-12.608 25.92L524.48 968a20.48 20.48 0 0 1-12.608 4.096A20.672 20.672 0 0 1 499.328 968L154.624 699.392a37.44 37.44 0 0 1-12.608-25.92V191.04a24 24 0 0 1 15.04-21.12l339.84-115.84A49.152 49.152 0 0 1 512 52.032z m0 73.024L214.016 226.752v427.52L512 886.528l297.984-232.256V226.624L512 125.056zM491.968 296a155.968 155.968 0 0 1 130.24 241.92l73.984 73.984a8 8 0 0 1 1.28 9.664l-1.28 1.664-33.92 33.92a8 8 0 0 1-9.664 1.28l-1.664-1.28-74.304-74.112a155.968 155.968 0 1 1-84.736-286.976z m0 64a91.968 91.968 0 1 0 0 184 91.968 91.968 0 0 0 0-184z" p-id="4501"></path></svg>