<?xml version="1.0" standalone="no"?><!DOCTYPE svg PUBLIC "-//W3C//DTD SVG 1.1//EN" "http://www.w3.org/Graphics/SVG/1.1/DTD/svg11.dtd"><svg t="1679048041582" class="icon" viewBox="0 0 1024 1024" version="1.1" xmlns="http://www.w3.org/2000/svg" p-id="2570" xmlns:xlink="http://www.w3.org/1999/xlink" width="200" height="200"><path d="M866.88 169.92L527.04 54.08A49.152 49.152 0 0 0 512 52.032a49.152 49.152 0 0 0-15.104 2.048l-339.84 115.84a24 24 0 0 0-15.04 21.12v482.432c0 8.832 5.696 20.48 12.608 25.92L499.328 968a20.672 20.672 0 0 0 12.544 4.096A20.48 20.48 0 0 0 524.48 968l344.704-268.608a37.184 37.184 0 0 0 12.608-25.92V191.104a23.552 23.552 0 0 0-14.912-21.184z m-56.896 484.352L512 886.528 214.016 654.272v-427.52L512 125.056l297.984 101.568v427.648z m-405.76-200.96a16.128 16.128 0 0 0-13.056-6.592H336a8 8 0 0 0-6.528 12.672l126.4 174.016c6.4 8.768 19.648 8.768 26.048 0l212.608-292.736A8 8 0 0 0 688 328h-55.232c-5.12 0-9.984 2.56-12.992 6.592L468.928 542.4l-64.704-89.088z" p-id="2571"></path></svg>