<?xml version="1.0" standalone="no"?><!DOCTYPE svg PUBLIC "-//W3C//DTD SVG 1.1//EN" "http://www.w3.org/Graphics/SVG/1.1/DTD/svg11.dtd"><svg t="1677671977829" class="icon" viewBox="0 0 1024 1024" version="1.1" xmlns="http://www.w3.org/2000/svg" p-id="6050" xmlns:xlink="http://www.w3.org/1999/xlink" width="200" height="200"><path d="M790.464 143.872l76.416 26.048a23.534 23.534 0 0 1 14.912 20.8v482.752a37.184 37.184 0 0 1-12.16 25.6l-0.448 0.32L524.48 968a20.48 20.48 0 0 1-12.16 4.096h-0.448a20.672 20.672 0 0 1-12.16-3.84l-0.384-0.256-219.264-170.88 44.416-56.768L512 886.528l297.984-232.256V226.624l-66.496-22.656 46.976-60.096z m-67.456-102.08l47.36 36.928a8 8 0 0 1 1.28 11.2l-583.616 747.2a8 8 0 0 1-11.264 1.344l-47.232-36.928A8 8 0 0 1 128 790.272l54.208-69.312-27.648-21.568a37.568 37.568 0 0 1-12.608-25.472V191.04a24 24 0 0 1 14.656-20.928l0.384-0.192 339.84-115.84a49.152 49.152 0 0 1 13.44-2.048H512a49.152 49.152 0 0 1 14.272 1.856l0.768 0.192 139.136 47.424 45.632-58.368a8 8 0 0 1 11.2-1.344z m34.816 299.2a8 8 0 0 1 6.4 12.8L489.728 715.2a16 16 0 0 1-25.472 0l-59.264-77.952 40.768-52.16 31.232 41.088L691.84 347.264a16 16 0 0 1 12.672-6.272h53.312zM512 125.056L214.016 226.752v427.52l12.608 9.856 100.8-129.088-54.08-71.296a8 8 0 0 1 6.4-12.8h56.32a16 16 0 0 1 12.672 6.336l19.456 25.6L619.264 161.6 512 124.992z" p-id="6051"></path></svg>