<?xml version="1.0" standalone="no"?><!DOCTYPE svg PUBLIC "-//W3C//DTD SVG 1.1//EN" "http://www.w3.org/Graphics/SVG/1.1/DTD/svg11.dtd"><svg t="1703839558640" class="icon" viewBox="0 0 1024 1024" version="1.1" xmlns="http://www.w3.org/2000/svg" p-id="1290" xmlns:xlink="http://www.w3.org/1999/xlink" width="200" height="200"><path d="M512 52.032c5.12-0.128 10.176 0.64 15.04 2.048l339.84 115.84a23.552 23.552 0 0 1 14.912 21.184v482.368a37.184 37.184 0 0 1-12.608 25.92L524.48 968a20.48 20.48 0 0 1-12.608 4.096A20.672 20.672 0 0 1 499.328 968L154.624 699.392a37.44 37.44 0 0 1-12.608-25.92V191.04a24 24 0 0 1 15.04-21.12l339.84-115.84A49.152 49.152 0 0 1 512 52.032z m0 73.024L214.016 226.752v427.52L512 886.528l297.984-232.256V226.624L512 125.056z m-38.08 94.912c1.472 0.064 2.88 0.64 4.096 1.472l14.848 10.88c56 42.688 96 89.6 119.936 140.672l2.944-4.48 3.2-4.608 3.84-5.504 3.968-5.76 4.672-6.848 0.704-1.152a8 8 0 0 1 13.056-0.192l0.704 1.024c34.88 46.848 62.08 105.6 62.08 192.96 0 92.992-100.8 175.616-194.368 176.64h-1.536c-93.952 0-196.032-74.176-196.032-176.64 0-55.68 23.36-94.4 51.84-130.816l4.48-5.76 1.92-2.432 2.048-2.496 2.944-3.648 4.224-5.12 7.68-9.408 2.048-2.56 3.008-3.648 1.92-2.24 2.688-3.392 1.728-2.24 1.92-2.24 2.688-3.456 6.144-8.064 1.728-2.304 2.688-3.648 1.92-2.688 0.64-0.96 1.344-1.792 1.28-1.92 0.64-0.896 1.28-1.856a328.32 328.32 0 0 0 4.48-6.592l1.152-1.92 0.64-0.96 1.28-1.92c14.592-23.68 26.368-50.112 31.616-82.112l0.32-1.856 0.384-4.352 0.64-7.872a8 8 0 0 1 8.64-7.296z m39.232 344.064l-1.024 0.896c-4.48 4.032-8.512 8.192-12.16 12.608-12.096 14.528-18.432 29.888-18.432 47.04a30.08 30.08 0 0 0 8.64 22.272l3.584 2.816 8.576 0.96c2.944 0.192 5.824 0.384 8.704 0.384h2.88c5.568-0.128 11.328-0.64 17.152-1.792a29.312 29.312 0 0 0 11.392-24.64c0-8.32-2.368-16.64-6.848-23.68l-0.512-0.896-1.28-2.304-0.896-1.28-0.512-0.832-1.024-1.536-1.856-2.88-4.544-6.912-1.728-2.752-0.512-0.64-0.448-0.832-1.344-2.112-1.28-2.112-0.768-1.28-0.512-0.64-0.32-0.64-0.512-0.896-0.64-1.152-0.512-0.96-0.384-0.64-0.384-0.64-0.64-1.28-0.64-1.28-1.024-1.92-0.192-0.448z m-9.792-237.184l-0.64 1.28a311.04 311.04 0 0 1-9.28 17.664l-1.28 2.176-1.216 2.112-1.408 2.56-4.096 6.656-1.664 2.56-0.512 0.768-2.688 4.16-0.576 0.768-2.176 3.328-3.456 4.992-1.152 1.664-0.64 0.832-2.432 3.392-1.92 2.56-2.56 3.456-2.688 3.52-1.28 1.792-1.472 1.792-1.344 1.92-1.408 1.728-2.24 2.816-1.536 1.92-1.536 1.92-2.368 2.944-3.2 3.968-1.664 2.048-2.176 2.688-2.176 2.56-7.68 9.28-2.112 2.56-2.56 3.2-2.368 3.008-2.368 2.88-1.024 1.408-3.2 4.032-1.664 1.984-0.896 1.28-1.536 1.92-2.24 3.072-0.896 1.28-1.28 1.728-1.728 2.304-0.832 1.152-0.832 1.088-1.216 1.664-1.408 2.176-0.704 1.088-0.768 1.024-0.64 1.088-0.768 1.024-3.84 6.144-0.576 0.96-1.152 2.048-0.512 0.96-0.512 0.96-0.512 1.024-0.64 0.96-1.024 1.92-0.384 1.024-0.32 0.512c-8.32 16.64-12.416 32.96-12.416 52.288 0 28.672 14.08 56 39.936 77.696 4.416 3.648 8.96 7.04 13.632 10.24v-1.792c0-28.608 10.368-54.72 29.632-77.76 5.312-6.528 11.392-12.672 18.048-18.56l40.32-36.032a7.104 7.104 0 0 1 11.2 2.176l23.68 48.64 0.256 0.64 0.384 0.832 0.448 0.832 0.384 0.768 0.32 0.512 0.512 0.96 1.024 1.792 0.64 1.088 0.32 0.512 0.576 0.832 0.704 1.28 0.768 1.152 0.832 1.28 0.64 0.96 0.384 0.64 1.28 1.92 3.648 5.632 1.28 1.792 1.536 2.56 0.64 0.896 0.64 1.024 0.896 1.408 0.704 1.28 0.512 0.832 0.768 1.344 1.28 2.304c8.704 15.36 12.608 29.632 12.608 46.464v-1.024a162.56 162.56 0 0 0 12.416-9.728l0.832-0.64c25.92-22.848 40.32-50.304 40.32-74.752 0-30.08-3.584-56.32-10.88-80.256l-0.192-0.896-30.336 44.672-47.68-101.76a275.136 275.136 0 0 0-51.072-72.96l-0.384-0.384z" p-id="1291"></path></svg>