<?xml version="1.0" standalone="no"?><!DOCTYPE svg PUBLIC "-//W3C//DTD SVG 1.1//EN" "http://www.w3.org/Graphics/SVG/1.1/DTD/svg11.dtd"><svg t="1754304386961" class="icon" viewBox="0 0 1024 1024" version="1.1" xmlns="http://www.w3.org/2000/svg" p-id="1096" xmlns:xlink="http://www.w3.org/1999/xlink" width="256" height="256"><path d="M160 160c4.416 0 8 3.584 8 8v109.056a510.4 510.4 0 0 1 249.28 79.232c13.44 8.448 26.56 17.536 39.68 27.392l6.848-4.928c9.792-7.04 17.92-12.8 25.6-18.048l3.136-2.112 1.024-0.704 2.56-1.728 1.28-0.896 13.184-8.704a707.776 707.776 0 0 1 100.8-55.168c74.496-32.96 154.368-50.944 244.608-54.656V168c0-4.416 3.584-8 8-8h64c4.416 0 8 3.584 8 8v688a8 8 0 0 1-8 8h-64a8 8 0 0 1-8-8V746.688c-63.488-4.8-117.952-22.656-168.384-54.528a495.424 495.424 0 0 1-72.896-57.28l-2.56-2.368-3.776-3.584-2.24-2.112-3.008-2.88a876.608 876.608 0 0 1-4.352-4.224l-1.6-1.536-15.872 11.712c-20.608 15.104-34.048 24.768-46.72 33.408l-3.136 2.112-1.024 0.704-2.56 1.728-1.28 0.896-13.184 8.704c-34.368 22.336-66.88 40.192-100.8 55.168-74.496 32.96-154.368 50.944-244.608 54.656V856a8 8 0 0 1-8 8H96a8 8 0 0 1-8-8V168c0-4.416 3.584-8 8-8h64z m480.512 197.184c-29.696 13.12-58.304 28.8-88.96 48.64l-1.728 1.088a1011.2 1011.2 0 0 0-12.288 8.128l-1.216 0.832-2.88 1.92-3.328 2.304-3.52 2.432c-10.944 7.552-23.232 16.384-41.28 29.632l-20.928 15.424c-22.528 16.512-35.52 25.856-48.384 34.496l-3.008 1.984-2.24 1.536-6.4 4.16a510.72 510.72 0 0 1-72.576 39.936c-49.28 21.76-102.208 34.048-163.776 37.376V715.2c80.192-3.584 150.272-19.584 215.488-48.384 29.696-13.12 58.304-28.8 88.96-48.64l1.728-1.088a1011.2 1011.2 0 0 0 12.288-8.128l1.216-0.832 2.88-1.92 3.328-2.304 3.52-2.432c10.944-7.552 23.232-16.384 41.28-29.632l20.928-15.424c22.528-16.512 35.52-25.856 48.384-34.496l3.008-1.984 2.24-1.536 6.4-4.16a510.72 510.72 0 0 1 72.576-39.936c49.28-21.76 102.208-34.048 163.776-37.376V308.8c-80.192 3.584-150.272 19.584-215.488 48.384zM721.28 540.16a436.736 436.736 0 0 0-61.12 33.6l-1.344 0.832-1.92 1.28 0.96 0.832 5.824 5.44 1.152 1.024c21.888 20.288 41.472 35.712 61.12 48.064a283.008 283.008 0 0 0 129.984 43.2V509.056c-51.392 3.2-94.592 13.376-134.656 31.104zM168 349.184v165.76c51.392-3.2 94.592-13.376 134.656-31.104 19.712-8.704 39.296-19.456 61.12-33.6l1.344-0.832a112.46 112.46 0 0 0 5.76-3.84l2.112-1.344 2.88-1.92 2.112-1.472c5.44-3.648 11.136-7.68 17.92-12.48a437.76 437.76 0 0 0-227.84-79.232z" p-id="1097"></path></svg>