<?xml version="1.0" standalone="no"?><!DOCTYPE svg PUBLIC "-//W3C//DTD SVG 1.1//EN" "http://www.w3.org/Graphics/SVG/1.1/DTD/svg11.dtd"><svg t="1648635662242" class="icon" viewBox="0 0 1024 1024" version="1.1" xmlns="http://www.w3.org/2000/svg" p-id="22807" xmlns:xlink="http://www.w3.org/1999/xlink" width="200" height="200"><defs><style type="text/css">@font-face { font-family: feedback-iconfont; src: url("//at.alicdn.com/t/font_1031158_u69w8yhxdu.woff2?t=1630033759944") format("woff2"), url("//at.alicdn.com/t/font_1031158_u69w8yhxdu.woff?t=1630033759944") format("woff"), url("//at.alicdn.com/t/font_1031158_u69w8yhxdu.ttf?t=1630033759944") format("truetype"); }
</style></defs><path d="M441.563429 793.6c12.873143-12.8 12.873143-38.4 0-51.2l-64-64 32.036571-38.4 64 64c12.8 12.8 38.4 12.8 51.2 0l147.236571-147.236571c12.8-12.8 12.8-38.326857 0-51.2l-64.073142-64 32.036571-31.963429v-6.363429l64 64c12.8 12.8 38.4 12.8 51.2 0l179.2-179.2c12.8-12.8 12.8-38.473143 0-51.2l-179.2-179.2c-12.8-12.8-38.4-12.8-51.2 0l-172.763429 179.2a29.988571 29.988571 0 0 0 0 51.2l63.926858 63.926858-31.963429 32.036571-224.036571-217.6c-12.726857-12.8-38.326857-12.8-51.2 0L140.8 313.563429c-12.8 12.873143-12.8 38.473143 0 51.2L358.4 582.436571l-32.036571 38.4v6.363429L262.509714 563.2c-12.8-12.8-38.473143-12.8-51.2 0l-179.2 179.2c-12.8 12.8-12.8 38.4 0 51.2l179.2 179.2c12.8 12.8 38.4 12.8 51.2 0l179.2-179.2z m294.473142-659.163429l128 128L742.4 384 614.4 256l121.563429-121.636571z m-518.436571 204.8l95.963429-96.036571 64 64L281.6 403.236571l-64-64zM313.563429 435.2L409.6 339.163429l192 192.073142-102.4 95.963429L313.563429 435.2z m-76.8 454.363429l-128-128 121.636571-128 128 128-121.636571 128z m710.436571-396.8l-25.6-44.763429c-6.436571-12.8-19.163429-12.8-32.036571-6.436571-12.8 6.436571-12.8 19.236571-6.363429 32.036571 32.036571 51.2 51.2 108.836571 51.2 172.836571 0 44.763429-6.436571 83.163429-25.6 121.563429a326.070857 326.070857 0 0 1-172.836571 172.836571c-38.326857 12.8-76.8 25.6-121.563429 25.6-44.836571 0-89.6-12.8-134.436571-32.036571l-38.4-19.236571c-12.8-6.363429-25.6-6.363429-31.963429 6.436571-6.363429 12.8-6.363429 25.6 6.436571 32.036571 19.163429 6.363429 31.963429 12.8 51.2 19.163429 51.2 19.163429 102.4 32.036571 153.6 32.036571 51.2 0 95.963429-12.8 140.8-25.6a375.954286 375.954286 0 0 0 198.363429-198.436571c19.163429-44.836571 25.6-89.6 25.6-140.8-6.436571-44.836571-19.163429-102.4-38.4-147.236571z m-211.163429 268.8c-12.873143 12.8-32.036571 25.6-51.2 38.4-38.4 19.236571-83.236571 12.873143-128 0-12.873143-6.363429-25.6 0-32.036571 12.873142-6.363429 12.8 0 25.6 12.8 31.963429 6.436571 0 12.8 6.363429 19.236571 6.363429 44.763429 12.8 95.963429 12.8 140.726858-6.363429 25.6-12.8 51.2-25.6 70.436571-44.836571 19.163429-19.163429 38.4-44.763429 44.836571-70.363429 12.8-25.6 19.163429-51.2 19.163429-76.8v-19.236571c0-12.8-6.436571-25.6-6.436571-38.4 0-6.363429-6.363429-12.8-6.363429-19.163429-6.363429-12.8-19.163429-19.236571-32.036571-12.8-19.163429-6.436571-25.6 6.363429-19.163429 19.236571 6.436571 12.726857 12.8 31.963429 12.8 44.763429v19.236571c0 19.163429-6.436571 44.763429-12.8 64a139.337143 139.337143 0 0 1-32.036571 51.2z" p-id="22808"></path></svg>