<?xml version="1.0" standalone="no"?><!DOCTYPE svg PUBLIC "-//W3C//DTD SVG 1.1//EN" "http://www.w3.org/Graphics/SVG/1.1/DTD/svg11.dtd"><svg t="1657162216503" class="icon" viewBox="0 0 1024 1024" version="1.1" xmlns="http://www.w3.org/2000/svg" p-id="2021" xmlns:xlink="http://www.w3.org/1999/xlink" width="200" height="200"><defs><style type="text/css">@font-face { font-family: feedback-iconfont; src: url("//at.alicdn.com/t/font_1031158_u69w8yhxdu.woff2?t=1630033759944") format("woff2"), url("//at.alicdn.com/t/font_1031158_u69w8yhxdu.woff?t=1630033759944") format("woff"), url("//at.alicdn.com/t/font_1031158_u69w8yhxdu.ttf?t=1630033759944") format("truetype"); }
</style></defs><path d="M445.96571469 754.66666667c12.06857156-12 12.06857156-36 0-48l-60-60 30.03428531-36 60 60c12 12 36 12 48 0l138.03428531-138.0342853c12-12 12-35.93142844 0-48l-60.06857062-60 30.03428531-29.9657147v-5.96571469l60 60c12 12 36 12 48 0l168-168c12-12 12-36.06857156 0-48l-168-168c-12-12-36-12-48 0l-161.96571469 168a28.11428531 28.11428531 0 0 0 0 48l59.93142938 59.93142939-29.96571469 30.0342853-210.03428531-204c-11.93142844-12-35.93142844-12-48 0L164 304.63238135c-12 12.06857156-12 36.06857156 0 48.00000002L368 556.70095198l-30.03428531 36v5.96571469L278.10285687 538.66666667c-12-12-36.06857156-12-48 0l-168 168c-12 12-12 36 0 48l168 168c12 12 36 12 48 0l168-168z m276.06857062-617.96571469l120 120L728 370.66666667 608 250.66666667l113.96571469-114.03428532z m-486.03428531 192l89.96571469-90.03428531 60 60L296 388.70095198l-60-60zM325.96571469 418.66666667L416 328.63238135l180 180.06857063-96 89.96571469L325.96571469 418.66666667z m-72 425.96571468l-120-119.99999998 114.03428531-120 120 120-114.03428531 120z m666.03428531-371.99999998l-24-41.9657147c-6.03428531-12-17.96571469-12-30.03428531-6.0342853-12 6.03428531-12 18.03428531-5.96571469 30.0342853 30.03428531 48 48 102.03428531 48 162.03428531 0 41.96571469-6.03428531 77.96571469-24 113.96571469a305.69142844 305.69142844 0 0 1-162.03428531 162.03428531c-35.93142844 12-72 24-113.96571469 24-42.03428531 0-84-12-126.03428531-30.03428531l-36-18.03428532c-12-5.96571469-24-5.96571469-29.96571469 6.03428532-5.96571469 12-5.96571469 24 6.03428531 30.03428531 17.96571469 5.96571469 29.96571469 12 48 17.96571469 48 17.96571469 96 30.03428531 144 30.03428531 48 0 89.96571469-12 132-24a352.45714313 352.45714313 0 0 0 185.96571469-186.03428531c17.96571469-42.03428531 24-84 24-132-6.03428531-42.03428531-17.96571469-96-36-138.03428532z m-197.96571469 251.99999998c-12.06857156 12-30.03428531 24-48 36.00000002-36 18.03428531-78.03428531 12.06857156-120 0-12.06857156-5.96571469-24 0-30.03428531 12.06857061-5.96571469 12 0 24 12 29.96571469 6.03428531 0 12 5.96571469 18.03428531 5.96571468 41.96571469 12 89.96571469 12 131.93142938-5.96571468 24-12 48-24 66.03428531-42.03428532 17.96571469-17.96571469 36-41.96571469 42.03428531-65.96571468 12-24 17.96571469-48 17.96571469-72v-18.03428532c0-12-6.03428531-24-6.03428531-36 0-5.96571469-5.96571469-12-5.96571469-17.96571468-5.96571469-12-17.96571469-18.03428531-30.03428531-12-17.96571469-6.03428531-24 5.96571469-17.96571469 18.03428531 6.03428531 11.93142844 12 29.96571469 12 41.96571469v18.03428531c0 17.96571469-6.03428531 41.96571469-12 60a130.62857156 130.62857156 0 0 1-30.03428531 48z" p-id="2022"></path></svg>