<?xml version="1.0" standalone="no"?><!DOCTYPE svg PUBLIC "-//W3C//DTD SVG 1.1//EN" "http://www.w3.org/Graphics/SVG/1.1/DTD/svg11.dtd"><svg t="1678336205530" class="icon" viewBox="0 0 1024 1024" version="1.1" xmlns="http://www.w3.org/2000/svg" p-id="2649" xmlns:xlink="http://www.w3.org/1999/xlink" width="200" height="200"><path d="M275.072 122.368a32 32 0 0 1 45.312 0L532.48 334.464l42.432-42.368-59.392-59.392a32 32 0 0 1 0-45.312l113.152-113.088a32 32 0 0 1 45.248 0l164.032 164.032a32 32 0 0 1 0 45.248l-113.152 113.152a32 32 0 0 1-45.248 0L620.16 337.28l-42.432 42.432 59.392 59.392a32 32 0 0 1 0 45.248L484.48 637.12a32 32 0 0 1-45.248 0l-59.392-59.392-42.432 42.432 59.392 59.392a32 32 0 0 1 0 45.248L283.52 837.952a32 32 0 0 1-45.248 0L74.24 673.92a32 32 0 0 1 0-45.248l113.088-113.152a32 32 0 0 1 45.312 0l59.392 59.392 42.368-42.432-212.096-212.096a32 32 0 0 1 0-45.312l152.704-152.704zM399.552 303.36L303.36 399.552l158.4 158.4 96.192-96.192L399.552 303.36zM210.048 594.688l-56.576 56.576 107.52 107.52 56.512-56.576-107.52-107.52z m441.216-441.216l-56.576 56.576 107.52 107.52 56.576-56.64-107.52-107.456z m-353.536 48.064L201.536 297.728l62.272 62.208 96.128-96.128-62.208-62.272z m76.8 613.376a7.552 7.552 0 0 1 10.304-0.256l0.192 0.128a304 304 0 0 0 433.216-426.112l-1.152-1.28a308.992 308.992 0 0 0-3.84-4.032 5.12 5.12 0 0 1 0-7.168l31.04-31.104a6.912 6.912 0 0 1 9.856 0l2.048 2.176 0.192 0.192a360 360 0 0 1-512 505.984 5.888 5.888 0 0 1 0-8.32l30.08-30.208z m117.952-107.712a8.128 8.128 0 0 1 0.32 0.256l0.768 0.64 1.088 1.024 1.024 0.896 0.64 0.512 0.512 0.512a152 152 0 0 0 212.16-216.576l-1.728-1.92-0.32-0.32a7.168 7.168 0 0 1 0-9.792l0.192-0.128 29.76-29.76a6.848 6.848 0 0 1 9.6 0l0.192 0.192a208 208 0 0 1-289.728 297.856l-0.32-0.32-0.768-0.64-1.664-1.6-0.64-0.576a8 8 0 0 1-0.32-11.264l0.832-0.896 27.136-27.072a8.064 8.064 0 0 1 11.264-1.024z" fill="#0A1B39" p-id="2650"></path></svg>