<?xml version="1.0" standalone="no"?><!DOCTYPE svg PUBLIC "-//W3C//DTD SVG 1.1//EN" "http://www.w3.org/Graphics/SVG/1.1/DTD/svg11.dtd"><svg t="1677575727694" class="icon" viewBox="0 0 1024 1024" version="1.1" xmlns="http://www.w3.org/2000/svg" p-id="2858" xmlns:xlink="http://www.w3.org/1999/xlink" width="200" height="200"><path d="M893.312 293.312l-162.56-162.56A63.68 63.68 0 0 0 704 114.624V112H144a32 32 0 0 0-32 32v736a32 32 0 0 0 32 32h736a32 32 0 0 0 32-32V338.56a63.808 63.808 0 0 0-18.688-45.184zM384 184h256v104H384V184z m456 656H184V184h136v136a32 32 0 0 0 32 32h320a32 32 0 0 0 32-32V205.824l136.064 136V840H840zM512 441.984a144.064 144.064 0 1 0-9.088 288A144.064 144.064 0 0 0 512 442.048z m0 224a80 80 0 1 1 0-159.808 80 80 0 0 1 0 159.872v-0.064z" p-id="2859"></path></svg>