<?xml version="1.0" standalone="no"?><!DOCTYPE svg PUBLIC "-//W3C//DTD SVG 1.1//EN" "http://www.w3.org/Graphics/SVG/1.1/DTD/svg11.dtd"><svg t="1744797715994" class="icon" viewBox="0 0 1024 1024" version="1.1" xmlns="http://www.w3.org/2000/svg" p-id="913" xmlns:xlink="http://www.w3.org/1999/xlink" width="200" height="200"><path d="M819.797 652.31c78.555 2.92 140.528 67.81 139.835 146.417-0.693 78.606-63.8 142.394-142.395 143.929-52.86 1.033-102.105-26.741-128.57-72.511-26.464-45.77-25.965-102.306 1.302-147.603 27.267-45.296 76.995-72.197 129.828-70.233z m-2.378 63.955a81.237 81.237 0 1 0-1.432 162.403c43.961-0.859 79.26-36.538 79.648-80.505 0.36-40.808-29.475-75.007-68.895-81.018l-9.32-0.88zM243.797 588.31c78.555 2.921 140.528 67.812 139.835 146.418-0.693 78.606-63.8 142.394-142.395 143.929-52.86 1.033-102.105-26.741-128.57-72.511-26.464-45.77-25.965-102.306 1.302-147.603 27.267-45.296 76.995-72.197 129.828-70.233z m-2.378 63.956a81.237 81.237 0 1 0-1.432 162.403c43.961-0.859 79.26-36.538 79.648-80.505 0.36-40.808-29.475-75.007-68.895-81.018l-9.32-0.88z m327.669-515.732c145.744 0 263.893 118.15 263.893 263.894S714.832 664.32 569.088 664.32c-145.744 0-263.893-118.15-263.893-263.893 0-145.745 118.149-263.894 263.893-263.894z m0 80c-101.561 0-183.893 82.332-183.893 183.894 0 101.561 82.332 183.893 183.893 183.893s183.893-82.332 183.893-183.893c0-101.562-82.332-183.894-183.893-183.894zM220.011 112c45.66 0 82.96 36.469 83.99 82.118a84.01 84.01 0 1 1-167.98 0c1.03-45.649 38.33-82.118 83.99-82.118z m0 48c-19.572 0-35.56 15.632-36.002 35.2a36.01 36.01 0 1 0 72.003 0c-0.44-19.568-16.43-35.2-36.001-35.2z" p-id="914"></path></svg>