<?xml version="1.0" standalone="no"?><!DOCTYPE svg PUBLIC "-//W3C//DTD SVG 1.1//EN" "http://www.w3.org/Graphics/SVG/1.1/DTD/svg11.dtd"><svg t="1706282452535" class="icon" viewBox="0 0 1024 1024" version="1.1" xmlns="http://www.w3.org/2000/svg" p-id="1305" xmlns:xlink="http://www.w3.org/1999/xlink" width="200" height="200"><path d="M832 64a32 32 0 0 1 32 31.488V928a32 32 0 0 1-31.488 32H192a32 32 0 0 1-32-31.488V96a32 32 0 0 1 31.488-32H832z m-40 72h-64v321.92a8 8 0 0 1-13.632 5.696L624 373.248l-90.368 90.368A8 8 0 0 1 520 457.92V136H232v752h560V136z m-128 0h-80v186.752l40-40 40 40V136z" p-id="1306"></path></svg>