<?xml version="1.0" standalone="no"?><!DOCTYPE svg PUBLIC "-//W3C//DTD SVG 1.1//EN" "http://www.w3.org/Graphics/SVG/1.1/DTD/svg11.dtd"><svg t="1657273598660" class="icon" viewBox="0 0 1024 1024" version="1.1" xmlns="http://www.w3.org/2000/svg" p-id="23201" xmlns:xlink="http://www.w3.org/1999/xlink" width="200" height="200"><defs><style type="text/css">@font-face { font-family: feedback-iconfont; src: url("//at.alicdn.com/t/font_1031158_u69w8yhxdu.woff2?t=1630033759944") format("woff2"), url("//at.alicdn.com/t/font_1031158_u69w8yhxdu.woff?t=1630033759944") format("woff"), url("//at.alicdn.com/t/font_1031158_u69w8yhxdu.ttf?t=1630033759944") format("truetype"); }
</style></defs><path d="M896.5 160h-768a64 64 0 0 0-64 64v520a64 64 0 0 0 64 64h196.91l55.25-72H136.5V232h752v504H643.33l55.26 72H896.5a64 64 0 0 0 64-64V224a64 64 0 0 0-64-64z" p-id="23202"></path><path d="M499.31 640.54L347.57 838.26A16 16 0 0 0 360.26 864h303.48a16 16 0 0 0 12.69-25.74L524.69 640.54a16 16 0 0 0-25.38 0z" p-id="23203"></path></svg>