<?xml version="1.0" standalone="no"?><!DOCTYPE svg PUBLIC "-//W3C//DTD SVG 1.1//EN" "http://www.w3.org/Graphics/SVG/1.1/DTD/svg11.dtd"><svg t="1672833263253" class="icon" viewBox="0 0 1024 1024" version="1.1" xmlns="http://www.w3.org/2000/svg" p-id="939" xmlns:xlink="http://www.w3.org/1999/xlink" width="200" height="200"><path d="M204.032 112c4.416 0 7.936 3.584 7.936 8v67.968h640a32 32 0 0 1 32 32v544h68.032c4.416 0 8 3.584 8 8.064v55.936a8 8 0 0 1-8 8.064l-68.032-0.064v68.032a8 8 0 0 1-7.936 8h-56.064a8 8 0 0 1-7.936-8l-0.064-68.032h-640a32 32 0 0 1-32-32v-544H72A8 8 0 0 1 64 252.032v-55.936c0-4.48 3.584-8.064 8-8.064h67.968V120c0-4.416 3.584-8 8.064-8h55.936z m607.936 588.736l-170.24-223.872-155.84 204.992a16 16 0 0 1-25.472 0L348.288 535.68l-136.32 177.6v50.752h600v-63.232zM211.968 608.128l123.584-161.152a16 16 0 0 1 25.408 0l112 146.048 156.032-205.12a16 16 0 0 1 25.472 0l157.504 207.104V259.968H212.032v348.16zM348.032 288a51.968 51.968 0 1 1 0 104 51.968 51.968 0 0 1 0-104z" p-id="940"></path></svg>