<?xml version="1.0" standalone="no"?><!DOCTYPE svg PUBLIC "-//W3C//DTD SVG 1.1//EN" "http://www.w3.org/Graphics/SVG/1.1/DTD/svg11.dtd"><svg t="1693214443724" class="icon" viewBox="0 0 1024 1024" version="1.1" xmlns="http://www.w3.org/2000/svg" p-id="893" xmlns:xlink="http://www.w3.org/1999/xlink" width="200" height="200"><path d="M920.96 867.008l-145.92-146.048a379.712 379.712 0 0 0-26.048-508.992C600.96 63.936 360.64 63.936 212.032 211.968c-148.096 148.672-148.096 389.056 0 537.024a379.84 379.84 0 0 0 508.992 26.048l145.92 145.92c3.2 2.88 8.32 2.88 11.072 0l43.008-42.944c2.816-2.688 2.816-7.808 0-11.008z m-224.96-171.008a304.128 304.128 0 0 1-430.016-430.016 304.128 304.128 0 0 1 430.08 430.08v-0.064z" p-id="894"></path></svg>