<?xml version="1.0" standalone="no"?><!DOCTYPE svg PUBLIC "-//W3C//DTD SVG 1.1//EN" "http://www.w3.org/Graphics/SVG/1.1/DTD/svg11.dtd"><svg t="1702464674210" class="icon" viewBox="0 0 1024 1024" version="1.1" xmlns="http://www.w3.org/2000/svg" p-id="1282" xmlns:xlink="http://www.w3.org/1999/xlink" width="200" height="200"><path d="M512.576 94.976c70.208 0 134.912 10.304 183.36 29.44 26.24 10.432 47.808 23.424 63.68 39.168 18.88 18.816 29.504 41.472 29.504 66.432 0 18.432-5.888 34.624-17.28 48.64-5.248 6.336-11.136 11.84-18.624 17.664l-1.28 0.96-9.216 81.92a8 8 0 0 1-5.248 6.656l-0.32 0.064-17.408 5.44c-7.424 2.304-14.72 4.48-22.08 6.528v17.728c0 52.352-21.888 99.648-56.96 133.184a400.256 400.256 0 0 1 271.744 357.76v1.472l0.128 1.792 0.128 4.352 0.128 5.632a8 8 0 0 1-7.808 8.192h-56.128a8 8 0 0 1-8-7.808l-0.064-2.368-0.064-2.176-0.064-2.304-0.064-1.28a327.936 327.936 0 0 0-161.984-267.2l-129.6 145.088-0.704 130.24a8 8 0 0 1-8.064 7.936l-56-0.32a8 8 0 0 1-7.936-8.064l0.704-130.304-129.28-144.832a327.936 327.936 0 0 0-162.24 264.512l-0.192 3.584v1.792l-0.128 2.112-0.064 3.584a8 8 0 0 1-8 7.808h-56.064a8 8 0 0 1-7.936-8v-2.56l0.064-2.304 0.064-2.048 0.064-2.304 0.064-1.6a400.256 400.256 0 0 1 272.384-360.512A183.744 183.744 0 0 1 328.96 418.56v-21.44l-3.2-0.768-36.48-9.216a8 8 0 0 1-5.888-6.528l-0.064-0.32-9.216-81.792-0.832-0.64a112.576 112.576 0 0 1-18.688-17.28l-0.64-0.768-0.448-0.576a75.968 75.968 0 0 1-17.6-49.28c0-24.96 10.688-47.552 29.568-66.368 15.808-15.744 37.376-28.736 63.68-39.104 48.448-19.2 113.088-29.44 183.36-29.44zM513.024 600c-33.408 0-65.6 4.992-95.872 14.208L513.28 721.92l96-107.52a327.936 327.936 0 0 0-96.256-14.4z m-112-187.264v2.88a112.32 112.32 0 0 0 224.64 1.856v-3.52c-35.712 5.888-73.088 9.024-112.64 9.024-38.336 0-73.664-3.392-112-10.24z m111.552-245.76c-61.76 0-117.696 8.96-156.864 24.448-17.92 7.04-31.232 15.104-39.424 23.232-5.888 5.888-8.192 10.624-8.32 15.04v0.768c0.064 1.088 0.192 1.6 0.704 2.368l0.128 0.192 0.256 0.32 0.32 0.384 0.32 0.384 0.128 0.192 0.384 0.384 0.32 0.384 0.32 0.32 0.32 0.256 0.384 0.448 0.448 0.448 0.512 0.384 0.512 0.448 0.512 0.448 0.512 0.512 0.64 0.448 0.64 0.512 0.576 0.448 1.024 0.768 0.32 0.256 0.704 0.576 0.768 0.512 0.768 0.576 0.832 0.576 0.832 0.576 0.896 0.64 1.344 0.832 0.96 0.64 1.024 0.64 1.536 1.024 11.84 7.488c1.92 1.28 3.264 3.328 3.648 5.568v0.32l7.552 67.392 6.72 1.6 3.648 0.896 3.584 0.832 3.52 0.832 3.52 0.832 3.52 0.768 1.728 0.384 3.456 0.768 3.456 0.768 1.664 0.384 3.392 0.704 3.392 0.704 10.56 2.112 2.624 0.512 3.264 0.64 3.2 0.576 3.2 0.576c14.144 2.496 27.712 4.48 41.152 5.888l2.368 0.256 3.072 0.32c17.28 1.664 34.304 2.56 52.032 2.56a614.976 614.976 0 0 0 159.36-20.864l2.112-0.576 1.408-0.384 7.744-69.12a8 8 0 0 1 3.328-5.632l0.256-0.128 10.88-7.232 1.536-1.024 1.408-0.96 1.856-1.28 1.28-0.832 1.216-0.896 1.152-0.832 0.64-0.512 0.768-0.512 0.96-0.768 0.64-0.512 0.64-0.448 0.576-0.448 0.512-0.448 0.512-0.448 0.512-0.448 0.512-0.384 0.448-0.448 0.384-0.384 0.448-0.384 0.192-0.192 0.32-0.384 0.384-0.32 0.32-0.384 0.128-0.128 0.32-0.384 0.256-0.32 0.384-0.448c0.448-0.576 0.64-0.896 0.64-1.472l0.064-0.192v-1.152c-0.064-4.416-2.368-9.152-8.32-15.04-8.128-8.128-21.504-16.192-39.36-23.232-39.232-15.552-95.104-24.448-156.864-24.448z m1.664 31.424v0.128l37.248 14.72c1.28 0.512 2.176 1.792 2.176 3.2v30.08a49.28 49.28 0 0 1-7.68 27.712h25.664c0.64 0 1.216 0.064 1.792 0.32a3.456 3.456 0 0 1 1.856 4.608l-0.064 0.128-0.192 0.32-0.32 0.768a70.016 70.016 0 0 1-126.848-1.728l-0.128-0.128a3.136 3.136 0 0 1 2.944-4.288h26.624l-0.128-0.256a49.28 49.28 0 0 1-7.552-27.392v-30.144c0-1.472 0.896-2.752 2.24-3.264l37.184-14.72a6.976 6.976 0 0 1 5.184 0z" p-id="1283"></path></svg>