<?xml version="1.0" standalone="no"?><!DOCTYPE svg PUBLIC "-//W3C//DTD SVG 1.1//EN" "http://www.w3.org/Graphics/SVG/1.1/DTD/svg11.dtd"><svg t="1686727379430" class="icon" viewBox="0 0 1024 1024" version="1.1" xmlns="http://www.w3.org/2000/svg" p-id="971" xmlns:xlink="http://www.w3.org/1999/xlink" width="200" height="200"><path d="M866.88 169.92L527.04 54.08A49.152 49.152 0 0 0 512 52.032a49.152 49.152 0 0 0-15.104 2.048l-339.84 115.84a24 24 0 0 0-15.04 21.12v482.432c0 8.832 5.696 20.48 12.608 25.92L499.328 968a20.672 20.672 0 0 0 12.544 4.096A20.48 20.48 0 0 0 524.48 968l344.704-268.608a37.184 37.184 0 0 0 12.608-25.92V191.104a23.552 23.552 0 0 0-14.912-21.184z m-56.896 484.352L512 886.528 214.016 654.272v-427.52L512 125.056l297.984 101.568v427.584zM488 280h48c4.416 0 8 3.584 8 8v368a8 8 0 0 1-8 8h-48a8 8 0 0 1-8-8V288c0-4.416 3.584-8 8-8z m216 168v48a8 8 0 0 1-8 8H328a8 8 0 0 1-8-8v-48c0-4.416 3.584-8 8-8h368c4.416 0 8 3.584 8 8z" p-id="972"></path></svg>