<?xml version="1.0" standalone="no"?><!DOCTYPE svg PUBLIC "-//W3C//DTD SVG 1.1//EN" "http://www.w3.org/Graphics/SVG/1.1/DTD/svg11.dtd"><svg t="1741344453016" class="icon" viewBox="0 0 1024 1024" version="1.1" xmlns="http://www.w3.org/2000/svg" p-id="1122" xmlns:xlink="http://www.w3.org/1999/xlink" width="200" height="200"><path d="M426.176 266.112l131.2 283.904 38.528-97.408a8 8 0 0 1 7.488-5.056h113.6c4.48 0 8 3.584 8 8v48a8 8 0 0 1-7.744 8h-70.272a8 8 0 0 0-7.424 5.12l-63.616 161.536a16 16 0 0 1-29.44 0.896L420.288 404.992l-31.936 100.992a8 8 0 0 1-7.616 5.568h-135.36a8 8 0 0 1-8-8v-48c0-4.48 3.584-8 8-8h88.384a8 8 0 0 0 7.68-5.568l54.912-174.016a16 16 0 0 1 29.824-1.92z m494.848 600.896L774.976 721.024a379.776 379.776 0 0 0-25.984-509.056c-147.968-148.096-388.416-148.096-536.96 0-148.16 148.608-148.16 389.056 0 537.024a379.776 379.776 0 0 0 508.992 25.984l145.92 146.048c3.2 2.752 8.32 2.752 11.072 0l43.008-43.008c2.752-2.688 2.752-7.808 0-11.008zM696 696a304.128 304.128 0 0 1-430.016-430.016A304.128 304.128 0 0 1 696 696z" p-id="1123"></path></svg>