<?xml version="1.0" standalone="no"?><!DOCTYPE svg PUBLIC "-//W3C//DTD SVG 1.1//EN" "http://www.w3.org/Graphics/SVG/1.1/DTD/svg11.dtd"><svg t="1678006148001" class="icon" viewBox="0 0 1024 1024" version="1.1" xmlns="http://www.w3.org/2000/svg" p-id="3250" xmlns:xlink="http://www.w3.org/1999/xlink" width="200" height="200"><path d="M928 160a32 32 0 0 1 32 32v640a32 32 0 0 1-32 32H96a32 32 0 0 1-32-32V192a32 32 0 0 1 32-32h832z m-40 72H136v560h752V232z m-99.968 388.032c5.312 0 7.936 2.624 7.936 7.936v56.064c0 5.312-2.624 7.936-7.936 7.936H379.968c-5.312 0-8-2.624-8-7.936v-56.064c0-5.312 2.688-7.936 8-7.936h408.064z m-524.032 0a36.032 36.032 0 1 1 0 72 36.032 36.032 0 0 1 0-72.064z m0-144a36.032 36.032 0 1 1 0 72 36.032 36.032 0 0 1 0-72.064z m524.032 0c5.312 0 7.936 2.624 7.936 8v56c0 5.312-2.624 7.936-7.936 7.936H379.968c-5.312 0-8-2.624-8-7.936v-56.064c0-5.312 2.688-8 8-8h408.064zM264 332.032a36.032 36.032 0 1 1 0 72 36.032 36.032 0 0 1 0-72z m524.032 0c5.312 0 7.936 2.624 7.936 8v56c0 5.312-2.624 8-7.936 8H379.968c-5.312 0-8-2.688-8-8v-56c0-5.376 2.688-8 8-8h408.064z" p-id="3251"></path></svg>