<?xml version="1.0" standalone="no"?><!DOCTYPE svg PUBLIC "-//W3C//DTD SVG 1.1//EN" "http://www.w3.org/Graphics/SVG/1.1/DTD/svg11.dtd"><svg t="1678011370800" class="icon" viewBox="0 0 1024 1024" version="1.1" xmlns="http://www.w3.org/2000/svg" p-id="5804" xmlns:xlink="http://www.w3.org/1999/xlink" width="200" height="200"><path d="M928 160H96a32 32 0 0 0-32 32v640a32 32 0 0 0 32 32h832a32 32 0 0 0 32-32V192a32 32 0 0 0-32-32z m-40 632H136V232h752v560zM224 416h576a8 8 0 0 0 8-8v-88a8 8 0 0 0-8-8H224a8 8 0 0 0-8 8v88c0 4.416 3.584 8 8 8z m0 296h183.872a8 8 0 0 0 8-8v-48a8 8 0 0 0-8-8H224a8 8 0 0 0-8 8v48c0 4.416 3.584 8 8 8z" p-id="5805"></path></svg>