<?xml version="1.0" standalone="no"?><!DOCTYPE svg PUBLIC "-//W3C//DTD SVG 1.1//EN" "http://www.w3.org/Graphics/SVG/1.1/DTD/svg11.dtd"><svg t="1678011329048" class="icon" viewBox="0 0 1024 1024" version="1.1" xmlns="http://www.w3.org/2000/svg" p-id="4260" xmlns:xlink="http://www.w3.org/1999/xlink" width="200" height="200"><path d="M170.56 512.896c3.008 0 5.76 1.664 7.04 4.288l0.192 0.256 58.304 122.752a8 8 0 0 1-1.728 9.28l-0.192 0.192-42.688 37.312a13.248 13.248 0 0 0-2.944 16.192c35.648 66.432 70.4 100.48 137.6 135.04 5.184 2.56 11.52 1.536 15.552-2.56l0.192-0.256 35.904-38.592a8 8 0 0 1 8.832-1.92l0.32 0.064L505.856 848c2.816 1.28 4.672 3.968 4.736 7.04v78.08a26.432 26.432 0 0 1-27.968 26.368A444.032 444.032 0 0 1 194.24 829.184 444.288 444.288 0 0 1 64 540.864a26.432 26.432 0 0 1 25.92-27.968h80.576zM512 64c247.04 0 448.064 201.088 448 448.128a448.192 448.192 0 0 1-392.32 444.48 8 8 0 0 1-9.024-7.68v-51.84c0-3.968 2.944-7.36 6.848-7.936a381.12 381.12 0 0 0 322.688-317.056l0.704-4.992-89.6-48a8 8 0 0 1-0.256-13.952l0.256-0.128 89.6-48.064a380.608 380.608 0 0 0-316.928-321.152l-4.928-0.704-48 89.6a8 8 0 0 1-14.016 0.256l-0.064-0.32-48-89.6a381.12 381.12 0 0 0-321.984 322.944 8 8 0 0 1-7.68 6.848H75.52a8 8 0 0 1-8-8.96A448.128 448.128 0 0 1 512 64z m190.08 305.984c4.416 0 8 3.584 8 8v170.88h32.448c4.416 0 8 3.648 8 8.064v40.064a8 8 0 0 1-8 8h-32v48.896a8 8 0 0 1-8 8H653.76a8 8 0 0 1-8-8v-48.896H516.48a8 8 0 0 1-8-8v-47.68c0-1.6 0.448-3.2 1.344-4.48l115.008-171.264a8 8 0 0 1 6.656-3.584h70.592z m-319.744-7.872c13.248 0 26.432 1.792 39.168 5.376 12.16 3.392 23.68 8.96 33.792 16.512 9.92 7.424 17.984 17.024 23.68 28.032 5.952 11.264 8.896 24.448 8.896 39.552a89.78 89.78 0 0 1-4.16 28.224 93.888 93.888 0 0 1-11.328 23.296 134.016 134.016 0 0 1-16.448 20.032 585.152 585.152 0 0 1-19.2 18.304l-67.584 60.16h111.104c4.48 0 8 3.648 8 8.064v44.16a8 8 0 0 1-8 8.064H285.184a8 8 0 0 1-8-8v-46.08c0-2.304 0.96-4.48 2.624-5.952l111.168-100.48a108.16 108.16 0 0 0 17.28-21.056 44.672 44.672 0 0 0 6.656-23.168v-0.64a33.792 33.792 0 0 0-9.92-25.344 36.096 36.096 0 0 0-26.368-9.664 36.16 36.16 0 0 0-28.224 12.16 51.456 51.456 0 0 0-11.84 24.576 8 8 0 0 1-8.96 6.272l-50.56-6.848a8 8 0 0 1-6.848-9.28 100.736 100.736 0 0 1 35.52-61.12c10.112-8.32 21.632-14.592 34.048-18.688a125.37 125.37 0 0 1 39.488-6.4h1.088z m263.872 78.72h-1.216l-69.248 108.096h70.464V440.96z" p-id="4261"></path></svg>