<?xml version="1.0" standalone="no"?><!DOCTYPE svg PUBLIC "-//W3C//DTD SVG 1.1//EN" "http://www.w3.org/Graphics/SVG/1.1/DTD/svg11.dtd"><svg t="1677989554822" class="icon" viewBox="0 0 1024 1024" version="1.1" xmlns="http://www.w3.org/2000/svg" p-id="2322" xmlns:xlink="http://www.w3.org/1999/xlink" width="200" height="200"><path d="M536 64c1.28 0 2.56 0.32 3.584 0.832a448 448 0 0 1 419.584 419.584A7.936 7.936 0 0 1 960 488v48c0 1.28-0.32 2.56-0.832 3.584a448 448 0 0 1-419.584 419.584A7.936 7.936 0 0 1 536 960h-48a7.936 7.936 0 0 1-3.584-0.832A448 448 0 0 1 64.832 539.52 7.936 7.936 0 0 1 64 536v-48c0-1.28 0.32-2.56 0.832-3.584A448 448 0 0 1 484.48 64.832 7.936 7.936 0 0 1 488 64h48z m8 73.344V256a8 8 0 0 1-8 8h-48a8 8 0 0 1-8-8V137.344A376.064 376.064 0 0 0 137.344 480H256c4.416 0 8 3.584 8 8v48a8 8 0 0 1-8 8H137.344A376.064 376.064 0 0 0 480 886.656V768c0-4.416 3.584-8 8-8h48c4.416 0 8 3.584 8 8v118.656A376.064 376.064 0 0 0 886.656 544H768a8 8 0 0 1-8-8v-48c0-4.416 3.584-8 8-8h118.656A376.064 376.064 0 0 0 544 137.344z m-32 306.688a67.968 67.968 0 1 1 0 135.936 67.968 67.968 0 0 1 0-135.936z" p-id="2323"></path></svg>