<?xml version="1.0" standalone="no"?><!DOCTYPE svg PUBLIC "-//W3C//DTD SVG 1.1//EN" "http://www.w3.org/Graphics/SVG/1.1/DTD/svg11.dtd"><svg t="1677989542781" class="icon" viewBox="0 0 1024 1024" version="1.1" xmlns="http://www.w3.org/2000/svg" p-id="1858" xmlns:xlink="http://www.w3.org/1999/xlink" width="200" height="200"><path d="M744 528a216.064 216.064 0 1 1-0.128 432.128A216.064 216.064 0 0 1 744 528zM536 64c1.28 0 2.56 0.32 3.584 0.832a448 448 0 0 1 420.096 430.72l0.32 7.488v0.896a8 8 0 0 1-7.68 8.064h-60.352a8 8 0 0 1-8-7.872v-1.344A372.032 372.032 0 0 0 544 141.376V256a8 8 0 0 1-8 8h-48a8 8 0 0 1-8-8V141.376A372.096 372.096 0 0 0 141.376 480H256c4.416 0 8 3.584 8 8v48a8 8 0 0 1-8 8H141.376a372.032 372.032 0 0 0 360.64 339.84h1.344l0.768 0.064a8 8 0 0 1 7.872 7.872v59.84a8 8 0 0 1-7.68 8.32h-1.28A448 448 0 0 1 64.832 539.52 8.128 8.128 0 0 1 64 536v-48c0-1.28 0.32-2.56 0.832-3.584A448 448 0 0 1 484.48 64.832 7.936 7.936 0 0 1 488 64h48z m208 528a152.192 152.192 0 0 0-152 152 152.192 152.192 0 0 0 152 152 151.872 151.872 0 0 0 152-152 152.192 152.192 0 0 0-152-152z m99.392 72.96a8 8 0 0 1 6.4 12.8L731.264 841.024a8 8 0 0 1-12.928 0l-75.84-104.32a8 8 0 0 1 6.528-12.736h35.456a16 16 0 0 1 12.928 6.656l27.392 37.632 70.144-96.64a16 16 0 0 1 12.928-6.592h35.52zM512 444.032a67.968 67.968 0 1 1 0 136 67.968 67.968 0 0 1 0-135.936z" p-id="1859"></path></svg>