<?xml version="1.0" standalone="no"?><!DOCTYPE svg PUBLIC "-//W3C//DTD SVG 1.1//EN" "http://www.w3.org/Graphics/SVG/1.1/DTD/svg11.dtd"><svg t="1677575709111" class="icon" viewBox="0 0 1024 1024" version="1.1" xmlns="http://www.w3.org/2000/svg" p-id="2246" xmlns:xlink="http://www.w3.org/1999/xlink" width="200" height="200"><path d="M752 664c-28.48 0-54.784 9.984-75.392 26.688L469.376 540.8a160.64 160.64 0 0 0 0-57.6l207.232-149.888A120.064 120.064 0 0 0 872 240c0-66.176-53.76-120-120-120a120.064 120.064 0 0 0-115.328 153.28l-196.8 142.528a160 160 0 1 0 0 192.384l196.8 142.528A120.064 120.064 0 0 0 752 904c66.176 0 120-53.76 120-120 0-66.176-53.76-120-120-120z m0-476.032a52.032 52.032 0 1 1 0 104.064 52.032 52.032 0 0 1 0-104zM312 600a88.128 88.128 0 0 1-88-88c0-48.512 39.488-88 88-88s88 39.488 88 88-39.488 88-88 88z m440 236.032a52.032 52.032 0 1 1 0-104.064 52.032 52.032 0 0 1 0 104.064z" p-id="2247"></path></svg>