<?xml version="1.0" standalone="no"?><!DOCTYPE svg PUBLIC "-//W3C//DTD SVG 1.1//EN" "http://www.w3.org/Graphics/SVG/1.1/DTD/svg11.dtd"><svg t="1735203478244" class="icon" viewBox="0 0 1024 1024" version="1.1" xmlns="http://www.w3.org/2000/svg" p-id="2333" xmlns:xlink="http://www.w3.org/1999/xlink" width="200" height="200"><path d="M337.182 113.448c8.836 0 16 7.163 16 16v115.96l465.57 0.001c41.974 0 76 34.026 76 76a76 76 0 0 1-15.392 45.856L458.006 924.168a8 8 0 0 1-11.206 1.553l-57.418-43.442a8 8 0 0 1-1.553-11.207l406.797-537.664H353.182v115.144a16 16 0 0 1-3.055 9.403l-0.252 0.338c-5.38 7.01-15.424 8.332-22.434 2.952L119.539 301.693a16 16 0 0 1-2.952-2.952c-5.38-7.01-4.058-17.054 2.952-22.434l207.902-159.552a16 16 0 0 1 9.74-3.307z" p-id="2334"></path></svg>