<?xml version="1.0" standalone="no"?><!DOCTYPE svg PUBLIC "-//W3C//DTD SVG 1.1//EN" "http://www.w3.org/Graphics/SVG/1.1/DTD/svg11.dtd"><svg t="1735203429470" class="icon" viewBox="0 0 1024 1024" version="1.1" xmlns="http://www.w3.org/2000/svg" p-id="1852" xmlns:xlink="http://www.w3.org/1999/xlink" width="200" height="200"><path d="M686.818 113.448c-8.836 0-16 7.163-16 16v115.96l-465.57 0.001c-41.974 0-76 34.026-76 76a76 76 0 0 0 15.392 45.856l421.354 556.903a8 8 0 0 0 11.206 1.553l57.418-43.442a8 8 0 0 0 1.553-11.207L229.374 333.408h441.444v115.144a16 16 0 0 0 3.055 9.403l0.252 0.338c5.38 7.01 15.424 8.332 22.434 2.952l207.902-159.552a16 16 0 0 0 2.952-2.952c5.38-7.01 4.058-17.054-2.952-22.434L696.559 116.755a16 16 0 0 0-9.74-3.307z" p-id="1853"></path></svg>