<?xml version="1.0" standalone="no"?><!DOCTYPE svg PUBLIC "-//W3C//DTD SVG 1.1//EN" "http://www.w3.org/Graphics/SVG/1.1/DTD/svg11.dtd"><svg t="1703839549626" class="icon" viewBox="0 0 1024 1024" version="1.1" xmlns="http://www.w3.org/2000/svg" p-id="977" xmlns:xlink="http://www.w3.org/1999/xlink" width="200" height="200"><path d="M160 96a32 32 0 0 1 32-32h640a32 32 0 0 1 32 32v832a32 32 0 0 1-32 32H192a32 32 0 0 1-32-32V96z m72 792h560V136H232v752z" p-id="978"></path><path d="M532.48 330.688c11.648-2.112 20.16-1.152 35.52 5.312 15.36 6.4 18.368 8.576 24 16l57.856 94.4a9.856 9.856 0 0 0 8.32 4.672h74.944a26.88 26.88 0 0 1 0 53.76H624.96a21.376 21.376 0 0 1-18.112-10.048l-27.584-43.712L552 552a362.432 362.432 0 0 1 142.08 222.72l6.784 34.176a27.072 27.072 0 0 1-26.944 27.136h-1.152a26.88 26.88 0 0 1-26.88-27.136l-7.424-26.816A250.304 250.304 0 0 0 512 626.432l-25.216 54.784a96.96 96.96 0 0 1-127.36 48.064l-62.272-27.584A42.24 42.24 0 0 1 272 663.04a20.48 20.48 0 0 1 26.304-19.584l110.976 33.152 70.272-267.52-56.96 19.072a9.6 9.6 0 0 0-6.592 9.152v78.08a26.88 26.88 0 1 1-53.632 0v-113.92c0-9.728 6.272-18.368 15.36-21.312l146.944-47.36a77.788 77.788 0 0 1 7.808-2.112z m61.312-126.656c14.72-0.128 28.8 5.632 39.232 16 4.736 5.696 8.64 12.096 11.584 18.88 3.008 6.912 4.48 14.336 4.416 21.824a55.04 55.04 0 0 1-16 39.296 56.128 56.128 0 0 1-60.992 11.52 76.352 76.352 0 0 1-19.008-11.52 55.936 55.936 0 0 1-11.52-61.12c3.008-6.912 6.848-13.312 11.648-18.944a74.24 74.24 0 0 1 18.816-11.648 55.552 55.552 0 0 1 21.824-4.288z" p-id="979"></path></svg>