<?xml version="1.0" standalone="no"?><!DOCTYPE svg PUBLIC "-//W3C//DTD SVG 1.1//EN" "http://www.w3.org/Graphics/SVG/1.1/DTD/svg11.dtd"><svg t="1750919534547" class="icon" viewBox="0 0 1024 1024" version="1.1" xmlns="http://www.w3.org/2000/svg" p-id="1719" xmlns:xlink="http://www.w3.org/1999/xlink" width="200" height="200"><path d="M777.684 158a32.3 32.3 0 0 1 25.97 13.094l138.015 186.61 0.278 0.382c9.082 12.657 7.838 30.03-3.017 41.267L819.086 523.407l-0.363 0.37c-12.044 12.08-31.458 12.72-44.277 1.374l-14.074-12.688v320.825c0 17.839-14.461 32.3-32.3 32.3H296.049c-17.84 0-32.3-14.461-32.3-32.3V512.38l-14.195 12.77c-12.819 11.346-32.233 10.706-44.277-1.375l-0.363-0.37L85.07 399.354c-10.855-11.236-12.099-28.61-3.017-41.267l0.278-0.382 138.015-186.61A32.3 32.3 0 0 1 246.316 158h195.086c0 39.023 31.635 70.658 70.658 70.658 39.024 0 70.658-31.635 70.658-70.658h194.966zM512.06 293.26c-51.304 0-95.937-28.564-118.863-70.659H262.602L150.529 374.132l79.361 82.15 33.858-30.791h64.602v375.496h367.42V425.49h64.602l33.738 30.79 79.36-82.149-112.072-151.53H630.923c-22.926 42.094-67.558 70.657-118.863 70.657z" p-id="1720"></path></svg>