<?xml version="1.0" standalone="no"?><!DOCTYPE svg PUBLIC "-//W3C//DTD SVG 1.1//EN" "http://www.w3.org/Graphics/SVG/1.1/DTD/svg11.dtd"><svg t="1724642002193" class="icon" viewBox="0 0 1024 1024" version="1.1" xmlns="http://www.w3.org/2000/svg" p-id="2125" xmlns:xlink="http://www.w3.org/1999/xlink" width="200" height="200"><path d="M532 112c8.837 0 16 7.163 16 16l-0.004 367.14C505.733 541.948 480 603.969 480 672c0 68.031 25.733 130.052 67.996 176.86L548 896c0 8.837-7.163 16-16 16h-40c-8.837 0-16-7.163-16-16V128c0-8.837 7.163-16 16-16h40z m212 344c119.3 0 216 96.7 216 216s-96.7 216-216 216-216-96.7-216-216 96.7-216 216-216z m0 64c-40.6 0-78.8 15.8-107.5 44.5C607.8 593.2 592 631.4 592 672c0 40.6 15.8 78.8 44.5 107.5C665.2 808.2 703.4 824 744 824c40.6 0 78.8-15.8 107.5-44.5C880.2 750.8 896 712.6 896 672c0-40.6-15.8-78.8-44.5-107.5C822.8 535.8 784.6 520 744 520zM350 232c8.837 0 16 7.163 16 16v528c0 8.837-7.163 16-16 16h-40c-8.837 0-16-7.163-16-16V248c0-8.837 7.163-16 16-16h40z m474 353a8 8 0 0 1 8 8v40a8 8 0 0 1-8 8h-52v140a8 8 0 0 1-8 8h-40a8 8 0 0 1-8-8V641h-52a8 8 0 0 1-8-8v-40a8 8 0 0 1 8-8h160zM168 312c8.837 0 16 7.163 16 16v368c0 8.837-7.163 16-16 16h-40c-8.837 0-16-7.163-16-16V328c0-8.837 7.163-16 16-16h40z m728 0c8.837 0 16 7.163 16 16l0.004 140.347c-21.423-17.693-45.685-32.071-72-42.349L840 328c0-8.837 7.163-16 16-16h40z m-182-80c8.837 0 16 7.163 16 16v160.365c-25.089 1.31-49.25 6.124-72.003 13.96L658 248c0-8.837 7.163-16 16-16h40z" p-id="2126"></path></svg>