<?xml version="1.0" standalone="no"?><!DOCTYPE svg PUBLIC "-//W3C//DTD SVG 1.1//EN" "http://www.w3.org/Graphics/SVG/1.1/DTD/svg11.dtd"><svg t="1678002144003" class="icon" viewBox="0 0 1024 1024" version="1.1" xmlns="http://www.w3.org/2000/svg" p-id="1224" xmlns:xlink="http://www.w3.org/1999/xlink" width="200" height="200"><path d="M515.264 340.416c1.792 0.768 3.2 2.24 4.032 4.032l271.616 604.288A8 8 0 0 1 783.616 960h-56.192a16 16 0 0 1-14.592-9.472l-27.712-61.504H338.88l-27.712 61.504A16 16 0 0 1 296.576 960h-56.192a8 8 0 0 1-7.296-11.264l271.616-604.288a8 8 0 0 1 10.56-4.032z m93.504 378.688l-244.224 113.92h295.424l-51.2-113.92z m-22.976-51.136H438.208L399.04 755.2l186.752-87.104zM512 503.808l-48.64 108.16h97.28L512 503.808zM251.584 67.904a14.912 14.912 0 0 1 0.384 0.384l33.408 33.408c3.2 2.944 3.456 7.872 0.64 11.136l-0.192 0.256-0.64 0.64-0.64 0.768A310.912 310.912 0 0 0 200 328c0 83.072 32.448 158.528 85.376 214.4l0.448 0.512a8 8 0 0 1 0 10.88l-0.128 0.256-34.56 34.56a7.168 7.168 0 0 1-10.24 0l-0.512-0.64A374.72 374.72 0 0 1 136 328c0-99.392 38.592-189.824 101.632-257.088l2.112-2.24 0.512-0.576a8 8 0 0 1 11.328-0.192z m531.2-0.64a7.552 7.552 0 0 1 0.768 0.64l2.24 2.432 1.088 1.088A374.656 374.656 0 0 1 888 328a374.72 374.72 0 0 1-101.504 256.96l-0.896 0.96-1.28 1.344-0.768 0.768a8 8 0 0 1-11.328 0.192l-0.768-0.768-32.64-32.64a8.064 8.064 0 0 1-0.768-11.84l3.712-3.84v-0.064A310.912 310.912 0 0 0 824 328c0-81.92-31.616-156.544-83.328-212.224l-1.024-1.152-1.6-1.6a8 8 0 0 1 0.256-11.328l0.32-0.32L771.52 68.48a8.064 8.064 0 0 1 11.264-1.28z m-78.976 79.36a7.488 7.488 0 0 1 0.576 0.64l0.896 0.896 0.704 0.768A263.04 263.04 0 0 1 776 328a263.04 263.04 0 0 1-67.968 176.832l-1.024 1.152-0.896 0.96-1.344 1.408a8 8 0 0 1-11.648 0.64l-1.024-0.896-32.32-32.32a8.128 8.128 0 0 1-1.024-11.968l1.088-1.152 1.024-1.088 0.64-0.64 0.768-0.96 0.512-0.64C693.44 424.256 712 378.304 712 328c0-51.2-19.2-97.92-50.88-133.312l-0.512-0.512-0.832-0.96-1.024-1.024a8 8 0 0 1 0.384-11.328l0.448-0.448 32.896-32.896a8.064 8.064 0 0 1 11.328-0.832z m-373.056 0.448l0.256 0.256 33.28 33.28a8.064 8.064 0 0 1 1.216 11.264l-0.192 0.256-1.216 1.28-0.832 0.896-0.768 0.832A199.232 199.232 0 0 0 312 328c0 50.432 18.624 96.448 49.408 131.648l0.96 1.088 0.512 0.576 0.896 0.896 0.64 0.704 0.64 0.768a8 8 0 0 1-0.128 11.072l-0.256 0.192-0.128 0.256-33.408 33.344a8 8 0 0 1-11.712 0l-0.512-0.512A263.04 263.04 0 0 1 248 328a263.04 263.04 0 0 1 69.504-178.56l1.472-1.536 0.448-0.512a8 8 0 0 1 11.328-0.32z m293.76 78.848a7.296 7.296 0 0 1 0.64 0.704l0.768 0.768 0.896 1.024 0.832 0.96 0.512 0.64 0.256 0.256C650.624 256.704 664 290.816 664 328c0 36.8-13.056 70.528-34.816 96.832l-0.512 0.64-0.512 0.576-0.64 0.64-0.576 0.704-0.64 0.768-0.704 0.768a8 8 0 0 1-11.648 0.96l-1.28-1.216-32.384-32.384a8.064 8.064 0 0 1-1.28-11.328l0.128-0.128 0.704-0.832 0.64-0.704c0-0.128 0.128-0.256 0.256-0.32l0.512-0.64a53.952 53.952 0 0 0 0.256-0.32l0.448-0.576C593.28 366.592 600 348.096 600 328c0-20.48-7.04-39.36-18.752-54.272l-0.448-0.576a54.912 54.912 0 0 0-0.192-0.256l-0.512-0.64a78.336 78.336 0 0 0-0.256-0.32l-0.64-0.64a8 8 0 0 1 0.832-11.328l33.152-33.152a8.064 8.064 0 0 1 11.264-0.896z m-214.592 0.32l0.32 0.32 0.64 0.64 32.384 32.384a8.192 8.192 0 0 1 1.472 11.904l-0.768 0.832a135.488 135.488 0 0 0-0.32 0.448l-0.64 0.768-0.64 0.832-0.64 0.704-0.576 0.768-0.512 0.64a53.184 53.184 0 0 0-0.448 0.64l-0.448 0.64a87.616 87.616 0 0 0 2.56 104.064l0.448 0.512 0.512 0.64 0.512 0.576 0.576 0.64 0.256 0.384a8 8 0 0 1-0.64 11.072l-0.128 0.192-0.192 0.192-33.152 33.152a8 8 0 0 1-11.904 0l-0.64-0.64-0.512-0.64A151.424 151.424 0 0 1 360 328c0-37.632 13.696-72.064 36.352-98.624l0.512-0.64 0.832-0.896 0.64-0.64a8 8 0 0 1 11.648-0.896z" p-id="1225"></path></svg>