<?xml version="1.0" standalone="no"?><!DOCTYPE svg PUBLIC "-//W3C//DTD SVG 1.1//EN" "http://www.w3.org/Graphics/SVG/1.1/DTD/svg11.dtd"><svg t="1711365377689" class="icon" viewBox="0 0 1024 1024" version="1.1" xmlns="http://www.w3.org/2000/svg" p-id="834" xmlns:xlink="http://www.w3.org/1999/xlink" width="200" height="200"><path d="M779.648 134.272a8 8 0 0 1 10.944-1.664l0.256 0.128 128.384 97.536a16 16 0 0 1 0.256 25.28l-0.256 0.192-128.384 97.536a8 8 0 0 1-12.8-6.144v-76.16H393.6a259.968 259.968 0 0 0-4.288 520H630.4A260.032 260.032 0 0 0 889.984 545.6l0.192-4.288 0.064-1.92v-0.512a8 8 0 0 1 8-7.808h56.064c4.288 0 7.872 3.456 8 7.744v0.32l-0.064 2.048v1.664l-0.064 1.152v0.384A332.032 332.032 0 0 1 635.904 863.04H393.6a332.032 332.032 0 0 1-5.504-664h389.888v-59.904c0-1.664 0.512-3.2 1.472-4.608l0.192-0.256zM552.96 353.984v354.048h-64v-289.92l-48.512 35.584v-64.32l48.512-35.392h64z" p-id="835"></path></svg>