<?xml version="1.0" standalone="no"?><!DOCTYPE svg PUBLIC "-//W3C//DTD SVG 1.1//EN" "http://www.w3.org/Graphics/SVG/1.1/DTD/svg11.dtd"><svg t="1678348157577" class="icon" viewBox="0 0 1024 1024" version="1.1" xmlns="http://www.w3.org/2000/svg" p-id="1747" xmlns:xlink="http://www.w3.org/1999/xlink" width="200" height="200"><path d="M128 160c4.416 0 8 3.584 8 8v344h816c4.416 0 8 3.584 8 8v336a8 8 0 0 1-8 8h-56a8 8 0 0 1-8-8V752H136v104a8 8 0 0 1-8 8H72a8 8 0 0 1-8-8V168c0-4.416 3.584-8 8-8h56z m760 424H136v97.024h752V584zM280 264a80 80 0 1 1 0 160 80 80 0 0 1 0-160z m532.032-40C867.2 224 912 268.8 912 324.032V416a8 8 0 0 1-8 8H416a8 8 0 0 1-8-8V232c0-4.416 3.584-8 8-8h396.032z m-532.096 96a24 24 0 1 0 0 48 24 24 0 0 0 0-48z m532.736-40H464v88h392v-44.032A44.032 44.032 0 0 0 812.736 280z" p-id="1748"></path></svg>