<?xml version="1.0" standalone="no"?><!DOCTYPE svg PUBLIC "-//W3C//DTD SVG 1.1//EN" "http://www.w3.org/Graphics/SVG/1.1/DTD/svg11.dtd"><svg t="1668673766975" class="icon" viewBox="0 0 1088 1024" version="1.1" xmlns="http://www.w3.org/2000/svg" p-id="967" xmlns:xlink="http://www.w3.org/1999/xlink" width="212.5" height="200"><path d="M960 480a32 32 0 0 1 32 32v344a8 8 0 0 1-8 8H928a8 8 0 0 1-8-8V720H168v136a8 8 0 0 1-8 8h-56a8 8 0 0 1-8-8V168c0-4.416 3.584-8 8-8H160c4.416 0 8 3.584 8 8V480H960z m-40 72H168v96h752v-96z m-612.032-336a100.032 100.032 0 1 1 0 200 100.032 100.032 0 0 1 0-200z m520 0c55.232 0 100.032 44.8 100.032 100.032V384a32 32 0 0 1-32 32H480A32 32 0 0 1 448 384V248a32 32 0 0 1 32-32h348.032z m-519.936 56a43.968 43.968 0 1 0 0 88 43.968 43.968 0 0 0 0-88z m520 0H504v88h368v-44.032a44.032 44.032 0 0 0-43.264-43.968h-0.704z" p-id="968"></path></svg>