<?xml version="1.0" standalone="no"?><!DOCTYPE svg PUBLIC "-//W3C//DTD SVG 1.1//EN" "http://www.w3.org/Graphics/SVG/1.1/DTD/svg11.dtd"><svg t="1648464707821" class="icon" viewBox="0 0 1024 1024" version="1.1" xmlns="http://www.w3.org/2000/svg" p-id="113277" xmlns:xlink="http://www.w3.org/1999/xlink" width="200" height="200"><defs><style type="text/css">@font-face { font-family: feedback-iconfont; src: url("//at.alicdn.com/t/font_1031158_u69w8yhxdu.woff2?t=1630033759944") format("woff2"), url("//at.alicdn.com/t/font_1031158_u69w8yhxdu.woff?t=1630033759944") format("woff"), url("//at.alicdn.com/t/font_1031158_u69w8yhxdu.ttf?t=1630033759944") format("truetype"); }
</style></defs><path d="M891.941 163.314L679.254 376H850a8 8 0 0 1 8 8v48a8 8 0 0 1-8 8H563.372c-8.836 0-16-7.163-16-16a16 16 0 0 1 4.687-11.314L764.744 200H594a8 8 0 0 1-8-8v-48a8 8 0 0 1 8-8h286.627c8.837 0 16 7.163 16 16a16 16 0 0 1-4.686 11.314z" p-id="113278"></path><path d="M462.392 127.902l-0.581 1.07-0.18 0.337C437.614 174.219 424 225.519 424 280c0 176.731 143.269 320 320 320 53.7 0 104.31-13.227 148.75-36.601l1.328-0.707 1.458-0.79 0.515-0.283a8 8 0 0 1 11.78 8.103l-0.33 2.346-0.314 2.112-0.223 1.43C876.502 766.291 711.267 912 512 912c-220.914 0-400-179.086-400-400 0-200.613 147.684-366.732 340.262-395.57l1.998-0.288a8 8 0 0 1 8.132 11.76zM351.05 230.686l-3.957 2.307C251.516 289.625 188 393.895 188 512c0 178.94 145.06 324 324 324 118.105 0 222.374-63.516 279.004-159.09l2.307-3.961-1.389 0.172a399.153 399.153 0 0 1-45.723 2.873L744 676c-218.705 0-396-177.295-396-396 0-16.13 0.97-32.127 2.879-47.923l0.171-1.391z" p-id="113279"></path></svg>