<?xml version="1.0" standalone="no"?><!DOCTYPE svg PUBLIC "-//W3C//DTD SVG 1.1//EN" "http://www.w3.org/Graphics/SVG/1.1/DTD/svg11.dtd"><svg t="1735203483899" class="icon" viewBox="0 0 1024 1024" version="1.1" xmlns="http://www.w3.org/2000/svg" p-id="2651" xmlns:xlink="http://www.w3.org/1999/xlink" width="200" height="200"><path d="M765.733 97.134a16 16 0 0 1 0 4.175l-34.188 259.829c-1.153 8.76-9.19 14.928-17.95 13.776a16 16 0 0 1-9.227-4.55l-84.082-84.08C512.969 382.505 460 502.11 460 648v304a8 8 0 0 1-8 8h-72a8 8 0 0 1-8-8V648c0-169.342 62.442-311.623 185.982-424.021l-79.255-79.256c-6.248-6.248-6.248-16.379 0-22.627a16 16 0 0 1 9.226-4.55l259.83-34.188c8.76-1.153 16.797 5.015 17.95 13.776z" p-id="2652"></path></svg>