<?xml version="1.0" standalone="no"?><!DOCTYPE svg PUBLIC "-//W3C//DTD SVG 1.1//EN" "http://www.w3.org/Graphics/SVG/1.1/DTD/svg11.dtd"><svg t="1711091935844" class="icon" viewBox="0 0 1024 1024" version="1.1" xmlns="http://www.w3.org/2000/svg" p-id="1580" xmlns:xlink="http://www.w3.org/1999/xlink" width="200" height="200"><path d="M278.08 112c3.52 0 6.656 2.304 7.68 5.632l41.28 134.272a48.832 48.832 0 0 1 1.28 1.28v-0.128l53.632 53.696 53.12-53.12a48 48 0 0 1 67.264-0.512l0.64 0.512 53.056 53.12 53.056-53.12a48 48 0 0 1 67.328-0.512l0.512 0.512 53.12 53.12 53.056-53.12a48 48 0 0 1 67.264-0.512l70.592 70.72a8 8 0 0 1 0 11.2l-33.92 33.92a8 8 0 0 1-11.264 0l-58.752-58.688-53.12 53.12a48 48 0 0 1-67.328 0.576l-53.632-53.632-53.056 53.12a48 48 0 0 1-67.2 0.512l-0.64-0.64-53.056-53.056-53.12 53.12a48 48 0 0 1-51.264 10.816l32.512 105.6 37.952-37.888a48 48 0 0 1 67.264-0.512l0.64 0.512 53.056 53.12 53.056-53.12a48 48 0 0 1 67.328-0.512l0.512 0.512 53.12 53.12 53.056-53.12a48 48 0 0 1 67.264-0.512L920.96 512a8 8 0 0 1 0 11.264l-33.92 33.92a8 8 0 0 1-11.264 0l-58.752-58.688-53.12 53.12a48 48 0 0 1-67.328 0.512l-53.632-53.632-53.056 53.12a48 48 0 0 1-67.2 0.512l-0.64-0.64-53.056-52.992-50.56 50.56 23.168 75.52a48 48 0 0 1 60.8 4.992l53.632 53.632 53.056-53.12a48 48 0 0 1 67.328-0.512l53.568 53.632 53.12-53.12a48 48 0 0 1 67.264-0.512l0.512 0.576 70.08 70.016a8 8 0 0 1 0 11.328l-33.92 33.92a8 8 0 0 1-11.264 0l-58.752-58.688-53.12 53.056a48 48 0 0 1-67.328 0.512l-0.512-0.512-53.12-53.12-53.056 53.12a48 48 0 0 1-67.2 0.512l-0.64-0.512-53.056-53.12-6.4 6.4L505.472 832h398.592c4.416 0 8 3.584 8 8v64a8 8 0 0 1-8 8H120a8 8 0 0 1-8-8V120c0-4.416 3.584-8 8-8h158.08z m-53.12 80H192v640h229.76L224.832 192z" p-id="1581"></path></svg>