<?xml version="1.0" standalone="no"?><!DOCTYPE svg PUBLIC "-//W3C//DTD SVG 1.1//EN" "http://www.w3.org/Graphics/SVG/1.1/DTD/svg11.dtd"><svg t="1711091932763" class="icon" viewBox="0 0 1024 1024" version="1.1" xmlns="http://www.w3.org/2000/svg" p-id="1418" xmlns:xlink="http://www.w3.org/1999/xlink" width="200" height="200"><path d="M776 112a32 32 0 0 1 32 32v465.792l105.152 88.512a8 8 0 0 1 2.816 5.824v201.344a32 32 0 0 1-31.424 32H808v0.512h-72v-90.432l-26.112 13.056a40 40 0 0 1-35.264 0.256l-0.512-0.256L632 839.552l-42.112 21.056a40 40 0 0 1-35.264 0.256l-0.512-0.256L512 839.552l-42.112 21.056a40 40 0 0 1-35.264 0.256l-0.512-0.256L392 839.552l-42.112 21.056a40 40 0 0 1-35.264 0.256l-0.512-0.256L288 847.552v90.432h-72v-0.512h-76.032a32 32 0 0 1-32-32V704.448c0-2.368 1.088-4.608 2.88-6.144L216 609.792V144a32 32 0 0 1 32-32h528z m32 591.936v161.536h36.032v-131.2L808 703.936z m-592 0l-36.032 30.272v131.264H216V704z m520-37.952H288V776l44.032 22.016 42.048-21.12a40 40 0 0 1 35.264-0.192l0.576 0.256 42.048 21.056 42.112-21.12a40 40 0 0 1 35.264-0.192l0.576 0.256 42.048 21.056 42.112-21.12a40 40 0 0 1 35.264-0.192l0.576 0.256 42.048 21.056L736 776V665.984z m0-128H288v64h448v-64zM736 184H288v36.032h51.776l40.96 71.04H288v182.912h448V291.072h-51.712l-40.96-71.04H736V184z m-265.6 36.032l40.96 71.04h-78.4L392 220.032h78.4z m123.008 0l40.96 71.04h-77.952l-40.96-71.04h77.952z" p-id="1419"></path></svg>