<?xml version="1.0" standalone="no"?><!DOCTYPE svg PUBLIC "-//W3C//DTD SVG 1.1//EN" "http://www.w3.org/Graphics/SVG/1.1/DTD/svg11.dtd"><svg t="1702464697019" class="icon" viewBox="0 0 1024 1024" version="1.1" xmlns="http://www.w3.org/2000/svg" p-id="2364" xmlns:xlink="http://www.w3.org/1999/xlink" width="200" height="200"><path d="M200 88c4.416 0 8 3.584 8 8v96h584a32 32 0 0 1 32 32v296a8 8 0 0 1-8 8h-56a8 8 0 0 1-8-8V264H208v576h271.744c4.416 0 8 3.584 8 8v56a8 8 0 0 1-8 8H168a32 32 0 0 1-32-32V96c0-4.416 3.584-8 8-8h56z m639.232 488.704a32 32 0 0 1 32 31.424v80.384l66.944-51.328a15.232 15.232 0 0 1 24.512 11.712v190.976a15.296 15.296 0 0 1-24.192 12.352l-0.32-0.256-66.944-51.328V880a32 32 0 0 1-31.488 32H567.936a32 32 0 0 1-32-31.488V720.256l-0.192-111.808a32 32 0 0 1 31.488-31.424h19.456l108.288-0.32h144.256z m-32 64H599.936V848h207.36V640.704zM312 696a32 32 0 1 1 0 64 32 32 0 0 1 0-64z m104 0a32 32 0 1 1 0 64 32 32 0 0 1 0-64z m256-366.016c4.416 0 8 3.584 8 8V520a8 8 0 0 1-8 8h-48a8 8 0 0 1-8-8V393.984H344V535.04h135.68c4.48 0 8.064 3.584 8.064 8v48a8 8 0 0 1-8 8H288a8 8 0 0 1-8-8V337.984c0-4.416 3.584-8 8-8h384z" p-id="2365"></path></svg>