<?xml version="1.0" standalone="no"?><!DOCTYPE svg PUBLIC "-//W3C//DTD SVG 1.1//EN" "http://www.w3.org/Graphics/SVG/1.1/DTD/svg11.dtd"><svg t="1648459841956" class="icon" viewBox="0 0 1024 1024" version="1.1" xmlns="http://www.w3.org/2000/svg" p-id="105241" xmlns:xlink="http://www.w3.org/1999/xlink" width="200" height="200"><defs><style type="text/css">@font-face { font-family: feedback-iconfont; src: url("//at.alicdn.com/t/font_1031158_u69w8yhxdu.woff2?t=1630033759944") format("woff2"), url("//at.alicdn.com/t/font_1031158_u69w8yhxdu.woff?t=1630033759944") format("woff"), url("//at.alicdn.com/t/font_1031158_u69w8yhxdu.ttf?t=1630033759944") format("truetype"); }
</style></defs><path d="M663.29 48c16.335 0 30.047 12.303 31.812 28.542l14.982 137.807C756.914 224.475 792 266.14 792 316v392c0 49.86-35.087 91.525-81.916 101.65l-14.982 137.808C693.337 963.697 679.625 976 663.29 976H360.71c-16.335 0-30.047-12.303-31.812-28.542l-14.98-137.807C267.087 799.525 232 757.86 232 708V316c0-49.86 35.087-91.525 81.917-101.65l14.98-137.808C330.664 60.303 344.376 48 360.71 48h302.58z m-17.842 764H378.551l10.869 100h245.159l10.869-100z m43.081-528H336c-17.496 0-31.713 14.042-31.996 31.47L304 316v392c0 17.496 14.042 31.713 31.47 32H688c17.496 0 31.713-14.042 31.996-31.47L720 708V316c0-17.496-14.042-31.713-31.47-32zM532 352a8 8 0 0 1 8 8v140.403l82.142 82.141a8 8 0 0 1 0.195 11.112l-0.195 0.202-28.284 28.284a8 8 0 0 1-11.314 0l-93.858-93.858A16 16 0 0 1 484 516.971V360a8 8 0 0 1 8-8h40z m102.579-240H389.42l-10.869 100h266.897l-10.869-100z" p-id="105242"></path></svg>