<?xml version="1.0" standalone="no"?><!DOCTYPE svg PUBLIC "-//W3C//DTD SVG 1.1//EN" "http://www.w3.org/Graphics/SVG/1.1/DTD/svg11.dtd"><svg t="1660979322031" class="icon" viewBox="0 0 1024 1024" version="1.1" xmlns="http://www.w3.org/2000/svg" p-id="1739" xmlns:xlink="http://www.w3.org/1999/xlink" width="200" height="200"><defs><style type="text/css">@font-face { font-family: feedback-iconfont; src: url("//at.alicdn.com/t/font_1031158_u69w8yhxdu.woff2?t=1630033759944") format("woff2"), url("//at.alicdn.com/t/font_1031158_u69w8yhxdu.woff?t=1630033759944") format("woff"), url("//at.alicdn.com/t/font_1031158_u69w8yhxdu.ttf?t=1630033759944") format("truetype"); }
</style></defs><path d="M523.314 99.314l409.372 409.372c6.249 6.249 6.249 16.38 0 22.628A16 16 0 0 1 921.373 536H864v360c0 8.837-7.163 16-16 16H176c-8.837 0-16-7.163-16-16V536h-57.373c-8.836 0-16-7.163-16-16a16 16 0 0 1 4.687-11.314L500.686 99.314c6.249-6.249 16.38-6.249 22.628 0zM512 189.823L232 469.822V840h560V469.823l-280-280zM484 464v320h-64V464h64z m120 136v184h-64V600h64z m120 32v152h-64V632h64z m-360-72v224h-64V560h64z" p-id="1740"></path></svg>