<?xml version="1.0" standalone="no"?><!DOCTYPE svg PUBLIC "-//W3C//DTD SVG 1.1//EN" "http://www.w3.org/Graphics/SVG/1.1/DTD/svg11.dtd"><svg t="1648460703821" class="icon" viewBox="0 0 1024 1024" version="1.1" xmlns="http://www.w3.org/2000/svg" p-id="105893" xmlns:xlink="http://www.w3.org/1999/xlink" width="200" height="200"><defs><style type="text/css">@font-face { font-family: feedback-iconfont; src: url("//at.alicdn.com/t/font_1031158_u69w8yhxdu.woff2?t=1630033759944") format("woff2"), url("//at.alicdn.com/t/font_1031158_u69w8yhxdu.woff?t=1630033759944") format("woff"), url("//at.alicdn.com/t/font_1031158_u69w8yhxdu.ttf?t=1630033759944") format("truetype"); }
</style></defs><path d="M708 64c17.496 0 31.713 14.042 31.996 31.47L740 96v464h156a8.006 8.006 0 0 1 8 7.75V624a8 8 0 0 1-7.75 7.996L896 632H740v296c0 17.496-14.042 31.713-31.47 32H232c-17.496 0-31.713-14.042-32-31.47V96c0-17.496 14.042-31.713 31.47-32H708z m-40 72H272v752h396V632H522.92c-15.801 23.226-44.901 33.433-71.749 25.166-26.848-8.267-45.166-33.075-45.166-61.166 0-28.091 18.318-52.9 45.166-61.166 26.58-8.184 55.366 1.738 71.271 24.473l0.478 0.693H668V136zM470 720c24.3 0 44 19.7 44 44s-19.7 44-44 44-44-19.7-44-44 19.7-44 44-44z m-56-328v48h-48v-48h48z m80 0v48h-48v-48h48z m80 0v48h-48v-48h48z m-160-80v48h-48v-48h48z m80 0v48h-48v-48h48z m80 0v48h-48v-48h48z m-160-80v48h-48v-48h48z m80 0v48h-48v-48h48z m80 0v48h-48v-48h48z" p-id="105894"></path></svg>