<?xml version="1.0" standalone="no"?><!DOCTYPE svg PUBLIC "-//W3C//DTD SVG 1.1//EN" "http://www.w3.org/Graphics/SVG/1.1/DTD/svg11.dtd"><svg t="1648461980136" class="icon" viewBox="0 0 1024 1024" version="1.1" xmlns="http://www.w3.org/2000/svg" p-id="106943" xmlns:xlink="http://www.w3.org/1999/xlink" width="200" height="200"><defs><style type="text/css">@font-face { font-family: feedback-iconfont; src: url("//at.alicdn.com/t/font_1031158_u69w8yhxdu.woff2?t=1630033759944") format("woff2"), url("//at.alicdn.com/t/font_1031158_u69w8yhxdu.woff?t=1630033759944") format("woff"), url("//at.alicdn.com/t/font_1031158_u69w8yhxdu.ttf?t=1630033759944") format("truetype"); }
</style></defs><path d="M928 160c17.673 0 32 14.327 32 32v640c0 17.673-14.327 32-32 32H96c-17.673 0-32-14.327-32-32V192c0-17.673 14.327-32 32-32h832z m-704 72h-88v560h88V232z m664 0H344v560h544V232zM474.5 536.152c17.135 0.183 31.08 5.577 41.836 16.183l0.459 0.458c11.001 10.816 16.594 24.545 16.78 41.186 0 13.078-3.927 24.73-11.78 34.953l-0.424 0.547-65.037 81.539h73.24a4 4 0 0 1 3.995 3.8l0.005 0.2V736a4 4 0 0 1-3.8 3.995l-0.2 0.005h-97.577c-7.544 0-13.66-6.115-13.66-13.66 0-8.65 2.879-17.048 8.172-23.876l0.356-0.453 70.377-88.064c3.051-3.975 5.131-7.673 6.24-11.093 0.74-3.236 1.11-6.287 1.11-9.153 0-7.58-2.358-14.19-7.072-19.83-4.9-5.64-11.834-8.551-20.801-8.736-7.774 0-14.266 2.43-19.477 7.292l-0.353 0.335c-3.842 3.58-6.583 8.194-8.223 13.838-0.047 0.163-0.095 0.336-0.143 0.52l-0.145 0.58-0.148 0.643-0.075 0.345-0.15 0.735a6 6 0 0 1-5.641 4.828l-0.245 0.005h-17.24a6 6 0 0 1-5.958-6.702l0.085-0.685 0.085-0.615c1.957-13.285 7.345-24.532 16.165-33.738 10.631-10.724 23.713-16.179 39.244-16.364z m151.035 1.664a4 4 0 0 1 3.995 3.8l0.005 0.2V736a4 4 0 0 1-3.8 3.995l-0.2 0.005h-20.982a4 4 0 0 1-3.995-3.8l-0.005-0.2V568.463l-22.338 16.402a4 4 0 0 1-6.362-3.024l-0.005-0.2V560.79a4 4 0 0 1 1.465-3.094l0.177-0.137 26.01-18.973a4 4 0 0 1 2.103-0.76l0.254-0.009h23.678z m194.002 0a4 4 0 0 1 3.995 3.8l0.005 0.2v19.319a4 4 0 0 1-3.8 3.995l-0.2 0.005h-51.33V736a4 4 0 0 1-3.8 3.995l-0.2 0.005h-22.785a4 4 0 0 1-3.995-3.8l-0.005-0.2V565.135h-51.33a4 4 0 0 1-3.995-3.8l-0.005-0.2v-19.319a4 4 0 0 1 3.8-3.995l0.2-0.005h133.445z" p-id="106944"></path></svg>