<?xml version="1.0" standalone="no"?><!DOCTYPE svg PUBLIC "-//W3C//DTD SVG 1.1//EN" "http://www.w3.org/Graphics/SVG/1.1/DTD/svg11.dtd"><svg t="1648462769503" class="icon" viewBox="0 0 1024 1024" version="1.1" xmlns="http://www.w3.org/2000/svg" p-id="109872" xmlns:xlink="http://www.w3.org/1999/xlink" width="200" height="200"><defs><style type="text/css">@font-face { font-family: feedback-iconfont; src: url("//at.alicdn.com/t/font_1031158_u69w8yhxdu.woff2?t=1630033759944") format("woff2"), url("//at.alicdn.com/t/font_1031158_u69w8yhxdu.woff?t=1630033759944") format("woff"), url("//at.alicdn.com/t/font_1031158_u69w8yhxdu.ttf?t=1630033759944") format("truetype"); }
</style></defs><path d="M765.287 112.799c16.7 0 30.266 13.4 30.536 30.035l0.004 0.505-0.001 299.66H849c8.284 0.001 15 6.717 15 15.001v261c0 8.284-6.716 15-15 15l-74.554 0.003c-42.548 103.003-143.992 175.493-262.355 175.493-118.364 0-219.808-72.49-262.355-175.493L175 734.001c-8.284-0.001-15-6.717-15-15.001V458c0-8.284 6.716-15 15-15l53.355-0.001v-299.66c0-16.7 13.4-30.266 30.035-30.54h506.897z m-33.38 63.92H292.275L292.275 505 224 505v168h73.296a216.982 216.982 0 0 0 12.203 38.432c11.097 26.19 26.9 49.627 47.14 69.868 20.154 20.242 43.68 36.044 69.87 47.142 27.077 11.452 55.841 17.223 85.582 17.223 29.74 0 58.505-5.77 85.582-17.223 26.19-11.098 49.627-26.9 69.869-47.142 20.241-20.152 36.044-43.679 47.141-69.868a217.029 217.029 0 0 0 11.868-36.919l0.335-1.513H801V505h-69.094V176.72z" p-id="109873"></path><path d="M512.5 734c-30.1 0-54.5-26.266-54.5-58.668 0-29.007 43.682-94.108 52.832-107.426 0.83-1.208 2.506-1.208 3.336 0C523.318 581.224 567 646.325 567 675.332 567 707.734 542.6 734 512.5 734m8.882-222.575c-4.449-5.9-13.315-5.9-17.764 0C479.398 543.54 414 634.353 414 678.623 414 732.956 458.1 777 512.5 777s98.5-44.044 98.5-98.377c0-44.27-65.398-135.083-89.618-167.198" p-id="109874"></path><path d="M354.13 424h315.74c6.7 0 12.13-6.396 12.13-14.286V238.286c0-7.89-5.43-14.286-12.13-14.286H354.13c-6.7 0-12.13 6.396-12.13 14.286v171.428c0 7.89 5.43 14.286 12.13 14.286zM391 274h241v100H391V274z" p-id="109875"></path></svg>