<?xml version="1.0" standalone="no"?><!DOCTYPE svg PUBLIC "-//W3C//DTD SVG 1.1//EN" "http://www.w3.org/Graphics/SVG/1.1/DTD/svg11.dtd"><svg t="1648461380632" class="icon" viewBox="0 0 1024 1024" version="1.1" xmlns="http://www.w3.org/2000/svg" p-id="106548" xmlns:xlink="http://www.w3.org/1999/xlink" width="200" height="200"><defs><style type="text/css">@font-face { font-family: feedback-iconfont; src: url("//at.alicdn.com/t/font_1031158_u69w8yhxdu.woff2?t=1630033759944") format("woff2"), url("//at.alicdn.com/t/font_1031158_u69w8yhxdu.woff?t=1630033759944") format("woff"), url("//at.alicdn.com/t/font_1031158_u69w8yhxdu.ttf?t=1630033759944") format("truetype"); }
</style></defs><path d="M825.956 28.492l18.453 26.401a8 8 0 0 1 1.124 6.82l-1.605 5.475c-15.812 53.143-42.543 83.058-78.566 89.53-27.233 4.893-56.863-4.238-86.987-23.753l-4.239 1.67-1.983 0.787-3.948 1.579-3.943 1.594c-27.446 11.166-44.744 19.667-60.71 29.828-26.86 17.096-39.302 33.896-39.548 52.997L564 222v250.445l118.187-14.182c17.548-2.106 33.48 10.412 35.585 27.96a32 32 0 0 1 0.219 3.047l0.009 0.765v37.707c11.854 5.891 20 18.123 20 32.258 0 19.882-16.118 36-36 36s-36-16.118-36-36c0-14.135 8.146-26.367 20-32.258v-37.707l-122 14.64V826h4.533a8 8 0 0 1 7.98 7.45l10.897 158a8 8 0 0 1-7.43 8.531c-0.184 0.019-0.367 0.019-0.55 0.019H476.57a8 8 0 0 1-7.98-8.55l10.896-158a8 8 0 0 1 7.981-7.45h5.392V356l-0.003-0.539c-0.264-17.583-13.445-33.735-42.105-50.307l-0.873-0.502-1.507-0.857c-22.34-12.608-46.893-22.54-95.131-39.25-31.384 21.173-62.314 31.264-90.65 26.173-36.309-6.524-63.177-36.863-78.94-90.8l-0.633-2.205-0.445-1.608a8 8 0 0 1 1.273-6.86l1.423-1.93 19.808-27.496a4.59 4.59 0 0 1 6.114-1.235l0.271 0.178c13.734 9.296 31.484 18.289 53.92 27.554l2.428 0.997 2.652 1.077 3.316 1.33 2.624 1.038c12.513 4.92 25.847 9.748 45.157 16.423l2.992 1.033 10.24 3.513 23.95 8.167c20.734 7.097 34.03 11.798 46.907 16.675l3.7 1.41 5.013 1.94c22.756 8.884 41.458 17.436 57.373 26.544 19.299 11.045 34.4 22.88 45.345 36.304a103.243 103.243 0 0 1 2.922 3.757V222c0-36.972 21.359-66.149 59.928-90.696 14.789-9.413 32.163-18.242 53.25-27.38l3.413-1.467 3.247-1.38 1.278-0.538c11.733-4.93 23.93-9.718 41.815-16.494l28.833-10.858c24.65-9.31 39.476-15.181 54.277-21.651l2.583-1.135 2.316-1.03 2.282-1.026c15.913-7.204 29.318-14.214 40.607-21.352l1.164-0.742a8 8 0 0 1 10.736 1.923l0.227 0.318zM436 416c8.837 0 16 7.163 16 16v224c0 8.837-7.163 16-16 16H292c-8.837 0-16-7.163-16-16V432c0-8.837 7.163-16 16-16h144z m-32 48h-80v160h80V464zM223.266 215.756l0.168 0.38c11.802 26.375 27.035 39.892 44.815 43.086 13.006 2.338 28.273-0.675 44.817-8.427l-8.047-2.776-6.119-2.129-3.161-1.108c-15.2-5.34-26.71-9.598-37.972-14.077l-2.606-1.042-3.46-1.4-3.164-1.298c-9.021-3.727-17.43-7.447-25.271-11.21z m581.18-133.459l-0.74 0.358a535.398 535.398 0 0 1-16.008 7.42l-2.929 1.294c-15.797 6.936-31.078 13.007-56.352 22.562l-10.849 4.084c15.512 6.843 29.834 9.418 42.135 7.207 17.744-3.188 32.951-16.656 44.743-42.925z" p-id="106549"></path></svg>