<?xml version="1.0" standalone="no"?><!DOCTYPE svg PUBLIC "-//W3C//DTD SVG 1.1//EN" "http://www.w3.org/Graphics/SVG/1.1/DTD/svg11.dtd"><svg t="1725356255513" class="icon" viewBox="0 0 1024 1024" version="1.1" xmlns="http://www.w3.org/2000/svg" p-id="911" xmlns:xlink="http://www.w3.org/1999/xlink" width="200" height="200"><path d="M512 64a448 448 0 1 1 0 896 448 448 0 0 1 0-896z m0 76.032a371.968 371.968 0 1 0 0 743.936 371.968 371.968 0 0 0 0-743.936z m145.728 435.584l53.184 23.296a6.848 6.848 0 0 1 3.52 9.024l-0.064 0.192a224 224 0 0 1-403.776 2.048l-1.088-2.304a6.528 6.528 0 0 1 3.072-8.64l0.192-0.128 52.8-23.04a8 8 0 0 1 10.368 3.712l0.128 0.32a152 152 0 0 0 271.616 0.448l0.768-1.536a7.104 7.104 0 0 1 9.28-3.392zM363.968 360a60.032 60.032 0 1 1 0 120 60.032 60.032 0 0 1 0-120z m296 0a60.032 60.032 0 1 1 0 120 60.032 60.032 0 0 1 0-120z" p-id="912"></path></svg>