<?xml version="1.0" standalone="no"?><!DOCTYPE svg PUBLIC "-//W3C//DTD SVG 1.1//EN" "http://www.w3.org/Graphics/SVG/1.1/DTD/svg11.dtd"><svg t="1648458732924" class="icon" viewBox="0 0 1024 1024" version="1.1" xmlns="http://www.w3.org/2000/svg" p-id="104197" xmlns:xlink="http://www.w3.org/1999/xlink" width="200" height="200"><defs><style type="text/css">@font-face { font-family: feedback-iconfont; src: url("//at.alicdn.com/t/font_1031158_u69w8yhxdu.woff2?t=1630033759944") format("woff2"), url("//at.alicdn.com/t/font_1031158_u69w8yhxdu.woff?t=1630033759944") format("woff"), url("//at.alicdn.com/t/font_1031158_u69w8yhxdu.ttf?t=1630033759944") format("truetype"); }
</style></defs><path d="M952 140H72a8 8 0 0 0-8 8v56a8 8 0 0 0 8 8h40v266a112 112 0 0 0 112 112h576a112 112 0 0 0 112-112V212h40a8 8 0 0 0 8-8v-56a8 8 0 0 0-8-8zM840 478a40 40 0 0 1-40 40H224a40 40 0 0 1-40-40V212h656z" p-id="104198"></path><path d="M340.46 366.09h48q8 0 8 8v96q0 8-8 8h-48q-8 0-8-8v-96q0-8 8-8zM635.54 366.09h48q8 0 8 8v96q0 8-8 8h-48q-8 0-8-8v-96q0-8 8-8zM488 366.09h48q8 0 8 8v96q0 8-8 8h-48q-8 0-8-8v-96q0-8 8-8zM365.4 652.52a8 8 0 0 0-8-8.52h-48.14a8 8 0 0 0-7.95 7.14c-1.47 13.92-7.49 21.44-16.63 32.87-13.09 16.36-31 38.76-31 80s17.92 63.63 31 80c9.14 11.43 15.16 19 16.63 32.87a8 8 0 0 0 7.95 7.14h48.15a8 8 0 0 0 8-8.52c-2.26-35.86-18.59-56.27-30.75-71.47-10.59-13.24-17-21.24-17-40s6.39-26.77 17-40c12.15-15.24 28.48-35.65 30.74-71.51z m202.34 0a8 8 0 0 0-8-8.52H511.6a8 8 0 0 0-8 7.14c-1.48 13.92-7.49 21.44-16.64 32.87-13.08 16.36-31 38.76-31 80s17.93 63.63 31 80c9.15 11.43 15.16 19 16.64 32.87a8 8 0 0 0 8 7.14h48.15a8 8 0 0 0 8-8.52c-2.27-35.86-18.6-56.27-30.75-71.47-10.6-13.24-17-21.24-17-40s6.39-26.77 17-40c12.14-15.24 28.47-35.65 30.74-71.51z m202.33 0a8 8 0 0 0-8-8.52h-48.14a8 8 0 0 0-7.95 7.14c-1.47 13.92-7.49 21.44-16.63 32.87-13.09 16.36-31 38.76-31 80s17.93 63.63 31 80c9.14 11.43 15.16 19 16.63 32.87a8 8 0 0 0 7.95 7.14h48.15a8 8 0 0 0 8-8.52c-2.26-35.86-18.59-56.27-30.75-71.47-10.59-13.24-17-21.24-17-40s6.4-26.77 17-40c12.15-15.24 28.48-35.65 30.74-71.51z" p-id="104199"></path></svg>