<?xml version="1.0" standalone="no"?><!DOCTYPE svg PUBLIC "-//W3C//DTD SVG 1.1//EN" "http://www.w3.org/Graphics/SVG/1.1/DTD/svg11.dtd"><svg t="1648455391478" class="icon" viewBox="0 0 1024 1024" version="1.1" xmlns="http://www.w3.org/2000/svg" p-id="74214" xmlns:xlink="http://www.w3.org/1999/xlink" width="200" height="200"><defs><style type="text/css">@font-face { font-family: feedback-iconfont; src: url("//at.alicdn.com/t/font_1031158_u69w8yhxdu.woff2?t=1630033759944") format("woff2"), url("//at.alicdn.com/t/font_1031158_u69w8yhxdu.woff?t=1630033759944") format("woff"), url("//at.alicdn.com/t/font_1031158_u69w8yhxdu.ttf?t=1630033759944") format("truetype"); }
</style></defs><path d="M960 379.27a8 8 0 0 1-8.3 8c-37.24-1.23-70.08-10.81-100.17-29.18-27.34-16.7-48-37.72-68-58-35.48-36.11-63.5-64.63-122.23-64.63S574.58 263.93 539.11 300c-20 20.33-40.63 41.35-68 58-32.31 19.73-67.79 29.32-108.47 29.32s-76.17-9.59-108.48-29.32c-27.34-16.7-48-37.72-68-58-33.89-34.5-61-62.07-114.54-64.46a8 8 0 0 1-7.69-8v-60a8 8 0 0 1 8.3-8c37.24 1.23 70.08 10.81 100.17 29.19 27.34 16.7 48 37.72 68 58.05 35.48 36.11 63.5 64.63 122.23 64.63s86.75-28.52 122.22-64.63c20-20.33 40.63-41.35 68-58.05 32.31-19.73 67.79-29.32 108.47-29.32s76.18 9.59 108.49 29.32c27.34 16.7 48 37.72 68 58.05 33.89 34.49 61 62.06 114.54 64.46a8 8 0 0 1 7.69 8zM960 617.51a8 8 0 0 1-8.3 8c-37.24-1.23-70.08-10.81-100.17-29.18-27.34-16.7-48-37.72-68-58.05-35.48-36.11-63.5-64.63-122.23-64.63s-86.75 28.52-122.22 64.63c-20 20.33-40.63 41.35-68 58.05-32.31 19.73-67.79 29.32-108.47 29.32s-76.17-9.59-108.48-29.32c-27.34-16.7-48-37.72-68-58.05-33.89-34.5-61-62.07-114.54-64.46a8 8 0 0 1-7.69-8v-60a8 8 0 0 1 8.3-8c37.34 1.18 70.18 10.77 100.27 29.18 27.34 16.69 48 37.72 68 58 35.48 36.1 63.5 64.63 122.23 64.63s86.72-28.51 122.19-64.63c20-20.33 40.63-41.36 68-58 32.31-19.73 67.79-29.32 108.47-29.32s76.14 9.56 108.45 29.32c27.34 16.69 48 37.72 68 58 33.89 34.49 61 62.06 114.54 64.46a8 8 0 0 1 7.69 8zM960 855.75a8 8 0 0 1-8.3 8c-37.24-1.23-70.08-10.81-100.17-29.19-27.34-16.69-48-37.71-68-58-35.48-36.11-63.5-64.64-122.23-64.64s-86.75 28.53-122.22 64.64c-20 20.33-40.63 41.35-68 58-32.31 19.73-67.79 29.32-108.47 29.32s-76.17-9.59-108.48-29.32c-27.34-16.69-48-37.71-68-58-33.89-34.5-61-62.07-114.54-64.47a8 8 0 0 1-7.69-8V644a8 8 0 0 1 8.3-8c37.24 1.23 70.08 10.81 100.17 29.18 27.34 16.7 48 37.72 68 58 35.48 36.11 63.5 64.63 122.23 64.63s86.75-28.52 122.22-64.63c20-20.33 40.63-41.35 68-58 32.31-19.73 67.79-29.32 108.47-29.32s76.17 9.59 108.48 29.32c27.34 16.7 48 37.72 68 58 33.89 34.5 61 62.07 114.54 64.47a8 8 0 0 1 7.69 8z" p-id="74215"></path></svg>