<?xml version="1.0" standalone="no"?><!DOCTYPE svg PUBLIC "-//W3C//DTD SVG 1.1//EN" "http://www.w3.org/Graphics/SVG/1.1/DTD/svg11.dtd"><svg t="1746000586304" class="icon" viewBox="0 0 1024 1024" version="1.1" xmlns="http://www.w3.org/2000/svg" p-id="1140" xmlns:xlink="http://www.w3.org/1999/xlink" width="200" height="200"><path d="M715.733 470c65.465 0.263 126.916 25.958 172.783 72.286 45.884 46.277 71.008 107.905 70.752 173.384l-0.013 1.204c-0.38 38.105-9.66 75.82-26.95 109.462l-0.472 0.911v88.467l-0.002 0.315c-0.168 8.692-7.266 15.685-15.997 15.685h-88.468l-0.859 0.444c-34.05 17.5-72.204 26.793-110.686 26.985h-1.13c-64.336 0-124.999-24.644-170.899-69.383l-1.403-1.379C496.14 842.527 470.399 781.11 470 715.737c-0.126-33.282 6.266-65.537 19.015-95.898 12.275-29.275 30.032-55.678 52.591-78.238 22.596-22.596 48.937-40.305 78.254-52.598C649.87 476.395 681.797 470 714.634 470h1.1zM511.21 62c63.597 0 116.361 46.38 126.313 107.163l-0.056-0.337 0.003-0.01c125.62 49.722 218.754 163.797 238.736 301.568a289.684 289.684 0 0 0-86.74-38.809c-26.386-82.009-86.217-149.014-163.43-184.95C605.136 288.918 561.568 318 511.208 318c-54.122 0-100.399-33.59-119.12-81.061l-0.48-1.24 0.174 0.455C274.263 278.5 189.91 390.288 188.235 522.003l-0.026 3.997c0 17.114 1.396 33.903 4.08 50.257l0.291 1.748 1.54 0.012c69.013 1.12 124.748 56.854 125.867 125.866l0.017 2.117c0 22.123-5.612 42.934-15.494 61.087 40.064 31.899 88.259 54.02 140.973 62.755 12.449 29.108 29.653 56.17 51.185 80.158h-0.459c-93.888 0-179.906-33.695-246.614-89.657l0.215-0.11-0.726 0.367c-16.903 8.435-35.934 13.24-56.072 13.396l-1.008 0.004c-70.692 0-128-57.308-128-128 0-43.325 21.525-81.623 54.465-104.782l0.97-0.676-0.35-1.808c-4.4-22.947-6.757-46.62-6.875-70.822l-0.005-1.912c0-174.258 116.073-321.406 275.121-368.346l-0.073 0.288C401.487 102.764 451.587 62 511.209 62z m205.72 472.011l-1.332-0.011h-0.964c-24.35 0-47.847 4.707-70.006 14.016-21.66 9.082-41.037 22.11-57.767 38.84-16.695 16.695-29.77 36.137-38.83 57.746-9.42 22.43-14.124 46.171-14.03 70.816 0.292 47.908 18.865 92.696 52.427 126.494l1.005 1.004 1.025 1.008c33.944 33.089 78.578 51.22 126.233 51.22h0.812c29.321-0.147 58.43-7.455 84.02-21.097l11.822-6.333h56.489v-56.488l6.364-11.88c13.61-25.531 20.919-54.641 21.07-83.964 0.19-48.512-18.286-93.83-52.216-128.051-33.568-33.906-78.177-52.757-126.122-53.32zM192.004 650c-30.928 0-56 25.072-56 56s25.072 56 56 56 56-25.072 56-56-25.072-56-56-56z m626.264 33c17.673 0 32 14.327 32 32 0 17.673-14.327 32-32 32-17.674 0-32-14.327-32-32 0-17.673 14.326-32 32-32z m-208 0c17.673 0 32 14.327 32 32 0 17.673-14.327 32-32 32-17.674 0-32-14.327-32-32 0-17.673 14.326-32 32-32z m104 0c17.673 0 32 14.327 32 32 0 17.673-14.327 32-32 32-17.674 0-32-14.327-32-32 0-17.673 14.326-32 32-32zM511.209 134c-30.928 0-56 25.072-56 56s25.072 56 56 56 56-25.072 56-56-25.072-56-56-56z" p-id="1141"></path></svg>