<?xml version="1.0" standalone="no"?><!DOCTYPE svg PUBLIC "-//W3C//DTD SVG 1.1//EN" "http://www.w3.org/Graphics/SVG/1.1/DTD/svg11.dtd"><svg t="1677575713574" class="icon" viewBox="0 0 1024 1024" version="1.1" xmlns="http://www.w3.org/2000/svg" p-id="2400" xmlns:xlink="http://www.w3.org/1999/xlink" width="200" height="200"><path d="M360.896 107.776a8 8 0 0 1 1.472 1.472L478.08 260.16a8 8 0 0 1-6.4 12.8h-79.616v621.312c0 3.392-3.456 6.208-7.68 6.272h-56.32c-4.352 0-7.872-2.688-8-6.016V273.024h-79.872a8 8 0 0 1-6.336-12.864l115.84-150.912a8 8 0 0 1 11.2-1.472zM704 752V130.304c0-3.52-3.584-6.336-8-6.336h-56c-4.416 0-8 2.816-8 6.336V752h72z m-29.632 163.712l115.776-150.848a8 8 0 0 0-6.4-12.864H552.256a8 8 0 0 0-6.336 12.864l115.84 150.848a8 8 0 0 0 12.672 0z" p-id="2401"></path></svg>