<?xml version="1.0" standalone="no"?><!DOCTYPE svg PUBLIC "-//W3C//DTD SVG 1.1//EN" "http://www.w3.org/Graphics/SVG/1.1/DTD/svg11.dtd"><svg t="1648662066713" class="icon" viewBox="0 0 1024 1024" version="1.1" xmlns="http://www.w3.org/2000/svg" p-id="23095" xmlns:xlink="http://www.w3.org/1999/xlink" width="200" height="200"><defs><style type="text/css">@font-face { font-family: feedback-iconfont; src: url("//at.alicdn.com/t/font_1031158_u69w8yhxdu.woff2?t=1630033759944") format("woff2"), url("//at.alicdn.com/t/font_1031158_u69w8yhxdu.woff?t=1630033759944") format("woff"), url("//at.alicdn.com/t/font_1031158_u69w8yhxdu.ttf?t=1630033759944") format("truetype"); }
</style></defs><path d="M548.22 231.54v560.92l-208.47-160-19.39-14.86H136.5V406.4h183.86l19.39-14.88 208.47-160m39.86-113.18a31.55 31.55 0 0 0-19.35 6.66L295.92 334.4H95.5a32 32 0 0 0-32 32v291.2a32 32 0 0 0 32 32h200.42L568.73 899a31.55 31.55 0 0 0 19.35 6.67c16.57 0 32.14-13.08 32.14-32.06V150.42c0-19-15.57-32.06-32.14-32.06zM823.07 823.07l-39.61-39.61a8 8 0 0 1-0.1-11.18 376 376 0 0 0 0-520.56 8 8 0 0 1 0.1-11.18l39.61-39.61a8 8 0 0 1 11.43 0.1 447.67 447.67 0 0 1 0 621.94 8 8 0 0 1-11.43 0.1z" p-id="23096"></path><path d="M701.42 701.42L661.8 661.8a8 8 0 0 1-0.23-11.07c72.45-78 72.45-199.43 0-277.46a8 8 0 0 1 0.23-11.07l39.62-39.62a8 8 0 0 1 11.45 0.14 276 276 0 0 1 0 378.56 8 8 0 0 1-11.45 0.14z" p-id="23097"></path></svg>