<?xml version="1.0" standalone="no"?><!DOCTYPE svg PUBLIC "-//W3C//DTD SVG 1.1//EN" "http://www.w3.org/Graphics/SVG/1.1/DTD/svg11.dtd"><svg t="1657273541322" class="icon" viewBox="0 0 1024 1024" version="1.1" xmlns="http://www.w3.org/2000/svg" p-id="22628" xmlns:xlink="http://www.w3.org/1999/xlink" width="200" height="200"><defs><style type="text/css">@font-face { font-family: feedback-iconfont; src: url("//at.alicdn.com/t/font_1031158_u69w8yhxdu.woff2?t=1630033759944") format("woff2"), url("//at.alicdn.com/t/font_1031158_u69w8yhxdu.woff?t=1630033759944") format("woff"), url("//at.alicdn.com/t/font_1031158_u69w8yhxdu.ttf?t=1630033759944") format("truetype"); }
</style></defs><path d="M928.25 159.5h-832a32 32 0 0 0-32 32v640a32 32 0 0 0 32 32h832a32 32 0 0 0 32-32v-640a32 32 0 0 0-32-32z m-392.87 632a8 8 0 0 0 4.62-7.25v-66.2a8 8 0 0 0-8-8h-40a8 8 0 0 0-8 8v66.2a8 8 0 0 0 4.62 7.25H136.25V540h50.21a8 8 0 0 0 8-8v-40a8 8 0 0 0-8-8h-50.21V231.5h752V484h-50.63a8 8 0 0 0-8 8v40a8 8 0 0 0 8 8h50.63v251.5z" p-id="22629"></path><path d="M492 231.75h40q8 0 8 8v66.21q0 8-8 8h-40q-8 0-8-8v-66.21q0-8 8-8zM492 351.32h40q8 0 8 8v66.21q0 8-8 8h-40q-8 0-8-8v-66.21q0-8 8-8zM492 590.47h40q8 0 8 8v66.21q0 8-8 8h-40q-8 0-8-8v-66.21q0-8 8-8zM239.75 484h66.21q8 0 8 8v40q0 8-8 8h-66.21q-8 0-8-8v-40q0-8 8-8zM359.32 484h66.21q8 0 8 8v40q0 8-8 8h-66.21q-8 0-8-8v-40q0-8 8-8zM492 484h40q8 0 8 8v40q0 8-8 8h-40q-8 0-8-8v-40q0-8 8-8zM598.47 484h66.21q8 0 8 8v40q0 8-8 8h-66.21q-8 0-8-8v-40q0-8 8-8zM718.05 484h66.21q8 0 8 8v40q0 8-8 8h-66.21q-8 0-8-8v-40q0-8 8-8z" p-id="22630"></path></svg>