<?xml version="1.0" standalone="no"?><!DOCTYPE svg PUBLIC "-//W3C//DTD SVG 1.1//EN" "http://www.w3.org/Graphics/SVG/1.1/DTD/svg11.dtd"><svg t="1706282507120" class="icon" viewBox="0 0 1024 1024" version="1.1" xmlns="http://www.w3.org/2000/svg" p-id="3007" xmlns:xlink="http://www.w3.org/1999/xlink" width="200" height="200"><path d="M512 64h7.232H512h4.992l3.072 0.064a448 448 0 0 1 439.68 431.68l0.192 7.168v5.952L960 512v7.36V512a456.96 456.96 0 0 1-0.192 12.288v2.56l-0.256 4.8-0.064 2.56-0.256 4.736-0.192 2.688a451.776 451.776 0 0 1-0.32 4.672l-0.192 2.56c-0.32 3.84-0.64 7.68-1.088 11.456l-0.32 3.008-0.512 3.968a448.256 448.256 0 0 1-383.232 388.48l-6.08 0.832-1.984 0.256-2.176 0.256c-3.84 0.448-7.616 0.832-11.456 1.152l-3.008 0.256a451.392 451.392 0 0 1-4.672 0.32l-2.688 0.192-4.736 0.32-2.56 0.128-4.736 0.192-2.624 0.064-4.8 0.128-2.56 0.064-5.056 0.064h-9.28H512l-7.68-0.064h-1.408A448 448 0 0 1 64.32 528.192l-0.32-7.168a456.832 456.832 0 0 1 0-16.384V512a456.96 456.96 0 0 1 0.192-12.224v-2.752l0.576-11.456 0.192-3.264 0.32-4.608 0.192-2.624c0.32-3.84 0.64-7.616 1.088-11.392l0.32-3.008A448.256 448.256 0 0 1 449.6 68.352l6.08-0.832 2.496-0.32 2.752-0.32a449.28 449.28 0 0 1 4.672-0.512l2.496-0.256 4.736-0.448 2.496-0.192 4.672-0.32 2.752-0.192a452.48 452.48 0 0 1 4.672-0.32l2.56-0.128a453.76 453.76 0 0 1 4.736-0.192l2.56-0.064 4.8-0.128 2.56-0.064L512 64z m-1.024 491.776l-242.56 242.56A374.528 374.528 0 0 0 512 888.064h0.64a486.528 486.528 0 0 1 110.656-219.968l-112.32-112.32z m68.928 326.08l4.928-0.896a374.656 374.656 0 0 0 169.728-81.664l-85.888-85.888a422.912 422.912 0 0 0-88.768 168.448z m301.952-301.952l-3.84 1.024A422.976 422.976 0 0 0 713.92 668.16l85.824 85.824a374.528 374.528 0 0 0 82.112-174.08zM136 511.104V512c0 91.648 32.832 175.68 87.296 240.896l242.432-242.368L355.52 400.256a486.592 486.592 0 0 1-216.96 110.336l-2.56 0.512z m662.4-242.752L556.16 510.528l112.32 112.256a486.464 486.464 0 0 1 219.456-110.08V512a374.528 374.528 0 0 0-89.6-243.648zM512 136h-1.664A486.464 486.464 0 0 1 400.64 354.88l110.336 110.4 241.92-241.92A374.464 374.464 0 0 0 512 136zM142.144 443.84l3.648-1.024a423.04 423.04 0 0 0 164.352-87.936l-85.44-85.44a374.592 374.592 0 0 0-82.56 174.336z m300.864-301.504l-3.84 0.704a374.592 374.592 0 0 0-169.152 81.216l85.184 85.248a422.912 422.912 0 0 0 87.744-167.168z" p-id="3008"></path></svg>