<?xml version="1.0" standalone="no"?><!DOCTYPE svg PUBLIC "-//W3C//DTD SVG 1.1//EN" "http://www.w3.org/Graphics/SVG/1.1/DTD/svg11.dtd"><svg t="1677638314310" class="icon" viewBox="0 0 1024 1024" version="1.1" xmlns="http://www.w3.org/2000/svg" p-id="3970" xmlns:xlink="http://www.w3.org/1999/xlink" width="200" height="200"><path d="M340.352 298.368a8 8 0 0 1-2.368-5.696V99.328c0-2.112 0.832-4.16 2.368-5.696l27.328-27.264A8 8 0 0 1 373.312 64h277.376c2.112 0 4.16 0.832 5.632 2.368l27.328 27.264a8 8 0 0 1 2.368 5.696v193.344a8 8 0 0 1-2.368 5.696l-14.592 14.592-15.04 15.04h85.632c4.48 0 8 3.584 8 8v290.752a251.52 251.52 0 0 1-99.904 200.704L567.616 888H784a8 8 0 0 0 8-8v-8c0-4.416 3.584-8 8-8h56c4.416 0 8 3.584 8 8v8c0 44.16-35.84 80-80 80H240c-44.16 0-80-35.84-80-80v-8c0-4.416 3.584-8 8-8h56c4.416 0 8 3.584 8 8v8c0 4.416 3.584 8 8 8h216.384l-80.128-60.544a251.52 251.52 0 0 1-99.904-200.704V336c0-4.416 3.584-8 8-8h85.632zM675.648 400H348.352v226.752c0 56.32 26.432 109.312 71.296 143.232a152.96 152.96 0 0 0 184.704 0 179.584 179.584 0 0 0 71.296-143.232V400z m-138.752 36.032c3.904 0 7.104 3.52 7.104 8V754.24a7.872 7.872 0 0 1-5.76 7.872c-17.28 3.84-35.2 3.84-52.48 0a7.872 7.872 0 0 1-5.76-7.872V443.968c0-4.416 3.2-8 7.104-8z m85.12-208H401.92V264h220.16v-36.032z m0-100.032H401.92v36.032h220.16V128z" p-id="3971"></path></svg>