<?xml version="1.0" standalone="no"?><!DOCTYPE svg PUBLIC "-//W3C//DTD SVG 1.1//EN" "http://www.w3.org/Graphics/SVG/1.1/DTD/svg11.dtd"><svg t="1653873462949" class="icon" viewBox="0 0 1024 1024" version="1.1" xmlns="http://www.w3.org/2000/svg" p-id="1092" xmlns:xlink="http://www.w3.org/1999/xlink" width="200" height="200"><defs><style type="text/css">@font-face { font-family: feedback-iconfont; src: url("//at.alicdn.com/t/font_1031158_u69w8yhxdu.woff2?t=1630033759944") format("woff2"), url("//at.alicdn.com/t/font_1031158_u69w8yhxdu.woff?t=1630033759944") format("woff"), url("//at.alicdn.com/t/font_1031158_u69w8yhxdu.ttf?t=1630033759944") format("truetype"); }
</style></defs><path d="M512 81.92A430.08 430.08 0 0 1 942.08 512l-0.085333 2.048c0 5.632-0.256 13.482667-0.768 23.466667l-1.536 18.176a8.021333 8.021333 0 0 1-8.021334 7.338666h-60.416a8.021333 8.021333 0 0 1-7.936-8.874666l1.706667-15.872 0.170667-2.986667A353.962667 353.962667 0 1 0 512 866.048h1.194667a529.066667 529.066667 0 0 0 56.917333-4.778667l12.458667-2.474666a8.021333 8.021333 0 0 1 9.557333 7.850666v61.098667a8.021333 8.021333 0 0 1-6.826667 7.936l-15.445333 2.474667-4.266667 0.426666c-23.381333 2.304-41.216 3.413333-53.504 3.413334A430.08 430.08 0 0 1 512 82.005333z m-16.213333 405.162667h0.256l179.456 21.162666c6.826667 0.768 9.472 8.874667 4.778666 13.653334l-53.76 53.76 222.037334 221.952a8.021333 8.021333 0 0 1 0 11.349333l-39.594667 39.594667a8.021333 8.021333 0 0 1-11.349333 0L575.658667 626.517333l-53.76 53.76a8.021333 8.021333 0 0 1-13.653334-4.522666l-21.162666-179.712a8.021333 8.021333 0 0 1 8.618666-8.96z" p-id="1093"></path></svg>