<?xml version="1.0" standalone="no"?><!DOCTYPE svg PUBLIC "-//W3C//DTD SVG 1.1//EN" "http://www.w3.org/Graphics/SVG/1.1/DTD/svg11.dtd"><svg t="1648454975324" class="icon" viewBox="0 0 1024 1024" version="1.1" xmlns="http://www.w3.org/2000/svg" p-id="72068" xmlns:xlink="http://www.w3.org/1999/xlink" width="200" height="200"><defs><style type="text/css">@font-face { font-family: feedback-iconfont; src: url("//at.alicdn.com/t/font_1031158_u69w8yhxdu.woff2?t=1630033759944") format("woff2"), url("//at.alicdn.com/t/font_1031158_u69w8yhxdu.woff?t=1630033759944") format("woff"), url("//at.alicdn.com/t/font_1031158_u69w8yhxdu.ttf?t=1630033759944") format("truetype"); }
</style></defs><path d="M930.38 384.81l-266.55-40.34-120.73-241a34.79 34.79 0 0 0-62.21 0l-120.73 241-266.54 40.34C65.3 389.09 54 423.86 74.39 444l191.94 189.28-44 266c-3.71 22.4 14.1 40.54 34.31 40.54a34.67 34.67 0 0 0 16-4L512 811.77l7.92 4.1A200.06 200.06 0 0 0 712 960c110.45 0 200-89.54 200-200a200 200 0 0 0-104.57-175.8L949.6 444c20.4-20.14 9.1-54.91-19.22-59.19z m-83.67 277a8 8 0 0 1 6.35 12.85L705.41 867.94a16 16 0 0 1-25.54-0.15l-79-106a8 8 0 0 1 6.42-12.79h39.92a8 8 0 0 1 6.41 3.22L693 805.1l107.08-140.17a8 8 0 0 1 6.36-3.14zM723.39 560.33c-3.77-0.21-7.57-0.33-11.39-0.33-99.4 0-181.85 72.52-197.36 167.53l-2.64-1.36-35 18.12-166.3 86.18 30.58-184.79 6.43-38.86-28.05-27.65-133.32-131.53 185.2-28 38.94-5.9 17.64-35.21L512 211l83.88 167.47 17.64 35.21 38.94 5.9 185.19 28z" p-id="72069"></path></svg>