<?xml version="1.0" standalone="no"?><!DOCTYPE svg PUBLIC "-//W3C//DTD SVG 1.1//EN" "http://www.w3.org/Graphics/SVG/1.1/DTD/svg11.dtd"><svg t="1735203461973" class="icon" viewBox="0 0 1024 1024" version="1.1" xmlns="http://www.w3.org/2000/svg" p-id="2012" xmlns:xlink="http://www.w3.org/1999/xlink" width="200" height="200"><path d="M169.767 127.915a16 16 0 0 0 0 4.174l34.188 259.83c1.153 8.76 9.19 14.928 17.95 13.775a16 16 0 0 0 9.227-4.55l79.77-79.766c69.757 99.158 122.598 181.39 158.432 246.447C505.7 633.845 523.5 680.772 523.5 703.78v200a8 8 0 0 0 8 8h72a8 8 0 0 0 8-8v-200c0-42.236-21.95-100.099-65.085-178.412-39.12-71.022-96.541-159.975-172.368-267.137l82.726-82.727c6.248-6.249 6.248-16.38 0-22.628a16 16 0 0 0-9.227-4.55L187.717 114.14c-8.76-1.153-16.797 5.015-17.95 13.776z" p-id="2013"></path><path d="M776.62 249.99l58.778 41.593a8 8 0 0 1 1.915 11.14c-15.788 22.375-25.95 36.827-30.485 43.355-66.816 96.174-116.74 175.432-149.666 237.463-30.713 57.863-45.662 99.318-45.662 120.24v12.497h-88V703.78c0-39.3 18.916-91.758 55.934-161.497 34.805-65.571 86.477-147.605 155.123-246.414 4.646-6.688 14.95-21.341 30.908-43.96a8 8 0 0 1 11.156-1.92z" p-id="2014"></path></svg>