<?xml version="1.0" standalone="no"?><!DOCTYPE svg PUBLIC "-//W3C//DTD SVG 1.1//EN" "http://www.w3.org/Graphics/SVG/1.1/DTD/svg11.dtd"><svg t="1678011273156" class="icon" viewBox="0 0 1024 1024" version="1.1" xmlns="http://www.w3.org/2000/svg" p-id="2238" xmlns:xlink="http://www.w3.org/1999/xlink" width="200" height="200"><path d="M360 738.88l-0.384 2.496c-1.664 12.096-2.944 23.808-4.16 35.2l-0.384 4.16-0.448 4.16-0.384 4.096-0.384 4.096-0.896 9.088-0.96 10.432-0.64 6.784-0.448 5.056c-8 82.112-18.432 134.976-104.96 136.512h-3.904c-10.496 0-22.016-0.64-34.816-2.112-138.176-16-128.896-106.24-105.408-230.976l2.432-12.544a8 8 0 0 1 9.344-6.4l238.72 20.864a8 8 0 0 1 7.68 9.088z m382.4 9.792l-1.6 4.48c-42.688 122.432-79.104 208.192-208.448 152.192a307.84 307.84 0 0 1-30.08-14.848l-0.96-0.576-3.328-1.92c-73.088-43.904-57.6-93.952-24.576-167.04l2.048-4.48 1.024-2.304 2.816-6.144 5.76-12.544 2.944-6.4 2.688-5.824 1.792-3.968 1.792-3.968 1.792-3.968 1.792-4.096c2.944-6.656 5.952-13.568 8.896-20.608l1.536-3.84 0.64-1.664a8 8 0 0 1 10.88-4.288L738.24 738.752a8 8 0 0 1 4.16 9.92zM281.28 795.84L164.8 785.6l-0.512 3.456-0.384 2.752-0.192 1.344-0.384 2.752a498.56 498.56 0 0 0-0.96 7.808l-0.384 3.2-0.256 2.56-0.32 2.816-0.192 1.792-0.128 1.728-0.128 1.792-0.192 1.664-0.128 1.728-0.064 1.664-0.128 1.6-0.128 1.6v1.6l-0.128 2.304-0.064 1.536-0.064 1.472v2.176l-0.064 1.472v5.376l0.128 1.664v1.6l0.064 0.64 0.064 1.216 0.064 1.152 0.128 1.216 0.064 1.088 0.128 1.152 0.128 1.088 0.128 1.088 0.128 1.024a67.328 67.328 0 0 0 1.664 8l0.192 0.832a17.472 17.472 0 0 0 6.656 10.368l0.512 0.384 0.256 0.192 0.576 0.32 1.408 0.896 0.64 0.384 0.96 0.512 0.832 0.448 0.832 0.448 0.384 0.192 0.704 0.32 0.768 0.384 0.768 0.32 0.832 0.32 0.384 0.192 0.832 0.32 0.448 0.128 0.832 0.384 0.448 0.128 0.896 0.32 1.152 0.384 1.216 0.384 0.96 0.32 1.024 0.32 1.024 0.32 1.024 0.256 1.088 0.32 1.088 0.256 1.152 0.256 1.152 0.32 0.576 0.128 1.152 0.256 1.28 0.256 1.536 0.32 1.92 0.384 1.92 0.384 1.664 0.256 1.408 0.256 1.408 0.192 1.408 0.256 1.408 0.192 1.536 0.192 1.472 0.192 1.536 0.192 1.536 0.192 1.664 0.192 1.6 0.192 1.6 0.128 1.6 0.192 1.536 0.128 2.24 0.192 1.536 0.128 1.408 0.064 1.472 0.128 2.112 0.128h1.344l1.344 0.128h1.344l1.92 0.064h8.896l1.088-0.064h1.088l2.304-0.192h0.832l0.768-0.128 1.088-0.064 0.64-0.064 0.64-0.064 0.512-0.128h0.576l0.448-0.128h0.192l0.448-0.128a16.576 16.576 0 0 0 10.432-7.68l0.32-0.512 0.128-0.192 0.256-0.448 0.192-0.448 0.128-0.192 0.192-0.448 0.128-0.384 0.192-0.32 0.128-0.384 0.192-0.448 0.128-0.448 0.128-0.384 0.32-1.088a104.32 104.32 0 0 0 0.64-2.304l0.32-1.216 0.256-1.28 0.32-1.28 0.32-1.28 0.32-1.472 0.256-1.216 0.32-1.536 0.32-1.664 0.384-2.048 0.192-1.28 0.256-1.28 0.192-1.408 0.384-2.24 0.256-1.92 0.32-1.92 0.32-2.56 0.32-2.688 0.384-2.816 0.256-2.304 0.448-3.648 0.448-3.84 0.32-3.392 0.64-5.76 0.64-6.272 0.832-9.344 1.024-10.816z m260.032-50.304l-2.56 5.76-2.432 5.312-1.344 3.072-1.536 3.584-1.472 3.392-0.96 2.112-1.088 2.56-1.024 2.56-0.96 2.368-0.704 1.856-0.704 1.728-0.832 2.176-0.512 1.28-0.448 1.28-0.448 1.216-0.704 1.92-0.512 1.6-0.512 1.536-0.384 1.152-0.512 1.408-0.384 1.28-0.192 0.64-0.192 0.64-0.384 1.28-0.32 1.216-0.256 1.024-0.128 0.512-0.192 0.768-0.32 1.216v0.256l-0.128 0.448v0.448l-0.128 0.512v0.768l-0.064 0.448v2.624a23.04 23.04 0 0 0 0 0.32v0.512l0.128 0.576v0.576a14.848 14.848 0 0 0 4.16 8.64l0.96 0.768 0.832 0.64 0.384 0.32 0.704 0.512 0.768 0.576 0.96 0.64 0.192 0.192 1.024 0.64 1.024 0.768 0.832 0.576 0.896 0.576 1.152 0.64 1.216 0.768 1.472 0.896 1.024 0.64 1.024 0.576 1.344 0.768 1.408 0.768 0.512 0.256 1.152 0.64 1.216 0.64 1.152 0.64 1.92 0.896 1.216 0.64 1.28 0.64 1.28 0.64 1.408 0.64 1.344 0.64 1.408 0.64 1.408 0.64 1.472 0.64 1.472 0.704 1.536 0.64 1.472 0.64 1.408 0.64 1.408 0.64 1.408 0.512 1.408 0.576 1.28 0.512 0.704 0.256 1.344 0.512 1.664 0.64 1.6 0.576 1.536 0.576 1.536 0.512 0.64 0.192 1.472 0.512 1.472 0.448 1.472 0.448 1.408 0.384 0.576 0.192 1.088 0.32 1.6 0.384 1.28 0.32 1.28 0.32 1.024 0.256 0.512 0.064 0.96 0.192 0.768 0.192 0.64 0.128 1.28 0.192 1.088 0.192 0.896 0.128a59.648 59.648 0 0 0 1.408 0.128l0.704 0.128h0.832l0.832 0.128h1.024l0.512 0.064h4.224l0.384-0.064h0.64l0.32-0.064a16.512 16.512 0 0 0 9.856-4.608l0.32-0.256 0.64-0.576 0.256-0.256 0.64-0.64 0.32-0.32 0.64-0.64a62.144 62.144 0 0 0 2.56-2.88l0.64-0.64 0.64-0.832 0.64-0.768 0.256-0.448 0.64-0.832 0.384-0.448 0.32-0.448 0.64-0.896 0.64-0.96 0.384-0.448 0.64-1.024 0.32-0.448 0.64-1.024 0.704-1.088 0.384-0.512 1.024-1.6 0.64-1.152 0.704-1.152 0.64-1.152 0.384-0.64 0.896-1.536 0.896-1.536 0.64-1.28 0.768-1.344 0.704-1.344 0.704-1.408 0.704-1.408 0.832-1.344 0.704-1.472 0.768-1.472 0.704-1.536 0.768-1.536 0.32-0.832 0.768-1.6 0.768-1.6 0.704-1.664 0.896-1.984 3.2-7.36 1.088-2.56 3.2-7.872 0.832-1.984-106.112-49.472-7.232 15.744zM804.16 78.656c12.096 4.8 23.552 10.24 34.24 16.32l1.472 0.832 3.648 2.176c109.568 65.792 138.368 204.16-4.416 428.544a686.08 686.08 0 0 0-53.632 104.96l-0.832 1.984-1.472 3.584-1.472 3.648-2.88 7.168-1.408 3.584L776 655.04l-1.344 3.584-1.728 4.48-1.728 4.48-1.664 4.416-1.664 4.48-0.96 2.56a7.808 7.808 0 0 1-10.56 4.416L537.6 581.44a8 8 0 0 1-4.288-9.472l0.512-1.664 0.384-1.408 0.768-2.816c10.432-37.568 17.792-79.36 18.944-126.08 6.784-272.192 109.76-416.768 250.24-361.28zM345.728 104c12.8 0 26.048 1.024 39.488 3.008 149.312 22.272 166.272 198.976 35.968 438.08a517.184 517.184 0 0 0-46.912 119.872l-0.64 2.368-0.512 2.112c-0.896 3.84-4.48 6.4-8.448 6.08L124.48 654.528a8 8 0 0 1-7.168-9.344l0.64-3.456 0.768-4.672 0.768-4.672 0.768-4.736 0.256-1.92 0.64-3.776 0.256-1.92 0.576-3.776 0.256-1.92 0.64-3.776 0.512-3.84c5.824-41.536 9.536-84.992 7.616-129.344-11.456-265.664 82.624-371.136 210.432-373.312l4.288-0.064z m-116.48 156.8l-0.768 1.792a263.552 263.552 0 0 0-6.08 16.704l-0.64 2.112-0.64 2.048-0.64 2.112-0.64 2.176a344.64 344.64 0 0 0-9.6 41.6l-0.512 2.816c-2.56 14.912-4.416 30.848-5.76 47.744l-0.192 3.2c-1.024 14.336-1.6 29.44-1.728 45.184v3.52c0 8.832 0.064 17.92 0.32 27.136l0.128 3.712 0.128 3.776 0.128 3.904 0.064 1.92 0.128 2.048c1.536 36.48 0 72.384-4.352 111.488l-0.32 2.88 120.576 10.56 0.256-0.64c10.24-29.76 23.04-58.56 37.952-86.272l0.896-1.664c57.6-105.792 83.776-197.376 78.4-259.776a161.792 161.792 0 0 0-0.448-4.096l-0.192-1.6c-2.56-21.12-8.768-36.352-17.664-46.464-9.152-10.368-22.848-17.408-43.456-20.48-54.144-8.064-93.312 4.992-120.96 39.68-9.152 11.648-17.344 25.856-24.32 42.88z m500.608-119.104c-12.544 4.224-25.408 14.08-38.016 30.656l-0.512 0.64-0.96 1.344a166.528 166.528 0 0 0-2.432 3.392c-35.456 50.816-58.56 141.888-61.952 260.48l-0.128 5.568c-0.832 30.72-4.16 61.44-9.856 91.648l-0.512 2.88L725.12 589.44l1.152-2.752c15.552-35.392 31.872-66.816 51.008-97.088l2.688-4.224 2.56-4.16c5.568-8.768 10.88-17.664 16.064-26.624l1.792-3.072c3.392-6.016 6.784-12.032 10.048-18.112l1.6-3.008 6.912-13.248 1.408-2.944c13.568-27.072 23.872-52.48 31.168-76.16 1.92-6.144 3.584-12.288 5.12-18.56l0.384-1.6 0.512-2.176 0.512-2.176 0.448-2.112 0.512-2.176c1.088-5.248 2.048-10.56 2.816-15.936l0.256-1.536 0.256-1.984c2.432-18.24 2.432-34.624 0.256-49.28-6.528-43.84-33.92-74.752-84.864-94.848-19.392-7.68-34.752-8.448-47.872-3.968z" p-id="2239"></path></svg>