<?xml version="1.0" standalone="no"?><!DOCTYPE svg PUBLIC "-//W3C//DTD SVG 1.1//EN" "http://www.w3.org/Graphics/SVG/1.1/DTD/svg11.dtd"><svg t="1694413922994" class="icon" viewBox="0 0 1024 1024" version="1.1" xmlns="http://www.w3.org/2000/svg" p-id="1634" xmlns:xlink="http://www.w3.org/1999/xlink" width="200" height="200"><path d="M512 64a448 448 0 0 1 446.848 415.168l0.064 1.472 0.128 2.112 0.128 1.664 0.064 1.792 0.064 1.92 0.128 3.328 0.128 2.816 0.128 3.072v0.768a32.64 32.64 0 0 1-11.712 25.92l-424 424a32.64 32.64 0 0 1-25.856 11.648l-3.84-0.128-3.648-0.128-2.048-0.064-2.56-0.128-1.792-0.128-2.24-0.128-1.536-0.064-1.024-0.064A448 448 0 0 1 512 64z m350.016 425.984a372.032 372.032 0 0 0-371.84 384.32l384.128-384.128a378.816 378.816 0 0 0-12.288-0.192zM512 140.032a371.968 371.968 0 0 0-97.92 730.944l-0.064-8.96a448 448 0 0 1 456.96-447.936 372.16 372.16 0 0 0-352.832-274.048H512z" p-id="1635"></path></svg>