<?xml version="1.0" standalone="no"?><!DOCTYPE svg PUBLIC "-//W3C//DTD SVG 1.1//EN" "http://www.w3.org/Graphics/SVG/1.1/DTD/svg11.dtd"><svg t="1706282460202" class="icon" viewBox="0 0 1024 1024" version="1.1" xmlns="http://www.w3.org/2000/svg" p-id="1459" xmlns:xlink="http://www.w3.org/1999/xlink" width="200" height="200"><path d="M512 64a448.128 448.128 0 0 1 440.128 364.16l0.384 1.92 0.128 0.512a8 8 0 0 1-7.872 9.408H887.68a8 8 0 0 1-7.872-6.4l-0.32-1.408a376 376 0 1 0 1.6 151.808H712v96a32 32 0 0 1-32 32H344a32 32 0 0 1-32-32V344a32 32 0 0 1 32-32h336a32 32 0 0 1 32 32v168h248A448 448 0 1 1 512 64z m128 320H384v256h256V384z" p-id="1460"></path></svg>