<?xml version="1.0" standalone="no"?><!DOCTYPE svg PUBLIC "-//W3C//DTD SVG 1.1//EN" "http://www.w3.org/Graphics/SVG/1.1/DTD/svg11.dtd"><svg t="1661759954313" class="icon" viewBox="0 0 1024 1024" version="1.1" xmlns="http://www.w3.org/2000/svg" p-id="23089" xmlns:xlink="http://www.w3.org/1999/xlink" width="200" height="200"><path d="M512.922 314.135c-108.258 0.02-196.318 88.103-196.318 196.367 0 108.275 88.09 196.366 196.366 196.366 108.277 0 196.366-88.09 196.366-196.366-0.084-52.374-20.548-101.668-57.622-138.744-37.074-37.074-86.364-57.537-138.792-57.624m0.048 464.663c-71.665 0-139.04-27.906-189.714-78.583-50.674-50.673-78.582-118.048-78.582-189.712 0-71.665 27.908-139.04 78.583-189.714 50.674-50.675 118.048-78.584 189.713-78.584h0.057c71.602 0.115 138.918 28.062 189.549 78.693 50.63 50.63 78.576 117.944 78.69 189.548 0 71.721-27.907 139.096-78.582 189.77-50.674 50.676-118.05 78.582-189.714 78.582m23.977-568.003h-47.954a7.992 7.992 0 0 1-7.992-7.992v-83.918a7.992 7.992 0 0 1 7.992-7.992h47.954a7.992 7.992 0 0 1 7.992 7.992v83.918a7.992 7.992 0 0 1-7.992 7.992m-220.77 71.032l-33.909 33.908a7.992 7.992 0 0 1-11.303 0l-59.339-59.34a7.992 7.992 0 0 1 0-11.302l33.907-33.907a7.992 7.992 0 0 1 11.304 0l59.34 59.338a7.992 7.992 0 0 1 0 11.303M210.294 488.162v47.953a7.992 7.992 0 0 1-7.993 7.993h-83.918a7.992 7.992 0 0 1-7.992-7.993v-47.953a7.992 7.992 0 0 1 7.992-7.992h83.918a7.992 7.992 0 0 1 7.993 7.992m71.031 220.77l33.908 33.909a7.992 7.992 0 0 1 0 11.303l-59.339 59.339a7.992 7.992 0 0 1-11.303 0l-33.907-33.907a7.992 7.992 0 0 1 0-11.304l59.338-59.34a7.992 7.992 0 0 1 11.303 0m206.337 105.882h47.953a7.992 7.992 0 0 1 7.992 7.992v83.919a7.992 7.992 0 0 1-7.992 7.992h-47.953a7.992 7.992 0 0 1-7.992-7.992v-83.919a7.992 7.992 0 0 1 7.992-7.992m220.77-71.031l33.908-33.908a7.992 7.992 0 0 1 11.303 0l59.34 59.339a7.992 7.992 0 0 1 0 11.303l-33.908 33.907a7.992 7.992 0 0 1-11.304 0l-59.339-59.338a7.992 7.992 0 0 1 0-11.303m105.882-206.337v-47.953a7.992 7.992 0 0 1 7.992-7.992h83.918a7.992 7.992 0 0 1 7.992 7.992v47.953a7.992 7.992 0 0 1-7.992 7.992h-83.918a7.992 7.992 0 0 1-7.992-7.992m-71.032-220.77l-33.908-33.908a7.992 7.992 0 0 1 0-11.303l59.34-59.34a7.992 7.992 0 0 1 11.302 0l33.907 33.908a7.992 7.992 0 0 1 0 11.304l-59.338 59.339a7.992 7.992 0 0 1-11.303 0" p-id="23090"></path></svg>