<?xml version="1.0" standalone="no"?><!DOCTYPE svg PUBLIC "-//W3C//DTD SVG 1.1//EN" "http://www.w3.org/Graphics/SVG/1.1/DTD/svg11.dtd"><svg t="1677985923019" class="icon" viewBox="0 0 1024 1024" version="1.1" xmlns="http://www.w3.org/2000/svg" p-id="2706" xmlns:xlink="http://www.w3.org/1999/xlink" width="200" height="200"><path d="M581.376 253.12A268.16 268.16 0 0 1 780.096 512H952c4.416 0 8 3.584 8 8v56a8 8 0 0 1-8 8H72a8 8 0 0 1-8-8v-56c0-4.416 3.584-8 8-8h172.032c0-43.072 10.112-83.776 28.16-119.808l0.704-1.408 0.832-1.536a266.88 266.88 0 0 1 75.712-90.368 266.88 266.88 0 0 1 106.624-49.024l0.768-0.192a266.88 266.88 0 0 1 124.48 3.456z m-107.648 70.72l-2.048 0.448-1.152 0.256c-26.88 5.888-52.032 17.536-73.984 34.048l-1.024 0.832c-22.336 16.96-40.64 38.656-53.696 63.552l-0.96 1.92-0.64 1.408A190.848 190.848 0 0 0 320 510.848V512h384.064A192.192 192.192 0 0 0 564.48 327.296l-2.816-0.768a190.848 190.848 0 0 0-87.936-2.752zM811.84 178.304l33.92 33.92a8 8 0 0 1 0 11.328l-67.84 67.84a8 8 0 0 1-11.392 0l-33.92-33.92a8 8 0 0 1 0-11.264l67.84-67.84a8 8 0 0 1 11.392 0z m-593.984-2.368c1.984 0 3.968 0.768 5.44 2.176l0.192 0.192 67.84 67.84a8 8 0 0 1 0 11.392l-33.92 33.92a8 8 0 0 1-11.264 0l-67.84-67.84a8 8 0 0 1 0-11.392l33.92-33.92a8 8 0 0 1 5.632-2.368zM536 64c4.416 0 8 3.584 8 8v96a8 8 0 0 1-8 8h-48a8 8 0 0 1-8-8V72c0-4.416 3.584-8 8-8h48z m-18.304 892.224a7.168 7.168 0 0 1-11.136 0.192L405.632 828.608a7.232 7.232 0 0 1 5.696-11.712h62.72V660.928c0-4.416 3.584-8 7.936-8h60.032c4.416 0 8 3.584 8 8v155.968H612.8c6.016 0 9.408 7.04 5.76 11.712L517.696 956.224z" p-id="2707"></path></svg>