<?xml version="1.0" standalone="no"?><!DOCTYPE svg PUBLIC "-//W3C//DTD SVG 1.1//EN" "http://www.w3.org/Graphics/SVG/1.1/DTD/svg11.dtd"><svg t="1658804810032" class="icon" viewBox="0 0 1024 1024" version="1.1" xmlns="http://www.w3.org/2000/svg" p-id="719" xmlns:xlink="http://www.w3.org/1999/xlink" width="200" height="200"><defs><style type="text/css">@font-face { font-family: feedback-iconfont; src: url("//at.alicdn.com/t/font_1031158_u69w8yhxdu.woff2?t=1630033759944") format("woff2"), url("//at.alicdn.com/t/font_1031158_u69w8yhxdu.woff?t=1630033759944") format("woff"), url("//at.alicdn.com/t/font_1031158_u69w8yhxdu.ttf?t=1630033759944") format("truetype"); }
</style></defs><path d="M272.72 669.60000031h75.55999969a171.24 171.24 0 0 1 164.00000062-220.08 171.12 171.12 0 0 1 163.99999969 220.03999969h75.55999969a244.51999969 244.51999969 0 0 0-239.55999938-293.44000031 244.48000031 244.48000031 0 0 0-239.56000031 293.44000031z m276.19999969-340.08V229.44000031a36.67999969 36.67999969 0 1 0-73.32 0v100.08a296.23999969 296.23999969 0 0 1 73.32 0z m-273.6 118.2A295.2 295.2 0 0 1 325.59999969 394.28L252.99999969 321.63999969a36.64000031 36.64000031 0 1 0-51.87999938 51.88000031l74.16 74.20000031z m473.92000031 0l74.16-74.20000031a36.72 36.72 0 0 0-51.84-51.88000031l-72.64000031 72.64000031c18.91999969 15.6 35.83999969 33.6 50.32000031 53.44000031z m166.36000031 148.51999969h-111a297.67999969 297.67999969 0 0 1-3.08000062 73.32h114.08000062a36.67999969 36.67999969 0 0 0 0-73.32z m-52.40000062 142.27999969H161.36a35.83999969 35.83999969 0 0 0-36.28000031 35.32000031c0 19.48000031 16.2 35.28 36.28000031 35.28h701.92000031a35.80000031 35.80000031 0 0 0 36.27999938-35.28 35.83999969 35.83999969 0 0 0-36.27999938-35.32000031zM218.96 620.64000031c0-8.20000031 0.40000031-16.36000031 1.03999969-24.40000031H108.92a36.64000031 36.64000031 0 1 0 0 73.32h114.07999969a295.72000031 295.72000031 0 0 1-4.08-48.91999969z m303.40000031 64.92a32.56000031 32.56000031 0 0 1-23.88-8.92000031l-60.20000062-57.55999969a29.64 29.64 0 0 1 0-43.2 33 33 0 0 1 45.12 0l38.96000062 37.27999969 38.95999969-37.27999969a32.95999969 32.95999969 0 0 1 45.16000031 0 29.64 29.64 0 0 1 0 43.2l-60.20000062 57.6a32.59999969 32.59999969 0 0 1-23.91999938 8.88z" p-id="720"></path></svg>