<?xml version="1.0" standalone="no"?><!DOCTYPE svg PUBLIC "-//W3C//DTD SVG 1.1//EN" "http://www.w3.org/Graphics/SVG/1.1/DTD/svg11.dtd"><svg t="1677999459979" class="icon" viewBox="0 0 1024 1024" version="1.1" xmlns="http://www.w3.org/2000/svg" p-id="2430" xmlns:xlink="http://www.w3.org/1999/xlink" width="200" height="200"><path d="M827.648 136a32 32 0 0 1 28.992 18.496l97.344 208.64A64 64 0 0 1 960 390.208V808a32 32 0 0 1-32 32H96a32 32 0 0 1-32-32V390.208a64 64 0 0 1 6.016-27.072l97.344-208.64A32 32 0 0 1 196.352 136h631.296zM888 424H136v344h752V424zM659.008 552c4.416 0 8 3.584 8 8v56a8 8 0 0 1-8 8H364.992a8 8 0 0 1-8-8v-56c0-4.416 3.584-8 8-8h294.016z m143.168-344H221.824l-70.912 152h722.176l-70.912-152z" p-id="2431"></path></svg>