<?xml version="1.0" standalone="no"?><!DOCTYPE svg PUBLIC "-//W3C//DTD SVG 1.1//EN" "http://www.w3.org/Graphics/SVG/1.1/DTD/svg11.dtd"><svg t="1705634126661" class="icon" viewBox="0 0 1024 1024" version="1.1" xmlns="http://www.w3.org/2000/svg" p-id="907" xmlns:xlink="http://www.w3.org/1999/xlink" width="200" height="200"><path d="M523.712 93.696L933.056 503.04a16 16 0 0 1-11.328 27.328h-57.344v366.016a16 16 0 0 1-16 16h-672a16 16 0 0 1-16-16V530.368h-57.408a16 16 0 0 1-11.264-27.328L501.056 93.696a16 16 0 0 1 22.656 0z m-11.328 90.496l-280.064 280v376.192h560V464.192l-279.936-280z m-98.56 199.04a8 8 0 0 1 10.24 0.832l2.56 2.496 1.792 1.856 2.432 2.368 1.792 1.792 2.24 2.304 1.152 1.088 3.2 3.328 2.048 2.112 2.944 3.072 1.408 1.472 1.28 1.472 1.344 1.408 1.664 1.856 1.28 1.28 1.152 1.344 0.704 0.896 2.176 2.432 0.64 0.832 0.64 0.768 0.96 1.152 0.896 1.088 0.896 1.088 0.512 0.704 0.576 0.64 0.704 1.088 0.512 0.64 0.448 0.64 0.896 1.216 1.152 1.728-23.68 18.368h51.2l34.048 21.184a461.76 461.76 0 0 1-54.784 93.632c2.368 1.6 4.8 3.52 7.296 5.76l1.28 1.088 1.28 1.152 1.28 1.216 0.384-0.448 0.64-0.96 0.96-1.472 1.024-1.472 1.088-1.6 2.176-3.328 1.152-1.792 1.6-2.496 1.664-2.56 1.664-2.688 1.728-2.88 2.304-3.648 1.92-3.136 1.408-2.368 2.432-4.16 1.536-2.56 0.768-1.024a8 8 0 0 1 11.264-1.024l34.368 28.416v3.2a545.152 545.152 0 0 0-28.992 28.8l-2.304 2.432-2.24 2.432-3.328 3.52 2.624 2.432 12.16 11.52 9.28 8.704a8 8 0 0 1 0.896 10.624l-23.04 30.784a8 8 0 0 1-12.736 0.192l-0.768-0.96-2.944-3.776-2.944-3.648-2.176-2.624-2.752-3.52-2.752-3.328-2.688-3.264-1.92-2.368-2.56-3.072-1.856-2.24-3.008-3.648-1.728-2.048-2.304-2.688-2.24-2.56-1.024-1.28-2.112-2.432-1.536-1.728-1.536-1.728-0.96-1.088-0.96-1.088v138.048a8 8 0 0 1-8 8H416a8 8 0 0 1-8-8V633.792a51.136 51.136 0 0 1-0.512 0.512l-0.64 0.512-0.64 0.512a64.64 64.64 0 0 1-0.32 0.256l-0.64 0.512-0.64 0.512-0.704 0.576-0.768 0.512-0.768 0.576-1.536 1.088-0.832 0.576-0.896 0.576a130.56 130.56 0 0 1-0.384 0.256l-1.856 1.152-0.896 0.64-0.96 0.576-0.96 0.64a185.6 185.6 0 0 1-0.512 0.256l-1.024 0.64-1.088 0.64-2.112 1.216-4.608 2.56-1.28 0.64-1.216 0.64-1.28 0.704-1.28 0.64-1.92 1.088-1.344 0.64-2.112 1.088-2.112 1.088-4.416 2.176-2.24 1.088-2.368 1.152-2.368 1.088-1.6 0.768-2.56 1.152a8 8 0 0 1-10.24-3.264l-17.28-30.272a8 8 0 0 1 1.92-10.24l3.84-3.072 3.84-3.072 1.92-1.472 3.712-3.008 3.648-3.008 3.648-2.944 7.04-5.76 3.456-2.88c47.36-39.488 78.656-71.296 93.888-95.424H354.432a8 8 0 0 1-8-8v-36.032c0-4.416 3.584-8 8-8h54.784l-0.512-0.704-0.64-0.768-0.832-1.152-0.64-0.832-2.048-2.56-0.704-0.896-1.152-1.344-1.6-1.92-1.28-1.536-0.896-0.96-1.28-1.6-1.92-2.176-1.984-2.24-2.048-2.304-2.176-2.432-4.032-4.48-2.432-2.56-0.64-0.832a8 8 0 0 1 1.92-11.2z m201.792-1.408c4.48 0 8 3.584 8 8v125.952l15.488-12.8a8 8 0 0 1 10.496 0.32l6.016 5.504 7.04 6.4 5.568 5.12 6.4 5.952 5.12 4.8 3.904 3.648 3.84 3.584 2.752 2.56 4.48 4.224 3.328 3.264 3.2 3.136 1.6 1.472 3.072 3.008 2.176 2.112 3.52 3.456 1.28 1.28 5.056 5.056 1.152 1.152 1.664 1.728 1.6 1.664 1.536 1.6 1.472 1.536 0.896 0.96 1.344 1.408 1.664 1.792 0.768 0.896-42.176 37.568a8 8 0 0 1-11.2-0.512l-53.056-57.088v191.232a8 8 0 0 1-8 8h-39.552a8 8 0 0 1-8-8V389.76c0-4.48 3.52-8 8-8z" p-id="908"></path></svg>