<?xml version="1.0" standalone="no"?><!DOCTYPE svg PUBLIC "-//W3C//DTD SVG 1.1//EN" "http://www.w3.org/Graphics/SVG/1.1/DTD/svg11.dtd"><svg t="1677575718381" class="icon" viewBox="0 0 1024 1024" version="1.1" xmlns="http://www.w3.org/2000/svg" p-id="2554" xmlns:xlink="http://www.w3.org/1999/xlink" width="200" height="200"><path d="M847.936 592H152a8 8 0 0 0-8 8v60.032c0 4.352 3.584 7.936 8 7.936h605.184l-144.256 183.04A8.064 8.064 0 0 0 619.2 864h72.512a16 16 0 0 0 12.608-6.08l168.768-214.144A32 32 0 0 0 847.936 592zM872 356.032H266.816l144.32-183.04A8.064 8.064 0 0 0 404.864 160h-72.512a16 16 0 0 0-12.608 6.08L150.912 380.224A32 32 0 0 0 176 432h696a8 8 0 0 0 8-8v-60.032a8 8 0 0 0-8-7.936z" p-id="2555"></path></svg>