<?xml version="1.0" standalone="no"?><!DOCTYPE svg PUBLIC "-//W3C//DTD SVG 1.1//EN" "http://www.w3.org/Graphics/SVG/1.1/DTD/svg11.dtd"><svg t="1653393938123" class="icon" viewBox="0 0 1024 1024" version="1.1" xmlns="http://www.w3.org/2000/svg" p-id="22664" xmlns:xlink="http://www.w3.org/1999/xlink" width="200" height="200"><defs><style type="text/css">@font-face { font-family: feedback-iconfont; src: url("//at.alicdn.com/t/font_1031158_u69w8yhxdu.woff2?t=1630033759944") format("woff2"), url("//at.alicdn.com/t/font_1031158_u69w8yhxdu.woff?t=1630033759944") format("woff"), url("//at.alicdn.com/t/font_1031158_u69w8yhxdu.ttf?t=1630033759944") format("truetype"); }
</style></defs><path d="M904 305.86H257.83l70.83-92.3a8 8 0 0 0-6.34-12.87h-80.68a8 8 0 0 0-6.35 3.13l-119.95 156.3A16 16 0 0 0 128 385.86h776a8 8 0 0 0 8-8v-64a8 8 0 0 0-8-8zM896 638.14H120a8 8 0 0 0-8 8v64a8 8 0 0 0 8 8h646.17l-70.83 92.3a8 8 0 0 0 6.34 12.87h80.68a8 8 0 0 0 6.35-3.13l119.95-156.3A16 16 0 0 0 896 638.14z" p-id="22665"></path></svg>