<?xml version="1.0" standalone="no"?><!DOCTYPE svg PUBLIC "-//W3C//DTD SVG 1.1//EN" "http://www.w3.org/Graphics/SVG/1.1/DTD/svg11.dtd"><svg t="1677671939451" class="icon" viewBox="0 0 1024 1024" version="1.1" xmlns="http://www.w3.org/2000/svg" p-id="4656" xmlns:xlink="http://www.w3.org/1999/xlink" width="200" height="200"><path d="M924.032 512c4.48 0 8.064 3.712 8 8.192a419.904 419.904 0 0 1-748.416 253.376l-2.304-2.944-56.384 44.096A7.936 7.936 0 0 1 112 808.64v-0.256l0.704-180.992c0-4.992 4.736-8.768 9.6-7.744h0.32l175.68 43.072c6.4 1.536 8.256 9.792 3.2 13.952l-0.192 0.128-60.16 46.976A344.704 344.704 0 0 0 512.128 856a342.208 342.208 0 0 0 243.264-100.8A342.144 342.144 0 0 0 856 519.808a8 8 0 0 1 7.744-7.808h60.288zM419.776 371.968a81.92 81.92 0 0 1 52.16 18.816l0.896 0.768 0.768 0.64c7.04 6.656 12.8 14.848 17.152 24.512 4.48 9.792 6.72 20.992 6.848 33.408V604.48c0 13.376-2.304 24.96-6.912 34.816-4.48 9.728-10.496 17.792-17.856 24.32A81.536 81.536 0 0 1 392 678.592a73.472 73.472 0 0 1-24.32-14.528l-0.512-0.512-0.512-0.384a69.952 69.952 0 0 1-17.024-22.272l-0.384-0.768-0.384-0.832a80.768 80.768 0 0 1-6.848-33.92V451.008c0-12.8 2.24-24.256 6.848-34.304A73.6 73.6 0 0 1 392 377.024c9.152-3.392 18.432-5.056 27.776-5.056z m149.76 2.496c3.328 0 6.272 1.984 7.488 4.992l0.128 0.32 48.128 134.08V382.464c0-4.352 3.456-7.872 7.68-8h41.92c4.352 0 7.872 3.456 8 7.68v290.88a8 8 0 0 1-7.68 8.064h-39.488a8 8 0 0 1-7.424-5.056l-0.064-0.256-49.024-134.4V673.28a8 8 0 0 1-7.68 7.808H529.6a8 8 0 0 1-8-7.808V382.464c0-4.352 3.456-7.872 7.744-8H569.6z m-149.76 55.168a21.504 21.504 0 0 0-14.592 5.248c-3.52 3.008-5.44 8-5.568 15.616V604.48c0 7.936 1.92 13.056 5.568 16.192a21.504 21.504 0 0 0 14.592 5.184c5.76 0 10.496-1.664 14.592-5.184 3.584-3.072 5.504-8.064 5.568-15.68V451.008c0-7.872-1.92-13.056-5.568-16.128a21.504 21.504 0 0 0-14.592-5.248z m92.032-337.664c133.056 0 251.584 61.888 328.576 158.592l2.304 2.944 56.384-44.16A7.936 7.936 0 0 1 912 215.488v0.192l-0.768 180.928a8 8 0 0 1-9.664 7.744h-0.256l-175.68-43.072a8 8 0 0 1-3.2-13.952l0.192-0.128 60.16-46.976A344.704 344.704 0 0 0 511.872 168a342.208 342.208 0 0 0-243.264 100.8A343.232 343.232 0 0 0 168 504.192a8 8 0 0 1-7.744 7.808h-60.224a8 8 0 0 1-8-8.192A419.904 419.904 0 0 1 511.808 92.032z" p-id="4657"></path></svg>