<?xml version="1.0" standalone="no"?><!DOCTYPE svg PUBLIC "-//W3C//DTD SVG 1.1//EN" "http://www.w3.org/Graphics/SVG/1.1/DTD/svg11.dtd"><svg t="1677671920419" class="icon" viewBox="0 0 1024 1024" version="1.1" xmlns="http://www.w3.org/2000/svg" p-id="4034" xmlns:xlink="http://www.w3.org/1999/xlink" width="200" height="200"><path d="M924.032 512c4.48 0 8.064 3.712 8 8.192a419.904 419.904 0 0 1-748.416 253.376l-2.304-2.944-56.384 44.096A7.936 7.936 0 0 1 112 808.64v-0.256l0.704-180.992c0-4.992 4.736-8.768 9.6-7.744h0.32l175.68 43.072c6.4 1.536 8.256 9.792 3.2 13.952l-0.192 0.128-60.16 46.976A344.704 344.704 0 0 0 512.128 856a342.208 342.208 0 0 0 243.264-100.8A342.144 342.144 0 0 0 856 519.808a8 8 0 0 1 7.744-7.808h60.288zM365.824 387.008a75.136 75.136 0 0 1 48.064 17.28l0.896 0.768 0.128 0.128c6.784 6.208 12.288 13.952 16.448 23.104 4.16 9.088 6.208 19.392 6.336 30.72v136.896c0 12.224-2.112 22.976-6.4 32.128-4.16 8.96-9.664 16.448-16.512 22.4a75.136 75.136 0 0 1-74.56 13.824 67.968 67.968 0 0 1-22.4-13.376l-0.512-0.448-0.448-0.384a64.896 64.896 0 0 1-15.744-20.48l-0.384-0.768-0.384-0.768a74.432 74.432 0 0 1-6.4-31.296V459.904c0-11.712 2.112-22.272 6.4-31.616a68.096 68.096 0 0 1 39.872-36.736c8.384-3.008 16.96-4.544 25.6-4.544z m209.792 2.176c4.352 0 7.872 3.456 8 7.68v39.296a8 8 0 0 1-7.68 7.68h-65.408v58.176h55.68c4.288 0 7.808 3.456 7.936 7.744v39.232a8 8 0 0 1-7.68 7.68h-56v102.272a8 8 0 0 1-7.68 7.68h-41.216a8 8 0 0 1-7.936-7.68v-261.76c0-4.352 3.456-7.872 7.744-8h114.176z m145.92 0c4.352 0 7.936 3.456 8.064 7.68v39.296a8 8 0 0 1-7.744 7.68h-65.344v58.176h55.68c4.352 0 7.872 3.456 8 7.744v39.232a8 8 0 0 1-7.744 7.68h-55.936v102.272a8 8 0 0 1-7.68 7.68h-41.216a8 8 0 0 1-8-7.68v-261.76c0-4.352 3.456-7.872 7.744-8h114.176z m-355.712 54.72a16.192 16.192 0 0 0-11.008 3.904c-2.432 2.112-3.84 5.76-3.904 11.648v136.448c0 6.208 1.408 9.984 3.84 12.16a16.192 16.192 0 0 0 11.072 3.84c4.416 0 7.936-1.28 11.072-3.84 2.432-2.112 3.84-5.76 3.84-11.712l0.064-0.448v-136c0-6.208-1.408-9.984-3.904-12.096a16.192 16.192 0 0 0-11.072-3.904z m145.92-351.872c133.12 0 251.648 61.824 328.64 158.528l2.304 2.944 56.384-44.16A7.936 7.936 0 0 1 912 215.488v0.192l-0.768 180.928a8 8 0 0 1-9.664 7.744h-0.256l-175.68-43.072a8 8 0 0 1-3.2-13.952l0.192-0.128 60.16-46.976A344.704 344.704 0 0 0 511.872 168a342.208 342.208 0 0 0-243.264 100.8A343.232 343.232 0 0 0 168 504.192a8 8 0 0 1-7.744 7.808h-60.224a8 8 0 0 1-8-8.192A419.904 419.904 0 0 1 511.808 92.032z" p-id="4035"></path></svg>