<?xml version="1.0" standalone="no"?><!DOCTYPE svg PUBLIC "-//W3C//DTD SVG 1.1//EN" "http://www.w3.org/Graphics/SVG/1.1/DTD/svg11.dtd"><svg t="1677671790220" class="icon" viewBox="0 0 1024 1024" version="1.1" xmlns="http://www.w3.org/2000/svg" p-id="2642" xmlns:xlink="http://www.w3.org/1999/xlink" width="200" height="200"><path d="M680.128 642.176C844.16 663.04 960 713.216 960 771.968 960 849.344 759.424 912 512 912S64 849.28 64 771.968c0-58.688 115.776-108.992 279.872-129.792v64.576c-48.448 6.464-92.48 15.744-129.536 27.328l-1.088 0.32-3.136 1.024-2.048 0.64-2.56 0.896-2.56 0.832-3.904 1.344-1.984 0.64-1.92 0.768-1.92 0.64-0.96 0.384-1.856 0.64-1.856 0.768-7.168 2.816-1.792 0.64-1.728 0.768-1.664 0.704a401.728 401.728 0 0 0-1.664 0.704l-1.664 0.768-1.664 0.64-1.6 0.768-1.6 0.704-1.536 0.768-2.304 1.088-1.472 0.64-1.472 0.768-0.768 0.384-1.408 0.704-1.472 0.768-0.64 0.32-1.408 0.768-1.344 0.704-1.344 0.768a182.784 182.784 0 0 0-2.56 1.408l-1.28 0.768-0.64 0.32-1.28 0.768-1.152 0.704-1.152 0.768a138.368 138.368 0 0 0-2.304 1.472l-1.088 0.64a111.808 111.808 0 0 0-7.744 5.76l-0.256 0.256 0.256 0.192 3.072 2.368 0.512 0.448 4.16 2.88 1.088 0.704c0.768 0.512 1.472 1.024 2.304 1.472l1.152 0.768 1.216 0.704 1.216 0.704 0.64 0.384 1.28 0.768 2.56 1.408 1.28 0.768 1.408 0.704 1.344 0.768 0.704 0.32 1.472 0.768 1.408 0.704 0.704 0.384 1.536 0.704 1.472 0.704 1.536 0.768 0.768 0.32 1.536 0.768 1.6 0.704 1.6 0.704 1.664 0.704 2.048 0.896 2.56 1.088 2.112 0.896 1.792 0.704 7.168 2.816 1.856 0.704 1.92 0.704 1.856 0.64 1.92 0.768 0.96 0.32 1.92 0.64 3.968 1.408 2.048 0.64 2.048 0.704 2.048 0.64 1.024 0.384 3.136 1.024 1.088 0.32c76.8 24 183.36 38.08 297.664 38.08 114.304 0 220.8-14.08 297.664-38.08l1.088-0.32 3.136-1.024 2.048-0.64 2.56-0.896 2.56-0.832 3.904-1.344 1.984-0.64 1.92-0.768 1.92-0.64 0.96-0.384 1.856-0.64 1.856-0.768 7.168-2.816 1.792-0.64 1.728-0.768 1.664-0.704 1.664-0.704 1.664-0.768 1.664-0.64 1.6-0.768 1.6-0.704 1.536-0.768 2.304-1.088 1.472-0.64 1.536-0.768 0.64-0.384 1.472-0.704 1.472-0.768 0.64-0.32 1.408-0.768 1.344-0.704 1.344-0.768 2.56-1.408 1.28-0.768 0.64-0.32 1.28-0.768 1.152-0.704 1.152-0.768c0.832-0.448 1.536-0.96 2.304-1.472l1.088-0.64a111.808 111.808 0 0 0 7.168-5.312l0.832-0.64-0.256-0.256-3.072-2.368-0.512-0.448-4.16-2.88-1.088-0.704a138.56 138.56 0 0 0-2.304-1.472l-1.152-0.768-1.216-0.704-1.216-0.704-0.64-0.384-1.28-0.768a178.688 178.688 0 0 0-2.56-1.408l-1.28-0.768-1.408-0.704-1.344-0.768-0.704-0.32-1.472-0.768-1.408-0.704-0.704-0.384-1.536-0.704-1.472-0.704-1.536-0.768-0.768-0.32-1.536-0.768-1.6-0.704-1.6-0.704-1.664-0.704-2.048-0.896-2.56-1.088-2.112-0.896-1.792-0.704-7.168-2.816-1.856-0.704-1.92-0.704-1.856-0.64-1.92-0.768-0.96-0.32-1.92-0.64-3.968-1.408-2.048-0.64-2.048-0.704-2.048-0.64-1.024-0.384-3.136-1.024-1.088-0.32a795.648 795.648 0 0 0-129.536-27.328v-64.576z m-156.8-525.44l261.376 261.312a16 16 0 0 1-11.328 27.328H632v331.968a16 16 0 0 1-16 16H408a16 16 0 0 1-16-16V405.376H250.624a16 16 0 0 1-11.328-27.328l261.376-261.376a16 16 0 0 1 22.656 0zM512 207.104L385.792 333.44H464v347.968h96V333.44h78.208L512 207.168z" p-id="2643"></path></svg>