<?xml version="1.0" standalone="no"?><!DOCTYPE svg PUBLIC "-//W3C//DTD SVG 1.1//EN" "http://www.w3.org/Graphics/SVG/1.1/DTD/svg11.dtd"><svg t="1682654661383" class="icon" viewBox="0 0 1024 1024" version="1.1" xmlns="http://www.w3.org/2000/svg" p-id="908" xmlns:xlink="http://www.w3.org/1999/xlink" width="200" height="200"><path d="M680 87c17.673 0 32 14.327 32 32v40h120c17.673 0 32 14.327 32 32v713.984c0 17.673-14.327 32-32 32H192c-17.673 0-32-14.327-32-32V191c0-17.673 14.327-32 32-32h120v-40c0-17.673 14.327-32 32-32h336zM312 231h-80v633.984h560V231h-80v40c0 17.673-14.327 32-32 32H344c-17.673 0-32-14.327-32-32v-40z m300.158 189l0.376 0.003h60.619c7.177 0 11.373 8.171 7.177 14.023L498.143 686.548c-7.067 9.717-21.421 9.717-28.488 0L343.67 511.87c-4.196-5.852 0-14.023 7.177-14.023h60.619c5.631 0 10.931 2.65 14.244 7.287l58.3 80.715L598.4 427.18c3.313-4.527 8.613-7.287 14.134-7.177zM640 159H384v72h256v-72z" p-id="909"></path></svg>