<?xml version="1.0" standalone="no"?><!DOCTYPE svg PUBLIC "-//W3C//DTD SVG 1.1//EN" "http://www.w3.org/Graphics/SVG/1.1/DTD/svg11.dtd"><svg t="1706282492495" class="icon" viewBox="0 0 1024 1024" version="1.1" xmlns="http://www.w3.org/2000/svg" p-id="2541" xmlns:xlink="http://www.w3.org/1999/xlink" width="200" height="200"><path d="M518.4 99.264l19.2 19.456 6.976 6.848 2.048 1.984 1.024 1.024 2.048 1.92 9.6 8.96 2.24 1.92c2.944 2.688 6.016 5.312 9.088 7.936l2.304 1.984c6.272 5.312 12.736 10.624 19.456 15.872l2.56 2.048 6.4 4.928 2.688 2.048 2.624 1.92 2.688 2.048 10.88 8 2.816 1.92c1.408 1.088 2.816 2.048 4.288 3.072l2.816 1.984 7.232 4.992 2.944 2.048 2.944 1.92 3.008 2.048 3.008 2.048 1.472 0.96 3.072 2.048 3.072 1.984 3.072 1.984 4.672 3.008a730.292 730.292 0 0 0 48.32 28.288l3.2 1.728 13.184 6.848 3.392 1.728 8.512 4.224 3.456 1.664 8.768 4.224 3.52 1.664 12.608 5.824 3.648 1.664 13.056 5.76 3.776 1.664c3.2 1.28 6.336 2.688 9.536 4.032l3.84 1.6 3.904 1.664 3.904 1.6 3.968 1.6 3.968 1.6 8 3.2 4.032 1.536 6.144 2.368a866.226 866.226 0 0 0 43.392-26.112l4.48-2.944 0.256-0.128a8 8 0 0 1 11.008 2.24l30.912 46.72a8 8 0 0 1-2.048 10.88l-0.256 0.256-5.888 3.776-4.736 3.072-1.856 1.152c-29.44 18.56-59.008 35.008-88.64 49.408V840h80c4.416 0 8 3.584 8 8v56a8 8 0 0 1-8 8H120a8 8 0 0 1-8-8v-56c0-4.416 3.584-8 8-8h80V389.248a994.56 994.56 0 0 1-86.976-47.104l-3.84-2.368-8.256-5.12-1.408-0.896a8 8 0 0 1-2.688-10.816l0.128-0.192 30.08-47.296a8 8 0 0 1 11.008-2.496l4.352 2.688 3.392 2.112a910.854 910.854 0 0 0 35.136 20.608c65.728-22.784 122.88-49.28 171.52-79.36l12.544-7.872 3.52-2.24 5.248-3.392 3.456-2.304 3.456-2.24 10.112-6.848 3.328-2.24a781.44 781.44 0 0 0 91.968-72.96l1.28-1.152 19.84-18.688a8 8 0 0 1 11.2 0.192zM752 788.992h-76.032V840H752v-51.008z m-404.032 0H272V840h76.032v-51.008zM272 419.712v184.32h132.032c4.416 0 8 3.52 8 7.936V840h200V611.968c0-4.288 3.392-7.808 7.68-7.936H752V421.76c-78.08 28.864-156.8 43.392-236.032 43.392-81.024 0-162.368-15.168-243.968-45.44z m480 248.32h-76.032v56.96H752v-56.96z m-404.032 0H272v56.96h76.032v-56.96zM511.872 193.6l-0.64-0.64-0.128 0.192c-34.432 29.44-74.048 58.048-118.848 85.888l-1.92 1.152c-36.224 22.464-76.416 42.88-120.64 61.376C352.832 376 434.88 393.152 515.968 393.152c78.464 0 156.736-16 234.944-48.256l-4.352-1.92-4.288-1.92a912.192 912.192 0 0 1-116.48-62.208 882.304 882.304 0 0 1-113.92-85.248z" p-id="2542"></path></svg>