<?xml version="1.0" standalone="no"?><!DOCTYPE svg PUBLIC "-//W3C//DTD SVG 1.1//EN" "http://www.w3.org/Graphics/SVG/1.1/DTD/svg11.dtd"><svg t="1648460718741" class="icon" viewBox="0 0 1024 1024" version="1.1" xmlns="http://www.w3.org/2000/svg" p-id="106023" xmlns:xlink="http://www.w3.org/1999/xlink" width="200" height="200"><defs><style type="text/css">@font-face { font-family: feedback-iconfont; src: url("//at.alicdn.com/t/font_1031158_u69w8yhxdu.woff2?t=1630033759944") format("woff2"), url("//at.alicdn.com/t/font_1031158_u69w8yhxdu.woff?t=1630033759944") format("woff"), url("//at.alicdn.com/t/font_1031158_u69w8yhxdu.ttf?t=1630033759944") format("truetype"); }
</style></defs><path d="M920 695.75a40 40 0 1 0 40 40 40 40 0 0 0-40-40zM920 535.75a40 40 0 1 0 40 40 40 40 0 0 0-40-40zM920 855.75a40 40 0 1 0 40 40 40 40 0 0 0-40-40zM240.7 88.25a106.45 106.45 0 0 0-106.44 106.44V618a176.71 176.71 0 1 0 212.89 0V194.69A106.45 106.45 0 0 0 240.7 88.25z m0 779.5a108.76 108.76 0 0 1-97-157.89 109.84 109.84 0 0 1 31.53-37.61l27-20.41V194.69a38.45 38.45 0 0 1 76.89 0v457.15l27 20.41a109.87 109.87 0 0 1 31.54 37.61 108.73 108.73 0 0 1-97 157.89z" p-id="106024"></path><path d="M240.7 719.05a40 40 0 1 0 40 40 40 40 0 0 0-40-40zM649.1 490.26l64.07 143.44 35.27 79a109 109 0 0 1 9.35 54.63 112 112 0 0 1-17.13 50.08c-20 31.38-52.58 49.73-89.44 50.35h-4.23c-36.87-0.62-69.48-19-89.45-50.35a112.24 112.24 0 0 1-17.13-50.08 109 109 0 0 1 9.35-54.63l35.28-79 64.06-143.44m0-120.28a31.59 31.59 0 0 0-29.22 18.95L523 606l-35.28 79c-51.9 116 31 248.58 158.13 250.72h6.51c127.12-2.14 210-134.7 158.17-250.78l-35.27-79-96.94-217A31.58 31.58 0 0 0 649.1 370z" p-id="106025"></path></svg>