<?xml version="1.0" standalone="no"?><!DOCTYPE svg PUBLIC "-//W3C//DTD SVG 1.1//EN" "http://www.w3.org/Graphics/SVG/1.1/DTD/svg11.dtd"><svg t="1655107926500" class="icon" viewBox="0 0 1024 1024" version="1.1" xmlns="http://www.w3.org/2000/svg" p-id="38515" xmlns:xlink="http://www.w3.org/1999/xlink" width="200" height="200"><defs><style type="text/css">@font-face { font-family: feedback-iconfont; src: url("//at.alicdn.com/t/font_1031158_u69w8yhxdu.woff2?t=1630033759944") format("woff2"), url("//at.alicdn.com/t/font_1031158_u69w8yhxdu.woff?t=1630033759944") format("woff"), url("//at.alicdn.com/t/font_1031158_u69w8yhxdu.ttf?t=1630033759944") format("truetype"); }
</style></defs><path d="M336 688a16 16 0 0 1 16 16v208a16 16 0 0 1-16 16H128a16 16 0 0 1-16-16V704a16 16 0 0 1 16-16h208z m304 0a16 16 0 0 1 16 16v208a16 16 0 0 1-16 16H432a16 16 0 0 1-16-16V704a16 16 0 0 1 16-16H640z m304 0A16 16 0 0 1 960 704v208a16 16 0 0 1-16 16H736a16 16 0 0 1-16-16V704a16 16 0 0 1 16-16h208z m-656 64H176v112H288v-112z m304 0H480v112h112v-112z m304 0h-112v112H896v-112z m-256-376a16 16 0 0 1 16 16v208a16 16 0 0 1-16 16H432a16 16 0 0 1-16-16v-208a16 16 0 0 1 16-16H640z m-304 0a16 16 0 0 1 16 16v208a16 16 0 0 1-16 16H128a16 16 0 0 1-16-16v-208a16 16 0 0 1 16-16h208z m256 64H480v112h112v-112z m-304 0H176v112H288v-112zM332.992 64a16 16 0 0 1 16 16V288a16 16 0 0 1-16 16h-208a16 16 0 0 1-16-16V80a16 16 0 0 1 16-16h208z m-48 64h-112v112h112V128z" p-id="38516"></path></svg>