<?xml version="1.0" standalone="no"?><!DOCTYPE svg PUBLIC "-//W3C//DTD SVG 1.1//EN" "http://www.w3.org/Graphics/SVG/1.1/DTD/svg11.dtd"><svg t="1703827367525" class="icon" viewBox="0 0 1024 1024" version="1.1" xmlns="http://www.w3.org/2000/svg" p-id="1546" xmlns:xlink="http://www.w3.org/1999/xlink" width="200" height="200"><path d="M280 736c4.416 0 8 3.584 8 8v48h448v-48c0-4.416 3.584-8 8-8h48V288h-48a8 8 0 0 1-8-8v-48H288v48a8 8 0 0 1-8 8h-48v448h48z m-48 56h-64v64h64v-64z m624 0h-64v64h64v-64zM551.104 345.024c4.096 0 7.68 2.56 8.896 6.464l90.624 283.328a9.664 9.664 0 0 1-0.64 7.04 9.6 9.6 0 0 1-5.504 4.672 8.64 8.64 0 0 1-2.752 0.384H580.48a9.344 9.344 0 0 1-8.96-6.784l-17.28-61.504h-89.088l-17.536 61.568a9.408 9.408 0 0 1-8.96 6.784h-56.448a9.344 9.344 0 0 1-9.28-9.28c0-1.024 0.192-1.984 0.512-2.88l91.264-283.328a9.344 9.344 0 0 1 8.96-6.464h77.376zM513.28 409.6h-6.272L474.24 526.528h71.168l-32-116.928zM232.064 168h-64v64h64v-64z m624 0h-64v64h64v-64zM168 288h-48a8 8 0 0 1-8-8V120c0-4.416 3.584-8 8-8h160c4.416 0 8 3.584 8 8v48h448v-48c0-4.416 3.584-8 8-8h160c4.416 0 8 3.584 8 8v160a8 8 0 0 1-8 8h-48v448h48c4.416 0 8 3.584 8 8v160a8 8 0 0 1-8 8H744a8 8 0 0 1-8-8v-48H288v48a8 8 0 0 1-8 8H120a8 8 0 0 1-8-8V744c0-4.416 3.584-8 8-8h48V288z" p-id="1547"></path></svg>