<?xml version="1.0" standalone="no"?><!DOCTYPE svg PUBLIC "-//W3C//DTD SVG 1.1//EN" "http://www.w3.org/Graphics/SVG/1.1/DTD/svg11.dtd"><svg t="1703827495295" class="icon" viewBox="0 0 1024 1024" version="1.1" xmlns="http://www.w3.org/2000/svg" p-id="2934" xmlns:xlink="http://www.w3.org/1999/xlink" width="200" height="200"><path d="M650.624 449.792L560 166.528a9.216 9.216 0 0 0-8.96-6.528h-77.248a9.344 9.344 0 0 0-8.96 6.528l-91.264 283.264a9.28 9.28 0 0 0-0.512 2.88c0 5.12 4.224 9.344 9.28 9.344h56.448a9.408 9.408 0 0 0 8.96-6.848L465.28 393.6h88.96l17.28 61.44a9.344 9.344 0 0 0 9.024 6.848h61.248c0.96 0 1.92-0.064 2.752-0.384a9.6 9.6 0 0 0 5.504-4.608 9.664 9.664 0 0 0 0.64-7.04zM507.072 224.64h6.336l32.064 116.928h-71.168l32.768-116.928zM184 856.064v-320a8 8 0 0 0-8-8h-56a8 8 0 0 0-8 8v320c0 4.416 3.584 8 8 8h56a8 8 0 0 0 8-8z m145.984-132.032v-55.936a8 8 0 0 0-8-8.064h-56a8 8 0 0 0-8 8.064v55.936c0 4.48 3.648 8.064 8 8.064h56a8 8 0 0 0 8-8.064z m291.008 0v-55.936a8 8 0 0 0-8-8.064h-56a8 8 0 0 0-8 8.064v55.936c0 4.48 3.584 8.064 8 8.064h56a8 8 0 0 0 8-8.064z m145.024 0v-55.936a8 8 0 0 0-8-8.064h-56a8 8 0 0 0-8 8.064v55.936c0 4.48 3.584 8.064 8 8.064h56a8 8 0 0 0 8-8.064z m-291.008 0v-55.936a8 8 0 0 0-8-8.064h-56a8 8 0 0 0-8 8.064v55.936c0 4.48 3.584 8.064 8 8.064h56a8 8 0 0 0 8-8.064zM912 856.064v-320a8 8 0 0 0-8-8h-56a8 8 0 0 0-8 8v320c0 4.416 3.584 8 8 8h56a8 8 0 0 0 8-8z" p-id="2935"></path></svg>