<?xml version="1.0" standalone="no"?><!DOCTYPE svg PUBLIC "-//W3C//DTD SVG 1.1//EN" "http://www.w3.org/Graphics/SVG/1.1/DTD/svg11.dtd"><svg t="1703827483925" class="icon" viewBox="0 0 1024 1024" version="1.1" xmlns="http://www.w3.org/2000/svg" p-id="2626" xmlns:xlink="http://www.w3.org/1999/xlink" width="200" height="200"><path d="M862.592 650.816l-90.56-283.328a9.216 9.216 0 0 0-8.96-6.464h-77.376a9.344 9.344 0 0 0-8.896 6.464L585.472 650.88a9.28 9.28 0 0 0-0.448 2.88c0 5.12 4.16 9.28 9.28 9.28h56.384a9.408 9.408 0 0 0 8.96-6.784l17.536-61.568h88.96l17.344 61.44a9.344 9.344 0 0 0 8.96 6.848h61.248c1.024 0 1.92-0.128 2.816-0.384a9.6 9.6 0 0 0 5.504-4.608 9.664 9.664 0 0 0 0.64-7.104z m-176.32-108.288L719.104 425.6h6.272l32.128 116.928h-71.232zM168 840h320c4.416 0 8 3.584 8 8v56a8 8 0 0 1-8 8H168a8 8 0 0 1-8-8v-56c0-4.416 3.584-8 8-8z m132.032-145.984h56c4.352 0 8 3.584 8 8v56a8 8 0 0 1-8 8h-56a8 8 0 0 1-8-8v-56c0-4.416 3.584-8 8-8z m0-291.008h56c4.352 0 8 3.584 8 8v56a8 8 0 0 1-8 8h-56a8 8 0 0 1-8-8v-56c0-4.416 3.584-8 8-8z m0-145.024h56c4.352 0 8 3.648 8 8v56a8 8 0 0 1-8 8h-56a8 8 0 0 1-8-8v-56c0-4.352 3.584-8 8-8z m0 291.008h56c4.352 0 8 3.584 8 8v56a8 8 0 0 1-8 8h-56a8 8 0 0 1-8-8v-56c0-4.416 3.584-8 8-8zM167.936 112h320c4.416 0 8 3.584 8 8v56a8 8 0 0 1-8 8h-320a8 8 0 0 1-7.936-8v-56c0-4.416 3.584-8 8-8z" p-id="2627"></path></svg>