<?xml version="1.0" standalone="no"?><!DOCTYPE svg PUBLIC "-//W3C//DTD SVG 1.1//EN" "http://www.w3.org/Graphics/SVG/1.1/DTD/svg11.dtd"><svg t="1648459799364" class="icon" viewBox="0 0 1024 1024" version="1.1" xmlns="http://www.w3.org/2000/svg" p-id="104979" xmlns:xlink="http://www.w3.org/1999/xlink" width="200" height="200"><defs><style type="text/css">@font-face { font-family: feedback-iconfont; src: url("//at.alicdn.com/t/font_1031158_u69w8yhxdu.woff2?t=1630033759944") format("woff2"), url("//at.alicdn.com/t/font_1031158_u69w8yhxdu.woff?t=1630033759944") format("woff"), url("//at.alicdn.com/t/font_1031158_u69w8yhxdu.ttf?t=1630033759944") format("truetype"); }
</style></defs><path d="M287.21 160.25a48.05 48.05 0 0 1 48 48v405.11L363.8 635a128.61 128.61 0 0 1 36.89 44A127.23 127.23 0 1 1 160 736.54 125.74 125.74 0 0 1 173.73 679a128.61 128.61 0 0 1 36.89-44l28.59-21.61V208.25a48.05 48.05 0 0 1 48-48m0-72a120 120 0 0 0-120 120v369.28A198.88 198.88 0 0 0 88 736.54c0 110 89.19 199.21 199.21 199.21s199.21-89.19 199.21-199.21a198.88 198.88 0 0 0-79.21-159V208.25a120 120 0 0 0-120-120z" p-id="104980"></path><path d="M287.21 736.54m-48 0a48 48 0 1 0 96 0 48 48 0 1 0-96 0Z" p-id="104981"></path><path d="M736.33 422.08l76.48 171.24 39.77 89a127.43 127.43 0 0 1 10.93 63.9 131.23 131.23 0 0 1-20 58.56A128.92 128.92 0 0 1 799.85 847a124 124 0 0 1-61.06 16.75h-4.91A124.07 124.07 0 0 1 672.81 847a128.89 128.89 0 0 1-43.63-42.16 131.11 131.11 0 0 1-20-58.56 127.42 127.42 0 0 1 10.92-63.9l39.77-89 76.48-171.24m0-130.09A31.59 31.59 0 0 0 707.13 311l-113 253-39.77 89c-58.46 130.87 35 280.3 178.32 282.72h7.34c143.3-2.43 236.76-151.86 178.3-282.72l-39.77-89-113-253a31.58 31.58 0 0 0-29.22-19z" p-id="104982"></path></svg>