<?xml version="1.0" standalone="no"?><!DOCTYPE svg PUBLIC "-//W3C//DTD SVG 1.1//EN" "http://www.w3.org/Graphics/SVG/1.1/DTD/svg11.dtd"><svg t="1702464704077" class="icon" viewBox="0 0 1024 1024" version="1.1" xmlns="http://www.w3.org/2000/svg" p-id="2674" xmlns:xlink="http://www.w3.org/1999/xlink" width="200" height="200"><path d="M339.968 149.824a104 104 0 1 1 36.864 192.96L251.776 550.272l0.576 0.896 501.12-116.48c4.48-26.496 19.072-51.072 42.176-67.456l8.32-5.376a104 104 0 1 1 45.376 193.856L774.336 707.52a104 104 0 1 1-71.744-35.392L777.6 520.256a103.808 103.808 0 0 1-6.016-7.616L270.528 629.12a103.872 103.872 0 0 1-103.04 86.784 104 104 0 1 1 15.744-206.848L308.16 301.44a104.128 104.128 0 0 1 31.808-151.68zM693.76 736l-6.08 0.832a39.936 39.936 0 0 0-17.408 8.512l0.64-0.512a39.744 39.744 0 0 0-4.544 4.288l3.84-3.776a39.68 39.68 0 0 0-4.352 4.352l0.512-0.576a40 40 0 1 0 68.992 33.728l-0.64 3.328a40 40 0 0 0 1.088-6.72l-0.448 3.392a40.064 40.064 0 0 0 0.64-6.272l-0.192 2.88a40.064 40.064 0 0 0 0.128-6.016v3.136a40 40 0 0 0-0.448-6.912l0.448 3.776a40 40 0 0 0-0.896-6.208l0.448 2.432a39.936 39.936 0 0 0-1.344-5.76l0.896 3.328a39.936 39.936 0 0 0-4.736-11.84l-0.384-0.576a39.936 39.936 0 0 0-30.08-18.688l-6.08-0.128z m-528-164.032l-6.08 0.832a39.936 39.936 0 0 0 8.128 79.104 40 40 0 0 0 37.248-55.04l-2.816-5.504-0.384-0.64a40 40 0 0 0-36.16-18.752z m688.192-160l-2.88 0.256a40 40 0 0 0 4.672 79.68 40 40 0 0 0 35.008-20.224l0.192-0.384 2.432-5.12a40 40 0 0 0-0.32-29.376l-2.752-5.44a40.64 40.64 0 0 0-30.528-19.264l-5.76-0.128zM425.92 218.752a40 40 0 1 0-34.112 61.12 40 40 0 0 0 31.488-15.104l2.816-4.16v-0.128l0.64-0.832 2.56-5.568a40 40 0 0 0-3.008-34.816l-0.384-0.576z" p-id="2675"></path></svg>