<?xml version="1.0" standalone="no"?><!DOCTYPE svg PUBLIC "-//W3C//DTD SVG 1.1//EN" "http://www.w3.org/Graphics/SVG/1.1/DTD/svg11.dtd"><svg t="1679309426243" class="icon" viewBox="0 0 1024 1024" version="1.1" xmlns="http://www.w3.org/2000/svg" p-id="2940" xmlns:xlink="http://www.w3.org/1999/xlink" width="200" height="200"><path d="M238.08 737.92a8.832 8.832 0 0 1 0.384 0.448l0.832 0.96 0.576 0.576c23.808 26.24 35.84 52.544 36.096 78.848v0.896a44.032 44.032 0 0 1-87.936 0.704v-1.6c0.256-26.048 12.032-52.096 35.456-78.144l1.152-1.28 0.96-1.024a8.768 8.768 0 0 1 12.416-0.384z m367.936 0.064a8.768 8.768 0 0 1 0.448 0.448l1.664 1.792 1.088 1.28 1.344 1.472 0.64 0.64 0.832 1.024c21.056 24.704 31.744 49.408 32 74.112v0.896a44.032 44.032 0 0 1-88 0.704v-1.6c0.192-24.576 10.752-49.152 31.616-73.728l0.896-1.024 0.448-0.576 1.088-1.28 1.28-1.28 1.408-1.6 0.768-0.832a8.768 8.768 0 0 1 12.48-0.448z m-184 0a8.768 8.768 0 0 1 0.448 0.448l1.664 1.792 1.088 1.28 1.344 1.472 0.64 0.64 0.832 1.024c21.056 24.704 31.744 49.408 32 74.112v0.896a44.032 44.032 0 0 1-88 0.704v-1.6c0.192-24.576 10.752-49.152 31.616-73.728l0.896-1.024 0.448-0.576 1.088-1.28 1.28-1.28 1.408-1.6 0.768-0.832a8.768 8.768 0 0 1 12.48-0.448z m391.04-123.008h1.536A96 96 0 1 1 751.04 784.32l-0.576-0.448a6.784 6.784 0 0 1-0.384-9.984l29.44-29.44a8 8 0 0 1 10.496-0.768l0.448 0.32 0.384 0.32 0.192 0.128a40 40 0 1 0 22.592-73.472h-169.6a8 8 0 0 1-8.064-8v-40c0-4.416 3.584-8 8.064-8h168.96zM480.512 410.432c1.856 1.92 2.56 4.608 2.048 7.232L464 507.008h81.024a8 8 0 0 1 5.504 13.76l-182.72 174.4a8 8 0 0 1-13.248-7.872L384 579.008h-68.352a8 8 0 0 1-5.568-13.76l159.168-154.944a8 8 0 0 1 11.328 0.128zM502.016 128a160 160 0 0 1 159.232 144.128 153.472 153.472 0 0 1 111.808 250.88h102.912a27.968 27.968 0 1 0-14.272-52.032l-0.32 0.256a8 8 0 0 1-10.112-0.96l-28.672-28.736a8 8 0 0 1 0.512-11.776l0.576-0.448 0.512-0.448 0.256-0.192a84.032 84.032 0 1 1 52.928 150.336H579.072a8 8 0 0 1-5.568-13.76l52.224-49.792a16 16 0 0 1 11.008-4.48h17.792a85.504 85.504 0 0 0 5.12-170.88h-1.344l-58.944-2.56-5.76-58.752a92.032 92.032 0 0 0-166.784-43.84l-0.512 0.704-34.816 50.24-53.632-29.312a54.016 54.016 0 0 0-79.68 43.328l-0.064 0.832-3.328 57.536-57.28 6.144a73.536 73.536 0 0 0 6.784 146.56h73.024a8 8 0 0 1 5.632 13.76l-51.072 49.728a16 16 0 0 1-11.2 4.48h-15.168a141.504 141.504 0 0 1-15.296-282.112 121.984 121.984 0 0 1 180.224-99.968A159.808 159.808 0 0 1 502.016 128z" p-id="2941"></path></svg>