<?xml version="1.0" standalone="no"?><!DOCTYPE svg PUBLIC "-//W3C//DTD SVG 1.1//EN" "http://www.w3.org/Graphics/SVG/1.1/DTD/svg11.dtd"><svg t="1679041036965" class="icon" viewBox="0 0 1024 1024" version="1.1" xmlns="http://www.w3.org/2000/svg" p-id="1478" xmlns:xlink="http://www.w3.org/1999/xlink" width="200" height="200"><path d="M512 64a448 448 0 1 1 0 896 448 448 0 0 1 0-896z m0 76.032a371.968 371.968 0 1 0 0 743.936 371.968 371.968 0 0 0 0-743.936zM548.032 264v233.088l111.744 111.808a8 8 0 0 1 0.192 11.072l-0.192 0.256-39.552 39.552a8 8 0 0 1-11.328 0L480.64 531.584a16 16 0 0 1-4.736-11.328V264c0-4.416 3.584-8 8-8h56c4.48 0 8.064 3.584 8.064 8z" p-id="1479"></path></svg>