<?xml version="1.0" standalone="no"?><!DOCTYPE svg PUBLIC "-//W3C//DTD SVG 1.1//EN" "http://www.w3.org/Graphics/SVG/1.1/DTD/svg11.dtd"><svg t="1690963716136" class="icon" viewBox="0 0 1024 1024" version="1.1" xmlns="http://www.w3.org/2000/svg" p-id="804" xmlns:xlink="http://www.w3.org/1999/xlink" width="200" height="200"><path d="M512 64a448 448 0 1 1 0 896 448 448 0 0 1 0-896zM281.216 677.568l-76.48 44.16c19.264 28.352 42.88 54.4 70.4 77.12a370.688 370.688 0 0 0 208.832 84.096v-88.32a283.776 283.776 0 0 1-202.752-117.056z m461.568 0a283.776 283.776 0 0 1-202.816 117.12v88.256A370.944 370.944 0 0 0 819.2 721.728z m-258.816-117.12l-153.984 88.96a227.584 227.584 0 0 0 154.048 88.896l-0.064-177.856z m56 0V738.24a227.52 227.52 0 0 0 154.048-88.832l-154.048-88.96zM176.704 350.784a372.288 372.288 0 0 0 0 322.432l76.48-44.096A283.008 283.008 0 0 1 228.032 512c0-41.728 8.96-81.408 25.152-117.12z m670.528 0l-76.416 44.096c16.192 35.712 25.152 75.392 25.152 117.12 0 41.728-8.96 81.408-25.152 117.12l76.416 44.096 7.424-16.448a371.456 371.456 0 0 0-7.424-305.92z m-125.248 72.32L568 511.936l154.112 88.96c9.984-23.68 16-49.024 17.472-75.008l0.448-13.888c0-31.36-6.4-61.44-18.048-88.896z m-419.904 0l-0.704 1.664a227.776 227.776 0 0 0 0.64 176L455.936 512 302.08 423.104z m181.952-137.408a228.352 228.352 0 0 0-153.984 88.896l153.92 88.896z m55.936 0v177.792l153.984-88.896A227.648 227.648 0 0 0 568.64 291.2l-12.16-2.752a229.76 229.76 0 0 0-16.512-2.624z m-55.936-144.64A371.584 371.584 0 0 0 203.52 304.064l1.152-1.792 76.48 44.16a283.776 283.776 0 0 1 202.816-117.12z m55.936 0v88.32a283.776 283.776 0 0 1 202.816 117.056l76.416-44.16A370.624 370.624 0 0 0 689.152 184.96a370.816 370.816 0 0 0-149.12-43.904z" p-id="805"></path></svg>