<?xml version="1.0" standalone="no"?><!DOCTYPE svg PUBLIC "-//W3C//DTD SVG 1.1//EN" "http://www.w3.org/Graphics/SVG/1.1/DTD/svg11.dtd"><svg t="1705634140036" class="icon" viewBox="0 0 1024 1024" version="1.1" xmlns="http://www.w3.org/2000/svg" p-id="1525" xmlns:xlink="http://www.w3.org/1999/xlink" width="200" height="200"><path d="M510.528 66.944H512a375.04 375.04 0 0 1 262.72 106.432c33.92 32.96 61.056 72.32 79.872 115.712 19.456 44.8 29.44 93.184 29.44 142.016 0 70.72-16.896 140.864-50.304 208.64-26.752 54.4-64 107.712-111.04 158.08a891.712 891.712 0 0 1-188.352 152.96 43.904 43.904 0 0 1-44.8 0A891.904 891.904 0 0 1 301.12 797.76c-47.04-50.432-84.352-103.552-111.04-158.08-33.216-67.776-50.112-138.112-50.112-208.64a355.2 355.2 0 0 1 29.44-142.08 363.584 363.584 0 0 1 79.872-115.712 372.48 372.48 0 0 1 118.208-77.824 376.96 376.96 0 0 1 143.04-28.48zM512 139.008a302.336 302.336 0 0 0-212.416 85.824 286.656 286.656 0 0 0-87.552 206.272c0 241.344 234.048 407.232 299.968 449.088 65.92-41.856 299.968-207.808 299.968-449.088a286.08 286.08 0 0 0-87.552-206.208A302.08 302.08 0 0 0 512 139.008z m22.912 119.04c4.48 0 8.064 3.52 8.064 7.936v233.088L654.784 610.88a8 8 0 0 1 0.192 11.072l-0.192 0.256-39.552 39.552a8 8 0 0 1-11.328 0L475.648 533.568a16 16 0 0 1-4.736-11.328V265.984c0-4.416 3.584-8 8-8h56z" p-id="1526"></path></svg>