<?xml version="1.0" standalone="no"?><!DOCTYPE svg PUBLIC "-//W3C//DTD SVG 1.1//EN" "http://www.w3.org/Graphics/SVG/1.1/DTD/svg11.dtd"><svg t="1648477305529" class="icon" viewBox="0 0 1024 1024" version="1.1" xmlns="http://www.w3.org/2000/svg" p-id="138218" xmlns:xlink="http://www.w3.org/1999/xlink" width="200" height="200"><defs><style type="text/css">@font-face { font-family: feedback-iconfont; src: url("//at.alicdn.com/t/font_1031158_u69w8yhxdu.woff2?t=1630033759944") format("woff2"), url("//at.alicdn.com/t/font_1031158_u69w8yhxdu.woff?t=1630033759944") format("woff"), url("//at.alicdn.com/t/font_1031158_u69w8yhxdu.ttf?t=1630033759944") format("truetype"); }
</style></defs><path d="M160 136m8 0l688 0q8 0 8 8l0 80q0 8-8 8l-688 0q-8 0-8-8l0-80q0-8 8-8Z" p-id="138219"></path><path d="M526.46 279.13a18.22 18.22 0 0 0-28.92 0L233.75 622.85a18.23 18.23 0 0 0 14.46 29.33H430v217.59A18.23 18.23 0 0 0 448.2 888h127.6a18.23 18.23 0 0 0 18.2-18.23V652.18h181.79a18.23 18.23 0 0 0 14.46-29.33z" p-id="138220"></path></svg>