<?xml version="1.0" standalone="no"?><!DOCTYPE svg PUBLIC "-//W3C//DTD SVG 1.1//EN" "http://www.w3.org/Graphics/SVG/1.1/DTD/svg11.dtd"><svg t="1698217612029" class="icon" viewBox="0 0 1024 1024" version="1.1" xmlns="http://www.w3.org/2000/svg" p-id="1467" xmlns:xlink="http://www.w3.org/1999/xlink" width="200" height="200"><path d="M333 160c60.302 0 117.558 8.113 162.172 23.06 25.247 8.459 46.807 19.15 64.052 32.81 11.295 8.947 20.858 19.248 28.219 31.299 9.164 15.004 14.387 31.987 14.553 49.947L602 298v66h255c57.438 0 104 46.562 104 104v292c0 57.438-46.562 104-104 104H333c-60.302 0-117.558-8.113-162.172-23.06-25.247-8.459-46.807-19.15-64.052-32.81-11.295-8.947-20.858-19.248-28.219-31.299C69.243 761.581 64 744.286 64 726V298c0-18.286 5.243-35.581 14.557-50.831 7.36-12.051 16.924-22.352 28.219-31.299 17.245-13.66 38.805-24.351 64.052-32.81C215.442 168.113 272.698 160 333 160zM136 398.586V726c0 36.45 88.2 66 197 66h524c17.496 0 31.713-14.042 31.996-31.47L889 760V468c0-17.673-14.327-32-32-32H333c-60.302 0-117.558-8.113-162.172-23.06-12.545-4.203-24.18-8.958-34.828-14.354zM551.339 630a8 8 0 0 1 8.024 7.948l0.638 97.88a8 8 0 0 1-7.698 8.046l-0.277 0.006-39.365 0.12a8 8 0 0 1-8.024-7.948l-0.638-97.88a8 8 0 0 1 7.698-8.046l0.277-0.006 39.365-0.12z m0-146a8 8 0 0 1 8.024 7.948l0.638 97.88a8 8 0 0 1-7.698 8.046l-0.277 0.006-39.365 0.12a8 8 0 0 1-8.024-7.948l-0.638-97.88a8 8 0 0 1 7.698-8.046l0.277-0.006 39.365-0.12zM333 232c-108.8 0-197 29.55-197 66 0 36.086 86.445 65.408 193.742 65.991L333 364h197v-66l-0.026-1.091C528.234 260.96 440.712 232 333 232z m0.5 42c50.534 0 91.5 10.745 91.5 24s-40.966 24-91.5 24-91.5-10.745-91.5-24 40.966-24 91.5-24z" p-id="1468"></path></svg>