<?xml version="1.0" standalone="no"?><!DOCTYPE svg PUBLIC "-//W3C//DTD SVG 1.1//EN" "http://www.w3.org/Graphics/SVG/1.1/DTD/svg11.dtd"><svg t="1677637742122" class="icon" viewBox="0 0 1024 1024" version="1.1" xmlns="http://www.w3.org/2000/svg" p-id="2728" xmlns:xlink="http://www.w3.org/1999/xlink" width="200" height="200"><path d="M358.016 87.936c46.72 0 90.368 20.032 123.008 56.512 31.552 35.328 48.96 82.048 48.96 131.52v472c0 64 44.864 116.032 100.032 116.032 55.104 0 99.968-52.032 99.968-116.032V384c0-4.416 3.584-8 8-8h56c4.48 0 8 3.584 8 8v364.032c0 49.536-17.408 96.192-48.96 131.52-32.64 36.48-76.288 56.512-123.008 56.512s-90.432-20.096-123.008-56.512a196.416 196.416 0 0 1-49.024-131.52V275.968c0-64-44.8-116.032-99.968-116.032-55.168 0-100.032 52.032-100.032 116.032v336.768a139.968 139.968 0 1 1-72 0V275.968c0-49.536 17.408-96.192 49.024-131.52 32.64-36.48 76.288-56.512 123.008-56.512zM222.016 680a68.032 68.032 0 1 0 0 136 68.032 68.032 0 0 0 0-136z m472-403.968c5.312 0 8 2.688 8 8v56c0 5.312-2.688 8-8 8h-96c-5.376 0-8-2.688-8-8v-56c0-5.312 2.624-8 8-8h96z m99.968-139.968c5.376 0 8 2.624 8 8v96c0 5.312-2.624 8-8 8h-56c-5.312 0-8-2.688-8-8v-96c0-5.376 2.688-8 8-8h56z m44.032 139.968h96c5.312 0 8 2.688 8 8v56c0 5.312-2.688 8-8 8h-96c-5.376 0-8-2.688-8-8v-56c0-5.312 2.624-8 8-8z" p-id="2729"></path></svg>