<?xml version="1.0" standalone="no"?><!DOCTYPE svg PUBLIC "-//W3C//DTD SVG 1.1//EN" "http://www.w3.org/Graphics/SVG/1.1/DTD/svg11.dtd"><svg t="1702464687187" class="icon" viewBox="0 0 1024 1024" version="1.1" xmlns="http://www.w3.org/2000/svg" p-id="1900" xmlns:xlink="http://www.w3.org/1999/xlink" width="200" height="200"><path d="M487.744 81.152c60.928 0 118.528 11.392 162.368 31.936 23.04 10.752 42.048 23.936 56 39.424 16.384 18.112 25.6 39.296 25.6 62.016 0 21.504-8.32 41.664-23.104 59.136a153.6 153.6 0 0 1-39.488 32.32v52.8a8 8 0 0 1-7.04 7.936h-0.192l-2.56 0.256a172.288 172.288 0 0 1-38.4 87.68l227.2 2.112A106.56 106.56 0 0 1 953.6 563.328c0 57.856-46.464 104.896-104.064 105.792H695.68v267.008a8 8 0 0 1-8 8h-48a8 8 0 0 1-8-8V613.12c0-4.416 3.584-8 8-8h208a41.856 41.856 0 0 0 41.856-41.792 42.56 42.56 0 0 0-41.408-42.56h-0.704l-534.08-4.992a67.2 67.2 0 0 0-60.928 35.392l-0.32 0.64-0.768 1.472L132.16 738.176h265.6c17.152 0 27.712-9.28 27.968-22.592v-0.448c0-13.44-10.432-22.784-27.52-23.04h-149.76a8 8 0 0 1-6.976-11.904l54.016-94.976a8 8 0 0 1 6.912-4.032l55.296-0.192a8 8 0 0 1 7.04 11.968l-20.032 35.2h52.992c50.56 0 91.2 35.456 91.968 85.44v1.536c0 50.304-40.064 86.272-90.432 87.04H343.68v133.952a8 8 0 0 1-8 8h-48a8 8 0 0 1-8-8V802.176H132.032a64 64 0 0 1-57.472-92.16l0.448-0.96 0.704-1.408 120.192-186.432 0.64-1.088a131.072 131.072 0 0 1 115.968-68.288h1.472l38.592 0.32c-19.2-23.936-32.128-53.12-36.352-85.056l-2.56-0.192a8 8 0 0 1-7.232-7.68V305.92a153.6 153.6 0 0 1-39.488-32.32 90.88 90.88 0 0 1-23.104-59.136c0-22.72 9.216-43.904 25.6-62.08 13.952-15.36 33.024-28.608 56-39.36 43.84-20.48 101.376-31.936 162.304-31.936z m-104.32 294.592l0.32 1.152a109.12 109.12 0 0 0 207.616 1.344l0.448-1.28 0.256-0.96-1.28 0.128a832.252 832.252 0 0 1-95.744 6.08h-5.632a875.65 875.65 0 0 1-102.656-6.016l-3.392-0.512z m105.92-87.68c-37.248 0-75.136 1.28-113.536 3.968l-3.968 0.32-1.408 0.064v17.024a808.779 808.779 0 0 0 118.912 8.768c39.232 0 77.824-2.88 115.776-8.576v-17.28l-2.56-0.192A1545.6 1545.6 0 0 0 497.28 288h-7.872z m-1.6-134.912c-50.88 0-98.048 9.344-131.776 25.088a168.448 168.448 0 0 0-4.928 2.432l-1.216 0.64-1.472 0.768c-11.136 5.952-19.84 12.352-25.472 18.688-5.12 5.632-7.04 10.112-7.04 13.76 0 2.56 0.96 5.696 3.52 9.344l0.256 0.384 0.192 0.256 15.552-1.408a1717.12 1717.12 0 0 1 153.984-7.04c50.432 0 100.928 2.304 151.296 7.04l3.904 0.384 11.2 1.088 0.192-0.32a17.92 17.92 0 0 0 3.84-9.216v-0.512c0-3.648-1.984-8.128-7.104-13.76a93.312 93.312 0 0 0-24.704-18.304l-0.768-0.384-1.472-0.768a166.4 166.4 0 0 0-6.144-3.072c-33.728-15.744-80.96-25.088-131.84-25.088z" p-id="1901"></path></svg>