<?xml version="1.0" standalone="no"?><!DOCTYPE svg PUBLIC "-//W3C//DTD SVG 1.1//EN" "http://www.w3.org/Graphics/SVG/1.1/DTD/svg11.dtd"><svg t="1735203426284" class="icon" viewBox="0 0 1024 1024" version="1.1" xmlns="http://www.w3.org/2000/svg" p-id="1690" xmlns:xlink="http://www.w3.org/1999/xlink" width="200" height="200"><path d="M364.09 415.643a16 16 0 0 1-3.306 9.741c-5.38 7.01-15.424 8.332-22.434 2.952L130.448 268.784a16 16 0 0 1-2.951-2.952c-5.38-7.01-4.059-17.054 2.951-22.434L338.35 83.846a16 16 0 0 1 9.74-3.307c8.837 0 16 7.163 16 16v115.96L736 212.5c72.902 0 132 59.098 132 132V952a8 8 0 0 1-8 8h-72a8 8 0 0 1-8-8V344.5c0-24.3-19.7-44-44-44H364.09v115.143z" p-id="1691"></path></svg>