<?xml version="1.0" standalone="no"?><!DOCTYPE svg PUBLIC "-//W3C//DTD SVG 1.1//EN" "http://www.w3.org/Graphics/SVG/1.1/DTD/svg11.dtd"><svg t="1735203489524" class="icon" viewBox="0 0 1024 1024" version="1.1" xmlns="http://www.w3.org/2000/svg" p-id="2970" xmlns:xlink="http://www.w3.org/1999/xlink" width="200" height="200"><path d="M548 62.92c156.849 0 284 127.152 284 284V952a8 8 0 0 1-8 8h-72a8 8 0 0 1-8-8V346.92c0-108.247-87.752-196-196-196s-196 87.753-196 196v275.897l115.552 0.001a16 16 0 0 1 9.403 3.055l0.338 0.252c7.01 5.38 8.332 15.424 2.952 22.434L320.693 856.461a16 16 0 0 1-2.952 2.952c-7.01 5.38-17.054 4.058-22.434-2.952L135.755 648.559a16 16 0 0 1-3.307-9.74c0-8.837 7.163-16 16-16L264 622.816V346.92c0-156.848 127.151-284 284-284z" p-id="2971"></path></svg>