<?xml version="1.0" standalone="no"?><!DOCTYPE svg PUBLIC "-//W3C//DTD SVG 1.1//EN" "http://www.w3.org/Graphics/SVG/1.1/DTD/svg11.dtd"><svg t="1735203473868" class="icon" viewBox="0 0 1024 1024" version="1.1" xmlns="http://www.w3.org/2000/svg" p-id="2173" xmlns:xlink="http://www.w3.org/1999/xlink" width="200" height="200"><path d="M659.91 415.643a16 16 0 0 0 3.306 9.741c5.38 7.01 15.424 8.332 22.434 2.952l207.902-159.552a16 16 0 0 0 2.951-2.952c5.38-7.01 4.059-17.054-2.951-22.434L685.65 83.846a16 16 0 0 0-9.74-3.307c-8.837 0-16 7.163-16 16v115.96L288 212.5c-72.902 0-132 59.098-132 132V952a8 8 0 0 0 8 8h72a8 8 0 0 0 8-8V344.5c0-24.3 19.7-44 44-44h371.91v115.143z" p-id="2174"></path></svg>