<?xml version="1.0" standalone="no"?><!DOCTYPE svg PUBLIC "-//W3C//DTD SVG 1.1//EN" "http://www.w3.org/Graphics/SVG/1.1/DTD/svg11.dtd"><svg t="1677989433900" class="icon" viewBox="0 0 1024 1024" version="1.1" xmlns="http://www.w3.org/2000/svg" p-id="8901" xmlns:xlink="http://www.w3.org/1999/xlink" width="200" height="200"><path d="M929.856 411.2a8.448 8.448 0 0 1 0.384 0.64l1.152 2.368 0.128 0.32c18.752 39.68 28.48 82.048 28.48 125.44 0 162.752-136.512 300.16-325.44 342.592l8.256 46.784a5.632 5.632 0 0 1-8.192 6.016l-119.296-62.08a5.632 5.632 0 0 1-1.536-8.832l90.88-99.136a5.632 5.632 0 0 1 9.728 2.816l7.68 43.456c71.936-16.704 135.616-49.6 182.912-94.016 53.696-50.368 83.008-112.512 83.008-177.536 0-31.168-6.656-61.568-19.648-90.496l-0.512-1.216-0.832-1.728-0.768-1.6-0.192-0.384a8 8 0 0 1 3.712-10.688l0.64-0.32 48.384-24.96a8.064 8.064 0 0 1 11.072 2.56z m-824.96-3.776l49.28 25.6a8.064 8.064 0 0 1 4.096 10.88l-0.448 0.96-0.832 1.664-0.512 1.152-0.32 0.64a220.16 220.16 0 0 0-20.16 91.712c0 114.24 91.776 218.112 232.128 262.336l1.28 0.384 1.28 0.384 1.92 0.576 1.984 0.576 1.6 0.448 1.664 0.448 2.304 0.64 3.776 1.024 3.328 0.832 4.224 1.088 3.008 0.768 4.736 1.216 3.328 0.832a8 8 0 0 1 5.952 9.408l-11.712 54.784a8 8 0 0 1-9.472 6.144h-0.256l-3.648-0.96-4.48-1.088-4.224-1.088-3.2-0.768-3.904-1.024-2.944-0.768-3.52-0.96-2.048-0.576-1.92-0.512-2.56-0.704-2.304-0.64-1.664-0.576-1.6-0.448-1.6-0.512-0.96-0.256C178.304 818.048 64 688.64 64 540.032c0-43.84 9.92-86.592 28.992-126.592l0.896-1.856 0.256-0.512a8 8 0 0 1 10.688-3.648zM528 73.216l255.552 147.52a32 32 0 0 1 16 27.712v295.04a32 32 0 0 1-16 27.776L528 718.72a32 32 0 0 1-32 0L240.448 571.264a32 32 0 0 1-16-27.712v-295.04a32 32 0 0 1 16-27.776L496 73.216a32 32 0 0 1 32 0zM288.448 299.968v225.088L480 635.648V410.496L288.448 299.968z m447.104 0L544 410.496v225.152l191.488-110.592V299.968zM512 137.92L323.84 246.528 512 355.072l188.096-108.544L512 137.92z" fill="#0A1B39" p-id="8902"></path></svg>