<?xml version="1.0" encoding="UTF-8"?>
<svg width="16px" height="16px" viewBox="0 0 16 16" version="1.1" xmlns="http://www.w3.org/2000/svg" xmlns:xlink="http://www.w3.org/1999/xlink">
    <title>Line/分屏</title>
    <g id="Line/分屏" stroke="none" stroke-width="1" fill="none" fill-rule="evenodd">
        <rect id="矩形" fill="#000000" fill-rule="nonzero" opacity="0" x="0" y="0" width="16" height="16"></rect>
        <path d="M14.996,2.902 L15.004,2.99199997 L15.004,12.992 C15.004,13.2334923 14.8315479,13.4405314 14.594,13.484 L14.504,13.492 L1.50399997,13.492 C1.26250769,13.492 1.0554686,13.3195479 1.012,13.082 L1.00399997,12.992 L1.00399997,2.99199997 C1.00399997,2.75050769 1.17645206,2.5434686 1.414,2.5 L1.50399997,2.49199997 L14.504,2.49199997 C14.7454923,2.49199997 14.9525314,2.66445206 14.996,2.902 Z M8.437,3.617 L8.437,4.78 C8.437,4.863 8.396,4.905 8.313,4.905 L7.687,4.905 C7.604,4.905 7.562,4.863 7.562,4.78 L7.562,3.616 L2.129,3.617 L2.129,7.563 L2.13,8.438 L2.13,12.368 L7.564,12.368 L7.564,11.22 C7.564,11.164 7.599,11.117 7.649,11.1 L7.689,11.095 L8.314,11.095 C8.369,11.095 8.416,11.13 8.432,11.18 L8.439,11.22 L8.439,12.367 L13.879,12.367 L13.879,8.437 L13.879,7.563 L13.879,3.616 L8.437,3.617 Z M8.437,7.43601745 L8.437,8.56101745 C8.437,8.64501745 8.395,8.68701745 8.311,8.68701745 L7.687,8.68701745 C7.603,8.68701745 7.562,8.64501745 7.562,8.56101745 L7.562,7.43701745 C7.562,7.35301745 7.603,7.31201745 7.687,7.31201745 L8.312,7.31201745 C8.395,7.31101745 8.437,7.35301745 8.437,7.43601745 Z M8.437,5.545375 L8.437,6.670375 C8.437,6.754375 8.395,6.796375 8.311,6.796375 L7.687,6.796375 C7.603,6.796375 7.562,6.754375 7.562,6.670375 L7.562,5.546375 C7.562,5.462375 7.603,5.421375 7.687,5.421375 L8.312,5.421375 C8.395,5.420375 8.437,5.462375 8.437,5.545375 Z M8.437,9.32665989 L8.437,10.4516599 C8.437,10.5356599 8.395,10.5776599 8.311,10.5776599 L7.687,10.5776599 C7.603,10.5776599 7.562,10.5356599 7.562,10.4516599 L7.562,9.32765989 C7.562,9.24365989 7.603,9.20265989 7.687,9.20265989 L8.312,9.20265989 C8.395,9.20165989 8.437,9.24365989 8.437,9.32665989 Z" id="形状" fill="#0A1B39"></path>
    </g>
</svg>