<?xml version="1.0" standalone="no"?><!DOCTYPE svg PUBLIC "-//W3C//DTD SVG 1.1//EN" "http://www.w3.org/Graphics/SVG/1.1/DTD/svg11.dtd"><svg t="1677985935987" class="icon" viewBox="0 0 1024 1024" version="1.1" xmlns="http://www.w3.org/2000/svg" p-id="3174" xmlns:xlink="http://www.w3.org/1999/xlink" width="200" height="200"><path d="M935.808 592.192a423.872 423.872 0 0 1-218.304 370.88l-1.088 0.576a388.288 388.288 0 0 1-19.136 9.6l-1.664 0.832a8 8 0 0 1-10.24-11.328c4.416-7.488 7.808-13.888 10.048-19.2 10.56-24.32 16.384-51.2 16.384-79.36 0-25.344-4.672-49.536-13.248-71.808a338.304 338.304 0 0 1-184.704 55.808h-2.048A424 424 0 0 1 289.024 63.36l0.896-0.64a439.68 439.68 0 0 1 24.32-13.44l0.832-0.448a8 8 0 0 1 11.072 10.112l-0.64 1.664c-3.328 8.32-5.76 15.36-7.232 20.992a200.32 200.32 0 0 0 13.632 138.048 338.368 338.368 0 0 1 185.536-51.456h-5.632a424 424 0 0 1 424 424z m-72 0a352 352 0 0 0-346.176-352h-7.36a266.24 266.24 0 0 0-138.944 39.68l-1.28 0.832-67.84 42.368-35.008-71.936a270.464 270.464 0 0 1-20.224-56.704l-0.384-1.728-2.304 2.56a351.488 351.488 0 0 0-84.48 224.768v4.16a352 352 0 0 0 352 352c52.608 0 102.784-15.104 145.856-43.136l1.28-0.832 74.688-49.152 32.128 83.392a272.925 272.925 0 0 1 14.336 52.672l0.128 0.832 0.704-0.832a351.552 351.552 0 0 0 82.88-222.592v-4.352zM691.84 508.16a180.032 180.032 0 1 1-360 0 180.032 180.032 0 0 1 360 0z m-72 0a107.968 107.968 0 1 0-216 0 107.968 107.968 0 0 0 216 0z" p-id="3175"></path></svg>