<?xml version="1.0" standalone="no"?><!DOCTYPE svg PUBLIC "-//W3C//DTD SVG 1.1//EN" "http://www.w3.org/Graphics/SVG/1.1/DTD/svg11.dtd"><svg t="1658917779892" class="icon" viewBox="0 0 1024 1024" version="1.1" xmlns="http://www.w3.org/2000/svg" p-id="23251" xmlns:xlink="http://www.w3.org/1999/xlink" width="200" height="200"><defs><style type="text/css">@font-face { font-family: feedback-iconfont; src: url("//at.alicdn.com/t/font_1031158_u69w8yhxdu.woff2?t=1630033759944") format("woff2"), url("//at.alicdn.com/t/font_1031158_u69w8yhxdu.woff?t=1630033759944") format("woff"), url("//at.alicdn.com/t/font_1031158_u69w8yhxdu.ttf?t=1630033759944") format("truetype"); }
</style></defs><path d="M780.032 88c39.68 0 71.936 32.256 71.936 72v696h52.032c4.416 0 8 3.584 8 8v64a8 8 0 0 1-8 8H120a8 8 0 0 1-8-8v-64c0-4.416 3.584-8 8-8h52.032V160c0-39.744 32.192-72 71.936-72h536.064z m0 72H243.968v696h128v-256c0-4.416 3.584-8 8-8h264c4.48 0 8.064 3.584 8.064 8v256h128V160z m-192 496H435.968v200h152V656zM643.968 384c4.48 0 8.064 3.584 8.064 8V448a8 8 0 0 1-8.064 8H380.096A8 8 0 0 1 372.032 448v-56c0-4.416 3.52-8 8-8h264z" p-id="23252"></path></svg>