<?xml version="1.0" standalone="no"?><!DOCTYPE svg PUBLIC "-//W3C//DTD SVG 1.1//EN" "http://www.w3.org/Graphics/SVG/1.1/DTD/svg11.dtd"><svg t="1678332352290" class="icon" viewBox="0 0 1024 1024" version="1.1" xmlns="http://www.w3.org/2000/svg" p-id="2772" xmlns:xlink="http://www.w3.org/1999/xlink" width="200" height="200"><path d="M839.936 120v736H880a32 32 0 0 1 32 32v40a8 8 0 0 1-8 8H120a8 8 0 0 1-8-8v-40a32 32 0 0 1 32-32h40.064V120a32 32 0 0 1 32-32h591.872a32 32 0 0 1 32 32zM256 160v696h116.032V560c0-4.416 3.584-8 8-8h264c4.48 0 8.064 3.584 8.064 8v296h116.032V160H255.872z m332.032 456H435.968v240h152V616z m16-272c4.48 0 8.064 3.584 8.064 8v72a8 8 0 0 1-8.064 8H420.096a8 8 0 0 1-8.064-8v-72c0-4.416 3.52-8 8-8h183.936z" p-id="2773"></path></svg>