<?xml version="1.0" standalone="no"?><!DOCTYPE svg PUBLIC "-//W3C//DTD SVG 1.1//EN" "http://www.w3.org/Graphics/SVG/1.1/DTD/svg11.dtd"><svg t="1677671948779" class="icon" viewBox="0 0 1024 1024" version="1.1" xmlns="http://www.w3.org/2000/svg" p-id="4966" xmlns:xlink="http://www.w3.org/1999/xlink" width="200" height="200"><path d="M652.864 852.032c1.664 0 3.072 2.688 3.136 6.016v47.616c0 3.392-1.28 6.208-3.008 6.336H371.2c-1.664 0-3.072-2.688-3.136-6.016v-47.68c0-3.392 1.28-6.144 3.008-6.272H652.8z m0-108.032c1.664 0 3.072 2.688 3.136 6.016v47.68c0 3.392-1.28 6.144-3.008 6.272H371.2c-1.664 0-3.072-2.688-3.136-6.016v-47.616c0-3.392 1.28-6.208 3.008-6.336H652.8zM523.328 75.328l361.344 361.344A16 16 0 0 1 873.344 464H651.968v224H372.096V464h-221.44a16 16 0 0 1-11.264-27.328L500.736 75.328a16 16 0 0 1 22.656 0zM512 165.76L285.824 392h158.144v224h136V392h158.208L512 165.824z" p-id="4967"></path></svg>