<?xml version="1.0" standalone="no"?><!DOCTYPE svg PUBLIC "-//W3C//DTD SVG 1.1//EN" "http://www.w3.org/Graphics/SVG/1.1/DTD/svg11.dtd"><svg t="1679309438660" class="icon" viewBox="0 0 1024 1024" version="1.1" xmlns="http://www.w3.org/2000/svg" p-id="3408" xmlns:xlink="http://www.w3.org/1999/xlink" width="200" height="200"><path d="M656 904v48a8 8 0 0 1-8 8H376a8 8 0 0 1-8-7.744V904c0-4.416 3.584-8 8-8h272c4.352 0 7.872 3.456 8 7.744V904z m0-120v48a8 8 0 0 1-8 8H376a8 8 0 0 1-8-7.744V784c0-4.416 3.584-8 8-8h272c4.352 0 7.872 3.456 8 7.744V784zM521.664 67.712a16 16 0 0 1 3.072 3.072L852.48 502.336A16 16 0 0 1 839.744 528H656v184a8 8 0 0 1-8 8H376a8 8 0 0 1-8-8V528H184.256a16 16 0 0 1-12.8-25.664L499.264 70.784a16 16 0 0 1 22.4-3.072z m-9.664 112L305.152 451.904h138.88v192h136v-192h138.816L512 179.648z" p-id="3409"></path></svg>