<?xml version="1.0" standalone="no"?><!DOCTYPE svg PUBLIC "-//W3C//DTD SVG 1.1//EN" "http://www.w3.org/Graphics/SVG/1.1/DTD/svg11.dtd"><svg t="1688725831893" class="icon" viewBox="0 0 1024 1024" version="1.1" xmlns="http://www.w3.org/2000/svg" p-id="1152" xmlns:xlink="http://www.w3.org/1999/xlink" width="200" height="200"><path d="M744 432c4.416 0 8 3.584 8 8v96h81.472a96 96 0 0 1 95.232 83.84l27.328 214.08a49.472 49.472 0 0 1-72.064 50.112l-70.016-36.736A64 64 0 0 0 784.256 840H655.744a64 64 0 0 0-29.696 7.296l-70.08 36.672a49.472 49.472 0 0 1-72-50.048l27.328-214.08A96 96 0 0 1 606.528 536H688v-96c0-4.416 3.584-8 8-8h48z m-294.016 99.008c17.6 0 35.072 0.512 52.352 1.6-18.56 19.456-31.872 44.288-37.184 72.128a729.856 729.856 0 0 0-11.712-0.064h-3.52c-107.52-0.448-213.76 22.656-311.424 67.648L136 673.472v93.888h308.16l-7.68 60.48a97.472 97.472 0 0 0-0.832 13.184H70.272a7.744 7.744 0 0 1-7.744-7.552v-167.36c0-23.936 13.76-45.76 35.392-56.064a811.008 811.008 0 0 1 352-79.04z m383.488 64.96H606.528a36.032 36.032 0 0 0-35.648 30.912v0.576L546.048 821.44l52.16-27.264c17.472-9.152 36.864-14.016 56.576-14.144h129.472c19.712 0 39.104 4.672 56.64 13.696l0.896 0.448 52.16 27.264-24.768-193.984a36.032 36.032 0 0 0-35.2-31.424h-0.512zM644.032 656a40 40 0 1 1 0 80 40 40 0 0 1 0-80z m151.936 0a40 40 0 1 1 0 80 40 40 0 0 1 0-80zM597.056 218.112a166.656 166.656 0 1 1-287.552 168.512 166.656 166.656 0 0 1 287.552-168.512z m-147.008-8.704a92.992 92.992 0 1 0 0 185.984 92.992 92.992 0 0 0 0-185.984z" p-id="1153"></path></svg>