<?xml version="1.0" standalone="no"?><!DOCTYPE svg PUBLIC "-//W3C//DTD SVG 1.1//EN" "http://www.w3.org/Graphics/SVG/1.1/DTD/svg11.dtd"><svg t="1740451881028" class="icon" viewBox="0 0 1024 1024" version="1.1" xmlns="http://www.w3.org/2000/svg" p-id="1684" xmlns:xlink="http://www.w3.org/1999/xlink" width="200" height="200"><path d="M744 456c119.25 0 216 96.75 216 216s-96.75 216-216 216-216-96.75-216-216 96.75-216 216-216z m-297.654 74.995L450 531c23.282 0 46.34 0.934 69.173 2.8a262.318 262.318 0 0 0-30.58 71.713 738.096 738.096 0 0 0-35.183-0.857H450a737.18 737.18 0 0 0-311.426 67.642l-2.48 1.178v93.868l361.798 0.001c10.452 26.98 25.21 51.813 43.43 73.657H70.25a7.753 7.753 0 0 1-7.75-7.504v-167.4a62 62 0 0 1 35.402-56.048 811.022 811.022 0 0 1 348.444-79.055zM744 520c-83.817 0-152 68.183-152 152s68.183 152 152 152 152-68.183 152-152c0-84.251-68.183-152-152-152z m4.358 79.32a8 8 0 0 1 1.642 4.855L749.999 644h78.56c4.11 0 7.441 3.582 7.441 8v40c0 4.418-3.332 8-7.442 8H750l0.001 39.825a8 8 0 0 1-12.855 6.358l-88.819-67.825a8 8 0 0 1-1.503-11.213l1.503-1.503 88.819-67.825a8 8 0 0 1 11.213 1.503zM450 135.75c59.53 0 114.537 31.759 144.301 83.312 29.765 51.554 29.765 115.072 0 166.626C564.537 437.24 509.53 469 450 469c-92.024 0-166.625-74.6-166.625-166.625 0-92.024 74.6-166.625 166.625-166.625z m0 73.656c-51.362 0-93 41.638-93 93s41.638 93 93 93 93-41.638 93-93-41.638-93-93-93z" p-id="1685"></path></svg>