<?xml version="1.0" standalone="no"?><!DOCTYPE svg PUBLIC "-//W3C//DTD SVG 1.1//EN" "http://www.w3.org/Graphics/SVG/1.1/DTD/svg11.dtd"><svg t="1666841549424" class="icon" viewBox="0 0 1024 1024" version="1.1" xmlns="http://www.w3.org/2000/svg" p-id="1146" xmlns:xlink="http://www.w3.org/1999/xlink" width="200" height="200"><path d="M743 453c119.294 0 216 96.706 216 216s-96.706 216-216 216-216-96.706-216-216 96.706-216 216-216z m-231 91c2.13 0 4.257 0.008 6.382 0.023a255.235 255.235 0 0 0-27.764 76.225 760.939 760.939 0 0 0-300.09 69.608l-2.56 1.216v96.896l327.168 0.003c15.201 29.055 35.796 54.841 60.455 76.03L120 864a8.002 8.002 0 0 1-8-7.744v-172.8a64 64 0 0 1 36.544-57.856A837.184 837.184 0 0 1 512 544z m231-27c-83.947 0-152 68.053-152 152s68.053 152 152 152 152-68.053 152-152-68.053-152-152-152z m77.5 123.5c5.946 0 10.829 3.477 10.996 7.773l0.004 0.227v40c0 4.324-4.78 7.876-10.688 7.997l-0.312 0.003h-154c-5.946 0-10.829-3.477-10.996-7.773l-0.004-0.227v-40c0-4.324 4.78-7.876 10.688-7.997l0.312-0.003h154zM512 136c61.45 0 118.232 32.783 148.956 86 30.725 53.217 30.725 118.783 0 172a171.842 171.842 0 0 1-48.274 53.454 252.397 252.397 0 0 0-16.088 10.297A171.8 171.8 0 0 1 512 480c-94.993 0-172-77.007-172-172s77.007-172 172-172z m0 76.032c-53.02 0-96 42.98-96 96s42.98 96 96 96 96-42.98 96-96-42.98-96-96-96z" p-id="1147"></path></svg>