<?xml version="1.0" standalone="no"?><!DOCTYPE svg PUBLIC "-//W3C//DTD SVG 1.1//EN" "http://www.w3.org/Graphics/SVG/1.1/DTD/svg11.dtd"><svg t="1719473751693" class="icon" viewBox="0 0 1024 1024" version="1.1" xmlns="http://www.w3.org/2000/svg" p-id="1429" xmlns:xlink="http://www.w3.org/1999/xlink" width="200" height="200"><path d="M512 136c61.45 0 118.232 32.783 148.956 86 30.725 53.217 30.725 118.783 0 172-30.724 53.217-87.506 86-148.956 86-94.993 0-172-77.007-172-172s77.007-172 172-172z m0 76.032c-53.02 0-96 42.98-96 96s42.98 96 96 96 96-42.98 96-96-42.98-96-96-96z m-3.772 331.963L512 544c62.806 0 124.033 6.582 183.68 19.745l-65.1 65.1a760.554 760.554 0 0 0-115.06-8.813H512a760.96 760.96 0 0 0-321.472 69.824l-2.56 1.216v96.896H520a8 8 0 0 1 7.996 7.75l0.004 0.25v60.028a8 8 0 0 1-8 8L120 864a8.002 8.002 0 0 1-8-7.744v-172.8a64.001 64.001 0 0 1 36.544-57.856 837.184 837.184 0 0 1 359.684-81.605zM864.1 485.678l90.346 90.345c6.237 6.237 6.237 16.35 0 22.587L693.733 859.322A15.971 15.971 0 0 1 682.439 864h-98.33a7.985 7.985 0 0 1-7.986-7.985v-98.332c0-4.235 1.682-8.298 4.678-11.293l260.712-260.712c6.237-6.237 16.35-6.237 22.586 0z m-11.293 79.051l-212.8 212.8v22.587h22.587l212.8-212.8-22.587-22.587z" p-id="1430"></path></svg>