<?xml version="1.0" standalone="no"?><!DOCTYPE svg PUBLIC "-//W3C//DTD SVG 1.1//EN" "http://www.w3.org/Graphics/SVG/1.1/DTD/svg11.dtd"><svg t="1677583776361" class="icon" viewBox="0 0 1024 1024" version="1.1" xmlns="http://www.w3.org/2000/svg" p-id="2178" xmlns:xlink="http://www.w3.org/1999/xlink" width="200" height="200"><path d="M780.992 459.072l1.28 0.192 1.28 0.256a15.488 15.488 0 0 1 12.416 12.032l0.064 0.384 7.616 40.96c17.088 6.4 32.896 15.552 47.168 27.072l0.896 0.768 39.232-13.952a15.488 15.488 0 0 1 16.704 4.288l0.256 0.256 0.832 1.024c16.512 19.456 29.312 41.408 38.016 65.28l0.448 1.28 0.448 1.28a15.424 15.424 0 0 1-4.224 16.704l-0.256 0.256-31.616 27.008a173.44 173.44 0 0 1 0.192 54.272l-0.192 1.472 31.616 27.008a15.36 15.36 0 0 1 4.608 16.576l-0.64 1.6a215.104 215.104 0 0 1-37.568 65.472l-0.832 1.024-0.832 1.024a15.424 15.424 0 0 1-16.64 4.672l-0.32-0.064-39.232-13.952a168.832 168.832 0 0 1-46.976 27.328l-1.088 0.448-7.616 40.96a15.488 15.488 0 0 1-12.096 12.352l-0.32 0.064-1.28 0.256a216.384 216.384 0 0 1-75.2 0.256l-1.536-0.256-1.28-0.256a15.488 15.488 0 0 1-12.416-12.032v-0.32l-7.68-41.216c-16.96-6.4-32.64-15.488-46.848-26.944l-0.896-0.768-39.552 14.08a15.488 15.488 0 0 1-16.64-4.352l-0.256-0.256-0.896-1.024a214.592 214.592 0 0 1-38.016-65.28l-0.384-1.28-0.448-1.216a15.424 15.424 0 0 1 4.224-16.768l0.256-0.192 32-27.328a168.896 168.896 0 0 1-0.256-53.568l0.256-1.536-32-27.264a15.488 15.488 0 0 1-4.608-16.64l0.576-1.6c8.576-23.936 21.184-45.952 37.568-65.536l0.832-1.024 0.896-1.024a15.424 15.424 0 0 1 16.64-4.672l0.256 0.128 39.552 14.08a168.517 168.517 0 0 1 46.592-27.328l1.152-0.448 7.68-41.152a15.488 15.488 0 0 1 12.032-12.352l0.384-0.064 1.28-0.256c24.704-4.48 50.688-4.48 75.392-0.192z m-331.008 71.936c23.296 0 46.4 0.896 69.248 2.816a261.184 261.184 0 0 0-30.72 71.808 624.448 624.448 0 0 0-35.072-0.96h-3.52c-107.52-0.448-213.76 22.656-311.424 67.648L136 673.472v93.888h361.92c10.432 27.008 25.216 51.84 43.456 73.664H70.272a7.744 7.744 0 0 1-7.744-7.552v-167.36c0-23.936 13.76-45.76 35.392-56.064a811.008 811.008 0 0 1 352-79.04zM744 563.968c-28.8 0-55.936 11.2-76.352 31.68-20.352 20.48-31.68 47.488-31.68 76.352 0 28.8 11.328 55.936 31.68 76.352 20.48 20.352 47.488 31.68 76.352 31.68 28.8 0 55.936-11.328 76.352-31.68 20.352-20.48 31.68-47.488 31.68-76.352 0-28.8-11.328-55.936-31.68-76.352A107.2 107.2 0 0 0 744 563.968zM744 624a47.808 47.808 0 0 1 33.92 81.92 47.808 47.808 0 0 1-67.84 0 47.808 47.808 0 0 1 0-67.84A47.68 47.68 0 0 1 744 624zM449.984 135.744a166.656 166.656 0 1 1 0 333.248 166.656 166.656 0 0 1 0-333.248z m0 73.664a92.992 92.992 0 1 0 0 185.984 92.992 92.992 0 0 0 0-185.984z" p-id="2179"></path></svg>