<?xml version="1.0" standalone="no"?><!DOCTYPE svg PUBLIC "-//W3C//DTD SVG 1.1//EN" "http://www.w3.org/Graphics/SVG/1.1/DTD/svg11.dtd"><svg t="1677583798323" class="icon" viewBox="0 0 1024 1024" version="1.1" xmlns="http://www.w3.org/2000/svg" p-id="2794" xmlns:xlink="http://www.w3.org/1999/xlink" width="200" height="200"><path d="M766.72 456.064a25.6 25.6 0 0 1 7.296 0.896l0.576 0.192 177.28 60.416a12.428 12.428 0 0 1 7.808 10.752v251.968a19.392 19.392 0 0 1-6.272 13.248l-0.32 0.256-179.84 140.16a10.688 10.688 0 0 1-6.592 2.112 10.816 10.816 0 0 1-6.208-1.92l-0.32-0.192-179.84-140.16a19.648 19.648 0 0 1-6.528-13.184V528.576a12.544 12.544 0 0 1 7.552-10.88l0.256-0.128 177.28-60.416a25.6 25.6 0 0 1 7.296-1.088h0.64z m0 66.048L637.76 566.08v191.36l128.96 100.48 128.96-100.48V566.08l-128.96-43.968z m-316.736 8.896c25.536 0 50.752 1.088 75.776 3.328v73.92a736.768 736.768 0 0 0-72.32-3.584h-3.52c-107.52-0.448-213.76 22.656-311.424 67.648L136 673.472v93.888h389.632v14.528c0.64 18.56 9.92 37.568 24.448 49.216l12.672 9.792H70.272a7.744 7.744 0 0 1-7.744-7.488v-167.36c0-23.936 13.76-45.76 35.392-56.064a811.008 811.008 0 0 1 352-78.976zM864.384 600a8 8 0 0 1 6.4 12.672L752.256 776.064a8 8 0 0 1-12.928 0l-75.776-104.32a8 8 0 0 1 6.4-12.8h35.52A16 16 0 0 1 718.4 665.6l27.392 37.696 70.144-96.64A16 16 0 0 1 828.928 600h35.456zM449.92 135.744a166.656 166.656 0 1 1 0 333.248 166.656 166.656 0 0 1 0-333.248z m0 73.664a92.992 92.992 0 1 0 0 185.984 92.992 92.992 0 0 0 0-185.984z" p-id="2795"></path></svg>