<?xml version="1.0" standalone="no"?><!DOCTYPE svg PUBLIC "-//W3C//DTD SVG 1.1//EN" "http://www.w3.org/Graphics/SVG/1.1/DTD/svg11.dtd"><svg t="1702464710497" class="icon" viewBox="0 0 1024 1024" version="1.1" xmlns="http://www.w3.org/2000/svg" p-id="2986" xmlns:xlink="http://www.w3.org/1999/xlink" width="200" height="200"><path d="M744.128 455.808a216 216 0 1 1 0 432 216 216 0 0 1 0-432z m-294.144 75.2c23.296 0 46.4 0.896 69.248 2.816a261.184 261.184 0 0 0-30.72 71.808 624.448 624.448 0 0 0-35.072-0.96h-3.52c-107.52-0.448-213.76 22.656-311.424 67.648L136 673.472v93.888h361.92c10.432 27.008 25.216 51.84 43.456 73.664H70.272a7.744 7.744 0 0 1-7.744-7.552v-167.36c0-23.936 13.76-45.76 35.392-56.064a811.008 811.008 0 0 1 352-79.04z m294.144-11.2a151.04 151.04 0 0 0-107.52 44.48 151.04 151.04 0 0 0-44.48 107.52c0 40.576 15.808 78.72 44.544 107.52a151.04 151.04 0 0 0 107.52 44.48 151.04 151.04 0 0 0 107.456-44.544 151.04 151.04 0 0 0 44.48-107.52 151.04 151.04 0 0 0-44.48-107.52 151.04 151.04 0 0 0-107.52-44.416z m20.032 40c3.52 0 6.528 2.304 7.552 5.44l0.448 2.56-0.128 75.968 76.032 0.064c3.52 0 6.528 2.304 7.616 5.504l0.384 2.56v39.936a8 8 0 0 1-5.44 7.616l-2.56 0.384-76.032-0.064v76.032a8 8 0 0 1-5.504 7.552l-2.56 0.448h-39.936a8 8 0 0 1-7.68-5.504l-0.32-2.56v-75.968l-75.968-0.064a8 8 0 0 1-7.552-5.504l-0.448-2.56v-39.936c0-3.52 2.304-6.528 5.504-7.616l2.56-0.384h75.904l0.128-75.904c0-3.52 2.304-6.528 5.44-7.616l2.56-0.384h40zM449.92 135.68a166.656 166.656 0 1 1 0 333.248 166.656 166.656 0 0 1 0-333.248z m0 73.664a92.992 92.992 0 1 0 0 185.984 92.992 92.992 0 0 0 0-185.984z" p-id="2987"></path></svg>