<?xml version="1.0" standalone="no"?><!DOCTYPE svg PUBLIC "-//W3C//DTD SVG 1.1//EN" "http://www.w3.org/Graphics/SVG/1.1/DTD/svg11.dtd"><svg t="1666925186815" class="icon" viewBox="0 0 1024 1024" version="1.1" xmlns="http://www.w3.org/2000/svg" p-id="885" xmlns:xlink="http://www.w3.org/1999/xlink" width="200" height="200"><path d="M404.032 556.032c116.032 0 219.648 29.44 310.72 88.384a64 64 0 0 1 29.248 53.76v139.84a8 8 0 0 1-7.744 8H72A8 8 0 0 1 64 838.272v-139.52a64 64 0 0 1 29.056-53.568c91.136-59.456 194.816-89.216 310.976-89.152z m3.008 72h-3.008c-100.416 0-188.8 24.768-266.88 74.368l-1.152 0.768v70.848H672v-71.488l-1.088-0.64C593.6 653.056 506.176 628.48 407.04 627.968v0.064z m544.96-68.032c4.416 0 8 3.584 8 8v48a8 8 0 0 1-8 8H768a8 8 0 0 1-8-8v-48c0-4.416 3.584-8 8-8h184zM403.968 184a150.016 150.016 0 1 1 6.208 299.968 150.016 150.016 0 0 1-6.208-299.968z m548.032 216c4.416 0 8 3.584 8 8v48a8 8 0 0 1-8 8h-304A8 8 0 0 1 640 456v-48c0-4.416 3.584-8 8-8h304zM403.968 259.968a74.048 74.048 0 1 0 0 148.032 74.048 74.048 0 0 0 0-148.032z m548.032-19.968c4.416 0 8 3.584 8 8v48a8 8 0 0 1-8 8h-304A8 8 0 0 1 640 296v-48c0-4.416 3.584-8 8-8h304z" p-id="886"></path></svg>