<?xml version="1.0" standalone="no"?><!DOCTYPE svg PUBLIC "-//W3C//DTD SVG 1.1//EN" "http://www.w3.org/Graphics/SVG/1.1/DTD/svg11.dtd"><svg t="1648561988090" class="icon" viewBox="0 0 1024 1024" version="1.1" xmlns="http://www.w3.org/2000/svg" p-id="22319" xmlns:xlink="http://www.w3.org/1999/xlink" width="200" height="200"><defs><style type="text/css">@font-face { font-family: feedback-iconfont; src: url("//at.alicdn.com/t/font_1031158_u69w8yhxdu.woff2?t=1630033759944") format("woff2"), url("//at.alicdn.com/t/font_1031158_u69w8yhxdu.woff?t=1630033759944") format("woff"), url("//at.alicdn.com/t/font_1031158_u69w8yhxdu.ttf?t=1630033759944") format("truetype"); }
</style></defs><path d="M512 560.128c127.488 0 248.832 27.136 363.52 81.408 22.016 10.24 36.352 32.768 36.352 57.344v173.568c0 4.096-3.584 7.68-7.68 8.192H119.808c-4.096 0-7.68-3.584-8.192-7.68v-173.056c0-24.576 14.336-47.104 36.352-57.856 114.176-54.784 238.08-82.432 364.032-81.92z m3.584 75.776h-3.584c-111.104-0.512-220.672 23.552-321.536 69.632l-2.56 1.024v97.28h648.192v-96.768l-2.56-1.024c-99.84-46.08-208.384-70.144-317.952-70.144z m-3.584-492.032c95.232 0 172.032 76.8 172.032 172.032s-76.8 172.032-172.032 172.032-172.032-76.8-172.032-172.032 76.8-172.032 172.032-172.032z m0 76.288c-53.248 0-96.256 43.008-96.256 95.744 0 53.248 43.008 96.256 95.744 96.256 53.248 0 96.256-43.008 96.256-96.256S565.248 220.16 512 220.16z" p-id="22320"></path></svg>