<?xml version="1.0" standalone="no"?><!DOCTYPE svg PUBLIC "-//W3C//DTD SVG 1.1//EN" "http://www.w3.org/Graphics/SVG/1.1/DTD/svg11.dtd"><svg t="1666925191324" class="icon" viewBox="0 0 1024 1024" version="1.1" xmlns="http://www.w3.org/2000/svg" p-id="1037" xmlns:xlink="http://www.w3.org/1999/xlink" width="200" height="200"><path d="M796.736 511.04l14.72 2.176c4.48 0.832 8.192 3.776 10.048 7.808l0.96 3.2 6.784 36.48c11.648 4.352 22.656 10.112 32.832 17.216l9.984 7.488 34.88-12.416a13.824 13.824 0 0 1 12.608 1.856l2.432 2.24 0.768 0.896c11.968 14.08 21.76 29.632 29.12 46.4l5.504 13.888a13.824 13.824 0 0 1-1.728 12.672l-2.304 2.432-28.096 24.064c1.344 8.128 2.048 16.512 2.048 24.768l-0.512 12.48-1.536 12.288 28.16 24.064c3.392 2.944 5.12 7.296 4.736 11.776l-0.64 3.2-0.448 1.152c-6.208 17.28-14.784 33.472-25.6 48.32l-9.344 11.776a13.696 13.696 0 0 1-11.84 4.8l-3.2-0.704-34.944-12.416c-9.6 7.872-20.16 14.528-31.36 19.84l-11.456 4.864-6.72 36.48a13.76 13.76 0 0 1-7.872 10.048l-3.2 0.96-1.216 0.256a192.256 192.256 0 0 1-56.96 1.664l-12.416-1.92a13.824 13.824 0 0 1-10.048-7.808l-1.024-3.2-6.784-36.672a147.136 147.136 0 0 1-32.64-17.152l-9.856-7.488-35.2 12.544a13.824 13.824 0 0 1-12.544-1.856l-2.496-2.24-0.768-0.896a189.888 189.888 0 0 1-29.12-46.4l-5.504-13.888a13.824 13.824 0 0 1 1.728-12.672l2.304-2.496 28.352-24.256a149.504 149.504 0 0 1-1.92-24.512l0.448-12.224 1.472-12.224-28.416-24.32a13.824 13.824 0 0 1-4.8-11.84l1.152-4.352a193.28 193.28 0 0 1 25.6-48.32l9.408-11.776a13.696 13.696 0 0 1 11.776-4.8l3.264 0.704 35.2 12.544c9.6-7.872 19.968-14.528 31.104-19.84l11.392-4.8 6.784-36.672a13.76 13.76 0 0 1 7.872-10.048l3.2-0.96 1.152-0.256c17.92-3.2 36.48-3.84 54.72-1.92z m-308.736 16.96c30.592 0 60.8 1.536 90.688 4.672-18.56 21.632-33.536 46.144-44.16 72.64l-21.44-0.96-25.088-0.32a760.96 760.96 0 0 0-298.048 59.52l-25.984 11.52v96.896h361.6c7.68 27.52 19.648 53.12 35.328 76.16L96 848a8 8 0 0 1-8-7.744v-172.8a64 64 0 0 1 36.544-57.856A837.184 837.184 0 0 1 488 528z m288.192 121.856a47.872 47.872 0 0 0-33.984 82.048 47.872 47.872 0 0 0 67.968 0 47.872 47.872 0 0 0 0-67.968 47.68 47.68 0 0 0-33.92-14.08h-0.064zM488 112a172.032 172.032 0 1 1 6.656 344 172.032 172.032 0 0 1-6.656-344z m0 76.032a96 96 0 1 0 0 192 96 96 0 0 0 0-192z" p-id="1038"></path></svg>