<?xml version="1.0" standalone="no"?><!DOCTYPE svg PUBLIC "-//W3C//DTD SVG 1.1//EN" "http://www.w3.org/Graphics/SVG/1.1/DTD/svg11.dtd"><svg t="1721976029338" class="icon" viewBox="0 0 1024 1024" version="1.1" xmlns="http://www.w3.org/2000/svg" p-id="1395" xmlns:xlink="http://www.w3.org/1999/xlink" width="200" height="200"><path d="M744.151 456c119.3 0 216 96.7 216 216s-96.7 216-216 216-216-96.7-216-216 96.7-216 216-216zM450 531c23.282 0 46.34 0.934 69.173 2.8a262.318 262.318 0 0 0-30.58 71.713 738.096 738.096 0 0 0-35.183-0.857H450a737.18 737.18 0 0 0-311.426 67.642l-2.48 1.178v93.868l361.798 0.001c10.452 26.98 25.21 51.813 43.43 73.657L70.25 841a7.751 7.751 0 0 1-7.75-7.502v-167.4a62 62 0 0 1 35.402-56.048A811.022 811.022 0 0 1 450 531z m294.151-11c-40.6 0-78.8 15.8-107.5 44.5-28.7 28.7-44.5 66.9-44.5 107.5 0 40.6 15.8 78.8 44.5 107.5 28.7 28.7 66.9 44.5 107.5 44.5 40.6 0 78.8-15.8 107.5-44.5 28.7-28.7 44.5-66.9 44.5-107.5 0-40.6-15.8-78.8-44.5-107.5-28.7-28.7-66.9-44.5-107.5-44.5z m0 200c17.673 0 32 14.327 32 32 0 17.673-14.327 32-32 32-17.673 0-32-14.327-32-32 0-17.673 14.327-32 32-32z m20-160c4.317 0 7.864 3.465 7.996 7.752l0.004 0.248v112c0 4.317-3.465 7.864-7.752 7.996l-0.248 0.004h-40c-4.317 0-7.864-3.465-7.996-7.752l-0.004-0.248V568c0-4.317 3.465-7.864 7.752-7.996l0.248-0.004h40zM450 135.75c59.53 0 114.537 31.759 144.301 83.312 29.765 51.554 29.765 115.072 0 166.626C564.537 437.24 509.53 469 450 469c-92.024 0-166.625-74.6-166.625-166.625 0-92.024 74.6-166.625 166.625-166.625z m0 73.656c-51.362 0-93 41.638-93 93s41.638 93 93 93 93-41.638 93-93-41.638-93-93-93z" p-id="1396"></path></svg>