<?xml version="1.0" standalone="no"?><!DOCTYPE svg PUBLIC "-//W3C//DTD SVG 1.1//EN" "http://www.w3.org/Graphics/SVG/1.1/DTD/svg11.dtd"><svg t="1678329987556" class="icon" viewBox="0 0 1024 1024" version="1.1" xmlns="http://www.w3.org/2000/svg" p-id="1258" xmlns:xlink="http://www.w3.org/1999/xlink" width="200" height="200"><path d="M744.128 456a216 216 0 1 1 0 432 216 216 0 0 1 0-432z m-294.144 75.008c23.296 0 46.4 0.896 69.248 2.816a261.184 261.184 0 0 0-30.72 71.808 624.448 624.448 0 0 0-35.072-0.96h-3.52c-107.52-0.448-213.76 22.656-311.424 67.648L136 673.472v93.888h361.92c10.432 27.008 25.216 51.84 43.456 73.664H70.272a7.744 7.744 0 0 1-7.744-7.552v-167.36c0-23.936 13.76-45.76 35.392-56.064a811.008 811.008 0 0 1 352-79.04zM744.128 520a151.04 151.04 0 0 0-107.52 44.48A151.04 151.04 0 0 0 592.128 672c0 40.576 15.808 78.784 44.544 107.52A151.04 151.04 0 0 0 744.192 824a151.04 151.04 0 0 0 107.456-44.48A151.04 151.04 0 0 0 896.128 672a151.04 151.04 0 0 0-44.48-107.52A151.04 151.04 0 0 0 744.128 520z m19.84 48c4.48 0 8.064 3.584 8.064 8v84.416l52.096 52.16a8 8 0 0 1 0.192 11.072l-28.48 28.48a8 8 0 0 1-11.264 0l-63.872-63.872a16 16 0 0 1-4.672-11.264V576c0-4.416 3.52-8 7.936-8h40.064z m-313.92-432.256a166.656 166.656 0 1 1 0 333.248 166.656 166.656 0 0 1 0-333.248z m0 73.664a92.992 92.992 0 1 0 0 185.984 92.992 92.992 0 0 0 0-185.984z" p-id="1259"></path></svg>