<?xml version="1.0" standalone="no"?><!DOCTYPE svg PUBLIC "-//W3C//DTD SVG 1.1//EN" "http://www.w3.org/Graphics/SVG/1.1/DTD/svg11.dtd"><svg t="1740451867795" class="icon" viewBox="0 0 1024 1024" version="1.1" xmlns="http://www.w3.org/2000/svg" p-id="1030" xmlns:xlink="http://www.w3.org/1999/xlink" width="200" height="200"><path d="M744.151 456c119.3 0 216 96.7 216 216s-96.7 216-216 216-216-96.7-216-216 96.7-216 216-216z m-297.805 74.995L450 531c23.282 0 46.34 0.934 69.173 2.8a262.318 262.318 0 0 0-30.58 71.713 738.096 738.096 0 0 0-35.183-0.857H450a737.18 737.18 0 0 0-311.426 67.642l-2.48 1.178v93.868l361.798 0.001c10.452 26.98 25.21 51.813 43.43 73.657H70.25a7.753 7.753 0 0 1-7.75-7.504v-167.4a62 62 0 0 1 35.402-56.048 811.022 811.022 0 0 1 348.444-79.055zM744.151 520c-40.6 0-78.8 15.8-107.5 44.5-28.7 28.7-44.5 66.9-44.5 107.5 0 40.6 15.8 78.8 44.5 107.5 28.7 28.7 66.9 44.5 107.5 44.5 40.6 0 78.8-15.8 107.5-44.5 28.7-28.7 44.5-66.9 44.5-107.5 0-40.6-15.8-78.8-44.5-107.5-28.7-28.7-66.9-44.5-107.5-44.5z m-49.932 72a16 16 0 0 1 14.75 9.797l35.896 85.356h0.55l36.549-85.445a16 16 0 0 1 14.71-9.708H828.1a8 8 0 0 1 7.304 11.263l-73.275 164a8 8 0 0 1-7.304 4.737H730.84a8 8 0 0 1-7.342-4.821l-71.016-164a8 8 0 0 1 7.34-11.179h34.397zM450 135.75c59.53 0 114.537 31.759 144.301 83.312 29.765 51.554 29.765 115.072 0 166.626C564.537 437.24 509.53 469 450 469c-92.024 0-166.625-74.6-166.625-166.625 0-92.024 74.6-166.625 166.625-166.625z m0 73.656c-51.362 0-93 41.638-93 93s41.638 93 93 93 93-41.638 93-93-41.638-93-93-93z" p-id="1031"></path></svg>