<?xml version="1.0" standalone="no"?><!DOCTYPE svg PUBLIC "-//W3C//DTD SVG 1.1//EN" "http://www.w3.org/Graphics/SVG/1.1/DTD/svg11.dtd"><svg t="1677583751662" class="icon" viewBox="0 0 1024 1024" version="1.1" xmlns="http://www.w3.org/2000/svg" p-id="1408" xmlns:xlink="http://www.w3.org/1999/xlink" width="200" height="200"><path d="M404.032 556.032c116.032 0 219.648 29.44 310.72 88.384A64 64 0 0 1 744 698.176v139.84a8 8 0 0 1-7.744 8H72a8 8 0 0 1-8-7.744v-139.52a64 64 0 0 1 29.056-53.568c91.136-59.456 194.816-89.216 310.976-89.152z m3.008 72h-3.008c-100.416 0-188.8 24.768-266.88 74.368l-1.152 0.768v70.848h536v-71.488l-1.088-0.64c-77.312-48.832-164.736-73.408-263.872-73.92v0.064zM952 560c4.416 0 8 3.584 8 8v48a8 8 0 0 1-8 8H768a8 8 0 0 1-8-8v-48c0-4.416 3.584-8 8-8h184zM403.968 184a150.016 150.016 0 1 1 6.208 299.968A150.016 150.016 0 0 1 403.968 184zM952 400c4.416 0 8 3.584 8 8v48a8 8 0 0 1-8 8H648a8 8 0 0 1-8-8v-48c0-4.416 3.584-8 8-8h304zM403.968 259.968a74.048 74.048 0 1 0 0 148.032 74.048 74.048 0 0 0 0-148.032zM952 240c4.416 0 8 3.584 8 8v48a8 8 0 0 1-8 8H648a8 8 0 0 1-8-8v-48c0-4.416 3.584-8 8-8h304z" p-id="1409"></path></svg>