<?xml version="1.0" standalone="no"?><!DOCTYPE svg PUBLIC "-//W3C//DTD SVG 1.1//EN" "http://www.w3.org/Graphics/SVG/1.1/DTD/svg11.dtd"><svg t="1648990189280" class="icon" viewBox="0 0 1024 1024" version="1.1" xmlns="http://www.w3.org/2000/svg" p-id="23429" xmlns:xlink="http://www.w3.org/1999/xlink" width="200" height="200"><defs><style type="text/css">@font-face { font-family: feedback-iconfont; src: url("//at.alicdn.com/t/font_1031158_u69w8yhxdu.woff2?t=1630033759944") format("woff2"), url("//at.alicdn.com/t/font_1031158_u69w8yhxdu.woff?t=1630033759944") format("woff"), url("//at.alicdn.com/t/font_1031158_u69w8yhxdu.ttf?t=1630033759944") format("truetype"); }
</style></defs><path d="M928 160c17.523 0 31.714 14.015 32 31.47V832c0 17.523-14.015 31.714-31.47 32H96c-17.523 0-31.714-14.015-32-31.47V192c0-17.523 14.015-31.714 31.47-32H928z m-40 72H136v560h752V232zM472.626 346a8 8 0 0 1 6.993 4.115l63.374 114.073a8 8 0 0 1 1.007 3.885V666a8 8 0 0 1-8 8h-40a8 8 0 0 1-8-8v-24H256v24a8 8 0 0 1-8 8h-40a8 8 0 0 1-8-8V468.073a8 8 0 0 1 1.007-3.885l63.374-114.073a8 8 0 0 1 6.993-4.115h201.252zM800.8 556c3.9 0 7.1 3.6 7.1 8v48h0.1c0 4.4-3.2 8-7.1 8H615.1c-3.9 0-7.1-3.6-7.1-8v-48c0-4.4 3.2-8 7.1-8h185.7zM488 506H256v80h232v-80z m-184 16c13.255 0 24 10.745 24 24s-10.745 24-24 24-24-10.745-24-24 10.745-24 24-24z m136 0c13.255 0 24 10.745 24 24s-10.745 24-24 24-24-10.745-24-24 10.745-24 24-24z m360.8-110c3.9 0 7.1 3.6 7.1 8v48h0.1c0 4.4-3.2 8-7.1 8H615.1c-3.9 0-7.1-3.6-7.1-8v-48c0-4.4 3.2-8 7.1-8h185.7z m-356.417-10H299.616l-35.556 64h215.878l-35.555-64z" p-id="23430"></path></svg>