<?xml version="1.0" standalone="no"?><!DOCTYPE svg PUBLIC "-//W3C//DTD SVG 1.1//EN" "http://www.w3.org/Graphics/SVG/1.1/DTD/svg11.dtd"><svg t="1677999437858" class="icon" viewBox="0 0 1024 1024" version="1.1" xmlns="http://www.w3.org/2000/svg" p-id="1654" xmlns:xlink="http://www.w3.org/1999/xlink" width="200" height="200"><path d="M512 64a352 352 0 0 1 183.296 652.608L766.912 888H856c4.416 0 8 3.584 8 8v56a8 8 0 0 1-8 8H168a8 8 0 0 1-8-8v-56c0-4.416 3.584-8 8-8h89.088l71.68-171.392A352 352 0 0 1 512 64z m118.208 683.648A351.36 351.36 0 0 1 512 768a351.36 351.36 0 0 1-118.208-20.352L335.168 888h353.664l-58.624-140.352zM512 139.968a276.032 276.032 0 1 0 0 552.064 276.032 276.032 0 0 0 0-552.064zM442.688 456c13.696 23.68 39.168 39.68 68.48 40h0.64l-0.064 24.896v31.488c0 30.144 0 59.52 0.128 84.16v4.736l0.064 6.144a8 8 0 0 1-8.64 8l-1.28-0.128a114.816 114.816 0 0 1-13.568-1.792 112 112 0 0 1-46.72-196.736l0.96-0.768z m300.8-40a8 8 0 0 1 7.936 8.64l-0.064 1.344a112.896 112.896 0 0 1-1.6 12.48A112 112 0 0 1 552 485.312c23.68-13.696 39.68-39.168 40-68.48v-0.64l45.824 0.064c22.272 0 49.408 0 81.408-0.128l24.192-0.128zM512 368a48 48 0 1 1 0 96 48 48 0 0 1 0-96z m-128-64c35.712 0 67.456 16.64 88 42.688a80 80 0 0 0-40 68.48v0.64l-24.896-0.064H375.68c-30.144 0-59.52 0-84.16 0.128h-4.8l-6.144 0.064a8 8 0 0 1-8.064-8.576c0.448-5.76 1.024-10.24 1.664-13.568A112 112 0 0 1 384 304z m136-127.552h0.64l1.152 0.128A112 112 0 0 1 581.312 376a80 80 0 0 0-68.48-40h-0.64l0.064-24.896V279.68c0-31.36 0-61.952-0.192-87.168v-7.936c0-4.48 3.52-8.064 7.936-8.064z" p-id="1655"></path></svg>