<?xml version="1.0" standalone="no"?><!DOCTYPE svg PUBLIC "-//W3C//DTD SVG 1.1//EN" "http://www.w3.org/Graphics/SVG/1.1/DTD/svg11.dtd"><svg t="1679048033449" class="icon" viewBox="0 0 1024 1024" version="1.1" xmlns="http://www.w3.org/2000/svg" p-id="2260" xmlns:xlink="http://www.w3.org/1999/xlink" width="200" height="200"><path d="M792 552a168 168 0 1 1 0 336 168 168 0 0 1 0-336zM495.04 88a56 56 0 0 1 52.736 74.752l184.96 72.448a32 32 0 0 1 20.288 29.824v174.4l98.496 43.136a31.656 31.656 0 0 1 17.152 18.176 22.976 22.976 0 0 1 1.152 5.12l0.064 0.512a8 8 0 0 1-10.496 8.448l-1.088-0.384-1.6-0.512-1.472-0.448-0.896-0.32-1.28-0.384-0.832-0.256a215.488 215.488 0 0 0-103.04-4.288l-1.216 0.256-1.28 0.256-1.344 0.32-1.472 0.384-1.6 0.384-1.664 0.384-1.152 0.32-1.792 0.448-1.28 0.32a16.32 16.32 0 0 1-11.648-1.344L527.488 423.68V608a8 8 0 0 1-8 8h-48a8 8 0 0 1-8-8V423.296l-255.872 112 75.008 192.64a99.4 99.4 0 0 1 22.848 15.552l42.048 39.36a27.968 27.968 0 0 0 37.952 0.256l41.216-38.528a100.032 100.032 0 0 1 128-7.168l8.64 7.168 11.904 11.2a16.256 16.256 0 0 1 5.504 9.024l0.384 1.92 0.448 1.728 0.384 1.728 0.448 2.048 0.512 1.92 0.192 0.96 0.448 1.664 0.32 1.152 0.192 0.704c6.784 24.064 17.6 46.464 31.744 66.304l0.512 0.832a121.6 121.6 0 0 0 0.32 0.384l0.64 0.832 0.64 0.896 0.768 0.96a8 8 0 0 1-7.168 12.8 99.584 99.584 0 0 1-55.36-25.152l-42.048-39.296a27.968 27.968 0 0 0-37.888-0.32l-41.28 38.528a100.032 100.032 0 0 1-128 7.232l-8.576-7.232-40.96-38.208a27.968 27.968 0 0 0-37.888-0.32l-79.104 73.984a8 8 0 0 1-11.264-0.384l-38.272-40.96a8 8 0 0 1 0.384-11.264l78.72-73.664c9.088-8.448 19.2-14.848 30.08-19.328l-78.656-201.792a32 32 0 0 1 17.024-40.96l98.56-43.072v-174.4a32 32 0 0 1 20.416-29.888l185.024-71.552a56 56 0 0 1 52.48-75.52zM792 616c-27.776 0-53.888 10.816-73.6 30.464A103.36 103.36 0 0 0 688 720c0 27.776 10.816 53.888 30.464 73.6C738.112 813.184 764.224 824 792 824c27.776 0 53.888-10.816 73.6-30.464C885.184 773.888 896 747.776 896 720c0-27.776-10.816-53.888-30.464-73.6A103.36 103.36 0 0 0 792 616z m56 81.024a8.02 8.02 0 0 1 7.616 5.44l0.384 2.56v32a8 8 0 0 1-5.44 7.552l-2.56 0.448H736a8 8 0 0 1-7.616-5.504l-0.384-2.56v-32c0-3.52 2.304-6.464 5.44-7.552l2.56-0.384h112zM496.448 211.328l-195.456 75.584V411.52l181.12-79.36a32 32 0 0 1 25.728 0l181.12 79.36V286.848l-192.512-75.52z" p-id="2261"></path></svg>