<?xml version="1.0" standalone="no"?><!DOCTYPE svg PUBLIC "-//W3C//DTD SVG 1.1//EN" "http://www.w3.org/Graphics/SVG/1.1/DTD/svg11.dtd"><svg t="1681871836045" class="icon" viewBox="0 0 1024 1024" version="1.1" xmlns="http://www.w3.org/2000/svg" p-id="1110" xmlns:xlink="http://www.w3.org/1999/xlink" width="200" height="200"><path d="M138.56 524.8l0.704-1.728a32.192 32.192 0 0 1 16.512-16.512l98.56-43.136v-174.4a32 32 0 0 1 20.288-29.824h0.128l2.56-1.088 182.208-71.36a55.68 55.68 0 0 1-2.88-12.288l-0.384-6.464a56 56 0 1 1 108.8 18.752l182.016 71.36 2.752 1.024a32 32 0 0 1 19.968 24.32l0.512 5.568V463.36l98.496 43.136a31.872 31.872 0 0 1 17.152 18.176l0.32 0.832a31.872 31.872 0 0 1-0.512 21.888l-78.528 201.792c10.88 4.48 20.992 10.88 30.016 19.328l78.72 73.664c3.264 3.008 3.456 8.064 0.448 11.328L878.144 894.4a8 8 0 0 1-11.264 0.384L787.776 820.8a27.968 27.968 0 0 0-37.952 0.32l-40.96 38.208-8.576 7.232a99.904 99.904 0 0 1-71.296 19.072h-0.192a59.392 59.392 0 0 1-2.944-0.384l-1.92-0.32a100.16 100.16 0 0 1-4.8-0.96l6.72 1.28a100.096 100.096 0 0 1-53.568-25.92l4.416 3.84a101.184 101.184 0 0 1-3.2-2.752l-32-29.888-10.432-9.728a27.904 27.904 0 0 0-10.368-5.952l1.472 0.512a27.968 27.968 0 0 0-4.864-1.344l3.392 0.832a28.032 28.032 0 0 0-5.76-1.152l2.368 0.32a28.16 28.16 0 0 0-10.048 0l2.304-0.32a28.032 28.032 0 0 0-5.76 1.152l3.456-0.832a27.968 27.968 0 0 0-4.864 1.344l1.472-0.512a27.904 27.904 0 0 0-10.368 5.952l-41.28 38.528-0.512 0.448-0.64 0.64a101.248 101.248 0 0 1-2.368 2.112l3.52-3.2a100.928 100.928 0 0 1-42.24 23.552 100.032 100.032 0 0 1-11.264 2.368l6.72-1.28-4.8 0.96-1.92 0.32a59.392 59.392 0 0 1-3.2 0.32 99.648 99.648 0 0 1-71.296-19.008l-8.576-7.232-40.96-38.208a27.968 27.968 0 0 0-37.888-0.32l-79.104 73.984a8 8 0 0 1-11.264-0.384l-38.272-40.96a8 8 0 0 1 0.384-11.264l78.72-73.664c9.088-8.448 19.2-14.848 30.08-19.328l-78.656-201.728a31.872 31.872 0 0 1-0.64-21.376l0.448-1.28zM487.808 640a8 8 0 0 1-8-8V447.68l-61.568 26.88-193.28 84.672 74.944 192.704a99.4 99.4 0 0 1 22.848 15.552l42.048 39.36a27.968 27.968 0 0 0 37.952 0.256l41.216-38.528c2.56-2.368 5.12-4.544 7.808-6.592l0.832-0.64a99.904 99.904 0 0 1 58.88-19.712h1.536a100.48 100.48 0 0 1 16.64 1.536l1.472 0.256a100.096 100.096 0 0 1 40.832 17.92l1.28 0.96 7.36 6.272 41.216 38.528a27.968 27.968 0 0 0 37.888-0.256l42.112-39.36a99.84 99.84 0 0 1 22.848-15.552l74.944-192.64-173.312-75.904-81.536-35.712V632a8 8 0 0 1-8 8z m32.256-285.568l5.056 1.728 181.12 79.296V310.912l-193.92-75.008-194.048 75.008v124.544l181.12-79.36a32 32 0 0 1 15.488-2.56l5.184 0.896z" p-id="1111"></path></svg>