<?xml version="1.0" standalone="no"?>
<svg viewBox="0 0 24 24" focusable="false"><path fill-rule="nonzero" stroke="none" stroke-width="1" d="M17.81 11.53a5.06 5.06 0 1 1 0 10.13 5.06 5.06 0 0 1 0-10.13Zm-3 3.13a3.54 3.54 0 0 0 .48 4.45 3.54 3.54 0 0 0 4.46.48l-4.93-4.93Zm5.06-11.48c.38 0 .7.28.75.64v7.26a6.14 6.14 0 0 0-1.68-.57V4.86H3.19V18h8.6c.13.6.36 1.17.66 1.69H2.25a.75.75 0 0 1-.74-.65l-.01-.1v-15c0-.38.28-.7.65-.75h17.73Zm-2.06 9.85c-.7 0-1.36.2-1.93.57l4.93 4.93a3.54 3.54 0 0 0-.48-4.46 3.54 3.54 0 0 0-2.52-1.04Zm-8.44-4.8.05.04 3.82 2.92a.3.3 0 0 1 .05.44l-.05.05-3.82 2.93a.3.3 0 0 1-.48-.18l-.01-.07V8.51a.3.3 0 0 1 .44-.28Z" transform="translate(-611 -546) translate(568 520) translate(16 16) translate(27 10)" /></svg>
