<?xml version="1.0" standalone="no"?><!DOCTYPE svg PUBLIC "-//W3C//DTD SVG 1.1//EN" "http://www.w3.org/Graphics/SVG/1.1/DTD/svg11.dtd"><svg t="1726047918964" class="icon" viewBox="0 0 1024 1024" version="1.1" xmlns="http://www.w3.org/2000/svg" p-id="778" xmlns:xlink="http://www.w3.org/1999/xlink" width="200" height="200"><path d="M776 480a216.064 216.064 0 1 1-0.128 432.128A216.064 216.064 0 0 1 776 480z m0 64a152.192 152.192 0 0 0-152 152 152.192 152.192 0 0 0 259.52 107.52A152.192 152.192 0 0 0 776 544z m104-408a32 32 0 0 1 32 32v256a8 8 0 0 1-8 8h-56a8 8 0 0 1-8-8V208H136v560h368c4.416 0 8 3.584 8 8v56a8 8 0 0 1-8 8H96a32 32 0 0 1-32-32V168a32 32 0 0 1 32-32h784z m-83.968 456c4.416 0 7.936 3.584 7.936 8v84.416l52.16 52.16a8 8 0 0 1 0.192 11.072l-28.48 28.48a8 8 0 0 1-11.264 0l-63.872-63.872a16 16 0 0 1-4.672-11.264V600c0-4.416 3.52-8 7.936-8h40.064z m-212.8-91.264L433.664 614.464A16 16 0 0 1 408 601.728V374.272a16 16 0 0 1 25.664-12.8l149.568 113.792a16 16 0 0 1 0 25.472z" p-id="779"></path></svg>