<?xml version="1.0" standalone="no"?><!DOCTYPE svg PUBLIC "-//W3C//DTD SVG 1.1//EN" "http://www.w3.org/Graphics/SVG/1.1/DTD/svg11.dtd"><svg t="1677839660385" class="icon" viewBox="0 0 1024 1024" version="1.1" xmlns="http://www.w3.org/2000/svg" p-id="2937" xmlns:xlink="http://www.w3.org/1999/xlink" width="200" height="200"><path d="M752 240H144a32 32 0 0 0-32 32v608a32 32 0 0 0 32 32h608a32 32 0 0 0 32-32V272a32 32 0 0 0-32-32z m-40 600H184V312h528v528zM379.008 691.264V460.8a8 8 0 0 1 12.672-6.464l158.464 115.2a8 8 0 0 1 0 12.992l-158.464 115.2a8 8 0 0 1-12.672-6.4v-0.064zM880 112H264a8 8 0 0 0-8 8v56c0 4.416 3.584 8 8 8h576v576c0 4.416 3.584 8 8 8h56a8 8 0 0 0 8-8V144a32 32 0 0 0-32-32z" p-id="2938"></path></svg>