<?xml version="1.0" standalone="no"?><!DOCTYPE svg PUBLIC "-//W3C//DTD SVG 1.1//EN" "http://www.w3.org/Graphics/SVG/1.1/DTD/svg11.dtd"><svg t="1725006942703" class="icon" viewBox="0 0 1024 1024" version="1.1" xmlns="http://www.w3.org/2000/svg" p-id="1587" xmlns:xlink="http://www.w3.org/1999/xlink" width="200" height="200"><path d="M729.969 112.32c1.925 0 3.737 1.08 4.892 2.916l0.978 1.574L870.77 331.112l0.783 1.283c1.36 2.208 1.567 5.14 0.535 7.589-1.032 2.448-3.129 4-5.427 4.016h-20.35l93.312 141.438 1.565 2.508c1.4 2.225 1.617 5.208 0.556 7.686-1.025 2.397-3.07 3.918-5.313 3.977H874.86l84.723 131.974 2.935 4.782c2.25 3.557 1.663 8.164-1.028 10.497-1.045 0.935-2.313 1.445-3.62 1.458H746.487v141.679L944 790c8.837 0 16 7.163 16 16v40c0 8.837-7.163 16-16 16H80c-8.837 0-16-7.163-16-16v-40c0-8.837 7.163-16 16-16l602.486-0.001V592h64v0.32h121.343l-95.467-148.71 72.577-0.001L742.279 288l35.17-0.001-47.487-75.421-47.475 75.421 35.059 0.001-52.95 80.35-63.863-55.595L724.44 116.227l0.636-0.991c1.155-1.836 2.967-2.916 4.892-2.916zM366 176c2.908 0 5.696 1.007 7.75 2.8l280.034 243.779c3.139 2.725 4.079 6.83 2.381 10.395-1.697 3.565-5.697 5.887-10.13 5.88h-39.23V732.47c0 5.263-4.9 9.529-10.946 9.529H136.141c-6.046 0-10.946-4.266-10.946-9.529V438.854h-39.23c-4.433 0.007-8.433-2.315-10.13-5.88-1.698-3.565-0.758-7.67 2.381-10.395l280.034-243.78c2.054-1.792 4.842-2.799 7.75-2.799z m-0.001 80.905L189.194 410.821V678h353.611V410.821L365.999 256.905zM446 445c8.837 0 16 7.163 16 16v136c0 8.837-7.163 16-16 16H286c-8.837 0-16-7.163-16-16V461c0-8.837 7.163-16 16-16h160z m-32 48h-96v72h96v-72z" p-id="1588"></path></svg>