<?xml version="1.0" standalone="no"?><!DOCTYPE svg PUBLIC "-//W3C//DTD SVG 1.1//EN" "http://www.w3.org/Graphics/SVG/1.1/DTD/svg11.dtd"><svg t="1648461250966" class="icon" viewBox="0 0 1024 1024" version="1.1" xmlns="http://www.w3.org/2000/svg" p-id="106284" xmlns:xlink="http://www.w3.org/1999/xlink" width="200" height="200"><defs><style type="text/css">@font-face { font-family: feedback-iconfont; src: url("//at.alicdn.com/t/font_1031158_u69w8yhxdu.woff2?t=1630033759944") format("woff2"), url("//at.alicdn.com/t/font_1031158_u69w8yhxdu.woff?t=1630033759944") format("woff"), url("//at.alicdn.com/t/font_1031158_u69w8yhxdu.ttf?t=1630033759944") format("truetype"); }
</style></defs><path d="M928 140c17.523 0 31.714 14.015 32 31.47V708c0 17.523-14.015 31.714-31.47 31.996L928 740H548v72h172c8.695 0 15.828 7.03 15.997 15.686L736 828v48c0 4.317-3.465 7.864-7.752 8H296c-4.317 0-7.864-3.465-7.996-7.752L288 876v-48c0-8.695 7.03-15.828 15.686-15.997L304 812h172v-72H96c-17.523 0-31.714-14.015-32-31.47V172c0-17.523 14.015-31.714 31.47-32H928z m-40 72H136v456h752V212zM646.125 571.5c0 8.731-6.994 15.83-15.685 15.997l-0.315 0.003h-286.75c-8.731 0-15.83-6.994-16-15.685V308.5c0-8.731 6.994-15.83 15.685-15.997l0.315-0.003h286.75c8.731 0 15.83 6.994 16 15.685v68.065l60-34.547c9.885-5.708 22.25 1.31 22.5 12.64v171.016c0 11.37-12.267 18.559-22.2 13.107l-0.3-0.17-60-34.546v67.75z m-52-227h-214.75v191h214.75v-191z" p-id="106285"></path></svg>