<?xml version="1.0" standalone="no"?><!DOCTYPE svg PUBLIC "-//W3C//DTD SVG 1.1//EN" "http://www.w3.org/Graphics/SVG/1.1/DTD/svg11.dtd"><svg t="1661759945155" class="icon" viewBox="0 0 1024 1024" version="1.1" xmlns="http://www.w3.org/2000/svg" p-id="22938" xmlns:xlink="http://www.w3.org/1999/xlink" width="200" height="200"><path d="M841.278 612.462c-21.24 31.332-160.402 226.652-328.91 226.652s-307.67-195.32-328.91-226.652a7.455 7.455 0 0 1 0-8.435c21.24-31.333 160.402-226.652 328.91-226.652 168.508 0 307.67 195.32 328.91 226.652a7.455 7.455 0 0 1 0 8.435m63.47-22.431c-43.737-64.42-202.823-277.66-392.38-277.66s-348.646 213.24-392.38 277.66a32.422 32.422 0 0 0 0 36.426c43.734 64.42 202.823 277.66 392.38 277.66s348.643-213.24 392.38-277.66a32.422 32.422 0 0 0 0-36.426" p-id="22939"></path><path d="M512.5 713.804c-57.934 0-104.899-46.964-104.899-104.899 0-57.933 46.964-104.898 104.899-104.898 57.933 0 104.898 46.964 104.898 104.898S570.434 713.804 512.5 713.804m0-273.234c-92.97 0-168.336 75.366-168.336 168.335S419.531 777.241 512.5 777.241s168.335-75.366 168.335-168.336S605.47 440.57 512.5 440.57M487.07 248.442l48.425 0.076a8.116 8.116 0 0 0 8.128-8.104l0.178-113.797a8.115 8.115 0 0 0-8.102-8.129l-48.425-0.076a8.116 8.116 0 0 0-8.129 8.103l-0.176 113.797a8.115 8.115 0 0 0 8.102 8.13M634.089 269.657l45.316 17.51c4.196 1.621 8.913-0.453 10.54-4.633l41.287-106.113c1.627-4.18-0.454-8.882-4.65-10.503l-45.315-17.51c-4.194-1.622-8.913 0.453-10.54 4.632L629.44 259.154c-1.626 4.179 0.456 8.881 4.65 10.503m122.973 71.881l33.812 34.639c3.129 3.205 8.278 3.28 11.499 0.166l81.795-79.051a8.065 8.065 0 0 0 0.168-11.443l-33.811-34.638c-3.13-3.205-8.28-3.28-11.501-0.166l-81.794 79.05a8.064 8.064 0 0 0-0.168 11.443m-366.151-71.881l-45.316 17.51c-4.196 1.621-8.914-0.453-10.54-4.633l-41.288-106.113c-1.626-4.18 0.455-8.882 4.65-10.503l45.316-17.51c4.194-1.622 8.913 0.453 10.54 4.632l41.288 106.114c1.625 4.179-0.457 8.881-4.65 10.503m-122.973 71.881l-33.812 34.639c-3.13 3.205-8.278 3.28-11.5 0.166l-81.794-79.051a8.065 8.065 0 0 1-0.168-11.443l33.81-34.638c3.13-3.205 8.28-3.28 11.502-0.166l81.794 79.05a8.064 8.064 0 0 1 0.168 11.443" p-id="22940"></path></svg>