<?xml version="1.0" standalone="no"?><!DOCTYPE svg PUBLIC "-//W3C//DTD SVG 1.1//EN" "http://www.w3.org/Graphics/SVG/1.1/DTD/svg11.dtd"><svg t="1679049593290" class="icon" viewBox="0 0 1024 1024" version="1.1" xmlns="http://www.w3.org/2000/svg" p-id="1428" xmlns:xlink="http://www.w3.org/1999/xlink" width="200" height="200"><path d="M904 820.032c4.416 0 8 3.968 8 8.96v54.016c0 4.992-3.584 8.96-8 8.96H120c-4.416 0-8-3.968-8-8.96v-54.016c0-4.992 3.584-8.96 8-8.96h784zM904 648c4.416 0 8 4.032 8 8.96v54.016c0 4.992-3.584 9.024-8 9.024H678.912a329.984 329.984 0 0 0 83.2-72H904z m-784 0h141.952a330.24 330.24 0 0 0 83.2 72H120c-4.416 0-8-4.032-8-8.96v-54.016c0-4.992 3.584-9.024 8-9.024z m392-340.032c120.192 0 209.92 62.912 269.184 187.904l1.216 2.56a32 32 0 0 1 0.192 26.752l-0.256 0.512-1.152 2.368C721.92 653.12 632.32 716.032 512 716.032c-120.192 0-209.92-62.912-269.184-187.904l-1.152-2.432a32 32 0 0 1-0.256-26.88l0.256-0.512 1.152-2.368C302.08 370.88 391.68 308.032 512 308.032z m0 64c-90.368 0-156.608 43.84-205.44 139.2l-0.32 0.832 0.448 0.896c48.256 94.336 113.664 138.24 202.56 139.072H512c90.368 0 156.608-43.776 205.44-139.136l0.32-0.832-0.448-0.896c-48.256-94.336-113.664-138.24-202.56-139.072H512z m0 40a99.968 99.968 0 1 1 0.128 199.936A99.968 99.968 0 0 1 512 412.032z m0 56a43.968 43.968 0 1 0-0.128 87.936 43.968 43.968 0 0 0 0.128-87.872z m-312.896 8l-0.896 1.92-0.448 1.024a80 80 0 0 0 0.448 67.264l0.896 1.792H120c-4.416 0-8-3.968-8-8.96v-54.016c0-4.992 3.584-8.96 8-8.96h79.104z m704.896 0c4.416 0 8 4.032 8 9.024v54.016c0 4.992-3.584 8.96-8 8.96h-79.104l0.96-2.112 0.384-0.832a80 80 0 0 0-0.384-67.072l-0.96-1.92H904zM345.088 304a329.984 329.984 0 0 0-83.2 72H120.064c-4.416 0-8-4.032-8-8.96v-54.08c0-4.992 3.584-9.024 8-9.024h225.088z m333.76 0H904c4.416 0 8 4.032 8 8.96v54.016c0 4.992-3.584 9.024-8 9.024H762.112a330.176 330.176 0 0 0-83.2-72zM904 131.968c4.416 0 8 4.032 8 9.024v54.016c0 4.992-3.584 8.96-8 8.96H120c-4.416 0-8-3.968-8-8.96v-54.016c0-4.992 3.584-8.96 8-8.96h784z" p-id="1429"></path></svg>