<?xml version="1.0" standalone="no"?><!DOCTYPE svg PUBLIC "-//W3C//DTD SVG 1.1//EN" "http://www.w3.org/Graphics/SVG/1.1/DTD/svg11.dtd"><svg t="1679309418968" class="icon" viewBox="0 0 1024 1024" version="1.1" xmlns="http://www.w3.org/2000/svg" p-id="2630" xmlns:xlink="http://www.w3.org/1999/xlink" width="200" height="200"><path d="M904 820.032c4.416 0 8 3.968 8 8.96v54.016c0 4.992-3.584 8.96-8 8.96H120c-4.416 0-8-3.968-8-8.96v-54.016c0-4.992 3.584-8.96 8-8.96h784z m8-163.008v53.952c0 4.992-3.584 9.024-8 9.024H706.24a8.128 8.128 0 0 1-8.96-6.976 8 8 0 0 1 3.456-7.68l3.136-2.112 0.64-0.448h0.064c18.624-13.952 36.096-30.144 52.288-48.64l1.728-1.984 1.088-1.344a8.064 8.064 0 0 1 6.656-2.816H904c4.416 0 8 4.032 8 8.96zM120 648h137.408a8.128 8.128 0 0 1 6.912 2.816l1.92 2.24 1.6 1.92 0.96 0.96c18.368 20.736 38.336 38.528 59.776 53.376l1.28 0.896a5.376 5.376 0 0 1-2.944 9.792H120c-4.416 0-8-4.032-8-8.96v-54.016c0-4.992 3.584-9.024 8-9.024z m392-340.032c120.192 0 209.92 62.912 269.184 187.904l1.216 2.56a32 32 0 0 1 0.192 26.752l-0.256 0.512-1.152 2.368C721.92 653.12 632.32 716.032 512 716.032c-120.192 0-209.92-62.912-269.184-187.904l-1.152-2.432a32 32 0 0 1-0.256-26.88l0.256-0.512 1.152-2.368C302.08 370.88 391.68 308.032 512 308.032z m0 64c-90.368 0-156.608 43.84-205.44 139.2l-0.32 0.832 0.448 0.896c48.256 94.336 113.664 138.24 202.56 139.072H512c90.368 0 156.608-43.776 205.44-139.136l0.32-0.832-0.448-0.896c-48.256-94.336-113.664-138.24-202.56-139.072H512z m0 40a99.968 99.968 0 1 1 0.128 199.936A99.968 99.968 0 0 1 512 412.032z m0 56a43.968 43.968 0 1 0-0.128 87.936 43.968 43.968 0 0 0 0.128-87.872z m-317.056 17.92l-0.064 0.256a80 80 0 0 0 0 51.84l0.256 0.704 0.64 1.408a5.696 5.696 0 0 1-4.992 7.872H120c-4.416 0-8-3.968-8-8.96v-54.016c0-4.992 3.584-8.96 8-8.96h68.032a7.424 7.424 0 0 1 6.912 9.856zM912 484.992v54.016c0 4.992-3.584 8.96-8 8.96h-67.52a7.744 7.744 0 0 1-7.36-10.112l0.128-0.32a80 80 0 0 0 0.384-49.92l-0.256-0.768a8 8 0 0 1 8.064-10.88H904c4.416 0 8 4.032 8 9.024zM327.936 315.136a334.08 334.08 0 0 0-60.8 54.784l-1.28 1.408-1.536 1.92a8.128 8.128 0 0 1-6.784 2.752H120c-4.416 0-8-4.032-8-8.96v-54.08c0-4.992 3.584-9.024 8-9.024h204.544a6.08 6.08 0 0 1 3.584 10.944l-0.192 0.192zM704.256 304H904c4.416 0 8 4.032 8 8.96v54.016c0 4.992-3.584 9.024-8 9.024H766.592a8.128 8.128 0 0 1-6.912-2.816l-1.536-1.792-1.28-1.472-1.28-1.536a336.384 336.384 0 0 0-53.248-48.832l-1.408-0.96-0.896-0.64A7.68 7.68 0 0 1 704.256 304zM904 131.968c4.416 0 8 4.032 8 9.024v54.016c0 4.992-3.584 8.96-8 8.96H120c-4.416 0-8-3.968-8-8.96v-54.016c0-4.992 3.584-8.96 8-8.96h784z" p-id="2631"></path></svg>