<?xml version="1.0" standalone="no"?><!DOCTYPE svg PUBLIC "-//W3C//DTD SVG 1.1//EN" "http://www.w3.org/Graphics/SVG/1.1/DTD/svg11.dtd"><svg t="1653044688565" class="icon" viewBox="0 0 1024 1024" version="1.1" xmlns="http://www.w3.org/2000/svg" p-id="26960" xmlns:xlink="http://www.w3.org/1999/xlink" width="200" height="200"><defs><style type="text/css">@font-face { font-family: feedback-iconfont; src: url("//at.alicdn.com/t/font_1031158_u69w8yhxdu.woff2?t=1630033759944") format("woff2"), url("//at.alicdn.com/t/font_1031158_u69w8yhxdu.woff?t=1630033759944") format("woff"), url("//at.alicdn.com/t/font_1031158_u69w8yhxdu.ttf?t=1630033759944") format("truetype"); }
</style></defs><path d="M571 64.5a31.72 31.72 0 0 0-17.33 5.19L255.7 262.5H96a32 32 0 0 0-32 32V730a32 32 0 0 0 32 32h159.69l298 192.81A31.72 31.72 0 0 0 571 960a32.09 32.09 0 0 0 32.13-32.1V96.6A32.09 32.09 0 0 0 571 64.5z m-39.87 790L294.81 701.55 277 690H136V334.5h141l17.81-11.5 236.32-153z m402.09-476.97a354.56 354.56 0 0 0-72.79-112.4A8 8 0 0 0 849 265l-39.62 39.61a8 8 0 0 0-0.12 11.17 285.39 285.39 0 0 1 0 392.4 8 8 0 0 0 0.12 11.17L849 759a8 8 0 0 0 11.43-0.11 357.72 357.72 0 0 0 72.79-381.34z" p-id="26961"></path><path d="M731.72 384.73l-39.65 39.66a8 8 0 0 0-0.33 10.95 116.18 116.18 0 0 1 0 153.32 8 8 0 0 0 0.33 11l39.65 39.66a8 8 0 0 0 11.59-0.28 188.18 188.18 0 0 0 0-254 8 8 0 0 0-11.59-0.31z" p-id="26962"></path></svg>