<?xml version="1.0" standalone="no"?><!DOCTYPE svg PUBLIC "-//W3C//DTD SVG 1.1//EN" "http://www.w3.org/Graphics/SVG/1.1/DTD/svg11.dtd"><svg t="1695037126936" class="icon" viewBox="0 0 1024 1024" version="1.1" xmlns="http://www.w3.org/2000/svg" p-id="940" xmlns:xlink="http://www.w3.org/1999/xlink" width="200" height="200"><path d="M118.912 404.096l136.448 177.28L453.952 704.64a32 32 0 0 1 16.32 27.84V896a16 16 0 0 1-16 16h-56a16 16 0 0 1-16-16V766.208L183.488 639.936a32 32 0 0 1-12.224-14.336L83.776 423.104a20.032 20.032 0 0 1 35.2-19.008z m810.112-7.296c10.048 4.352 14.72 15.936 10.624 25.984l-0.128 0.384-87.488 202.496a32 32 0 0 1-11.776 14.016l-0.448 0.32-198.784 126.272V896a16 16 0 0 1-15.68 16h-56.32a16 16 0 0 1-16-15.68V732.48a32 32 0 0 1 15.872-27.648l0.384-0.192 198.592-123.264 136.448-177.28a20.032 20.032 0 0 1 24.704-7.36z m-148.8-238.72c61.056 61.12 61.056 160.064 0 221.12L534.4 624.96a32 32 0 0 1-45.248 0L243.328 379.2a156.352 156.352 0 0 1 221.056-221.12l47.36 47.36 47.36-47.36a156.352 156.352 0 0 1 221.12 0z m-170.176 50.944l-98.304 98.24-98.24-98.304a84.352 84.352 0 1 0-119.296 119.36l217.6 217.536 217.536-217.6c32.576-32.576 32.896-85.248 0.96-118.208l-0.96-1.024a84.352 84.352 0 0 0-119.296 0z" p-id="941"></path></svg>