<?xml version="1.0" standalone="no"?><!DOCTYPE svg PUBLIC "-//W3C//DTD SVG 1.1//EN" "http://www.w3.org/Graphics/SVG/1.1/DTD/svg11.dtd"><svg t="1677997637485" class="icon" viewBox="0 0 1024 1024" version="1.1" xmlns="http://www.w3.org/2000/svg" p-id="1362" xmlns:xlink="http://www.w3.org/1999/xlink" width="200" height="200"><path d="M270.72 769.984h51.392a8 8 0 0 0 7.552-5.504l171.264-517.888a8 8 0 0 0-7.616-10.496h-62.72a16 16 0 0 0-15.36 11.392L297.152 618.56h-1.472L177.92 247.488a16 16 0 0 0-15.36-11.392H99.84a8 8 0 0 0-7.552 10.496l170.88 517.888a8 8 0 0 0 7.552 5.504z m331.712-461.76h126.72c25.856 0 45.632 5.504 59.328 16.448 17.28 12.48 26.24 32.64 26.752 60.416 0 23.232-7.488 42.752-22.4 58.624-15.104 17.088-37.76 25.856-68.096 26.368h-122.24V308.16z m-72.96 461.76h64.96a8 8 0 0 0 8-8v-220.16h103.296l108.032 223.68c1.28 2.752 4.16 4.48 7.232 4.48h78.08a8 8 0 0 0 7.04-11.712L788.48 533.12c67.84-26.112 102.272-75.456 103.296-147.968-1.472-49.28-19.2-87.232-53.12-113.92-28.096-23.36-64.32-35.072-108.8-35.072h-200.32a8 8 0 0 0-8 8v517.888c0 4.48 3.584 8 8 8z" p-id="1363"></path></svg>