<?xml version="1.0" standalone="no"?><!DOCTYPE svg PUBLIC "-//W3C//DTD SVG 1.1//EN" "http://www.w3.org/Graphics/SVG/1.1/DTD/svg11.dtd"><svg t="1699340454292" class="icon" viewBox="0 0 1024 1024" version="1.1" xmlns="http://www.w3.org/2000/svg" p-id="931" xmlns:xlink="http://www.w3.org/1999/xlink" width="200" height="200"><path d="M376 64c4.416 0 8 3.584 8 8v88h380.032a32 32 0 0 1 32 31.36V928a32 32 0 0 1-32 32H259.904a32 32 0 0 1-32-31.488L228.096 192a32 32 0 0 1 31.424-32h0.576l52.032 0.064V72c0-4.416 3.584-8 8-8h55.936z m348.032 167.936h-424V888h424V231.936zM392.96 688v0.128a36.48 36.48 0 0 1 35.072 35.904c0 19.2-15.424 35.008-35.072 35.968a36.48 36.48 0 0 1-36.928-36.032A36.48 36.48 0 0 1 392.96 688z m120 0v0.128a36.48 36.48 0 0 1 35.008 35.904c0 19.2-15.36 35.008-35.008 35.968a36.48 36.48 0 0 1-36.992-36.032A36.48 36.48 0 0 1 512.96 688z m120 0v0.128a36.48 36.48 0 0 1 35.008 35.904c0 19.2-15.36 35.008-35.008 35.968a36.48 36.48 0 0 1-36.992-36.032A36.48 36.48 0 0 1 632.96 688zM392 568v0.064a35.968 35.968 0 1 1 0 72.128A35.968 35.968 0 0 1 392 568z m120 0v0.064a35.968 35.968 0 1 1 0 72.128A35.968 35.968 0 0 1 512 568z m120 0v0.064a35.968 35.968 0 1 1 0 72.128A35.968 35.968 0 0 1 632 568z m28.032-264c4.416 0 7.936 3.584 7.936 8v160a8 8 0 0 1-7.936 8H363.904a8 8 0 0 1-8-8V312c0-4.416 3.584-8 8-8h296z m-40.064 48H404.032v80h216v-80z" p-id="932"></path></svg>