<?xml version="1.0" standalone="no"?><!DOCTYPE svg PUBLIC "-//W3C//DTD SVG 1.1//EN" "http://www.w3.org/Graphics/SVG/1.1/DTD/svg11.dtd"><svg t="1648459302763" class="icon" viewBox="0 0 1024 1024" version="1.1" xmlns="http://www.w3.org/2000/svg" p-id="104459" xmlns:xlink="http://www.w3.org/1999/xlink" width="200" height="200"><defs><style type="text/css">@font-face { font-family: feedback-iconfont; src: url("//at.alicdn.com/t/font_1031158_u69w8yhxdu.woff2?t=1630033759944") format("woff2"), url("//at.alicdn.com/t/font_1031158_u69w8yhxdu.woff?t=1630033759944") format("woff"), url("//at.alicdn.com/t/font_1031158_u69w8yhxdu.ttf?t=1630033759944") format("truetype"); }
</style></defs><path d="M176 112h-56a8 8 0 0 0-8 8v784a8 8 0 0 0 8 8h56a8 8 0 0 0 8-8V743.43h118.7a8 8 0 0 0 8-8v-56a8 8 0 0 0-8-8H184V353.06h118.7a8 8 0 0 0 8-8v-56a8 8 0 0 0-8-8H184V120a8 8 0 0 0-8-8zM665.35 238.66l158.87 353a174.23 174.23 0 0 1 15.13 87.43 178.77 178.77 0 0 1-27.21 80.09 176.29 176.29 0 0 1-59.69 57.78 170.17 170.17 0 0 1-83.8 23.04H662.03a170.22 170.22 0 0 1-83.79-23.05 176.47 176.47 0 0 1-59.69-57.78 179 179 0 0 1-27.21-80.09 174.24 174.24 0 0 1 15.14-87.43l158.87-353m0-126.66a33.5 33.5 0 0 0-31 20L440.83 562.07C368 723.8 483.48 909 660.81 912h9.08c177.33-3 292.78-188.16 220-349.89L696.31 132a33.5 33.5 0 0 0-31-20z" p-id="104460"></path></svg>