<?xml version="1.0" standalone="no"?><!DOCTYPE svg PUBLIC "-//W3C//DTD SVG 1.1//EN" "http://www.w3.org/Graphics/SVG/1.1/DTD/svg11.dtd"><svg t="1678335560033" class="icon" viewBox="0 0 1024 1024" version="1.1" xmlns="http://www.w3.org/2000/svg" p-id="1794" xmlns:xlink="http://www.w3.org/1999/xlink" width="200" height="200"><path d="M286.4 124.352l-48.96 75.968a161.984 161.984 0 0 0-1.024 173.632l1.024 1.6 4.928 7.68a238.016 238.016 0 0 1 1.472 255.04l-1.472 2.368-4.928 7.68a161.984 161.984 0 0 0-1.024 173.632l1.024 1.6 48.896 76.032a8 8 0 0 1-6.72 12.352h-66.944a16 16 0 0 1-13.44-7.36l-25.664-39.936a238.016 238.016 0 0 1-1.472-255.04l1.472-2.368 4.928-7.68c33.92-52.864 34.304-120.512 1.024-173.632l-1.024-1.6-4.928-7.68a238.016 238.016 0 0 1-1.472-255.04l1.472-2.368 25.664-39.936a16 16 0 0 1 13.44-7.36h67.008a8 8 0 0 1 6.72 12.352z m608 0l-48.96 75.968a161.984 161.984 0 0 0-1.024 173.632l1.024 1.6 4.928 7.68a238.016 238.016 0 0 1 1.472 255.04l-1.472 2.368-4.928 7.68a161.984 161.984 0 0 0-1.024 173.632l1.024 1.6 48.896 76.032a8 8 0 0 1-6.72 12.352h-67.008a16 16 0 0 1-13.44-7.36l-25.664-39.936a238.016 238.016 0 0 1-1.472-255.04l1.472-2.368 4.928-7.68c33.92-52.864 34.304-120.512 1.024-173.632l-1.024-1.6-4.928-7.68a238.016 238.016 0 0 1-1.472-255.04l1.472-2.368 25.664-39.936a16 16 0 0 1 13.44-7.36h67.008a8 8 0 0 1 6.72 12.352z m-133.248 411.84a94.08 94.08 0 0 1-3.776 14.72 113.92 113.92 0 0 1-11.264 22.72l-5.12 7.936-1.6 2.56a285.824 285.824 0 0 0-29.12 61.888l-0.576 1.792-0.448 1.408-0.64 1.984-0.512 1.792-0.896 3.072-0.512 1.664a16.32 16.32 0 0 1-4.736 7.616l-241.984 241.92A16 16 0 0 1 448.64 912H384a8 8 0 0 1-5.568-13.632l367.36-367.424a8.64 8.64 0 0 1 11.136-3.264 7.899 7.899 0 0 1 4.224 8.512z m-58.88 259.84l0.384 2.048 0.448 1.92 0.256 1.28 0.256 1.216 0.384 1.664 0.256 1.088 0.256 1.024 0.256 0.96 0.128 0.448a296.539 296.539 0 0 0 9.216 29.184l0.896 2.24 0.576 1.472 0.512 1.28 0.96 2.368 0.832 2.112a8.128 8.128 0 0 1-2.432 9.472l-51.52 51.52A16 16 0 0 1 652.608 912h-64.576a8 8 0 0 1-5.632-13.632l104.576-104.64a8.576 8.576 0 0 1 11.136-3.2 8 8 0 0 1 4.096 5.504z m8.32-417.408l0.512 1.728 0.384 1.088 0.512 1.536 0.512 1.472 0.32 0.896 0.256 0.832c3.2 8.768 6.912 17.408 11.008 25.92l1.024 2.176 0.384 0.64 0.768 1.536 0.832 1.664 0.96 1.856 1.28 2.496 1.216 2.176a8.192 8.192 0 0 1-2.24 10.24L319.232 844.032a8 8 0 0 1-12.416-1.28l-19.584-30.592-6.976-10.816a8 8 0 0 1 1.088-9.92l414.912-414.912a8.192 8.192 0 0 1 11.2-1.984c1.472 1.024 2.56 2.432 3.072 4.096z m13.696-215.232a285.632 285.632 0 0 0-27.52 100.032l-389.056 389.12A7.424 7.424 0 0 1 296 643.712l1.216-2.304 0.832-1.6 0.576-1.088 0.448-0.896 0.064-0.192c14.72-30.016 23.872-61.952 27.392-94.4l387.264-387.328a6.528 6.528 0 0 1 10.496 7.488z m-93.696-37.76L328.704 427.584a8.064 8.064 0 0 1-14.016-2.56l-0.384-1.28-0.256-0.64a285.44 285.44 0 0 0-12.736-32.256l-0.96-2.112-0.704-1.408-0.768-1.536-0.64-1.28-0.96-1.856-1.28-2.496-0.832-1.6a8.192 8.192 0 0 1 2.304-10.24l251.584-251.648A16 16 0 0 1 560.384 112h64.576a8 8 0 0 1 5.632 13.632z m-203.968 0L275.2 277.12a8 8 0 0 1-13.76-6.4 93.42 93.42 0 0 1 2.048-11.648 113.92 113.92 0 0 1 14.4-32.64l68.736-107.008a16 16 0 0 1 13.44-7.36h60.864a8 8 0 0 1 5.696 13.632z" p-id="1795"></path></svg>