<?xml version="1.0" standalone="no"?><!DOCTYPE svg PUBLIC "-//W3C//DTD SVG 1.1//EN" "http://www.w3.org/Graphics/SVG/1.1/DTD/svg11.dtd"><svg t="1656904472565" class="icon" viewBox="0 0 1024 1024" version="1.1" xmlns="http://www.w3.org/2000/svg" p-id="1421" xmlns:xlink="http://www.w3.org/1999/xlink" width="200" height="200"><defs><style type="text/css">@font-face { font-family: feedback-iconfont; src: url("//at.alicdn.com/t/font_1031158_u69w8yhxdu.woff2?t=1630033759944") format("woff2"), url("//at.alicdn.com/t/font_1031158_u69w8yhxdu.woff?t=1630033759944") format("woff"), url("//at.alicdn.com/t/font_1031158_u69w8yhxdu.ttf?t=1630033759944") format("truetype"); }
</style></defs><path d="M759.253333 791.210667a107.093333 107.093333 0 0 1 5.546667-157.098667 175.957333 175.957333 0 0 0 8.533333-258.944l-13.696-13.44a107.093333 107.093333 0 0 1 4.693334-157.098667l136.96-119.168h-105.002667l-77.226667 67.2a176.085333 176.085333 0 0 0-7.68 258.389334l13.653334 13.44a107.008 107.008 0 0 1-5.162667 157.44 175.957333 175.957333 0 0 0-9.088 258.346666L809.941333 938.666667h97.578667l-148.266667-147.456z m-573.44-79.786667c0.853333-29.866667 14.378667-57.898667 37.12-77.312a175.957333 175.957333 0 0 0 8.490667-258.944l-13.653333-13.44a107.093333 107.093333 0 0 1 4.693333-157.098667l136.96-119.168H254.378667l-77.226667 67.2a176.085333 176.085333 0 0 0-7.68 258.389334l13.653333 13.44a107.008 107.008 0 0 1-5.12 157.44 175.957333 175.957333 0 0 0-9.130666 258.346666L268.074667 938.666667H365.653333l-148.394666-147.114667a105.984 105.984 0 0 1-31.488-80.085333z m143.402667-205.013333a174.336 174.336 0 0 1-2.986667 26.026666l292.266667-292.266666a176.426667 176.426667 0 0 1 54.357333-87.466667l77.226667-67.242667h-58.624l-368.426667 368.896c4.650667 16.938667 6.741333 34.517333 6.186667 52.053334zM481.493333 85.333333H404.138667l-34.474667 29.525334L236.714667 247.893333A107.221333 107.221333 0 0 0 238.506667 327.253333L481.493333 85.333333zM276.565333 375.168c10.325333 10.325333 19.328 21.930667 26.794667 34.474667l323.968-323.84H546.133333l-279.893333 278.912 10.368 10.453333z m337.536-66.176l-380.032 380.032a106.197333 106.197333 0 0 0 8.405334 73.429333l391.509333-392.32a176.64 176.64 0 0 1-19.754667-61.141333h-0.128z m0.938667 436.693333l-192.853333 192.853334H503.466667l133.76-133.76a176.768 176.768 0 0 1-22.058667-59.093334h-0.128z m123.648 168.149334l-24.234667 24.746666h49.664l-25.429333-24.746666zM678.698667 424.362667l-13.653334-13.653334c-1.152-1.152-2.176-2.432-3.328-3.584l-391.466666 391.424 40.789333 40.490667 387.797333-387.797333a107.562667 107.562667 0 0 0-20.138666-26.88z m-110.549334 514.176h81.237334l57.472-57.429334-40.789334-40.490666-97.92 97.92z m-183.893333-26.666667l231.936-231.893333a176.426667 176.426667 0 0 1 57.472-98.133334 105.813333 105.813333 0 0 0 37.12-77.610666l-367.189333 367.189333 40.661333 40.448z" p-id="1422"></path></svg>