<?xml version="1.0" standalone="no"?><!DOCTYPE svg PUBLIC "-//W3C//DTD SVG 1.1//EN" "http://www.w3.org/Graphics/SVG/1.1/DTD/svg11.dtd"><svg t="1656904485604" class="icon" viewBox="0 0 1024 1024" version="1.1" xmlns="http://www.w3.org/2000/svg" p-id="1860" xmlns:xlink="http://www.w3.org/1999/xlink" width="200" height="200"><defs><style type="text/css">@font-face { font-family: feedback-iconfont; src: url("//at.alicdn.com/t/font_1031158_u69w8yhxdu.woff2?t=1630033759944") format("woff2"), url("//at.alicdn.com/t/font_1031158_u69w8yhxdu.woff?t=1630033759944") format("woff"), url("//at.alicdn.com/t/font_1031158_u69w8yhxdu.ttf?t=1630033759944") format("truetype"); }
</style></defs><path d="M928 160H498.688a8 8 0 0 0-8 8V224c0 4.416 3.584 8 8 8h389.312v156.544a172.608 172.608 0 0 1-36.032-11.072c-22.144-8.64-47.168-18.496-94.848-18.496-47.616 0-72.704 9.856-94.848 18.56-19.264 7.488-34.56 13.44-68.544 13.44-34.112 0-49.28-5.952-68.608-13.44-22.144-8.704-47.168-18.56-94.848-18.56s-72.704 9.856-94.848 18.56c-19.264 7.488-34.56 13.44-68.544 13.44-34.048 0-49.28-5.952-68.608-13.44a226.56 226.56 0 0 0-62.272-16.768V168A8 8 0 0 0 128 160h-56A8 8 0 0 0 64 168V832a32 32 0 0 0 32 32h832a32 32 0 0 0 32-32V192a32 32 0 0 0-32-32zM171.968 444.544c22.144 8.64 47.232 18.432 94.848 18.432 47.68 0 72.704-9.792 94.848-18.432 19.328-7.552 34.56-13.568 68.608-13.568s49.28 6.016 68.608 13.568c22.144 8.64 47.168 18.432 94.848 18.432 47.616 0 72.704-9.792 94.784-18.432 19.328-7.552 34.56-13.568 68.608-13.568s49.28 6.016 68.608 13.568c16.448 6.4 34.56 13.44 62.272 16.64V570.88a172.608 172.608 0 0 1-36.032-11.072 227.392 227.392 0 0 0-94.784-18.496c-47.68 0-72.768 9.792-94.848 18.496-19.328 7.552-34.56 13.504-68.608 13.504s-49.28-6.016-68.608-13.504a227.328 227.328 0 0 0-94.784-18.496 227.2 227.2 0 0 0-94.848 18.496c-19.328 7.552-34.56 13.504-68.608 13.504S217.6 567.232 198.4 559.744c-16.512-6.4-34.56-13.504-62.336-16.768V433.472c14.016 2.432 24.256 6.4 36.032 11.072z m-35.968 347.456V615.68c14.016 2.496 24.256 6.464 36.032 11.072 22.08 8.704 47.168 18.56 94.784 18.56 47.68 0 72.704-9.856 94.848-18.56a157.44 157.44 0 0 1 68.608-13.44c34.048 0 49.28 5.952 68.544 13.44 22.144 8.704 47.232 18.56 94.848 18.56 47.68 0 72.704-9.856 94.848-18.56a157.44 157.44 0 0 1 68.608-13.44c34.048 0 49.28 5.952 68.544 13.44 16.448 6.464 34.56 13.568 62.336 16.768v148.48H136z" p-id="1861"></path></svg>