<?xml version="1.0" standalone="no"?><!DOCTYPE svg PUBLIC "-//W3C//DTD SVG 1.1//EN" "http://www.w3.org/Graphics/SVG/1.1/DTD/svg11.dtd"><svg t="1677639456453" class="icon" viewBox="0 0 1024 1024" version="1.1" xmlns="http://www.w3.org/2000/svg" p-id="4742" xmlns:xlink="http://www.w3.org/1999/xlink" width="200" height="200"><path d="M357.376 112a29.696 29.696 0 0 1 27.52 17.792c145.088 259.2 217.6 438.336 217.6 537.216 0 133.76-107.264 242.56-240.512 244.928h-4.48a245.568 245.568 0 0 1-244.992-244.928c0-98.88 72.448-277.952 217.408-537.216A29.696 29.696 0 0 1 356.928 112h0.448z m0 125.632l-1.6 3.072-3.008 5.632-3.008 5.568-2.944 5.568-2.944 5.504-2.88 5.504-4.288 8.256-2.88 5.376-2.816 5.44-2.752 5.312-2.752 5.376-1.408 2.624-4.032 7.936-4.032 7.872-2.56 5.184-2.624 5.12-1.28 2.56-2.56 5.12-2.56 5.12-1.28 2.56-3.712 7.552-3.712 7.488-2.432 4.928-2.368 4.928-2.368 4.928-2.304 4.864-2.88 6.016-2.88 6.016a2404.48 2404.48 0 0 0-3.328 7.04l-2.24 4.736c-0.64 1.6-1.408 3.2-2.112 4.672l-2.176 4.672-2.112 4.608-2.112 4.608-2.048 4.48-2.048 4.608-1.984 4.48-1.024 2.24-1.92 4.48-1.984 4.352-1.92 4.416-1.92 4.352-0.896 2.112-1.856 4.352-2.24 5.312-2.24 5.312a1525.76 1525.76 0 0 0-6.016 14.528l-1.088 2.624c-32.832 81.28-48.768 142.272-48.768 179.904a169.6 169.6 0 0 0 166.208 169.024h5.952A169.024 169.024 0 0 0 526.464 669.76v-2.816c0-37.632-15.872-98.56-48.768-179.84a1471.616 1471.616 0 0 0-3.456-8.32l-1.728-4.288-0.896-2.112-1.792-4.224-0.896-2.176-1.792-4.288-1.92-4.352-1.856-4.416-0.96-2.176-1.92-4.48-0.96-2.176-1.92-4.48-2.048-4.48a1978.24 1978.24 0 0 0-3.072-6.784l-2.048-4.608-2.112-4.608-2.624-5.824-2.688-5.888-2.24-4.672-2.176-4.8-2.24-4.736a2437.696 2437.696 0 0 0-3.456-7.296l-2.304-4.864-2.944-6.08-3.008-6.208-2.368-4.928-2.432-5.056-3.136-6.272-3.136-6.4-1.28-2.56-2.56-5.12-1.28-2.56-2.56-5.12-2.624-5.248-2.688-5.248-2.624-5.248-4.096-8-2.752-5.376-2.752-5.376-3.52-6.72-3.584-6.848-2.88-5.504-4.352-8.32-4.416-8.32-4.48-8.448-4.544-8.512-3.2-5.952zM278.144 667.52a7.04 7.04 0 0 1 7.04 6.528v0.64l0.128 0.576v0.256c3.776 33.664 30.72 60.544 64.512 64.064h0.384c4.16 0.448 7.296 3.84 7.296 8v40.448a7.744 7.744 0 0 1-8.128 7.68h-0.896A128.768 128.768 0 0 1 229.184 676.8l-0.064-1.92a6.912 6.912 0 0 1 6.848-7.36h42.24zM880 112c4.416 0 8 3.584 8 8v40a8 8 0 0 1-8 8h-80v129.984h80c4.416 0 8 3.584 8 8v40a8 8 0 0 1-8 8h-80v129.984h80c4.416 0 8 3.584 8 8v40a8 8 0 0 1-8 8.064h-80v129.92h80c4.416 0 8 3.648 8 8.064v40a8 8 0 0 1-8 8h-80V856h80c4.416 0 8 3.584 8 8v40a8 8 0 0 1-8 8H736a8 8 0 0 1-8-8V120c0-4.416 3.584-8 8-8h144z" p-id="4743"></path></svg>