<?xml version="1.0" standalone="no"?><!DOCTYPE svg PUBLIC "-//W3C//DTD SVG 1.1//EN" "http://www.w3.org/Graphics/SVG/1.1/DTD/svg11.dtd"><svg t="1648462646418" class="icon" viewBox="0 0 1024 1024" version="1.1" xmlns="http://www.w3.org/2000/svg" p-id="109519" xmlns:xlink="http://www.w3.org/1999/xlink" width="200" height="200"><defs><style type="text/css">@font-face { font-family: feedback-iconfont; src: url("//at.alicdn.com/t/font_1031158_u69w8yhxdu.woff2?t=1630033759944") format("woff2"), url("//at.alicdn.com/t/font_1031158_u69w8yhxdu.woff?t=1630033759944") format("woff"), url("//at.alicdn.com/t/font_1031158_u69w8yhxdu.ttf?t=1630033759944") format("truetype"); }
</style></defs><path d="M308 204c90.575 0 164 73.425 164 164 0 71.68-45.986 132.619-110.065 154.925l-15.526 53.737a64 64 0 0 0-2.493 16.107l-0.017 0.91-3.841 321.374a24 24 0 0 1-1.84 8.939l-0.227 0.529-22.68 51.03a8 8 0 0 1-14.621 0l-22.68-51.03a24 24 0 0 1-2.068-9.468l-2.624-217.007L111.423 859.2a8 8 0 0 1-11.313-0.026l-28.22-28.35a8 8 0 0 1 0.026-11.313l200.491-199.573-0.306-26.26a64 64 0 0 0-2.51-17.017l-15.525-53.737C189.986 500.619 144 439.68 144 368c0-90.575 73.425-164 164-164zM796.083 47.99a16 16 0 0 1 9.902 3.431l0.953 0.76C855.773 91.524 888 159.16 888 235.994c0 99.978-50.564 184.38-125.282 211.146l-9.73 29.728a64 64 0 0 0-3.142 17.87l-0.021 0.867-0.392 21.394h112.053c12.28 0 22.578 9.269 23.867 21.48l19.847 188c1.392 13.182-8.166 24.996-21.347 26.387a24 24 0 0 1-2.52 0.133h-136.21l-3.04 182.428a24 24 0 0 1-1.63 8.268l-0.212 0.525-24.856 50.056a8 8 0 0 1-14.77 0L675.76 944.22a24 24 0 0 1-1.843-8.793L670.876 753H542.666c-13.255 0-24-10.745-24-24a24 24 0 0 1 0.133-2.52l19.847-188c1.289-12.211 11.588-21.48 23.867-21.48h104.052l-0.39-21.394a64 64 0 0 0-3.164-18.737l-9.73-29.728C578.564 420.375 528 335.973 528 235.995c0-76.554 31.992-143.976 80.528-183.383l1.451-1.166 0.295-0.228a16 16 0 0 1 9.638-3.228h176.171zM828.686 577H595.313l-13.09 116h259.553l-13.09-116zM308 276c-50.81 0-92 41.19-92 92s41.19 92 92 92 92-41.19 92-92-41.19-92-92-92z m466.321-156.011H641.675l-0.061 0.066c-25.23 27.222-41.239 68.515-41.607 114.322l-0.007 1.618c0 65.25 31.625 119.936 73.304 139.912l0.195 0.092H742.5l0.196-0.092c41.23-19.76 72.623-73.49 73.293-137.81l0.011-2.102c0-46.165-15.888-87.893-41.169-115.455l-0.51-0.551z" p-id="109520"></path></svg>