<?xml version="1.0" standalone="no"?><!DOCTYPE svg PUBLIC "-//W3C//DTD SVG 1.1//EN" "http://www.w3.org/Graphics/SVG/1.1/DTD/svg11.dtd"><svg t="1658470707671" class="icon" viewBox="0 0 1024 1024" version="1.1" xmlns="http://www.w3.org/2000/svg" p-id="930" xmlns:xlink="http://www.w3.org/1999/xlink" width="200" height="200"><defs><style type="text/css">@font-face { font-family: feedback-iconfont; src: url("//at.alicdn.com/t/font_1031158_u69w8yhxdu.woff2?t=1630033759944") format("woff2"), url("//at.alicdn.com/t/font_1031158_u69w8yhxdu.woff?t=1630033759944") format("woff"), url("//at.alicdn.com/t/font_1031158_u69w8yhxdu.ttf?t=1630033759944") format("truetype"); }
</style></defs><path d="M574.378667 304l3.84 38.4a16 16 0 0 1-15.914667 17.578667h-18.304v122.026666h11.989333c8.832 0 16 7.168 16 16v36.010667h103.296a120.064 120.064 0 1 1 0 55.978667h-103.253333v75.989333a16 16 0 0 1-16.042667 16h-11.989333v198.016h39.04a32 32 0 0 1 31.829333 28.8l4.266667 42.410667a7.978667 7.978667 0 0 1-7.978667 8.789333H412.842667a7.978667 7.978667 0 0 1-7.978667-8.789333l4.266667-42.410667a32 32 0 0 1 31.829333-28.8h39.04v-197.973333h-11.989333a16 16 0 0 1-16-16.042667v-75.946667H348.714667a120.064 120.064 0 1 1 0-56.021333h103.253333v-36.010667c0-8.832 7.210667-16 16.042667-16h11.989333v-122.026666h-18.346667a16 16 0 0 1-15.914666-17.578667l12.8-128a16 16 0 0 1 15.957333-14.421333h75.008c8.234667 0 15.104 6.229333 15.914667 14.421333l3.413333 33.578667h126.890667l11.776-176.512a7.978667 7.978667 0 0 1 7.978666-7.466667h153.045334c4.224 0 7.68 3.285333 7.978666 7.466667l14.933334 224a8.021333 8.021333 0 0 1-7.978667 8.533333h-309.034667z m-342.357334 214.016a43.989333 43.989333 0 1 0 0 87.978667 43.989333 43.989333 0 0 0 0-87.978667z m560 0a43.989333 43.989333 0 1 0 0 87.978667 43.989333 43.989333 0 0 0 0-87.978667z m31.573334-398.037333h-63.189334l-8.533333 128h80.256l-8.533333-128z" p-id="931"></path></svg>