<?xml version="1.0" standalone="no"?><!DOCTYPE svg PUBLIC "-//W3C//DTD SVG 1.1//EN" "http://www.w3.org/Graphics/SVG/1.1/DTD/svg11.dtd"><svg t="1648635832979" class="icon" viewBox="0 0 1024 1024" version="1.1" xmlns="http://www.w3.org/2000/svg" p-id="44914" xmlns:xlink="http://www.w3.org/1999/xlink" width="200" height="200"><defs><style type="text/css">@font-face { font-family: feedback-iconfont; src: url("//at.alicdn.com/t/font_1031158_u69w8yhxdu.woff2?t=1630033759944") format("woff2"), url("//at.alicdn.com/t/font_1031158_u69w8yhxdu.woff?t=1630033759944") format("woff"), url("//at.alicdn.com/t/font_1031158_u69w8yhxdu.ttf?t=1630033759944") format("truetype"); }
</style></defs><path d="M723.008 620.48A318.72 318.72 0 0 0 513.024 542.08a318.72 318.72 0 0 0-210.112 78.592 8.128 8.128 0 0 0-0.832 11.2l36.032 42.88c2.88 3.392 8 3.84 11.392 0.896a246.4 246.4 0 0 1 163.52-61.568c62.72 0 119.872 23.168 163.456 61.44 3.392 2.944 8.512 2.56 11.392-0.832l36.032-42.88a8 8 0 0 0-0.896-11.264z m117.376-140.096a509.632 509.632 0 0 0-327.36-118.4 510.08 510.08 0 0 0-327.552 118.4 8.064 8.064 0 0 0-0.96 11.328l35.968 42.88c2.816 3.392 7.936 3.84 11.2 1.024A438.784 438.784 0 0 1 513.024 433.92c106.88 0 204.992 38.208 281.152 101.632a7.936 7.936 0 0 0 11.2-1.024l36.032-42.88a8.064 8.064 0 0 0-1.024-11.328z m116.736-139.008a700.992 700.992 0 0 0-446.08-159.36c-168.256 0-322.624 59.008-443.712 157.44a8 8 0 0 0-1.152 11.328l36.032 42.88c2.816 3.328 7.808 3.84 11.072 1.152a629.248 629.248 0 0 1 397.696-140.8c151.808 0 291.008 53.504 400 142.72a7.936 7.936 0 0 0 11.2-1.152l36.032-42.88a7.872 7.872 0 0 0-1.088-11.328zM448 777.984a64 64 0 1 0 128 0 64 64 0 0 0-128 0z" p-id="44915"></path></svg>