<?xml version="1.0" standalone="no"?><!DOCTYPE svg PUBLIC "-//W3C//DTD SVG 1.1//EN" "http://www.w3.org/Graphics/SVG/1.1/DTD/svg11.dtd"><svg t="1648476958883" class="icon" viewBox="0 0 1024 1024" version="1.1" xmlns="http://www.w3.org/2000/svg" p-id="137862" xmlns:xlink="http://www.w3.org/1999/xlink" width="200" height="200"><defs><style type="text/css">@font-face { font-family: feedback-iconfont; src: url("//at.alicdn.com/t/font_1031158_u69w8yhxdu.woff2?t=1630033759944") format("woff2"), url("//at.alicdn.com/t/font_1031158_u69w8yhxdu.woff?t=1630033759944") format("woff"), url("//at.alicdn.com/t/font_1031158_u69w8yhxdu.ttf?t=1630033759944") format("truetype"); }
</style></defs><path d="M120.384 478.528a8 8 0 0 0-8 8v55.936c0 4.48 3.584 8 8 8h503.488a8 8 0 0 0 8-8v-55.936a8 8 0 0 0-8-8H120.384z m400.64 158.848a8 8 0 0 0-8 8v55.936a8 8 0 0 0 7.936 8h274.752a43.968 43.968 0 1 1 0 87.936H608a8 8 0 0 0-8 7.936v56a8 8 0 0 0 8 7.936h193.792a8.128 8.128 0 0 0 2.112-0.256 115.84 115.84 0 0 0-2.112-231.488H520.96z m-199.808 0a8 8 0 0 0-8 8v55.936c0 4.416 3.584 8 8 8h143.808a8 8 0 0 0 8-8v-55.936a8 8 0 0 0-8-8H321.28z m286.72-478.528a8 8 0 0 0-8 8v55.936c0 4.416 3.584 8 8 8h187.776a43.968 43.968 0 0 1 0 87.936H240.256a8 8 0 0 0-8 7.936v56a8 8 0 0 0 8 7.936h561.472a8.064 8.064 0 0 0 2.112-0.256 115.84 115.84 0 0 0-2.112-231.488H607.936z" p-id="137863"></path></svg>