<?xml version="1.0" standalone="no"?><!DOCTYPE svg PUBLIC "-//W3C//DTD SVG 1.1//EN" "http://www.w3.org/Graphics/SVG/1.1/DTD/svg11.dtd"><svg t="1658806224670" class="icon" viewBox="0 0 1024 1024" version="1.1" xmlns="http://www.w3.org/2000/svg" p-id="23558" xmlns:xlink="http://www.w3.org/1999/xlink" width="200" height="200"><defs><style type="text/css">@font-face { font-family: feedback-iconfont; src: url("//at.alicdn.com/t/font_1031158_u69w8yhxdu.woff2?t=1630033759944") format("woff2"), url("//at.alicdn.com/t/font_1031158_u69w8yhxdu.woff?t=1630033759944") format("woff"), url("//at.alicdn.com/t/font_1031158_u69w8yhxdu.ttf?t=1630033759944") format("truetype"); }
</style></defs><path d="M429.504 612.096a91.2 91.2 0 0 0 25.024 42.88 1094.08 1094.08 0 0 1-145.152 97.92c-113.024 65.472-213.056 104.512-223.232 86.976-10.112-17.6 73.408-84.992 186.496-150.528 50.176-29.76 102.656-55.616 156.864-77.248z m164.032-0.32l32.448 13.312c42.88 18.432 84.608 39.552 124.8 63.36 113.408 65.088 196.928 132.352 186.944 149.76-1.152 2.048-3.52 3.264-6.976 3.84l-3.776 0.32c-30.464 0.64-117.12-35.84-212.608-90.432a1118.464 1118.464 0 0 1-145.152-96.768c6.272-5.76 11.712-12.352 16.128-19.648 3.84-7.488 6.592-15.488 8.192-23.68zM476.16 536.96a69.504 69.504 0 1 1 70.016 120.128A69.504 69.504 0 0 1 476.16 536.96z m35.648-430.272c20.928 0 37.12 105.92 37.12 236.608 0.64 58.368-3.2 116.672-11.648 174.464a91.072 91.072 0 0 0-49.536 0.192c-8.704-57.792-12.8-116.096-12.224-174.528-0.192-130.816 15.36-236.8 36.288-236.8z" p-id="23559"></path></svg>