<?xml version="1.0" standalone="no"?><!DOCTYPE svg PUBLIC "-//W3C//DTD SVG 1.1//EN" "http://www.w3.org/Graphics/SVG/1.1/DTD/svg11.dtd"><svg t="1678332339777" class="icon" viewBox="0 0 1024 1024" version="1.1" xmlns="http://www.w3.org/2000/svg" p-id="2308" xmlns:xlink="http://www.w3.org/1999/xlink" width="200" height="200"><path d="M824 270.016a136 136 0 0 1 2.24 272H96a8 8 0 0 1-8-8v-56c0-4.48 3.584-8 8-8h728a64 64 0 1 0-44.032-110.464l-0.448 0.448-0.448 0.448-0.512 0.512a61.504 61.504 0 0 0-0.256 0.32l-0.64 0.64a8 8 0 0 1-11.136 0.576l-44.032-33.408a8 8 0 0 1-1.6-11.776l0.64-0.704 0.512-0.64 0.256-0.32A135.744 135.744 0 0 1 824 270.016z m-392-136a136 136 0 0 1 2.24 272H120a8 8 0 0 1-8-8v-56c0-4.48 3.584-8 8-8h312A64 64 0 1 0 393.088 219.2l-0.256 0.128-0.448 0.448a43.52 43.52 0 0 0-0.256 0.192l-0.576 0.448a8 8 0 0 1-10.944-0.576l-39.552-38.528a8.064 8.064 0 0 1-0.32-12.16l1.024-0.896 0.64-0.576 0.64-0.512c24.32-21.12 55.744-33.152 88.96-33.152zM680 128a48 48 0 1 1 0 96 48 48 0 0 1 0-96z m-62.016 478.016a136 136 0 1 1-92.736 235.52l-0.896-0.96-0.64-0.64a8 8 0 0 1-0.32-11.52l0.192-0.256 0.64-0.64 40.448-36.864a8.064 8.064 0 0 1 11.328-0.512l0.384 0.32 0.64 0.64a47.68 47.68 0 0 0 1.28 1.024l0.576 0.448a64 64 0 1 0 40.32-114.56H119.936a8 8 0 0 1-8-8v-56c0-4.48 3.584-8 8-8H617.92z m-216 136c4.48 0 8 3.584 8 8v56a8 8 0 0 1-8 8h-168a8 8 0 0 1-8-8v-56c0-4.48 3.584-8 8-8h168z" p-id="2309"></path></svg>