<?xml version="1.0" standalone="no"?><!DOCTYPE svg PUBLIC "-//W3C//DTD SVG 1.1//EN" "http://www.w3.org/Graphics/SVG/1.1/DTD/svg11.dtd"><svg t="1678332348631" class="icon" viewBox="0 0 1024 1024" version="1.1" xmlns="http://www.w3.org/2000/svg" p-id="2618" xmlns:xlink="http://www.w3.org/1999/xlink" width="200" height="200"><path d="M611.904 628.608a1197.44 1197.44 0 0 1 128 64.768C854.656 759.616 938.752 828.864 927.68 848c-11.008 19.136-113.024-19.072-227.84-85.376a1195.776 1195.776 0 0 1-120.192-78.528 100.48 100.48 0 0 0 32.256-55.488z m-199.68-0.064c4.352 22.016 15.872 41.344 32 55.68l-6.592 4.928a1224.32 1224.32 0 0 1-113.472 73.472C209.344 828.928 107.328 867.136 96.32 848c-11.072-19.136 73.024-88.32 187.84-154.624 46.528-26.88 90.944-49.152 128.064-64.832zM512 542.016a65.984 65.984 0 1 1 0 131.968 65.984 65.984 0 0 1 0-131.904zM512 128c22.08 0 40 107.456 40 240 0 53.76-2.944 103.36-7.936 143.36a101.888 101.888 0 0 0-64.192-0.192A1193.344 1193.344 0 0 1 472 368c0-132.544 17.92-240 40-240z" p-id="2619"></path></svg>