<?xml version="1.0" standalone="no"?><!DOCTYPE svg PUBLIC "-//W3C//DTD SVG 1.1//EN" "http://www.w3.org/Graphics/SVG/1.1/DTD/svg11.dtd"><svg t="1679309401512" class="icon" viewBox="0 0 1024 1024" version="1.1" xmlns="http://www.w3.org/2000/svg" p-id="2010" xmlns:xlink="http://www.w3.org/1999/xlink" width="200" height="200"><path d="M620.544 632.32l1.408 0.64 2.816 1.28c1.472 0.576 2.88 1.216 4.352 1.92l2.88 1.28 2.944 1.28 2.944 1.408 2.944 1.344 3.008 1.408 3.008 1.408 3.008 1.472 1.536 0.704 3.072 1.472 3.072 1.536 3.136 1.536 3.136 1.536 1.536 0.768 3.2 1.536 3.136 1.6 3.2 1.6 3.2 1.664 3.2 1.664 3.2 1.664 3.328 1.664 3.2 1.728 3.328 1.728 1.664 0.896 3.264 1.728 1.664 0.896 3.328 1.792 3.328 1.792 3.392 1.856 3.328 1.856 1.728 0.896 3.328 1.92 3.392 1.856 3.392 1.92 1.728 0.96 3.392 1.92 3.456 1.92 3.392 1.984 1.728 1.024 25.92 15.36 24.64 15.232 23.232 15.104 21.568 14.72 19.84 14.336 17.792 13.696 15.68 12.864 0.896 0.768 1.664 1.472 4.992 4.352 1.536 1.472 0.768 0.64 1.536 1.472 0.768 0.64 1.472 1.408 2.816 2.752 1.344 1.28c17.28 17.152 25.344 30.272 21.376 37.056-3.072 5.312-13.056 6.208-28.416 3.328l-1.28-0.256-1.344-0.256-0.64-0.128-1.408-0.32-0.64-0.128-1.408-0.32-0.64-0.192-1.472-0.32-1.472-0.384-1.472-0.384-1.472-0.384-1.536-0.384-1.536-0.448-1.536-0.448-1.6-0.448a290.688 290.688 0 0 1-0.768-0.256l-17.088-5.568-19.008-7.104-10.24-4.096-21.504-9.344-22.912-10.688-11.968-5.76-24.704-12.608-25.6-13.696-26.176-14.72-3.52-2.048-3.456-2.048-1.728-1.024-3.456-2.048-1.728-1.024-3.456-2.048a1431.04 1431.04 0 0 1-1.664-0.96l-3.392-2.048a1411.2 1411.2 0 0 1-1.728-1.024l-3.328-2.048-1.664-1.024-3.328-1.984-3.328-2.048-1.6-1.024-3.264-2.048-3.264-1.984-3.2-2.048-1.6-1.024-3.2-1.984-1.6-1.024-3.136-2.048-3.136-1.984-1.536-1.024-3.072-1.92-1.536-1.088-3.008-1.92a1189.76 1189.76 0 0 1-1.536-1.024l-2.944-1.984-3.008-1.984-2.944-1.984-2.88-1.984-1.472-0.96-2.816-1.984-2.88-1.92-1.344-1.024-2.816-1.92-1.408-0.96-2.688-1.92-1.408-0.96-2.688-1.92a934.4 934.4 0 0 1-1.28-0.96l-2.688-1.92a892.8 892.8 0 0 1-2.56-1.92l-2.944-2.048-1.408-1.024a8 8 0 0 1-0.96-12.032l0.576-0.64 0.512-0.512a100.48 100.48 0 0 0 21.888-37.632l0.32-1.088 0.128-0.512a8 8 0 0 1 10.88-5.056z m-206.08 5.056v0.192c4.544 15.36 12.672 29.12 23.36 40.448l0.448 0.448a6.976 6.976 0 0 1-0.384 10.496l-0.256 0.192-1.28 0.896-2.496 1.856-1.28 0.896-2.496 1.856-2.56 1.856-2.56 1.856-2.688 1.856-2.624 1.92-4.096 2.752-2.688 1.92-1.408 0.96-2.752 1.92-2.816 1.92-2.816 1.92-2.88 1.92-2.88 1.92-2.944 1.92-2.944 1.92-2.944 1.92-3.008 1.984-1.536 1.024-3.008 1.92-1.536 0.96-3.072 1.984-1.536 0.96-3.136 1.984-1.536 1.024-3.2 1.92-3.136 1.984-3.2 1.984-3.2 1.92-3.2 2.048-1.6 0.96-3.264 1.984-1.664 1.024-3.328 1.92-3.264 2.048-3.392 1.92-1.664 1.024-3.328 1.984-3.392 1.92-1.728 1.024-3.392 1.984-26.24 14.784-25.6 13.696-24.64 12.608-23.552 11.264-11.328 5.184-21.568 9.344-19.904 7.872-9.28 3.328-17.088 5.568-1.6 0.512-1.536 0.448a264 264 0 0 1-0.768 0.192l-1.536 0.448-1.536 0.384-1.472 0.384-1.472 0.384-1.472 0.384-1.408 0.32-1.408 0.32-0.64 0.192-1.408 0.256a159.36 159.36 0 0 1-0.64 0.192l-1.344 0.256-0.64 0.128-1.28 0.256c-15.36 2.88-25.408 1.92-28.48-3.328-3.968-6.784 4.16-19.904 21.376-36.992l1.344-1.344 2.816-2.752 1.472-1.344 0.768-0.704 1.536-1.408a339.2 339.2 0 0 1 0.768-0.704l1.536-1.472 4.992-4.352 1.664-1.472a441.6 441.6 0 0 1 0.896-0.768l15.68-12.864 17.792-13.696 19.84-14.272 21.568-14.784 23.232-15.104 24.64-15.296 25.92-15.36 3.456-1.92 3.52-2.048 3.456-1.92 3.456-1.984 3.456-1.92 3.456-1.92 3.456-1.92 3.392-1.92 3.456-1.856 1.664-0.896 3.392-1.856 3.392-1.792 3.392-1.792 3.328-1.792 3.328-1.792 3.328-1.728 3.328-1.728 1.6-0.832 3.328-1.664 1.6-0.832 3.264-1.664 3.2-1.664 3.264-1.6 1.6-0.768 3.2-1.6 3.2-1.536 1.536-0.768 3.2-1.536 3.072-1.536 3.136-1.472 1.536-0.704 3.072-1.472 3.008-1.408 3.072-1.408 1.472-0.704 3.008-1.408 2.944-1.28 2.944-1.344 2.944-1.28 3.584-1.6 0.32-0.128a8 8 0 0 1 10.88 5.056zM512 542.016a65.984 65.984 0 1 1 0 131.968 65.984 65.984 0 0 1 0-131.904zM512 128c4.928 0 9.6 5.376 14.016 15.104l0.448 1.024 0.448 1.088 0.448 1.088 0.448 1.152 0.448 1.152 0.384 1.152 0.448 1.216 0.448 1.28 0.448 1.28 0.384 1.28 0.448 1.28 0.384 1.408 0.448 1.344 0.384 1.408 0.256 0.768 0.384 1.472 0.384 1.472 0.448 1.536 0.384 1.536 0.384 1.536 0.384 1.6 0.192 0.832 3.712 17.536 3.328 20.032 2.944 22.336 2.496 24.32 1.024 12.8 1.728 26.88 1.28 28.352 0.32 14.656L552 368v11.584l-0.064 3.904-0.064 3.84v3.84l-0.128 3.776v1.92l-0.128 3.712-0.064 3.776-0.128 3.712v1.92l-0.128 3.648-0.128 3.712-0.128 3.648-0.192 3.648v1.792l-0.192 3.648-0.064 1.792-0.192 3.584-0.192 3.52-0.064 1.792-0.192 3.52-0.192 3.52-0.128 1.728-0.192 3.456-0.256 3.392-0.192 3.456-0.128 1.664-0.256 3.392-0.256 3.328-0.256 3.328-0.128 1.6-0.256 3.328-0.128 1.6-0.32 3.2-0.256 3.2-0.32 3.2-0.32 3.136-0.32 3.136-0.32 3.072-0.128 1.472-0.384 3.072-0.128 1.472a6.976 6.976 0 0 1-8.704 5.952l-0.512-0.128a98.752 98.752 0 0 0-46.912-0.256l-0.768 0.192a7.552 7.552 0 0 1-9.28-6.208l-0.064-0.32-0.32-2.944-0.32-3.072-0.192-1.536-0.32-3.072-0.256-3.072-0.32-3.136-0.32-3.2-0.256-3.2-0.256-3.2-0.32-3.2-0.256-3.328-0.256-3.264-0.192-3.392-0.256-3.328-0.256-3.392-0.192-3.392-0.192-3.456-0.256-3.456-0.064-1.728-0.192-3.52-0.192-3.52-0.192-3.584v-1.728l-0.192-3.584-0.128-1.792-0.128-3.648v-1.792l-0.192-3.648-0.128-3.648-0.128-3.712v-1.856l-0.128-3.712-0.064-3.712-0.128-3.776v-3.712l-0.128-3.776v-3.84l-0.064-3.84v-7.68l-0.064-3.84v-1.92l0.32-30.08c0.064-4.928 0.192-9.856 0.384-14.72l1.216-28.288 1.728-26.88 2.24-25.216 1.28-11.904 2.944-22.336 3.328-20.032 3.712-17.536 0.192-0.832 0.384-1.6 0.384-1.536 0.384-1.536 0.448-1.536 0.384-1.472 0.384-1.472 0.448-1.472a196.48 196.48 0 0 1 0.192-0.64l0.448-1.536 0.384-1.408 0.448-1.28 0.384-1.28 0.448-1.28 0.448-1.28 0.448-1.216 0.384-1.152 0.448-1.152 0.448-1.152 0.448-1.088 0.448-1.088 0.448-1.024C502.4 133.376 507.072 128 512 128z" p-id="2011"></path></svg>