<?xml version="1.0" standalone="no"?><!DOCTYPE svg PUBLIC "-//W3C//DTD SVG 1.1//EN" "http://www.w3.org/Graphics/SVG/1.1/DTD/svg11.dtd"><svg t="1659949466700" class="icon" viewBox="0 0 1024 1024" version="1.1" xmlns="http://www.w3.org/2000/svg" p-id="33746" xmlns:xlink="http://www.w3.org/1999/xlink" width="200" height="200"><defs><style type="text/css">@font-face { font-family: feedback-iconfont; src: url("//at.alicdn.com/t/font_1031158_u69w8yhxdu.woff2?t=1630033759944") format("woff2"), url("//at.alicdn.com/t/font_1031158_u69w8yhxdu.woff?t=1630033759944") format("woff"), url("//at.alicdn.com/t/font_1031158_u69w8yhxdu.ttf?t=1630033759944") format("truetype"); }
</style></defs><path d="M512 64a279.978667 279.978667 0 0 1 40.021333 557.226667v110.762666H896c8.874667 0 16.042667 7.168 16.042667 16.042667v47.957333a15.957333 15.957333 0 0 1-16.042667 16.042667H552.021333v131.925333a15.957333 15.957333 0 0 1-16.042666 16.042667H488.106667a15.957333 15.957333 0 0 1-16.042667-16.042667V812.117333H128a16.042667 16.042667 0 0 1-16.042667-16.042666v-47.957334c0-8.874667 7.168-16.042667 16.042667-16.042666h343.978667V621.226667A280.064 280.064 0 0 1 512 64z m0 75.946667a203.946667 203.946667 0 1 0 0 408.064A203.946667 203.946667 0 0 0 512 139.946667z" p-id="33747"></path></svg>