<?xml version="1.0" standalone="no"?><!DOCTYPE svg PUBLIC "-//W3C//DTD SVG 1.1//EN" "http://www.w3.org/Graphics/SVG/1.1/DTD/svg11.dtd"><svg t="1678006123836" class="icon" viewBox="0 0 1024 1024" version="1.1" xmlns="http://www.w3.org/2000/svg" p-id="2320" xmlns:xlink="http://www.w3.org/1999/xlink" width="200" height="200"><path d="M712.768 548.8a282.304 282.304 0 0 0 83.2-200.768c0-75.904-29.44-147.2-83.2-200.832A282.304 282.304 0 0 0 512 64c-75.776 0-147.2 29.44-200.832 83.2a282.304 282.304 0 0 0-83.2 200.832A281.856 281.856 0 0 0 311.104 548.8a281.28 281.28 0 0 0 162.88 80.64V736H360a8 8 0 0 0-8 8v60.032c0 4.352 3.584 7.936 8 7.936h113.984V952c0 4.416 3.648 8 8 8h60.032a8 8 0 0 0 8-8V811.968H664a8 8 0 0 0 8-7.936V744a8 8 0 0 0-8-8H550.016V629.504A281.856 281.856 0 0 0 712.768 548.8zM512 556.032a206.72 206.72 0 0 1-147.072-60.928A206.592 206.592 0 0 1 304 348.032c0-55.68 21.632-107.712 60.928-147.136A206.144 206.144 0 0 1 512 140.032a206.72 206.72 0 0 1 147.072 60.864C698.368 240.192 720 292.416 720 348.032a206.72 206.72 0 0 1-60.928 147.072A206.72 206.72 0 0 1 512 556.032z" p-id="2321"></path></svg>