<?xml version="1.0" standalone="no"?><!DOCTYPE svg PUBLIC "-//W3C//DTD SVG 1.1//EN" "http://www.w3.org/Graphics/SVG/1.1/DTD/svg11.dtd"><svg t="1704281589411" class="icon" viewBox="0 0 1024 1024" version="1.1" xmlns="http://www.w3.org/2000/svg" p-id="1575" xmlns:xlink="http://www.w3.org/1999/xlink" width="200" height="200"><path d="M880 112a32 32 0 0 1 32 32v736a32 32 0 0 1-32 32H144a32 32 0 0 1-32-32V144a32 32 0 0 1 32-32h736zM456 503.616l-280 280V848h342.08L659.2 706.816 456 503.68z m243.84 243.84L599.296 848h201.088l-100.48-100.544zM848 599.296L739.456 707.84 848 816.384V599.296z m-409.984-6.4a8 8 0 0 1 4.48 4.48l53.12 130.688a8 8 0 0 1-7.488 11.008H455.04v52.032a8 8 0 0 1-8 8h-24a8 8 0 0 1-8-8v-52.032h-33.088a8 8 0 0 1-7.424-11.008l53.12-130.752a8 8 0 0 1 10.432-4.48zM176 543.616v160.768L256.384 624 176 543.616z m672-240.768L591.232 559.616 698.816 667.2 848 518.08V302.848zM441.984 176H176v287.168l120.64 120.64 64.512-64.576a134.08 134.08 0 0 1 189.696 0l117.12-117.184L442.048 176z m318.848 230.912h0.064a7.616 7.616 0 0 1 4.48 4.288l38.464 99.968a8 8 0 0 1-7.488 10.88h-18.368v38.016a8 8 0 0 1-8 8h-24a8 8 0 0 1-8-8v-38.016H719.68a8 8 0 0 1-7.488-10.88l38.4-99.712a8 8 0 0 1 10.24-4.544zM391.808 244.928h0.064a7.616 7.616 0 0 1 4.48 4.224l38.464 100.032a8 8 0 0 1-7.488 10.88H408.96v38.016a8 8 0 0 1-8 8h-24a8 8 0 0 1-8-8v-38.016h-18.24a8 8 0 0 1-7.488-10.88l38.4-99.712a8 8 0 0 1 10.24-4.544zM848 176H521.216l186.432 186.432L848 222.08V176z m-579.2 24.96h0.128a7.616 7.616 0 0 1 4.416 4.224l38.464 99.968a8 8 0 0 1-7.488 10.88h-18.368v38.016a8 8 0 0 1-8 8H254.08a8 8 0 0 1-8-8v-38.016h-18.304a8 8 0 0 1-7.488-10.88l38.4-99.712a8 8 0 0 1 10.24-4.48z" p-id="1576"></path></svg>