<?xml version="1.0" standalone="no"?><!DOCTYPE svg PUBLIC "-//W3C//DTD SVG 1.1//EN" "http://www.w3.org/Graphics/SVG/1.1/DTD/svg11.dtd"><svg t="1678023368223" class="icon" viewBox="0 0 1024 1024" version="1.1" xmlns="http://www.w3.org/2000/svg" p-id="1362" xmlns:xlink="http://www.w3.org/1999/xlink" width="200" height="200"><path d="M680 80a32 32 0 0 1 32 32v40h120a32 32 0 0 1 32 32v713.984a32 32 0 0 1-32 32H192a32 32 0 0 1-32-32V184a32 32 0 0 1 32-32h120v-40a32 32 0 0 1 32-32h336z m32 184a32 32 0 0 1-32 32H344a32 32 0 0 1-32-32v-40h-80v633.984h560V224h-80v40z m-8 416c4.416 0 8 3.584 8 8v48a8 8 0 0 1-8 8H320a8 8 0 0 1-8-8v-48c0-4.416 3.584-8 8-8h384z m0-144c4.416 0 8 3.584 8 8v48a8 8 0 0 1-8 8H320a8 8 0 0 1-8-8v-48c0-4.416 3.584-8 8-8h384z m0-144c4.416 0 8 3.584 8 8v48a8 8 0 0 1-8 8H320a8 8 0 0 1-8-8v-48c0-4.416 3.584-8 8-8h384zM384 152v72h256v-72H384z" p-id="1363"></path></svg>