<?xml version="1.0" standalone="no"?><!DOCTYPE svg PUBLIC "-//W3C//DTD SVG 1.1//EN" "http://www.w3.org/Graphics/SVG/1.1/DTD/svg11.dtd"><svg t="1691470795220" class="icon" viewBox="0 0 1024 1024" version="1.1" xmlns="http://www.w3.org/2000/svg" p-id="836" xmlns:xlink="http://www.w3.org/1999/xlink" width="200" height="200"><path d="M696 528c119.25 0 216 96.75 216 216s-96.75 216-216 216-216-96.75-216-216 96.75-216 216-216zM680 80c17.673 0 32 14.327 32 32v40h120c17.673 0 32 14.327 32 32v288a8 8 0 0 1-8 8h-56a8 8 0 0 1-8-8V224h-80v40c0 17.673-14.327 32-32 32H344c-17.673 0-32-14.327-32-32v-40h-80v633.984h192a8 8 0 0 1 8 8v56a8 8 0 0 1-8 8H192c-17.673 0-32-14.327-32-32V184c0-17.673 14.327-32 32-32h120v-40c0-17.673 14.327-32 32-32h336z m16 512c-83.817 0-152 68.183-152 152s68.183 152 152 152c84.251 0 152-68.183 152-152s-68.183-152-152-152z m99.365 73a8 8 0 0 1 6.474 12.7L683.264 841.05a8 8 0 0 1-12.947 0.002l-75.79-104.351A8 8 0 0 1 601.002 724h35.472a16 16 0 0 1 12.946 6.597l27.36 37.674 70.173-96.67a16 16 0 0 1 12.949-6.6h35.464zM475 497a8 8 0 0 1 8 8v48a8 8 0 0 1-8 8H320a8 8 0 0 1-8-8v-48c0-4.416 3.584-8 8-8h155z m229-128c4.416 0 8 3.584 8 8v48a8 8 0 0 1-8 8H320a8 8 0 0 1-8-8v-48c0-4.416 3.584-8 8-8h384z m-64-217H384v72h256v-72z" p-id="837"></path></svg>