<?xml version="1.0" standalone="no"?><!DOCTYPE svg PUBLIC "-//W3C//DTD SVG 1.1//EN" "http://www.w3.org/Graphics/SVG/1.1/DTD/svg11.dtd"><svg t="1725592461073" class="icon" viewBox="0 0 1024 1024" version="1.1" xmlns="http://www.w3.org/2000/svg" p-id="995" xmlns:xlink="http://www.w3.org/1999/xlink" width="200" height="200"><path d="M696 528c119.25 0 216 96.75 216 216s-96.75 216-216 216-216-96.75-216-216 96.75-216 216-216zM680 80c17.673 0 32 14.327 32 32v40h120c17.673 0 32 14.327 32 32v288a8 8 0 0 1-8 8h-56a8 8 0 0 1-8-8V224h-80v40c0 17.673-14.327 32-32 32H344c-17.673 0-32-14.327-32-32v-40h-80v633.984h192a8 8 0 0 1 8 8v56a8 8 0 0 1-8 8H192c-17.673 0-32-14.327-32-32V184c0-17.673 14.327-32 32-32h120v-40c0-17.673 14.327-32 32-32h336z m16 512c-83.817 0-152 68.183-152 152s68.183 152 152 152c84.251 0 152-68.183 152-152s-68.183-152-152-152z m0.999 76.252l2.856 1.39 88.819 67.825a8 8 0 0 1 2.093 10.327l-2.093 2.39-88.819 67.825a8 8 0 0 1-12.447-3.83l-0.408-2.528 0.001-39.825h-78.56c-3.287 0-6.077-2.293-7.062-5.472l-0.379-2.529v-40c0-3.534 2.132-6.533 5.09-7.592l2.352-0.408H687V676a8 8 0 0 1 9.999-7.748zM475 497a8 8 0 0 1 8 8v48a8 8 0 0 1-8 8H320a8 8 0 0 1-8-8v-48c0-4.416 3.584-8 8-8h155z m229-128c4.416 0 8 3.584 8 8v48a8 8 0 0 1-8 8H320a8 8 0 0 1-8-8v-48c0-4.416 3.584-8 8-8h384z m-64-217H384v72h256v-72z" p-id="996"></path></svg>