<?xml version="1.0" standalone="no"?><!DOCTYPE svg PUBLIC "-//W3C//DTD SVG 1.1//EN" "http://www.w3.org/Graphics/SVG/1.1/DTD/svg11.dtd"><svg t="1653042608613" class="icon" viewBox="0 0 1024 1024" version="1.1" xmlns="http://www.w3.org/2000/svg" p-id="2940" xmlns:xlink="http://www.w3.org/1999/xlink" width="200" height="200"><defs><style type="text/css">@font-face { font-family: feedback-iconfont; src: url("//at.alicdn.com/t/font_1031158_u69w8yhxdu.woff2?t=1630033759944") format("woff2"), url("//at.alicdn.com/t/font_1031158_u69w8yhxdu.woff?t=1630033759944") format("woff"), url("//at.alicdn.com/t/font_1031158_u69w8yhxdu.ttf?t=1630033759944") format("truetype"); }
</style></defs><path d="M120 912a8 8 0 0 1-8-8v-56a8 8 0 0 1 8-8h200l-0.001-169.014C176.595 658.812 64 538.555 64 392c0-154.64 125.36-280 280-280h336c154.64 0 280 125.36 280 280 0 146.554-112.594 266.811-255.998 278.986L704 840h200a8 8 0 0 1 8 8v56a8 8 0 0 1-8 8H120z m512-72V672H392v168h240z m48-652H344c-112.666 0-204 91.334-204 204 0 111.54 89.516 202.171 200.626 203.973L344 596h336c112.666 0 204-91.334 204-204 0-111.54-89.516-202.171-200.626-203.973L680 188z m-324 76c70.692 0 128 57.308 128 128 0 70.692-57.308 128-128 128-70.692 0-128-57.308-128-128 0-70.692 57.308-128 128-128z m312 0c70.692 0 128 57.308 128 128 0 70.692-57.308 128-128 128-70.692 0-128-57.308-128-128 0-70.692 57.308-128 128-128z m-312 64c-35.346 0-64 28.654-64 64 0 35.346 28.654 64 64 64 35.346 0 64-28.654 64-64 0-35.346-28.654-64-64-64z m312 0c-35.346 0-64 28.654-64 64 0 35.346 28.654 64 64 64 35.346 0 64-28.654 64-64 0-35.346-28.654-64-64-64z" p-id="2941"></path></svg>