<?xml version="1.0" standalone="no"?><!DOCTYPE svg PUBLIC "-//W3C//DTD SVG 1.1//EN" "http://www.w3.org/Graphics/SVG/1.1/DTD/svg11.dtd"><svg t="1706282502218" class="icon" viewBox="0 0 1024 1024" version="1.1" xmlns="http://www.w3.org/2000/svg" p-id="2851" xmlns:xlink="http://www.w3.org/1999/xlink" width="200" height="200"><path d="M820.032 104a145.984 145.984 0 0 1 85.76 264.128 427.968 427.968 0 1 1-788.8 2.688A145.984 145.984 0 1 1 312 157.504a426.112 426.112 0 0 1 200-49.472c70.848 0 137.664 17.216 196.544 47.68A145.792 145.792 0 0 1 820.032 104zM512 180.032a356.032 356.032 0 1 0 0 712 356.032 356.032 0 0 0 0-712.064z m0 404.928a55.872 55.872 0 1 1 38.4 96.64 48.197 48.197 0 0 0 41.408 24.32h42.496c4.352 0 7.872 3.456 8 7.744v48.256a8 8 0 0 1-7.68 8H590.4a112 112 0 0 1-78.336-33.6 112 112 0 0 1-78.272 33.6h-43.84a8 8 0 0 1-8-8v-48c0-4.416 3.584-8 8-8h41.984c17.92 0 33.472-9.664 41.856-24.128A55.936 55.936 0 0 1 512 585.024zM400 360.896a102.144 102.144 0 0 1 78.08 132.544c-9.216 27.968-30.4 50.496-58.048 61.76L345.6 585.536a90.688 90.688 0 0 1-111.296-37.568 90.368 90.368 0 0 1 20.864-115.712l62.784-50.56a101.12 101.12 0 0 1 81.92-20.8z m306.816 20.48l62.464 50.56c34.496 27.648 43.712 77.44 20.8 115.712C774.4 575.936 744 592 712.96 592c-11.264 0-22.848-2.048-33.792-6.464l-74.432-30.72a102.784 102.784 0 0 1-57.984-61.824 101.76 101.76 0 0 1 78.144-132.48 102.4 102.4 0 0 1 81.92 20.864z m-348.224 49.92l-0.448 0.32-62.848 50.56a26.368 26.368 0 0 0-5.952 32.96l0.128 0.192 0.128 0.192c4.736 7.616 13.12 12.352 22.208 12.48h0.448c3.136 0 6.016-0.512 8.832-1.6l0.448-0.192 74.432-30.336a36.928 36.928 0 0 0 21.184-22.08l0.192-0.448a38.144 38.144 0 0 0-28.032-49.28l-0.512-0.128h-0.32l-0.384-0.128a37.12 37.12 0 0 0-29.504 7.424z m277.952-7.808h-0.192l-0.192 0.064a37.76 37.76 0 0 0-25.088 17.408l-0.448 0.768a36.736 36.736 0 0 0-3.328 30.592 38.784 38.784 0 0 0 21.376 23.104l0.512 0.192 74.112 30.656 0.448 0.128a26.24 26.24 0 0 0 8.64 1.6h0.576c9.024 0 17.152-4.48 20.992-11.072l0.192-0.32 0.512-0.96 0.512-0.896a25.984 25.984 0 0 0-5.632-32.64l-62.912-50.88a38.4 38.4 0 0 0-30.08-7.68zM199.04 176a73.984 73.984 0 0 0-48.128 130.24 430.08 430.08 0 0 1 99.84-109.248A73.792 73.792 0 0 0 199.04 176z m621.056 0a73.862 73.862 0 0 0-49.472 18.944A430.208 430.208 0 0 1 871.36 303.36 73.984 73.984 0 0 0 820.096 176z" p-id="2852"></path></svg>