<?xml version="1.0" standalone="no"?><!DOCTYPE svg PUBLIC "-//W3C//DTD SVG 1.1//EN" "http://www.w3.org/Graphics/SVG/1.1/DTD/svg11.dtd"><svg t="1703830376474" class="icon" viewBox="0 0 1024 1024" version="1.1" xmlns="http://www.w3.org/2000/svg" p-id="1844" xmlns:xlink="http://www.w3.org/1999/xlink" width="200" height="200"><path d="M752 240a32 32 0 0 1 32 32v608a32 32 0 0 1-32 32H144a32 32 0 0 1-32-32V272a32 32 0 0 1 32-32h608z m-40 72H184v528h528V312z m168-200a32 32 0 0 1 32 32v616a8 8 0 0 1-8 8h-56a8 8 0 0 1-8-8V184H264a8 8 0 0 1-8-8v-56c0-4.416 3.584-8 8-8h616zM472 433.984c4.416 0 8 3.584 8 8v108.032h108.032c4.416 0 7.936 3.584 7.936 8v48a8 8 0 0 1-7.936 8H480v107.968a8 8 0 0 1-8 8h-48a8 8 0 0 1-8-8V614.016H307.968a8 8 0 0 1-8-8v-48c0-4.48 3.584-8 8-8H416V441.984c0-4.416 3.584-8 8-8h48z" p-id="1845"></path></svg>