<?xml version="1.0" standalone="no"?><!DOCTYPE svg PUBLIC "-//W3C//DTD SVG 1.1//EN" "http://www.w3.org/Graphics/SVG/1.1/DTD/svg11.dtd"><svg t="1679049626353" class="icon" viewBox="0 0 1024 1024" version="1.1" xmlns="http://www.w3.org/2000/svg" p-id="2982" xmlns:xlink="http://www.w3.org/1999/xlink" width="200" height="200"><path d="M784 288a32 32 0 0 1 32 32v536a32 32 0 0 1-32 32H96a32 32 0 0 1-32-32V320a32 32 0 0 1 32-32h688z m-40 72H136v456h608V360z m-273.984 84.032c4.288 0 7.872 3.456 8 7.68v98.24H576c4.288 0 7.872 3.52 8 7.808v60.224a8 8 0 0 1-7.744 8h-98.24v97.984a8 8 0 0 1-7.744 8h-60.288a8 8 0 0 1-8-7.68v-98.304H304a8 8 0 0 1-8-7.808V558.08c0-4.352 3.456-7.872 7.744-8h98.24v-98.048c0-4.352 3.456-7.872 7.744-8h60.288zM928 112a32 32 0 0 1 32 32v374.016a32 32 0 0 1-32 32h-56a8 8 0 0 1-8-8v-48c0-4.48 3.584-8 8-8h24V176H480v56a8 8 0 0 1-8 8h-48a8 8 0 0 1-8-8v-88a32 32 0 0 1 32-32h480z" p-id="2983"></path></svg>