<?xml version="1.0" standalone="no"?><!DOCTYPE svg PUBLIC "-//W3C//DTD SVG 1.1//EN" "http://www.w3.org/Graphics/SVG/1.1/DTD/svg11.dtd"><svg t="1677839670240" class="icon" viewBox="0 0 1024 1024" version="1.1" xmlns="http://www.w3.org/2000/svg" p-id="3405" xmlns:xlink="http://www.w3.org/1999/xlink" width="200" height="200"><path d="M784 288a32 32 0 0 1 32 32v536a32 32 0 0 1-32 32H96a32 32 0 0 1-32-32V320a32 32 0 0 1 32-32h688z m-40 72H136v456h608V360zM576 550.016c4.288 0 7.872 3.456 8 7.68v60.352a8 8 0 0 1-7.744 8H304a8 8 0 0 1-8-7.68v-60.416c0-4.352 3.456-7.872 7.744-8H576zM928 112a32 32 0 0 1 32 32v374.016a32 32 0 0 1-32 32h-64v-64h32V176H480v64h-64v-96a32 32 0 0 1 32-32h480z" p-id="3406"></path></svg>